<?xml version="1.0" encoding="UTF-8" standalone="no"?>
<!-- Created with Inkscape (http://www.inkscape.org/) -->

<svg
   width="64"
   height="64"
   viewBox="0 0 16.933333 16.933334"
   version="1.1"
   id="svg5"
   inkscape:version="1.1.1 (3bf5ae0d25, 2021-09-20, custom)"
   sodipodi:docname="cpu.svg"
   xmlns:inkscape="http://www.inkscape.org/namespaces/inkscape"
   xmlns:sodipodi="http://sodipodi.sourceforge.net/DTD/sodipodi-0.dtd"
   xmlns:xlink="http://www.w3.org/1999/xlink"
   xmlns="http://www.w3.org/2000/svg"
   xmlns:svg="http://www.w3.org/2000/svg">
  <sodipodi:namedview
     id="namedview7"
     pagecolor="#ffffff"
     bordercolor="#666666"
     borderopacity="1.0"
     inkscape:pageshadow="2"
     inkscape:pageopacity="0.0"
     inkscape:pagecheckerboard="0"
     inkscape:document-units="px"
     showgrid="false"
     units="px"
     height="64px"
     inkscape:zoom="8.905126"
     inkscape:cx="-4.8286796"
     inkscape:cy="37.394193"
     inkscape:window-width="1920"
     inkscape:window-height="1011"
     inkscape:window-x="0"
     inkscape:window-y="0"
     inkscape:window-maximized="1"
     inkscape:current-layer="svg5" />
  <defs
     id="defs2">
    <linearGradient
       inkscape:collect="always"
       id="linearGradient14489">
      <stop
         style="stop-color:#b3b3b3;stop-opacity:1;"
         offset="0"
         id="stop14485" />
      <stop
         style="stop-color:#d4d4d4;stop-opacity:1"
         offset="0.5"
         id="stop14557" />
      <stop
         style="stop-color:#b3b3b3;stop-opacity:0.9973911"
         offset="1"
         id="stop14487" />
    </linearGradient>
    <linearGradient
       inkscape:collect="always"
       id="linearGradient13931">
      <stop
         style="stop-color:#d8d8d8;stop-opacity:1"
         offset="0"
         id="stop13927" />
      <stop
         style="stop-color:#f2f2f2;stop-opacity:1"
         offset="1"
         id="stop13929" />
    </linearGradient>
    <linearGradient
       inkscape:collect="always"
       id="linearGradient12797">
      <stop
         style="stop-color:#b3b3b3;stop-opacity:1"
         offset="0"
         id="stop12793" />
      <stop
         style="stop-color:#ffffff;stop-opacity:1"
         offset="1"
         id="stop12795" />
    </linearGradient>
    <linearGradient
       inkscape:collect="always"
       id="linearGradient7534">
      <stop
         style="stop-color:#2f8b57;stop-opacity:1;"
         offset="0"
         id="stop7530" />
      <stop
         style="stop-color:#37a274;stop-opacity:0.83907491"
         offset="1"
         id="stop7532" />
    </linearGradient>
    <linearGradient
       inkscape:collect="always"
       id="linearGradient4343">
      <stop
         style="stop-color:#b3b3b3;stop-opacity:1"
         offset="0"
         id="stop4339" />
      <stop
         style="stop-color:#f2f2f2;stop-opacity:1"
         offset="0.5"
         id="stop13288" />
      <stop
         style="stop-color:#cccccc;stop-opacity:1"
         offset="1"
         id="stop4341" />
    </linearGradient>
    <linearGradient
       id="linearGradient964"
       x1="30"
       x2="30"
       y1="10"
       y2="70"
       gradientTransform="matrix(0.25538579,0,0,0.25538579,0.30194105,0.30141953)"
       gradientUnits="userSpaceOnUse">
      <stop
         offset="0"
         id="stop49" />
      <stop
         stop-opacity=".35"
         offset="1"
         id="stop51" />
    </linearGradient>
    <linearGradient
       inkscape:collect="always"
       xlink:href="#linearGradient4343"
       id="linearGradient4345"
       x1="10.583333"
       y1="13.758333"
       x2="10.583333"
       y2="3.1749995"
       gradientUnits="userSpaceOnUse" />
    <linearGradient
       inkscape:collect="always"
       xlink:href="#linearGradient7534"
       id="linearGradient7536"
       x1="57"
       y1="4.913386e-07"
       x2="57"
       y2="64"
       gradientUnits="userSpaceOnUse"
       gradientTransform="scale(0.26458334)" />
    <linearGradient
       inkscape:collect="always"
       xlink:href="#linearGradient12797"
       id="linearGradient12799"
       x1="14"
       y1="50"
       x2="54"
       y2="8"
       gradientUnits="userSpaceOnUse"
       gradientTransform="scale(0.26458334)" />
    <linearGradient
       inkscape:collect="always"
       xlink:href="#linearGradient13931"
       id="linearGradient13933"
       x1="13.229167"
       y1="13.758334"
       x2="4.2333341"
       y2="3.7041671"
       gradientUnits="userSpaceOnUse" />
    <linearGradient
       inkscape:collect="always"
       xlink:href="#linearGradient14489"
       id="linearGradient14491"
       x1="34"
       y1="12"
       x2="34"
       y2="52"
       gradientUnits="userSpaceOnUse"
       gradientTransform="scale(0.26458334)" />
  </defs>
  <path
     id="rect846"
     style="fill:url(#linearGradient7536);fill-opacity:1;stroke-width:2.38125;stroke-linecap:round;stroke-linejoin:round"
     d="M 1.3229167,1.3229167 V 3.7041668 A 0.52916671,0.52916671 0 0 1 1.8520834,4.2333334 0.52916671,0.52916671 0 0 1 1.3229167,4.7625001 V 15.610417 H 15.610417 V 4.7625001 A 0.52916671,0.52916671 0 0 1 15.08125,4.2333334 0.52916671,0.52916671 0 0 1 15.610417,3.7041668 V 1.3229167 Z" />
  <path
     id="path65"
     style="opacity:0.1;fill:url(#linearGradient964);stroke-width:0.255374"
     d="m 1.8732707,1.3229167 v 3.3005737 l -0.550354,0.5493205 v 0.550354 l 0.8247559,0.824756 H 4.5966188 L 2.6892415,4.6405436 C 2.4935738,4.6208216 2.344599,4.4563478 2.3445598,4.2596883 c 6.6e-6,-0.2115561 0.1713661,-0.382915 0.3829224,-0.3829222 0.2115566,6.4e-6 0.3829156,0.1713656 0.3829222,0.3829222 2.73e-5,0.024609 -0.00204,0.049223 -0.00672,0.073381 l 2.2148517,2.214852 7.2806929,1.0583334 1.924947,-2.1998658 h 1.086239 c -0.0079,-0.09301 -0.02082,-0.1842852 -0.03617,-0.2749187 H 14.524178 V 2.9729452 L 12.323796,5.4482464 H 11.49904 L 13.698906,2.9729452 V 1.3229167 H 12.559957 V 3.1104044 L 9.1281252,6.5417196 8.7674238,6.1805015 12.048877,2.8990479 V 1.3229167 H 11.283032 V 3.1104044 L 7.8517173,6.5417196 7.70754,6.3975426 7.5638797,6.5417196 7.0693361,6.0471763 6.5753093,6.5417196 6.4311323,6.3975426 6.286955,6.5417196 2.8551231,3.1104044 V 1.3229167 Z m 1.4929321,0 V 2.8990479 L 6.4311323,5.9634603 6.7081179,5.6864749 6.1753339,5.1536908 H 5.6647706 v -0.51108 L 4.1325645,3.1104044 V 1.3229167 Z m 1.2769247,0 v 1.5761312 l 1.0216431,1.021643 V 1.3229167 Z m 1.5327231,0 -5.292e-4,3.1083375 0.8940023,0.8940022 0.1715659,-0.1715656 H 6.9416829 V 1.3229167 Z m 1.276408,0 V 4.9418172 L 8.2625451,4.1320478 H 8.21862 V 1.3229167 Z m 1.2769247,0 V 3.6654095 L 9.4955447,2.8990479 V 1.3229167 Z m 1.2769247,0 V 3.1104044 L 7.4305543,5.6864749 7.70754,5.9634603 10.772469,2.8990479 V 1.3229167 Z M 4.0736532,9.8484946 1.3234335,12.048877 1.3229167,12.964584 2.9734619,11.773959 v 0.54932 l -1.6505452,1.117245 1.100708,-0.01654 v 2.18643 h 1.6500285 v -3.011702 l 1.6500285,-1.37511 h 0.824756 l -1.6495118,1.37511 v 3.011702 h 1.0211263 v -1.296562 l 3.4313152,-3.430798 0.1441773,0.144177 0.1441773,-0.144177 0.494027,0.494027 0.494543,-0.494027 0.144177,0.144177 0.144178,-0.144177 3.431315,3.430798 v 1.296562 h 0.575159 v -1.275891 l -3.090768,-3.090251 0.360701,-0.361218 3.417363,3.416846 V 12.74961 L 13.698906,10.928015 13.149585,10.398849 12.599231,9.8484946 H 9.2909059 l 0.060462,0.060462 -3.1827516,3.1827514 c 0.00465,0.02416 0.00678,0.04877 0.00672,0.07338 -9.2e-6,0.211555 -0.1713677,0.382916 -0.3829225,0.382923 -0.211556,-7e-6 -0.382915,-0.171367 -0.3829224,-0.382923 3.91e-5,-0.19666 0.1490133,-0.361649 0.3446819,-0.381372 L 8.6893921,9.8484946 Z m 5.4218915,1.6128214 -3.0644124,3.064413 v 1.084688 h 0.7658446 v -1.296562 l 1.5322064,-1.532206 v -0.510563 h 0.5110798 l 0.5322673,-0.532784 z m 1.2769243,0 -0.277502,0.276986 2.575553,2.575553 v 1.296562 h 0.766362 v -1.084688 z m -0.63872,0.638204 -0.8934859,0.894002 v 2.616895 h 0.7658449 v -3.339331 h 0.299206 z m 0.382922,0.382922 v 3.127975 h 0.766361 v -2.317688 h 0.04393 z M 8.7291833,13.504085 7.70754,14.525729 v 1.084688 h 1.0216433 z m 3.0644127,0.255282 v 1.85105 h 0.766361 v -1.084688 z" />
  <path
     id="rect1361"
     style="opacity:0.2;fill:#000000;stroke-width:2.38125;stroke-linecap:round;stroke-linejoin:round"
     d="M 1.5875,1.5875 V 3.4866089 C 1.9040767,3.5985348 2.1159769,3.8975542 2.1166667,4.2333334 2.1159769,4.5691127 1.9040767,4.8681321 1.5875,4.980058 V 15.345834 H 15.345834 V 7.4083335 h -0.529167 v -1.5875 h 0.529167 V 4.9743734 C 15.03121,4.8631529 14.819747,4.567023 14.816667,4.2333334 14.819747,3.8996438 15.03121,3.603514 15.345834,3.4922934 V 1.5875 Z"
     sodipodi:nodetypes="ccccccccccccccc" />
  <path
     id="rect3863"
     style="fill:url(#linearGradient4345);stroke-width:2.2509;stroke-linecap:round;stroke-linejoin:round"
     d="m 4.2333336,3.175 h 8.4666654 c 0.586317,0 1.058334,0.4720168 1.058334,1.0583336 v 8.4666654 c 0,0.586317 -0.472017,1.058334 -1.058334,1.058334 H 4.2333336 C 3.6470168,13.758333 3.175,13.286316 3.175,12.699999 V 4.2333336 C 3.175,3.6470168 3.6470168,3.175 4.2333336,3.175 Z" />
  <path
     id="path7820"
     style="fill:#c5b149;fill-opacity:1;stroke-width:3.57188;stroke-linecap:round;stroke-linejoin:round"
     d="m 2.2489584,1.8520834 a 0.39687501,0.39687501 0 0 0 -0.396875,0.396875 0.39687501,0.39687501 0 0 0 0.396875,0.396875 0.39687501,0.39687501 0 0 0 0.396875,-0.396875 0.39687501,0.39687501 0 0 0 -0.396875,-0.396875 z m 1.7197917,0 V 2.1166667 H 4.2333334 V 1.8520834 Z M 4.2333334,2.1166667 V 2.3812501 H 4.4979168 V 2.1166667 Z m 0.2645834,0 H 4.7625001 V 1.8520834 H 4.4979168 Z m 0.2645833,0 V 2.3812501 H 5.0270835 V 2.1166667 Z m 0.2645834,0 H 5.2916668 V 1.8520834 H 5.0270835 Z m 0.2645833,0 V 2.3812501 H 5.5562501 V 2.1166667 Z m 0.2645833,0 H 5.8208335 V 1.8520834 H 5.5562501 Z m 0.2645834,0 V 2.3812501 H 6.0854168 V 2.1166667 Z m 0.2645833,0 H 6.3500002 V 1.8520834 H 6.0854168 Z m 0.2645834,0 V 2.3812501 H 6.6145835 V 2.1166667 Z m 0.2645833,0 H 6.8791668 V 1.8520834 H 6.6145835 Z m 0.2645833,0 V 2.3812501 H 7.1437502 V 2.1166667 Z m 0.2645834,0 H 7.4083335 V 1.8520834 H 7.1437502 Z m 0.2645833,0 V 2.3812501 H 7.6729169 V 2.1166667 Z m 0.2645834,0 H 7.9375002 V 1.8520834 H 7.6729169 Z m 0.2645833,0 V 2.3812501 H 8.2020835 V 2.1166667 Z m 0.2645833,0 H 8.4666669 V 1.8520834 H 8.2020835 Z m 0.2645834,0 V 2.3812501 H 8.7312502 V 2.1166667 Z m 0.2645833,0 H 8.9958336 V 1.8520834 H 8.7312502 Z m 0.2645834,0 V 2.3812501 H 9.2604169 V 2.1166667 Z M 14.816667,1.8520834 A 0.26458337,0.26458337 0 0 0 14.552084,2.1166667 0.26458337,0.26458337 0 0 0 14.816667,2.3812501 0.26458337,0.26458337 0 0 0 15.08125,2.1166667 0.26458337,0.26458337 0 0 0 14.816667,1.8520834 Z M 1.5875,14.2875 v 1.058334 h 1.0583334 z m 13.229167,0.264584 a 0.26458337,0.26458337 0 0 0 -0.264583,0.264583 0.26458337,0.26458337 0 0 0 0.264583,0.264583 0.26458337,0.26458337 0 0 0 0.264583,-0.264583 0.26458337,0.26458337 0 0 0 -0.264583,-0.264583 z" />
  <path
     id="rect12399"
     style="fill:url(#linearGradient12799);fill-opacity:1;stroke-width:2.50658;stroke-linecap:round;stroke-linejoin:round"
     d="m 4.2333334,3.1750001 c -0.5863169,0 -1.0583333,0.4720164 -1.0583333,1.0583333 V 12.7 c 0,0.586317 0.4720164,1.058334 1.0583333,1.058334 H 12.7 c 0.586317,0 1.058334,-0.472017 1.058334,-1.058334 V 4.2333334 c 0,-0.5863169 -0.472017,-1.0583333 -1.058334,-1.0583333 z m 0,0.2645833 H 12.7 c 0.439738,0 0.79375,0.3540125 0.79375,0.79375 V 12.7 c 0,0.439738 -0.354012,0.79375 -0.79375,0.79375 H 4.2333334 c -0.4397375,0 -0.79375,-0.354012 -0.79375,-0.79375 V 4.2333334 c 0,-0.4397375 0.3540125,-0.79375 0.79375,-0.79375 z" />
  <path
     id="rect13708"
     style="fill:url(#linearGradient13933);fill-opacity:1;stroke-width:2.38125;stroke-linecap:round;stroke-linejoin:round"
     d="m 4.7625003,4.2333336 h 7.4083337 c 0.293158,0 0.529167,0.2360083 0.529167,0.5291667 v 7.4083337 c 0,0.293158 -0.236009,0.529167 -0.529167,0.529167 H 4.7625003 c -0.2931584,0 -0.5291667,-0.236009 -0.5291667,-0.529167 V 4.7625003 c 0,-0.2931584 0.2360083,-0.5291667 0.5291667,-0.5291667 z" />
  <path
     id="rect13708-6"
     style="fill:url(#linearGradient14491);fill-opacity:1;stroke-width:2.38125;stroke-linecap:round;stroke-linejoin:round"
     d="m 4.7625001,4.2333334 c -0.2931581,0 -0.5291667,0.2360084 -0.5291667,0.5291667 V 12.170834 C 4.2333334,12.463992 4.469342,12.7 4.7625001,12.7 H 12.170834 C 12.463992,12.7 12.7,12.463992 12.7,12.170834 V 4.7625001 c 0,-0.2931583 -0.236008,-0.5291667 -0.529166,-0.5291667 z m 0,0.2645834 h 7.4083339 c 0.146579,0 0.264583,0.1180041 0.264583,0.2645833 v 7.4083339 c 0,0.146579 -0.118004,0.264583 -0.264583,0.264583 H 4.7625001 c -0.1465792,0 -0.2645833,-0.118004 -0.2645833,-0.264583 V 4.7625001 c 0,-0.1465792 0.1180041,-0.2645833 0.2645833,-0.2645833 z" />
  <path
     id="rect15233"
     style="opacity:0.3;fill:#000000;fill-opacity:1;stroke-width:2.17377;stroke-linecap:round;stroke-linejoin:round"
     d="M 5.2916668,5.5562501 V 5.8208335 H 7.9375002 V 5.5562501 Z m 0,0.7937501 V 6.6145835 H 8.4666669 V 6.3500002 Z m 0,0.79375 V 7.4083335 H 7.1437502 V 7.1437502 Z" />
</svg>
