<?xml version="1.0" encoding="UTF-8" standalone="no"?>
<!-- Created with Inkscape (http://www.inkscape.org/) -->

<svg
   width="64"
   height="64"
   viewBox="0 0 16.933333 16.933334"
   version="1.1"
   id="svg5"
   inkscape:version="1.1.1 (3bf5ae0d25, 2021-09-20, custom)"
   sodipodi:docname="device-harddisk-usb.svg"
   xmlns:inkscape="http://www.inkscape.org/namespaces/inkscape"
   xmlns:sodipodi="http://sodipodi.sourceforge.net/DTD/sodipodi-0.dtd"
   xmlns:xlink="http://www.w3.org/1999/xlink"
   xmlns="http://www.w3.org/2000/svg"
   xmlns:svg="http://www.w3.org/2000/svg">
  <sodipodi:namedview
     id="namedview7"
     pagecolor="#ffffff"
     bordercolor="#666666"
     borderopacity="1.0"
     inkscape:pageshadow="2"
     inkscape:pageopacity="0.0"
     inkscape:pagecheckerboard="0"
     inkscape:document-units="px"
     showgrid="false"
     units="px"
     height="64px"
     inkscape:zoom="5.6568543"
     inkscape:cx="25.632621"
     inkscape:cy="21.38998"
     inkscape:window-width="1920"
     inkscape:window-height="1011"
     inkscape:window-x="0"
     inkscape:window-y="0"
     inkscape:window-maximized="1"
     inkscape:current-layer="svg5" />
  <defs
     id="defs2">
    <linearGradient
       inkscape:collect="always"
       id="linearGradient10707">
      <stop
         style="stop-color:#ff9c03;stop-opacity:1;"
         offset="0"
         id="stop10703" />
      <stop
         style="stop-color:#ffbe04;stop-opacity:1"
         offset="1"
         id="stop10705" />
    </linearGradient>
    <linearGradient
       inkscape:collect="always"
       id="linearGradient10984">
      <stop
         style="stop-color:#2ed231;stop-opacity:1;"
         offset="0"
         id="stop10980" />
      <stop
         style="stop-color:#93da54;stop-opacity:1"
         offset="1"
         id="stop10982" />
    </linearGradient>
    <linearGradient
       inkscape:collect="always"
       id="linearGradient6967">
      <stop
         style="stop-color:#4c6565;stop-opacity:1"
         offset="0"
         id="stop6963" />
      <stop
         style="stop-color:#4c6565;stop-opacity:0"
         offset="0.23112841"
         id="stop7419" />
      <stop
         style="stop-color:#4c6565;stop-opacity:0"
         offset="1"
         id="stop6965" />
    </linearGradient>
    <linearGradient
       inkscape:collect="always"
       id="linearGradient6592">
      <stop
         style="stop-color:#d3dede;stop-opacity:1"
         offset="0"
         id="stop6588" />
      <stop
         style="stop-color:#a0b4ba;stop-opacity:1"
         offset="1"
         id="stop6590" />
    </linearGradient>
    <linearGradient
       inkscape:collect="always"
       id="linearGradient4519">
      <stop
         style="stop-color:#333333;stop-opacity:1"
         offset="0"
         id="stop4515" />
      <stop
         style="stop-color:#666666;stop-opacity:1"
         offset="1"
         id="stop4517" />
    </linearGradient>
    <linearGradient
       inkscape:collect="always"
       xlink:href="#linearGradient4519"
       id="linearGradient4521"
       x1="0.5291667"
       y1="17.991667"
       x2="16.933332"
       y2="11.641667"
       gradientUnits="userSpaceOnUse" />
    <linearGradient
       inkscape:collect="always"
       xlink:href="#linearGradient6592"
       id="linearGradient5805"
       x1="65.147461"
       y1="63.637695"
       x2="31.289062"
       y2="5.6005864"
       gradientUnits="userSpaceOnUse"
       gradientTransform="scale(0.26458334)" />
    <linearGradient
       inkscape:collect="always"
       xlink:href="#linearGradient10984"
       id="linearGradient10986"
       x1="12.170834"
       y1="14.2875"
       x2="14.285242"
       y2="14.306756"
       gradientUnits="userSpaceOnUse"
       gradientTransform="matrix(4.4999998,0,0,1,-51.064593,0)" />
    <linearGradient
       inkscape:collect="always"
       xlink:href="#linearGradient6967"
       id="linearGradient5316"
       x1="10.633923"
       y1="15.412689"
       x2="25.955433"
       y2="16.471022"
       gradientUnits="userSpaceOnUse"
       gradientTransform="translate(-10.104756,-8.1792812)" />
    <linearGradient
       inkscape:collect="always"
       xlink:href="#linearGradient6967"
       id="linearGradient6405"
       x1="26.508923"
       y1="15.941854"
       x2="10.609599"
       y2="17.529354"
       gradientUnits="userSpaceOnUse"
       gradientTransform="translate(-10.104756,-8.1792807)" />
    <linearGradient
       inkscape:collect="always"
       xlink:href="#linearGradient6592"
       id="linearGradient9317"
       x1="7.4263854"
       y1="2.9217856"
       x2="11.617343"
       y2="16.150953"
       gradientUnits="userSpaceOnUse" />
    <linearGradient
       inkscape:collect="always"
       xlink:href="#linearGradient10707"
       id="linearGradient10709"
       x1="19.052422"
       y1="38.743164"
       x2="58.935936"
       y2="0.74316442"
       gradientUnits="userSpaceOnUse" />
  </defs>
  <path
     id="path1957"
     style="color:#000000;fill:url(#linearGradient9317);fill-opacity:1;stroke:none;stroke-width:1;stroke-linecap:round;stroke-linejoin:round;-inkscape-stroke:none"
     d="M 3.7051653,1.3229167 C 3.0335923,1.322766 2.4682433,1.8258106 2.3905173,2.4928712 L 1.0763853,14.045655 15.850677,14.009998 14.542747,2.4928712 C 14.465021,1.8258107 13.900189,1.3227661 13.228615,1.3229167 Z"
     sodipodi:nodetypes="ccccccc" />
  <path
     id="path1957-56"
     style="color:#000000;fill:url(#linearGradient10709);fill-opacity:1;stroke:none;stroke-width:3.77953;stroke-linecap:round;stroke-linejoin:round;-inkscape-stroke:none"
     d="M 14.003906,5 C 11.465678,4.9994304 9.3289239,6.9007011 9.0351562,9.421875 L 5.0524213,44.486328 C 5.6790858,42.46082 7.5317433,41 9.7321087,41 H 54.264062 c 2.190492,0 4.037085,1.447625 4.671875,3.458984 L 54.964844,9.421875 C 54.671061,6.9007015 52.536279,4.9994308 49.998047,5 Z"
     transform="scale(0.26458334)"
     sodipodi:nodetypes="cccsscccc" />
  <path
     id="path1957-5"
     style="color:#000000;opacity:0.4;fill:url(#linearGradient6405);fill-opacity:1;stroke:none;stroke-width:1;stroke-linecap:round;stroke-linejoin:round;-inkscape-stroke:none"
     d="M 3.705165,1.322916 C 3.033591,1.322765 2.468242,1.82581 2.390517,2.49287 L 1.076385,14.045654 C 1.19242,13.282037 1.848774,12.700516 2.645798,12.700516 h 11.641667 c 0.784556,0 1.432453,0.563514 1.563212,1.309481 L 14.542747,2.49287 C 14.465017,1.82581 13.900189,1.322765 13.228615,1.322916 Z m -2.639632,12.815755 -0.0072,0.06356 h 0.0026 c 0.0011,-0.02137 0.0027,-0.04242 0.0046,-0.06356 z"
     inkscape:label="path1957-5" />
  <path
     id="path1957-3"
     style="color:#000000;opacity:0.4;fill:url(#linearGradient5316);fill-opacity:1;stroke:none;stroke-width:1;stroke-linecap:round;stroke-linejoin:round;-inkscape-stroke:none"
     d="m 3.7051643,1.3229167 c -0.671574,-1.51e-4 -1.236923,0.502893 -1.314648,1.169954 L 1.0763853,14.045654 c 0.116035,-0.763617 0.772389,-1.345138 1.569412,-1.345138 H 14.287465 c 0.784556,0 1.432453,0.563515 1.563212,1.309481 L 14.542747,2.4928707 c -0.07773,-0.667061 -0.642558,-1.170105 -1.314132,-1.169954 z m -2.639631,12.8157553 -0.0072,0.06356 h 0.0026 c 0.0011,-0.02137 0.0027,-0.04243 0.0046,-0.06356 z" />
  <path
     id="rect846"
     style="fill:url(#linearGradient4521);stroke-width:0.237835"
     d="M 2.6458334,12.7 H 14.2875 c 0.879475,0 1.5875,0.708025 1.5875,1.5875 0,0.879475 -0.708025,1.5875 -1.5875,1.5875 H 2.6458334 c -0.879475,0 -1.5875,-0.708025 -1.5875,-1.5875 0,-0.879475 0.708025,-1.5875 1.5875,-1.5875 z" />
  <path
     id="rect5143"
     style="opacity:0.5;fill:url(#linearGradient5805);fill-opacity:1;stroke:none;stroke-width:1.5875;stroke-linecap:round;stroke-linejoin:round;stroke-miterlimit:4;stroke-dasharray:none;stroke-opacity:1"
     d="m 2.6458334,12.7 c -0.8794755,0 -1.5875004,0.708025 -1.5875004,1.5875 0,0.879475 0.7080249,1.5875 1.5875004,1.5875 H 14.287501 c 0.879475,0 1.5875,-0.708025 1.5875,-1.5875 0,-0.879475 -0.708025,-1.5875 -1.5875,-1.5875 z m 0,0.529167 H 14.287501 c 0.586316,0 1.058333,0.472017 1.058333,1.058333 0,0.586317 -0.472017,1.058334 -1.058333,1.058334 H 2.6458334 c -0.586317,0 -1.0583337,-0.472017 -1.0583337,-1.058334 0,-0.586316 0.4720167,-1.058333 1.0583337,-1.058333 z" />
  <rect
     style="fill:url(#linearGradient10986);fill-opacity:1;stroke:none;stroke-width:2.31589;stroke-linecap:round;stroke-linejoin:round;stroke-miterlimit:4;stroke-dasharray:none;stroke-opacity:1"
     id="rect10502"
     width="9.5249996"
     height="0.5291667"
     x="3.7041698"
     y="14.022917"
     ry="0.26458335" />
</svg>
