<?xml version="1.0" encoding="UTF-8" standalone="no"?>
<!-- Created with Inkscape (http://www.inkscape.org/) -->

<svg
   width="64"
   height="64"
   viewBox="0 0 16.933333 16.933334"
   version="1.1"
   id="svg5"
   inkscape:version="1.1.1 (3bf5ae0d25, 2021-09-20, custom)"
   sodipodi:docname="drive-removable-media.svg"
   xmlns:inkscape="http://www.inkscape.org/namespaces/inkscape"
   xmlns:sodipodi="http://sodipodi.sourceforge.net/DTD/sodipodi-0.dtd"
   xmlns:xlink="http://www.w3.org/1999/xlink"
   xmlns="http://www.w3.org/2000/svg"
   xmlns:svg="http://www.w3.org/2000/svg">
  <sodipodi:namedview
     id="namedview7"
     pagecolor="#ffffff"
     bordercolor="#666666"
     borderopacity="1.0"
     inkscape:pageshadow="2"
     inkscape:pageopacity="0.0"
     inkscape:pagecheckerboard="0"
     inkscape:document-units="px"
     showgrid="false"
     units="px"
     height="64px"
     inkscape:zoom="6.2421875"
     inkscape:cx="16.500626"
     inkscape:cy="27.954944"
     inkscape:window-width="1920"
     inkscape:window-height="1019"
     inkscape:window-x="0"
     inkscape:window-y="0"
     inkscape:window-maximized="1"
     inkscape:current-layer="svg5" />
  <defs
     id="defs2">
    <linearGradient
       inkscape:collect="always"
       id="linearGradient10984">
      <stop
         style="stop-color:#2ed231;stop-opacity:1;"
         offset="0"
         id="stop10980" />
      <stop
         style="stop-color:#93da54;stop-opacity:1"
         offset="1"
         id="stop10982" />
    </linearGradient>
    <linearGradient
       inkscape:collect="always"
       id="linearGradient6967">
      <stop
         style="stop-color:#4c6565;stop-opacity:1"
         offset="0"
         id="stop6963" />
      <stop
         style="stop-color:#4c6565;stop-opacity:0"
         offset="0.23112841"
         id="stop7419" />
      <stop
         style="stop-color:#4c6565;stop-opacity:0"
         offset="1"
         id="stop6965" />
    </linearGradient>
    <linearGradient
       inkscape:collect="always"
       id="linearGradient6592">
      <stop
         style="stop-color:#d3dede;stop-opacity:1"
         offset="0"
         id="stop6588" />
      <stop
         style="stop-color:#a0b4ba;stop-opacity:1"
         offset="1"
         id="stop6590" />
    </linearGradient>
    <linearGradient
       inkscape:collect="always"
       id="linearGradient4519">
      <stop
         style="stop-color:#333333;stop-opacity:1"
         offset="0"
         id="stop4515" />
      <stop
         style="stop-color:#666666;stop-opacity:1"
         offset="1"
         id="stop4517" />
    </linearGradient>
    <linearGradient
       inkscape:collect="always"
       xlink:href="#linearGradient6592"
       id="linearGradient3701"
       gradientUnits="userSpaceOnUse"
       x1="12.582065"
       y1="11.69811"
       x2="8.467638"
       y2="1.3229817"
       gradientTransform="translate(-0.00416662,6.5107969e-4)" />
    <linearGradient
       inkscape:collect="always"
       xlink:href="#linearGradient4519"
       id="linearGradient4521"
       x1="0.5291667"
       y1="17.991667"
       x2="16.933332"
       y2="11.641667"
       gradientUnits="userSpaceOnUse" />
    <linearGradient
       inkscape:collect="always"
       xlink:href="#linearGradient6592"
       id="linearGradient5805"
       x1="65.147461"
       y1="63.637695"
       x2="31.289062"
       y2="5.6005864"
       gradientUnits="userSpaceOnUse"
       gradientTransform="scale(0.26458334)" />
    <linearGradient
       inkscape:collect="always"
       xlink:href="#linearGradient6967"
       id="linearGradient6969"
       x1="6.1417325e-08"
       y1="29.337912"
       x2="64"
       y2="33.33791"
       gradientUnits="userSpaceOnUse"
       gradientTransform="scale(0.26458334)" />
    <linearGradient
       inkscape:collect="always"
       xlink:href="#linearGradient6967"
       id="linearGradient10021"
       gradientUnits="userSpaceOnUse"
       x1="64"
       y1="29.337912"
       x2="9.8267719e-07"
       y2="33.33791"
       gradientTransform="matrix(0.26458334,0,0,0.26458334,2.323e-4,0)" />
    <linearGradient
       inkscape:collect="always"
       xlink:href="#linearGradient10984"
       id="linearGradient10986"
       x1="12.170834"
       y1="14.2875"
       x2="14.2875"
       y2="14.2875"
       gradientUnits="userSpaceOnUse" />
  </defs>
  <path
     style="color:#000000;fill:url(#linearGradient3701);fill-opacity:1;stroke:none;stroke-linecap:round;stroke-linejoin:round;-inkscape-stroke:none"
     d="M 3.1716147,1.3229167 C 2.7661199,1.3230289 2.4258917,1.628729 2.3825522,2.0319011 L 1.0583333,14.201823 H 15.875 L 14.542708,2.0319011 C 14.499369,1.6287292 14.159141,1.3230292 13.753646,1.3229167 Z"
     id="path2077"
     sodipodi:nodetypes="ccccccc" />
  <path
     id="rect846"
     style="fill:url(#linearGradient4521);stroke-width:0.237835"
     d="M 2.6458334,12.7 H 14.2875 c 0.879475,0 1.5875,0.708025 1.5875,1.5875 0,0.879475 -0.708025,1.5875 -1.5875,1.5875 H 2.6458334 c -0.879475,0 -1.5875,-0.708025 -1.5875,-1.5875 0,-0.879475 0.708025,-1.5875 1.5875,-1.5875 z" />
  <path
     id="rect5143"
     style="opacity:0.5;fill:url(#linearGradient5805);fill-opacity:1;stroke:none;stroke-width:1.5875;stroke-linecap:round;stroke-linejoin:round;stroke-miterlimit:4;stroke-dasharray:none;stroke-opacity:1"
     d="m 2.6458334,12.7 c -0.8794755,0 -1.5875004,0.708025 -1.5875004,1.5875 0,0.879475 0.7080249,1.5875 1.5875004,1.5875 H 14.287501 c 0.879475,0 1.5875,-0.708025 1.5875,-1.5875 0,-0.879475 -0.708025,-1.5875 -1.5875,-1.5875 z m 0,0.529167 H 14.287501 c 0.586316,0 1.058333,0.472017 1.058333,1.058333 0,0.586317 -0.472017,1.058334 -1.058333,1.058334 H 2.6458334 c -0.586317,0 -1.0583337,-0.472017 -1.0583337,-1.058334 0,-0.586316 0.4720167,-1.058333 1.0583337,-1.058333 z" />
  <path
     id="path2077-7"
     style="color:#000000;opacity:0.4;fill:url(#linearGradient6969);fill-opacity:1;stroke:none;stroke-width:1;stroke-linecap:round;stroke-linejoin:round;-inkscape-stroke:none"
     d="M 3.1713827,1.3229167 C 2.7658878,1.3230289 2.4261404,1.6287453 2.3828004,2.0319174 L 1.0676351,14.116968 C 1.1522154,13.318298 1.8240058,12.7 2.6458334,12.7 H 14.2875 c 0.820576,0 1.491444,0.616447 1.577682,1.413351 L 14.542782,2.0319174 C 14.499443,1.6287455 14.159178,1.3230292 13.753683,1.3229167 Z m -2.1052979,12.8054203 -0.00775,0.07338 h 0.00258 c 0.0013,-0.02467 0.00277,-0.04903 0.00517,-0.07338 z m 14.8011642,0.0016 c 0.0023,0.02385 0.0039,0.04768 0.0052,0.07183 h 0.0026 z" />
  <path
     id="path2077-7-1"
     style="color:#000000;opacity:0.4;fill:url(#linearGradient10021);fill-opacity:1;stroke:none;stroke-width:1;stroke-linecap:round;stroke-linejoin:round;-inkscape-stroke:none"
     d="m 3.1716147,1.3229167 c -0.405495,1.122e-4 -0.745242,0.3058286 -0.788582,0.7090007 L 1.0678674,14.116968 C 1.1524474,13.318298 1.8242381,12.7 2.6460657,12.7 H 14.287733 c 0.820575,0 1.491443,0.616447 1.577682,1.413351 L 14.543015,2.0319174 C 14.499676,1.6287455 14.15941,1.3230292 13.753915,1.3229167 Z m -2.1052976,12.8054203 -0.00775,0.07338 h 0.00258 c 0.0013,-0.02467 0.00277,-0.04903 0.00517,-0.07338 z m 14.8011649,0.0016 c 0.0023,0.02385 0.0039,0.04768 0.0052,0.07183 h 0.0026 z" />
  <rect
     style="fill:url(#linearGradient10986);fill-opacity:1;stroke:none;stroke-width:1.09172;stroke-linecap:round;stroke-linejoin:round;stroke-miterlimit:4;stroke-dasharray:none;stroke-opacity:1"
     id="rect10502"
     width="2.1166668"
     height="0.5291667"
     x="12.170834"
     y="14.022917"
     ry="0.26458335" />
</svg>
