<?xml version="1.0" encoding="UTF-8" standalone="no"?>
<!-- Created with Inkscape (http://www.inkscape.org/) -->

<svg
   width="64"
   height="64"
   viewBox="0 0 16.933333 16.933334"
   version="1.1"
   id="svg5"
   inkscape:version="1.1.1 (3bf5ae0d25, 2021-09-20, custom)"
   sodipodi:docname="drive-harddisk.svg"
   xmlns:inkscape="http://www.inkscape.org/namespaces/inkscape"
   xmlns:sodipodi="http://sodipodi.sourceforge.net/DTD/sodipodi-0.dtd"
   xmlns:xlink="http://www.w3.org/1999/xlink"
   xmlns="http://www.w3.org/2000/svg"
   xmlns:svg="http://www.w3.org/2000/svg">
  <sodipodi:namedview
     id="namedview7"
     pagecolor="#ffffff"
     bordercolor="#666666"
     borderopacity="1.0"
     inkscape:pageshadow="2"
     inkscape:pageopacity="0.0"
     inkscape:pagecheckerboard="0"
     inkscape:document-units="px"
     showgrid="false"
     units="px"
     height="64px"
     inkscape:zoom="1"
     inkscape:cx="-73"
     inkscape:cy="-19"
     inkscape:window-width="1920"
     inkscape:window-height="1011"
     inkscape:window-x="0"
     inkscape:window-y="0"
     inkscape:window-maximized="1"
     inkscape:current-layer="svg5" />
  <defs
     id="defs2">
    <linearGradient
       inkscape:collect="always"
       id="linearGradient16736">
      <stop
         style="stop-color:#40be00;stop-opacity:1;"
         offset="0"
         id="stop16732" />
      <stop
         style="stop-color:#aeff2e;stop-opacity:1"
         offset="1"
         id="stop16734" />
    </linearGradient>
    <linearGradient
       inkscape:collect="always"
       id="linearGradient12694">
      <stop
         style="stop-color:#808080;stop-opacity:1;"
         offset="0"
         id="stop12690" />
      <stop
         style="stop-color:#b3b3b3;stop-opacity:1"
         offset="0.1"
         id="stop12988" />
      <stop
         style="stop-color:#b3b3b3;stop-opacity:1"
         offset="0.89999998"
         id="stop13310" />
      <stop
         style="stop-color:#808080;stop-opacity:1"
         offset="1"
         id="stop12692" />
    </linearGradient>
    <linearGradient
       inkscape:collect="always"
       id="linearGradient10743">
      <stop
         style="stop-color:#b3b3b3;stop-opacity:1;"
         offset="0"
         id="stop10739" />
      <stop
         style="stop-color:#ffffff;stop-opacity:1"
         offset="1"
         id="stop10741" />
    </linearGradient>
    <linearGradient
       inkscape:collect="always"
       id="linearGradient5085">
      <stop
         style="stop-color:#4d4d4d;stop-opacity:1;"
         offset="0"
         id="stop5081" />
      <stop
         style="stop-color:#808080;stop-opacity:1"
         offset="1"
         id="stop5083" />
    </linearGradient>
    <linearGradient
       inkscape:collect="always"
       id="linearGradient3891">
      <stop
         style="stop-color:#cccccc;stop-opacity:1"
         offset="0"
         id="stop3887" />
      <stop
         style="stop-color:#f2f2f2;stop-opacity:1"
         offset="1"
         id="stop3889" />
    </linearGradient>
    <linearGradient
       inkscape:collect="always"
       xlink:href="#linearGradient3891"
       id="linearGradient3893"
       x1="15.951282"
       y1="14.826726"
       x2="16.085196"
       y2="-2.1832335"
       gradientUnits="userSpaceOnUse"
       gradientTransform="matrix(0.99993083,0,0,1.0000474,4.552232e-4,-0.13207504)" />
    <linearGradient
       inkscape:collect="always"
       xlink:href="#linearGradient5085"
       id="linearGradient5087"
       x1="6.0854168"
       y1="16.933332"
       x2="14.552084"
       y2="12.7"
       gradientUnits="userSpaceOnUse" />
    <linearGradient
       inkscape:collect="always"
       xlink:href="#linearGradient10743"
       id="linearGradient10745"
       x1="2.9104166"
       y1="2.9104371"
       x2="6.8848414"
       y2="5.0271039"
       gradientUnits="userSpaceOnUse"
       gradientTransform="translate(0,0.52916667)" />
    <linearGradient
       inkscape:collect="always"
       xlink:href="#linearGradient10743"
       id="linearGradient11167"
       x1="33.111916"
       y1="11.271812"
       x2="49.959011"
       y2="44.755169"
       gradientUnits="userSpaceOnUse"
       gradientTransform="scale(0.26458334)" />
    <linearGradient
       inkscape:collect="always"
       xlink:href="#linearGradient10743"
       id="linearGradient12312"
       gradientUnits="userSpaceOnUse"
       x1="5.2491822"
       y1="-4.9753103"
       x2="14.264731"
       y2="7.1954198"
       gradientTransform="matrix(0.26458334,0,0,0.26458334,6.3500001,8.2020834)" />
    <linearGradient
       inkscape:collect="always"
       xlink:href="#linearGradient12694"
       id="linearGradient12696"
       x1="5.0004272"
       y1="52.498045"
       x2="58.999574"
       y2="52.498045"
       gradientUnits="userSpaceOnUse"
       gradientTransform="scale(0.26458334)" />
    <linearGradient
       inkscape:collect="always"
       xlink:href="#linearGradient16736"
       id="linearGradient16738"
       x1="13.758333"
       y1="15.875"
       x2="14.2875"
       y2="14.816668"
       gradientUnits="userSpaceOnUse" />
  </defs>
  <path
     id="rect1078"
     style="fill:url(#linearGradient5087);fill-opacity:1;stroke-width:2.88651;stroke-linecap:round;stroke-linejoin:round"
     d="m 15.610417,13.49375 -0.264584,1.5875 c -0.09639,0.57834 -0.472016,1.058333 -1.058333,1.058333 H 2.6458331 c -0.5863164,0 -0.9619428,-0.479993 -1.0583329,-1.058333 l -0.2645836,-1.5875 z"
     sodipodi:nodetypes="csssscc" />
  <path
     style="color:#000000;fill:url(#linearGradient3893);fill-opacity:1;stroke:none;stroke-width:0.999985;stroke-linecap:round;stroke-linejoin:round;-inkscape-stroke:none"
     d="M 3.4401719,0.79375005 C 2.8268374,0.79358128 2.3137216,1.2594128 2.2547071,1.8699729 L 1.3284883,13.247334 C 1.261245,13.9469 1.811244,14.552241 2.5139532,14.552083 H 14.41938 c 0.702709,1.58e-4 1.252708,-0.605183 1.185465,-1.304749 L 14.67863,1.8699729 C 14.619616,1.2594128 14.1065,0.79358117 13.493165,0.79375005 Z"
     id="path3247"
     sodipodi:nodetypes="ccccccccc" />
  <path
     id="path3247-7"
     style="color:#000000;fill:url(#linearGradient12696);fill-opacity:1;stroke:none;stroke-width:0.999985;stroke-linecap:round;stroke-linejoin:round;-inkscape-stroke:none"
     d="m 1.3301514,13.228134 -0.00155,0.01912 c -0.06724,0.699565 0.4827485,1.304987 1.1854575,1.304829 H 14.419275 c 0.702709,1.58e-4 1.252701,-0.605264 1.185458,-1.30483 l -0.0016,-0.01912 c -0.06471,0.58984 -0.565066,1.059508 -1.183897,1.059368 H 2.5140585 C 1.8952279,14.28764 1.3948724,13.817972 1.3301514,13.228134 Z" />
  <path
     id="rect5838"
     style="fill:url(#linearGradient10745);fill-opacity:1;stroke-width:2.38125;stroke-linecap:round;stroke-linejoin:round"
     d="m 3.9711225,2.1166667 c -0.4397375,0 -0.7572317,0.3555315 -0.79375,0.79375 L 2.9127892,6.0854168 c -0.036518,0.4382186 0.3540125,0.79375 0.79375,0.79375 1.6749615,0.00952 4.1918478,-1.6387638 4.7625001,-3.9687501 0.043755,-0.4375552 -0.3540125,-0.79375 -0.79375,-0.79375 z m 0,0.2645834 h 3.7041668 c 0.2931583,0 0.558337,0.2374633 0.5291667,0.5291666 -0.6016001,2.0576734 -2.8272765,3.7089653 -4.4979168,3.7041668 -0.2931583,0 -0.5535121,-0.2370212 -0.5291667,-0.5291667 L 3.4419559,2.9104167 C 3.4663002,2.6182712 3.6779642,2.3812501 3.9711225,2.3812501 Z"
     sodipodi:nodetypes="sssccssssccsss" />
  <path
     id="path6940"
     style="fill:url(#linearGradient11167);fill-opacity:1;stroke:none;stroke-width:2.47707;stroke-linecap:round;stroke-linejoin:round;stroke-miterlimit:4;stroke-dasharray:none;stroke-opacity:1"
     d="m 10.583334,2.1166667 c -0.439738,0 -1.0317368,0.1638562 -1.3229171,0.79375 C 8.4516751,4.6087386 8.5409741,5.785999 5.2337892,7.2522706 2.7442095,7.9992434 2.6458334,9.7895836 2.6458334,9.7895836 c 0,2.0457554 2.606076,3.7041664 5.8208335,3.7041664 3.2147571,0 5.8208331,-1.658411 5.8208331,-3.7041664 L 13.758334,2.9104167 c -0.03373,-0.4384423 -0.354012,-0.79375 -0.79375,-0.79375 z m 0,0.2645834 h 2.38125 c 0.293158,0 0.508279,0.2367533 0.529166,0.5291666 l 0.438216,6.135543 -0.0021,-0.00414 0.0708,0.445451 c 0.0078,0.065186 0.01266,0.1304972 0.01447,0.1958535 l 5.3e-4,0.00827 c 0.0031,0.032707 0.0056,0.065438 0.0072,0.098187 0,1.8996298 -2.487618,3.4395838 -5.5562501,3.4395838 -3.0686323,0 -5.5562502,-1.539954 -5.5562502,-3.4395838 0.047601,-0.7451924 0.9076675,-1.8764195 2.4468792,-2.3109701 l 0.024805,0.00878 C 8.5964193,6.1985696 8.6708577,4.8128143 9.5911461,2.9104167 9.802418,2.4237142 10.290176,2.3812501 10.583334,2.3812501 Z"
     sodipodi:nodetypes="scccscssssscccccccsccccs" />
  <path
     d="m 8.4666668,8.2020834 c -1.1690027,3e-7 -2.1166667,0.6515193 -2.1166667,1.4552086 0,0.80369 0.947664,1.455209 2.1166667,1.455209 1.169003,0 2.1166672,-0.651519 2.1166672,-1.455209 -2.2e-4,-0.7799499 -0.8948171,-1.4210969 -2.0283006,-1.4536584 0.9873739,0.033688 1.7636846,0.6152954 1.7637166,1.3213667 0,0.7306267 -0.8292056,1.3229177 -1.8520832,1.3229177 -1.0228773,0 -1.8520833,-0.592291 -1.8520833,-1.3229177 0,-0.7306267 0.829206,-1.3229169 1.8520833,-1.3229169 z"
     style="fill:url(#linearGradient12312);fill-opacity:1;stroke:none;stroke-width:2.47707;stroke-linecap:round;stroke-linejoin:round;stroke-miterlimit:4;stroke-dasharray:none;stroke-opacity:1"
     id="path12209" />
  <path
     id="path15442-6-1"
     style="fill:#666666;fill-opacity:1;stroke:none;stroke-width:2.11315;stroke-linecap:round;stroke-linejoin:round;stroke-miterlimit:4;stroke-dasharray:none;stroke-opacity:1"
     d="m 13.355257,1.2691732 a 0.46302085,0.35718751 0 0 0 -0.192236,0.289388 0.46302085,0.35718751 0 0 0 0.463021,0.357601 0.46302085,0.35718751 0 0 0 0.463021,-0.357601 0.46302085,0.35718751 0 0 0 -0.190686,-0.2888712 0.39687501,0.29104167 0 0 1 0.12454,0.2118734 0.39687501,0.29104167 0 0 1 -0.396875,0.2909383 0.39687501,0.29104167 0 0 1 -0.396875,-0.2909383 0.39687501,0.29104167 0 0 1 0.12609,-0.2123902 z" />
  <ellipse
     style="fill:#999999;fill-opacity:1;stroke:none;stroke-width:1.76599;stroke-linecap:round;stroke-linejoin:round;stroke-miterlimit:4;stroke-dasharray:none;stroke-opacity:1"
     id="path15442-2"
     cx="2.5135417"
     cy="13.520208"
     rx="0.39687499"
     ry="0.29104167" />
  <ellipse
     style="fill:#999999;fill-opacity:1;stroke:none;stroke-width:1.76599;stroke-linecap:round;stroke-linejoin:round;stroke-miterlimit:4;stroke-dasharray:none;stroke-opacity:1"
     id="path15442-6-9"
     cx="14.450074"
     cy="13.520208"
     rx="0.39687499"
     ry="0.29104167" />
  <path
     id="path15442-6-1-2"
     style="fill:#666666;fill-opacity:1;stroke:none;stroke-width:2.11315;stroke-linecap:round;stroke-linejoin:round;stroke-miterlimit:4;stroke-dasharray:none;stroke-opacity:1"
     d="m 3.2866212,1.190625 a 0.39687501,0.29104167 0 0 1 0.016536,5.16e-4 0.46302085,0.35718751 0 0 0 -0.016536,-5.16e-4 z m 0.020153,5.16e-4 A 0.39687501,0.29104167 0 0 1 3.674194,1.4815625 0.39687501,0.29104167 0 0 1 3.277319,1.7725009 0.39687501,0.29104167 0 0 1 2.8804439,1.4815625 0.39687501,0.29104167 0 0 1 3.1910193,1.1978589 0.46302085,0.35718751 0 0 0 2.8179155,1.5477084 0.46302085,0.35718751 0 0 0 3.2809363,1.9047925 0.46302085,0.35718751 0 0 0 3.7439572,1.5477084 0.46302085,0.35718751 0 0 0 3.3067742,1.191141 Z" />
  <path
     id="path15442-6-1-6"
     style="fill:#666666;fill-opacity:1;stroke:none;stroke-width:2.11315;stroke-linecap:round;stroke-linejoin:round;stroke-miterlimit:4;stroke-dasharray:none;stroke-opacity:1"
     d="m 14.175362,13.307715 a 0.46302085,0.35718751 0 0 0 -0.192236,0.289388 0.46302085,0.35718751 0 0 0 0.463021,0.357601 0.46302085,0.35718751 0 0 0 0.463021,-0.357601 0.46302085,0.35718751 0 0 0 -0.190686,-0.288871 0.39687501,0.29104167 0 0 1 0.12454,0.211874 0.39687501,0.29104167 0 0 1 -0.396875,0.290938 0.39687501,0.29104167 0 0 1 -0.396875,-0.290938 0.39687501,0.29104167 0 0 1 0.12609,-0.212391 z" />
  <path
     id="path15442-6-1-2-0"
     style="fill:#666666;fill-opacity:1;stroke:none;stroke-width:2.11315;stroke-linecap:round;stroke-linejoin:round;stroke-miterlimit:4;stroke-dasharray:none;stroke-opacity:1"
     d="m 2.5192266,13.229167 a 0.39687501,0.29104167 0 0 1 0.016536,5.16e-4 0.46302085,0.35718751 0 0 0 -0.016536,-5.16e-4 z m 0.020153,5.16e-4 a 0.39687501,0.29104167 0 0 1 0.3674197,0.290422 0.39687501,0.29104167 0 0 1 -0.3968749,0.290938 0.39687501,0.29104167 0 0 1 -0.3968751,-0.290938 0.39687501,0.29104167 0 0 1 0.3105754,-0.283704 0.46302085,0.35718751 0 0 0 -0.3731038,0.34985 0.46302085,0.35718751 0 0 0 0.4630208,0.357084 0.46302085,0.35718751 0 0 0 0.4630208,-0.357084 0.46302085,0.35718751 0 0 0 -0.4371829,-0.356568 z" />
  <ellipse
     style="fill:#999999;fill-opacity:1;stroke:none;stroke-width:1.76599;stroke-linecap:round;stroke-linejoin:round;stroke-miterlimit:4;stroke-dasharray:none;stroke-opacity:1"
     id="path15442"
     cx="3.2770061"
     cy="1.4816667"
     rx="0.39687499"
     ry="0.29104167" />
  <ellipse
     style="fill:#999999;fill-opacity:1;stroke:none;stroke-width:1.76599;stroke-linecap:round;stroke-linejoin:round;stroke-miterlimit:4;stroke-dasharray:none;stroke-opacity:1"
     id="path15442-6"
     cx="13.626041"
     cy="1.4816667"
     rx="0.39687499"
     ry="0.29104167" />
  <circle
     style="opacity:1;fill:url(#linearGradient16738);fill-opacity:1;stroke:none;stroke-width:2.38125;stroke-linecap:round;stroke-linejoin:round;stroke-miterlimit:4;stroke-dasharray:none;stroke-opacity:1"
     id="path16342"
     cx="13.493751"
     cy="15.345834"
     r="0.26458335" />
</svg>
