<?xml version="1.0" encoding="UTF-8" standalone="no"?>
<!-- Created with Inkscape (http://www.inkscape.org/) -->

<svg
   width="32"
   height="32"
   viewBox="0 0 8.4666665 8.4666669"
   version="1.1"
   id="svg5"
   inkscape:version="1.1.1 (3bf5ae0d25, 2021-09-20, custom)"
   sodipodi:docname="security-low.svg"
   xmlns:inkscape="http://www.inkscape.org/namespaces/inkscape"
   xmlns:sodipodi="http://sodipodi.sourceforge.net/DTD/sodipodi-0.dtd"
   xmlns:xlink="http://www.w3.org/1999/xlink"
   xmlns="http://www.w3.org/2000/svg"
   xmlns:svg="http://www.w3.org/2000/svg">
  <sodipodi:namedview
     id="namedview7"
     pagecolor="#ffffff"
     bordercolor="#666666"
     borderopacity="1.0"
     inkscape:pageshadow="2"
     inkscape:pageopacity="0.0"
     inkscape:pagecheckerboard="0"
     inkscape:document-units="px"
     showgrid="false"
     units="px"
     height="32px"
     inkscape:zoom="8"
     inkscape:cx="-18"
     inkscape:cy="21.0625"
     inkscape:window-width="1920"
     inkscape:window-height="1019"
     inkscape:window-x="0"
     inkscape:window-y="0"
     inkscape:window-maximized="1"
     inkscape:current-layer="svg5" />
  <defs
     id="defs2">
    <linearGradient
       inkscape:collect="always"
       id="linearGradient5101">
      <stop
         style="stop-color:#ffffff;stop-opacity:1;"
         offset="0"
         id="stop5097" />
      <stop
         style="stop-color:#ffb1a0;stop-opacity:0.86274511"
         offset="1"
         id="stop5099" />
    </linearGradient>
    <linearGradient
       inkscape:collect="always"
       id="linearGradient3427">
      <stop
         style="stop-color:#ffffff;stop-opacity:1"
         offset="0"
         id="stop3423" />
      <stop
         style="stop-color:#ffffff;stop-opacity:0"
         offset="1"
         id="stop3425" />
    </linearGradient>
    <linearGradient
       inkscape:collect="always"
       id="linearGradient1258">
      <stop
         style="stop-color:#000000;stop-opacity:1;"
         offset="0"
         id="stop1254" />
      <stop
         style="stop-color:#000000;stop-opacity:0;"
         offset="1"
         id="stop1256" />
    </linearGradient>
    <linearGradient
       inkscape:collect="always"
       xlink:href="#linearGradient1258"
       id="linearGradient2789"
       x1="-0.26458326"
       y1="4.4979162"
       x2="8.2020836"
       y2="0.26458287"
       gradientUnits="userSpaceOnUse" />
    <linearGradient
       inkscape:collect="always"
       id="linearGradient999">
      <stop
         style="stop-color:#e32800;stop-opacity:0.86274511"
         offset="0"
         id="stop995" />
      <stop
         style="stop-color:#fb9b9b;stop-opacity:1"
         offset="1"
         id="stop997" />
    </linearGradient>
    <linearGradient
       inkscape:collect="always"
       xlink:href="#linearGradient999"
       id="linearGradient3341"
       x1="15"
       y1="32"
       x2="15"
       y2="-2.6456692e-07"
       gradientUnits="userSpaceOnUse" />
    <linearGradient
       inkscape:collect="always"
       xlink:href="#linearGradient3427"
       id="linearGradient3429"
       x1="4.2333328"
       y1="4.2333334"
       x2="7.1437499"
       y2="4.2333334"
       gradientUnits="userSpaceOnUse" />
    <linearGradient
       inkscape:collect="always"
       xlink:href="#linearGradient5101"
       id="linearGradient5103"
       x1="4.2333331"
       y1="3.594573"
       x2="4.2067413"
       y2="6.2404065"
       gradientUnits="userSpaceOnUse"
       gradientTransform="translate(0.27801918,-0.72955124)" />
    <linearGradient
       inkscape:collect="always"
       xlink:href="#linearGradient1258"
       id="linearGradient3596"
       x1="1.0507811"
       y1="23.053711"
       x2="24.951172"
       y2="15.053711"
       gradientUnits="userSpaceOnUse" />
  </defs>
  <path
     id="rect1090-7"
     style="fill:url(#linearGradient2789);fill-opacity:1;stroke-width:0.264583;opacity:0.3"
     d="m 4.2333333,0.79375 c 0,0 -1.4926854,0.7956399 -2.9104166,0.79375 v 2.6458332 c 0,3.2583435 2.9104166,3.9687496 2.9104166,3.9687496 0,0 2.9104167,-0.7104061 2.9104167,-3.9687496 V 1.5875 C 5.7260188,1.58939 4.2333333,0.79375 4.2333333,0.79375 Z" />
  <path
     id="rect1090"
     style="opacity:1;fill:url(#linearGradient3341);fill-opacity:1;stroke-width:0.999999"
     d="M 16 2 C 16 2 10.358354 5.0071433 5 5 L 5 15 C 5 27.314999 16 30 16 30 C 16 30 27 27.314999 27 15 L 27 5 C 21.641646 5.0071433 16 2 16 2 z "
     transform="scale(0.26458333)" />
  <path
     id="rect1090-5"
     style="fill:url(#linearGradient3429);fill-opacity:1;stroke-width:0.264583;opacity:0.2"
     d="M 4.2333328,0.52916675 V 7.9375001 c 0,0 2.9104171,-0.710407 2.9104171,-3.96875 V 1.3229167 C 5.7260179,1.3248067 4.2333328,0.52916675 4.2333328,0.52916675 Z"
     sodipodi:nodetypes="ccscc" />
  <path
     id="rect4191"
     style="opacity:1;fill:url(#linearGradient5103);fill-opacity:1;stroke-width:0.264583"
     d="M 3.1109412,5.5296585 4.2333333,4.4070859 5.3560052,5.5296585 5.5430939,5.3425697 4.420402,4.2200173 5.5430939,3.0975055 5.3560052,2.9104167 4.2334732,4.0329489 3.1109412,2.9104167 2.9238525,3.0975055 4.0462647,4.2200173 2.9238525,5.3425697 Z"
     sodipodi:nodetypes="ccccccccccccc" />
  <path
     id="rect4191-9"
     style="fill:url(#linearGradient3596);fill-opacity:1;stroke-width:0.999999;opacity:0.3"
     d="M 11.550781 12.207031 L 11.050781 12.707031 L 14.792969 16.449219 L 15.292969 15.949219 L 11.550781 12.207031 z M 20.451172 12.207031 L 16.707031 15.949219 L 17.207031 16.449219 L 20.951172 12.707031 L 20.451172 12.207031 z M 16 16.65625 L 11.757812 20.900391 L 11.550781 20.693359 L 11.050781 21.193359 L 11.757812 21.900391 L 16 17.65625 L 20.244141 21.900391 L 20.951172 21.193359 L 20.451172 20.693359 L 20.244141 20.900391 L 16 16.65625 z "
     transform="scale(0.26458333)" />
</svg>
