<?xml version="1.0" encoding="UTF-8" standalone="no"?>
<!-- Created with Inkscape (http://www.inkscape.org/) -->

<svg
   width="32"
   height="32"
   viewBox="0 0 8.4666665 8.4666669"
   version="1.1"
   id="svg5"
   inkscape:version="1.1.1 (3bf5ae0d25, 2021-09-20, custom)"
   sodipodi:docname="security-medium.svg"
   xmlns:inkscape="http://www.inkscape.org/namespaces/inkscape"
   xmlns:sodipodi="http://sodipodi.sourceforge.net/DTD/sodipodi-0.dtd"
   xmlns:xlink="http://www.w3.org/1999/xlink"
   xmlns="http://www.w3.org/2000/svg"
   xmlns:svg="http://www.w3.org/2000/svg">
  <sodipodi:namedview
     id="namedview7"
     pagecolor="#ffffff"
     bordercolor="#666666"
     borderopacity="1.0"
     inkscape:pageshadow="2"
     inkscape:pageopacity="0.0"
     inkscape:pagecheckerboard="0"
     inkscape:document-units="px"
     showgrid="false"
     units="px"
     height="32px"
     inkscape:zoom="1"
     inkscape:cx="22"
     inkscape:cy="42.5"
     inkscape:window-width="1920"
     inkscape:window-height="1019"
     inkscape:window-x="0"
     inkscape:window-y="0"
     inkscape:window-maximized="1"
     inkscape:current-layer="svg5" />
  <defs
     id="defs2">
    <linearGradient
       inkscape:collect="always"
       id="linearGradient1084">
      <stop
         style="stop-color:#ffffff;stop-opacity:1;"
         offset="0"
         id="stop1080" />
      <stop
         style="stop-color:#ffed7f;stop-opacity:0.86274511"
         offset="1"
         id="stop1082" />
    </linearGradient>
    <linearGradient
       inkscape:collect="always"
       id="linearGradient3427">
      <stop
         style="stop-color:#ffffff;stop-opacity:1"
         offset="0"
         id="stop3423" />
      <stop
         style="stop-color:#ffffff;stop-opacity:0"
         offset="1"
         id="stop3425" />
    </linearGradient>
    <linearGradient
       inkscape:collect="always"
       id="linearGradient1258">
      <stop
         style="stop-color:#000000;stop-opacity:1;"
         offset="0"
         id="stop1254" />
      <stop
         style="stop-color:#000000;stop-opacity:0;"
         offset="1"
         id="stop1256" />
    </linearGradient>
    <linearGradient
       inkscape:collect="always"
       xlink:href="#linearGradient1258"
       id="linearGradient2789"
       x1="-0.26458326"
       y1="4.4979162"
       x2="8.2020836"
       y2="0.26458287"
       gradientUnits="userSpaceOnUse" />
    <linearGradient
       inkscape:collect="always"
       id="linearGradient999">
      <stop
         style="stop-color:#ffa30d;stop-opacity:1"
         offset="0"
         id="stop995" />
      <stop
         style="stop-color:#ffea88;stop-opacity:1"
         offset="1"
         id="stop997" />
    </linearGradient>
    <linearGradient
       inkscape:collect="always"
       xlink:href="#linearGradient999"
       id="linearGradient3341"
       x1="15"
       y1="32"
       x2="15"
       y2="-2.6456692e-07"
       gradientUnits="userSpaceOnUse" />
    <linearGradient
       inkscape:collect="always"
       xlink:href="#linearGradient3427"
       id="linearGradient3429"
       x1="4.2333328"
       y1="4.2333334"
       x2="7.1437499"
       y2="4.2333334"
       gradientUnits="userSpaceOnUse" />
    <linearGradient
       inkscape:collect="always"
       xlink:href="#linearGradient1258"
       id="linearGradient4839"
       x1="25.532227"
       y1="16.797607"
       x2="41.432617"
       y2="8.7976074"
       gradientUnits="userSpaceOnUse"
       gradientTransform="translate(-15.760575,2.7316866)" />
    <linearGradient
       inkscape:collect="always"
       xlink:href="#linearGradient1084"
       id="linearGradient22952"
       x1="18"
       y1="5.9999943"
       x2="17.869802"
       y2="35.999992"
       gradientUnits="userSpaceOnUse"
       gradientTransform="matrix(0.1683713,0,0,0.1683713,1.536146,1.2748078)" />
  </defs>
  <path
     id="rect1090-7"
     style="fill:url(#linearGradient2789);fill-opacity:1;stroke-width:0.264583;opacity:0.3"
     d="m 4.2333333,0.79375 c 0,0 -1.4926854,0.7956399 -2.9104166,0.79375 v 2.6458332 c 0,3.2583435 2.9104166,3.9687496 2.9104166,3.9687496 0,0 2.9104167,-0.7104061 2.9104167,-3.9687496 V 1.5875 C 5.7260188,1.58939 4.2333333,0.79375 4.2333333,0.79375 Z" />
  <path
     id="rect1090"
     style="opacity:1;fill:url(#linearGradient3341);fill-opacity:1;stroke-width:0.999999"
     d="M 16 2 C 16 2 10.358354 5.0071433 5 5 L 5 15 C 5 27.314999 16 30 16 30 C 16 30 27 27.314999 27 15 L 27 5 C 21.641646 5.0071433 16 2 16 2 z "
     transform="scale(0.26458333)" />
  <path
     id="rect1090-5"
     style="fill:url(#linearGradient3429);fill-opacity:1;stroke-width:0.264583;opacity:0.2"
     d="M 4.2333328,0.52916675 V 7.9375001 c 0,0 2.9104171,-0.710407 2.9104171,-3.96875 V 1.3229167 C 5.7260179,1.3248067 4.2333328,0.52916675 4.2333328,0.52916675 Z"
     sodipodi:nodetypes="ccscc" />
  <path
     d="M 4.0062135,3.3633589 V 2.1166667 h 0.430955 V 3.3633589 L 4.3858662,4.70753 H 4.0523886 Z m 0.2154778,2.4574745 q -0.1385222,0 -0.2359995,-0.092353 -0.092348,-0.097471 -0.092348,-0.2359933 0,-0.1333967 0.092348,-0.2257422 0.097477,-0.097479 0.2359995,-0.097479 0.1333913,0 0.2257384,0.097479 0.097478,0.092346 0.097478,0.2257422 0,0.1385222 -0.097478,0.2359933 -0.092347,0.092353 -0.2257384,0.092353 z"
     style="font-size:30.4709px;line-height:1.25;font-family:'Google Sans';-inkscape-font-specification:'Google Sans';fill:url(#linearGradient22952);fill-opacity:1;stroke-width:0.128261"
     id="path13331" />
  <path
     id="rect4191-5"
     style="opacity:0.2;fill:url(#linearGradient4839);fill-opacity:1;stroke-width:0.999999"
     d="M 15.140625 12.710938 L 15.140625 13.710938 L 15.316406 18.792969 L 16.576172 18.792969 L 16.769531 13.710938 L 16.769531 12.710938 L 16.576172 17.792969 L 15.316406 17.792969 L 15.140625 12.710938 z M 14.814453 21.269531 C 14.748868 21.418766 14.714844 21.581528 14.714844 21.759766 C 14.714844 22.108797 14.831763 22.404794 15.064453 22.650391 C 15.310066 22.883092 15.606046 23 15.955078 23 C 16.291184 23 16.575908 22.883092 16.808594 22.650391 C 17.054206 22.404793 17.177734 22.108797 17.177734 21.759766 C 17.177734 21.582303 17.142876 21.420197 17.074219 21.271484 C 17.012887 21.409028 16.923725 21.535267 16.808594 21.650391 C 16.575908 21.883092 16.291184 22 15.955078 22 C 15.606046 22 15.310066 21.883092 15.064453 21.650391 C 14.954941 21.534804 14.87256 21.407719 14.814453 21.269531 z "
     transform="scale(0.26458333)" />
</svg>
