<?xml version="1.0" encoding="UTF-8" standalone="no"?>
<!-- Created with Inkscape (http://www.inkscape.org/) -->

<svg
   width="128"
   height="128"
   viewBox="0 0 33.866666 33.866668"
   version="1.1"
   id="svg5"
   inkscape:version="1.1.1 (3bf5ae0d25, 2021-09-20, custom)"
   sodipodi:docname="folder.svg"
   xmlns:inkscape="http://www.inkscape.org/namespaces/inkscape"
   xmlns:sodipodi="http://sodipodi.sourceforge.net/DTD/sodipodi-0.dtd"
   xmlns:xlink="http://www.w3.org/1999/xlink"
   xmlns="http://www.w3.org/2000/svg"
   xmlns:svg="http://www.w3.org/2000/svg">
  <sodipodi:namedview
     id="namedview7"
     pagecolor="#ffffff"
     bordercolor="#666666"
     borderopacity="1.0"
     inkscape:pageshadow="2"
     inkscape:pageopacity="0.0"
     inkscape:pagecheckerboard="true"
     inkscape:document-units="px"
     showgrid="false"
     units="px"
     height="64px"
     inkscape:zoom="4"
     inkscape:cx="32.25"
     inkscape:cy="49.5"
     inkscape:window-width="1920"
     inkscape:window-height="1011"
     inkscape:window-x="0"
     inkscape:window-y="0"
     inkscape:window-maximized="1"
     inkscape:current-layer="svg5" />
  <defs
     id="defs2">
    <linearGradient
       inkscape:collect="always"
       id="linearGradient24351">
      <stop
         style="stop-color:#ffffff;stop-opacity:1"
         offset="0"
         id="stop24347" />
      <stop
         style="stop-color:#fefefe;stop-opacity:0"
         offset="1"
         id="stop24349" />
    </linearGradient>
    <linearGradient
       inkscape:collect="always"
       id="linearGradient21515">
      <stop
         style="stop-color:#000000;stop-opacity:1;"
         offset="0"
         id="stop21511" />
      <stop
         style="stop-color:#000000;stop-opacity:0;"
         offset="1"
         id="stop21513" />
    </linearGradient>
    <linearGradient
       inkscape:collect="always"
       id="linearGradient14109">
      <stop
         style="stop-color:#74cbf6;stop-opacity:1;"
         offset="0"
         id="stop14105" />
      <stop
         style="stop-color:#96d8f8;stop-opacity:1"
         offset="1"
         id="stop14107" />
    </linearGradient>
    <linearGradient
       inkscape:collect="always"
       xlink:href="#linearGradient14109"
       id="linearGradient14111"
       x1="15.345834"
       y1="28.178125"
       x2="15.345834"
       y2="4.3656259"
       gradientUnits="userSpaceOnUse"
       gradientTransform="translate(0.52916711,3.175)" />
    <linearGradient
       inkscape:collect="always"
       xlink:href="#linearGradient21515"
       id="linearGradient21517"
       x1="6.3499994"
       y1="15.081248"
       x2="6.3500004"
       y2="5.8208337"
       gradientUnits="userSpaceOnUse"
       gradientTransform="translate(-0.5291665,1.0583328)" />
    <linearGradient
       inkscape:collect="always"
       xlink:href="#linearGradient24351"
       id="linearGradient24353"
       x1="2"
       y1="2.1083987"
       x2="144.08705"
       y2="29.44216"
       gradientUnits="userSpaceOnUse"
       gradientTransform="matrix(0.26458334,0,0,0.26458334,0.52916711,1.8520833)" />
    <linearGradient
       inkscape:collect="always"
       xlink:href="#linearGradient21515"
       id="linearGradient25326"
       x1="16.404167"
       y1="17.065626"
       x2="16.404167"
       y2="12.303126"
       gradientUnits="userSpaceOnUse"
       gradientTransform="translate(0.52916716,15.081249)" />
  </defs>
  <path
     id="rect846"
     style="fill:#46a1cf;fill-opacity:1;stroke-width:0.744501"
     d="m 2.1166673,3.7041667 h 9.5249997 c 0,0 0.498081,0.00411 0.737864,0.2366914 l 2.228439,2.7016171 c 0.20251,0.1888915 0.665147,0.2358003 1.002447,0.2366917 l 16.139583,-2e-7 c 0.586316,0 1.058333,0.4753451 1.058333,1.0583336 l 1e-6,15.3458337 H 1.0583347 l -1e-6,-18.5208337 c 0,-0.5863168 0.4720168,-1.0583336 1.0583336,-1.0583336 z"
     sodipodi:nodetypes="sccccssccss" />
  <path
     id="rect846-7"
     style="opacity:0.1;fill:url(#linearGradient21517);fill-opacity:1;stroke-width:0.744501"
     d="m 2.1166675,3.7041662 h 9.5249995 c 0,0 0.498081,0.0041 0.737863,0.236692 l 2.22844,2.701617 c 0.20251,0.188891 0.665146,0.2358 1.002447,0.236691 h 16.139584 c 0.586316,0 1.058333,0.539294 1.058333,1.058333 V 19.579167 H 1.0583335 V 4.7625002 c 0,-0.586317 0.472017,-1.058334 1.058334,-1.058334 z"
     sodipodi:nodetypes="sccccssccss" />
  <path
     id="rect5146"
     style="fill:url(#linearGradient14111);fill-opacity:1;stroke-width:0.224129"
     d="m 1.5875005,9.2604167 c -0.2931583,0 -0.5291667,0.236008 -0.5291667,0.529167 V 29.104166 c 0,0.586317 0.4720165,1.058334 1.0583334,1.058334 H 31.75 c 0.586317,0 1.058334,-0.472017 1.058334,-1.058334 V 9.7895837 c 0,-0.293159 -0.236009,-0.529167 -0.529167,-0.529167 z"
     sodipodi:nodetypes="sccssccss" />
  <rect
     style="opacity:0.2;fill:#1493c4;fill-opacity:1;stroke-width:0.0694829"
     id="rect23488"
     width="31.75"
     height="0.26458335"
     x="1.0583339"
     y="27.516666" />
  <path
     id="rect22163"
     style="opacity:0.3;fill:url(#linearGradient25326);fill-opacity:1;stroke-width:0.262052"
     d="m 1.0583339,28.839584 v 0.264583 c 0,0.586317 0.4720163,1.058333 1.0583333,1.058333 H 31.750001 c 0.586317,0 1.058333,-0.472016 1.058333,-1.058333 v -0.264583 c 0,0.586317 -0.472016,1.058333 -1.058333,1.058333 H 2.1166672 c -0.586317,0 -1.0583333,-0.472016 -1.0583333,-1.058333 z"
     sodipodi:nodetypes="csssscssc" />
  <path
     id="rect6273"
     style="opacity:0.3;fill:#ffffff;fill-opacity:1;stroke-width:0.25971"
     d="m 1.5875005,9.2604166 c -0.2931584,0 -0.5291667,0.2360077 -0.5291667,0.5291667 v 0.2645827 c 0,-0.2931577 0.2360083,-0.5291667 0.5291667,-0.5291667 H 32.279167 c 0.293159,0 0.529167,0.236009 0.529167,0.5291667 V 9.7895833 c 0,-0.293159 -0.236008,-0.5291667 -0.529167,-0.5291667 z"
     sodipodi:nodetypes="sscsscsss" />
  <path
     id="rect846-2"
     style="opacity:0.3;fill:url(#linearGradient24353);fill-opacity:1;stroke-width:0.7445"
     d="m 2.1166671,3.7041667 c -0.586317,0 -1.0583333,0.4720165 -1.0583333,1.0583333 v 0.2645834 c 0,-0.5863168 0.4720163,-1.0583334 1.0583333,-1.0583334 h 9.5249999 c 0,0 0.498157,0.0041 0.73794,0.2366781 l 2.228288,2.701644 c 0.20251,0.1888913 0.665221,0.2357866 1.002522,0.236678 h 16.139584 c 0.514859,0 1.058381,0.3645358 1.058333,0.8511109 V 7.9375001 C 32.811888,7.3464103 32.336317,6.8791667 31.750001,6.8791667 H 15.610417 c -0.337301,-8.996e-4 -0.800012,-0.047787 -1.002522,-0.236678 l -2.228288,-2.701644 c -0.239783,-0.2325814 -0.73794,-0.236678 -0.73794,-0.236678 z"
     sodipodi:nodetypes="sscsccccsccsccccs" />
</svg>
