<?xml version="1.0" encoding="UTF-8" standalone="no"?>
<svg
   width="16"
   height="16"
   version="1.1"
   viewBox="0 0 16 16"
   id="svg7"
   sodipodi:docname="folder-symbolic.svg"
   inkscape:version="1.1.1 (3bf5ae0d25, 2021-09-20, custom)"
   xmlns:inkscape="http://www.inkscape.org/namespaces/inkscape"
   xmlns:sodipodi="http://sodipodi.sourceforge.net/DTD/sodipodi-0.dtd"
   xmlns="http://www.w3.org/2000/svg"
   xmlns:svg="http://www.w3.org/2000/svg">
  <sodipodi:namedview
     id="namedview9"
     pagecolor="#ffffff"
     bordercolor="#666666"
     borderopacity="1.0"
     inkscape:pageshadow="2"
     inkscape:pageopacity="0.0"
     inkscape:pagecheckerboard="0"
     showgrid="false"
     inkscape:zoom="90.509668"
     inkscape:cx="9.1813396"
     inkscape:cy="7.5351066"
     inkscape:window-width="1920"
     inkscape:window-height="1011"
     inkscape:window-x="0"
     inkscape:window-y="0"
     inkscape:window-maximized="1"
     inkscape:current-layer="svg7" />
  <defs
     id="defs3">
    <style
       id="current-color-scheme"
       type="text/css">.ColorScheme-Text { color:#dedede; }</style>
  </defs>
  <path
     d="M 2,1 C 0.892,1 0,1.892 0,3 v 7 3 c 0,1.108 0.892,2 2,2 h 12 c 1.108,0 2,-0.892 2,-2 V 10 8 5 C 16,3.892 15.108,3 14,3 H 8 L 6,1 Z m 0,1 h 3.5859 l 2,2 H 14 c 0.554,0 1,0.446 1,1 v 0.275395 c -0.295,-0.1711 -0.630845,-0.27539 -1,-0.27539 -4,0 -12,0 -12,0 -0.4262202,0.00378 -0.705,0.10429 -1,0.27539 V 3 C 1,2.446 1.446,2 2,2 Z m 12,3.999995 c 0.554,0 1,0.446 1,1 V 9.5 10 13 c 0,0.554 -0.446,1 -1,1 H 2 C 1.446,14 1,13.554 1,13 V 6.999995 c 0,-0.554 0.5084924,-0.9971691 1,-1 0,0 8,0 12,0 z"
     fill="#dedede"
     style="paint-order:stroke fill markers"
     id="path5"
     sodipodi:nodetypes="sscssssccssccssccssccccsscsccssssscc" />
</svg>
