<?xml version="1.0" encoding="UTF-8" standalone="no"?>
<svg
   width="16"
   height="16"
   enable-background="new"
   version="1.1"
   id="svg9"
   sodipodi:docname="user-desktop-symbolic.svg"
   inkscape:version="1.1.1 (3bf5ae0d25, 2021-09-20, custom)"
   xmlns:inkscape="http://www.inkscape.org/namespaces/inkscape"
   xmlns:sodipodi="http://sodipodi.sourceforge.net/DTD/sodipodi-0.dtd"
   xmlns="http://www.w3.org/2000/svg"
   xmlns:svg="http://www.w3.org/2000/svg">
  <sodipodi:namedview
     id="namedview11"
     pagecolor="#ffffff"
     bordercolor="#666666"
     borderopacity="1.0"
     inkscape:pageshadow="2"
     inkscape:pageopacity="0.0"
     inkscape:pagecheckerboard="0"
     showgrid="false"
     inkscape:zoom="39.375"
     inkscape:cx="8"
     inkscape:cy="8"
     inkscape:window-width="1920"
     inkscape:window-height="1011"
     inkscape:window-x="0"
     inkscape:window-y="0"
     inkscape:window-maximized="1"
     inkscape:current-layer="svg9" />
  <defs
     id="defs5">
    <filter
       id="a"
       color-interpolation-filters="sRGB">
      <feBlend
         mode="darken"
         in2="BackgroundImage"
         id="feBlend2" />
    </filter>
  </defs>
  <path
     id="path7"
     style="line-height:normal;-inkscape-font-specification:Sans;text-indent:0;text-align:start;text-decoration-line:none;text-transform:none;marker:none;fill:#dedede;fill-opacity:1"
     d="M 0.90625 2 C 0.39880961 2.0639944 0.01375342 2.4887252 0 3 L 0 13 C 0 13.524 0.476 14 1 14 L 15 14 C 15.524 14 16 13.524 16 13 L 16 3 C 16 2.476 15.524 2 15 2 L 1 2 C 0.9686747 1.99899 0.9375753 1.99899 0.90625 2 z M 1 3 L 15 3 L 15 13 L 1 13 L 1 3 z M 2 11 L 2 12 L 14 12 L 14 11 L 2 11 z " />
</svg>
