<?xml version="1.0" encoding="UTF-8" standalone="no"?>
<!-- Created with Inkscape (http://www.inkscape.org/) -->

<svg
   width="32"
   height="32"
   viewBox="0 0 8.4666667 8.4666667"
   version="1.1"
   id="svg5"
   inkscape:version="1.1.1 (3bf5ae0d25, 2021-09-20, custom)"
   sodipodi:docname="applications-all.svg"
   xmlns:inkscape="http://www.inkscape.org/namespaces/inkscape"
   xmlns:sodipodi="http://sodipodi.sourceforge.net/DTD/sodipodi-0.dtd"
   xmlns="http://www.w3.org/2000/svg"
   xmlns:svg="http://www.w3.org/2000/svg">
  <sodipodi:namedview
     id="namedview7"
     pagecolor="#ffffff"
     bordercolor="#666666"
     borderopacity="1.0"
     inkscape:pageshadow="2"
     inkscape:pageopacity="0.0"
     inkscape:pagecheckerboard="0"
     inkscape:document-units="px"
     showgrid="false"
     units="px"
     height="48px"
     inkscape:zoom="11.313708"
     inkscape:cx="20.417709"
     inkscape:cy="33.057243"
     inkscape:window-width="1920"
     inkscape:window-height="1011"
     inkscape:window-x="0"
     inkscape:window-y="0"
     inkscape:window-maximized="1"
     inkscape:current-layer="svg5"
     inkscape:lockguides="true" />
  <defs
     id="defs2" />
  <rect
     style="opacity:1;fill:#3c9cdb;fill-opacity:1;stroke-width:2.08359;stroke-linecap:round;stroke-linejoin:round"
     id="rect849"
     width="7.4083333"
     height="7.4083333"
     x="0.52916664"
     y="0.52916664"
     ry="1.0583333" />
  <path
     id="path1026"
     style="fill:#ffffff;stroke-width:18;stroke-linecap:round;stroke-linejoin:round"
     d="M 8,6 A 1.9999999,1.9999999 0 0 0 6,8 1.9999999,1.9999999 0 0 0 8,10 1.9999999,1.9999999 0 0 0 10,8 1.9999999,1.9999999 0 0 0 8,6 Z m 8,0 a 1.9999999,1.9999999 0 0 0 -2,2 1.9999999,1.9999999 0 0 0 2,2 1.9999999,1.9999999 0 0 0 2,-2 1.9999999,1.9999999 0 0 0 -2,-2 z m 8,0 a 1.9999999,1.9999999 0 0 0 -2,2 1.9999999,1.9999999 0 0 0 2,2 1.9999999,1.9999999 0 0 0 2,-2 1.9999999,1.9999999 0 0 0 -2,-2 z M 8,14 a 1.9999999,1.9999999 0 0 0 -2,2 1.9999999,1.9999999 0 0 0 2,2 1.9999999,1.9999999 0 0 0 2,-2 1.9999999,1.9999999 0 0 0 -2,-2 z m 8,0 a 1.9999999,1.9999999 0 0 0 -2,2 1.9999999,1.9999999 0 0 0 2,2 1.9999999,1.9999999 0 0 0 2,-2 1.9999999,1.9999999 0 0 0 -2,-2 z m 8,0 a 1.9999999,1.9999999 0 0 0 -2,2 1.9999999,1.9999999 0 0 0 2,2 1.9999999,1.9999999 0 0 0 2,-2 1.9999999,1.9999999 0 0 0 -2,-2 z M 8,22 a 1.9999999,1.9999999 0 0 0 -2,2 1.9999999,1.9999999 0 0 0 2,2 1.9999999,1.9999999 0 0 0 2,-2 1.9999999,1.9999999 0 0 0 -2,-2 z m 8,0 a 1.9999999,1.9999999 0 0 0 -2,2 1.9999999,1.9999999 0 0 0 2,2 1.9999999,1.9999999 0 0 0 2,-2 1.9999999,1.9999999 0 0 0 -2,-2 z m 8,0 a 1.9999999,1.9999999 0 0 0 -2,2 1.9999999,1.9999999 0 0 0 2,2 1.9999999,1.9999999 0 0 0 2,-2 1.9999999,1.9999999 0 0 0 -2,-2 z"
     transform="scale(0.26458333)" />
</svg>
