<?xml version="1.0" encoding="UTF-8" standalone="no"?>
<!-- Created with Inkscape (http://www.inkscape.org/) -->

<svg
   width="32"
   height="32"
   viewBox="0 0 8.4666667 8.4666667"
   version="1.1"
   id="svg5"
   inkscape:version="1.1.1 (3bf5ae0d25, 2021-09-20, custom)"
   sodipodi:docname="application-system.svg"
   xmlns:inkscape="http://www.inkscape.org/namespaces/inkscape"
   xmlns:sodipodi="http://sodipodi.sourceforge.net/DTD/sodipodi-0.dtd"
   xmlns="http://www.w3.org/2000/svg"
   xmlns:svg="http://www.w3.org/2000/svg">
  <sodipodi:namedview
     id="namedview7"
     pagecolor="#ffffff"
     bordercolor="#666666"
     borderopacity="1.0"
     inkscape:pageshadow="2"
     inkscape:pageopacity="0.0"
     inkscape:pagecheckerboard="0"
     inkscape:document-units="px"
     showgrid="false"
     units="px"
     height="48px"
     inkscape:zoom="1"
     inkscape:cx="5"
     inkscape:cy="18"
     inkscape:window-width="1920"
     inkscape:window-height="1011"
     inkscape:window-x="0"
     inkscape:window-y="0"
     inkscape:window-maximized="1"
     inkscape:current-layer="svg5"
     inkscape:lockguides="true" />
  <defs
     id="defs2" />
  <rect
     style="opacity:1;fill:#cccccc;fill-opacity:1;stroke-width:2.08359;stroke-linecap:round;stroke-linejoin:round"
     id="rect849"
     width="7.4083333"
     height="7.4083333"
     x="0.52916664"
     y="0.52916664"
     ry="1.0583333" />
  <path
     id="path1014"
     style="fill:#808080;stroke-width:2.38125;stroke-linecap:round;stroke-linejoin:round"
     d="m 7.4083333,4.1010414 -0.5384684,1e-7 A 2.6458332,2.6458332 0 0 0 6.8135376,3.678845 L 7.334436,3.5393186 7.2657064,3.2840369 6.7479085,3.4230467 A 2.6458332,2.6458332 0 0 0 6.5830606,3.0297891 L 7.0491821,2.7605549 6.9168904,2.5311115 6.4549031,2.7977619 A 2.6458332,2.6458332 0 0 0 6.1929036,2.4608316 L 6.5716918,2.0820434 6.3846231,1.8949747 6.0058349,2.2737629 A 2.6458332,2.6458332 0 0 0 5.6689045,2.0117634 L 5.935555,1.5497761 5.7061115,1.4174844 5.4368772,1.8836059 A 2.6458332,2.6458332 0 0 0 5.0436198,1.7187577 L 5.1826295,1.2009601 4.9273478,1.1322306 4.7878214,1.6531289 A 2.6458332,2.6458332 0 0 0 4.3656249,1.5968017 l 0,-0.5384684 -0.2645832,-2e-7 0,0.5384684 A 2.6458332,2.6458332 0 0 0 3.6788452,1.6531289 L 3.5393188,1.1322305 3.2840372,1.2009603 3.423047,1.7187583 A 2.6458332,2.6458332 0 0 0 3.0297896,1.8836063 L 2.7605553,1.417485 2.5311119,1.5497766 2.7977624,2.0117639 A 2.6458332,2.6458332 0 0 0 2.4608319,2.2737633 L 2.0820435,1.8949747 1.8949747,2.0820433 2.273763,2.4608316 A 2.6458332,2.6458332 0 0 0 2.0117636,2.797762 L 1.5497763,2.5311114 1.4174846,2.760555 1.8836061,3.029789 A 2.6458332,2.6458332 0 0 0 1.7187582,3.4230467 L 1.2009601,3.284037 1.1322307,3.5393187 1.6531291,3.6788451 a 2.6458332,2.6458332 0 0 0 -0.056327,0.4221963 l -0.5384684,2e-7 1e-7,0.2645831 0.5322673,1e-7 a 2.6458332,2.6458332 0 0 0 0.056327,0.4237466 L 1.1322307,4.9273477 1.2009602,5.1826293 1.7156576,5.0446531 a 2.6458332,2.6458332 0 0 0 0.163814,0.3948083 L 1.4174842,5.7061115 1.5497759,5.9355551 2.0117633,5.6689046 A 2.6458332,2.6458332 0 0 0 2.2711792,6.0084185 L 1.8949747,6.3846228 2.0820436,6.5716919 2.458248,6.1954873 A 2.6458332,2.6458332 0 0 0 2.7977623,6.4549025 L 2.5311118,6.9168899 2.7605553,7.0491815 3.0272055,6.5871942 A 2.6458332,2.6458332 0 0 0 3.4220134,6.751009 L 3.2840372,7.2657063 3.5393188,7.3344358 3.677295,6.8197387 a 2.6458332,2.6458332 0 0 0 0.4237467,0.056327 l 0,0.5322673 0.2645833,-1e-7 0,-0.5322671 A 2.6458332,2.6458332 0 0 0 4.7893715,6.8197386 L 4.9273478,7.3344358 5.1826294,7.2657063 5.0446532,6.751009 A 2.6458332,2.6458332 0 0 0 5.4394615,6.5871948 L 5.7061117,7.0491822 5.9355552,6.9168905 5.6689047,6.4549033 A 2.6458332,2.6458332 0 0 0 6.0084188,6.1954873 L 6.3846232,6.5716918 6.5716918,6.3846229 6.1954874,6.0084185 A 2.6458332,2.6458332 0 0 0 6.4549027,5.6689041 L 6.91689,5.9355547 7.0491817,5.7061111 6.5871944,5.4394609 A 2.6458332,2.6458332 0 0 0 6.751009,5.0446531 L 7.2657063,5.1826294 7.3344359,4.9273477 6.8197387,4.7893714 A 2.6458332,2.6458332 0 0 0 6.876066,4.3656249 l 0.5322673,-1e-7 z M 6.5856445,3.865397 6.3499999,4.1010416 l -1.6045531,-1e-7 A 0.52916669,0.52916669 0 0 0 4.2333333,3.7041666 0.52916669,0.52916669 0 0 0 4.0896728,3.7253539 l 0.00207,-0.00155 -0.8020243,-1.3895785 0.083716,-0.3141927 a 2.3812498,2.3812498 0 0 1 0.1173056,-0.048059 l -2e-7,5.167e-4 a 2.3812498,2.3812498 0 0 1 0.069247,-0.018603 2.3812498,2.3812498 0 0 1 0.6733439,-0.1018026 2.3812498,2.3812498 0 0 1 0.673344,0.1018026 2.3812498,2.3812498 0 0 1 0.069247,0.018604 l -1e-7,-5.168e-4 a 2.3812498,2.3812498 0 0 1 0.3312462,0.1364257 l -5.168e-4,5.167e-4 a 2.3812498,2.3812498 0 0 1 0.064079,0.037208 2.3812498,2.3812498 0 0 1 0.5033284,0.3669028 2.3812498,2.3812498 0 0 1 0.079582,0.079582 2.3812498,2.3812498 0 0 1 0.3669029,0.5033283 2.3812498,2.3812498 0 0 1 0.037207,0.064078 l 5.168e-4,-5.167e-4 a 2.3812498,2.3812498 0 0 1 0.136425,0.3312453 l -5.167e-4,1e-7 a 2.3812498,2.3812498 0 0 1 0.018603,0.069246 2.3812498,2.3812498 0 0 1 0.072864,0.3054081 z m 0,0.7358724 A 2.3812498,2.3812498 0 0 1 6.5613567,4.7320112 2.3812498,2.3812498 0 0 1 6.4972782,4.9707563 2.3812498,2.3812498 0 0 1 6.3587849,5.3071697 l -5.17e-4,-1e-7 A 2.3812498,2.3812498 0 0 1 6.2259763,5.5366128 2.3812498,2.3812498 0 0 1 6.0027341,5.8265176 2.3812498,2.3812498 0 0 1 5.8208331,6.007902 2.3812498,2.3812498 0 0 1 5.5366127,6.2259767 2.3812498,2.3812498 0 0 1 5.3071694,6.3587851 2.3812498,2.3812498 0 0 1 4.9692056,6.4977948 a 2.3812498,2.3812498 0 0 1 -0.2371947,0.063562 2.3812498,2.3812498 0 0 1 -0.3674195,0.049609 2.3812498,2.3812498 0 0 1 -0.0062,5.194e-4 2.3812498,2.3812498 0 0 1 -5.167e-4,-1e-7 2.3812498,2.3812498 0 0 1 -0.018089,5.141e-4 2.3812498,2.3812498 0 0 1 -0.099219,0.00258 2.3812498,2.3812498 0 0 1 -0.00362,2.5e-6 2.3812498,2.3812498 0 0 1 -0.00362,2.5e-6 2.3812498,2.3812498 0 0 1 -0.1322917,-0.00517 l -7e-7,0.00155 A 2.3812498,2.3812498 0 0 1 3.7460245,6.5639403 l 0,-0.00103 A 2.3812498,2.3812498 0 0 1 3.4907429,6.494177 l -5.15e-4,0.00103 A 2.3812498,2.3812498 0 0 1 3.3760237,6.4548992 L 3.2897217,6.1324419 4.0917399,4.7428627 a 0.52916669,0.52916669 0 0 0 0.1415934,0.019637 0.52916669,0.52916669 0 0 0 0.5121135,-0.396875 L 6.35,4.3656247 Z m -2.1538737,-0.5663737 0,0.3968749 -0.396875,0 0,-0.3968749 z M 3.8628132,3.8560952 A 0.52916669,0.52916669 0 0 0 3.7041666,4.2333332 0.52916669,0.52916669 0 0 0 3.8628131,4.610571 L 3.0602783,6.0001503 2.7383341,6.0869668 a 2.3812498,2.3812498 0 0 1 -0.092501,-0.079065 l 5.168e-4,-5.169e-4 A 2.3812498,2.3812498 0 0 1 2.4592814,5.8203165 l -5.168e-4,5.167e-4 A 2.3812498,2.3812498 0 0 1 2.2406899,5.5366129 l 0.00103,-5.152e-4 A 2.3812498,2.3812498 0 0 1 2.1089121,5.3066545 l -0.00103,5.15e-4 A 2.3812498,2.3812498 0 0 1 1.971456,4.9764403 l 0.00103,-5.15e-4 A 2.3812498,2.3812498 0 0 1 1.9037596,4.7206419 l -0.00103,10e-8 A 2.3812498,2.3812498 0 0 1 1.8557007,4.3656248 l 0.00155,-1.3e-6 A 2.3812498,2.3812498 0 0 1 1.8520834,4.2333331 2.3812498,2.3812498 0 0 1 1.953886,3.5599893 2.3812498,2.3812498 0 0 1 1.9724894,3.4907428 l -5.167e-4,-10e-8 A 2.3812498,2.3812498 0 0 1 2.1083984,3.1594969 l 5.168e-4,5.167e-4 A 2.3812498,2.3812498 0 0 1 2.1461221,3.0959352 2.3812498,2.3812498 0 0 1 2.513025,2.5926068 2.3812498,2.3812498 0 0 1 2.5926068,2.513025 2.3812498,2.3812498 0 0 1 2.7455689,2.3817669 l 0.3147096,0.084749 z" />
</svg>
