<?xml version="1.0" encoding="UTF-8" standalone="no"?>
<!-- Created with Inkscape (http://www.inkscape.org/) -->

<svg
   width="32"
   height="32"
   viewBox="0 0 8.4666667 8.4666667"
   version="1.1"
   id="svg5"
   inkscape:version="1.1.1 (3bf5ae0d25, 2021-09-20, custom)"
   sodipodi:docname="applications-internet.svg"
   xmlns:inkscape="http://www.inkscape.org/namespaces/inkscape"
   xmlns:sodipodi="http://sodipodi.sourceforge.net/DTD/sodipodi-0.dtd"
   xmlns="http://www.w3.org/2000/svg"
   xmlns:svg="http://www.w3.org/2000/svg">
  <sodipodi:namedview
     id="namedview7"
     pagecolor="#ffffff"
     bordercolor="#666666"
     borderopacity="1.0"
     inkscape:pageshadow="2"
     inkscape:pageopacity="0.0"
     inkscape:pagecheckerboard="0"
     inkscape:document-units="px"
     showgrid="false"
     units="px"
     height="48px"
     inkscape:zoom="3.9999998"
     inkscape:cx="31.375001"
     inkscape:cy="24.375001"
     inkscape:window-width="1365"
     inkscape:window-height="835"
     inkscape:window-x="0"
     inkscape:window-y="172"
     inkscape:window-maximized="0"
     inkscape:current-layer="svg5"
     inkscape:lockguides="true" />
  <defs
     id="defs2" />
  <rect
     style="opacity:1;fill:#2482e8;fill-opacity:1;stroke-width:2.08359;stroke-linecap:round;stroke-linejoin:round"
     id="rect849"
     width="7.4083333"
     height="7.4083333"
     x="0.52916664"
     y="0.52916664"
     ry="1.0583333" />
  <path
     d="m 5.4729903,5.4398061 q -0.1896228,0 -0.3650239,-0.094811 Q 4.9325653,5.2454427 4.8614568,5.032117 h -0.00474 q -0.042666,0.1137737 -0.127996,0.1896228 -0.08533,0.075849 -0.1896228,0.1232549 -0.099552,0.047406 -0.2038445,0.066368 -0.1042926,0.018962 -0.1896228,0.018962 -0.4550947,0 -0.6921232,-0.2559908 Q 3.216479,4.9183434 3.216479,4.4869515 V 4.117187 q 0,-0.4361324 0.2275473,-0.6873826 0.232288,-0.2559908 0.6304958,-0.2559908 0.265472,0 0.4219108,0.08059 0.1564388,0.08059 0.2228068,0.1943633 V 3.202257 h 0.4456136 v 1.4932796 q 0,0.1991039 0.08059,0.2939153 0.08059,0.090071 0.232288,0.090071 0.1185142,0 0.2085851,-0.042665 0.090071,-0.047406 0.1516982,-0.1469577 0.061627,-0.1042925 0.094811,-0.2654719 0.033184,-0.1659199 0.033184,-0.4029484 v -0.052146 q 0,-0.3982079 -0.1185143,-0.7110855 Q 5.7337217,3.1453701 5.5061743,2.9273039 5.2786269,2.7044971 4.946787,2.5907234 4.6149471,2.4722092 4.1835552,2.4722092 q -0.3697644,0 -0.6779015,0.1185142 Q 3.1975167,2.7092377 2.9747099,2.9367851 2.7566437,3.1595919 2.6333888,3.4866912 2.510134,3.8137905 2.510134,4.2262201 v 0.08059 q 0,0.440873 0.1185143,0.7821941 0.1232548,0.3365805 0.3508022,0.5641278 0.2275473,0.2322879 0.5546466,0.3508022 0.33184,0.1232548 0.7442695,0.1232548 0.3555428,0 0.706345,-0.08059 Q 5.3355138,5.97075 5.6294291,5.8190517 l 0.132736,0.3318399 Q 5.4635092,6.312071 5.0890041,6.3974012 4.7192397,6.487472 4.2925884,6.487472 3.7806068,6.487472 3.3776583,6.3357738 2.9747099,6.1840756 2.6950162,5.8996414 2.4153226,5.6152072 2.2636244,5.2122587 2.1166667,4.8093102 2.1166667,4.3115504 v -0.090071 q 0,-0.4550948 0.1422171,-0.8390809 Q 2.4058415,2.9936719 2.6713134,2.7139783 2.9415259,2.4342846 3.3207715,2.2778458 3.7047577,2.1166664 4.1835552,2.1166664 q 0.5262033,0 0.9291518,0.1516983 0.4029484,0.1469577 0.6779015,0.4171702 0.2749531,0.2702124 0.4171702,0.6447175 0.1422171,0.374505 0.1422171,0.8248592 v 0.061627 q 0,0.2085851 -0.042665,0.4266513 Q 6.2694061,4.8567159 6.1698541,5.0368576 6.0703021,5.2122587 5.8996416,5.3260324 5.7337217,5.4398061 5.4729903,5.4398061 Z M 3.6857954,4.4111024 q 0,0.2702124 0.1185142,0.4313918 0.1185143,0.1564388 0.3745051,0.1564388 0.099552,0 0.1896228,-0.023703 0.094811,-0.023703 0.1659199,-0.08059 0.075849,-0.056887 0.1185143,-0.1516982 0.042665,-0.094811 0.042665,-0.2370285 V 4.0887436 q 0,-0.094811 -0.028443,-0.1801417 Q 4.6433905,3.8185311 4.5817631,3.7521631 4.5201357,3.6810546 4.4205838,3.64313 4.3210318,3.6004649 4.1788147,3.6004649 q -0.232288,0 -0.3650239,0.1279954 -0.1279954,0.1279954 -0.1279954,0.4645758 z"
     style="font-weight:bold;font-size:4.74057px;line-height:1.25;font-family:'나눔스퀘어';-inkscape-font-specification:'나눔스퀘어 Bold';stroke-width:0.118515;fill:#ffffff"
     id="path6805" />
</svg>
