<?xml version="1.0" encoding="UTF-8" standalone="no"?>
<!-- Created with Inkscape (http://www.inkscape.org/) -->

<svg
   width="32"
   height="32"
   viewBox="0 0 8.4666665 8.4666665"
   version="1.1"
   id="svg5"
   inkscape:version="1.1.1 (3bf5ae0d25, 2021-09-20, custom)"
   sodipodi:docname="goa-account-msn.svg"
   xmlns:inkscape="http://www.inkscape.org/namespaces/inkscape"
   xmlns:sodipodi="http://sodipodi.sourceforge.net/DTD/sodipodi-0.dtd"
   xmlns="http://www.w3.org/2000/svg"
   xmlns:svg="http://www.w3.org/2000/svg">
  <sodipodi:namedview
     id="namedview7"
     pagecolor="#ffffff"
     bordercolor="#666666"
     borderopacity="1.0"
     inkscape:pageshadow="2"
     inkscape:pageopacity="0.0"
     inkscape:pagecheckerboard="0"
     inkscape:document-units="px"
     showgrid="false"
     units="px"
     height="48px"
     inkscape:zoom="17.124877"
     inkscape:cx="5.5474851"
     inkscape:cy="20.116933"
     inkscape:window-width="1920"
     inkscape:window-height="1019"
     inkscape:window-x="0"
     inkscape:window-y="0"
     inkscape:window-maximized="1"
     inkscape:current-layer="svg5"
     inkscape:lockguides="true"
     showguides="false" />
  <defs
     id="defs2" />
  <path
     id="rect846-3"
     style="fill:#ffffff;fill-opacity:1;stroke-width:0.168764"
     d="m 1.5875,0.79374998 h 5.2916665 c 0.4397375,0 0.79375,0.35401252 0.79375,0.79375002 v 5.2916665 c 0,0.4397375 -0.3540125,0.79375 -0.79375,0.79375 H 1.5875 c -0.4397375,0 -0.79375002,-0.3540125 -0.79375002,-0.79375 V 1.5875 c 0,-0.4397375 0.35401252,-0.79375002 0.79375002,-0.79375002 z" />
  <rect
     style="opacity:1;fill:#f25022;fill-opacity:1;stroke-width:0.68752;stroke-linejoin:round"
     id="rect942"
     width="2.2489583"
     height="2.2489583"
     x="1.8520832"
     y="1.8520832" />
  <rect
     style="opacity:1;fill:#00a4ef;fill-opacity:1;stroke-width:0.79375;stroke-linejoin:round"
     id="rect1090"
     width="2.2489586"
     height="2.2489586"
     x="1.8520832"
     y="4.3656249" />
  <rect
     style="opacity:1;fill:#7fba00;fill-opacity:1;stroke-width:0.79375;stroke-linejoin:round"
     id="rect1274"
     width="2.2489586"
     height="2.2489586"
     x="4.3656249"
     y="1.8520832" />
  <rect
     style="opacity:1;fill:#ffb900;fill-opacity:1;stroke-width:0.79375;stroke-linejoin:round"
     id="rect1408"
     width="2.2489586"
     height="2.2489586"
     x="4.3656249"
     y="4.3656249" />
  <path
     id="rect928"
     style="opacity:0.3;fill:#1a1a1a;fill-opacity:1;stroke-width:0.999999"
     d="M 6,3 C 4.338,3 3,4.338 3,6 v 20 c 0,1.662 1.338,3 3,3 h 20 c 1.662,0 3,-1.338 3,-3 V 6 C 29,4.338 27.662,3 26,3 Z m 0,1 h 20 c 1.108,0 2,0.892 2,2 v 20 c 0,1.108 -0.892,2 -2,2 H 6 C 4.892,28 4,27.108 4,26 V 6 C 4,4.892 4.892,4 6,4 Z"
     transform="scale(0.26458333)" />
</svg>
