<?xml version="1.0" encoding="UTF-8" standalone="no"?>
<!-- Created with Inkscape (http://www.inkscape.org/) -->

<svg
   width="32"
   height="32"
   viewBox="0 0 8.4666665 8.4666665"
   version="1.1"
   id="svg5"
   inkscape:version="1.1.1 (3bf5ae0d25, 2021-09-20, custom)"
   sodipodi:docname="goa-account-twitter.svg"
   xmlns:inkscape="http://www.inkscape.org/namespaces/inkscape"
   xmlns:sodipodi="http://sodipodi.sourceforge.net/DTD/sodipodi-0.dtd"
   xmlns="http://www.w3.org/2000/svg"
   xmlns:svg="http://www.w3.org/2000/svg">
  <sodipodi:namedview
     id="namedview7"
     pagecolor="#ffffff"
     bordercolor="#666666"
     borderopacity="1.0"
     inkscape:pageshadow="2"
     inkscape:pageopacity="0.0"
     inkscape:pagecheckerboard="0"
     inkscape:document-units="px"
     showgrid="false"
     units="px"
     height="48px"
     inkscape:zoom="7.9999996"
     inkscape:cx="-2.2500001"
     inkscape:cy="20.687501"
     inkscape:window-width="1920"
     inkscape:window-height="1019"
     inkscape:window-x="0"
     inkscape:window-y="0"
     inkscape:window-maximized="1"
     inkscape:current-layer="svg5"
     inkscape:lockguides="true" />
  <defs
     id="defs2" />
  <path
     id="rect846-3"
     style="fill:#1da1f2;fill-opacity:1;stroke-width:0.168764"
     d="m 1.5875,0.79374998 h 5.2916665 c 0.4397375,0 0.79375,0.35401252 0.79375,0.79375002 v 5.2916665 c 0,0.4397375 -0.3540125,0.79375 -0.79375,0.79375 H 1.5875 c -0.4397375,0 -0.79375002,-0.3540125 -0.79375002,-0.79375 V 1.5875 c 0,-0.4397375 0.35401252,-0.79375002 0.79375002,-0.79375002 z" />
  <path
     d="M 4.8345072,2.2962736 C 4.4044056,2.4569992 4.1331008,2.8684567 4.1633172,3.3210599 L 4.1742462,3.4952864 4.0019484,3.4740704 C 3.3764047,3.3924221 2.8292949,3.1153312 2.3644765,2.649227 L 2.137532,2.4177821 2.0790279,2.5894371 C 1.9549477,2.9693923 2.0340247,3.3718492 2.2918285,3.6418682 2.4294096,3.7910215 2.3985504,3.8122373 2.1606765,3.7235168 2.078385,3.6952291 2.005737,3.6740133 1.9986651,3.6849427 1.9748771,3.7100167 2.0578121,4.0333957 2.1227452,4.1619762 2.2121082,4.3400601 2.394693,4.5142867 2.5939926,4.617151 L 2.7630759,4.6988 2.5637762,4.70266 c -0.1928707,0 -0.1992997,0.00386 -0.1800127,0.078434 0.068791,0.2314448 0.3407383,0.4770333 0.6435453,0.5837553 L 3.2407524,5.4394235 3.0549536,5.553217 a 1.9029909,1.9029909 0 0 1 -0.921279,0.26359 c -0.1549395,0.0032 -0.2815913,0.01736 -0.2815913,0.027645 0,0.03536 0.4191724,0.234016 0.6634753,0.3124505 C 3.2484672,6.388347 4.1189569,6.2886975 4.7734315,5.8939555 5.237607,5.613007 5.7024255,5.0549675 5.919084,4.5142868 6.0360915,4.2256236 6.1531,3.6997295 6.1531,3.4451402 6.1531,3.281843 6.163385,3.2599843 6.356257,3.064542 6.4700505,2.9507483 6.5767725,2.8266682 6.5973455,2.7906656 6.6320605,2.722518 6.6282055,2.722518 6.4526925,2.7842366 6.1601715,2.8909583 6.1183835,2.8774573 6.263679,2.7167318 6.370401,2.602938 6.4976955,2.3972093 6.4976955,2.3367764 c 0,-0.010286 -0.051432,0.00578 -0.109936,0.038574 A 1.8515587,1.8515587 0 0 1 6.084952,2.4955733 L 5.8985105,2.5560062 5.7300705,2.438998 C 5.6374925,2.3747077 5.5063405,2.3039884 5.43755,2.2821298 a 1.1540097,1.1540097 0 0 0 -0.6017569,0.014144"
     fill="#ffffff"
     id="path6"
     style="stroke-width:0.6429" />
</svg>
