<?xml version="1.0" encoding="UTF-8" standalone="no"?>
<!-- Created with Inkscape (http://www.inkscape.org/) -->

<svg
   width="32"
   height="32"
   viewBox="0 0 8.4666665 8.4666665"
   version="1.1"
   id="svg5"
   inkscape:version="1.1.1 (3bf5ae0d25, 2021-09-20, custom)"
   sodipodi:docname="ms-exchange.svg"
   xmlns:inkscape="http://www.inkscape.org/namespaces/inkscape"
   xmlns:sodipodi="http://sodipodi.sourceforge.net/DTD/sodipodi-0.dtd"
   xmlns="http://www.w3.org/2000/svg"
   xmlns:svg="http://www.w3.org/2000/svg">
  <sodipodi:namedview
     id="namedview7"
     pagecolor="#ffffff"
     bordercolor="#666666"
     borderopacity="1.0"
     inkscape:pageshadow="2"
     inkscape:pageopacity="0.0"
     inkscape:pagecheckerboard="0"
     inkscape:document-units="px"
     showgrid="false"
     units="px"
     height="48px"
     inkscape:zoom="11.313708"
     inkscape:cx="12.285981"
     inkscape:cy="27.488777"
     inkscape:window-width="1920"
     inkscape:window-height="1011"
     inkscape:window-x="0"
     inkscape:window-y="0"
     inkscape:window-maximized="1"
     inkscape:current-layer="svg5"
     inkscape:lockguides="true" />
  <defs
     id="defs2" />
  <path
     id="rect1996"
     style="opacity:1;fill:#ffffff;stroke-width:2.56442;stroke-linecap:round;stroke-linejoin:round"
     d="M 1.3229166,0.52916666 H 7.14375 c 0.4397375,0 0.79375,0.35401249 0.79375,0.79374994 V 7.14375 c 0,0.4397375 -0.3540125,0.79375 -0.79375,0.79375 H 1.3229166 C 0.88317915,7.9375 0.52916666,7.5834875 0.52916666,7.14375 V 1.3229166 c 0,-0.43973745 0.35401249,-0.79374994 0.79374994,-0.79374994 z" />
  <path
     style="fill:#50d9ff;stroke-width:0.0288635"
     inkscape:connector-curvature="0"
     id="path8"
     d="m 4.1005604,2.2436667 c -0.017318,-0.023091 -0.049068,-0.057727 -0.098136,-0.083705 -0.051955,-0.028864 -0.098136,-0.037523 -0.1270002,-0.040409 -0.3781134,0 -0.7533407,0 -1.1314543,0 -0.049069,0 -0.1327728,0.00866 -0.1962728,0.069273 -0.066386,0.0635 -0.080818,0.1529772 -0.080818,0.2020454 0,0.1500909 0,0.2972955 0,0.4473862 h 1.6423408 c 0.1616362,0 0.2944092,0.1327729 0.2944092,0.2944091 v 0.8543639 c 0.077932,-0.092364 0.124113,-0.2107047 0.124113,-0.3377045 V 2.6997121 C 4.3863105,2.5496212 4.2419925,2.396644 4.1005604,2.2436667 Z"
     class="st2" />
  <path
     style="fill:#0078d4;stroke-width:0.0288635;enable-background:new"
     inkscape:connector-curvature="0"
     id="path10"
     d="M 4.016856,5.3926892 H 2.1176288 c -0.1472045,0 -0.2655455,-0.1183405 -0.2655455,-0.2655455 V 3.2279165 c 0,-0.1472044 0.118341,-0.2655453 0.2655455,-0.2655453 h 1.8963408 c 0.1472043,0 0.2655451,0.1183409 0.2655451,0.2655453 v 1.8963407 c 0.00287,0.1500915 -0.1154543,0.268432 -0.2626587,0.268432 z"
     class="st3" />
  <path
     class="st4"
     d="M 3.4886515,4.9279843 H 2.6458333 V 3.429962 H 3.4540151 V 3.6406667 H 2.8940606 V 4.064962 H 3.4078333 V 4.2756667 H 2.8940606 v 0.4444999 h 0.5917045 v 0.2078177 z"
     id="path12"
     inkscape:connector-curvature="0"
     style="fill:#ffffff;stroke-width:0.0288635" />
  <path
     style="fill:#28a8ea;stroke-width:0.0288635"
     inkscape:connector-curvature="0"
     id="path16"
     d="m 6.3201737,2.1166667 c -0.329045,0 -0.6580905,0 -0.987136,0 -0.1414316,0 -0.2770911,0.057727 -0.3781139,0.1558636 -0.2135906,0.2135909 -0.430068,0.4300681 -0.6436587,0.643659 0.057727,0.054841 0.092363,0.1298864 0.092363,0.2135908 v 2.0868406 c 0,0.161637 -0.1327729,0.2944095 -0.2944091,0.2944095 H 2.4668787 v 0.4560455 c 0,0.1616365 0.1327727,0.294409 0.2944091,0.294409 h 0.9871363 c 0.1414319,0 0.2770909,-0.05773 0.3781135,-0.1558635 C 4.9145152,5.3176442 5.7024922,4.5296664 6.4904692,3.7416893 6.5712902,3.6608713 6.6145832,3.5511895 6.6145832,3.438621 V 2.4110757 c 0,-0.1645227 -0.132773,-0.294409 -0.2944095,-0.294409 z"
     class="st5" />
  <path
     style="fill:#0078d4;stroke-width:0.0288635;enable-background:new"
     inkscape:connector-curvature="0"
     id="path18"
     d="m 6.0199922,4.1861891 c 0,-0.00287 0,-0.00577 0,-0.00866 H 5.0559466 c -0.2915225,0 -0.5282045,0.2366815 -0.5282045,0.5282043 v 0.9467288 c 0.1414321,0.152977 0.2857501,0.3030685 0.4271817,0.4560455 0.017319,0.023095 0.049069,0.05773 0.098137,0.083708 0.051955,0.028865 0.098136,0.037525 0.1269995,0.040415 0.3781141,0 0.7533411,0 1.1314546,0 0.04907,0 0.132773,-0.00871 0.1962735,-0.069275 0.066389,-0.063502 0.080821,-0.152978 0.080821,-0.2020455 0,-0.389659 0,-0.782205 0,-1.1718644 C 6.3981062,4.5873967 6.2076057,4.3853514 6.0199922,4.1861922 Z"
     class="st3" />
  <path
     id="rect1787"
     style="opacity:0.2;fill:#000000;stroke-width:2.38125;stroke-linecap:round;stroke-linejoin:round"
     d="m 1.3229166,0.52916666 c -0.43973745,0 -0.79374994,0.3540125 -0.79374994,0.79374994 v 5.8208333 c 0,0.4397375 0.35401249,0.79375 0.79374994,0.79375 h 5.8208333 c 0.4397375,0 0.79375,-0.3540125 0.79375,-0.79375 V 1.3229166 c 0,-0.43973744 -0.3540125,-0.79374994 -0.79375,-0.79374994 z m 0,0.26458333 h 5.8208333 c 0.2931583,0 0.5291667,0.23600831 0.5291667,0.52916661 v 5.8208333 c 0,0.2931584 -0.2360084,0.5291667 -0.5291667,0.5291667 H 1.3229166 c -0.2931583,0 -0.52916661,-0.2360083 -0.52916661,-0.5291667 V 1.3229166 c 0,-0.2931583 0.23600831,-0.52916661 0.52916661,-0.52916661 z" />
</svg>
