<?xml version="1.0" encoding="UTF-8" standalone="no"?>
<!-- Created with Inkscape (http://www.inkscape.org/) -->

<svg
   width="32"
   height="32"
   viewBox="0 0 8.4666667 8.4666667"
   version="1.1"
   id="svg5"
   inkscape:version="1.1.1 (3bf5ae0d25, 2021-09-20, custom)"
   sodipodi:docname="preferences-desktop-effects.svg"
   xmlns:inkscape="http://www.inkscape.org/namespaces/inkscape"
   xmlns:sodipodi="http://sodipodi.sourceforge.net/DTD/sodipodi-0.dtd"
   xmlns="http://www.w3.org/2000/svg"
   xmlns:svg="http://www.w3.org/2000/svg">
  <sodipodi:namedview
     id="namedview7"
     pagecolor="#ffffff"
     bordercolor="#666666"
     borderopacity="1.0"
     inkscape:pageshadow="2"
     inkscape:pageopacity="0.0"
     inkscape:pagecheckerboard="0"
     inkscape:document-units="px"
     showgrid="false"
     units="px"
     height="48px"
     inkscape:zoom="12.828125"
     inkscape:cx="6.1583435"
     inkscape:cy="30.908648"
     inkscape:window-width="1920"
     inkscape:window-height="1007"
     inkscape:window-x="0"
     inkscape:window-y="0"
     inkscape:window-maximized="1"
     inkscape:current-layer="svg5"
     inkscape:lockguides="true" />
  <defs
     id="defs2" />
  <path
     id="rect849"
     style="opacity:1;fill:#57b5ff;stroke-width:2.08359;stroke-linecap:round;stroke-linejoin:round"
     d="m 1.5874999,0.52916664 h 5.2916668 c 0.5863166,0 1.0583332,0.47201666 1.0583332,1.05833326 v 5.2916668 c 0,0.5863166 -0.4720166,1.0583332 -1.0583332,1.0583332 H 1.5874999 c -0.5863166,0 -1.05833326,-0.4720166 -1.05833326,-1.0583332 V 1.5874999 c 0,-0.5863166 0.47201666,-1.05833326 1.05833326,-1.05833326 z" />
  <path
     id="rect1693-56"
     style="fill:#ffffff;stroke-width:0.132291"
     d="M 1.8520832,2.38125 A 0.2645833,0.2645833 0 0 1 1.5874999,2.6458333 0.2645833,0.2645833 0 0 1 1.8520832,2.9104166 0.2645833,0.2645833 0 0 1 2.1166666,2.6458333 0.2645833,0.2645833 0 0 1 1.8520832,2.38125 Z" />
  <path
     id="rect846"
     style="fill:#ffffff;stroke-width:0.264583"
     d="m 6.1042201,1.9882693 c -0.1036471,-0.1036471 -0.2705302,-0.1036471 -0.3741773,0 L 1.9882694,5.7300427 c -0.1036471,0.1036471 -0.1036472,0.2705302 0,0.3741773 l 0.3741774,0.3741772 c 0.1036471,0.1036471 0.2705302,0.1036473 0.3741773,1e-7 L 6.4783975,2.736624 C 6.5820446,2.6329768 6.5820446,2.4660938 6.4783974,2.3624466 Z M 5.9171315,2.175358 6.2913088,2.5495353 5.5429541,3.2978899 5.1687767,2.9237125 Z"
     sodipodi:nodetypes="sssssssssccccc" />
  <path
     id="rect1693"
     style="fill:#ffffff;stroke-width:0.264583"
     d="M 2.9104167,1.3229166 A 0.52916663,0.52916663 0 0 1 2.38125,1.8520833 0.52916663,0.52916663 0 0 1 2.9104167,2.38125 0.52916663,0.52916663 0 0 1 3.4395833,1.8520833 0.52916663,0.52916663 0 0 1 2.9104167,1.3229166 Z" />
  <path
     id="rect1693-5"
     style="fill:#ffffff;stroke-width:0.198437"
     d="M 3.8364583,2.38125 A 0.39687495,0.39687495 0 0 1 3.4395833,2.778125 0.39687495,0.39687495 0 0 1 3.8364583,3.1749999 0.39687495,0.39687495 0 0 1 4.2333333,2.778125 0.39687495,0.39687495 0 0 1 3.8364583,2.38125 Z" />
</svg>
