<?xml version="1.0" encoding="UTF-8" standalone="no"?>
<!-- Created with Inkscape (http://www.inkscape.org/) -->

<svg
   width="32"
   height="32"
   viewBox="0 0 8.4666665 8.4666665"
   version="1.1"
   id="svg5"
   inkscape:version="1.1.1 (3bf5ae0d25, 2021-09-20, custom)"
   sodipodi:docname="preferences-desktop-baloo.svg"
   xmlns:inkscape="http://www.inkscape.org/namespaces/inkscape"
   xmlns:sodipodi="http://sodipodi.sourceforge.net/DTD/sodipodi-0.dtd"
   xmlns:xlink="http://www.w3.org/1999/xlink"
   xmlns="http://www.w3.org/2000/svg"
   xmlns:svg="http://www.w3.org/2000/svg">
  <sodipodi:namedview
     id="namedview7"
     pagecolor="#ffffff"
     bordercolor="#666666"
     borderopacity="1.0"
     inkscape:pageshadow="2"
     inkscape:pageopacity="0.0"
     inkscape:pagecheckerboard="0"
     inkscape:document-units="px"
     showgrid="false"
     units="px"
     height="48px"
     inkscape:zoom="22.627416"
     inkscape:cx="12.374369"
     inkscape:cy="13.545515"
     inkscape:window-width="1920"
     inkscape:window-height="1019"
     inkscape:window-x="0"
     inkscape:window-y="0"
     inkscape:window-maximized="1"
     inkscape:current-layer="svg5"
     inkscape:lockguides="true" />
  <defs
     id="defs2">
    <linearGradient
       inkscape:collect="always"
       id="linearGradient1261">
      <stop
         style="stop-color:#1d99f3;stop-opacity:1;"
         offset="0"
         id="stop1257" />
      <stop
         style="stop-color:#2bc0ff;stop-opacity:1"
         offset="1"
         id="stop1259" />
    </linearGradient>
    <linearGradient
       inkscape:collect="always"
       xlink:href="#linearGradient1261"
       id="linearGradient1263"
       x1="10.583333"
       y1="16.933334"
       x2="10.583333"
       y2="6.3308715e-07"
       gradientUnits="userSpaceOnUse"
       gradientTransform="scale(0.49999999)" />
  </defs>
  <path
     id="rect863"
     style="fill:url(#linearGradient1263);fill-opacity:1;stroke-width:0.132291"
     d="m 1.5875002,0.52916666 h 5.2916662 c 0.586317,0 1.0583335,0.47201704 1.0583335,1.05833354 v 5.2916662 c 0,0.586317 -0.4720165,1.0583335 -1.0583335,1.0583335 H 1.5875002 c -0.5863165,0 -1.05833354,-0.4720165 -1.05833354,-1.0583335 V 1.5875002 c 0,-0.5863165 0.47201704,-1.05833354 1.05833354,-1.05833354 z" />
  <path
     id="path1005"
     style="fill:#fefefe;fill-opacity:1;stroke-width:2.38125;stroke-linecap:round;stroke-linejoin:round"
     d="m 3.3535206,1.5894788 a 1.8520833,1.8520833 0 0 0 -1.2236978,0.5405354 1.8520833,1.8520833 0 0 0 0,2.6189616 1.8520833,1.8520833 0 0 0 2.5218098,0.089917 l 1.151351,1.1513511 c -0.023643,0.088197 -7.408e-4,0.1863357 0.068729,0.2557981 l 0.7482747,0.7482748 c 0.103647,0.103647 0.27049,0.103647 0.374138,0 0.103647,-0.1036471 0.103647,-0.2704905 0,-0.3741375 L 6.2458506,5.8719045 C 6.1763882,5.8024421 6.0782498,5.7795321 5.9900523,5.803175 L 4.8387012,4.651824 A 1.8520833,1.8520833 0 0 0 4.7487844,2.1300142 1.8520833,1.8520833 0 0 0 3.3535206,1.5894788 Z m 0.085783,0.2625162 a 1.5875,1.5875 0 0 1 1.5875,1.5875 1.5875,1.5875 0 0 1 -1.5875,1.5875 1.5875,1.5875 0 0 1 -1.5875,-1.5875 1.5875,1.5875 0 0 1 1.5875,-1.5875 z" />
  <path
     id="path6"
     d="M 3.4646079,2.1165784 C 3.3974274,2.3321766 3.3848217,2.321866 3.364109,2.5523128 3.2571112,2.6480383 3.2427724,2.7569204 3.2474585,2.8627826 3.2525323,2.9777322 3.3318185,3.0527634 3.4247673,3.0580375 3.5400789,3.05767 3.6072284,2.9442329 3.6178687,2.8340686 3.6303337,2.70491 3.6081105,2.6209412 3.5155753,2.5544664 3.513144,2.3797017 3.5058833,2.3380021 3.4646079,2.1165784 Z M 3.0231306,2.2389717 C 2.9559501,2.4545699 2.9433444,2.4442593 2.9226317,2.6747061 2.8156338,2.7704316 2.8012952,2.8793137 2.8059814,2.985176 c 0.00508,0.1149495 0.084001,0.1903397 0.1769497,0.1956138 V 3.1804223 C 3.0982427,3.1800548 3.1653922,3.0666176 3.1760324,2.9564533 3.1884975,2.8272947 3.1666326,2.7433259 3.074098,2.676851 3.0716667,2.5020864 3.064406,2.4603868 3.0231306,2.2389631 Z m 0.8409603,0.054915 c -0.041275,0.2214242 -0.048536,0.2627648 -0.050967,0.4375294 -0.092535,0.066475 -0.1143996,0.1508026 -0.1019345,0.2799613 0.01064,0.1101642 0.07779,0.2236014 0.1931014,0.223969 0.092949,-0.00527 0.171876,-0.080664 0.17695,-0.1956139 C 4.0859265,2.9338703 4.0719472,2.8253471 3.9649488,2.7296216 3.9442361,2.4991747 3.9312716,2.5094854 3.8640909,2.2938867 Z M 2.5988818,2.5817446 C 2.5317012,2.7973428 2.5190955,2.7870323 2.4983829,3.0174791 2.391385,3.1132046 2.3770463,3.2217278 2.3817324,3.32759 2.3868063,3.4425396 2.4657335,3.5179296 2.5586822,3.5232038 2.6739939,3.5228363 2.7411434,3.4090402 2.7517837,3.298876 2.7642488,3.1697173 2.7423839,3.0857487 2.6498491,3.0192738 2.6474178,2.8445091 2.6401564,2.8031683 2.5988818,2.5817446 Z m 1.680485,0.01005 C 4.2380918,2.813218 4.2308308,2.8549175 4.2283998,3.0296822 4.1358648,3.0961572 4.114,3.1801259 4.1264651,3.3092846 c 0.01064,0.1101642 0.07779,0.2236014 0.1931016,0.2239689 0.092949,-0.00527 0.1722347,-0.080305 0.1773085,-0.195255 C 4.5015611,3.2321367 4.4872234,3.1232544 4.3802246,3.0275291 4.3595119,2.7970822 4.3465474,2.8073928 4.2793668,2.5917946 Z M 3.412205,3.1517169 C 3.269701,3.1541887 3.1780971,3.2313437 2.9459618,3.4191157 2.6254257,3.6152344 2.5291602,3.7235119 2.5245844,4.0109824 2.5195123,4.3287968 2.9307917,4.4311033 3.2618155,4.2902257 3.3627233,4.2472769 3.5802262,4.2438351 3.6964733,4.2948916 3.9380197,4.3730671 4.3665871,4.3224127 4.3734049,3.9743718 4.3871325,3.6827298 4.2011475,3.6003986 3.9190064,3.4191155 3.7503061,3.2550683 3.6663867,3.1630284 3.4416368,3.1520757 3.4316287,3.1515795 3.4217051,3.1515427 3.412205,3.1517081 Z"
     style="stroke-width:0.183769;fill:#ffffff;opacity:0.6" />
</svg>
