<?xml version="1.0" encoding="UTF-8" standalone="no"?>
<!-- Created with Inkscape (http://www.inkscape.org/) -->

<svg
   width="32"
   height="32"
   viewBox="0 0 8.4666665 8.4666665"
   version="1.1"
   id="svg5"
   inkscape:version="1.1.1 (3bf5ae0d25, 2021-09-20, custom)"
   sodipodi:docname="preference-kde-connect.svg"
   xmlns:inkscape="http://www.inkscape.org/namespaces/inkscape"
   xmlns:sodipodi="http://sodipodi.sourceforge.net/DTD/sodipodi-0.dtd"
   xmlns:xlink="http://www.w3.org/1999/xlink"
   xmlns="http://www.w3.org/2000/svg"
   xmlns:svg="http://www.w3.org/2000/svg">
  <sodipodi:namedview
     id="namedview7"
     pagecolor="#ffffff"
     bordercolor="#666666"
     borderopacity="1.0"
     inkscape:pageshadow="2"
     inkscape:pageopacity="0.0"
     inkscape:pagecheckerboard="0"
     inkscape:document-units="px"
     showgrid="false"
     units="px"
     height="48px"
     inkscape:zoom="11.313708"
     inkscape:cx="24.218407"
     inkscape:cy="30.184621"
     inkscape:window-width="1920"
     inkscape:window-height="1019"
     inkscape:window-x="0"
     inkscape:window-y="0"
     inkscape:window-maximized="1"
     inkscape:current-layer="svg5"
     inkscape:lockguides="true" />
  <defs
     id="defs2">
    <linearGradient
       inkscape:collect="always"
       id="linearGradient1261">
      <stop
         style="stop-color:#1d99f3;stop-opacity:1;"
         offset="0"
         id="stop1257" />
      <stop
         style="stop-color:#2bc0ff;stop-opacity:1"
         offset="1"
         id="stop1259" />
    </linearGradient>
    <linearGradient
       inkscape:collect="always"
       xlink:href="#linearGradient1261"
       id="linearGradient1263"
       x1="10.583333"
       y1="16.933334"
       x2="10.583333"
       y2="6.3308715e-07"
       gradientUnits="userSpaceOnUse"
       gradientTransform="scale(0.49999999)" />
  </defs>
  <path
     id="rect863"
     style="fill:url(#linearGradient1263);fill-opacity:1;stroke-width:0.132291"
     d="m 1.5875002,0.52916666 h 5.2916662 c 0.586317,0 1.0583335,0.47201704 1.0583335,1.05833354 v 5.2916662 c 0,0.586317 -0.4720165,1.0583335 -1.0583335,1.0583335 H 1.5875002 c -0.5863165,0 -1.05833354,-0.4720165 -1.05833354,-1.0583335 V 1.5875002 c 0,-0.5863165 0.47201704,-1.05833354 1.05833354,-1.05833354 z" />
  <path
     id="path8"
     style="isolation:auto;mix-blend-mode:normal;fill:#ffffff;fill-opacity:1;stroke-width:0.096212"
     d="m 3.7041666,3.1749999 c -0.079952,0 -0.1443183,0.064366 -0.1443183,0.1443181 0,0.079952 0.064366,0.1443183 0.1443183,0.1443183 0.079952,0 0.1443181,-0.064366 0.1443181,-0.1443183 0,-0.079952 -0.064366,-0.1443181 -0.1443181,-0.1443181 z M 4.5219698,3.1845835 4.2333332,3.4732198 4.7143939,3.9542804 4.2333332,4.4353411 4.5219698,4.7239775 5.2916665,3.9542804 Z m -1.1064396,0.769697 c -0.1332538,0 -0.2405303,0.1072766 -0.2405303,0.2405303 0,0.1332539 0.1072765,0.2405303 0.2405303,0.2405303 0.1332538,0 0.2405303,-0.1072764 0.2405303,-0.2405303 0,-0.1332537 -0.1072765,-0.2405303 -0.2405303,-0.2405303 z m 0.5291666,0.769697 c -0.1599045,0 -0.2886363,0.1287318 -0.2886363,0.2886364 0,0.1599044 0.1287318,0.2886364 0.2886363,0.2886364 0.1599046,0 0.2886364,-0.128732 0.2886364,-0.2886364 0,-0.1599046 -0.1287318,-0.2886364 -0.2886364,-0.2886364 z" />
  <path
     id="rect870"
     style="opacity:1;fill:#ffffff;stroke-width:0.999999"
     d="M 11 4 C 9.8920001 4 9 4.8920001 9 6 L 9 26 C 9 27.108 9.8920001 28 11 28 L 21 28 C 22.108 28 23 27.108 23 26 L 23 6 C 23 4.8920001 22.108 4 21 4 L 11 4 z M 11 5 L 13 5 C 13 5.5540001 13.446 6 14 6 L 18 6 C 18.554 6 19 5.5540001 19 5 L 21 5 C 21.554 5 22 5.446 22 6 L 22 26 C 22 26.554 21.554 27 21 27 L 11 27 C 10.446 27 10 26.554 10 26 L 10 6 C 10 5.446 10.446 5 11 5 z "
     transform="scale(0.26458333)" />
</svg>
