<?xml version="1.0" encoding="UTF-8" standalone="no"?>
<!-- Created with Inkscape (http://www.inkscape.org/) -->

<svg
   width="32"
   height="32"
   viewBox="0 0 8.4666667 8.4666667"
   version="1.1"
   id="svg5"
   inkscape:version="1.1.1 (3bf5ae0d25, 2021-09-20, custom)"
   sodipodi:docname="preferences-system-search.svg"
   xmlns:inkscape="http://www.inkscape.org/namespaces/inkscape"
   xmlns:sodipodi="http://sodipodi.sourceforge.net/DTD/sodipodi-0.dtd"
   xmlns="http://www.w3.org/2000/svg"
   xmlns:svg="http://www.w3.org/2000/svg">
  <sodipodi:namedview
     id="namedview7"
     pagecolor="#ffffff"
     bordercolor="#666666"
     borderopacity="1.0"
     inkscape:pageshadow="2"
     inkscape:pageopacity="0.0"
     inkscape:pagecheckerboard="0"
     inkscape:document-units="px"
     showgrid="false"
     units="px"
     height="48px"
     inkscape:zoom="6.1640626"
     inkscape:cx="-0.32446134"
     inkscape:cy="2.190114"
     inkscape:window-width="1920"
     inkscape:window-height="1011"
     inkscape:window-x="0"
     inkscape:window-y="0"
     inkscape:window-maximized="1"
     inkscape:current-layer="svg5"
     inkscape:lockguides="true" />
  <defs
     id="defs2" />
  <rect
     style="opacity:1;fill:#2e8ee9;fill-opacity:1;stroke-width:2.38125;stroke-linecap:round;stroke-linejoin:round"
     id="rect16798"
     width="7.4083333"
     height="7.4083333"
     x="0.52916664"
     y="0.52916664"
     ry="1.0583333" />
  <path
     id="path1005"
     style="fill:#fefefe;fill-opacity:1;stroke-width:9;stroke-linecap:round;stroke-linejoin:round"
     d="M 12.675781 6.0078125 A 6.9999998 6.9999998 0 0 0 8.0507812 8.0507812 A 6.9999998 6.9999998 0 0 0 8.0507812 17.949219 A 6.9999998 6.9999998 0 0 0 17.582031 18.289062 L 21.933594 22.640625 C 21.844234 22.973968 21.93083 23.344887 22.193359 23.607422 L 25.021484 26.435547 C 25.413221 26.827284 26.04381 26.827284 26.435547 26.435547 C 26.827284 26.04381 26.827284 25.413221 26.435547 25.021484 L 23.607422 22.193359 C 23.344887 21.930824 22.97397 21.844235 22.640625 21.933594 L 18.289062 17.582031 A 6.9999998 6.9999998 0 0 0 17.949219 8.0507812 A 6.9999998 6.9999998 0 0 0 12.675781 6.0078125 z M 13 7 A 5.9999999 5.9999999 0 0 1 19 13 A 5.9999999 5.9999999 0 0 1 13 19 A 5.9999999 5.9999999 0 0 1 7 13 A 5.9999999 5.9999999 0 0 1 13 7 z "
     transform="scale(0.26458333)" />
</svg>
