<?xml version="1.0" encoding="UTF-8" standalone="no"?>
<!-- Created with Inkscape (http://www.inkscape.org/) -->

<svg
   width="32"
   height="32"
   viewBox="0 0 8.4666665 8.4666665"
   version="1.1"
   id="svg5"
   inkscape:version="1.1.1 (3bf5ae0d25, 2021-09-20, custom)"
   sodipodi:docname="preferences-kde-connect.svg"
   xmlns:inkscape="http://www.inkscape.org/namespaces/inkscape"
   xmlns:sodipodi="http://sodipodi.sourceforge.net/DTD/sodipodi-0.dtd"
   xmlns:xlink="http://www.w3.org/1999/xlink"
   xmlns="http://www.w3.org/2000/svg"
   xmlns:svg="http://www.w3.org/2000/svg">
  <sodipodi:namedview
     id="namedview7"
     pagecolor="#ffffff"
     bordercolor="#666666"
     borderopacity="1.0"
     inkscape:pageshadow="2"
     inkscape:pageopacity="0.0"
     inkscape:pagecheckerboard="0"
     inkscape:document-units="px"
     showgrid="false"
     units="px"
     height="48px"
     inkscape:zoom="12.953125"
     inkscape:cx="32.038601"
     inkscape:cy="32.038601"
     inkscape:window-width="1368"
     inkscape:window-height="817"
     inkscape:window-x="84"
     inkscape:window-y="132"
     inkscape:window-maximized="0"
     inkscape:current-layer="svg5"
     inkscape:lockguides="true" />
  <defs
     id="defs2">
    <linearGradient
       inkscape:collect="always"
       id="linearGradient971">
      <stop
         style="stop-color:#f2f2f2;stop-opacity:1;"
         offset="0"
         id="stop967" />
      <stop
         style="stop-color:#f9f9f9;stop-opacity:1"
         offset="1"
         id="stop969" />
    </linearGradient>
    <linearGradient
       inkscape:collect="always"
       xlink:href="#linearGradient971"
       id="linearGradient973"
       x1="10.583333"
       y1="16.933334"
       x2="10.583333"
       y2="6.7529299e-07"
       gradientUnits="userSpaceOnUse"
       gradientTransform="scale(0.49999999)" />
    <linearGradient
       inkscape:collect="always"
       id="linearGradient1261">
      <stop
         style="stop-color:#1a86f2;stop-opacity:1"
         offset="0"
         id="stop1257" />
      <stop
         style="stop-color:#2ac9fe;stop-opacity:1"
         offset="1"
         id="stop1259" />
    </linearGradient>
    <linearGradient
       inkscape:collect="always"
       xlink:href="#linearGradient2017"
       id="linearGradient1917"
       x1="3.4395833"
       y1="2.036983"
       x2="3.4395831"
       y2="15.26615"
       gradientUnits="userSpaceOnUse"
       gradientTransform="matrix(0.21052628,0,0,0.21052628,2.4508767,2.5065787)" />
    <linearGradient
       inkscape:collect="always"
       id="linearGradient2017">
      <stop
         style="stop-color:#ffffff;stop-opacity:1;"
         offset="0"
         id="stop2013" />
      <stop
         style="stop-color:#9ad5ff;stop-opacity:1"
         offset="1"
         id="stop2015" />
    </linearGradient>
    <linearGradient
       inkscape:collect="always"
       xlink:href="#linearGradient1261"
       id="linearGradient1195"
       x1="5.8208332"
       y1="2.1166666"
       x2="5.8208327"
       y2="8.4666662"
       gradientUnits="userSpaceOnUse"
       gradientTransform="translate(-2.6458333,-1.0583333)" />
  </defs>
  <path
     id="rect863"
     style="fill:url(#linearGradient973);fill-opacity:1;stroke-width:0.132291"
     d="m 1.5875002,0.52916666 h 5.2916662 c 0.586317,0 1.0583335,0.47201704 1.0583335,1.05833354 v 5.2916662 c 0,0.586317 -0.4720165,1.0583335 -1.0583335,1.0583335 H 1.5875002 c -0.5863165,0 -1.05833354,-0.4720165 -1.05833354,-1.0583335 V 1.5875002 c 0,-0.5863165 0.47201704,-1.05833354 1.05833354,-1.05833354 z" />
  <path
     id="rect849"
     style="fill:#1a1a1a;fill-opacity:1;stroke-width:2.17203;stroke-linecap:round;stroke-linejoin:round"
     d="m 2.9104167,1.0583334 h 2.6458331 c 0.293159,0 0.529167,0.2360083 0.529167,0.5291666 v 5.2916669 c 0,0.293158 -0.236008,0.529166 -0.529167,0.529166 H 2.9104167 c -0.2931583,0 -0.5291666,-0.236008 -0.5291666,-0.529166 V 1.5875 c 0,-0.2931583 0.2360083,-0.5291666 0.5291666,-0.5291666 z"
     sodipodi:nodetypes="sssssssss" />
  <rect
     style="fill:url(#linearGradient1195);fill-opacity:1;stroke-width:0.264583;stroke-linecap:round;stroke-linejoin:round"
     id="rect1008"
     width="3.175"
     height="5.8208332"
     x="2.645833"
     y="1.3229166"
     ry="0.26458332" />
  <path
     id="path27"
     d="M 4.4291667,3.1749999 4.0372805,3.2113019 V 4.742545 L 4.4291667,4.664255 V 4.0372807 L 4.8993424,4.7425447 5.2912287,4.5859649 4.7819079,3.9264066 5.2916664,3.2535084 4.8811915,3.1749999 4.4291667,3.8413376 Z M 3.5832873,3.536926 a 0.03415008,0.03415008 0 0 0 -0.02668,0.010057 L 3.3901871,3.7134037 a 0.03918862,0.03918862 0 0 0 0,0.055546 l 0.1721063,0.269859 a 0.70539505,0.70539505 0 0 0 -0.035646,0.085944 l -0.3122845,0.069324 a 0.03918862,0.03918862 0 0 0 -0.039363,0.039145 v 0.2350879 c 0,0.021721 0.018089,0.034442 0.039363,0.039144 l 0.3122843,0.069543 c 0.00974,0.029111 0.021335,0.057525 0.034771,0.085069 L 3.388875,4.932583 c -0.011645,0.018251 -0.015339,0.039874 0,0.055326 l 0.1664205,0.1664201 a 0.03918862,0.03918862 0 0 0 0.055328,0 L 3.8813569,4.9820047 a 0.70539505,0.70539505 0 0 0 0.086382,0.036086 l 0.069323,0.3122841 c 0,0.02172 0.017423,0.039143 0.039145,0.039143 h 0.2353065 c 0.021722,0 0.034442,-0.017874 0.039145,-0.039143 L 4.4199824,5.017871 a 0.70539505,0.70539505 0 0 0 0.086382,-0.035206 l 0.2694208,0.1716681 a 0.03918862,0.03918862 0 0 0 0.055328,0 L 4.9975327,4.9879138 c 0.015338,-0.015451 0.011643,-0.03708 0,-0.055326 L 4.9240541,4.8171167 4.8691639,4.8389853 4.6937772,4.5756866 A 0.5486406,0.5486406 0 0 1 4.1940787,4.899343 0.5486406,0.5486406 0 0 1 3.6453943,4.3506584 0.5486406,0.5486406 0 0 1 3.958772,3.8557709 v -0.168826 a 0.70539505,0.70539505 0 0 0 -0.077196,0.03171 L 3.612154,3.5469856 A 0.0602385,0.0602385 0 0 0 3.583288,3.5369286 Z"
     style="fill:url(#linearGradient1917);fill-opacity:1;stroke-width:0.111967" />
  <path
     id="rect1655"
     style="fill:#000000;stroke-width:0.264583;stroke-linecap:round;stroke-linejoin:round"
     d="m 5.0270835,1.3229166 c 0,0.1465792 -0.1180042,0.2645833 -0.2645833,0.2645833 H 3.7041668 c -0.1465791,0 -0.2645833,-0.1180041 -0.2645833,-0.2645833 z"
     sodipodi:nodetypes="csscc" />
</svg>
