<?xml version="1.0" encoding="UTF-8" standalone="no"?>
<!-- Created with Inkscape (http://www.inkscape.org/) -->

<svg
   width="32"
   height="32"
   viewBox="0 0 8.4666667 8.4666667"
   version="1.1"
   id="svg5"
   inkscape:version="1.1.1 (3bf5ae0d25, 2021-09-20, custom)"
   sodipodi:docname="preferences-desktop-notification-rtl.svg"
   xmlns:inkscape="http://www.inkscape.org/namespaces/inkscape"
   xmlns:sodipodi="http://sodipodi.sourceforge.net/DTD/sodipodi-0.dtd"
   xmlns="http://www.w3.org/2000/svg"
   xmlns:svg="http://www.w3.org/2000/svg">
  <sodipodi:namedview
     id="namedview7"
     pagecolor="#ffffff"
     bordercolor="#666666"
     borderopacity="1.0"
     inkscape:pageshadow="2"
     inkscape:pageopacity="0.0"
     inkscape:pagecheckerboard="0"
     inkscape:document-units="px"
     showgrid="false"
     units="px"
     height="48px"
     inkscape:zoom="15.999999"
     inkscape:cx="20.531251"
     inkscape:cy="17.156251"
     inkscape:window-width="1365"
     inkscape:window-height="835"
     inkscape:window-x="193"
     inkscape:window-y="33"
     inkscape:window-maximized="0"
     inkscape:current-layer="svg5"
     inkscape:lockguides="true" />
  <defs
     id="defs2" />
  <rect
     style="opacity:1;fill:#f05757;fill-opacity:1;stroke-width:2.08359;stroke-linecap:round;stroke-linejoin:round"
     id="rect849"
     width="7.4083333"
     height="7.4083333"
     x="0.52916664"
     y="0.52916664"
     ry="1.0583333" />
  <path
     id="rect978"
     style="fill:#ffffff;stroke-width:2.38125;stroke-linecap:round;stroke-linejoin:round"
     d="M 2.38125,1.5875 A 0.79374996,0.79374996 0 0 1 3.175,2.38125 0.79374996,0.79374996 0 0 1 2.38125,3.175 0.79374996,0.79374996 0 0 1 1.5875,2.38125 0.79374996,0.79374996 0 0 1 2.38125,1.5875 Z m 3.9687499,0.2645833 c 0.1465792,0 0.2645834,0.1180042 0.2645834,0.2645833 v 4.2333333 c 0,0.1465792 -0.1180042,0.2645833 -0.2645834,0.2645833 H 2.1166667 c -0.1465792,0 -0.2645834,-0.1180041 -0.2645834,-0.2645833 v -3.05201 a 1.0583333,1.0583333 0 0 0 0.2645834,0.107487 v 2.944523 H 6.3499999 V 2.1166666 H 3.4054769 A 1.0583333,1.0583333 0 0 0 3.29799,1.8520833 Z" />
</svg>
