<?xml version="1.0" encoding="UTF-8" standalone="no"?>
<!-- Created with Inkscape (http://www.inkscape.org/) -->

<svg
   width="32"
   height="32"
   viewBox="0 0 8.4666667 8.4666667"
   version="1.1"
   id="svg5"
   inkscape:version="1.1.1 (3bf5ae0d25, 2021-09-20, custom)"
   sodipodi:docname="preferences-desktop-user-password.svg"
   xmlns:inkscape="http://www.inkscape.org/namespaces/inkscape"
   xmlns:sodipodi="http://sodipodi.sourceforge.net/DTD/sodipodi-0.dtd"
   xmlns="http://www.w3.org/2000/svg"
   xmlns:svg="http://www.w3.org/2000/svg">
  <sodipodi:namedview
     id="namedview7"
     pagecolor="#ffffff"
     bordercolor="#666666"
     borderopacity="1.0"
     inkscape:pageshadow="2"
     inkscape:pageopacity="0.0"
     inkscape:pagecheckerboard="0"
     inkscape:document-units="px"
     showgrid="false"
     units="px"
     height="48px"
     inkscape:zoom="8.7173009"
     inkscape:cx="16.174731"
     inkscape:cy="37.454254"
     inkscape:window-width="1920"
     inkscape:window-height="1011"
     inkscape:window-x="0"
     inkscape:window-y="0"
     inkscape:window-maximized="1"
     inkscape:current-layer="svg5"
     inkscape:lockguides="true" />
  <defs
     id="defs2" />
  <rect
     style="opacity:1;fill:#14b8ff;fill-opacity:1;stroke-width:2.38125;stroke-linecap:round;stroke-linejoin:round"
     id="rect16798"
     width="7.4083333"
     height="7.4083333"
     x="0.52916664"
     y="0.52916664"
     ry="1.0583333" />
  <path
     id="rect2238"
     style="opacity:0.5;fill:#ffffff;fill-opacity:1;stroke-width:1.47754;stroke-linecap:round;stroke-linejoin:round"
     d="M 4.8055166,3.6611496 5.2698635,4.1254963 2.2516098,7.1437505 H 1.3229167 Z"
     sodipodi:nodetypes="ccccc" />
  <path
     id="path849"
     style="fill:#ffffff;fill-opacity:1;stroke-width:1.84692;stroke-linecap:round;stroke-linejoin:round"
     d="m 6.6629033,1.8037632 a 1.6417134,1.6417134 0 0 0 -2.321733,0 A 1.6417134,1.6417134 0 0 0 3.974545,3.5634284 L 3.7607369,3.7772364 V 4.2415832 H 3.2963903 l -0.34826,0.3482599 V 5.0541899 H 2.4837837 l -0.34826,0.3482602 V 5.8667965 H 1.6711771 l -0.34826,0.3482601 V 7.1437505 L 4.3411703,4.1254964 a 1.6417134,1.6417134 0 0 0 2.321733,0 1.6417134,1.6417134 0 0 0 0,-2.3217332 z M 6.1985562,2.2681098 a 0.492514,0.492514 0 0 1 0,0.6965201 0.492514,0.492514 0 0 1 -0.6965193,0 0.492514,0.492514 0 0 1 0,-0.6965201 0.492514,0.492514 0 0 1 0.6965193,0 z" />
</svg>
