<?xml version="1.0" encoding="UTF-8" standalone="no"?>
<!-- Created with Inkscape (http://www.inkscape.org/) -->

<svg
   width="48"
   height="48"
   viewBox="0 0 12.7 12.7"
   version="1.1"
   id="svg5"
   inkscape:version="1.1.1 (3bf5ae0d25, 2021-09-20, custom)"
   sodipodi:docname="applications-all.svg"
   xmlns:inkscape="http://www.inkscape.org/namespaces/inkscape"
   xmlns:sodipodi="http://sodipodi.sourceforge.net/DTD/sodipodi-0.dtd"
   xmlns="http://www.w3.org/2000/svg"
   xmlns:svg="http://www.w3.org/2000/svg">
  <sodipodi:namedview
     id="namedview7"
     pagecolor="#ffffff"
     bordercolor="#666666"
     borderopacity="1.0"
     inkscape:pageshadow="2"
     inkscape:pageopacity="0.0"
     inkscape:pagecheckerboard="0"
     inkscape:document-units="px"
     showgrid="false"
     units="px"
     height="48px"
     inkscape:zoom="11.313708"
     inkscape:cx="20.41771"
     inkscape:cy="33.057244"
     inkscape:window-width="1920"
     inkscape:window-height="1011"
     inkscape:window-x="0"
     inkscape:window-y="0"
     inkscape:window-maximized="1"
     inkscape:current-layer="svg5"
     inkscape:lockguides="true" />
  <defs
     id="defs2" />
  <rect
     style="opacity:1;fill:#3c9cdb;fill-opacity:1;stroke-width:3.12539;stroke-linecap:round;stroke-linejoin:round"
     id="rect849"
     width="11.1125"
     height="11.1125"
     x="0.79374999"
     y="0.79374999"
     ry="1.8520833" />
  <path
     id="path25989"
     style="opacity:1;fill:#ffffff;fill-opacity:1;stroke-width:9;stroke-linecap:round;stroke-linejoin:round"
     d="M 13 10 A 3 3 0 0 0 10 13 A 3 3 0 0 0 13 16 A 3 3 0 0 0 16 13 A 3 3 0 0 0 13 10 z M 24 10 A 3 3 0 0 0 21 13 A 3 3 0 0 0 24 16 A 3 3 0 0 0 27 13 A 3 3 0 0 0 24 10 z M 35 10 A 3 3 0 0 0 32 13 A 3 3 0 0 0 35 16 A 3 3 0 0 0 38 13 A 3 3 0 0 0 35 10 z M 13 21 A 3 3 0 0 0 10 24 A 3 3 0 0 0 13 27 A 3 3 0 0 0 16 24 A 3 3 0 0 0 13 21 z M 24 21 A 3 3 0 0 0 21 24 A 3 3 0 0 0 24 27 A 3 3 0 0 0 27 24 A 3 3 0 0 0 24 21 z M 35 21 A 3 3 0 0 0 32 24 A 3 3 0 0 0 35 27 A 3 3 0 0 0 38 24 A 3 3 0 0 0 35 21 z M 13 32 A 3 3 0 0 0 10 35 A 3 3 0 0 0 13 38 A 3 3 0 0 0 16 35 A 3 3 0 0 0 13 32 z M 24 32 A 3 3 0 0 0 21 35 A 3 3 0 0 0 24 38 A 3 3 0 0 0 27 35 A 3 3 0 0 0 24 32 z M 35 32 A 3 3 0 0 0 32 35 A 3 3 0 0 0 35 38 A 3 3 0 0 0 38 35 A 3 3 0 0 0 35 32 z "
     transform="scale(0.26458333)" />
</svg>
