<?xml version="1.0" encoding="UTF-8" standalone="no"?>
<!-- Created with Inkscape (http://www.inkscape.org/) -->

<svg
   width="48"
   height="48"
   viewBox="0 0 12.7 12.7"
   version="1.1"
   id="svg5"
   inkscape:version="1.1.1 (3bf5ae0d25, 2021-09-20, custom)"
   sodipodi:docname="facebook.svg"
   xmlns:inkscape="http://www.inkscape.org/namespaces/inkscape"
   xmlns:sodipodi="http://sodipodi.sourceforge.net/DTD/sodipodi-0.dtd"
   xmlns:xlink="http://www.w3.org/1999/xlink"
   xmlns="http://www.w3.org/2000/svg"
   xmlns:svg="http://www.w3.org/2000/svg">
  <sodipodi:namedview
     id="namedview7"
     pagecolor="#ffffff"
     bordercolor="#666666"
     borderopacity="1.0"
     inkscape:pageshadow="2"
     inkscape:pageopacity="0.0"
     inkscape:pagecheckerboard="0"
     inkscape:document-units="px"
     showgrid="false"
     units="px"
     height="48px"
     inkscape:zoom="7.9999995"
     inkscape:cx="11.375001"
     inkscape:cy="29.437502"
     inkscape:window-width="1920"
     inkscape:window-height="1011"
     inkscape:window-x="0"
     inkscape:window-y="0"
     inkscape:window-maximized="1"
     inkscape:current-layer="svg5"
     inkscape:lockguides="true" />
  <defs
     id="defs2">
    <linearGradient
       inkscape:collect="always"
       id="linearGradient1145">
      <stop
         style="stop-color:#0084ff;stop-opacity:1;"
         offset="0"
         id="stop1141" />
      <stop
         style="stop-color:#00c6ff;stop-opacity:1"
         offset="1"
         id="stop1143" />
    </linearGradient>
    <linearGradient
       inkscape:collect="always"
       xlink:href="#linearGradient1145"
       id="linearGradient1009"
       x1="4.2333331"
       y1="10.054167"
       x2="4.2333326"
       y2="-0.52916676"
       gradientUnits="userSpaceOnUse"
       gradientTransform="matrix(1.3125001,0,0,1.3125001,0.09921874,0.09921874)" />
  </defs>
  <rect
     style="opacity:1;fill:url(#linearGradient1009);fill-opacity:1;stroke-width:3.12539;stroke-linecap:round;stroke-linejoin:round"
     id="rect849"
     width="11.1125"
     height="11.1125"
     x="0.79374999"
     y="0.79374999"
     ry="1.8520833" />
  <path
     id="path29"
     style="text-indent:0;text-decoration-line:none;text-transform:none;fill:#ffffff;stroke-width:0.106012"
     d="m 6.9370669,2.9104167 c 0,0 -1.6961836,0 -1.6961836,1.6961836 V 6.3027826 H 3.96875 V 7.9989648 H 5.2408833 V 11.90625 H 6.9370669 V 7.9989648 H 8.4212195 L 8.633256,6.3027826 H 6.9370669 V 5.0306494 c 0,-0.4240389 0.4240388,-0.4240389 0.4240388,-0.4240389 H 8.633239 V 2.9104167 Z"
     sodipodi:nodetypes="csccccccccccscccc" />
  <path
     id="rect1089"
     style="opacity:0.3;fill:#000000;stroke-width:2.38125;stroke-linecap:round;stroke-linejoin:round"
     d="M 2.6458333,0.79375 C 1.6197791,0.79375 0.79375,1.6197791 0.79375,2.6458333 v 7.4083327 c 0,1.026054 0.8260291,1.852083 1.8520833,1.852083 h 7.4083337 c 1.026054,0 1.852083,-0.826029 1.852083,-1.852083 V 2.6458333 c 0,-1.0260542 -0.826029,-1.8520833 -1.852083,-1.8520833 z m 0,0.2645833 h 7.4083337 c 0.879475,0 1.5875,0.708025 1.5875,1.5875 v 7.4083327 c 0,0.879475 -0.708025,1.5875 -1.5875,1.5875 H 2.6458333 c -0.879475,0 -1.5875,-0.708025 -1.5875,-1.5875 V 2.6458333 c 0,-0.879475 0.708025,-1.5875 1.5875,-1.5875 z" />
</svg>
