<?xml version="1.0" encoding="UTF-8" standalone="no"?>
<!-- Created with Inkscape (http://www.inkscape.org/) -->

<svg
   width="48"
   height="48"
   viewBox="0 0 12.7 12.7"
   version="1.1"
   id="svg5"
   inkscape:version="1.1.1 (3bf5ae0d25, 2021-09-20, custom)"
   sodipodi:docname="flickr.svg"
   xmlns:inkscape="http://www.inkscape.org/namespaces/inkscape"
   xmlns:sodipodi="http://sodipodi.sourceforge.net/DTD/sodipodi-0.dtd"
   xmlns="http://www.w3.org/2000/svg"
   xmlns:svg="http://www.w3.org/2000/svg">
  <sodipodi:namedview
     id="namedview7"
     pagecolor="#ffffff"
     bordercolor="#666666"
     borderopacity="1.0"
     inkscape:pageshadow="2"
     inkscape:pageopacity="0.0"
     inkscape:pagecheckerboard="0"
     inkscape:document-units="px"
     showgrid="false"
     units="px"
     height="48px"
     inkscape:zoom="5.656854"
     inkscape:cx="51.265244"
     inkscape:cy="49.585865"
     inkscape:window-width="1920"
     inkscape:window-height="1011"
     inkscape:window-x="0"
     inkscape:window-y="0"
     inkscape:window-maximized="1"
     inkscape:current-layer="svg5"
     inkscape:lockguides="true" />
  <defs
     id="defs2" />
  <rect
     style="fill:#ffffff;fill-opacity:1;stroke-width:2.38125;stroke-linecap:round;stroke-linejoin:round"
     id="rect943"
     width="11.1125"
     height="11.1125"
     x="0.79374999"
     y="0.79374999"
     ry="1.8520833" />
  <path
     id="rect1089"
     style="opacity:0.3;fill:#000000;stroke-width:9;stroke-linecap:round;stroke-linejoin:round"
     d="M 10 3 C 6.122 3 3 6.122 3 10 L 3 38 C 3 41.878 6.122 45 10 45 L 38 45 C 41.878 45 45 41.878 45 38 L 45 10 C 45 6.122 41.878 3 38 3 L 10 3 z M 10 4 L 38 4 C 41.324 4 44 6.676 44 10 L 44 38 C 44 41.324 41.324 44 38 44 L 10 44 C 6.676 44 4 41.324 4 38 L 4 10 C 4 6.676 6.676 4 10 4 z "
     transform="scale(0.26458333)" />
  <circle
     style="fill:#fa4779;stroke-width:1.32291;stroke-linejoin:round"
     id="path849"
     cx="8.7312498"
     cy="6.3499999"
     r="1.8520833" />
  <circle
     style="fill:#0062dd;fill-opacity:1;stroke-width:1.19976;stroke-linejoin:round"
     id="path953"
     cx="3.9687502"
     cy="6.3499999"
     r="1.8520833" />
</svg>
