<?xml version="1.0" encoding="UTF-8" standalone="no"?>
<!-- Created with Inkscape (http://www.inkscape.org/) -->

<svg
   width="48"
   height="48"
   viewBox="0 0 12.7 12.7"
   version="1.1"
   id="svg5"
   inkscape:version="1.1.1 (3bf5ae0d25, 2021-09-20, custom)"
   sodipodi:docname="fonts.svg"
   xmlns:inkscape="http://www.inkscape.org/namespaces/inkscape"
   xmlns:sodipodi="http://sodipodi.sourceforge.net/DTD/sodipodi-0.dtd"
   xmlns="http://www.w3.org/2000/svg"
   xmlns:svg="http://www.w3.org/2000/svg">
  <sodipodi:namedview
     id="namedview7"
     pagecolor="#ffffff"
     bordercolor="#666666"
     borderopacity="1.0"
     inkscape:pageshadow="2"
     inkscape:pageopacity="0.0"
     inkscape:pagecheckerboard="0"
     inkscape:document-units="px"
     showgrid="false"
     units="px"
     height="48px"
     inkscape:zoom="7.9999995"
     inkscape:cx="11.250001"
     inkscape:cy="29.375002"
     inkscape:window-width="1920"
     inkscape:window-height="1011"
     inkscape:window-x="0"
     inkscape:window-y="0"
     inkscape:window-maximized="1"
     inkscape:current-layer="svg5"
     inkscape:lockguides="true" />
  <defs
     id="defs2" />
  <rect
     style="opacity:1;fill:#818f9b;fill-opacity:1;stroke-width:3.12539;stroke-linecap:round;stroke-linejoin:round"
     id="rect849"
     width="11.1125"
     height="11.1125"
     x="0.79374999"
     y="0.79374999"
     ry="1.8520833" />
  <path
     id="path15486"
     style="font-size:8.21007px;line-height:1.25;font-family:Pretendard;-inkscape-font-specification:Pretendard;stroke-width:0.775756;fill:#ffffff"
     d="M 15.029297 12 L 7 33.939453 L 9.8476562 33.939453 L 12.044922 27.757812 L 20.863281 27.757812 L 23.060547 33.939453 L 25.939453 33.939453 L 17.908203 12 L 15.029297 12 z M 16.363281 15.544922 L 16.544922 15.544922 L 20.029297 25.363281 L 12.878906 25.363281 L 16.363281 15.544922 z M 34.818359 17.273438 C 33.626445 17.273438 32.549436 17.463819 31.589844 17.847656 C 30.640352 18.221392 29.87849 18.747063 29.302734 19.423828 C 28.726979 20.100593 28.384548 20.879028 28.273438 21.757812 L 31 21.757812 C 31.191918 21.101249 31.605826 20.570054 32.242188 20.166016 C 32.878549 19.751876 33.697269 19.544922 34.697266 19.544922 C 35.919483 19.544922 36.84249 19.832448 37.46875 20.408203 C 38.105111 20.973858 38.423828 21.787054 38.423828 22.847656 L 38.423828 24.181641 C 38.070294 24.191742 37.414669 24.222933 36.455078 24.273438 C 35.495486 24.323942 34.665717 24.373324 33.96875 24.423828 C 32.180878 24.555141 30.701009 24.974572 29.529297 25.681641 C 28.367685 26.378607 27.787109 27.576474 27.787109 29.273438 C 27.787109 30.313838 28.034349 31.216701 28.529297 31.984375 C 29.024245 32.741948 29.69644 33.322524 30.544922 33.726562 C 31.393403 34.1205 32.34403 34.323883 33.394531 34.333984 C 34.687456 34.323883 35.742368 34.054547 36.560547 33.529297 C 37.388828 32.993945 37.969403 32.384132 38.302734 31.697266 L 38.423828 31.697266 L 38.423828 33.939453 L 41 33.939453 L 41 23.091797 C 41.010101 20.819078 40.378192 19.282352 39.105469 18.484375 C 37.832747 17.676297 36.404212 17.273438 34.818359 17.273438 z M 38.423828 26.318359 L 38.423828 27.96875 C 38.423828 28.675818 38.24254 29.338919 37.878906 29.955078 C 37.525372 30.571237 37.005226 31.065717 36.318359 31.439453 C 35.631493 31.813189 34.818296 32 33.878906 32 C 32.828405 32 31.984018 31.778427 31.347656 31.333984 C 30.721399 30.889541 30.404635 30.243013 30.394531 29.394531 C 30.404632 28.525847 30.741539 27.862747 31.408203 27.408203 C 32.084968 26.953659 33.041119 26.686276 34.273438 26.605469 L 36.423828 26.455078 C 37.524841 26.374274 38.191513 26.328463 38.423828 26.318359 z "
     transform="scale(0.26458333)" />
</svg>
