<?xml version="1.0" encoding="UTF-8" standalone="no"?>
<!-- Created with Inkscape (http://www.inkscape.org/) -->

<svg
   width="48"
   height="48"
   viewBox="0 0 12.7 12.7"
   version="1.1"
   id="svg5"
   inkscape:version="1.1.1 (3bf5ae0d25, 2021-09-20, custom)"
   sodipodi:docname="lastfm.svg"
   xmlns:inkscape="http://www.inkscape.org/namespaces/inkscape"
   xmlns:sodipodi="http://sodipodi.sourceforge.net/DTD/sodipodi-0.dtd"
   xmlns="http://www.w3.org/2000/svg"
   xmlns:svg="http://www.w3.org/2000/svg">
  <sodipodi:namedview
     id="namedview7"
     pagecolor="#ffffff"
     bordercolor="#666666"
     borderopacity="1.0"
     inkscape:pageshadow="2"
     inkscape:pageopacity="0.0"
     inkscape:pagecheckerboard="0"
     inkscape:document-units="px"
     showgrid="false"
     units="px"
     height="48px"
     inkscape:zoom="8.5677785"
     inkscape:cx="20.25029"
     inkscape:cy="31.455062"
     inkscape:window-width="1541"
     inkscape:window-height="947"
     inkscape:window-x="23"
     inkscape:window-y="15"
     inkscape:window-maximized="0"
     inkscape:current-layer="svg5"
     inkscape:lockguides="true" />
  <defs
     id="defs2" />
  <rect
     style="opacity:1;fill:#c0342a;fill-opacity:1;stroke-width:2.62721;stroke-linecap:round;stroke-linejoin:round"
     id="rect949"
     width="11.1125"
     height="11.1125"
     x="0.79374999"
     y="0.79374999"
     ry="1.8520833" />
  <path
     id="path10"
     d="M 4.3922703,8.9062093 C 4.2334593,8.8843843 3.9509613,8.7911143 3.7625253,8.6989904 2.5347979,8.1014946 2.0327119,6.5966468 2.6374144,5.3290778 3.3282393,3.8797441 5.2131978,3.5103031 6.3474715,4.6019566 c 0.328005,0.3151672 0.473682,0.5840992 0.9675225,1.7766067 0.5155228,1.2470788 0.6108088,1.4431348 0.7778668,1.6093768 0.1789672,0.176856 0.3448027,0.236388 0.6621172,0.236388 0.5213265,0 0.8936145,-0.327273 0.8936145,-0.7839268 0,-0.3865065 -0.13377,-0.5102805 -0.816042,-0.756294 -1.0389877,-0.380652 -1.3755425,-0.7246425 -1.376765,-1.415502 0,-0.3685477 0.09192,-0.6142627 0.3255613,-0.8689057 0.3353347,-0.363588 0.9137722,-0.483642 1.4256307,-0.303114 0.2183655,0.078825 0.6752505,0.4895445 0.6752505,0.607119 0,0.057045 -0.264786,0.2314267 -0.411687,0.2726527 -0.077565,0.02034 -0.14445,-0.006 -0.2339385,-0.093359 C 9.055191,4.7061901 8.932419,4.6515706 8.715276,4.6515706 c -0.374733,0 -0.6071445,0.228948 -0.6071445,0.5987347 0,0.368547 0.14781,0.493215 0.886284,0.7463715 1.0176085,0.349002 1.3181275,0.66417 1.3242355,1.393476 0.0061,0.6300883 -0.273338,1.0845606 -0.829174,1.3534926 C 9.2366025,8.8649353 9.150783,8.8804753 8.737875,8.8804753 8.148444,8.8804753 7.8836573,8.7691004 7.553209,8.3909294 7.3311805,8.1365826 7.105792,7.6591431 6.3841195,5.9163173 6.084823,5.1941543 5.7006243,4.8401926 5.0598858,4.7008906 4.7352393,4.6304956 4.2832398,4.6959406 3.9885258,4.8535381 3.7011393,5.0061848 3.3801588,5.3505233 3.2286769,5.6653943 c -0.12522,0.2555865 -0.13713,0.327273 -0.13713,0.7718205 0,0.4240605 0.0168,0.5245695 0.121545,0.7572375 0.1588094,0.3552028 0.4712399,0.6833683 0.8148194,0.8602243 0.248295,0.1272 0.3255615,0.143025 0.7216725,0.143025 0.3805335,0 0.4782645,-0.01836 0.7051785,-0.128445 C 5.7137455,7.9408116 6.0619075,7.6256496 6.20392,7.3895588 l 0.073905,-0.122535 0.14568,0.3381358 c 0.08124,0.186729 0.146595,0.3623475 0.146595,0.393948 0,0.09342 -0.3292275,0.3986603 -0.6309675,0.5888138 C 5.4810273,8.8752088 4.9548138,8.9828113 4.3928688,8.9052718 m -0.0012,0"
     style="fill:#ffffff;stroke-width:0.496094"
     inkscape:connector-curvature="0" />
  <path
     id="rect1089"
     style="opacity:0.3;fill:#000000;stroke-width:2.38125;stroke-linecap:round;stroke-linejoin:round"
     d="m 2.6458336,0.79375 c -1.026054,0 -1.8520836,0.8260291 -1.8520836,1.8520833 v 7.4083337 c 0,1.026054 0.8260296,1.852083 1.8520836,1.852083 h 7.4083334 c 1.026054,0 1.852083,-0.826029 1.852083,-1.852083 V 2.6458333 c 0,-1.0260542 -0.826029,-1.8520833 -1.852083,-1.8520833 z m 0,0.2645833 h 7.4083334 c 0.879475,0 1.5875,0.708025 1.5875,1.5875 v 7.4083337 c 0,0.879475 -0.708025,1.5875 -1.5875,1.5875 H 2.6458336 c -0.879475,0 -1.5875003,-0.708025 -1.5875003,-1.5875 V 2.6458333 c 0,-0.879475 0.7080253,-1.5875 1.5875003,-1.5875 z" />
</svg>
