<?xml version="1.0" encoding="UTF-8" standalone="no"?>
<!-- Created with Inkscape (http://www.inkscape.org/) -->

<svg
   width="48"
   height="48"
   viewBox="0 0 12.7 12.7"
   version="1.1"
   id="svg5"
   inkscape:version="1.1.1 (3bf5ae0d25, 2021-09-20, custom)"
   sodipodi:docname="ms-exchange.svg"
   xmlns:inkscape="http://www.inkscape.org/namespaces/inkscape"
   xmlns:sodipodi="http://sodipodi.sourceforge.net/DTD/sodipodi-0.dtd"
   xmlns="http://www.w3.org/2000/svg"
   xmlns:svg="http://www.w3.org/2000/svg">
  <sodipodi:namedview
     id="namedview7"
     pagecolor="#ffffff"
     bordercolor="#666666"
     borderopacity="1.0"
     inkscape:pageshadow="2"
     inkscape:pageopacity="0.0"
     inkscape:pagecheckerboard="0"
     inkscape:document-units="px"
     showgrid="false"
     units="px"
     height="48px"
     inkscape:zoom="7.9999996"
     inkscape:cx="26.625001"
     inkscape:cy="24.687501"
     inkscape:window-width="1920"
     inkscape:window-height="1011"
     inkscape:window-x="0"
     inkscape:window-y="0"
     inkscape:window-maximized="1"
     inkscape:current-layer="svg5"
     inkscape:lockguides="true" />
  <defs
     id="defs2" />
  <rect
     style="opacity:1;fill:#ffffff;stroke-width:2.38125;stroke-linecap:round;stroke-linejoin:round"
     id="rect1042"
     width="11.1125"
     height="11.1125"
     x="0.79374999"
     y="0.79374999"
     ry="1.5875" />
  <path
     style="fill:#50d9ff;stroke-width:0.051313"
     inkscape:connector-curvature="0"
     id="path8"
     d="M 6.1139596,2.8716112 C 6.0831718,2.8305608 6.0267275,2.7689849 5.9394953,2.7228029 5.8471314,2.6714897 5.7650306,2.6560959 5.713717,2.6509646 c -0.6722015,0 -1.3392725,0 -2.0114743,0 -0.087233,0 -0.2360407,0.015394 -0.3489295,0.1231517 C 3.2352934,2.8870048 3.209637,3.0460758 3.209637,3.1333081 c 0,0.2668284 0,0.5285254 0,0.7953534 h 2.9197175 c 0.287353,0 0.523394,0.2360408 0.523394,0.523394 V 5.9709246 C 6.7912937,5.8067221 6.8733939,5.5963385 6.8733939,5.370561 V 3.6823586 C 6.6219598,3.4155304 6.3653946,3.1435708 6.1139596,2.8716112 Z"
     class="st2" />
  <path
     style="fill:#0078d4;stroke-width:0.051313;enable-background:new"
     inkscape:connector-curvature="0"
     id="path10"
     d="M 5.9651517,8.4698746 H 2.5887476 c -0.2616971,0 -0.472081,-0.2103833 -0.472081,-0.4720809 V 4.6213889 c 0,-0.2616968 0.2103839,-0.4720806 0.472081,-0.4720806 h 3.3712729 c 0.2616966,0 0.4720802,0.2103838 0.4720802,0.4720806 v 3.371273 C 6.43721,8.2594913 6.2268484,8.4698746 5.9651517,8.4698746 Z"
     class="st3" />
  <path
     class="st4"
     d="M 5.0261216,7.6437318 H 3.5277778 V 4.9805808 H 4.9645457 V 5.355167 H 3.9690709 V 6.10947 H 4.8824446 V 6.4840561 H 3.9690709 v 0.7902221 h 1.0519193 v 0.3694536 z"
     id="path12"
     inkscape:connector-curvature="0"
     style="fill:#ffffff;stroke-width:0.051313" />
  <path
     style="fill:#28a8ea;stroke-width:0.051313"
     inkscape:connector-curvature="0"
     id="path16"
     d="m 10.059939,2.6458334 c -0.584969,0 -1.1699389,0 -1.754909,0 -0.2514342,0 -0.4926064,0.1026251 -0.6722019,0.2770908 C 7.2531119,3.3026414 6.8682626,3.6874899 6.4885458,4.067207 6.5911709,4.164702 6.6527477,4.2981164 6.6527477,4.4469242 V 8.156864 c 0,0.287354 -0.2360409,0.5233946 -0.523394,0.5233946 H 3.2096364 v 0.8107478 c 0,0.2873534 0.2360403,0.5233936 0.5233939,0.5233936 h 1.7549091 c 0.2514347,0 0.4926062,-0.1026314 0.672202,-0.2770905 C 7.5609906,8.3364607 8.9618385,6.9356111 10.362687,5.5347627 10.506369,5.3910854 10.583333,5.1960964 10.583333,4.9959747 V 3.1692272 c 0,-0.2924848 -0.23604,-0.5233938 -0.523394,-0.5233938 z"
     class="st5" />
  <path
     style="fill:#0078d4;stroke-width:0.051313;enable-background:new"
     inkscape:connector-curvature="0"
     id="path18"
     d="m 9.526282,6.3249848 c 0,-0.00511 0,-0.010261 0,-0.015394 H 7.8124236 c -0.5182616,0 -0.9390297,0.4207672 -0.9390297,0.9390299 V 8.931695 c 0.2514348,0.2719587 0.5080001,0.5387882 0.7594342,0.8107469 0.030787,0.041061 0.087233,0.1026315 0.1744645,0.1488144 0.092365,0.051318 0.174464,0.066712 0.2257769,0.071849 0.6722031,0 1.3392735,0 2.0114755,0 0.08723,0 0.23604,-0.015478 0.34893,-0.1231553 0.118031,-0.1128935 0.143684,-0.2719614 0.143684,-0.3591925 0,-0.6927268 0,-1.3905871 0,-2.0833149 C 10.198485,7.0382428 9.859817,6.6790511 9.526282,6.3249903 Z"
     class="st3" />
  <path
     id="rect855"
     style="opacity:0.3;fill:#000000;stroke-width:2.38125;stroke-linecap:round;stroke-linejoin:round"
     d="m 2.6458333,0.79374998 c -1.0260542,0 -1.85208332,0.82602912 -1.85208332,1.85208332 v 7.4083337 c 0,1.026054 0.82602912,1.852083 1.85208332,1.852083 h 7.4083337 c 1.026054,0 1.852083,-0.826029 1.852083,-1.852083 V 2.6458333 c 0,-1.0260542 -0.826029,-1.85208332 -1.852083,-1.85208332 z m 0,0.27285152 h 7.4083337 c 0.879475,0 1.5875,0.708025 1.5875,1.5875 v 7.4083335 c 0,0.879475 -0.708025,1.5875 -1.5875,1.5875 H 2.6458333 c -0.879475,0 -1.5875,-0.708025 -1.5875,-1.5875 V 2.6541015 c 0,-0.879475 0.708025,-1.5875 1.5875,-1.5875 z" />
</svg>
