<?xml version="1.0" encoding="UTF-8" standalone="no"?>
<!-- Created with Inkscape (http://www.inkscape.org/) -->

<svg
   width="48"
   height="48"
   viewBox="0 0 12.7 12.7"
   version="1.1"
   id="svg5"
   inkscape:version="1.1.1 (3bf5ae0d25, 2021-09-20, custom)"
   sodipodi:docname="nextcloud.svg"
   xmlns:inkscape="http://www.inkscape.org/namespaces/inkscape"
   xmlns:sodipodi="http://sodipodi.sourceforge.net/DTD/sodipodi-0.dtd"
   xmlns="http://www.w3.org/2000/svg"
   xmlns:svg="http://www.w3.org/2000/svg">
  <sodipodi:namedview
     id="namedview7"
     pagecolor="#ffffff"
     bordercolor="#666666"
     borderopacity="1.0"
     inkscape:pageshadow="2"
     inkscape:pageopacity="0.0"
     inkscape:pagecheckerboard="0"
     inkscape:document-units="px"
     showgrid="false"
     units="px"
     height="48px"
     inkscape:zoom="5.656854"
     inkscape:cx="51.442021"
     inkscape:cy="21.301593"
     inkscape:window-width="1920"
     inkscape:window-height="1011"
     inkscape:window-x="0"
     inkscape:window-y="0"
     inkscape:window-maximized="1"
     inkscape:current-layer="svg5"
     inkscape:lockguides="true" />
  <defs
     id="defs2" />
  <rect
     style="fill:#177ab3;fill-opacity:1;stroke-width:2.38125;stroke-linecap:round;stroke-linejoin:round"
     id="rect943"
     width="11.1125"
     height="11.1125"
     x="0.79374999"
     y="0.79374999"
     ry="1.8520833" />
  <path
     id="rect1089"
     style="opacity:0.3;fill:#000000;stroke-width:9;stroke-linecap:round;stroke-linejoin:round"
     d="M 10 3 C 6.122 3 3 6.122 3 10 L 3 38 C 3 41.878 6.122 45 10 45 L 38 45 C 41.878 45 45 41.878 45 38 L 45 10 C 45 6.122 41.878 3 38 3 L 10 3 z M 10 4 L 38 4 C 41.324 4 44 6.676 44 10 L 44 38 C 44 41.324 41.324 44 38 44 L 10 44 C 6.676 44 4 41.324 4 38 L 4 10 C 4 6.676 6.676 4 10 4 z "
     transform="scale(0.26458333)" />
  <path
     id="path8"
     d="m 6.3500003,4.7625 a 1.5874999,1.5874999 0 0 0 -1.5875,1.5874998 1.5874999,1.5874999 0 0 0 1.5875,1.5874999 A 1.5874999,1.5874999 0 0 0 7.9375013,6.3499998 1.5874999,1.5874999 0 0 0 6.3500003,4.7625 Z m 0,0.79375 a 0.79374995,0.79374995 0 0 1 0.79375,0.7937498 0.79374995,0.79374995 0 0 1 -0.79375,0.7937504 A 0.79374995,0.79374995 0 0 1 5.5562493,6.3499998 0.79374995,0.79374995 0 0 1 6.3500003,5.55625 Z"
     style="fill:#ffffff;stroke-width:0.396875" />
  <path
     id="path12"
     d="M 3.5718749,5.159375 A 1.190625,1.190625 0 0 0 2.38125,6.3499998 1.190625,1.190625 0 0 0 3.5718749,7.5406245 1.190625,1.190625 0 0 0 4.7625003,6.3499998 1.190625,1.190625 0 0 0 3.5718749,5.159375 Z m 0,0.7937502 A 0.39687499,0.39687499 0 0 1 3.9687498,6.3499998 0.39687499,0.39687499 0 0 1 3.5718749,6.7468749 0.39687499,0.39687499 0 0 1 3.175,6.3499998 0.39687499,0.39687499 0 0 1 3.5718749,5.9531252 Z"
     style="fill:#ffffff;stroke-width:0.396875" />
  <path
     id="path16"
     d="M 9.1281253,5.159375 A 1.190625,1.190625 0 0 0 7.9375013,6.3499998 1.190625,1.190625 0 0 0 9.1281253,7.5406245 1.190625,1.190625 0 0 0 10.31875,6.3499998 1.190625,1.190625 0 0 0 9.1281253,5.159375 Z m 0,0.7937502 a 0.39687499,0.39687499 0 0 1 0.396876,0.3968746 0.39687499,0.39687499 0 0 1 -0.396876,0.3968751 0.39687499,0.39687499 0 0 1 -0.396875,-0.3968751 0.39687499,0.39687499 0 0 1 0.396875,-0.3968746 z"
     style="fill:#ffffff;stroke-width:0.396875" />
</svg>
