<?xml version="1.0" encoding="UTF-8" standalone="no"?>
<!-- Created with Inkscape (http://www.inkscape.org/) -->

<svg
   width="48"
   height="48"
   viewBox="0 0 12.7 12.7"
   version="1.1"
   id="svg5"
   inkscape:version="1.1.1 (3bf5ae0d25, 2021-09-20, custom)"
   sodipodi:docname="preferences-system-network-ethernet.svg"
   xmlns:inkscape="http://www.inkscape.org/namespaces/inkscape"
   xmlns:sodipodi="http://sodipodi.sourceforge.net/DTD/sodipodi-0.dtd"
   xmlns="http://www.w3.org/2000/svg"
   xmlns:svg="http://www.w3.org/2000/svg">
  <sodipodi:namedview
     id="namedview7"
     pagecolor="#ffffff"
     bordercolor="#666666"
     borderopacity="1.0"
     inkscape:pageshadow="2"
     inkscape:pageopacity="0.0"
     inkscape:pagecheckerboard="0"
     inkscape:document-units="px"
     showgrid="false"
     units="px"
     height="48px"
     inkscape:zoom="7.9999995"
     inkscape:cx="28.250002"
     inkscape:cy="36.750002"
     inkscape:window-width="1368"
     inkscape:window-height="846"
     inkscape:window-x="683"
     inkscape:window-y="95"
     inkscape:window-maximized="0"
     inkscape:current-layer="svg5"
     inkscape:lockguides="true" />
  <defs
     id="defs2" />
  <rect
     style="opacity:1;fill:#2881dc;fill-opacity:1;stroke-width:3.12539;stroke-linecap:round;stroke-linejoin:round"
     id="rect849"
     width="11.1125"
     height="11.1125"
     x="0.79374999"
     y="0.79374999"
     ry="1.8520833" />
  <path
     id="rect929"
     style="fill:#ffffff;stroke-width:9;stroke-linecap:round;stroke-linejoin:round"
     d="M 12 12 C 10.892 12 10 12.892 10 14 L 10 30 C 10 31.108 10.892 32 12 32 L 17 32 L 17 34 C 17 35.108 17.892 36 19 36 L 29 36 C 30.108 36 31 35.253024 31 34 L 31 32 L 36 32 C 37.108002 32 38 31.108 38 30 L 38 14 C 38 12.892 37.108002 12 36 12 L 12 12 z M 12 14 L 36 14 L 36 30 L 29 30 L 29 34 L 19 34 L 19 30 L 12 30 L 12 14 z "
     transform="scale(0.26458333)" />
</svg>
