<?xml version="1.0" encoding="UTF-8" standalone="no"?>
<!-- Created with Inkscape (http://www.inkscape.org/) -->

<svg
   width="48"
   height="48"
   viewBox="0 0 12.7 12.7"
   version="1.1"
   id="svg5"
   inkscape:version="1.1.1 (3bf5ae0d25, 2021-09-20, custom)"
   sodipodi:docname="preferences-desktop-user-password.svg"
   xmlns:inkscape="http://www.inkscape.org/namespaces/inkscape"
   xmlns:sodipodi="http://sodipodi.sourceforge.net/DTD/sodipodi-0.dtd"
   xmlns="http://www.w3.org/2000/svg"
   xmlns:svg="http://www.w3.org/2000/svg">
  <sodipodi:namedview
     id="namedview7"
     pagecolor="#ffffff"
     bordercolor="#666666"
     borderopacity="1.0"
     inkscape:pageshadow="2"
     inkscape:pageopacity="0.0"
     inkscape:pagecheckerboard="0"
     inkscape:document-units="px"
     showgrid="false"
     units="px"
     height="48px"
     inkscape:zoom="8.7173009"
     inkscape:cx="16.060017"
     inkscape:cy="37.454254"
     inkscape:window-width="1920"
     inkscape:window-height="1011"
     inkscape:window-x="0"
     inkscape:window-y="0"
     inkscape:window-maximized="1"
     inkscape:current-layer="svg5"
     inkscape:lockguides="true" />
  <defs
     id="defs2" />
  <rect
     style="opacity:1;fill:#2e8ee9;fill-opacity:1;stroke-width:2.38125;stroke-linecap:round;stroke-linejoin:round"
     id="rect16798"
     width="11.1125"
     height="11.1125"
     x="0.79374999"
     y="0.79374999"
     ry="1.8520833" />
  <path
     id="rect2238"
     style="opacity:0.5;fill:#ffffff;fill-opacity:1;stroke-width:2.14915;stroke-linecap:round;stroke-linejoin:round"
     d="M 7.1822665,5.5177328 7.85768,6.1931462 3.4674929,10.583334 H 2.1166666 Z"
     sodipodi:nodetypes="ccccc" />
  <path
     id="path849"
     style="fill:#ffffff;fill-opacity:1;stroke-width:2.68643;stroke-linecap:round;stroke-linejoin:round"
     d="m 9.8839198,2.8160799 a 2.3879466,2.3879466 0 0 0 -3.3770663,0 A 2.3879466,2.3879466 0 0 0 5.9735804,5.375593 L 5.6625869,5.6865865 V 6.3619999 H 4.9871737 L 4.4806136,6.8685598 V 7.5439732 H 3.8052004 l -0.50656,0.5065603 v 0.675413 H 2.6232271 l -0.50656,0.50656 V 10.583334 L 6.5068535,6.1931465 a 2.3879466,2.3879466 0 0 0 3.3770663,0 2.3879466,2.3879466 0 0 0 0,-3.3770666 z m -0.675414,0.6754134 a 0.71638399,0.71638399 0 0 1 0,1.0131199 0.71638399,0.71638399 0 0 1 -1.013119,0 0.71638399,0.71638399 0 0 1 0,-1.0131199 0.71638399,0.71638399 0 0 1 1.013119,0 z" />
</svg>
