<?xml version="1.0" encoding="UTF-8" standalone="no"?>
<!-- Created with Inkscape (http://www.inkscape.org/) -->

<svg
   width="48"
   height="48"
   viewBox="0 0 12.7 12.7"
   version="1.1"
   id="svg5"
   inkscape:version="1.1.2 (0a00cf5339, 2022-02-04, custom)"
   sodipodi:docname="preferences-system-notifications.svg"
   xmlns:inkscape="http://www.inkscape.org/namespaces/inkscape"
   xmlns:sodipodi="http://sodipodi.sourceforge.net/DTD/sodipodi-0.dtd"
   xmlns="http://www.w3.org/2000/svg"
   xmlns:svg="http://www.w3.org/2000/svg">
  <sodipodi:namedview
     id="namedview7"
     pagecolor="#ffffff"
     bordercolor="#666666"
     borderopacity="1.0"
     inkscape:pageshadow="2"
     inkscape:pageopacity="0.0"
     inkscape:pagecheckerboard="0"
     inkscape:document-units="px"
     showgrid="false"
     units="px"
     height="48px"
     inkscape:zoom="11.313708"
     inkscape:cx="18.605748"
     inkscape:cy="23.378719"
     inkscape:window-width="1920"
     inkscape:window-height="1011"
     inkscape:window-x="0"
     inkscape:window-y="32"
     inkscape:window-maximized="1"
     inkscape:current-layer="svg5"
     inkscape:lockguides="true" />
  <defs
     id="defs2" />
  <rect
     style="opacity:1;fill:#f05757;fill-opacity:1;stroke-width:3.12539;stroke-linecap:round;stroke-linejoin:round"
     id="rect849"
     width="11.1125"
     height="11.1125"
     x="0.79374999"
     y="0.79374999"
     ry="1.8520833" />
  <path
     id="rect1054"
     style="opacity:1;fill:#ffffff;fill-opacity:1;stroke-width:2;stroke-linejoin:round"
     d="M 35 9 A 3.9999998 3.9999998 0 0 0 31 13 A 3.9999998 3.9999998 0 0 0 35 17 A 3.9999998 3.9999998 0 0 0 39 13 A 3.9999998 3.9999998 0 0 0 35 9 z M 13 10 C 11.338 10 10 11.338 10 13 L 10 35 C 10 36.662 11.338 38 13 38 L 35 38 C 36.662 38 38 36.662 38 35 L 38 16.994141 A 4.9999997 4.9999997 0 0 1 37 17.578125 L 37 35 C 37 36.108 36.108 37 35 37 L 13 37 C 11.892 37 11 36.108 11 35 L 11 13 C 11 11.892 11.892 11 13 11 L 30.421875 11 A 4.9999997 4.9999997 0 0 1 31.005859 10 L 13 10 z "
     transform="scale(0.26458333)" />
</svg>
