<?xml version="1.0" encoding="UTF-8" standalone="no"?>
<!-- Created with Inkscape (http://www.inkscape.org/) -->

<svg
   width="48"
   height="48"
   viewBox="0 0 12.7 12.7"
   version="1.1"
   id="svg5"
   inkscape:version="1.1.1 (3bf5ae0d25, 2021-09-20, custom)"
   sodipodi:docname="twitter.svg"
   xmlns:inkscape="http://www.inkscape.org/namespaces/inkscape"
   xmlns:sodipodi="http://sodipodi.sourceforge.net/DTD/sodipodi-0.dtd"
   xmlns="http://www.w3.org/2000/svg"
   xmlns:svg="http://www.w3.org/2000/svg">
  <sodipodi:namedview
     id="namedview7"
     pagecolor="#ffffff"
     bordercolor="#666666"
     borderopacity="1.0"
     inkscape:pageshadow="2"
     inkscape:pageopacity="0.0"
     inkscape:pagecheckerboard="0"
     inkscape:document-units="px"
     showgrid="false"
     units="px"
     height="48px"
     inkscape:zoom="5.656854"
     inkscape:cx="51.442021"
     inkscape:cy="49.585865"
     inkscape:window-width="1920"
     inkscape:window-height="1011"
     inkscape:window-x="0"
     inkscape:window-y="0"
     inkscape:window-maximized="1"
     inkscape:current-layer="svg5"
     inkscape:lockguides="true" />
  <defs
     id="defs2" />
  <rect
     style="fill:#1da1f2;fill-opacity:1;stroke-width:2.38125;stroke-linecap:round;stroke-linejoin:round"
     id="rect943"
     width="11.1125"
     height="11.1125"
     x="0.79374999"
     y="0.79374999"
     ry="1.8520833" />
  <path
     id="rect1089"
     style="opacity:0.3;fill:#000000;stroke-width:9;stroke-linecap:round;stroke-linejoin:round"
     d="M 10 3 C 6.122 3 3 6.122 3 10 L 3 38 C 3 41.878 6.122 45 10 45 L 38 45 C 41.878 45 45 41.878 45 38 L 45 10 C 45 6.122 41.878 3 38 3 L 10 3 z M 10 4 L 38 4 C 41.324 4 44 6.676 44 10 L 44 38 C 44 41.324 41.324 44 38 44 L 10 44 C 6.676 44 4 41.324 4 38 L 4 10 C 4 6.676 6.676 4 10 4 z "
     transform="scale(0.26458333)" />
  <path
     d="m 7.3519559,2.9892359 c -0.716836,0.267875 -1.169011,0.953638 -1.11865,1.707977 l 0.01821,0.290377 -0.287163,-0.03536 c -1.042568,-0.13608 -1.954417,-0.597898 -2.7291144,-1.374738 l -0.3782408,-0.385742 -0.097507,0.286092 c -0.2068002,0.633258 -0.075006,1.30402 0.3546677,1.754052 0.2293017,0.248588 0.1778696,0.283948 -0.2185868,0.13608 -0.1371525,-0.04715 -0.2582324,-0.08251 -0.2700189,-0.06429 -0.039646,0.04179 0.098578,0.580755 0.2068001,0.795056 0.1489391,0.296806 0.4532462,0.587184 0.7854123,0.758624 l 0.2818056,0.136081 -0.3321662,0.0065 c -0.3214513,0 -0.3321662,0.0065 -0.3000212,0.130723 0.1146509,0.385742 0.5678967,0.795056 1.0725754,0.972927 l 0.355739,0.124291 -0.309664,0.189656 a 3.171651,3.171651 0 0 1 -1.5354652,0.439316 c -0.2582324,0.0054 -0.4693187,0.02893 -0.4693187,0.04607 0,0.05893 0.6986205,0.390027 1.1057919,0.520751 1.221514,0.385741 2.67233,0.219659 3.763121,-0.438244 0.773626,-0.468248 1.548324,-1.398314 1.909421,-2.299449 0.195013,-0.481106 0.390027,-1.357596 0.390027,-1.781911 0,-0.272162 0.01714,-0.308593 0.338595,-0.63433 0.1896553,-0.189656 0.3675253,-0.396456 0.4018133,-0.45646 0.05786,-0.11358 0.05144,-0.11358 -0.241088,-0.01071 -0.4875353,0.177869 -0.5571823,0.155367 -0.3150223,-0.112508 0.17787,-0.189656 0.3900273,-0.532538 0.3900273,-0.633259 0,-0.01715 -0.08572,0.0096 -0.1832263,0.06429 a 3.0859306,3.0859306 0 0 1 -0.504679,0.200371 l -0.310736,0.100695 -0.280734,-0.195013 c -0.154296,-0.107151 -0.372883,-0.225016 -0.487534,-0.261447 a 1.9233492,1.9233492 0 0 0 -1.002928,0.02357"
     fill="#ffffff"
     id="path6"
     style="stroke-width:1.0715" />
</svg>
