<?xml version="1.0" encoding="UTF-8" standalone="no"?>
<!-- Created with Inkscape (http://www.inkscape.org/) -->

<svg
   width="32"
   height="32"
   viewBox="0 0 8.4666665 8.4666669"
   version="1.1"
   id="svg9855"
   inkscape:version="1.1.1 (3bf5ae0d25, 2021-09-20, custom)"
   sodipodi:docname="folder.svg"
   xmlns:inkscape="http://www.inkscape.org/namespaces/inkscape"
   xmlns:sodipodi="http://sodipodi.sourceforge.net/DTD/sodipodi-0.dtd"
   xmlns:xlink="http://www.w3.org/1999/xlink"
   xmlns="http://www.w3.org/2000/svg"
   xmlns:svg="http://www.w3.org/2000/svg">
  <sodipodi:namedview
     id="namedview9857"
     pagecolor="#ffffff"
     bordercolor="#666666"
     borderopacity="1.0"
     inkscape:pageshadow="2"
     inkscape:pageopacity="0.0"
     inkscape:pagecheckerboard="0"
     inkscape:document-units="px"
     showgrid="false"
     units="px"
     inkscape:zoom="6.2421875"
     inkscape:cx="-2.563204"
     inkscape:cy="45.416771"
     inkscape:window-width="1920"
     inkscape:window-height="1019"
     inkscape:window-x="0"
     inkscape:window-y="0"
     inkscape:window-maximized="1"
     inkscape:current-layer="svg9855" />
  <defs
     id="defs9852">
    <linearGradient
       inkscape:collect="always"
       xlink:href="#linearGradient21515"
       id="linearGradient8637"
       x1="-2.3812497"
       y1="4.4979167"
       x2="-2.3812499"
       y2="2.9104166"
       gradientUnits="userSpaceOnUse"
       gradientTransform="translate(8.9958336,-1.0583334)" />
    <linearGradient
       inkscape:collect="always"
       id="linearGradient21515">
      <stop
         style="stop-color:#000000;stop-opacity:1;"
         offset="0"
         id="stop21511" />
      <stop
         style="stop-color:#000000;stop-opacity:0;"
         offset="1"
         id="stop21513" />
    </linearGradient>
    <linearGradient
       inkscape:collect="always"
       xlink:href="#linearGradient14109"
       id="linearGradient4718"
       x1="-2.1138237"
       y1="8.2695208"
       x2="-2.1138239"
       y2="3.5070212"
       gradientUnits="userSpaceOnUse"
       gradientTransform="translate(9.257574,-1.1257712)" />
    <linearGradient
       inkscape:collect="always"
       id="linearGradient14109">
      <stop
         style="stop-color:#74cbf6;stop-opacity:1;"
         offset="0"
         id="stop14105" />
      <stop
         style="stop-color:#96d8f8;stop-opacity:1"
         offset="1"
         id="stop14107" />
    </linearGradient>
    <linearGradient
       inkscape:collect="always"
       xlink:href="#linearGradient21515"
       id="linearGradient6641"
       x1="-3.0000005"
       y1="34.5"
       x2="-3"
       y2="26.5"
       gradientUnits="userSpaceOnUse"
       gradientTransform="matrix(0.26458334,0,0,0.26458334,8.9958336,-1.0583334)" />
    <linearGradient
       inkscape:collect="always"
       xlink:href="#linearGradient24351"
       id="linearGradient7393"
       x1="-37"
       y1="15"
       x2="0.99999994"
       y2="15"
       gradientUnits="userSpaceOnUse"
       gradientTransform="matrix(0.26458334,0,0,0.26458334,8.9958336,-1.0583334)" />
    <linearGradient
       inkscape:collect="always"
       id="linearGradient24351">
      <stop
         style="stop-color:#ffffff;stop-opacity:1"
         offset="0"
         id="stop24347" />
      <stop
         style="stop-color:#fefefe;stop-opacity:0"
         offset="1"
         id="stop24349" />
    </linearGradient>
    <linearGradient
       inkscape:collect="always"
       xlink:href="#linearGradient24351"
       id="linearGradient8964"
       x1="-9.260416"
       y1="3.96875"
       x2="-0.2645832"
       y2="3.96875"
       gradientUnits="userSpaceOnUse"
       gradientTransform="translate(8.9958336,-1.0583334)" />
  </defs>
  <path
     id="rect961"
     style="fill:#46a1cf;stroke-width:0.237602"
     d="M 0.79375045,1.0583334 H 2.6458335 C 2.8641043,1.0591548 2.944234,1.0836964 3.107702,1.206297 l 0.6567248,0.4925437 c 0.1930161,0.156379 0.4689068,0.1532426 0.4689068,0.1532426 h 3.4395835 c 0.2931583,0 0.5291667,0.2360083 0.5291667,0.5291667 v 3.4395832 c 0,0.2931584 -0.2360084,0.5291667 -0.5291667,0.5291667 H 0.79375045 c -0.2931584,0 -0.5291667,-0.2360083 -0.5291667,-0.5291667 V 1.5875001 c 0,-0.2931584 0.2360083,-0.5291667 0.5291667,-0.5291667 z"
     sodipodi:nodetypes="sccccssssssss" />
  <path
     id="rect961-7"
     style="opacity:0.1;fill:url(#linearGradient8637);fill-opacity:1;stroke-width:0.237602"
     d="M 0.79375045,1.0583334 H 2.6458335 C 2.8641043,1.0591548 2.944234,1.0836964 3.107702,1.206297 l 0.6567248,0.4925437 c 0.1930161,0.156379 0.4689068,0.1532426 0.4689068,0.1532426 h 3.4395835 c 0.2931583,0 0.5291666,0.2360083 0.5291666,0.5291667 V 4.7624999 H 0.26458375 V 1.5875001 c 0,-0.2931584 0.2360083,-0.5291667 0.5291667,-0.5291667 z"
     sodipodi:nodetypes="sccccssccss" />
  <path
     id="rect4630"
     style="fill:url(#linearGradient4718);stroke-width:0.251005"
     d="m 0.52916665,2.6458334 c -0.1465792,0 -0.26458332,0.1180041 -0.26458332,0.2645833 0,1.3229167 0,2.6458334 0,3.9687501 0,0.2931583 0.23600832,0.5291667 0.52916672,0.5291667 H 7.6729169 c 0.2931584,0 0.5291667,-0.2360084 0.5291667,-0.5291667 0,-1.3229167 0,-2.6458334 0,-3.9687501 0,-0.1465792 -0.1180042,-0.2645833 -0.2645834,-0.2645833 z"
     sodipodi:nodetypes="sccssccss" />
  <path
     id="rect6274"
     style="opacity:0.3;fill:url(#linearGradient6641);fill-opacity:1;stroke-width:0.264583"
     d="m 0.26458333,6.6145835 v 0.2645833 c 0,0.2931583 0.23600832,0.5291667 0.52916672,0.5291667 H 7.6729169 c 0.2931584,0 0.5291667,-0.2360084 0.5291667,-0.5291667 V 6.6145835 c 0,0.2931583 -0.2360083,0.5291666 -0.5291667,0.5291666 H 0.79375005 c -0.2931584,0 -0.52916672,-0.2360083 -0.52916672,-0.5291666 z" />
  <path
     id="rect7241"
     style="opacity:0.3;fill:url(#linearGradient7393);fill-opacity:1;stroke-width:0.264583"
     d="m 0.52916665,2.6458334 c -0.1465792,0 -0.26458332,0.1180041 -0.26458332,0.2645833 V 3.175 c 0,-0.1465791 0.11800412,-0.2645833 0.26458332,-0.2645833 H 7.9375002 c 0.1465792,0 0.2645834,0.1180042 0.2645834,0.2645833 V 2.9104167 c 0,-0.1465792 -0.1180042,-0.2645833 -0.2645834,-0.2645833 z" />
  <path
     id="rect961-7-5"
     style="opacity:0.3;fill:url(#linearGradient8964);fill-opacity:1;stroke-width:0.237602"
     d="m 0.79375005,1.0583333 c -0.2931584,0 -0.52916672,0.2360083 -0.52916672,0.5291667 v 0.2645833 c 0,-0.2931583 0.23600832,-0.5291666 0.52916672,-0.5291666 H 2.6458334 c 0.2182707,8.202e-4 0.2985194,0.025194 0.4619874,0.1477946 l 0.6568075,0.4924764 c 0.193016,0.1563791 0.4687052,0.153479 0.4687052,0.153479 h 3.4395834 c 0.2931583,0 0.5291667,0.2360083 0.5291667,0.5291667 V 2.38125 c 0,-0.2931583 -0.2360084,-0.5291667 -0.5291667,-0.5291667 H 4.2333335 c 0,0 -0.2756892,0.0029 -0.4687052,-0.1534789 L 3.1078208,1.2061279 C 2.9443528,1.0835273 2.8641041,1.0591547 2.6458334,1.0583333 Z" />
  <rect
     style="opacity:0.2;fill:#1493c4;fill-opacity:1;stroke-width:0.186355"
     id="rect9464"
     width="7.9375"
     height="0.26458335"
     x="0.26458377"
     y="6.3499999"
     ry="0" />
</svg>
