<?xml version="1.0" encoding="UTF-8" standalone="no"?>
<svg
   height="16"
   width="16"
   version="1.1"
   id="svg14"
   sodipodi:docname="battery-good-charging.svg"
   inkscape:version="1.1.1 (3bf5ae0d25, 2021-09-20, custom)"
   xmlns:inkscape="http://www.inkscape.org/namespaces/inkscape"
   xmlns:sodipodi="http://sodipodi.sourceforge.net/DTD/sodipodi-0.dtd"
   xmlns="http://www.w3.org/2000/svg"
   xmlns:svg="http://www.w3.org/2000/svg">
  <defs
     id="defs18" />
  <sodipodi:namedview
     id="namedview16"
     pagecolor="#ffffff"
     bordercolor="#666666"
     borderopacity="1.0"
     inkscape:pageshadow="2"
     inkscape:pageopacity="0.0"
     inkscape:pagecheckerboard="0"
     showgrid="false"
     inkscape:zoom="45.4375"
     inkscape:cx="7.9889959"
     inkscape:cy="8"
     inkscape:window-width="1920"
     inkscape:window-height="1019"
     inkscape:window-x="0"
     inkscape:window-y="0"
     inkscape:window-maximized="1"
     inkscape:current-layer="g12" />
  <g
     fill="#d3dae3"
     id="g12">
    <path
       d="M 5,7 V 8.094 L 5.656,7 Z M 11,9.906 9.156,13 H 11 Z M 5,11 v 2 h 2 v -2 z"
       id="path4" />
    <path
       d="m 6,1 v 1 h 4 V 1 Z M 3.844,3 C 3.563,3.047 3,3.25 3,4 v 10 c 0,1 1,1 1,1 h 8 c 1,0 1,-1 1,-1 V 4 C 13,4 13,3 12,3 H 4 C 4,3 3.938,2.984 3.844,3 Z M 4,4 h 8 V 14 H 4 Z"
       id="path6" />
    <path
       d="m 8,5 v 3 h 3 L 8,13 V 10 H 5 Z"
       id="path8" />
    <path
       d="M 3.844,3 C 3.563,3.047 3,3.25 3,4 v 10 c 0,1 1,1 1,1 h 8 c 1,0 1,-1 1,-1 V 4 C 13,4 13,3 12,3 H 4 C 3.948,3 3.938,2.984 3.844,3 Z M 4,4 h 8 V 14 H 4 Z"
       id="path10" />
  </g>
</svg>
