<?xml version="1.0" encoding="UTF-8" standalone="no"?>
<svg
   width="16"
   height="16"
   version="1.1"
   id="svg4"
   sodipodi:docname="bluetooth-paired-symbolic.svg"
   inkscape:version="1.1.1 (3bf5ae0d25, 2021-09-20, custom)"
   xmlns:inkscape="http://www.inkscape.org/namespaces/inkscape"
   xmlns:sodipodi="http://sodipodi.sourceforge.net/DTD/sodipodi-0.dtd"
   xmlns="http://www.w3.org/2000/svg"
   xmlns:svg="http://www.w3.org/2000/svg">
  <defs
     id="defs8" />
  <sodipodi:namedview
     id="namedview6"
     pagecolor="#ffffff"
     bordercolor="#666666"
     borderopacity="1.0"
     inkscape:pageshadow="2"
     inkscape:pageopacity="0.0"
     inkscape:pagecheckerboard="0"
     showgrid="false"
     inkscape:zoom="16.064582"
     inkscape:cx="2.1787059"
     inkscape:cy="13.476852"
     inkscape:window-width="1920"
     inkscape:window-height="1019"
     inkscape:window-x="0"
     inkscape:window-y="0"
     inkscape:window-maximized="1"
     inkscape:current-layer="svg4" />
  <path
     id="path2"
     d="M 7.4707031 0 C 7.4206888 0.0029067188 7.3707756 0.014760625 7.3222656 0.033203125 C 7.1282256 0.10697613 7 0.29241 7 0.5 L 7 6.828125 L 4.8085938 5.1074219 C 4.5914538 4.9368219 4.2780319 4.9742662 4.1074219 5.1914062 C 3.9368119 5.4085462 3.9742663 5.7219681 4.1914062 5.8925781 L 6.8730469 8 L 4.1914062 10.107422 C 3.9742662 10.278022 3.9368119 10.591494 4.1074219 10.808594 C 4.2780319 11.025794 4.5914538 11.063178 4.8085938 10.892578 L 7 9.171875 L 7 15.5 C 7 15.7076 7.1282256 15.892997 7.3222656 15.966797 C 7.5163056 16.040597 7.7351269 15.987231 7.8730469 15.832031 L 11.873047 11.332031 C 11.964637 11.229031 12.010317 11.092478 11.998047 10.955078 C 11.985777 10.817778 11.917004 10.692522 11.808594 10.607422 L 8.4902344 8 L 11.808594 5.3925781 C 11.917004 5.3073981 11.985777 5.1822419 11.998047 5.0449219 C 12.010317 4.9075919 11.964637 4.7710188 11.873047 4.6679688 L 7.8730469 0.16796875 C 7.7696069 0.05159875 7.6207463 -0.0087201562 7.4707031 0 z M 8 1.8144531 L 10.773438 4.9355469 L 8 7.1132812 L 8 1.8144531 z M 2 6 L 2 10 L 4 8 L 2 6 z M 14 6 L 12 8 L 14 10 L 14 6 z M 8 8.8867188 L 10.773438 11.064453 L 8 14.185547 L 8 8.8867188 z "
     style="fill:#d3dae9;fill-opacity:1" />
</svg>
