<?xml version="1.0" encoding="UTF-8" standalone="no"?>
<!-- Created with Inkscape (http://www.inkscape.org/) -->

<svg
   width="24"
   height="24"
   viewBox="0 0 6.35 6.35"
   version="1.1"
   id="svg5"
   inkscape:version="1.1.1 (3bf5ae0d25, 2021-09-20, custom)"
   sodipodi:docname="preferences-desktop-accessibility.svg"
   xmlns:inkscape="http://www.inkscape.org/namespaces/inkscape"
   xmlns:sodipodi="http://sodipodi.sourceforge.net/DTD/sodipodi-0.dtd"
   xmlns="http://www.w3.org/2000/svg"
   xmlns:svg="http://www.w3.org/2000/svg">
  <sodipodi:namedview
     id="namedview7"
     pagecolor="#ffffff"
     bordercolor="#666666"
     borderopacity="1.0"
     inkscape:pageshadow="2"
     inkscape:pageopacity="0.0"
     inkscape:pagecheckerboard="0"
     inkscape:document-units="px"
     showgrid="false"
     units="px"
     height="48px"
     inkscape:zoom="5.7708333"
     inkscape:cx="5.3718412"
     inkscape:cy="16.288809"
     inkscape:window-width="1368"
     inkscape:window-height="846"
     inkscape:window-x="45"
     inkscape:window-y="29"
     inkscape:window-maximized="0"
     inkscape:current-layer="svg5"
     inkscape:lockguides="true" />
  <defs
     id="defs2" />
  <rect
     style="opacity:1;fill:#489efd;fill-opacity:1;stroke-width:3.12539;stroke-linecap:round;stroke-linejoin:round"
     id="rect849"
     width="5.8208332"
     height="5.8208332"
     x="0.26458332"
     y="0.26458332"
     ry="0.79374999" />
  <path
     id="path1267"
     style="fill:#ffffff;fill-opacity:1;stroke-width:0.881966;stroke-linecap:round;stroke-linejoin:round"
     d="m 3.1946307,1.8520833 c -0.1623662,0 -0.2939901,0.1316239 -0.2939901,0.2939902 0,0.1623663 0.1316239,0.2939903 0.2939901,0.2939903 0.1623663,0 0.2939902,-0.131624 0.2939902,-0.2939903 0,-0.1623663 -0.1316239,-0.2939902 -0.2939902,-0.2939902 z M 2.2487324,2.5371034 c -0.073793,-1.848e-4 -0.1320658,0.071607 -0.1320658,0.1479523 0,0.081435 0.066507,0.1346121 0.1469951,0.1469951 l 0.6369789,0.097997 V 3.4630963 L 2.4305624,4.2773109 c -0.040718,0.070526 -0.016742,0.1600615 0.053783,0.2007788 0.070525,0.040717 0.1600609,0.016741 0.2007785,-0.053783 L 3.1948221,3.5415701 3.70452,4.4243063 c 0.040718,0.070525 0.1302538,0.094501 0.2007785,0.053783 0.070525,-0.040717 0.094501,-0.1302533 0.053783,-0.2007788 L 3.4886209,3.4623307 V 2.9300474 l 0.6369789,-0.097997 c 0.080488,-0.012383 0.1469951,-0.06556 0.1469951,-0.1469951 0,-0.081435 -0.066274,-0.157758 -0.1469951,-0.1469952 L 3.3906242,2.6360572 H 2.9986372 L 2.2636617,2.5380605 c -0.00504,-6.759e-4 -0.010009,-9.398e-4 -0.014929,-9.584e-4 z"
     sodipodi:nodetypes="ssssscsccccscccsccccssccccc" />
  <path
     id="path1121"
     style="fill:#f9f9f9;stroke-width:2.38125;stroke-linecap:round;stroke-linejoin:round"
     d="M 3.175,1.0583333 A 2.1166665,2.1166665 0 0 0 1.0583333,3.1749999 2.1166665,2.1166665 0 0 0 3.175,5.2916666 2.1166665,2.1166665 0 0 0 5.2916666,3.1749999 2.1166665,2.1166665 0 0 0 3.175,1.0583333 Z m 0,0.2645833 A 1.8520833,1.8520833 0 0 1 5.0270833,3.1749999 1.8520833,1.8520833 0 0 1 3.175,5.0270832 1.8520833,1.8520833 0 0 1 1.3229167,3.1749999 1.8520833,1.8520833 0 0 1 3.175,1.3229166 Z" />
</svg>
