<?xml version="1.0" encoding="UTF-8" standalone="no"?>
<!-- Created with Inkscape (http://www.inkscape.org/) -->

<svg
   width="24"
   height="24"
   viewBox="0 0 6.35 6.35"
   version="1.1"
   id="svg5"
   inkscape:version="1.1.1 (3bf5ae0d25, 2021-09-20, custom)"
   sodipodi:docname="preferences-desktop-font.svg"
   xmlns:inkscape="http://www.inkscape.org/namespaces/inkscape"
   xmlns:sodipodi="http://sodipodi.sourceforge.net/DTD/sodipodi-0.dtd"
   xmlns="http://www.w3.org/2000/svg"
   xmlns:svg="http://www.w3.org/2000/svg">
  <sodipodi:namedview
     id="namedview7"
     pagecolor="#ffffff"
     bordercolor="#666666"
     borderopacity="1.0"
     inkscape:pageshadow="2"
     inkscape:pageopacity="0.0"
     inkscape:pagecheckerboard="0"
     inkscape:document-units="px"
     showgrid="false"
     units="px"
     height="48px"
     inkscape:zoom="7.6805556"
     inkscape:cx="-10.936709"
     inkscape:cy="27.927667"
     inkscape:window-width="1920"
     inkscape:window-height="1019"
     inkscape:window-x="0"
     inkscape:window-y="0"
     inkscape:window-maximized="1"
     inkscape:current-layer="svg5"
     inkscape:lockguides="true" />
  <defs
     id="defs2" />
  <rect
     style="opacity:1;fill:#818f9b;fill-opacity:1;stroke-width:3.12539;stroke-linecap:round;stroke-linejoin:round"
     id="rect849"
     width="5.8208332"
     height="5.8208332"
     x="0.26458332"
     y="0.26458332"
     ry="0.79374999" />
  <path
     id="path15486"
     style="font-size:8.21007px;line-height:1.25;font-family:Pretendard;-inkscape-font-specification:Pretendard;fill:#ffffff;stroke-width:0.108662"
     d="M 1.9184378,1.5875 0.79375,4.6606253 H 1.1926298 L 1.5004075,3.7947442 h 1.2352141 l 0.3077777,0.8658811 h 0.403257 L 2.3216949,1.5875 Z M 2.105293,2.0840479 H 2.130736 L 2.618803,3.4593351 H 1.6172261 Z m 2.5850585,0.2421185 c -0.166955,0 -0.3178149,0.026667 -0.4522279,0.080432 C 4.1051254,2.4589491 3.9984091,2.5325815 3.9177612,2.627378 3.8371135,2.7221745 3.7891481,2.8312122 3.7735846,2.9543062 h 0.3819178 c 0.026883,-0.091967 0.08486,-0.1663729 0.173997,-0.2229677 0.089137,-0.05801 0.2038176,-0.086998 0.3438902,-0.086998 0.1711996,0 0.300488,0.040274 0.3882101,0.1209223 0.089137,0.079233 0.1337805,0.1931399 0.1337805,0.3417016 v 0.1868553 c -0.049521,0.00141 -0.1413558,0.00578 -0.2757686,0.012858 -0.1344129,0.00707 -0.2506412,0.013991 -0.3482674,0.021066 -0.2504327,0.018393 -0.4577224,0.077144 -0.6218476,0.1761856 -0.1627105,0.097626 -0.2440336,0.265415 -0.2440336,0.5031138 0,0.145732 0.034632,0.2721987 0.1039606,0.3797292 0.069329,0.1061155 0.1634852,0.1874385 0.2823347,0.2440334 0.1188492,0.05518 0.2520064,0.083668 0.3991533,0.085083 C 4.6720155,4.7144687 4.8197801,4.6767467 4.934385,4.6031736 5.0504048,4.5281856 5.1317276,4.4427668 5.1784184,4.3465554 h 0.016962 V 4.6606253 H 5.5562333 V 3.1411615 C 5.5576474,2.8228148 5.4691338,2.607561 5.2908598,2.4957859 5.1125858,2.382596 4.9124866,2.3261664 4.6903515,2.3261664 Z m 0.5050287,1.2669493 v 0.2311752 c 0,0.099041 -0.02539,0.1919238 -0.076329,0.278231 -0.049521,0.086307 -0.122379,0.1555706 -0.2185905,0.2079209 -0.096211,0.05235 -0.2101184,0.078518 -0.3417015,0.078518 -0.1471469,0 -0.2654227,-0.031036 -0.3545599,-0.093291 C 4.1164779,4.2334149 4.0721078,4.1428538 4.0706925,4.0240044 4.0721074,3.9023252 4.119299,3.8094428 4.2126806,3.7457734 4.3074771,3.6821041 4.4414081,3.644651 4.6140227,3.6333321 l 0.3012116,-0.021066 c 0.1542222,-0.011318 0.2476052,-0.017735 0.2801459,-0.01915 z" />
</svg>
