<?xml version="1.0" encoding="UTF-8" standalone="no"?>
<!-- Created with Inkscape (http://www.inkscape.org/) -->

<svg
   width="64"
   height="64"
   viewBox="0 0 16.933333 16.933334"
   version="1.1"
   id="svg5"
   inkscape:version="1.1.1 (3bf5ae0d25, 2021-09-20, custom)"
   sodipodi:docname="folder-github.svg"
   xmlns:inkscape="http://www.inkscape.org/namespaces/inkscape"
   xmlns:sodipodi="http://sodipodi.sourceforge.net/DTD/sodipodi-0.dtd"
   xmlns:xlink="http://www.w3.org/1999/xlink"
   xmlns="http://www.w3.org/2000/svg"
   xmlns:svg="http://www.w3.org/2000/svg">
  <sodipodi:namedview
     id="namedview7"
     pagecolor="#ffffff"
     bordercolor="#666666"
     borderopacity="1.0"
     inkscape:pageshadow="2"
     inkscape:pageopacity="0.0"
     inkscape:pagecheckerboard="0"
     inkscape:document-units="px"
     showgrid="false"
     units="px"
     height="64px"
     inkscape:zoom="5.6568542"
     inkscape:cx="-19.975767"
     inkscape:cy="24.837126"
     inkscape:window-width="1920"
     inkscape:window-height="1011"
     inkscape:window-x="0"
     inkscape:window-y="0"
     inkscape:window-maximized="1"
     inkscape:current-layer="svg5" />
  <defs
     id="defs2">
    <linearGradient
       inkscape:collect="always"
       id="linearGradient24351">
      <stop
         style="stop-color:#ffffff;stop-opacity:1"
         offset="0"
         id="stop24347" />
      <stop
         style="stop-color:#fefefe;stop-opacity:0"
         offset="1"
         id="stop24349" />
    </linearGradient>
    <linearGradient
       inkscape:collect="always"
       id="linearGradient21515">
      <stop
         style="stop-color:#000000;stop-opacity:1;"
         offset="0"
         id="stop21511" />
      <stop
         style="stop-color:#000000;stop-opacity:0;"
         offset="1"
         id="stop21513" />
    </linearGradient>
    <linearGradient
       inkscape:collect="always"
       id="linearGradient14109">
      <stop
         style="stop-color:#74cbf6;stop-opacity:1;"
         offset="0"
         id="stop14105" />
      <stop
         style="stop-color:#96d8f8;stop-opacity:1"
         offset="1"
         id="stop14107" />
    </linearGradient>
    <linearGradient
       inkscape:collect="always"
       xlink:href="#linearGradient14109"
       id="linearGradient14111"
       x1="15.345834"
       y1="14.419792"
       x2="15.345834"
       y2="4.3656259"
       gradientUnits="userSpaceOnUse"
       gradientTransform="translate(0,-0.26458335)" />
    <linearGradient
       inkscape:collect="always"
       xlink:href="#linearGradient21515"
       id="linearGradient21517"
       x1="6.3499994"
       y1="7.1437492"
       x2="6.3500004"
       y2="3.7041669"
       gradientUnits="userSpaceOnUse"
       gradientTransform="translate(-1.0583333,-0.79375002)" />
    <linearGradient
       inkscape:collect="always"
       xlink:href="#linearGradient24351"
       id="linearGradient24353"
       x1="2"
       y1="2.1083987"
       x2="62.024742"
       y2="20.108398"
       gradientUnits="userSpaceOnUse"
       gradientTransform="scale(0.26458334)" />
    <linearGradient
       inkscape:collect="always"
       xlink:href="#linearGradient21515"
       id="linearGradient25326"
       x1="16.404167"
       y1="17.065626"
       x2="16.404167"
       y2="12.303126"
       gradientUnits="userSpaceOnUse" />
    <linearGradient
       inkscape:collect="always"
       xlink:href="#linearGradient16216"
       id="linearGradient16218"
       x1="1.5875"
       y1="9.6572924"
       x2="17.4625"
       y2="9.6572924"
       gradientUnits="userSpaceOnUse"
       gradientTransform="translate(-1.0583326,-0.26458335)" />
    <linearGradient
       inkscape:collect="always"
       id="linearGradient16216">
      <stop
         style="stop-color:#088fd3;stop-opacity:0.5"
         offset="0"
         id="stop16212" />
      <stop
         style="stop-color:#088fd3;stop-opacity:0"
         offset="0.1"
         id="stop16348" />
      <stop
         style="stop-color:#088fd3;stop-opacity:0"
         offset="0.89999998"
         id="stop16606" />
      <stop
         style="stop-color:#0891d3;stop-opacity:0.5"
         offset="1"
         id="stop16214" />
    </linearGradient>
  </defs>
  <path
     id="rect846"
     style="fill:#46a1cf;fill-opacity:1;stroke-width:0.744501"
     d="m 1.5875002,1.8520834 h 4.2333331 c 0,0 0.4980811,0.00411 0.7378639,0.2366914 l 1.1701054,1.1141171 c 0.2025103,0.1888915 0.6651469,0.2358003 1.0024477,0.2366917 l 6.6145827,-2e-7 c 0.586316,0 1.058333,0.4765444 1.058333,1.0583336 V 8.7312486 H 0.52916663 V 2.910417 c 0,-0.5863168 0.47201677,-1.0583336 1.05833357,-1.0583336 z"
     sodipodi:nodetypes="sccccssccss" />
  <path
     id="rect846-7"
     style="opacity:0.1;fill:url(#linearGradient21517);fill-opacity:1;stroke-width:0.744501"
     d="m 1.5875002,1.8520834 h 4.2333333 c 0,0 0.498081,0.0041 0.737863,0.236692 l 1.170106,1.114117 c 0.20251,0.188891 0.665146,0.2358 1.002447,0.236691 h 6.6145845 c 0.586316,0 1.058333,0.4749268 1.058333,1.058333 V 9.7895817 H 0.52916623 V 2.9104174 c 0,-0.586317 0.47201697,-1.058334 1.05833397,-1.058334 z"
     sodipodi:nodetypes="sccccssccss" />
  <path
     id="rect5146"
     style="fill:url(#linearGradient14111);fill-opacity:1;stroke-width:0.224129"
     d="m 1.0583334,5.2916668 c -0.29315834,0 -0.52916674,0.2360083 -0.52916674,0.5291666 v 8.2020836 c 0,0.586317 0.47201654,1.058334 1.05833344,1.058334 H 15.345833 c 0.586317,0 1.058334,-0.472017 1.058334,-1.058334 V 5.8208334 c 0,-0.2931583 -0.236009,-0.5291666 -0.529167,-0.5291666 z"
     sodipodi:nodetypes="sccssccss" />
  <path
     id="rect846-2"
     style="opacity:0.3;fill:url(#linearGradient24353);fill-opacity:1;stroke-width:0.7445"
     d="m 1.5875,1.8520834 c -0.586317,0 -1.05833332,0.4720165 -1.05833332,1.0583333 v 0.2645834 c 0,-0.5863168 0.47201632,-1.0583334 1.05833332,-1.0583334 h 4.2333335 c 0,0 0.4981564,0.0041 0.7379393,0.2366781 l 1.1699547,1.114144 c 0.20251,0.1888913 0.6652218,0.2357866 1.0025227,0.236678 h 6.6145838 c 0.514859,0 0.997541,0.367597 1.058333,0.8511109 V 4.4979168 C 16.411967,3.9122943 15.93215,3.4395834 15.345834,3.4395834 H 8.7312502 C 8.3939493,3.4386838 7.9312375,3.3917968 7.7287275,3.2029054 L 6.5587728,2.0887614 C 6.3189899,1.85618 5.8208335,1.8520834 5.8208335,1.8520834 Z"
     sodipodi:nodetypes="sscsccccsccsccccs" />
  <rect
     style="opacity:0.2;fill:#1493c4;fill-opacity:1;stroke-width:0.0491318"
     id="rect23488"
     width="15.875"
     height="0.26458335"
     x="0.5291667"
     y="13.493751" />
  <path
     id="rect22163"
     style="opacity:0.3;fill:url(#linearGradient25326);fill-opacity:1;stroke-width:0.262052"
     d="m 0.52916671,13.758335 v 0.264583 c 0,0.586317 0.47201639,1.058333 1.05833339,1.058333 H 15.345834 c 0.586317,0 1.058333,-0.472016 1.058333,-1.058333 v -0.264583 c 0,0.586317 -0.472016,1.058333 -1.058333,1.058333 H 1.5875001 c -0.586317,0 -1.05833339,-0.472016 -1.05833339,-1.058333 z"
     sodipodi:nodetypes="csssscssc" />
  <path
     id="rect6273"
     style="opacity:0.3;fill:#ffffff;fill-opacity:1;stroke-width:0.25971"
     d="m 1.0583334,5.2916668 c -0.29315838,0 -0.52916669,0.2360083 -0.52916669,0.5291667 v 0.2645833 c 0,-0.2931583 0.23600831,-0.5291667 0.52916669,-0.5291667 H 15.875 c 0.293159,0 0.529167,0.2360084 0.529167,0.5291667 V 5.8208335 c 0,-0.2931584 -0.236008,-0.5291667 -0.529167,-0.5291667 z"
     sodipodi:nodetypes="sscsscsss" />
  <path
     id="path4"
     d="m 8.4666584,7.1437501 c -1.4657871,0 -2.645825,1.1800379 -2.645825,2.645825 0,1.4170939 1.1029788,2.5669199 2.5007625,2.6417649 -0.1441396,-0.0081 -0.2851372,-0.02817 -0.4222687,-0.05795 -4.35e-4,-0.23935 -7e-4,-0.462414 -0.0011,-0.537063 -0.6888937,0.153548 -0.7615038,-0.378719 -0.7615038,-0.378719 -0.112665,-0.293675 -0.2749916,-0.371699 -0.2749916,-0.371699 -0.2248677,-0.157601 0.01661,-0.154659 0.01661,-0.154659 0.2485847,0.01794 0.3794512,0.262071 0.3794512,0.262071 0.2209079,0.388395 0.504865,0.314222 0.6459536,0.249153 0.0225,-0.164154 0.1614776,-0.257253 0.2321738,-0.320761 -0.5499079,-0.06414 -1.1811639,-0.320118 -1.1811639,-1.294122 0,-0.2774337 0.092947,-0.5045521 0.2513681,-0.6821266 -0.025541,-0.064274 -0.1108632,-0.3795393 0.023993,-0.7293738 0,0 0.01299,-0.0039 0.039865,-0.00516 0.080604,-0.0038 0.2616943,0.070016 0.6164243,0.3167017 C 8.0961437,8.6667613 8.3524645,8.6581653 8.5438028,8.6556553 8.768124,8.6527053 9.000256,8.6658173 9.205259,8.7276323 9.559878,8.4809362 9.786563,8.406803 9.867087,8.4105639 h 3.78e-4 c 0.02685,0.00125 0.03986,0.00554 0.03986,0.00554 0.135157,0.3498346 0.04974,0.6650838 0.02435,0.7293735 0.158709,0.1775731 0.235858,0.4043244 0.235858,0.6817581 0,0.9764985 -0.579033,1.2297605 -1.130604,1.2926435 0.08879,0.07849 0.186773,0.195577 0.186773,0.432605 0,0.140842 -6e-4,0.435487 -0.0011,0.772561 -0.175503,0.05194 -0.358678,0.08646 -0.5474,0.101506 1.367473,-0.105772 2.437282,-1.241456 2.437282,-2.6369654 0,-1.4657872 -1.180038,-2.6458252 -2.6458245,-2.6458252 z M 8.3215959,12.43134 c 0.04803,0.0025 0.096368,0.0041 0.1450625,0.0041 -0.048773,0 -0.097016,-0.0014 -0.1450625,-0.0041 z m 0.1450625,0.0041 c 0.061873,0 0.1230345,-0.0028 0.1838196,-0.007 -0.060781,0.0043 -0.1218905,0.007 -0.1838196,0.007 z"
     style="fill:#4d4d4d;stroke-width:0.188987;fill-opacity:1;opacity:0.2" />
  <path
     id="rect5146-5"
     style="opacity:0.6;fill:url(#linearGradient16218);fill-opacity:1;stroke-width:0.224129"
     d="m 1.0583334,5.2916668 c -0.293158,0 -0.529166,0.236008 -0.529166,0.529167 v 8.2020832 c 0,0.586317 0.472016,1.058334 1.058333,1.058334 H 15.345834 c 0.586317,0 1.058334,-0.472017 1.058334,-1.058334 V 5.8208338 c 0,-0.293159 -0.236009,-0.529167 -0.529167,-0.529167 z"
     sodipodi:nodetypes="sccssccss" />
</svg>
