<?xml version="1.0" encoding="UTF-8" standalone="no"?>
<!-- Created with Inkscape (http://www.inkscape.org/) -->

<svg
   width="22"
   height="22"
   viewBox="0 0 5.8208333 5.8208333"
   version="1.1"
   id="svg5"
   inkscape:version="1.1.1 (3bf5ae0d25, 2021-09-20, custom)"
   sodipodi:docname="preferences-desktop-font.svg"
   xmlns:inkscape="http://www.inkscape.org/namespaces/inkscape"
   xmlns:sodipodi="http://sodipodi.sourceforge.net/DTD/sodipodi-0.dtd"
   xmlns="http://www.w3.org/2000/svg"
   xmlns:svg="http://www.w3.org/2000/svg">
  <sodipodi:namedview
     id="namedview7"
     pagecolor="#ffffff"
     bordercolor="#666666"
     borderopacity="1.0"
     inkscape:pageshadow="2"
     inkscape:pageopacity="0.0"
     inkscape:pagecheckerboard="0"
     inkscape:document-units="px"
     showgrid="false"
     units="px"
     height="48px"
     inkscape:zoom="7.6805556"
     inkscape:cx="-10.936709"
     inkscape:cy="27.927667"
     inkscape:window-width="1920"
     inkscape:window-height="1011"
     inkscape:window-x="0"
     inkscape:window-y="0"
     inkscape:window-maximized="1"
     inkscape:current-layer="svg5"
     inkscape:lockguides="true" />
  <defs
     id="defs2" />
  <rect
     style="opacity:1;fill:#818f9b;fill-opacity:1;stroke-width:3.12539;stroke-linecap:round;stroke-linejoin:round"
     id="rect849"
     width="5.8208332"
     height="5.8208332"
     x="2.220446e-16"
     y="2.220446e-16"
     ry="0.79374999" />
  <path
     id="path15486"
     style="font-size:8.21007px;line-height:1.25;font-family:Pretendard;-inkscape-font-specification:Pretendard;fill:#ffffff;stroke-width:0.108662"
     d="M 1.6538545,1.3229167 0.52916667,4.396042 h 0.3988798 L 1.2358242,3.5301609 H 2.4710383 L 2.778816,4.396042 H 3.182073 L 2.0571116,1.3229167 Z m 0.1868552,0.4965479 h 0.025443 l 0.488067,1.3752872 H 1.3526428 Z m 2.5850585,0.2421185 c -0.166955,0 -0.3178149,0.026667 -0.4522279,0.080432 C 3.8405421,2.1943658 3.7338258,2.2679982 3.6531779,2.3627947 3.5725302,2.4575912 3.5245648,2.5666289 3.5090013,2.6897229 h 0.3819178 c 0.026883,-0.091967 0.08486,-0.1663729 0.173997,-0.2229677 0.089137,-0.05801 0.2038176,-0.086998 0.3438902,-0.086998 0.1711996,0 0.300488,0.040274 0.3882101,0.1209223 0.089137,0.079233 0.1337805,0.1931399 0.1337805,0.3417016 v 0.1868553 c -0.049521,0.00141 -0.1413558,0.00578 -0.2757686,0.012858 -0.1344129,0.00707 -0.2506412,0.013991 -0.3482674,0.021066 C 4.0563282,3.0815534 3.8490385,3.1403044 3.6849133,3.239346 3.5222028,3.336972 3.4408797,3.504761 3.4408797,3.7424598 c 0,0.145732 0.034632,0.2721987 0.1039606,0.3797292 0.069329,0.1061155 0.1634852,0.1874385 0.2823347,0.2440334 0.1188492,0.05518 0.2520064,0.083668 0.3991533,0.085083 0.1811039,-0.00142 0.3288685,-0.039142 0.4434734,-0.1127151 0.1160198,-0.074988 0.1973426,-0.1604068 0.2440334,-0.2566182 h 0.016962 V 4.396042 H 5.29165 V 2.8765782 C 5.2930641,2.5582315 5.2045505,2.3429777 5.0262765,2.2312026 4.8480025,2.1180127 4.6479033,2.0615831 4.4257682,2.0615831 Z m 0.5050287,1.2669493 v 0.2311752 c 0,0.099041 -0.02539,0.1919238 -0.076329,0.278231 -0.049521,0.086307 -0.122379,0.1555706 -0.2185905,0.2079209 -0.096211,0.05235 -0.2101184,0.078518 -0.3417015,0.078518 -0.1471469,0 -0.2654227,-0.031036 -0.3545599,-0.093291 C 3.8518946,3.9688316 3.8075245,3.8782705 3.8061092,3.7594211 3.8075241,3.6377419 3.8547157,3.5448595 3.9480973,3.4811901 4.0428938,3.4175208 4.1768248,3.3800677 4.3494394,3.3687488 L 4.650651,3.3476828 c 0.1542222,-0.011318 0.2476052,-0.017735 0.2801459,-0.01915 z" />
</svg>
