<?xml version="1.0" encoding="UTF-8" standalone="no"?>
<svg
   width="16"
   height="16"
   enable-background="new"
   version="1.1"
   id="svg13"
   sodipodi:docname="battery-level-0-symbolic.svg"
   inkscape:version="1.1.1 (3bf5ae0d25, 2021-09-20, custom)"
   xmlns:inkscape="http://www.inkscape.org/namespaces/inkscape"
   xmlns:sodipodi="http://sodipodi.sourceforge.net/DTD/sodipodi-0.dtd"
   xmlns="http://www.w3.org/2000/svg"
   xmlns:svg="http://www.w3.org/2000/svg">
  <sodipodi:namedview
     id="namedview15"
     pagecolor="#ffffff"
     bordercolor="#666666"
     borderopacity="1.0"
     inkscape:pageshadow="2"
     inkscape:pageopacity="0.0"
     inkscape:pagecheckerboard="0"
     showgrid="false"
     inkscape:zoom="39.375"
     inkscape:cx="5.6380952"
     inkscape:cy="8.3301587"
     inkscape:window-width="1920"
     inkscape:window-height="1011"
     inkscape:window-x="0"
     inkscape:window-y="0"
     inkscape:window-maximized="1"
     inkscape:current-layer="svg13" />
  <defs
     id="defs5">
    <filter
       id="a"
       color-interpolation-filters="sRGB">
      <feBlend
         mode="darken"
         in2="BackgroundImage"
         id="feBlend2" />
    </filter>
  </defs>
  <path
     id="path9"
     fill="#dedede"
     d="M 6 1 L 6 2 L 10 2 L 10 1 L 6 1 z M 3.9570312 2.9941406 C 3.9296562 2.9921406 3.89025 2.992 3.84375 3 C 3.56275 3.047 3 3.25 3 4 L 3 14 C 3 15 4 15 4 15 L 11 15 L 12 15 C 12.552285 15 13 14.552285 13 14 L 13 5 L 13 4 C 13 4 13 3 12 3 L 4 3 C 4 3 3.9844063 2.9961406 3.9570312 2.9941406 z M 4 4 L 12 4 L 12 5 L 12 14 L 11 14 L 4 14 L 4 4 z " />
  <path
     d="m 7.0000005,5 v 3 l 0.25,2 H 8.75 L 9,8 V 5 Z m 0,6 v 2 H 9 v -2 z"
     class="error"
     fill="#d33636"
     id="path11"
     sodipodi:nodetypes="cccccccccccc" />
</svg>
