<?xml version="1.0" encoding="UTF-8" standalone="no"?>
<!-- Created with Inkscape (http://www.inkscape.org/) -->

<svg
   width="16"
   height="16"
   viewBox="0 0 4.2333332 4.2333335"
   version="1.1"
   id="svg5"
   inkscape:version="1.1.1 (3bf5ae0d25, 2021-09-20, custom)"
   sodipodi:docname="network-cellular-secure-signal-ok-symbolic.svg"
   xmlns:inkscape="http://www.inkscape.org/namespaces/inkscape"
   xmlns:sodipodi="http://sodipodi.sourceforge.net/DTD/sodipodi-0.dtd"
   xmlns="http://www.w3.org/2000/svg"
   xmlns:svg="http://www.w3.org/2000/svg">
  <sodipodi:namedview
     id="namedview7"
     pagecolor="#ffffff"
     bordercolor="#666666"
     borderopacity="1.0"
     inkscape:pageshadow="2"
     inkscape:pageopacity="0.0"
     inkscape:pagecheckerboard="0"
     inkscape:document-units="px"
     showgrid="false"
     units="px"
     height="16px"
     showguides="true"
     inkscape:zoom="64"
     inkscape:cx="9.4140625"
     inkscape:cy="13.664063"
     inkscape:window-width="1920"
     inkscape:window-height="1019"
     inkscape:window-x="0"
     inkscape:window-y="0"
     inkscape:window-maximized="1"
     inkscape:current-layer="svg5" />
  <defs
     id="defs2" />
  <path
     id="rect31"
     style="fill:#dedede;fill-rule:evenodd;stroke-width:1.20871"
     d="M 15 1 L 0 16 L 10 16 L 10 15 L 2.4140625 15 L 14 3.4140625 L 14 9.5507812 A 2.4999999 2.4999999 0 0 1 15 10 L 15 1 z "
     transform="scale(0.26458333)" />
  <path
     id="rect1782"
     style="fill:#dedede;stroke-width:0.888888"
     d="M 9.0000002,10 5,14 h 4.0000001 z"
     transform="scale(0.26458333)"
     sodipodi:nodetypes="cccc" />
  <path
     id="rect844"
     style="fill:#dedede;stroke-width:2.23606"
     d="M 13.5 10.5 A 1.5 1.5 0 0 0 12 12 L 12 13 L 11 13 L 11 16 L 16 16 L 16 13 L 15 13 L 15 12 A 1.5 1.5 0 0 0 13.5 10.5 z M 13.5 11.5 A 0.50000001 0.50000001 0 0 1 14 12 L 14 13 L 13 13 L 13 12 A 0.50000001 0.50000001 0 0 1 13.5 11.5 z "
     transform="scale(0.26458333)" />
</svg>
