<?xml version="1.0" encoding="UTF-8" standalone="no"?>
<!-- Created with Inkscape (http://www.inkscape.org/) -->

<svg
   width="16"
   height="16"
   viewBox="0 0 4.2333332 4.2333335"
   version="1.1"
   id="svg5"
   inkscape:version="1.1.1 (3bf5ae0d25, 2021-09-20, custom)"
   sodipodi:docname="network-cellular-no-route-symbolic.svg"
   xmlns:inkscape="http://www.inkscape.org/namespaces/inkscape"
   xmlns:sodipodi="http://sodipodi.sourceforge.net/DTD/sodipodi-0.dtd"
   xmlns="http://www.w3.org/2000/svg"
   xmlns:svg="http://www.w3.org/2000/svg">
  <sodipodi:namedview
     id="namedview7"
     pagecolor="#ffffff"
     bordercolor="#666666"
     borderopacity="1.0"
     inkscape:pageshadow="2"
     inkscape:pageopacity="0.0"
     inkscape:pagecheckerboard="0"
     inkscape:document-units="px"
     showgrid="false"
     units="px"
     height="16px"
     showguides="false"
     inkscape:zoom="11.313709"
     inkscape:cx="-3.5797279"
     inkscape:cy="17.633475"
     inkscape:window-width="1920"
     inkscape:window-height="1019"
     inkscape:window-x="0"
     inkscape:window-y="0"
     inkscape:window-maximized="1"
     inkscape:current-layer="svg5" />
  <defs
     id="defs2" />
  <path
     id="rect31"
     style="fill:#dedede;fill-rule:evenodd;stroke-width:1.20871"
     d="M 15,1 0,16 H 10 V 15 H 2.4140625 L 14,3.4140625 V 8 h 1 z"
     transform="scale(0.26458333)"
     sodipodi:nodetypes="ccccccccc" />
  <path
     id="path844"
     style="fill:#dedede;stroke-width:1.10122"
     d="M 13.5 9 A 2.0000001 2.0000001 0 0 0 11.5 11 L 12.5 11 A 1.0000001 1.0000001 0 0 1 13.5 10 A 1.0000001 1.0000001 0 0 1 14.5 11 A 1.0000001 1.0000001 0 0 1 13.5 12 L 13 12 L 13 14 L 14 14 L 14 12.935547 A 2.0000001 2.0000001 0 0 0 15.5 11 A 2.0000001 2.0000001 0 0 0 13.5 9 z M 13.5 15 A 0.50000003 0.49999997 0 0 0 13 15.5 A 0.50000003 0.49999997 0 0 0 13.5 16 A 0.50000003 0.49999997 0 0 0 14 15.5 A 0.50000003 0.49999997 0 0 0 13.5 15 z "
     transform="scale(0.26458333)" />
</svg>
