<?xml version="1.0" encoding="UTF-8" standalone="no"?>
<!-- Created with Inkscape (http://www.inkscape.org/) -->

<svg
   width="16"
   height="16"
   viewBox="0 0 4.2333332 4.2333335"
   version="1.1"
   id="svg5"
   inkscape:version="1.1.1 (3bf5ae0d25, 2021-09-20, custom)"
   sodipodi:docname="band-symbolic.svg"
   xmlns:inkscape="http://www.inkscape.org/namespaces/inkscape"
   xmlns:sodipodi="http://sodipodi.sourceforge.net/DTD/sodipodi-0.dtd"
   xmlns="http://www.w3.org/2000/svg"
   xmlns:svg="http://www.w3.org/2000/svg">
  <sodipodi:namedview
     id="namedview7"
     pagecolor="#ffffff"
     bordercolor="#666666"
     borderopacity="1.0"
     inkscape:pageshadow="2"
     inkscape:pageopacity="0.0"
     inkscape:pagecheckerboard="0"
     inkscape:document-units="px"
     showgrid="false"
     units="px"
     height="16px"
     showguides="true"
     inkscape:zoom="8"
     inkscape:cx="10.6875"
     inkscape:cy="9.5625"
     inkscape:window-width="1920"
     inkscape:window-height="1019"
     inkscape:window-x="0"
     inkscape:window-y="0"
     inkscape:window-maximized="1"
     inkscape:current-layer="svg5" />
  <defs
     id="defs2" />
  <path
     id="rect1159"
     style="fill:#5d656b;fill-opacity:1;stroke-width:0.999999"
     d="M 4.4355469 0 C 3.0806962 0.034096251 2 1.1366407 2 2.5 L 2 10 C 1.9999998 13.313708 4.6862918 16 8 16 C 11.313709 16 14 13.313709 14 10 C 14 6.6862914 11.313709 3.9999996 8 4 C 7.6646312 4.003247 7.3301274 4.0346193 7 4.09375 L 7 2.5 C 7 1.1150001 5.8849999 -2.9605947e-16 4.5 0 C 4.4783596 0 4.4570524 -0.00054121012 4.4355469 0 z M 4.5 1 C 5.3309998 1 6 1.6690002 6 2.5 L 6 10 C 6 11.10457 6.8954304 12 8 12 C 9.1045696 12 10 11.10457 10 10 C 10 8.8954304 9.1045696 8 8 8 C 7.647714 8.0040441 7.3027432 8.101061 7 8.28125 L 7 7.1796875 C 7.3206929 7.0633725 7.658875 7.0026041 8 7 C 9.6568542 7 11 8.3431458 11 10 C 11 11.656854 9.6568542 13 8 13 C 6.3431458 13 5 11.656854 5 10 L 5 2.5 A 0.49999996 0.50000002 0 0 0 5 2.4980469 A 0.49999996 0.50000002 0 0 0 5 2.4960938 A 0.49999996 0.50000002 0 0 0 5 2.4941406 A 0.49999996 0.50000002 0 0 0 5 2.4921875 A 0.49999996 0.50000002 0 0 0 5 2.4902344 A 0.49999996 0.50000002 0 0 0 5 2.4882812 A 0.49999996 0.50000002 0 0 0 5 2.4863281 A 0.49999996 0.50000002 0 0 0 5 2.484375 A 0.49999996 0.50000002 0 0 0 5 2.4824219 A 0.49999996 0.50000002 0 0 0 5 2.4804688 A 0.49999996 0.50000002 0 0 0 5 2.4785156 A 0.49999996 0.50000002 0 0 0 5 2.4765625 A 0.49999996 0.50000002 0 0 0 5 2.4746094 A 0.49999996 0.50000002 0 0 0 4.5 2 A 0.49999996 0.50000002 0 0 0 4 2.5 L 4 10 C 4 12.209139 5.7908612 14 8 14 C 10.209139 14 12 12.209139 12 10 C 12 7.7908609 10.209139 5.9999996 8 6 C 7.6618975 6.0057146 7.3258841 6.0542793 7 6.1445312 L 7 5.1113281 C 7.2674356 5.0533464 7.5391835 5.0174181 7.8125 5.0039062 C 8.3121619 4.9848197 8.8118623 5.0407565 9.2949219 5.1699219 C 11.962736 5.8847798 13.545628 8.6272927 12.830078 11.294922 C 12.11522 13.962736 9.3727068 15.545628 6.7050781 14.830078 C 4.5201024 14.243268 3.0014125 12.262403 3.0019531 10 L 3 10 L 3 2.5 C 3 1.6690002 3.6690005 1 4.5 1 z M 8 9 C 8.5522846 9 9 9.4477154 9 10 C 9 10.552285 8.5522846 11 8 11 C 7.4477154 11 7 10.552285 7 10 C 7 9.4477154 7.4477154 9 8 9 z "
     transform="scale(0.26458333)" />
</svg>
