<?xml version="1.0" encoding="UTF-8" standalone="no"?>
<svg
   width="16"
   height="16"
   version="1.1"
   id="svg8"
   sodipodi:docname="preferences-system-notifications-symbolic.svg"
   inkscape:version="1.1.1 (3bf5ae0d25, 2021-09-20, custom)"
   xmlns:inkscape="http://www.inkscape.org/namespaces/inkscape"
   xmlns:sodipodi="http://sodipodi.sourceforge.net/DTD/sodipodi-0.dtd"
   xmlns="http://www.w3.org/2000/svg"
   xmlns:svg="http://www.w3.org/2000/svg">
  <defs
     id="defs12" />
  <sodipodi:namedview
     id="namedview10"
     pagecolor="#ffffff"
     bordercolor="#666666"
     borderopacity="1.0"
     inkscape:pageshadow="2"
     inkscape:pageopacity="0.0"
     inkscape:pagecheckerboard="0"
     showgrid="false"
     inkscape:zoom="45.4375"
     inkscape:cx="7.9889959"
     inkscape:cy="8"
     inkscape:window-width="1920"
     inkscape:window-height="1019"
     inkscape:window-x="0"
     inkscape:window-y="0"
     inkscape:window-maximized="1"
     inkscape:current-layer="svg8" />
  <path
     d="M7.72 3c.116.318.187.654.231 1H14v8H2V8.725a4.56 4.56 0 0 1-1-.504V12c0 .55.45 1 1 1h7l2 2 2-2h1c.55 0 1-.45 1-1V4c0-.55-.45-1-1-1H7.72z"
     fill="#363636"
     id="path2" />
  <path
     d="M3.5 1C1.57 1 0 2.57 0 4.5S1.57 8 3.5 8 7 6.43 7 4.5 5.43 1 3.5 1zM3 2h1v3H3zm0 4h1v1H3z"
     fill="#363636"
     id="path4" />
</svg>
