<?xml version="1.0" encoding="UTF-8" standalone="no"?>
<svg
   width="32"
   height="32"
   version="1.1"
   id="svg23"
   sodipodi:docname="dialog-error.svg"
   inkscape:version="1.1.1 (3bf5ae0d25, 2021-09-20, custom)"
   xmlns:inkscape="http://www.inkscape.org/namespaces/inkscape"
   xmlns:sodipodi="http://sodipodi.sourceforge.net/DTD/sodipodi-0.dtd"
   xmlns:xlink="http://www.w3.org/1999/xlink"
   xmlns="http://www.w3.org/2000/svg"
   xmlns:svg="http://www.w3.org/2000/svg">
  <sodipodi:namedview
     id="namedview25"
     pagecolor="#ffffff"
     bordercolor="#666666"
     borderopacity="1.0"
     inkscape:pageshadow="2"
     inkscape:pageopacity="0.0"
     inkscape:pagecheckerboard="0"
     showgrid="false"
     inkscape:zoom="19.6875"
     inkscape:cx="14.526984"
     inkscape:cy="15.644444"
     inkscape:window-width="1920"
     inkscape:window-height="1011"
     inkscape:window-x="0"
     inkscape:window-y="0"
     inkscape:window-maximized="1"
     inkscape:current-layer="svg23" />
  <defs
     id="defs13">
    <linearGradient
       inkscape:collect="always"
       id="linearGradient23620">
      <stop
         style="stop-color:#000000;stop-opacity:1;"
         offset="0"
         id="stop23616" />
      <stop
         style="stop-color:#000000;stop-opacity:0;"
         offset="1"
         id="stop23618" />
    </linearGradient>
    <linearGradient
       inkscape:collect="always"
       id="linearGradient22950">
      <stop
         style="stop-color:#ffffff;stop-opacity:1;"
         offset="0"
         id="stop22946" />
      <stop
         style="stop-color:#ffffff;stop-opacity:0;"
         offset="1"
         id="stop22948" />
    </linearGradient>
    <linearGradient
       inkscape:collect="always"
       id="linearGradient2515">
      <stop
         style="stop-color:#ff5355;stop-opacity:1;"
         offset="0"
         id="stop2511" />
      <stop
         style="stop-color:#ff9349;stop-opacity:1"
         offset="1"
         id="stop2513" />
    </linearGradient>
    <linearGradient
       id="a"
       x1="16"
       x2="16"
       y1="1"
       y2="31"
       gradientUnits="userSpaceOnUse"
       gradientTransform="translate(-40.473639,0.71003224)">
      <stop
         stop-color="#ff5355"
         offset="0"
         id="stop2" />
      <stop
         stop-color="#ff9349"
         offset="1"
         id="stop4" />
    </linearGradient>
    <filter
       id="c"
       x="-0.035999999"
       y="-0.035999999"
       width="1.072"
       height="1.072"
       color-interpolation-filters="sRGB">
      <feGaussianBlur
         stdDeviation="0.45"
         id="feGaussianBlur7" />
    </filter>
    <filter
       id="b"
       x="-0.108"
       y="-0.021600001"
       width="1.216"
       height="1.0432"
       color-interpolation-filters="sRGB">
      <feGaussianBlur
         stdDeviation="0.18"
         id="feGaussianBlur10" />
    </filter>
    <linearGradient
       inkscape:collect="always"
       xlink:href="#linearGradient2515"
       id="linearGradient2517"
       x1="-1"
       y1="34"
       x2="33"
       y2="0"
       gradientUnits="userSpaceOnUse"
       gradientTransform="matrix(1.0769231,0,0,1.0769231,-1.2307692,-1.2307692)" />
    <linearGradient
       inkscape:collect="always"
       xlink:href="#linearGradient22950"
       id="linearGradient22952"
       x1="18"
       y1="5.9999943"
       x2="17.869802"
       y2="35.999992"
       gradientUnits="userSpaceOnUse" />
    <linearGradient
       inkscape:collect="always"
       xlink:href="#linearGradient23620"
       id="linearGradient23622"
       x1="12"
       y1="30.202148"
       x2="19.869141"
       y2="10.202148"
       gradientUnits="userSpaceOnUse" />
  </defs>
  <circle
     style="opacity:1;fill:url(#linearGradient2517);fill-opacity:1;stroke-width:1.00772"
     id="path2032"
     cx="16"
     cy="16"
     r="14" />
  <path
     d="M 14.670359,12.404428 V 4.9999994 h 2.559555 v 7.4044286 l -0.304709,7.983376 h -1.980608 z m 1.279778,14.595561 q -0.822715,0 -1.401662,-0.548476 -0.548476,-0.578947 -0.548476,-1.401662 0,-0.792243 0.548476,-1.340719 0.578947,-0.578947 1.401662,-0.578947 0.792243,0 1.340719,0.578947 0.578947,0.548476 0.578947,1.340719 0,0.822715 -0.578947,1.401662 -0.548476,0.548476 -1.340719,0.548476 z"
     style="font-size:30.4709px;line-height:1.25;font-family:'Google Sans';-inkscape-font-specification:'Google Sans';stroke-width:0.761773;fill:url(#linearGradient22952);fill-opacity:1"
     id="path13331" />
  <path
     id="path22787"
     style="font-size:30.4709px;line-height:1.25;font-family:'Google Sans';-inkscape-font-specification:'Google Sans';stroke-width:0.761772;fill:url(#linearGradient23622);fill-opacity:1;opacity:0.3"
     d="M 14.669922 12.404297 L 14.669922 13.404297 L 14.945312 21.388672 L 16.925781 21.388672 L 17.230469 13.404297 L 17.230469 12.404297 L 16.925781 20.388672 L 14.945312 20.388672 L 14.669922 12.404297 z M 14.060547 25.560547 C 14.021651 25.715521 14 25.87852 14 26.050781 C 14 26.599257 14.183177 27.065207 14.548828 27.451172 C 14.934793 27.816823 15.400743 28 15.949219 28 C 16.477381 28 16.925365 27.816823 17.291016 27.451172 C 17.67698 27.065207 17.869141 26.599257 17.869141 26.050781 C 17.869141 25.878554 17.847681 25.715493 17.806641 25.560547 C 17.72173 25.894038 17.550854 26.191334 17.291016 26.451172 C 16.925365 26.816823 16.477381 27 15.949219 27 C 15.400743 27 14.934793 26.816823 14.548828 26.451172 C 14.30269 26.191359 14.140997 25.893999 14.060547 25.560547 z " />
</svg>
