<?xml version="1.0" encoding="UTF-8" standalone="no"?>
<!-- Created with Inkscape (http://www.inkscape.org/) -->

<svg
   width="64"
   height="64"
   viewBox="0 0 16.933333 16.933333"
   version="1.1"
   id="svg5"
   inkscape:version="1.1.1 (3bf5ae0d25, 2021-09-20, custom)"
   sodipodi:docname="2048.svg"
   xmlns:inkscape="http://www.inkscape.org/namespaces/inkscape"
   xmlns:sodipodi="http://sodipodi.sourceforge.net/DTD/sodipodi-0.dtd"
   xmlns:xlink="http://www.w3.org/1999/xlink"
   xmlns="http://www.w3.org/2000/svg"
   xmlns:svg="http://www.w3.org/2000/svg">
  <sodipodi:namedview
     id="namedview7"
     pagecolor="#ffffff"
     bordercolor="#666666"
     borderopacity="1.0"
     inkscape:pageshadow="2"
     inkscape:pageopacity="0.0"
     inkscape:pagecheckerboard="0"
     inkscape:document-units="px"
     showgrid="false"
     units="px"
     height="48px"
     inkscape:zoom="6.1640625"
     inkscape:cx="26.281369"
     inkscape:cy="40.801014"
     inkscape:window-width="1920"
     inkscape:window-height="1011"
     inkscape:window-x="0"
     inkscape:window-y="0"
     inkscape:window-maximized="1"
     inkscape:current-layer="svg5"
     inkscape:lockguides="true" />
  <defs
     id="defs2">
    <linearGradient
       inkscape:collect="always"
       id="linearGradient33750">
      <stop
         style="stop-color:#fcfcfc;stop-opacity:1"
         offset="0"
         id="stop33746" />
      <stop
         style="stop-color:#eff0f1;stop-opacity:1"
         offset="1"
         id="stop33748" />
    </linearGradient>
    <linearGradient
       inkscape:collect="always"
       id="linearGradient33214">
      <stop
         style="stop-color:#ffffff;stop-opacity:1;"
         offset="0"
         id="stop33210" />
      <stop
         style="stop-color:#68bcff;stop-opacity:0.99640739"
         offset="1"
         id="stop33212" />
    </linearGradient>
    <linearGradient
       inkscape:collect="always"
       id="linearGradient32792">
      <stop
         style="stop-color:#ffffff;stop-opacity:1;"
         offset="0"
         id="stop32788" />
      <stop
         style="stop-color:#81ffdb;stop-opacity:1"
         offset="1"
         id="stop32790" />
    </linearGradient>
    <linearGradient
       inkscape:collect="always"
       id="linearGradient32404">
      <stop
         style="stop-color:#ffffff;stop-opacity:1;"
         offset="0"
         id="stop32400" />
      <stop
         style="stop-color:#ffcc72;stop-opacity:0.99703997"
         offset="1"
         id="stop32402" />
    </linearGradient>
    <linearGradient
       inkscape:collect="always"
       id="linearGradient31144">
      <stop
         style="stop-color:#000000;stop-opacity:1;"
         offset="0"
         id="stop31140" />
      <stop
         style="stop-color:#000000;stop-opacity:0;"
         offset="1"
         id="stop31142" />
    </linearGradient>
    <linearGradient
       inkscape:collect="always"
       id="linearGradient7991">
      <stop
         style="stop-color:#6ad0ff;stop-opacity:1;"
         offset="0"
         id="stop7987" />
      <stop
         style="stop-color:#247dff;stop-opacity:0.92554229"
         offset="1"
         id="stop7989" />
    </linearGradient>
    <linearGradient
       inkscape:collect="always"
       id="linearGradient6965">
      <stop
         style="stop-color:#75e3df;stop-opacity:1;"
         offset="0"
         id="stop6961" />
      <stop
         style="stop-color:#75e3a2;stop-opacity:0.99607843"
         offset="1"
         id="stop6963" />
    </linearGradient>
    <linearGradient
       inkscape:collect="always"
       id="linearGradient4217">
      <stop
         style="stop-color:#ffbb07;stop-opacity:1;"
         offset="0"
         id="stop4213" />
      <stop
         style="stop-color:#ff9007;stop-opacity:1"
         offset="1"
         id="stop4215" />
    </linearGradient>
    <linearGradient
       inkscape:collect="always"
       xlink:href="#linearGradient37218"
       id="linearGradient1781"
       x1="2.8346456e-08"
       y1="2.2677165e-07"
       x2="64"
       y2="64"
       gradientUnits="userSpaceOnUse"
       gradientTransform="scale(0.26458333)" />
    <linearGradient
       inkscape:collect="always"
       id="linearGradient37218">
      <stop
         style="stop-color:#ffffff;stop-opacity:1"
         offset="0"
         id="stop37214" />
      <stop
         style="stop-color:#717171;stop-opacity:0.00392157"
         offset="0.49741825"
         id="stop37220" />
      <stop
         style="stop-color:#000000;stop-opacity:1"
         offset="1"
         id="stop37216" />
    </linearGradient>
    <linearGradient
       inkscape:collect="always"
       xlink:href="#linearGradient4217"
       id="linearGradient9081"
       x1="6.0854168"
       y1="1.3229166"
       x2="6.0854168"
       y2="8.7312498"
       gradientUnits="userSpaceOnUse" />
    <linearGradient
       inkscape:collect="always"
       xlink:href="#linearGradient7991"
       id="linearGradient9704"
       x1="12.435416"
       y1="8.2020836"
       x2="12.435416"
       y2="15.610419"
       gradientUnits="userSpaceOnUse" />
    <linearGradient
       inkscape:collect="always"
       xlink:href="#linearGradient6965"
       id="linearGradient17230"
       x1="11.906253"
       y1="15.610416"
       x2="11.906253"
       y2="8.3343744"
       gradientUnits="userSpaceOnUse"
       gradientTransform="translate(-7.14375)" />
    <linearGradient
       inkscape:collect="always"
       xlink:href="#linearGradient31144"
       id="linearGradient31146"
       x1="8.6679688"
       y1="57.349609"
       x2="60.576172"
       y2="21.349609"
       gradientUnits="userSpaceOnUse" />
    <linearGradient
       inkscape:collect="always"
       xlink:href="#linearGradient32404"
       id="linearGradient32406"
       x1="7.2760415"
       y1="2.9104154"
       x2="7.3466916"
       y2="7.6729155"
       gradientUnits="userSpaceOnUse" />
    <linearGradient
       inkscape:collect="always"
       xlink:href="#linearGradient32792"
       id="linearGradient32794"
       x1="7.0558453"
       y1="11.377085"
       x2="7.0266113"
       y2="15.081251"
       gradientUnits="userSpaceOnUse" />
    <linearGradient
       inkscape:collect="always"
       xlink:href="#linearGradient33214"
       id="linearGradient33216"
       x1="13.94459"
       y1="11.390608"
       x2="13.910541"
       y2="15.081249"
       gradientUnits="userSpaceOnUse" />
    <linearGradient
       inkscape:collect="always"
       xlink:href="#linearGradient33750"
       id="linearGradient33752"
       x1="10.054167"
       y1="6.3308715e-07"
       x2="10.054167"
       y2="16.933334"
       gradientUnits="userSpaceOnUse" />
  </defs>
  <path
     id="rect863"
     style="fill:url(#linearGradient33752);stroke-width:0.264583;fill-opacity:1"
     d="M 3.1750003,1.0583333 H 13.758333 c 1.172634,0 2.116667,0.944034 2.116667,2.116667 V 13.758333 c 0,1.172634 -0.944033,2.116667 -2.116667,2.116667 H 3.1750003 c -1.172633,0 -2.116667,-0.944033 -2.116667,-2.116667 V 3.1750003 c 0,-1.172633 0.944034,-2.116667 2.116667,-2.116667 z" />
  <path
     id="rect1345"
     style="opacity:0.3;fill:url(#linearGradient1781);fill-opacity:1;stroke-width:0.264583"
     d="m 3.1750003,1.0583333 c -1.172633,0 -2.116667,0.944034 -2.116667,2.116667 V 13.758333 c 0,1.172634 0.944034,2.116667 2.116667,2.116667 H 13.758334 c 1.172633,0 2.116666,-0.944033 2.116666,-2.116667 V 3.1750003 c 0,-1.172633 -0.944033,-2.116667 -2.116666,-2.116667 z m 0,0.264584 H 13.758334 c 1.026054,0 1.852083,0.826029 1.852083,1.852083 V 13.758333 c 0,1.026054 -0.826029,1.852084 -1.852083,1.852084 H 3.1750003 c -1.026054,0 -1.852083,-0.82603 -1.852083,-1.852084 V 3.1750003 c 0,-1.026054 0.826029,-1.852083 1.852083,-1.852083 z" />
  <path
     id="rect8225"
     style="opacity:1;fill:url(#linearGradient9081);fill-opacity:1;stroke-width:2.59773;stroke-linecap:round;stroke-linejoin:round"
     d="m 3.175,1.8520833 h 5.0270832 v 6.3499999 l -6.3499999,-1e-7 V 3.175 c 0,-0.7328959 0.5900208,-1.3229167 1.3229167,-1.3229167 z"
     sodipodi:nodetypes="scccss" />
  <path
     id="rect9105"
     style="opacity:1;fill:url(#linearGradient9704);fill-opacity:1;stroke-width:2.38125;stroke-linecap:round;stroke-linejoin:round"
     d="m 15.081253,8.7312498 v 5.2916692 c 0,0.586317 -0.472017,1.058334 -1.058334,1.058334 H 8.73125 l -3e-7,-6.3500032 z"
     sodipodi:nodetypes="cssccc" />
  <path
     d="M 3.5718748,6.7630936 4.9964425,5.2635487 Q 5.2761653,4.9636397 5.4232361,4.7819641 5.5731906,4.5974047 5.6510516,4.427264 q 0.077861,-0.1701406 0.077861,-0.3575838 0,-0.210513 -0.1095821,-0.3691187 Q 5.5097483,3.539072 5.3194214,3.4496761 5.1319783,3.3602801 4.8983954,3.3602801 q -0.245118,0 -0.4296773,0.1009309 Q 4.2841587,3.559258 4.1832278,3.7351664 4.0851808,3.9110745 4.0851808,4.1446575 H 3.5949448 Q 3.592061,3.7813062 3.7622017,3.5015834 3.9352261,3.2218606 4.2380188,3.0661386 4.5408116,2.9104167 4.9156978,2.9104167 q 0.3720025,0 0.666144,0.1528382 Q 5.878867,3.2160931 6.046124,3.4813972 6.2133809,3.7467013 6.2133809,4.0696802 6.2104972,4.3090307 6.123985,4.5281949 6.0403565,4.7444755 5.8356109,5.0097796 5.6308654,5.2750837 5.2559791,5.6615048 L 4.2985774,6.647744 V 6.682349 H 6.2883581 V 7.1437473 H 3.5776423 Z"
     id="path30608"
     style="font-size:5.9059px;line-height:1.25;font-family:Pretendard;-inkscape-font-specification:Pretendard;stroke-width:0.147648;fill:url(#linearGradient32406);fill-opacity:1" />
  <path
     id="rect16951"
     style="opacity:1;fill:url(#linearGradient17230);fill-opacity:1;stroke-width:2.38125;stroke-linecap:round;stroke-linejoin:round"
     d="m 8.2020832,8.7312498 c 3e-6,5e-7 0,6.3500002 0,6.3500002 H 2.9104159 c -0.5863161,0 -1.0583326,-0.472017 -1.0583326,-1.058333 V 8.7312498 Z"
     sodipodi:nodetypes="ccsscc" />
  <path
     d="M 3.3516786,12.724852 5.257849,9.7895831 h 0.6490335 v 2.9060329 h 0.590562 v 0.461925 h -0.590562 v 0.865378 H 5.4040278 V 13.157541 H 3.3516786 Z m 2.0523492,-0.02924 V 10.456158 H 5.3514034 L 3.918852,12.660533 v 0.03508 z"
     style="font-size:5.98748px;line-height:1.25;font-family:Pretendard;-inkscape-font-specification:Pretendard;stroke-width:0.149687;fill:url(#linearGradient32794);fill-opacity:1"
     id="path30611" />
  <path
     d="m 11.913361,14.022914 q -0.426747,0 -0.762455,-0.147939 -0.332862,-0.147938 -0.517786,-0.409677 -0.182079,-0.261738 -0.182079,-0.591756 0,-0.261738 0.108109,-0.486491 0.110955,-0.227599 0.301568,-0.375538 0.193459,-0.147939 0.426747,-0.184923 v -0.02276 q -0.201993,-0.04552 -0.355622,-0.179234 -0.153629,-0.133714 -0.238979,-0.327173 -0.0825,-0.193458 -0.0825,-0.415367 0,-0.310103 0.167854,-0.557616 0.167854,-0.250358 0.463732,-0.3926074 0.298723,-0.142249 0.671415,-0.142249 0.369848,0 0.665725,0.142249 0.298723,0.1422494 0.469422,0.3926074 0.170699,0.247513 0.173544,0.557616 -0.0028,0.221909 -0.09104,0.415367 -0.08535,0.193459 -0.238979,0.327173 -0.153629,0.133714 -0.352777,0.179234 v 0.02276 q 0.230443,0.03698 0.421057,0.184923 0.193459,0.147939 0.304413,0.375538 0.113799,0.224753 0.116644,0.486491 -0.0028,0.330018 -0.190614,0.591756 -0.187768,0.261739 -0.520631,0.409677 -0.332863,0.147939 -0.756765,0.147939 z m -0.950223,-1.177821 q -0.0028,0.216218 0.110954,0.381227 0.113799,0.162164 0.330018,0.256048 0.216218,0.09104 0.509251,0.09104 0.290188,0 0.506407,-0.09104 0.216218,-0.09388 0.332862,-0.256048 0.116645,-0.165009 0.116645,-0.381227 0,-0.224754 -0.12518,-0.403988 -0.122334,-0.182078 -0.341397,-0.284498 -0.216219,-0.102419 -0.489337,-0.102419 -0.273118,0 -0.492182,0.102419 -0.216218,0.10242 -0.338552,0.284498 -0.122334,0.179234 -0.119489,0.403988 z m 0.142249,-1.923207 q 0,0.204838 0.102419,0.364157 0.105264,0.156474 0.287343,0.247514 0.184924,0.08819 0.418212,0.08819 0.233288,0 0.415367,-0.08819 0.184924,-0.09104 0.287343,-0.247514 0.105265,-0.159319 0.105265,-0.364157 0,-0.204839 -0.10242,-0.361313 -0.09957,-0.156474 -0.284498,-0.241823 -0.182079,-0.08535 -0.421057,-0.08535 -0.241823,0 -0.423902,0.08535 -0.182079,0.08535 -0.284498,0.241823 -0.09957,0.156474 -0.09957,0.361313 z"
     style="font-size:5.82652px;line-height:1.25;font-family:Pretendard;-inkscape-font-specification:Pretendard;stroke-width:0.145663;fill:url(#linearGradient33216);fill-opacity:1"
     id="path30605" />
  <path
     id="path30608-3"
     style="font-size:5.9059px;line-height:1.25;font-family:Pretendard;-inkscape-font-specification:Pretendard;stroke-width:0.55804;opacity:0.3;fill:url(#linearGradient31146);fill-opacity:1"
     d="M 18.513672 12.699219 C 17.896052 12.699219 17.355656 12.827718 16.890625 13.082031 C 16.425594 13.329079 16.06486 13.673953 15.810547 14.117188 C 15.563498 14.560421 15.441406 15.075507 15.441406 15.664062 L 13.675781 15.664062 C 13.615026 15.982421 13.585119 16.314909 13.587891 16.664062 L 15.441406 16.664062 C 15.441406 16.075507 15.563498 15.560421 15.810547 15.117188 C 16.064859 14.673953 16.425594 14.329079 16.890625 14.082031 C 17.355656 13.827717 17.896052 13.699219 18.513672 13.699219 C 19.102227 13.699219 19.633171 13.811861 20.105469 14.037109 C 20.585033 14.262358 20.962169 14.579425 21.238281 14.986328 C 21.428823 15.262111 21.550355 15.570302 21.609375 15.908203 C 21.637384 15.735268 21.652344 15.56006 21.652344 15.380859 C 21.652344 14.850433 21.514395 14.385964 21.238281 13.986328 C 20.962169 13.579425 20.585033 13.262358 20.105469 13.037109 C 19.633171 12.811861 19.102227 12.699219 18.513672 12.699219 z M 23.453125 15.876953 C 23.405611 16.302239 23.303947 16.714377 23.146484 17.113281 C 22.935767 17.65824 22.572534 18.265111 22.056641 18.933594 C 21.540746 19.602076 20.809829 20.422825 19.865234 21.396484 L 16.248047 25.125 L 16.248047 25.255859 L 17.091797 25.255859 L 19.865234 22.396484 C 20.809829 21.422825 21.540746 20.602076 22.056641 19.933594 C 22.572534 19.265111 22.935767 18.65824 23.146484 18.113281 C 23.364469 17.561056 23.477111 16.983947 23.484375 16.380859 C 23.484375 16.209072 23.47195 16.04221 23.453125 15.876953 z M 13.515625 26.544922 L 13.5 26.560547 L 13.521484 28 L 23.767578 28 L 23.767578 27 L 13.521484 27 L 13.515625 26.544922 z M 7 31 L 7 32 L 31 32 L 31 31 L 7 31 z M 45.027344 38.677734 C 44.418027 38.677734 43.884563 38.784945 43.425781 39 C 42.967 39.215055 42.607676 39.519801 42.349609 39.914062 C 42.098724 40.308329 41.974609 40.763168 41.974609 41.279297 C 41.974609 41.451152 41.990976 41.616161 42.019531 41.775391 C 42.075416 41.462045 42.183956 41.174387 42.349609 40.914062 C 42.607676 40.519801 42.967 40.215055 43.425781 40 C 43.884563 39.784945 44.418027 39.677734 45.027344 39.677734 C 45.629491 39.677734 46.160359 39.784945 46.619141 40 C 47.0851 40.215055 47.442474 40.519797 47.693359 40.914062 C 47.863754 41.174387 47.976803 41.462045 48.035156 41.775391 C 48.064648 41.616161 48.082031 41.451152 48.082031 41.279297 C 48.082031 40.763168 47.951426 40.308329 47.693359 39.914062 C 47.442474 39.519797 47.0851 39.215055 46.619141 39 C 46.160359 38.784945 45.629491 38.677734 45.027344 38.677734 z M 20.226562 39.519531 L 14.8125 47.849609 L 14.8125 47.982422 L 15.376953 47.982422 L 20.226562 40.519531 L 20.425781 40.519531 L 20.425781 39.519531 L 20.226562 39.519531 z M 49.9375 41.625 C 49.886708 42.000212 49.784075 42.359044 49.628906 42.699219 C 49.413851 43.186672 49.113663 43.59864 48.726562 43.935547 C 48.339467 44.272454 47.894371 44.496619 47.392578 44.611328 L 47.392578 44.699219 C 47.79467 44.763745 48.171307 44.895637 48.525391 45.09375 C 48.593568 45.043574 48.661642 44.99205 48.726562 44.935547 C 49.113663 44.59864 49.413851 44.186672 49.628906 43.699219 C 49.851256 43.211766 49.967542 42.68805 49.974609 42.128906 C 49.973026 41.956644 49.959663 41.78959 49.9375 41.625 z M 40.134766 41.638672 C 40.115433 41.798963 40.103516 41.961356 40.103516 42.128906 C 40.103516 42.68805 40.206188 43.211766 40.414062 43.699219 C 40.629119 44.186672 40.931264 44.598628 41.318359 44.935547 C 41.382176 44.991089 41.448512 45.042368 41.515625 45.091797 C 41.873756 44.894663 42.256247 44.763572 42.662109 44.699219 L 42.662109 44.611328 C 42.153151 44.496631 41.705459 44.272454 41.318359 43.935547 C 40.931264 43.598628 40.629119 43.186672 40.414062 42.699219 C 40.270776 42.363219 40.178917 42.008857 40.134766 41.638672 z M 45.027344 45.558594 C 44.339171 45.558594 43.719942 45.687246 43.167969 45.945312 C 42.623169 46.20338 42.194977 46.562706 41.886719 47.021484 C 41.578487 47.473096 41.428366 47.980566 41.435547 48.546875 C 41.433302 48.720315 41.447014 48.886438 41.474609 49.046875 C 41.536225 48.677413 41.67218 48.335819 41.886719 48.021484 C 42.194977 47.562706 42.623169 47.20338 43.167969 46.945312 C 43.719942 46.687246 44.339171 46.558594 45.027344 46.558594 C 45.715513 46.558594 46.332149 46.68725 46.876953 46.945312 C 47.428927 47.20338 47.859726 47.562706 48.167969 48.021484 C 48.38671 48.334692 48.526844 48.675033 48.59375 49.042969 C 48.623146 48.883693 48.640625 48.718949 48.640625 48.546875 C 48.640625 47.980566 48.48337 47.473096 48.167969 47.021484 C 47.859726 46.562706 47.428927 46.20338 46.876953 45.945312 C 46.332149 45.68725 45.715513 45.558594 45.027344 45.558594 z M 39.529297 49.140625 C 39.510136 49.309269 39.5 49.481155 39.5 49.65625 C 39.5 50.487791 39.730668 51.233081 40.189453 51.892578 C 40.655405 52.552079 41.307773 53.066697 42.146484 53.439453 C 42.992362 53.812228 43.952076 54 45.027344 54 C 46.095442 54 47.048008 53.812198 47.886719 53.439453 C 48.725426 53.066678 49.382355 52.552079 49.855469 51.892578 C 50.3287 51.233081 50.569119 50.487791 50.576172 49.65625 C 50.574287 49.483188 50.562204 49.313245 50.541016 49.146484 C 50.460445 49.78321 50.233587 50.365631 49.855469 50.892578 C 49.382355 51.552079 48.725426 52.066678 47.886719 52.439453 C 47.048008 52.812198 46.095442 53 45.027344 53 C 43.952076 53 42.992362 52.812228 42.146484 52.439453 C 41.307773 52.066697 40.655405 51.552079 40.189453 50.892578 C 39.82175 50.36401 39.602621 49.779647 39.529297 49.140625 z M 12.667969 49.728516 L 12.667969 50.728516 L 20.425781 50.728516 L 20.425781 49.728516 L 12.667969 49.728516 z M 22.326172 49.728516 L 22.326172 50.728516 L 24.558594 50.728516 L 24.558594 49.728516 L 22.326172 49.728516 z M 7 53 L 7 54 C 7 56.215998 8.7840021 58 11 58 L 31 58 L 31 57 L 11 57 C 8.7840021 57 7 55.215998 7 53 z M 20.425781 53 L 20.425781 54 L 22.326172 54 L 22.326172 53 L 20.425781 53 z M 57 53 C 57 55.216001 55.216001 57 53 57 L 33 57 L 33 58 L 53 58 C 55.216001 58 57 56.216001 57 54 L 57 53 z "
     transform="scale(0.26458333)" />
</svg>
