<?xml version="1.0" encoding="UTF-8" standalone="no"?>
<!-- Created with Inkscape (http://www.inkscape.org/) -->

<svg
   width="64"
   height="64"
   viewBox="0 0 16.933333 16.933333"
   version="1.1"
   id="svg5"
   inkscape:version="1.1.1 (3bf5ae0d25, 2021-09-20, custom)"
   sodipodi:docname="7zip.svg"
   xmlns:inkscape="http://www.inkscape.org/namespaces/inkscape"
   xmlns:sodipodi="http://sodipodi.sourceforge.net/DTD/sodipodi-0.dtd"
   xmlns:xlink="http://www.w3.org/1999/xlink"
   xmlns="http://www.w3.org/2000/svg"
   xmlns:svg="http://www.w3.org/2000/svg">
  <sodipodi:namedview
     id="namedview7"
     pagecolor="#ffffff"
     bordercolor="#666666"
     borderopacity="1.0"
     inkscape:pageshadow="2"
     inkscape:pageopacity="0.0"
     inkscape:pagecheckerboard="0"
     inkscape:document-units="px"
     showgrid="false"
     units="px"
     height="48px"
     inkscape:zoom="3.9999998"
     inkscape:cx="-42.250002"
     inkscape:cy="1.7500001"
     inkscape:window-width="1920"
     inkscape:window-height="1011"
     inkscape:window-x="0"
     inkscape:window-y="0"
     inkscape:window-maximized="1"
     inkscape:current-layer="svg5"
     inkscape:lockguides="true" />
  <defs
     id="defs2">
    <linearGradient
       inkscape:collect="always"
       id="linearGradient7395">
      <stop
         style="stop-color:#ffffff;stop-opacity:1;"
         offset="0"
         id="stop7391" />
      <stop
         style="stop-color:#ffffff;stop-opacity:0;"
         offset="1"
         id="stop7393" />
    </linearGradient>
    <linearGradient
       inkscape:collect="always"
       id="linearGradient7067">
      <stop
         style="stop-color:#000000;stop-opacity:1;"
         offset="0"
         id="stop7063" />
      <stop
         style="stop-color:#000000;stop-opacity:0;"
         offset="1"
         id="stop7065" />
    </linearGradient>
    <linearGradient
       inkscape:collect="always"
       id="linearGradient5475">
      <stop
         style="stop-color:#b3b3b3;stop-opacity:1"
         offset="0"
         id="stop5471" />
      <stop
         style="stop-color:#ececec;stop-opacity:1"
         offset="1"
         id="stop5473" />
    </linearGradient>
    <linearGradient
       inkscape:collect="always"
       id="linearGradient37218">
      <stop
         style="stop-color:#ffffff;stop-opacity:1"
         offset="0"
         id="stop37214" />
      <stop
         style="stop-color:#e6e6e6;stop-opacity:0.00306325"
         offset="0.49741825"
         id="stop37220" />
      <stop
         style="stop-color:#ffffff;stop-opacity:1"
         offset="1"
         id="stop37216" />
    </linearGradient>
    <linearGradient
       inkscape:collect="always"
       xlink:href="#linearGradient37218"
       id="linearGradient881"
       x1="64.208344"
       y1="64.062607"
       x2="0.30528301"
       y2="0.13507102"
       gradientUnits="userSpaceOnUse" />
    <linearGradient
       inkscape:collect="always"
       xlink:href="#linearGradient5475"
       id="linearGradient5477"
       x1="7.9375"
       y1="16.933332"
       x2="7.9374995"
       y2="-2.3101043e-07"
       gradientUnits="userSpaceOnUse" />
    <linearGradient
       inkscape:collect="always"
       xlink:href="#linearGradient7067"
       id="linearGradient7069"
       x1="6"
       y1="61.5"
       x2="50"
       y2="29.5"
       gradientUnits="userSpaceOnUse" />
    <linearGradient
       inkscape:collect="always"
       xlink:href="#linearGradient7395"
       id="linearGradient7397"
       x1="32"
       y1="12"
       x2="32"
       y2="66"
       gradientUnits="userSpaceOnUse" />
  </defs>
  <path
     id="rect846-3"
     style="fill:url(#linearGradient5477);stroke-width:0.337527;fill-opacity:1"
     d="m 3.175,1.5875 h 10.583333 c 0.879475,0 1.5875,0.708025 1.5875,1.5875 v 10.583333 c 0,0.879475 -0.708025,1.5875 -1.5875,1.5875 H 3.175 c -0.879475,0 -1.5875,-0.708025 -1.5875,-1.5875 V 3.175 c 0,-0.879475 0.708025,-1.5875 1.5875,-1.5875 z" />
  <path
     id="rect846"
     style="opacity:0.3;fill:url(#linearGradient881);stroke-width:1.27569;fill-opacity:1"
     d="M 12 6 C 8.6760005 6 6 8.6760005 6 12 L 6 52 C 6 55.324 8.6760005 58 12 58 L 52 58 C 55.324 58 58 55.324 58 52 L 58 12 C 58 8.6760005 55.324 6 52 6 L 12 6 z M 12 7 L 52 7 C 54.77 7 57 9.23 57 12 L 57 52 C 57 54.77 54.77 57 52 57 L 12 57 C 9.23 57 7 54.77 7 52 L 7 12 C 7 9.23 9.23 7 12 7 z "
     transform="scale(0.26458333)" />
  <path
     id="rect6178"
     style="fill:url(#linearGradient7397);fill-opacity:1;stroke-width:0.98507"
     d="M 18 14 C 15.784 14 14 15.784 14 18 L 14 46 C 14 48.216 15.784 50 18 50 L 46 50 C 48.216 50 50 48.216 50 46 L 50 18 C 50 15.784 48.216 14 46 14 L 18 14 z M 29 16 L 32 16 L 32 19 L 35 19 L 35 22 L 32 22 L 32 25 L 35 25 L 35 28 L 32 28 L 32 31 L 35 31 L 35 34 L 32 34 L 32 37 L 29 37 L 29 34 L 32 34 L 32 31 L 29 31 L 29 28 L 32 28 L 32 25 L 29 25 L 29 22 L 32 22 L 32 19 L 29 19 L 29 16 z "
     transform="scale(0.26458333)" />
  <path
     id="rect6345-1"
     style="fill:url(#linearGradient7069);fill-opacity:1;stroke-width:0.660582;opacity:0.3"
     d="M 29 16 L 29 17 L 32 17 L 32 16 L 29 16 z M 32 19 L 32 20 L 35 20 L 35 19 L 32 19 z M 29 22 L 29 23 L 32 23 L 32 22 L 29 22 z M 32 25 L 32 26 L 35 26 L 35 25 L 32 25 z M 29 28 L 29 29 L 32 29 L 32 28 L 29 28 z M 32 31 L 32 32 L 35 32 L 35 31 L 32 31 z M 29 34 L 29 35 L 32 35 L 32 34 L 29 34 z M 14 46 L 14 47 C 14 49.216001 15.784 51 18 51 L 46 51 C 48.216001 51 50 49.216001 50 47 L 50 46 C 50 48.216001 48.216001 50 46 50 L 18 50 C 15.784 50 14 48.216001 14 46 z "
     transform="scale(0.26458333)" />
</svg>
