<?xml version="1.0" encoding="UTF-8" standalone="no"?>
<!-- Created with Inkscape (http://www.inkscape.org/) -->

<svg
   width="64"
   height="64"
   viewBox="0 0 16.933333 16.933333"
   version="1.1"
   id="svg5"
   inkscape:version="1.1.1 (3bf5ae0d25, 2021-09-20, custom)"
   sodipodi:docname="accessories-calendar.svg"
   xmlns:inkscape="http://www.inkscape.org/namespaces/inkscape"
   xmlns:sodipodi="http://sodipodi.sourceforge.net/DTD/sodipodi-0.dtd"
   xmlns:xlink="http://www.w3.org/1999/xlink"
   xmlns="http://www.w3.org/2000/svg"
   xmlns:svg="http://www.w3.org/2000/svg">
  <sodipodi:namedview
     id="namedview7"
     pagecolor="#ffffff"
     bordercolor="#666666"
     borderopacity="1.0"
     inkscape:pageshadow="2"
     inkscape:pageopacity="0.0"
     inkscape:pagecheckerboard="0"
     inkscape:document-units="px"
     showgrid="false"
     units="px"
     height="48px"
     inkscape:zoom="5.6399002"
     inkscape:cx="22.518129"
     inkscape:cy="36.259507"
     inkscape:window-width="1920"
     inkscape:window-height="1019"
     inkscape:window-x="0"
     inkscape:window-y="0"
     inkscape:window-maximized="1"
     inkscape:current-layer="svg5"
     inkscape:lockguides="true" />
  <defs
     id="defs2">
    <linearGradient
       inkscape:collect="always"
       id="linearGradient3771">
      <stop
         style="stop-color:#333333;stop-opacity:1"
         offset="0"
         id="stop3767" />
      <stop
         style="stop-color:#666666;stop-opacity:1"
         offset="1"
         id="stop3769" />
    </linearGradient>
    <linearGradient
       inkscape:collect="always"
       id="linearGradient3411">
      <stop
         style="stop-color:#000000;stop-opacity:1;"
         offset="0"
         id="stop3407" />
      <stop
         style="stop-color:#000000;stop-opacity:0;"
         offset="1"
         id="stop3409" />
    </linearGradient>
    <linearGradient
       inkscape:collect="always"
       id="linearGradient3379">
      <stop
         style="stop-color:#ff1c1c;stop-opacity:1"
         offset="0"
         id="stop3375" />
      <stop
         style="stop-color:#ff6262;stop-opacity:1"
         offset="1"
         id="stop3377" />
    </linearGradient>
    <linearGradient
       inkscape:collect="always"
       id="linearGradient1137">
      <stop
         style="stop-color:#f2f2f2;stop-opacity:1"
         offset="0"
         id="stop1133" />
      <stop
         style="stop-color:#ffffff;stop-opacity:1"
         offset="1"
         id="stop1135" />
    </linearGradient>
    <linearGradient
       inkscape:collect="always"
       id="linearGradient37218">
      <stop
         style="stop-color:#1a1a1a;stop-opacity:1"
         offset="0"
         id="stop37214" />
      <stop
         style="stop-color:#000000;stop-opacity:0.00392157"
         offset="0.49741825"
         id="stop37220" />
      <stop
         style="stop-color:#919191;stop-opacity:1"
         offset="1"
         id="stop37216" />
    </linearGradient>
    <linearGradient
       inkscape:collect="always"
       xlink:href="#linearGradient37218"
       id="linearGradient881"
       x1="64.208344"
       y1="64.062607"
       x2="0.30528301"
       y2="0.13507102"
       gradientUnits="userSpaceOnUse" />
    <linearGradient
       inkscape:collect="always"
       xlink:href="#linearGradient1137"
       id="linearGradient1139"
       x1="8.9958334"
       y1="18.520832"
       x2="8.9958334"
       y2="-2.7838135e-07"
       gradientUnits="userSpaceOnUse" />
    <linearGradient
       inkscape:collect="always"
       xlink:href="#linearGradient3379"
       id="linearGradient3381"
       x1="7.4081421e-09"
       y1="8.7312498"
       x2="16.933332"
       y2="0.26458335"
       gradientUnits="userSpaceOnUse" />
    <linearGradient
       inkscape:collect="always"
       xlink:href="#linearGradient3411"
       id="linearGradient3413"
       x1="9.9212599e-08"
       y1="63.926758"
       x2="56"
       y2="25.926758"
       gradientUnits="userSpaceOnUse" />
    <linearGradient
       inkscape:collect="always"
       xlink:href="#linearGradient3771"
       id="linearGradient3773"
       x1="54"
       y1="58.152344"
       x2="54"
       y2="22.152344"
       gradientUnits="userSpaceOnUse" />
  </defs>
  <path
     id="rect846-3"
     style="fill:url(#linearGradient1139);stroke-width:0.337527;fill-opacity:1"
     d="m 3.175,1.5875 h 10.583333 c 0.879475,0 1.5875,0.708025 1.5875,1.5875 v 10.583333 c 0,0.879475 -0.708025,1.5875 -1.5875,1.5875 H 3.175 c -0.879475,0 -1.5875,-0.708025 -1.5875,-1.5875 V 3.175 c 0,-0.879475 0.708025,-1.5875 1.5875,-1.5875 z" />
  <path
     id="rect855"
     style="opacity:1;fill:url(#linearGradient3381);stroke-width:0.264583"
     d="m 3.175,1.5875 h 10.583333 c 0.879475,0 1.5875,0.708025 1.5875,1.5875 V 5.2916667 H 1.5875 V 3.175 c 0,-0.879475 0.708025,-1.5875 1.5875,-1.5875 z"
     sodipodi:nodetypes="sssccss" />
  <path
     id="path3230"
     style="font-size:2.74322px;line-height:1.25;font-family:Pretendard;-inkscape-font-specification:Pretendard;fill:#ffffff;stroke-width:0.254119"
     d="M 17.724609 9.3535156 C 17.252106 9.3535156 16.822253 9.441154 16.4375 9.6132812 C 16.052747 9.7820326 15.750626 10.02206 15.53125 10.335938 C 15.311874 10.64644 15.203125 11.005153 15.203125 11.410156 C 15.19975 11.88941 15.357107 12.283248 15.677734 12.59375 C 16.001737 12.904252 16.465652 13.146765 17.066406 13.322266 L 17.966797 13.566406 C 18.267175 13.65078 18.520687 13.739484 18.726562 13.833984 C 18.932439 13.928485 19.097781 14.051248 19.222656 14.203125 C 19.350908 14.355001 19.414062 14.545358 19.414062 14.771484 C 19.414062 15.031361 19.336891 15.262342 19.181641 15.464844 C 19.029765 15.66397 18.81883 15.81778 18.548828 15.925781 C 18.282201 16.033783 17.980081 16.087891 17.642578 16.087891 C 17.345576 16.091264 17.071486 16.048688 16.818359 15.960938 C 16.568608 15.869812 16.363705 15.733033 16.205078 15.550781 C 16.046461 15.36853 15.955275 15.146064 15.931641 14.882812 L 15 14.882812 C 15.030375 15.287816 15.155623 15.644045 15.375 15.951172 C 15.594377 16.254924 15.896499 16.491939 16.28125 16.664062 C 16.669378 16.832813 17.122824 16.917969 17.642578 16.917969 C 18.196082 16.917969 18.674544 16.824297 19.076172 16.638672 C 19.477799 16.453045 19.782935 16.199534 19.992188 15.878906 C 20.20144 15.554904 20.304688 15.192644 20.304688 14.791016 C 20.304687 14.186886 20.101737 13.733971 19.693359 13.433594 C 19.284981 13.133217 18.797473 12.910751 18.230469 12.765625 L 17.5 12.564453 C 17.111872 12.469951 16.780658 12.333172 16.503906 12.154297 C 16.227156 11.972046 16.087361 11.710018 16.083984 11.369141 C 16.083984 11.136264 16.150154 10.928345 16.285156 10.746094 C 16.420158 10.563843 16.610515 10.421564 16.853516 10.320312 C 17.096517 10.215688 17.376107 10.164062 17.693359 10.164062 C 17.986987 10.164062 18.25203 10.209656 18.488281 10.300781 C 18.724533 10.388532 18.915421 10.51928 19.060547 10.691406 C 19.205673 10.860158 19.288875 11.062576 19.3125 11.298828 L 20.205078 11.298828 C 20.194954 10.93095 20.081237 10.600268 19.865234 10.306641 C 19.649233 10.009638 19.353143 9.7761727 18.978516 9.6074219 C 18.607263 9.438671 18.190363 9.3535156 17.724609 9.3535156 z M 36.738281 9.4550781 L 36.738281 12.158203 L 36.677734 12.158203 C 36.559606 11.972577 36.45139 11.823736 36.353516 11.708984 C 36.259015 11.594233 36.105204 11.483531 35.892578 11.378906 C 35.679951 11.270905 35.411893 11.216797 35.087891 11.216797 C 34.628887 11.216797 34.221034 11.333529 33.863281 11.566406 C 33.508903 11.795908 33.232329 12.124106 33.033203 12.552734 C 32.837451 12.981363 32.738281 13.482355 32.738281 14.052734 C 32.738281 14.626489 32.837452 15.128544 33.033203 15.560547 C 33.23233 15.989175 33.508904 16.319857 33.863281 16.552734 C 34.217659 16.782235 34.622497 16.896484 35.078125 16.896484 C 35.395379 16.896483 35.660421 16.844859 35.873047 16.740234 C 36.089048 16.635609 36.248358 16.521892 36.349609 16.400391 C 36.454234 16.275516 36.562983 16.12419 36.677734 15.945312 L 36.769531 15.945312 L 36.769531 16.785156 L 37.619141 16.785156 L 37.619141 9.4550781 L 36.738281 9.4550781 z M 29.751953 11.216797 C 29.350325 11.216797 29.014143 11.299467 28.744141 11.464844 C 28.477515 11.626845 28.27758 11.854811 28.142578 12.148438 L 28.072266 12.148438 L 28.072266 11.287109 L 27.230469 11.287109 L 27.230469 16.785156 L 28.101562 16.785156 L 28.101562 13.484375 C 28.101563 13.173874 28.161172 12.9083 28.279297 12.685547 C 28.397422 12.459421 28.560279 12.28858 28.769531 12.173828 C 28.978783 12.055703 29.218279 11.996094 29.488281 11.996094 C 29.879784 11.996094 30.186874 12.115842 30.40625 12.355469 C 30.625626 12.595096 30.734375 12.928263 30.734375 13.353516 L 30.734375 16.785156 L 31.605469 16.785156 L 31.605469 13.292969 C 31.605469 12.83734 31.52883 12.455034 31.376953 12.144531 C 31.225077 11.834029 31.011127 11.601095 30.734375 11.449219 C 30.457623 11.293968 30.129956 11.216797 29.751953 11.216797 z M 41.212891 11.216797 C 40.814637 11.216797 40.455393 11.281904 40.134766 11.410156 C 39.817515 11.535032 39.563472 11.70942 39.371094 11.935547 C 39.178716 12.161673 39.064459 12.421217 39.027344 12.714844 L 39.9375 12.714844 C 40.001616 12.495466 40.140879 12.318593 40.353516 12.183594 C 40.566142 12.045218 40.8397 11.976562 41.173828 11.976562 C 41.582199 11.976562 41.89035 12.07325 42.099609 12.265625 C 42.312246 12.454626 42.417969 12.725701 42.417969 13.080078 L 42.417969 13.525391 C 42.299843 13.528767 42.080393 13.539759 41.759766 13.556641 C 41.439131 13.57351 41.162557 13.59054 40.929688 13.607422 C 40.332308 13.651298 39.838769 13.791093 39.447266 14.027344 C 39.059138 14.26022 38.865234 14.659558 38.865234 15.226562 C 38.865234 15.57419 38.947914 15.876311 39.113281 16.132812 C 39.278656 16.385938 39.503607 16.579842 39.787109 16.714844 C 40.070612 16.846467 40.387279 16.914592 40.738281 16.917969 C 41.170286 16.914595 41.523499 16.823939 41.796875 16.648438 C 42.073632 16.46956 42.267536 16.26661 42.378906 16.037109 L 42.417969 16.037109 L 42.417969 16.785156 L 43.279297 16.785156 L 43.279297 13.162109 C 43.282671 12.402729 43.071737 11.889674 42.646484 11.623047 C 42.221232 11.353045 41.74277 11.216797 41.212891 11.216797 z M 21.5 11.287109 L 21.5 14.78125 C 21.5 15.233503 21.574155 15.61581 21.722656 15.929688 C 21.871157 16.24019 22.079076 16.473657 22.345703 16.628906 C 22.615705 16.780783 22.928826 16.857422 23.283203 16.857422 C 23.674706 16.857422 24.008404 16.76375 24.285156 16.578125 C 24.565283 16.392499 24.773733 16.150518 24.912109 15.853516 L 24.972656 15.853516 L 24.972656 16.785156 L 25.833984 16.785156 L 25.833984 11.287109 L 24.972656 11.287109 L 24.972656 14.527344 C 24.972656 14.851346 24.900986 15.127389 24.755859 15.353516 C 24.614109 15.576268 24.434753 15.742141 24.21875 15.853516 C 24.002748 15.964893 23.785783 16.019001 23.566406 16.015625 C 23.33353 16.015625 23.125611 15.964 22.943359 15.859375 C 22.764483 15.751374 22.624689 15.600049 22.523438 15.404297 C 22.422186 15.208546 22.371094 14.98058 22.371094 14.720703 L 22.371094 11.287109 L 21.5 11.287109 z M 44.039062 11.287109 L 46.074219 16.826172 L 45.912109 17.242188 C 45.820972 17.495315 45.726771 17.680703 45.628906 17.798828 C 45.531016 17.920327 45.431849 17.994483 45.333984 18.021484 C 45.239496 18.051859 45.119213 18.068889 44.970703 18.072266 C 44.727692 18.062136 44.585413 18.054158 44.544922 18.050781 L 44.544922 18.832031 C 44.619172 18.838784 44.781499 18.84481 45.03125 18.851562 C 45.422754 18.848189 45.753436 18.742455 46.023438 18.533203 C 46.293449 18.327327 46.509884 18.008175 46.671875 17.576172 L 49 11.287109 L 48.048828 11.287109 L 46.548828 15.652344 L 46.488281 15.652344 L 44.990234 11.287109 L 44.039062 11.287109 z M 35.199219 11.996094 C 35.533346 11.996094 35.817905 12.081249 36.050781 12.25 C 36.287033 12.415376 36.463905 12.651857 36.582031 12.958984 C 36.703532 13.266112 36.766157 13.622873 36.769531 14.03125 C 36.766157 14.446378 36.703533 14.811123 36.582031 15.125 C 36.46053 15.438877 36.281173 15.683874 36.044922 15.859375 C 35.812045 16.031502 35.529971 16.117188 35.199219 16.117188 C 34.861717 16.117187 34.573611 16.026001 34.333984 15.84375 C 34.097733 15.661499 33.918377 15.413487 33.796875 15.099609 C 33.67875 14.785732 33.619141 14.429503 33.619141 14.03125 C 33.619141 13.639747 33.67875 13.291502 33.796875 12.984375 C 33.915002 12.677248 34.091874 12.435267 34.328125 12.259766 C 34.567752 12.084265 34.858341 11.996094 35.199219 11.996094 z M 42.417969 14.240234 L 42.417969 14.791016 C 42.417969 15.027268 42.357827 15.249202 42.236328 15.455078 C 42.118195 15.660955 41.944337 15.826296 41.714844 15.951172 C 41.485341 16.076047 41.214268 16.138672 40.900391 16.138672 C 40.549398 16.138672 40.267324 16.064516 40.054688 15.916016 C 39.845327 15.767514 39.739604 15.55108 39.736328 15.267578 C 39.739705 14.977327 39.851479 14.755392 40.074219 14.603516 C 40.300345 14.451639 40.619498 14.362938 41.03125 14.335938 L 41.75 14.285156 C 42.117872 14.258158 42.340337 14.243611 42.417969 14.240234 z "
     transform="scale(0.26458333)" />
  <path
     id="path3206"
     style="font-size:8.85082px;line-height:1.25;font-family:Pretendard;-inkscape-font-specification:Pretendard;stroke-width:0.8363;fill:url(#linearGradient3773);fill-opacity:1"
     d="M 21.611328 26 C 20.19572 26 18.916814 26.294791 17.773438 26.882812 C 16.630061 27.470834 15.731483 28.291394 15.078125 29.347656 C 14.435656 30.403918 14.11997 31.618183 14.130859 32.990234 L 16.908203 32.990234 C 16.908203 32.108201 17.092655 31.336122 17.462891 30.671875 C 17.844016 30.007628 18.383163 29.489377 19.080078 29.119141 C 19.776993 28.738015 20.588082 28.548828 21.513672 28.548828 C 22.395705 28.548828 23.190633 28.717119 23.898438 29.054688 C 24.617131 29.392256 25.183863 29.864809 25.597656 30.474609 C 26.01145 31.073521 26.21875 31.771488 26.21875 32.566406 C 26.21875 33.274211 26.071355 33.949329 25.777344 34.591797 C 25.483333 35.234265 25.052571 35.904648 24.486328 36.601562 C 23.930974 37.287588 23.124621 38.195639 22.068359 39.328125 L 14 47.822266 L 14.033203 49.978516 L 29.386719 49.978516 L 29.386719 47.365234 L 18.115234 47.365234 L 18.115234 47.167969 L 23.539062 41.582031 C 24.954671 40.122864 26.049126 38.892439 26.822266 37.890625 C 27.595406 36.888809 28.139289 35.98076 28.455078 35.164062 C 28.781757 34.336476 28.950048 33.470218 28.960938 32.566406 C 28.960937 31.346805 28.645251 30.23619 28.013672 29.234375 C 27.382093 28.23256 26.506363 27.442367 25.384766 26.865234 C 24.274057 26.288102 23.016047 26 21.611328 26 z M 41.572266 26 C 40.145769 26 38.860173 26.271942 37.716797 26.816406 C 36.58431 27.360871 35.697156 28.112055 35.054688 29.070312 C 34.412219 30.017681 34.089844 31.084551 34.089844 32.271484 C 34.089844 33.12085 34.248664 33.915778 34.564453 34.65625 C 34.891132 35.396722 35.347525 36.023359 35.935547 36.535156 C 36.523569 37.046953 37.205375 37.390224 37.978516 37.564453 L 37.978516 37.695312 C 37.085593 37.836872 36.267816 38.189616 35.527344 38.755859 C 34.797761 39.322103 34.221558 40.040966 33.796875 40.912109 C 33.383082 41.772365 33.175781 42.703264 33.175781 43.705078 C 33.175781 44.968237 33.523788 46.101701 34.220703 47.103516 C 34.928507 48.105332 35.919312 48.888834 37.193359 49.455078 C 38.478296 50.021322 39.938872 50.304688 41.572266 50.304688 C 43.194771 50.304687 44.641967 50.021322 45.916016 49.455078 C 47.190062 48.888834 48.187555 48.105332 48.90625 47.103516 C 49.624998 46.101699 49.989165 44.968234 50 43.705078 C 49.98911 42.703264 49.765649 41.772365 49.330078 40.912109 C 48.905395 40.040966 48.322504 39.322103 47.582031 38.755859 C 46.852449 38.189616 46.048049 37.836873 45.166016 37.695312 L 45.166016 37.564453 C 45.928266 37.390224 46.603385 37.046953 47.191406 36.535156 C 47.77943 36.023359 48.235823 35.396722 48.5625 34.65625 C 48.900123 33.915778 49.075103 33.12085 49.085938 32.271484 C 49.07505 31.084551 48.743203 30.017681 48.089844 29.070312 C 47.436487 28.112055 46.537906 27.360871 45.394531 26.816406 C 44.262044 26.271942 42.987875 26 41.572266 26 z M 41.572266 28.548828 C 42.486967 28.548828 43.291367 28.712384 43.988281 29.039062 C 44.696086 29.365741 45.241922 29.82687 45.623047 30.425781 C 46.015062 31.024693 46.210938 31.715971 46.210938 32.5 C 46.210938 33.284029 46.008371 33.981996 45.605469 34.591797 C 45.213454 35.190708 44.664836 35.665214 43.957031 36.013672 C 43.260117 36.35124 42.465189 36.519531 41.572266 36.519531 C 40.679345 36.519531 39.877727 36.35124 39.169922 36.013672 C 38.473007 35.665214 37.924389 35.190708 37.521484 34.591797 C 37.12947 33.981996 36.933594 33.284029 36.933594 32.5 C 36.933594 31.715971 37.122781 31.024693 37.503906 30.425781 C 37.895922 29.82687 38.441757 29.365741 39.138672 29.039062 C 39.835587 28.712384 40.646677 28.548828 41.572266 28.548828 z M 41.572266 39.001953 C 42.61764 39.001953 43.553274 39.197831 44.380859 39.589844 C 45.219335 39.981859 45.873556 40.525742 46.341797 41.222656 C 46.820925 41.908683 47.060547 42.682716 47.060547 43.542969 C 47.060547 44.370557 46.837085 45.09889 46.390625 45.730469 C 45.944162 46.351158 45.306101 46.841824 44.478516 47.201172 C 43.65093 47.549629 42.682976 47.724609 41.572266 47.724609 C 40.450668 47.724609 39.476023 47.549629 38.648438 47.201172 C 37.820851 46.841824 37.189478 46.351158 36.753906 45.730469 C 36.318339 45.09889 36.104349 44.370557 36.115234 43.542969 C 36.104345 42.682716 36.334494 41.908683 36.802734 41.222656 C 37.270974 40.525742 37.918507 39.981859 38.746094 39.589844 C 39.584569 39.197831 40.526894 39.001953 41.572266 39.001953 z "
     transform="scale(0.26458333)" />
  <path
     id="path3206-3"
     style="font-size:8.85082px;line-height:1.25;font-family:Pretendard;-inkscape-font-specification:Pretendard;stroke-width:0.8363;fill-opacity:1;fill:url(#linearGradient3413);opacity:0.3"
     d="M 21.513672 28.548828 C 20.588082 28.548828 19.776993 28.738015 19.080078 29.119141 C 18.383163 29.489377 17.844016 30.007628 17.462891 30.671875 C 17.092655 31.336122 16.908203 32.108201 16.908203 32.990234 L 14.183594 32.990234 C 14.145491 33.31352 14.128137 33.647222 14.130859 33.990234 L 16.908203 33.990234 C 16.908203 33.108201 17.092655 32.336122 17.462891 31.671875 C 17.844016 31.007628 18.383163 30.489377 19.080078 30.119141 C 19.776993 29.738015 20.588082 29.548828 21.513672 29.548828 C 22.395705 29.548828 23.190633 29.717119 23.898438 30.054688 C 24.617129 30.392256 25.183862 30.864809 25.597656 31.474609 C 25.9275 31.952014 26.124384 32.493486 26.191406 33.095703 C 26.210094 32.921582 26.21875 32.744674 26.21875 32.566406 C 26.21875 31.771488 26.01145 31.073522 25.597656 30.474609 C 25.183862 29.864809 24.617129 29.392256 23.898438 29.054688 C 23.190633 28.717119 22.395705 28.548828 21.513672 28.548828 z M 41.572266 28.548828 C 40.646678 28.548828 39.835587 28.712387 39.138672 29.039062 C 38.441757 29.365741 37.895927 29.82687 37.503906 30.425781 C 37.122798 31.024693 36.933594 31.715971 36.933594 32.5 C 36.933594 32.668293 36.944838 32.831846 36.962891 32.992188 C 37.028396 32.414427 37.207485 31.891607 37.503906 31.425781 C 37.895925 30.82687 38.441757 30.365741 39.138672 30.039062 C 39.835587 29.712387 40.646678 29.548828 41.572266 29.548828 C 42.486968 29.548828 43.291367 29.712384 43.988281 30.039062 C 44.696085 30.365742 45.241919 30.82687 45.623047 31.425781 C 45.929323 31.893706 46.11469 32.419128 46.181641 33 C 46.200884 32.837235 46.210938 32.670972 46.210938 32.5 C 46.210938 31.715971 46.015059 31.024693 45.623047 30.425781 C 45.241919 29.82687 44.696085 29.365742 43.988281 29.039062 C 43.291367 28.712384 42.486968 28.548828 41.572266 28.548828 z M 49.058594 32.755859 C 48.998832 33.42467 48.835085 34.058422 48.5625 34.65625 C 48.235824 35.396722 47.779433 36.023358 47.191406 36.535156 C 46.603387 37.04695 45.928263 37.390217 45.166016 37.564453 L 45.166016 37.695312 C 45.609073 37.766422 46.033262 37.890386 46.4375 38.068359 C 46.702313 37.91703 46.9548 37.741091 47.191406 37.535156 C 47.779433 37.023358 48.235824 36.396722 48.5625 35.65625 C 48.900121 34.915778 49.075102 34.12085 49.085938 33.271484 C 49.084335 33.096789 49.074104 32.925355 49.058594 32.755859 z M 34.111328 32.771484 C 34.098217 32.935899 34.089844 33.102186 34.089844 33.271484 C 34.089844 34.12085 34.248658 34.915778 34.564453 35.65625 C 34.891118 36.396722 35.347524 37.023358 35.935547 37.535156 C 36.172057 37.741007 36.42471 37.917068 36.691406 38.068359 C 37.101234 37.890771 37.530597 37.766315 37.978516 37.695312 L 37.978516 37.564453 C 37.205371 37.390224 36.523566 37.04695 35.935547 36.535156 C 35.347524 36.023358 34.891118 35.396722 34.564453 34.65625 C 34.311478 34.063077 34.161886 33.434539 34.111328 32.771484 z M 28.939453 33.035156 C 28.885136 33.770637 28.724819 34.48069 28.455078 35.164062 C 28.139291 35.980761 27.595406 36.888807 26.822266 37.890625 C 26.049125 38.892438 24.954672 40.122861 23.539062 41.582031 L 18.115234 47.167969 L 18.115234 47.365234 L 18.894531 47.365234 L 23.539062 42.582031 C 24.954672 41.122861 26.049125 39.892438 26.822266 38.890625 C 27.595406 37.888808 28.139291 36.980761 28.455078 36.164062 C 28.781743 35.336477 28.950049 34.470218 28.960938 33.566406 C 28.960938 33.386984 28.953118 33.209862 28.939453 33.035156 z M 41.572266 39.001953 C 40.526894 39.001953 39.584571 39.197831 38.746094 39.589844 C 37.918509 39.98186 37.270972 40.525742 36.802734 41.222656 C 36.334485 41.908682 36.104274 42.682714 36.115234 43.542969 C 36.113009 43.712192 36.122121 43.876165 36.138672 44.037109 C 36.20703 43.376722 36.428216 42.771358 36.802734 42.222656 C 37.270972 41.525742 37.918509 40.98186 38.746094 40.589844 C 39.584571 40.197831 40.526894 40.001953 41.572266 40.001953 C 42.617641 40.001953 43.553275 40.197846 44.380859 40.589844 C 45.219336 40.98186 45.873555 41.525742 46.341797 42.222656 C 46.724651 42.770836 46.954306 43.375502 47.03125 44.035156 C 47.049778 43.87484 47.060547 43.711496 47.060547 43.542969 C 47.060547 42.682714 46.820924 41.908682 46.341797 41.222656 C 45.873555 40.525742 45.219336 39.98186 44.380859 39.589844 C 43.553275 39.197846 42.617641 39.001953 41.572266 39.001953 z M 33.195312 44.212891 C 33.183922 44.375076 33.175781 44.538996 33.175781 44.705078 C 33.175781 45.968238 33.523804 47.101703 34.220703 48.103516 C 34.92851 49.105332 35.919311 49.888833 37.193359 50.455078 C 38.478299 51.021319 39.938875 51.304688 41.572266 51.304688 C 43.194771 51.304688 44.641967 51.021335 45.916016 50.455078 C 47.190064 49.888833 48.187558 49.105332 48.90625 48.103516 C 49.624999 47.101699 49.989168 45.968234 50 44.705078 C 49.998183 44.538994 49.988101 44.375078 49.974609 44.212891 C 49.882131 45.273566 49.527159 46.238071 48.90625 47.103516 C 48.187558 48.105332 47.190064 48.888833 45.916016 49.455078 C 44.641967 50.021335 43.194771 50.304688 41.572266 50.304688 C 39.938875 50.304687 38.478301 50.021319 37.193359 49.455078 C 35.919311 48.888833 34.92851 48.105332 34.220703 47.103516 C 33.618669 46.238074 33.277177 45.273569 33.195312 44.212891 z M 14.015625 48.806641 L 14 48.822266 L 14.033203 50.978516 L 29.386719 50.978516 L 29.386719 49.978516 L 14.033203 49.978516 L 14.015625 48.806641 z "
     transform="scale(0.26458333)" />
  <path
     id="rect846"
     style="opacity:0.3;fill:url(#linearGradient881);stroke-width:1.27569;fill-opacity:1"
     d="M 12 6 C 8.6760005 6 6 8.6760005 6 12 L 6 52 C 6 55.324 8.6760005 58 12 58 L 52 58 C 55.324 58 58 55.324 58 52 L 58 12 C 58 8.6760005 55.324 6 52 6 L 12 6 z M 12 7 L 52 7 C 54.77 7 57 9.23 57 12 L 57 52 C 57 54.77 54.77 57 52 57 L 12 57 C 9.23 57 7 54.77 7 52 L 7 12 C 7 9.23 9.23 7 12 7 z "
     transform="scale(0.26458333)" />
</svg>
