<?xml version="1.0" encoding="UTF-8" standalone="no"?>
<!-- Created with Inkscape (http://www.inkscape.org/) -->

<svg
   width="64"
   height="64"
   viewBox="0 0 16.933333 16.933333"
   version="1.1"
   id="svg5"
   inkscape:version="1.1.1 (3bf5ae0d25, 2021-09-20, custom)"
   sodipodi:docname="accessories-screenshot.svg"
   xmlns:inkscape="http://www.inkscape.org/namespaces/inkscape"
   xmlns:sodipodi="http://sodipodi.sourceforge.net/DTD/sodipodi-0.dtd"
   xmlns:xlink="http://www.w3.org/1999/xlink"
   xmlns="http://www.w3.org/2000/svg"
   xmlns:svg="http://www.w3.org/2000/svg">
  <sodipodi:namedview
     id="namedview7"
     pagecolor="#ffffff"
     bordercolor="#666666"
     borderopacity="1.0"
     inkscape:pageshadow="2"
     inkscape:pageopacity="0.0"
     inkscape:pagecheckerboard="0"
     inkscape:document-units="px"
     showgrid="false"
     units="px"
     height="48px"
     inkscape:zoom="3.9999998"
     inkscape:cx="-2.0000001"
     inkscape:cy="32.125001"
     inkscape:window-width="1920"
     inkscape:window-height="1019"
     inkscape:window-x="0"
     inkscape:window-y="0"
     inkscape:window-maximized="1"
     inkscape:current-layer="svg5"
     inkscape:lockguides="true" />
  <defs
     id="defs2">
    <linearGradient
       inkscape:collect="always"
       id="linearGradient6340">
      <stop
         style="stop-color:#ffffff;stop-opacity:1;"
         offset="0"
         id="stop6336" />
      <stop
         style="stop-color:#02ffd7;stop-opacity:1"
         offset="1"
         id="stop6338" />
    </linearGradient>
    <linearGradient
       inkscape:collect="always"
       id="linearGradient5902">
      <stop
         style="stop-color:#000000;stop-opacity:1;"
         offset="0"
         id="stop5898" />
      <stop
         style="stop-color:#000000;stop-opacity:0;"
         offset="1"
         id="stop5900" />
    </linearGradient>
    <linearGradient
       inkscape:collect="always"
       id="linearGradient5099">
      <stop
         style="stop-color:#20cad8;stop-opacity:1"
         offset="0"
         id="stop5095" />
      <stop
         style="stop-color:#55e5c0;stop-opacity:1"
         offset="1"
         id="stop5097" />
    </linearGradient>
    <linearGradient
       inkscape:collect="always"
       id="linearGradient37218">
      <stop
         style="stop-color:#1a1a1a;stop-opacity:1"
         offset="0"
         id="stop37214" />
      <stop
         style="stop-color:#e6e6e6;stop-opacity:0.00306325"
         offset="0.49741825"
         id="stop37220" />
      <stop
         style="stop-color:#ffffff;stop-opacity:1"
         offset="1"
         id="stop37216" />
    </linearGradient>
    <linearGradient
       inkscape:collect="always"
       xlink:href="#linearGradient37218"
       id="linearGradient881"
       x1="64.208344"
       y1="64.062607"
       x2="0.30528301"
       y2="0.13507102"
       gradientUnits="userSpaceOnUse" />
    <linearGradient
       inkscape:collect="always"
       xlink:href="#linearGradient5099"
       id="linearGradient5101"
       x1="0.52916664"
       y1="16.933332"
       x2="0.52916646"
       y2="-2.7838135e-07"
       gradientUnits="userSpaceOnUse" />
    <linearGradient
       inkscape:collect="always"
       xlink:href="#linearGradient5902"
       id="linearGradient5904"
       x1="12"
       y1="50"
       x2="54"
       y2="18"
       gradientUnits="userSpaceOnUse" />
    <linearGradient
       inkscape:collect="always"
       xlink:href="#linearGradient6340"
       id="linearGradient6344"
       x1="14"
       y1="32"
       x2="14"
       y2="58"
       gradientUnits="userSpaceOnUse" />
  </defs>
  <path
     id="rect846-3"
     style="fill:url(#linearGradient5101);stroke-width:0.337527;fill-opacity:1"
     d="m 3.175,1.5875 h 10.583333 c 0.879475,0 1.5875,0.708025 1.5875,1.5875 v 10.583333 c 0,0.879475 -0.708025,1.5875 -1.5875,1.5875 H 3.175 c -0.879475,0 -1.5875,-0.708025 -1.5875,-1.5875 V 3.175 c 0,-0.879475 0.708025,-1.5875 1.5875,-1.5875 z" />
  <path
     id="rect846"
     style="opacity:0.3;fill:url(#linearGradient881);stroke-width:1.27569;fill-opacity:1"
     d="M 12 6 C 8.6760005 6 6 8.6760005 6 12 L 6 52 C 6 55.324 8.6760005 58 12 58 L 52 58 C 55.324 58 58 55.324 58 52 L 58 12 C 58 8.6760005 55.324 6 52 6 L 12 6 z M 12 7 L 52 7 C 54.77 7 57 9.23 57 12 L 57 52 C 57 54.77 54.77 57 52 57 L 12 57 C 9.23 57 7 54.77 7 52 L 7 12 C 7 9.23 9.23 7 12 7 z "
     transform="scale(0.26458333)" />
  <path
     id="rect849"
     style="fill:url(#linearGradient6344);stroke-width:0.649633;fill-opacity:1"
     d="m 19,17 v 5 h -5 v 2 h 5 v 18 h 24 v 5 h 2 v -5 h 5 V 40 H 45 V 22 H 21 v -5 z m 2,7 H 43 V 40 H 21 Z"
     transform="scale(0.26458333)"
     sodipodi:nodetypes="cccccccccccccccccccccc" />
  <path
     id="rect849-6"
     style="opacity:0.3;fill:url(#linearGradient5904);stroke-width:0.649633;fill-opacity:1"
     d="M 14 24 L 14 25 L 19 25 L 19 24 L 14 24 z M 21 24 L 21 25 L 43 25 L 43 24 L 21 24 z M 19 42 L 19 43 L 43 43 L 43 42 L 19 42 z M 45 42 L 45 43 L 50 43 L 50 42 L 45 42 z M 43 47 L 43 48 L 45 48 L 45 47 L 43 47 z "
     transform="scale(0.26458333)" />
</svg>
