<?xml version="1.0" encoding="UTF-8" standalone="no"?>
<!-- Created with Inkscape (http://www.inkscape.org/) -->

<svg
   width="64"
   height="64"
   viewBox="0 0 16.933333 16.933333"
   version="1.1"
   id="svg5"
   inkscape:version="1.1.1 (3bf5ae0d25, 2021-09-20, custom)"
   sodipodi:docname="accessories-camera.svg"
   xmlns:inkscape="http://www.inkscape.org/namespaces/inkscape"
   xmlns:sodipodi="http://sodipodi.sourceforge.net/DTD/sodipodi-0.dtd"
   xmlns:xlink="http://www.w3.org/1999/xlink"
   xmlns="http://www.w3.org/2000/svg"
   xmlns:svg="http://www.w3.org/2000/svg">
  <sodipodi:namedview
     id="namedview7"
     pagecolor="#ffffff"
     bordercolor="#666666"
     borderopacity="1.0"
     inkscape:pageshadow="2"
     inkscape:pageopacity="0.0"
     inkscape:pagecheckerboard="0"
     inkscape:document-units="px"
     showgrid="false"
     units="px"
     height="48px"
     inkscape:zoom="5.656854"
     inkscape:cx="-1.5909903"
     inkscape:cy="28.107496"
     inkscape:window-width="1920"
     inkscape:window-height="1011"
     inkscape:window-x="0"
     inkscape:window-y="0"
     inkscape:window-maximized="1"
     inkscape:current-layer="svg5"
     inkscape:lockguides="true" />
  <defs
     id="defs2">
    <linearGradient
       inkscape:collect="always"
       id="linearGradient1435">
      <stop
         style="stop-color:#929ea8;stop-opacity:1"
         offset="0"
         id="stop1431" />
      <stop
         style="stop-color:#cdd3d7;stop-opacity:1"
         offset="1"
         id="stop1433" />
    </linearGradient>
    <linearGradient
       inkscape:collect="always"
       id="linearGradient4388">
      <stop
         style="stop-color:#000000;stop-opacity:1;"
         offset="0"
         id="stop4384" />
      <stop
         style="stop-color:#000000;stop-opacity:0;"
         offset="1"
         id="stop4386" />
    </linearGradient>
    <linearGradient
       inkscape:collect="always"
       id="linearGradient3407">
      <stop
         style="stop-color:#4d4d4d;stop-opacity:1;"
         offset="0"
         id="stop3403" />
      <stop
         style="stop-color:#808080;stop-opacity:1"
         offset="1"
         id="stop3405" />
    </linearGradient>
    <linearGradient
       inkscape:collect="always"
       id="linearGradient37218">
      <stop
         style="stop-color:#1a1a1a;stop-opacity:1"
         offset="0"
         id="stop37214" />
      <stop
         style="stop-color:#e6e6e6;stop-opacity:0.00306325"
         offset="0.49741825"
         id="stop37220" />
      <stop
         style="stop-color:#ffffff;stop-opacity:1"
         offset="1"
         id="stop37216" />
    </linearGradient>
    <linearGradient
       inkscape:collect="always"
       xlink:href="#linearGradient37218"
       id="linearGradient881"
       x1="64.208344"
       y1="64.062607"
       x2="0.30528301"
       y2="0.13507102"
       gradientUnits="userSpaceOnUse" />
    <linearGradient
       inkscape:collect="always"
       xlink:href="#linearGradient3407"
       id="linearGradient3409"
       x1="56"
       y1="55.999996"
       x2="56"
       y2="11.999996"
       gradientUnits="userSpaceOnUse" />
    <linearGradient
       inkscape:collect="always"
       xlink:href="#linearGradient4388"
       id="linearGradient4390"
       x1="1.0583334"
       y1="14.022918"
       x2="16.933332"
       y2="7.1437507"
       gradientUnits="userSpaceOnUse"
       gradientTransform="scale(3.7795276)" />
    <linearGradient
       inkscape:collect="always"
       xlink:href="#linearGradient1435"
       id="linearGradient1437"
       x1="16.933332"
       y1="16.933332"
       x2="16.933332"
       y2="-2.7838135e-07"
       gradientUnits="userSpaceOnUse" />
  </defs>
  <path
     id="rect846-3"
     style="fill:url(#linearGradient1437);stroke-width:0.337527;fill-opacity:1"
     d="m 3.175,1.5875 h 10.583333 c 0.879475,0 1.5875,0.708025 1.5875,1.5875 v 10.583333 c 0,0.879475 -0.708025,1.5875 -1.5875,1.5875 H 3.175 c -0.879475,0 -1.5875,-0.708025 -1.5875,-1.5875 V 3.175 c 0,-0.879475 0.708025,-1.5875 1.5875,-1.5875 z" />
  <path
     id="rect846"
     style="opacity:0.3;fill:url(#linearGradient881);stroke-width:1.27569;fill-opacity:1"
     d="M 12 6 C 8.6760005 6 6 8.6760005 6 12 L 6 52 C 6 55.324 8.6760005 58 12 58 L 52 58 C 55.324 58 58 55.324 58 52 L 58 12 C 58 8.6760005 55.324 6 52 6 L 12 6 z M 12 7 L 52 7 C 54.77 7 57 9.23 57 12 L 57 52 C 57 54.77 54.77 57 52 57 L 12 57 C 9.23 57 7 54.77 7 52 L 7 12 C 7 9.23 9.23 7 12 7 z "
     transform="scale(0.26458333)" />
  <path
     id="rect849"
     style="opacity:1;fill:url(#linearGradient3409);stroke-width:1.84647;stroke-linejoin:round;fill-opacity:1"
     d="M 27.498047 17 C 26.971284 17.0012 26.48499 17.278251 26.214844 17.730469 L 23.654297 22 L 17 22 C 15.338 22 14 23.338 14 25 L 14 44 C 14 45.662 15.338 47 17 47 L 47 47 C 48.662 47 50 45.662 50 44 L 50 25 C 50 23.338 48.662 22 47 22 L 40.347656 22 L 37.789062 17.730469 C 37.517566 17.27599 37.027442 16.998597 36.498047 17 L 27.498047 17 z M 32 26 A 7.9999998 7.9999998 0 0 1 40 34 A 7.9999998 7.9999998 0 0 1 32 42 A 7.9999998 7.9999998 0 0 1 24 34 A 7.9999998 7.9999998 0 0 1 32 26 z M 32 28 A 6 6 0 0 0 26 34 A 6 6 0 0 0 32 40 A 6 6 0 0 0 38 34 A 6 6 0 0 0 32 28 z "
     transform="scale(0.26458333)" />
  <path
     id="rect849-5"
     style="opacity:0.3;fill:url(#linearGradient4390);fill-opacity:1;stroke-width:1.84647;stroke-linejoin:round"
     d="M 32 26 A 7.9999999 7.9999999 0 0 0 24 34 A 7.9999999 7.9999999 0 0 0 24.025391 34.5 A 7.9999999 7.9999999 0 0 1 32 27 A 7.9999999 7.9999999 0 0 1 39.982422 34.5 A 7.9999999 7.9999999 0 0 0 40 34 A 7.9999999 7.9999999 0 0 0 32 26 z M 37.972656 34.445312 A 6.0000001 6.0000001 0 0 1 32 40 A 6.0000001 6.0000001 0 0 1 26.029297 34.5 A 6.0000001 6.0000001 0 0 0 26 35 A 6.0000001 6.0000001 0 0 0 32 41 A 6.0000001 6.0000001 0 0 0 38 35 A 6.0000001 6.0000001 0 0 0 37.972656 34.445312 z M 14 44 L 14 45 C 14 46.661998 15.338 48 17 48 L 47 48 C 48.662002 48 50 46.661998 50 45 L 50 44 C 50 45.661998 48.662002 47 47 47 L 17 47 C 15.338 47 14 45.661998 14 44 z "
     transform="scale(0.26458333)" />
</svg>
