<?xml version="1.0" encoding="UTF-8" standalone="no"?>
<!-- Created with Inkscape (http://www.inkscape.org/) -->

<svg
   width="64"
   height="64"
   viewBox="0 0 16.933333 16.933333"
   version="1.1"
   id="svg5"
   inkscape:version="1.1.1 (3bf5ae0d25, 2021-09-20, custom)"
   sodipodi:docname="accessories-ebook-reader.svg"
   xmlns:inkscape="http://www.inkscape.org/namespaces/inkscape"
   xmlns:sodipodi="http://sodipodi.sourceforge.net/DTD/sodipodi-0.dtd"
   xmlns:xlink="http://www.w3.org/1999/xlink"
   xmlns="http://www.w3.org/2000/svg"
   xmlns:svg="http://www.w3.org/2000/svg">
  <sodipodi:namedview
     id="namedview7"
     pagecolor="#ffffff"
     bordercolor="#666666"
     borderopacity="1.0"
     inkscape:pageshadow="2"
     inkscape:pageopacity="0.0"
     inkscape:pagecheckerboard="0"
     inkscape:document-units="px"
     showgrid="false"
     units="px"
     height="48px"
     inkscape:zoom="17.810252"
     inkscape:cx="28.522898"
     inkscape:cy="39.359353"
     inkscape:window-width="1920"
     inkscape:window-height="1011"
     inkscape:window-x="0"
     inkscape:window-y="0"
     inkscape:window-maximized="1"
     inkscape:current-layer="svg5"
     inkscape:lockguides="true" />
  <defs
     id="defs2">
    <linearGradient
       inkscape:collect="always"
       id="linearGradient8961">
      <stop
         style="stop-color:#ffffff;stop-opacity:1;"
         offset="0"
         id="stop8957" />
      <stop
         style="stop-color:#b3ed80;stop-opacity:1"
         offset="1"
         id="stop8959" />
    </linearGradient>
    <linearGradient
       inkscape:collect="always"
       id="linearGradient8650">
      <stop
         style="stop-color:#000000;stop-opacity:1;"
         offset="0"
         id="stop8646" />
      <stop
         style="stop-color:#000000;stop-opacity:0;"
         offset="1"
         id="stop8648" />
    </linearGradient>
    <linearGradient
       inkscape:collect="always"
       id="linearGradient37218">
      <stop
         style="stop-color:#1a1a1a;stop-opacity:1"
         offset="0"
         id="stop37214" />
      <stop
         style="stop-color:#e6e6e6;stop-opacity:0.00306325"
         offset="0.49741825"
         id="stop37220" />
      <stop
         style="stop-color:#ffffff;stop-opacity:1"
         offset="1"
         id="stop37216" />
    </linearGradient>
    <linearGradient
       inkscape:collect="always"
       id="linearGradient849">
      <stop
         style="stop-color:#5fbc6b;stop-opacity:1"
         offset="0"
         id="stop845" />
      <stop
         style="stop-color:#99bc6b;stop-opacity:1"
         offset="1"
         id="stop847" />
    </linearGradient>
    <linearGradient
       inkscape:collect="always"
       xlink:href="#linearGradient37218"
       id="linearGradient1781"
       x1="64"
       y1="64"
       x2="4.5354329e-07"
       y2="4.5354329e-07"
       gradientUnits="userSpaceOnUse"
       gradientTransform="scale(0.26458333)" />
    <linearGradient
       inkscape:collect="always"
       xlink:href="#linearGradient8961"
       id="linearGradient991"
       gradientUnits="userSpaceOnUse"
       x1="38.724068"
       y1="0.00011522698"
       x2="38.724068"
       y2="41.222328"
       gradientTransform="matrix(1.0588235,0,0,1.0588235,13,18.999879)" />
    <linearGradient
       inkscape:collect="always"
       xlink:href="#linearGradient8650"
       id="linearGradient1764"
       x1="13"
       y1="56.977016"
       x2="53"
       y2="18.977016"
       gradientUnits="userSpaceOnUse" />
    <linearGradient
       inkscape:collect="always"
       xlink:href="#linearGradient849"
       id="linearGradient3002"
       x1="0.52916664"
       y1="16.933334"
       x2="0.529167"
       y2="6.7529299e-07"
       gradientUnits="userSpaceOnUse" />
  </defs>
  <path
     id="rect863"
     style="fill:url(#linearGradient3002);stroke-width:0.264583;fill-opacity:1"
     d="M 3.1750001,1.0583333 H 13.758333 c 1.172634,0 2.116667,0.944034 2.116667,2.116667 V 13.758333 c 0,1.172634 -0.944033,2.116667 -2.116667,2.116667 H 3.1750001 c -1.1726328,0 -2.1166668,-0.944033 -2.1166668,-2.116667 V 3.1750003 c 0,-1.172633 0.944034,-2.116667 2.1166668,-2.116667 z" />
  <path
     id="rect1345"
     style="opacity:0.3;fill:url(#linearGradient1781);fill-opacity:1;stroke-width:0.264583"
     d="m 3.1750001,1.0583333 c -1.1726328,0 -2.1166668,0.944034 -2.1166668,2.116667 V 13.758333 c 0,1.172634 0.944034,2.116667 2.1166668,2.116667 H 13.758334 c 1.172633,0 2.116666,-0.944033 2.116666,-2.116667 V 3.1750003 c 0,-1.172633 -0.944033,-2.116667 -2.116666,-2.116667 z m 0,0.264584 H 13.758334 c 1.026054,0 1.852083,0.826029 1.852083,1.852083 V 13.758333 c 0,1.026054 -0.826029,1.852084 -1.852083,1.852084 H 3.1750001 c -1.026054,0 -1.8520828,-0.82603 -1.8520828,-1.852084 V 3.1750003 c 0,-1.026054 0.8260288,-1.852083 1.8520828,-1.852083 z" />
  <path
     id="path888"
     style="color:#000000;fill:url(#linearGradient991);fill-opacity:1;stroke:none;stroke-width:1.05882;stroke-linecap:round;stroke-linejoin:round;-inkscape-stroke:none"
     d="M 21.998047 19 C 17.040849 19.016781 14.174995 21.203403 14.152344 21.220703 C 13.917883 21.359053 13.66814 21.516989 13.449219 21.736328 C 13.217311 21.968678 13 22.294575 13 22.705078 L 13 44.941406 C 13.001164 45.365836 13.477163 45.615634 13.828125 45.376953 C 13.828125 45.376953 14.956434 44.606257 16.560547 43.830078 C 18.16466 43.053899 20.236572 42.296173 22.009766 42.294922 C 26.153942 42.357095 26.699502 43.166799 28.923828 43.992188 C 29.101878 44.003148 29.275589 44.028403 29.65625 43.966797 C 29.925088 43.923295 30.216254 43.851742 30.488281 43.666016 C 30.760305 43.480327 30.999896 43.116283 31 42.712891 L 31 24.824219 C 30.999963 24.809025 30.999439 24.792454 30.998047 24.777344 C 30.77901 22.264916 28.924513 20.791711 26.996094 20.007812 C 25.067674 19.223914 23.007519 19.040171 22.021484 19 C 22.013963 18.999838 22.005606 18.999838 21.998047 19 z M 42.001953 19 C 41.01592 19.040171 38.955763 19.223914 37.027344 20.007812 C 35.098923 20.791711 33.244414 22.264916 33.025391 24.777344 C 33.024 24.792613 33.023475 24.809101 33.023438 24.824219 L 33.023438 42.714844 C 33.02354 43.118237 33.261191 43.480327 33.533203 43.666016 C 33.805231 43.851742 34.09835 43.923295 34.367188 43.966797 C 34.747846 44.028403 34.921556 44.003148 35.099609 43.992188 C 37.323933 43.166799 37.869492 42.357095 42.013672 42.294922 C 43.786864 42.296173 45.858776 43.053899 47.462891 43.830078 C 49.067005 44.606257 50.195312 45.376953 50.195312 45.376953 C 50.546276 45.615634 51.022273 45.365836 51.023438 44.941406 L 51.023438 22.707031 C 51.023438 22.296528 50.806131 21.968678 50.574219 21.736328 C 50.355297 21.516989 50.105538 21.359053 49.871094 21.220703 C 49.848439 21.203403 46.982589 19.016781 42.025391 19 C 42.017832 18.999838 42.009512 18.999838 42.001953 19 z "
     transform="scale(0.26458333)" />
  <path
     id="path888-7"
     style="color:#000000;opacity:0.3;fill:url(#linearGradient1764);fill-opacity:1;stroke:none;stroke-width:1.05882;stroke-linecap:round;stroke-linejoin:round;-inkscape-stroke:none"
     d="M 13.023438,23.484375 C 13.009494,23.555337 13,23.628109 13,23.705078 v 22.236328 c 0.0012,0.42443 0.47521,0.674228 0.826172,0.435547 0,0 1.130262,-0.770696 2.734375,-1.546875 1.604114,-0.776175 3.676026,-1.533905 5.449219,-1.535156 4.144176,0.06217 4.689736,0.871877 6.914062,1.697266 0.17805,0.01096 0.35176,0.03621 0.732422,-0.02539 0.268838,-0.0435 0.560004,-0.115055 0.832031,-0.300781 C 30.760305,44.480327 30.999895,44.116283 31,43.712891 v -0.789063 c -0.06505,0.315923 -0.264981,0.589753 -0.488281,0.742188 -0.272024,0.185726 -0.563194,0.257279 -0.832031,0.300781 -0.380663,0.06161 -0.554369,0.03635 -0.732422,0.02539 -2.224324,-0.825389 -2.769888,-1.635093 -6.914063,-1.697266 -1.773193,0.0013 -3.845105,0.758981 -5.449219,1.535156 -1.604112,0.776179 -2.734375,1.546875 -2.734375,1.546875 -0.350961,0.238681 -0.825007,-0.01112 -0.826171,-0.435547 z m 20,2.095703 c -0.0081,0.06518 -0.01568,0.130631 -0.02148,0.197266 -0.0014,0.01512 -0.0019,0.03167 -0.002,0.04687 v 17.888672 c 1.02e-4,0.403392 0.237752,0.767436 0.509766,0.953125 0.272027,0.185726 0.565146,0.257279 0.833984,0.300781 0.380659,0.06161 0.554368,0.03635 0.732422,0.02539 2.224322,-0.825389 2.767929,-1.635093 6.912109,-1.697266 1.773192,0.0013 3.845104,0.758981 5.449219,1.535156 1.604115,0.776179 2.734375,1.546875 2.734375,1.546875 C 50.522842,46.61563 50.998832,46.365991 51,45.941406 v -0.84375 c -0.09977,0.324991 -0.499448,0.486877 -0.804688,0.279297 10e-7,0 -1.13026,-0.770696 -2.734374,-1.546875 -1.604115,-0.776175 -3.676027,-1.533905 -5.449219,-1.535156 -4.14418,0.06217 -4.68779,0.871877 -6.91211,1.697266 -0.178053,0.01096 -0.351763,0.03621 -0.732421,-0.02539 -0.268838,-0.0435 -0.561972,-0.115055 -0.833985,-0.300781 -0.272035,-0.185689 -0.509663,-0.549733 -0.509765,-0.953125 z"
     transform="scale(0.26458333)" />
</svg>
