<?xml version="1.0" encoding="UTF-8" standalone="no"?>
<!-- Created with Inkscape (http://www.inkscape.org/) -->

<svg
   width="64"
   height="64"
   viewBox="0 0 16.933333 16.933333"
   version="1.1"
   id="svg5"
   inkscape:version="1.1.1 (3bf5ae0d25, 2021-09-20, custom)"
   sodipodi:docname="accessories-camera.svg"
   xmlns:inkscape="http://www.inkscape.org/namespaces/inkscape"
   xmlns:sodipodi="http://sodipodi.sourceforge.net/DTD/sodipodi-0.dtd"
   xmlns:xlink="http://www.w3.org/1999/xlink"
   xmlns="http://www.w3.org/2000/svg"
   xmlns:svg="http://www.w3.org/2000/svg">
  <sodipodi:namedview
     id="namedview7"
     pagecolor="#ffffff"
     bordercolor="#666666"
     borderopacity="1.0"
     inkscape:pageshadow="2"
     inkscape:pageopacity="0.0"
     inkscape:pagecheckerboard="0"
     inkscape:document-units="px"
     showgrid="false"
     units="px"
     height="48px"
     inkscape:zoom="5.656854"
     inkscape:cx="-1.5909903"
     inkscape:cy="27.930719"
     inkscape:window-width="1920"
     inkscape:window-height="1019"
     inkscape:window-x="0"
     inkscape:window-y="0"
     inkscape:window-maximized="1"
     inkscape:current-layer="svg5"
     inkscape:lockguides="true" />
  <defs
     id="defs2">
    <linearGradient
       inkscape:collect="always"
       id="linearGradient2401">
      <stop
         style="stop-color:#929ea8;stop-opacity:1;"
         offset="0"
         id="stop2397" />
      <stop
         style="stop-color:#cdd3d7;stop-opacity:1"
         offset="1"
         id="stop2399" />
    </linearGradient>
    <linearGradient
       inkscape:collect="always"
       id="linearGradient4388">
      <stop
         style="stop-color:#000000;stop-opacity:1;"
         offset="0"
         id="stop4384" />
      <stop
         style="stop-color:#000000;stop-opacity:0;"
         offset="1"
         id="stop4386" />
    </linearGradient>
    <linearGradient
       inkscape:collect="always"
       id="linearGradient3407">
      <stop
         style="stop-color:#4d4d4d;stop-opacity:1;"
         offset="0"
         id="stop3403" />
      <stop
         style="stop-color:#808080;stop-opacity:1"
         offset="1"
         id="stop3405" />
    </linearGradient>
    <linearGradient
       inkscape:collect="always"
       xlink:href="#linearGradient3407"
       id="linearGradient3409"
       x1="56"
       y1="55.999996"
       x2="56"
       y2="11.999996"
       gradientUnits="userSpaceOnUse" />
    <linearGradient
       inkscape:collect="always"
       xlink:href="#linearGradient4388"
       id="linearGradient4390"
       x1="1.0583334"
       y1="14.022918"
       x2="16.933332"
       y2="7.1437507"
       gradientUnits="userSpaceOnUse"
       gradientTransform="scale(3.7795276)" />
    <linearGradient
       inkscape:collect="always"
       xlink:href="#linearGradient37218"
       id="linearGradient1781"
       x1="2.8346456e-08"
       y1="2.2677165e-07"
       x2="64"
       y2="64"
       gradientUnits="userSpaceOnUse"
       gradientTransform="scale(0.26458333)" />
    <linearGradient
       inkscape:collect="always"
       id="linearGradient37218">
      <stop
         style="stop-color:#ffffff;stop-opacity:1"
         offset="0"
         id="stop37214" />
      <stop
         style="stop-color:#e6e6e6;stop-opacity:0.00306325"
         offset="0.49741825"
         id="stop37220" />
      <stop
         style="stop-color:#ffffff;stop-opacity:1"
         offset="1"
         id="stop37216" />
    </linearGradient>
    <linearGradient
       inkscape:collect="always"
       xlink:href="#linearGradient2401"
       id="linearGradient2403"
       x1="3.0713861"
       y1="26.240091"
       x2="3.0713871"
       y2="9.3067579"
       gradientUnits="userSpaceOnUse"
       gradientTransform="translate(-3.6005528,-9.3067577)" />
  </defs>
  <path
     id="rect863"
     style="fill:url(#linearGradient2403);fill-opacity:1;stroke-width:0.264583"
     d="M 3.1749997,1.0583333 H 13.758333 c 1.172634,0 2.116667,0.944033 2.116667,2.116666 V 13.758332 c 0,1.172634 -0.944033,2.116667 -2.116667,2.116667 H 3.1749997 c -1.1726331,0 -2.1166664,-0.944033 -2.1166664,-2.116667 V 3.1749993 c 0,-1.172633 0.9440333,-2.116666 2.1166664,-2.116666 z" />
  <path
     id="rect1345"
     style="opacity:0.3;fill:url(#linearGradient1781);fill-opacity:1;stroke-width:0.264583"
     d="m 3.175,1.0583333 c -1.1726334,0 -2.1166667,0.944033 -2.1166667,2.116666 V 13.758332 c 0,1.172634 0.9440333,2.116667 2.1166667,2.116667 h 10.583333 c 1.172634,0 2.116667,-0.944033 2.116667,-2.116667 V 3.1749993 c 0,-1.172633 -0.944033,-2.116666 -2.116667,-2.116666 z m 0,0.264583 h 10.583333 c 1.026054,0 1.852084,0.826029 1.852084,1.852083 V 13.758332 c 0,1.026055 -0.82603,1.852084 -1.852084,1.852084 H 3.175 c -1.0260542,0 -1.8520834,-0.826029 -1.8520834,-1.852084 V 3.1749993 c 0,-1.026054 0.8260292,-1.852083 1.8520834,-1.852083 z" />
  <path
     id="rect849"
     style="opacity:1;fill:url(#linearGradient3409);stroke-width:1.84647;stroke-linejoin:round;fill-opacity:1"
     d="M 27.498047 17 C 26.971284 17.0012 26.48499 17.278251 26.214844 17.730469 L 23.654297 22 L 17 22 C 15.338 22 14 23.338 14 25 L 14 44 C 14 45.662 15.338 47 17 47 L 47 47 C 48.662 47 50 45.662 50 44 L 50 25 C 50 23.338 48.662 22 47 22 L 40.347656 22 L 37.789062 17.730469 C 37.517566 17.27599 37.027442 16.998597 36.498047 17 L 27.498047 17 z M 32 26 A 7.9999998 7.9999998 0 0 1 40 34 A 7.9999998 7.9999998 0 0 1 32 42 A 7.9999998 7.9999998 0 0 1 24 34 A 7.9999998 7.9999998 0 0 1 32 26 z M 32 28 A 6 6 0 0 0 26 34 A 6 6 0 0 0 32 40 A 6 6 0 0 0 38 34 A 6 6 0 0 0 32 28 z "
     transform="scale(0.26458333)" />
  <path
     id="rect849-5"
     style="opacity:0.3;fill:url(#linearGradient4390);fill-opacity:1;stroke-width:1.84647;stroke-linejoin:round"
     d="M 32 26 A 7.9999999 7.9999999 0 0 0 24 34 A 7.9999999 7.9999999 0 0 0 24.025391 34.5 A 7.9999999 7.9999999 0 0 1 32 27 A 7.9999999 7.9999999 0 0 1 39.982422 34.5 A 7.9999999 7.9999999 0 0 0 40 34 A 7.9999999 7.9999999 0 0 0 32 26 z M 37.972656 34.445312 A 6.0000001 6.0000001 0 0 1 32 40 A 6.0000001 6.0000001 0 0 1 26.029297 34.5 A 6.0000001 6.0000001 0 0 0 26 35 A 6.0000001 6.0000001 0 0 0 32 41 A 6.0000001 6.0000001 0 0 0 38 35 A 6.0000001 6.0000001 0 0 0 37.972656 34.445312 z M 14 44 L 14 45 C 14 46.661998 15.338 48 17 48 L 47 48 C 48.662002 48 50 46.661998 50 45 L 50 44 C 50 45.661998 48.662002 47 47 47 L 17 47 C 15.338 47 14 45.661998 14 44 z "
     transform="scale(0.26458333)" />
</svg>
