<?xml version="1.0" encoding="UTF-8" standalone="no"?>
<!-- Created with Inkscape (http://www.inkscape.org/) -->

<svg
   width="64"
   height="64"
   viewBox="0 0 16.933333 16.933333"
   version="1.1"
   id="svg5"
   inkscape:version="1.1.1 (3bf5ae0d25, 2021-09-20, custom)"
   sodipodi:docname="document-viewer.svg"
   xmlns:inkscape="http://www.inkscape.org/namespaces/inkscape"
   xmlns:sodipodi="http://sodipodi.sourceforge.net/DTD/sodipodi-0.dtd"
   xmlns:xlink="http://www.w3.org/1999/xlink"
   xmlns="http://www.w3.org/2000/svg"
   xmlns:svg="http://www.w3.org/2000/svg">
  <sodipodi:namedview
     id="namedview7"
     pagecolor="#ffffff"
     bordercolor="#666666"
     borderopacity="1.0"
     inkscape:pageshadow="2"
     inkscape:pageopacity="0.0"
     inkscape:pagecheckerboard="0"
     inkscape:document-units="px"
     showgrid="false"
     units="px"
     height="48px"
     inkscape:zoom="7.9999996"
     inkscape:cx="10.187501"
     inkscape:cy="37.812502"
     inkscape:window-width="1853"
     inkscape:window-height="1019"
     inkscape:window-x="0"
     inkscape:window-y="0"
     inkscape:window-maximized="1"
     inkscape:current-layer="svg5"
     inkscape:lockguides="true" />
  <defs
     id="defs2">
    <linearGradient
       inkscape:collect="always"
       id="linearGradient1921">
      <stop
         style="stop-color:#000000;stop-opacity:1;"
         offset="0"
         id="stop1917" />
      <stop
         style="stop-color:#000000;stop-opacity:0;"
         offset="1"
         id="stop1919" />
    </linearGradient>
    <linearGradient
       inkscape:collect="always"
       xlink:href="#linearGradient1297"
       id="linearGradient1299"
       x1="17.912449"
       y1="14.008792"
       x2="17.909224"
       y2="26.098545"
       gradientUnits="userSpaceOnUse"
       gradientTransform="matrix(0.58796409,0,0,0.58796409,-1.0583434,-1.0538747)" />
    <linearGradient
       inkscape:collect="always"
       id="linearGradient1297">
      <stop
         style="stop-color:#f0f0f0;stop-opacity:1;"
         offset="0"
         id="stop1293" />
      <stop
         style="stop-color:#ff966d;stop-opacity:1"
         offset="1"
         id="stop1295" />
    </linearGradient>
    <linearGradient
       inkscape:collect="always"
       id="linearGradient1265">
      <stop
         style="stop-color:#ff3737;stop-opacity:1"
         offset="0"
         id="stop1261" />
      <stop
         style="stop-color:#ff7034;stop-opacity:1"
         offset="1"
         id="stop1263" />
    </linearGradient>
    <linearGradient
       inkscape:collect="always"
       xlink:href="#linearGradient37218"
       id="linearGradient1781"
       x1="2.8346456e-08"
       y1="2.2677165e-07"
       x2="64"
       y2="64"
       gradientUnits="userSpaceOnUse"
       gradientTransform="scale(0.26458333)" />
    <linearGradient
       inkscape:collect="always"
       id="linearGradient37218">
      <stop
         style="stop-color:#ffffff;stop-opacity:1"
         offset="0"
         id="stop37214" />
      <stop
         style="stop-color:#cccccc;stop-opacity:0"
         offset="0.49741825"
         id="stop37220" />
      <stop
         style="stop-color:#000000;stop-opacity:1"
         offset="1"
         id="stop37216" />
    </linearGradient>
    <linearGradient
       inkscape:collect="always"
       xlink:href="#linearGradient1265"
       id="linearGradient948"
       x1="7.4083333"
       y1="16.933334"
       x2="7.4083333"
       y2="6.7529299e-07"
       gradientUnits="userSpaceOnUse" />
    <linearGradient
       inkscape:collect="always"
       xlink:href="#linearGradient1921"
       id="linearGradient1884"
       x1="10.000288"
       y1="50.71582"
       x2="59.999516"
       y2="16.71582"
       gradientUnits="userSpaceOnUse" />
  </defs>
  <path
     id="rect863"
     style="fill:url(#linearGradient948);stroke-width:0.264583;fill-opacity:1"
     d="M 3.1749994,1.0583333 H 13.758333 c 1.172634,0 2.116667,0.9440333 2.116667,2.1166665 V 13.758333 c 0,1.172634 -0.944033,2.116667 -2.116667,2.116667 H 3.1749994 c -1.1726328,0 -2.1166661,-0.944033 -2.1166661,-2.116667 V 3.1749998 c 0,-1.1726332 0.9440333,-2.1166665 2.1166661,-2.1166665 z" />
  <path
     id="rect1345"
     style="opacity:0.3;fill:url(#linearGradient1781);fill-opacity:1;stroke-width:0.264583"
     d="m 3.1750004,1.0583333 c -1.1726337,0 -2.1166671,0.9440334 -2.1166671,2.1166667 v 10.583333 c 0,1.172634 0.9440334,2.116667 2.1166671,2.116667 H 13.758334 c 1.172633,0 2.116666,-0.944033 2.116666,-2.116667 V 3.175 c 0,-1.1726333 -0.944033,-2.1166667 -2.116666,-2.1166667 z m 0,0.2645834 H 13.758334 c 1.026054,0 1.852083,0.8260291 1.852083,1.8520833 v 10.583333 c 0,1.026054 -0.826029,1.852084 -1.852083,1.852084 H 3.1750004 c -1.026055,0 -1.8520838,-0.82603 -1.8520838,-1.852084 V 3.175 c 0,-1.0260542 0.8260288,-1.8520833 1.8520838,-1.8520833 z" />
  <path
     id="path1219-7"
     d="M 13.587008,9.5572283 C 13.375458,9.3487835 12.906292,9.2384602 12.192345,9.2290564 11.709053,9.2209776 11.127397,9.2660744 10.515563,9.3519549 10.241605,9.1938536 9.9592763,9.0218784 9.7376023,8.8147186 9.141372,8.2579782 8.6436861,7.4850976 8.3335662,6.6353818 c 0.0202,-0.07942 0.037407,-0.1491491 0.053422,-0.2202892 0,0 0.3358522,-1.9077091 0.2469407,-2.5525627 -0.012222,-0.08844 -0.019778,-0.1141513 -0.043544,-0.1829359 l -0.02917,-0.074642 C 8.4698697,3.3942875 8.2907583,3.1710983 8.0099448,3.1832237 l -0.1646759,-0.00809 -0.00458,-1.349e-4 c -0.3131433,0 -0.5683514,0.1601892 -0.6353282,0.3995941 -0.2036337,0.7506552 0.00647,1.8739033 0.3872566,3.3285884 L 7.4951483,7.1402317 C 7.2224882,7.8048095 6.8808268,8.4742462 6.5793554,9.0647621 l -0.039193,0.076931 C 6.2229961,9.7623253 5.9352518,10.289251 5.6743598,10.735562 l -0.2693505,0.14249 c -0.019622,0.0093 -0.4812364,0.254416 -0.5895182,0.319916 -0.9185369,0.548485 -1.5271956,1.171053 -1.6281902,1.665143 -0.032144,0.157622 -0.0082,0.359346 0.1552113,0.452841 l 0.2605117,0.131045 c 0.1129891,0.05653 0.2321593,0.08535 0.3542478,0.08535 0.6541971,0 1.4137126,-0.814941 2.4600049,-2.640917 1.2080039,-0.393275 2.5833445,-0.720087 3.7888094,-0.9004847 0.918596,0.5173097 2.048375,0.8764467 2.761445,0.8764467 0.126611,0 0.235749,-0.01222 0.324452,-0.03567 0.136762,-0.03633 0.252027,-0.114223 0.322307,-0.220023 0.138331,-0.208178 0.166398,-0.495023 0.128838,-0.7886947 -0.0112,-0.08702 -0.0808,-0.19478 -0.156102,-0.268346 z M 3.8156306,13.038215 C 3.9349175,12.712038 4.4071741,12.067186 5.105398,11.495025 5.149296,11.459355 5.2574249,11.358047 5.3564451,11.26403 4.6262908,12.428552 4.1373133,12.892673 3.815643,13.03821 Z M 7.9512685,3.5147883 c 0.2103027,0 0.329926,0.5301006 0.3398438,1.0270909 C 8.3010234,5.0388694 8.1848012,5.3876331 8.0406307,5.645623 7.9212238,5.2635976 7.8635148,4.6614099 7.8635148,4.2675307 c 0,0 -0.00878,-0.7527424 0.087742,-0.7527424 z M 6.717622,10.301382 C 6.8641135,10.039159 7.0165274,9.7626033 7.1722794,9.4693566 7.5519168,8.7513578 7.7917033,8.1895981 7.9702578,7.7278352 8.3254024,8.3740195 8.767722,8.9233208 9.2876627,9.3634331 9.3525161,9.4179486 9.4212318,9.4735443 9.4934073,9.5285313 8.4360784,9.7377853 7.5221987,9.9921993 6.7175985,10.301413 Z m 6.66655,-0.05922 c -0.0644,0.03971 -0.248873,0.06393 -0.367542,0.06393 -0.382962,0 -0.856791,-0.175067 -1.521027,-0.4597677 0.255215,-0.01889 0.489249,-0.02827 0.6991,-0.02827 0.384113,0 0.497898,0 0.873513,0.09402 0.375615,0.09578 0.380333,0.2904247 0.315956,0.3306837 z"
     inkscape:connector-curvature="0"
     style="fill:url(#linearGradient1299);fill-opacity:1;stroke-width:0.673066;image-rendering:optimizeSpeed" />
  <path
     id="path1219-7-75"
     style="fill:url(#linearGradient1884);fill-opacity:1;stroke-width:2.54387;image-rendering:optimizeSpeed;opacity:0.3"
     d="M 30.052734 13.285156 C 29.687859 13.285156 29.720703 16.128906 29.720703 16.128906 C 29.720703 16.217953 29.723045 16.317776 29.724609 16.412109 C 29.740748 15.569563 29.806364 14.285156 30.052734 14.285156 C 30.806959 14.285156 31.250566 16.0877 31.326172 17.876953 C 31.336881 17.648921 31.340856 17.412913 31.335938 17.166016 C 31.298452 15.287627 30.84758 13.285156 30.052734 13.285156 z M 32.677734 16.115234 C 32.586869 19.189911 31.699219 24.246094 31.699219 24.246094 C 31.638709 24.51497 31.57244 24.777955 31.496094 25.078125 C 31.5438 25.208839 31.594499 25.339033 31.644531 25.46875 C 31.661509 25.396732 31.68302 25.318071 31.699219 25.246094 C 31.699219 25.246094 32.813398 18.918457 32.677734 16.115234 z M 26.943359 16.599609 C 26.852714 19.157861 27.507953 22.473356 28.537109 26.476562 L 28.697266 26.089844 C 27.710631 22.320387 27.027594 19.141296 26.943359 16.599609 z M 30.123047 29.207031 C 29.448193 30.952277 28.542274 33.075368 27.107422 35.789062 C 26.518753 36.897398 25.942339 37.942515 25.388672 38.933594 C 25.618831 38.845142 25.852943 38.75797 26.087891 38.671875 C 26.422823 38.062859 26.761815 37.439764 27.107422 36.789062 C 28.542274 34.075366 29.448193 31.952277 30.123047 30.207031 C 31.419423 32.565786 33.025784 34.581103 34.904297 36.214844 C 35.227712 36.147022 35.550089 36.079134 35.880859 36.013672 C 35.608072 35.805847 35.348618 35.594732 35.103516 35.388672 C 33.138384 33.725256 31.465323 31.649303 30.123047 29.207031 z M 46.089844 37.107422 C 45.296706 37.107422 44.411858 37.143448 43.447266 37.214844 C 44.257976 37.562324 44.98687 37.86055 45.660156 38.113281 C 45.80511 38.111089 45.950473 38.107422 46.089844 38.107422 C 47.541609 38.107422 47.972931 38.107539 49.392578 38.462891 C 49.784316 38.562782 50.065351 38.691441 50.267578 38.828125 C 50.400674 38.794845 50.513995 38.755298 50.585938 38.710938 L 50.585938 38.712891 C 50.829252 38.560731 50.812225 37.824894 49.392578 37.462891 C 47.972931 37.107539 47.541609 37.107422 46.089844 37.107422 z M 38.574219 37.761719 C 34.018129 38.443533 28.819586 39.677669 24.253906 41.164062 C 20.299413 48.065389 17.429587 51.146484 14.957031 51.146484 C 14.495593 51.146484 14.044233 51.037875 13.617188 50.824219 L 12.632812 50.328125 C 12.322032 50.150313 12.14454 49.868246 12.060547 49.556641 C 12.056055 49.576608 12.050934 49.597329 12.046875 49.617188 C 11.925401 50.212924 12.015196 50.974758 12.632812 51.328125 L 13.617188 51.824219 C 14.044233 52.037875 14.495593 52.146484 14.957031 52.146484 C 17.429587 52.146484 20.299413 49.065389 24.253906 42.164062 C 28.819587 40.677669 34.01813 39.443534 38.574219 38.761719 C 42.046078 40.716902 46.316651 42.074219 49.011719 42.074219 C 49.490249 42.074219 49.903026 42.028083 50.238281 41.939453 C 50.755177 41.802143 51.189453 41.507296 51.455078 41.107422 C 51.922716 40.403662 52.056971 39.46176 51.978516 38.476562 C 51.923957 39.085252 51.76061 39.647619 51.455078 40.107422 C 51.189453 40.507296 50.755177 40.802143 50.238281 40.939453 C 49.903026 41.028083 49.490249 41.074219 49.011719 41.074219 C 46.316651 41.074219 42.046078 39.716902 38.574219 37.761719 z M 20.244141 42.572266 C 19.869892 42.927605 19.462796 43.310497 19.296875 43.445312 C 16.657918 45.607811 14.87272 48.044549 14.421875 49.277344 C 14.669787 49.165178 14.94518 48.999928 15.248047 48.775391 C 15.987063 47.684461 17.136859 46.341518 18.597656 45.044922 C 19.107833 44.330928 19.653076 43.514955 20.244141 42.572266 z "
     transform="scale(0.26458333)" />
</svg>
