<?xml version="1.0" encoding="UTF-8" standalone="no"?>
<!-- Created with Inkscape (http://www.inkscape.org/) -->

<svg
   width="64"
   height="64"
   viewBox="0 0 16.933333 16.933333"
   version="1.1"
   id="svg5"
   inkscape:version="1.1.1 (3bf5ae0d25, 2021-09-20, custom)"
   sodipodi:docname="accessories-dictionary.svg"
   xmlns:inkscape="http://www.inkscape.org/namespaces/inkscape"
   xmlns:sodipodi="http://sodipodi.sourceforge.net/DTD/sodipodi-0.dtd"
   xmlns:xlink="http://www.w3.org/1999/xlink"
   xmlns="http://www.w3.org/2000/svg"
   xmlns:svg="http://www.w3.org/2000/svg">
  <sodipodi:namedview
     id="namedview7"
     pagecolor="#ffffff"
     bordercolor="#666666"
     borderopacity="1.0"
     inkscape:pageshadow="2"
     inkscape:pageopacity="0.0"
     inkscape:pagecheckerboard="0"
     inkscape:document-units="px"
     showgrid="false"
     units="px"
     height="48px"
     inkscape:zoom="8"
     inkscape:cx="29.875"
     inkscape:cy="31.9375"
     inkscape:window-width="1920"
     inkscape:window-height="1019"
     inkscape:window-x="0"
     inkscape:window-y="0"
     inkscape:window-maximized="1"
     inkscape:current-layer="svg5"
     inkscape:lockguides="true" />
  <defs
     id="defs2">
    <linearGradient
       inkscape:collect="always"
       id="linearGradient12583">
      <stop
         style="stop-color:#ffffff;stop-opacity:1;"
         offset="0"
         id="stop12579" />
      <stop
         style="stop-color:#d19d7b;stop-opacity:1"
         offset="1"
         id="stop12581" />
    </linearGradient>
    <linearGradient
       inkscape:collect="always"
       id="linearGradient12221">
      <stop
         style="stop-color:#000000;stop-opacity:1;"
         offset="0"
         id="stop12217" />
      <stop
         style="stop-color:#000000;stop-opacity:0;"
         offset="1"
         id="stop12219" />
    </linearGradient>
    <linearGradient
       inkscape:collect="always"
       id="linearGradient6268">
      <stop
         style="stop-color:#935442;stop-opacity:1;"
         offset="0"
         id="stop6264" />
      <stop
         style="stop-color:#cd7051;stop-opacity:1"
         offset="1"
         id="stop6266" />
    </linearGradient>
    <linearGradient
       inkscape:collect="always"
       id="linearGradient37218">
      <stop
         style="stop-color:#1a1a1a;stop-opacity:1"
         offset="0"
         id="stop37214" />
      <stop
         style="stop-color:#e6e6e6;stop-opacity:0.00306325"
         offset="0.49741825"
         id="stop37220" />
      <stop
         style="stop-color:#ffffff;stop-opacity:1"
         offset="1"
         id="stop37216" />
    </linearGradient>
    <linearGradient
       inkscape:collect="always"
       xlink:href="#linearGradient37218"
       id="linearGradient881"
       x1="64.208344"
       y1="64.062607"
       x2="0.30528301"
       y2="0.13507102"
       gradientUnits="userSpaceOnUse" />
    <linearGradient
       inkscape:collect="always"
       xlink:href="#linearGradient6268"
       id="linearGradient6270"
       x1="16.933332"
       y1="15.081249"
       x2="16.933334"
       y2="0.26458323"
       gradientUnits="userSpaceOnUse" />
    <linearGradient
       inkscape:collect="always"
       xlink:href="#linearGradient12221"
       id="linearGradient12223"
       x1="17"
       y1="44.157227"
       x2="59"
       y2="22.157227"
       gradientUnits="userSpaceOnUse" />
    <linearGradient
       inkscape:collect="always"
       xlink:href="#linearGradient12583"
       id="linearGradient12585"
       x1="57"
       y1="8.4560547"
       x2="57"
       y2="44.456055"
       gradientUnits="userSpaceOnUse" />
  </defs>
  <path
     id="rect846-3"
     style="fill:#874d3a;stroke-width:0.337527;fill-opacity:1"
     d="m 3.175,1.5875 h 10.583333 c 0.879475,0 1.5875,0.708025 1.5875,1.5875 v 10.583333 c 0,0.879475 -0.708025,1.5875 -1.5875,1.5875 H 3.175 c -0.879475,0 -1.5875,-0.708025 -1.5875,-1.5875 V 3.175 c 0,-0.879475 0.708025,-1.5875 1.5875,-1.5875 z" />
  <path
     id="rect957"
     style="opacity:0.3;fill:#000000;fill-opacity:1;stroke-width:0.999999"
     d="M 6 50 L 6 52 C 6 55.324 8.676 58 12 58 L 52 58 C 55.324 58 58 55.324 58 52 L 58 50 C 58 53.324 55.324 56 52 56 L 12 56 C 8.676 56 6 53.324 6 50 z "
     transform="scale(0.26458333)" />
  <path
     id="rect1515"
     style="opacity:1;fill:#f9f9f9;stroke-width:0.317317"
     d="M 3.1749999,2.3812499 H 13.758333 c 0.439737,0 0.79375,0.3540125 0.79375,0.79375 V 13.758333 c 0,0.439737 -0.354013,0.79375 -0.79375,0.79375 H 3.1749999 c -0.4397375,0 -0.79375,-0.354013 -0.79375,-0.79375 V 3.1749999 c 0,-0.4397375 0.3540125,-0.79375 0.79375,-0.79375 z" />
  <path
     id="rect1830"
     style="opacity:1;fill:url(#linearGradient6270);stroke-width:0.268625"
     d="M 3.1750003,1.5875 H 13.758334 c 0.879475,0 1.5875,0.708025 1.5875,1.5875 v 8.995833 c 0,0.879475 -0.708025,1.5875 -1.5875,1.5875 H 3.1750003 c -0.879475,0 -1.5875,-0.708025 -1.5875,-1.5875 V 3.175 c 0,-0.879475 0.708025,-1.5875 1.5875,-1.5875 z" />
  <path
     id="rect5741"
     style="opacity:0.3;fill:#000000;fill-opacity:1;stroke-width:0.999999"
     d="M 12 6 C 8.6759997 6 6 8.6759997 6 12 L 6 45 L 6 46 C 6 49.324 8.6759997 52 12 52 L 15.974609 52 L 52 52 C 55.324 52 58 49.324 58 46 L 58 45 C 58 48.324 55.324 51 52 51 L 15.974609 51 L 15.974609 6 L 12 6 z "
     transform="scale(0.26458333)" />
  <path
     id="rect846"
     style="opacity:0.3;fill:url(#linearGradient881);stroke-width:1.27569;fill-opacity:1"
     d="M 12 6 C 8.6760005 6 6 8.6760005 6 12 L 6 52 C 6 55.324 8.6760005 58 12 58 L 52 58 C 55.324 58 58 55.324 58 52 L 58 12 C 58 8.6760005 55.324 6 52 6 L 12 6 z M 12 7 L 52 7 C 54.77 7 57 9.23 57 12 L 57 52 C 57 54.77 54.77 57 52 57 L 12 57 C 9.23 57 7 54.77 7 52 L 7 12 C 7 9.23 9.23 7 12 7 z "
     transform="scale(0.26458333)" />
  <path
     id="path12055"
     style="font-size:6.91156px;line-height:1.25;font-family:'Noto Serif';-inkscape-font-specification:'Noto Serif';stroke-width:0.653061;fill:url(#linearGradient12585);fill-opacity:1"
     d="M 29.28125 19 L 23.482422 34.517578 C 23.168953 35.353496 22.880365 35.900885 22.619141 36.162109 C 22.375331 36.423334 22.001128 36.554688 21.496094 36.554688 L 21 36.554688 L 21 37.652344 L 27.373047 37.652344 L 27.373047 36.554688 L 26.773438 36.554688 C 25.62405 36.554688 25.048828 36.12677 25.048828 35.273438 C 25.048828 34.942553 25.126469 34.568349 25.283203 34.150391 L 26.277344 31.408203 L 33.146484 31.408203 L 34.191406 34.333984 C 34.261066 34.525549 34.312826 34.698734 34.347656 34.855469 C 34.382486 35.012205 34.400391 35.161463 34.400391 35.300781 C 34.400391 36.136699 33.878882 36.554688 32.833984 36.554688 L 32.232422 36.554688 L 32.232422 37.652344 L 39.416016 37.652344 L 39.416016 36.554688 L 39.076172 36.554688 C 38.571136 36.554688 38.17903 36.459142 37.900391 36.267578 C 37.639167 36.076014 37.41422 35.709786 37.222656 35.169922 L 31.318359 19 L 29.28125 19 z M 29.751953 21.402344 C 29.891273 22.029282 30.072434 22.684098 30.298828 23.363281 C 30.525223 24.042464 30.778002 24.764992 31.056641 25.53125 L 32.675781 30.101562 L 26.773438 30.101562 L 28.548828 25.294922 C 28.844882 24.476419 29.089686 23.779772 29.28125 23.205078 C 29.472815 22.630385 29.630048 22.029282 29.751953 21.402344 z M 46.521484 23.388672 C 45.66815 23.388672 44.883935 23.47624 44.169922 23.650391 C 43.455909 23.807125 42.882639 24.06788 42.447266 24.433594 C 42.029308 24.799308 41.820312 25.286961 41.820312 25.896484 C 41.820312 26.488593 42.001473 26.914557 42.367188 27.175781 C 42.750316 27.419591 43.307636 27.542969 44.039062 27.542969 C 44.039062 26.98569 44.092774 26.498037 44.197266 26.080078 C 44.319171 25.644705 44.554045 25.304357 44.902344 25.060547 C 45.250642 24.816737 45.756201 24.695312 46.417969 24.695312 C 47.131982 24.695312 47.661465 24.834642 48.009766 25.113281 C 48.358062 25.391921 48.584962 25.7741 48.689453 26.261719 C 48.793944 26.731922 48.845703 27.281265 48.845703 27.908203 L 48.845703 29.474609 L 46.677734 29.552734 C 44.675016 29.622394 43.178199 29.988622 42.185547 30.650391 C 41.210308 31.312159 40.722656 32.339226 40.722656 33.732422 C 40.722656 35.160448 41.104835 36.215348 41.871094 36.894531 C 42.637353 37.573716 43.604684 37.912109 44.771484 37.912109 C 45.502914 37.912109 46.094088 37.80859 46.546875 37.599609 C 47.017078 37.373215 47.42709 37.076651 47.775391 36.710938 C 48.123689 36.327809 48.479991 35.891916 48.845703 35.404297 L 49.054688 35.404297 L 49.472656 37.652344 L 53 37.652344 L 53 36.554688 L 52.921875 36.554688 C 52.329762 36.554688 51.911773 36.423334 51.667969 36.162109 C 51.424164 35.900885 51.302734 35.405256 51.302734 34.673828 L 51.302734 27.908203 C 51.302734 26.253782 50.900698 25.087386 50.099609 24.408203 C 49.315937 23.72902 48.123659 23.388672 46.521484 23.388672 z M 48.845703 30.546875 L 48.845703 32.662109 C 48.845703 33.776666 48.533188 34.664404 47.90625 35.326172 C 47.279312 35.970525 46.435359 36.292969 45.373047 36.292969 C 43.962436 36.29297 43.255859 35.482872 43.255859 33.863281 C 43.255859 32.835799 43.534518 32.061511 44.091797 31.539062 C 44.666489 30.999198 45.693556 30.694659 47.173828 30.625 L 48.845703 30.546875 z "
     transform="scale(0.26458333)" />
  <path
     id="path12055-3"
     style="font-size:6.91156px;line-height:1.25;font-family:'Noto Serif';-inkscape-font-specification:'Noto Serif';stroke-width:0.653061;fill-opacity:1;fill:url(#linearGradient12223);opacity:0.3"
     d="M 29.751953 21.402344 C 29.630063 22.029284 29.472796 22.630386 29.28125 23.205078 C 29.089688 23.77977 28.844879 24.476416 28.548828 25.294922 L 26.773438 30.101562 L 27.142578 30.101562 L 28.548828 26.294922 C 28.844879 25.476419 29.089688 24.779772 29.28125 24.205078 C 29.472796 23.630385 29.630063 23.029282 29.751953 22.402344 C 29.891267 23.029282 30.072419 23.684098 30.298828 24.363281 C 30.525222 25.042464 30.778003 25.764992 31.056641 26.53125 L 32.322266 30.101562 L 32.675781 30.101562 L 31.056641 25.53125 C 30.778003 24.764992 30.525222 24.042462 30.298828 23.363281 C 30.072419 22.684096 29.891267 22.029284 29.751953 21.402344 z M 46.417969 24.695312 C 45.756204 24.695312 45.250627 24.81673 44.902344 25.060547 C 44.554053 25.304357 44.319155 25.644703 44.197266 26.080078 C 44.092762 26.498037 44.039062 26.985693 44.039062 27.542969 C 43.307637 27.542969 42.750318 27.419599 42.367188 27.175781 C 42.115753 26.996191 41.951115 26.738124 41.873047 26.402344 C 41.83853 26.557371 41.820312 26.721327 41.820312 26.896484 C 41.820312 27.488593 42.001465 27.914557 42.367188 28.175781 C 42.750318 28.419591 43.307637 28.542969 44.039062 28.542969 C 44.039062 27.98569 44.092762 27.498037 44.197266 27.080078 C 44.319155 26.644705 44.554053 26.304357 44.902344 26.060547 C 45.250627 25.816737 45.756204 25.695313 46.417969 25.695312 C 47.131982 25.695312 47.661467 25.834641 48.009766 26.113281 C 48.358049 26.391919 48.584964 26.7741 48.689453 27.261719 C 48.793957 27.731922 48.845703 28.281265 48.845703 28.908203 L 48.845703 27.908203 C 48.845703 27.281266 48.793957 26.731922 48.689453 26.261719 C 48.584964 25.774099 48.358049 25.391908 48.009766 25.113281 C 47.661467 24.834628 47.131982 24.695312 46.417969 24.695312 z M 48.845703 30.546875 L 47.173828 30.625 C 45.693557 30.69466 44.666489 30.999199 44.091797 31.539062 C 43.534524 32.06151 43.255859 32.835798 43.255859 33.863281 C 43.255859 34.036281 43.265129 34.198989 43.28125 34.353516 C 43.361011 33.576296 43.63097 32.971092 44.091797 32.539062 C 44.666489 31.999199 45.693557 31.694659 47.173828 31.625 L 48.845703 31.546875 L 48.845703 30.546875 z M 26.277344 31.408203 L 25.283203 34.150391 C 25.126466 34.56835 25.048828 34.94254 25.048828 35.273438 C 25.048828 35.437639 25.070692 35.58607 25.113281 35.71875 C 25.152212 35.538998 25.208322 35.35007 25.283203 35.150391 L 26.277344 32.408203 L 33.146484 32.408203 L 34.191406 35.333984 C 34.250377 35.496161 34.29423 35.642295 34.328125 35.779297 C 34.375978 35.638617 34.400391 35.479796 34.400391 35.300781 C 34.400391 35.16146 34.382428 35.012206 34.347656 34.855469 C 34.312847 34.698747 34.261063 34.525531 34.191406 34.333984 L 33.146484 31.408203 L 26.277344 31.408203 z M 40.742188 34.275391 C 40.729802 34.423091 40.722656 34.575424 40.722656 34.732422 C 40.722656 36.160447 41.104836 37.215346 41.871094 37.894531 C 42.637351 38.573716 43.604684 38.912109 44.771484 38.912109 C 45.502914 38.912109 46.094088 38.808579 46.546875 38.599609 C 47.017078 38.373216 47.427088 38.076651 47.775391 37.710938 C 48.123674 37.327811 48.479992 36.891916 48.845703 36.404297 L 49.054688 36.404297 L 49.472656 38.652344 L 53 38.652344 L 53 37.652344 L 49.472656 37.652344 L 49.054688 35.404297 L 48.845703 35.404297 C 48.479992 35.891916 48.123674 36.327811 47.775391 36.710938 C 47.427088 37.076652 47.017078 37.373216 46.546875 37.599609 C 46.094088 37.808579 45.502914 37.912109 44.771484 37.912109 C 43.604684 37.912109 42.637351 37.573716 41.871094 36.894531 C 41.205551 36.304613 40.829476 35.430487 40.742188 34.275391 z M 21 37.652344 L 21 38.652344 L 27.373047 38.652344 L 27.373047 37.652344 L 21 37.652344 z M 32.232422 37.652344 L 32.232422 38.652344 L 39.416016 38.652344 L 39.416016 37.652344 L 32.232422 37.652344 z "
     transform="scale(0.26458333)" />
</svg>
