<?xml version="1.0" encoding="UTF-8" standalone="no"?>
<!-- Created with Inkscape (http://www.inkscape.org/) -->

<svg
   width="64"
   height="64"
   viewBox="0 0 16.933333 16.933333"
   version="1.1"
   id="svg5"
   inkscape:version="1.1.1 (3bf5ae0d25, 2021-09-20, custom)"
   sodipodi:docname="accessories-dictionary.svg"
   xmlns:inkscape="http://www.inkscape.org/namespaces/inkscape"
   xmlns:sodipodi="http://sodipodi.sourceforge.net/DTD/sodipodi-0.dtd"
   xmlns:xlink="http://www.w3.org/1999/xlink"
   xmlns="http://www.w3.org/2000/svg"
   xmlns:svg="http://www.w3.org/2000/svg">
  <sodipodi:namedview
     id="namedview7"
     pagecolor="#ffffff"
     bordercolor="#666666"
     borderopacity="1.0"
     inkscape:pageshadow="2"
     inkscape:pageopacity="0.0"
     inkscape:pagecheckerboard="0"
     inkscape:document-units="px"
     showgrid="false"
     units="px"
     height="48px"
     inkscape:zoom="1.4142136"
     inkscape:cx="-65.760931"
     inkscape:cy="34.648232"
     inkscape:window-width="1920"
     inkscape:window-height="1011"
     inkscape:window-x="0"
     inkscape:window-y="0"
     inkscape:window-maximized="1"
     inkscape:current-layer="svg5"
     inkscape:lockguides="true" />
  <defs
     id="defs2">
    <linearGradient
       inkscape:collect="always"
       id="linearGradient12583">
      <stop
         style="stop-color:#ffffff;stop-opacity:1;"
         offset="0"
         id="stop12579" />
      <stop
         style="stop-color:#d19d7b;stop-opacity:1"
         offset="1"
         id="stop12581" />
    </linearGradient>
    <linearGradient
       inkscape:collect="always"
       id="linearGradient12221">
      <stop
         style="stop-color:#000000;stop-opacity:1;"
         offset="0"
         id="stop12217" />
      <stop
         style="stop-color:#000000;stop-opacity:0;"
         offset="1"
         id="stop12219" />
    </linearGradient>
    <linearGradient
       inkscape:collect="always"
       id="linearGradient6268">
      <stop
         style="stop-color:#935442;stop-opacity:1;"
         offset="0"
         id="stop6264" />
      <stop
         style="stop-color:#cd7051;stop-opacity:1"
         offset="1"
         id="stop6266" />
    </linearGradient>
    <linearGradient
       inkscape:collect="always"
       id="linearGradient37218">
      <stop
         style="stop-color:#1a1a1a;stop-opacity:1"
         offset="0"
         id="stop37214" />
      <stop
         style="stop-color:#e6e6e6;stop-opacity:0.00306325"
         offset="0.49741825"
         id="stop37220" />
      <stop
         style="stop-color:#ffffff;stop-opacity:1"
         offset="1"
         id="stop37216" />
    </linearGradient>
    <linearGradient
       inkscape:collect="always"
       xlink:href="#linearGradient12221"
       id="linearGradient12223"
       x1="17"
       y1="44.157227"
       x2="59"
       y2="22.157227"
       gradientUnits="userSpaceOnUse"
       gradientTransform="matrix(0.26458333,0,0,0.26458333,0,-0.52916666)" />
    <linearGradient
       inkscape:collect="always"
       xlink:href="#linearGradient12583"
       id="linearGradient12585"
       x1="57"
       y1="8.4560547"
       x2="57"
       y2="44.456055"
       gradientUnits="userSpaceOnUse"
       gradientTransform="matrix(0.26458333,0,0,0.26458333,0,-0.52916666)" />
    <linearGradient
       inkscape:collect="always"
       xlink:href="#linearGradient37218"
       id="linearGradient1781"
       x1="64"
       y1="64"
       x2="4.5354329e-07"
       y2="4.5354329e-07"
       gradientUnits="userSpaceOnUse"
       gradientTransform="scale(0.26458333)" />
    <linearGradient
       inkscape:collect="always"
       xlink:href="#linearGradient6268"
       id="linearGradient19463"
       x1="10.054167"
       y1="17.135992"
       x2="10.054167"
       y2="0.38280147"
       gradientUnits="userSpaceOnUse"
       gradientTransform="matrix(1,0,0,0.97916666,0,0.02204861)" />
  </defs>
  <path
     id="rect863"
     style="fill:#874d3a;stroke-width:0.264583;fill-opacity:1"
     d="M 3.1750003,1.0583333 H 13.758333 c 1.172634,0 2.116667,0.944034 2.116667,2.116667 V 13.758333 c 0,1.172634 -0.944033,2.116667 -2.116667,2.116667 H 3.1750003 c -1.172633,0 -2.116667,-0.944033 -2.116667,-2.116667 V 3.1750003 c 0,-1.172633 0.944034,-2.116667 2.116667,-2.116667 z" />
  <rect
     style="fill:#f9f9f9;fill-opacity:1;stroke-width:2.38125;stroke-linecap:round;stroke-linejoin:round"
     id="rect19093"
     width="12.7"
     height="12.7"
     x="2.1166666"
     y="1.5875"
     ry="1.3229166" />
  <rect
     style="fill:url(#linearGradient19463);fill-opacity:1;stroke-width:2.35631;stroke-linecap:round;stroke-linejoin:round"
     id="rect19375"
     width="14.816667"
     height="12.435416"
     x="1.0583333"
     y="1.0583333"
     ry="2.1166666" />
  <path
     id="path12055"
     style="font-size:6.91156px;line-height:1.25;font-family:'Noto Serif';-inkscape-font-specification:'Noto Serif';fill:url(#linearGradient12585);fill-opacity:1;stroke-width:0.172789"
     d="M 7.7473306,4.4979166 6.2130574,8.6036091 C 6.1301187,8.824779 6.0537632,8.969609 5.9846476,9.0387246 5.9201396,9.1078403 5.8211317,9.1425944 5.6875081,9.1425944 H 5.5562499 v 0.2904215 h 1.686202 V 9.1425944 H 7.0838054 c -0.3041089,0 -0.4563031,-0.1132199 -0.4563031,-0.3389974 0,-0.087547 0.020543,-0.1865548 0.062012,-0.2971395 L 6.9525472,7.7809203 h 1.8174599 l 0.276469,0.7741129 c 0.018431,0.050685 0.032126,0.096507 0.041341,0.1379762 0.00922,0.04147 0.013953,0.080961 0.013953,0.1178221 0,0.22117 -0.1379826,0.3317629 -0.4144452,0.3317629 H 8.5281615 V 9.4330159 H 10.428821 V 9.1425944 h -0.08992 c -0.133624,0 -0.237369,-0.02528 -0.311092,-0.075964 C 9.9586961,9.0159453 9.8991789,8.9190474 9.8484943,8.7762084 L 8.2863157,4.4979166 Z m 0.1245402,0.6356202 c 0.036862,0.1658773 0.084794,0.3391307 0.144694,0.5188312 0.0599,0.1797005 0.1267815,0.3708694 0.2005047,0.5736085 L 8.6454669,7.4352049 H 7.0838054 L 7.553544,6.163448 C 7.6318749,5.9468858 7.696646,5.7625646 7.7473306,5.6105102 7.7980155,5.458456 7.8396168,5.2994141 7.8718708,5.1335368 Z m 4.4369382,0.5255493 c -0.225778,0 -0.433268,0.023169 -0.622184,0.069247 -0.188916,0.041469 -0.340594,0.1104606 -0.455786,0.2072224 -0.110585,0.096762 -0.165882,0.2257867 -0.165882,0.3870563 0,0.1566622 0.04793,0.2693652 0.144695,0.3384807 0.101369,0.064508 0.248827,0.097152 0.44235,0.097152 0,-0.1474467 0.01421,-0.2764716 0.04186,-0.3870566 0.03225,-0.1151924 0.0944,-0.2052428 0.186552,-0.2697509 0.09215,-0.064508 0.225916,-0.096635 0.401009,-0.096635 0.188916,0 0.329008,0.036864 0.421163,0.1105877 0.09215,0.073723 0.152187,0.1748416 0.179834,0.3038575 0.02765,0.1244079 0.04134,0.2697549 0.04134,0.4356322 v 0.4144449 l -0.573609,0.020671 c -0.529885,0.018431 -0.925918,0.1153287 -1.188557,0.2904218 -0.258032,0.1750927 -0.387057,0.4468375 -0.387057,0.815454 0,0.3778319 0.101118,0.6569408 0.303857,0.8366413 0.20274,0.179701 0.458679,0.2692342 0.767395,0.2692342 0.193525,0 0.349939,-0.027389 0.469739,-0.082682 0.124408,-0.0599 0.23289,-0.138366 0.325045,-0.2351275 0.09215,-0.1013696 0.186425,-0.2166996 0.283187,-0.3457155 h 0.05529 l 0.110587,0.5947958 h 0.933276 v -0.290423 h -0.02067 c -0.156663,0 -0.267256,-0.034754 -0.331763,-0.1038698 C 13.60597,8.9696086 13.57384,8.8384739 13.57384,8.6449502 V 6.8548786 c 0,-0.4377322 -0.106372,-0.7463411 -0.318327,-0.9260416 C 13.048175,5.7491365 12.732718,5.6590861 12.308809,5.6590861 Z m 0.61495,1.8939412 v 0.5596556 c 0,0.2948932 -0.08269,0.5297739 -0.248564,0.7048667 -0.165877,0.170485 -0.389173,0.2557983 -0.670243,0.2557983 -0.373224,3e-7 -0.560173,-0.2143381 -0.560173,-0.6428549 0,-0.2718546 0.07373,-0.4767183 0.221175,-0.6149496 0.152054,-0.142839 0.423799,-0.223415 0.815455,-0.2418456 z" />
  <path
     id="path12055-3"
     style="font-size:6.91156px;line-height:1.25;font-family:'Noto Serif';-inkscape-font-specification:'Noto Serif';opacity:0.3;fill:url(#linearGradient12223);fill-opacity:1;stroke-width:0.172789"
     d="M 7.8718708,5.1335368 C 7.8396207,5.2994147 7.7980105,5.4584562 7.7473306,5.6105102 7.6966465,5.7625641 7.6318741,5.946885 7.553544,6.163448 L 7.0838054,7.4352049 h 0.097668 L 7.553544,6.4280314 c 0.07833,-0.2165623 0.1431025,-0.4008835 0.1937866,-0.5529379 0.05068,-0.1520542 0.09229,-0.311096 0.1245402,-0.4769734 0.03686,0.1658774 0.08479,0.3391308 0.144694,0.5188313 0.0599,0.1797005 0.1267817,0.3708693 0.2005047,0.5736084 l 0.3348633,0.9446451 h 0.093534 L 8.2170695,6.2259765 C 8.1433465,6.0232374 8.0764649,5.832068 8.0165648,5.652368 7.9566608,5.472667 7.908731,5.2994147 7.8718708,5.1335368 Z m 4.4095502,0.8712644 c -0.175092,0 -0.308859,0.032125 -0.401009,0.096635 -0.09215,0.064508 -0.154302,0.154558 -0.186552,0.2697509 -0.02765,0.110585 -0.04186,0.2396107 -0.04186,0.3870566 -0.193523,0 -0.340981,-0.032642 -0.44235,-0.097152 -0.06653,-0.047517 -0.110086,-0.1157968 -0.130742,-0.2046386 -0.0091,0.041018 -0.01395,0.084398 -0.01395,0.1307412 0,0.1566622 0.04793,0.2693652 0.144695,0.3384807 0.101369,0.064508 0.248827,0.097152 0.44235,0.097152 0,-0.1474467 0.01421,-0.2764716 0.04186,-0.3870565 0.03225,-0.1151925 0.0944,-0.2052429 0.186552,-0.2697509 0.09215,-0.064508 0.225917,-0.096635 0.401009,-0.096635 0.188916,0 0.329009,0.036864 0.421163,0.1105876 0.09215,0.073723 0.152188,0.1748417 0.179834,0.3038575 0.02765,0.1244079 0.04134,0.2697549 0.04134,0.4356323 V 6.8548786 c 0,-0.1658771 -0.01369,-0.3112243 -0.04134,-0.4356322 C 12.854772,6.2902303 12.794734,6.1891089 12.702584,6.1153889 12.61043,6.0416619 12.470337,6.0048012 12.281421,6.0048012 Z m 0.642338,1.5482261 -0.44235,0.02067 c -0.391656,0.018431 -0.663401,0.099007 -0.815455,0.2418456 -0.147445,0.138231 -0.221175,0.3430947 -0.221175,0.6149496 0,0.045773 0.0025,0.088823 0.0067,0.129708 0.0211,-0.2056395 0.09253,-0.3657663 0.214457,-0.4800743 0.152054,-0.1428387 0.423799,-0.2234149 0.815455,-0.2418455 l 0.44235,-0.020671 z M 6.9525472,7.7809203 6.689514,8.5064575 c -0.04147,0.110585 -0.062012,0.2095894 -0.062012,0.2971395 0,0.043445 0.00578,0.082717 0.017053,0.1178222 0.0103,-0.047559 0.025146,-0.097547 0.044958,-0.1503784 L 6.9525472,8.0455036 h 1.8174599 l 0.276469,0.7741129 c 0.015603,0.042909 0.027206,0.081574 0.036174,0.1178224 0.012661,-0.037222 0.01912,-0.079243 0.01912,-0.1266074 0,-0.036862 -0.00475,-0.076352 -0.013953,-0.1178221 -0.00921,-0.041466 -0.022911,-0.087296 -0.041341,-0.1379762 L 8.7700071,7.7809203 Z m 3.8271568,0.7586101 c -0.0033,0.039079 -0.0052,0.079384 -0.0052,0.1209228 0,0.3778316 0.101118,0.6569403 0.303857,0.8366413 0.202739,0.1797011 0.458679,0.2692342 0.767395,0.2692342 0.193525,0 0.349939,-0.027392 0.469739,-0.082682 0.124408,-0.0599 0.23289,-0.1383659 0.325045,-0.2351275 0.09215,-0.101369 0.186426,-0.2166996 0.283187,-0.3457154 h 0.05529 l 0.110587,0.5947957 H 14.02288 V 9.4330159 H 13.08964 L 12.979053,8.8382201 h -0.05529 c -0.09676,0.1290159 -0.191037,0.2443464 -0.283187,0.3457155 -0.09215,0.096762 -0.200637,0.1752277 -0.325045,0.2351275 -0.1198,0.05529 -0.276214,0.082682 -0.469739,0.082682 -0.308716,0 -0.564656,-0.089533 -0.767395,-0.2692342 C 10.902302,9.0764287 10.802799,8.8451496 10.779704,8.5395304 Z M 5.5562499,9.4330159 v 0.2645833 h 1.686202 V 9.4330159 Z m 2.9719116,0 V 9.6975992 H 10.428821 V 9.4330159 Z" />
  <path
     id="rect6750"
     style="fill:#5f3629;fill-opacity:1;stroke-width:9.33335;stroke-linecap:round;stroke-linejoin:round"
     d="M 4 49 L 4 52 C 4 56.432 7.5680001 60 12 60 L 52 60 C 56.432 60 60 56.432 60 52 L 60 49 C 60 53.432 56.432 57 52 57 L 12 57 C 7.5680001 57 4 53.432 4 49 z "
     transform="scale(0.26458333)" />
  <path
     id="rect20393"
     style="opacity:0.3;fill:#000000;fill-opacity:1;stroke-width:9;stroke-linecap:round;stroke-linejoin:round"
     d="M 12 4 C 7.5680001 4 4 7.5680001 4 12 L 4 43 C 4 47.432 7.5680001 51 12 51 L 52 51 C 56.432 51 60 47.432 60 43 L 60 42 C 60 46.432003 56.431999 50 52 50 L 14 50 L 14 4 L 12 4 z "
     transform="scale(0.26458333)" />
  <path
     id="rect1345"
     style="opacity:0.3;fill:url(#linearGradient1781);fill-opacity:1;stroke-width:0.264583"
     d="m 3.1750003,1.0583333 c -1.172633,0 -2.116667,0.944034 -2.116667,2.116667 V 13.758333 c 0,1.172634 0.944034,2.116667 2.116667,2.116667 H 13.758334 c 1.172633,0 2.116666,-0.944033 2.116666,-2.116667 V 3.1750003 c 0,-1.172633 -0.944033,-2.116667 -2.116666,-2.116667 z m 0,0.264584 H 13.758334 c 1.026054,0 1.852083,0.826029 1.852083,1.852083 V 13.758333 c 0,1.026054 -0.826029,1.852084 -1.852083,1.852084 H 3.1750003 c -1.026054,0 -1.852083,-0.82603 -1.852083,-1.852084 V 3.1750003 c 0,-1.026054 0.826029,-1.852083 1.852083,-1.852083 z" />
</svg>
