<?xml version="1.0" encoding="UTF-8" standalone="no"?>
<!-- Created with Inkscape (http://www.inkscape.org/) -->

<svg
   width="64"
   height="64"
   viewBox="0 0 16.933333 16.933333"
   version="1.1"
   id="svg5"
   inkscape:version="1.1.1 (3bf5ae0d25, 2021-09-20, custom)"
   sodipodi:docname="accessories-calculator.svg"
   xmlns:inkscape="http://www.inkscape.org/namespaces/inkscape"
   xmlns:sodipodi="http://sodipodi.sourceforge.net/DTD/sodipodi-0.dtd"
   xmlns:xlink="http://www.w3.org/1999/xlink"
   xmlns="http://www.w3.org/2000/svg"
   xmlns:svg="http://www.w3.org/2000/svg">
  <sodipodi:namedview
     id="namedview7"
     pagecolor="#ffffff"
     bordercolor="#666666"
     borderopacity="1.0"
     inkscape:pageshadow="2"
     inkscape:pageopacity="0.0"
     inkscape:pagecheckerboard="0"
     inkscape:document-units="px"
     showgrid="false"
     units="px"
     height="48px"
     inkscape:zoom="5.656854"
     inkscape:cx="34.471457"
     inkscape:cy="24.218408"
     inkscape:window-width="1920"
     inkscape:window-height="1011"
     inkscape:window-x="0"
     inkscape:window-y="0"
     inkscape:window-maximized="1"
     inkscape:current-layer="svg5"
     inkscape:lockguides="true" />
  <defs
     id="defs2">
    <linearGradient
       inkscape:collect="always"
       id="linearGradient2326">
      <stop
         style="stop-color:#333333;stop-opacity:1"
         offset="0"
         id="stop2322" />
      <stop
         style="stop-color:#808080;stop-opacity:1"
         offset="1"
         id="stop2324" />
    </linearGradient>
    <linearGradient
       inkscape:collect="always"
       id="linearGradient1876">
      <stop
         style="stop-color:#f27e0e;stop-opacity:1;"
         offset="0"
         id="stop1872" />
      <stop
         style="stop-color:#f2ba0e;stop-opacity:1"
         offset="1"
         id="stop1874" />
    </linearGradient>
    <linearGradient
       inkscape:collect="always"
       id="linearGradient37218">
      <stop
         style="stop-color:#1a1a1a;stop-opacity:1"
         offset="0"
         id="stop37214" />
      <stop
         style="stop-color:#e6e6e6;stop-opacity:0.00306325"
         offset="0.49741825"
         id="stop37220" />
      <stop
         style="stop-color:#ffffff;stop-opacity:1"
         offset="1"
         id="stop37216" />
    </linearGradient>
    <linearGradient
       inkscape:collect="always"
       xlink:href="#linearGradient37218"
       id="linearGradient881"
       x1="64.208344"
       y1="64.062607"
       x2="0.30528301"
       y2="0.13507102"
       gradientUnits="userSpaceOnUse" />
    <linearGradient
       inkscape:collect="always"
       xlink:href="#linearGradient1876"
       id="linearGradient1878"
       x1="15.345833"
       y1="16.139584"
       x2="15.345833"
       y2="6.6145835"
       gradientUnits="userSpaceOnUse" />
    <linearGradient
       inkscape:collect="always"
       xlink:href="#linearGradient2326"
       id="linearGradient2328"
       x1="3.7041669"
       y1="16.933332"
       x2="10.054166"
       y2="-1.0583336"
       gradientUnits="userSpaceOnUse" />
  </defs>
  <path
     id="rect846-3"
     style="fill:url(#linearGradient2328);stroke-width:0.337527;fill-opacity:1"
     d="m 3.175,1.5875 h 10.583333 c 0.879475,0 1.5875,0.708025 1.5875,1.5875 v 10.583333 c 0,0.879475 -0.708025,1.5875 -1.5875,1.5875 H 3.175 c -0.879475,0 -1.5875,-0.708025 -1.5875,-1.5875 V 3.175 c 0,-0.879475 0.708025,-1.5875 1.5875,-1.5875 z" />
  <path
     id="rect849"
     style="fill:url(#linearGradient1878);stroke-width:1.52041;stroke-linejoin:round;fill-opacity:1"
     d="m 15.345833,8.466666 v 5.291667 c 0,0.879475 -0.708025,1.5875 -1.5875,1.5875 l -5.2916668,0 V 8.466666 Z"
     sodipodi:nodetypes="cscccc" />
  <path
     id="rect2204"
     style="opacity:0.1;stroke-width:1.57726;stroke-linejoin:round"
     d="m 8.4666662,8.466666 v 6.879167 H 3.1749994 c -0.8794751,0 -1.5875001,-0.708025 -1.5875001,-1.5875 l 3e-7,-5.291667 z"
     sodipodi:nodetypes="ccsscc" />
  <path
     id="rect3624"
     style="opacity:0.1;fill:#999999;stroke-width:1.57301;stroke-linejoin:round"
     d="m 8.4666662,1.5874994 5.2916668,6e-7 c 0.879475,1e-7 1.5875,0.708025 1.5875,1.5875 V 8.466666 H 8.4666662 Z"
     sodipodi:nodetypes="cssccc" />
  <path
     id="rect846"
     style="opacity:0.3;fill:url(#linearGradient881);stroke-width:1.27569;fill-opacity:1"
     d="M 12 6 C 8.6760005 6 6 8.6760005 6 12 L 6 52 C 6 55.324 8.6760005 58 12 58 L 52 58 C 55.324 58 58 55.324 58 52 L 58 12 C 58 8.6760005 55.324 6 52 6 L 12 6 z M 12 7 L 52 7 C 54.77 7 57 9.23 57 12 L 57 52 C 57 54.77 54.77 57 52 57 L 12 57 C 9.23 57 7 54.77 7 52 L 7 12 C 7 9.23 9.23 7 12 7 z "
     transform="scale(0.26458333)" />
  <path
     id="rect5004"
     style="opacity:1;fill:#ffffff;stroke-width:3.62934;stroke-linejoin:round"
     d="m 3.175,4.7624997 1.5874998,10e-8 0,-1.5875001 h 0.5291667 l 0,1.5875001 1.5875001,-10e-8 v 0.5291667 l -1.5875001,10e-8 0,1.5874998 H 4.7624998 l 0,-1.5874998 -1.5874998,-10e-8 z"
     sodipodi:nodetypes="ccccccccccccc" />
  <path
     id="rect5004-6"
     style="fill:#ffffff;stroke-width:3.62934;stroke-linejoin:round"
     d="m 3.9045511,10.409542 1.1225318,1.122532 1.1225328,-1.122533 0.3741773,0.374177 -1.1225327,1.122533 1.1225321,1.122532 -0.3741776,0.374178 -1.1225321,-1.122532 -1.122532,1.122532 -0.3741773,-0.374178 1.122532,-1.122532 -1.1225319,-1.122532 z"
     sodipodi:nodetypes="ccccccccccccc" />
  <path
     id="rect6577"
     style="opacity:1;fill:#ffffff;fill-opacity:1;stroke-width:5.87917;stroke-linejoin:round"
     d="M 38 41 L 38 43 L 52 43 L 52 41 L 38 41 z M 38 47 L 38 49 L 52 49 L 52 47 L 38 47 z "
     transform="scale(0.26458333)" />
  <rect
     style="opacity:1;fill:#ffffff;fill-opacity:1;stroke-width:1.5875;stroke-linejoin:round"
     id="rect7336"
     width="3.7041667"
     height="0.52916664"
     x="10.054165"
     y="4.7624998" />
</svg>
