<?xml version="1.0" encoding="UTF-8" standalone="no"?>
<!-- Created with Inkscape (http://www.inkscape.org/) -->

<svg
   width="64"
   height="64"
   viewBox="0 0 16.933333 16.933333"
   version="1.1"
   id="svg5"
   inkscape:version="1.1.1 (3bf5ae0d25, 2021-09-20, custom)"
   sodipodi:docname="accessories-notes.svg"
   xmlns:inkscape="http://www.inkscape.org/namespaces/inkscape"
   xmlns:sodipodi="http://sodipodi.sourceforge.net/DTD/sodipodi-0.dtd"
   xmlns:xlink="http://www.w3.org/1999/xlink"
   xmlns="http://www.w3.org/2000/svg"
   xmlns:svg="http://www.w3.org/2000/svg">
  <sodipodi:namedview
     id="namedview7"
     pagecolor="#ffffff"
     bordercolor="#666666"
     borderopacity="1.0"
     inkscape:pageshadow="2"
     inkscape:pageopacity="0.0"
     inkscape:pagecheckerboard="0"
     inkscape:document-units="px"
     showgrid="false"
     units="px"
     height="48px"
     inkscape:zoom="2.8284271"
     inkscape:cx="-17.324116"
     inkscape:cy="26.693281"
     inkscape:window-width="1920"
     inkscape:window-height="1019"
     inkscape:window-x="0"
     inkscape:window-y="0"
     inkscape:window-maximized="1"
     inkscape:current-layer="svg5"
     inkscape:lockguides="true" />
  <defs
     id="defs2">
    <linearGradient
       inkscape:collect="always"
       id="linearGradient10846">
      <stop
         style="stop-color:#f3c247;stop-opacity:1"
         offset="0"
         id="stop10842" />
      <stop
         style="stop-color:#f6ef6e;stop-opacity:1"
         offset="1"
         id="stop10844" />
    </linearGradient>
    <linearGradient
       inkscape:collect="always"
       id="linearGradient1137">
      <stop
         style="stop-color:#f3efea;stop-opacity:1"
         offset="0"
         id="stop1133" />
      <stop
         style="stop-color:#fcfcfc;stop-opacity:1"
         offset="1"
         id="stop1135" />
    </linearGradient>
    <linearGradient
       inkscape:collect="always"
       id="linearGradient37218">
      <stop
         style="stop-color:#1a1a1a;stop-opacity:1"
         offset="0"
         id="stop37214" />
      <stop
         style="stop-color:#000000;stop-opacity:0.00392157"
         offset="0.49741825"
         id="stop37220" />
      <stop
         style="stop-color:#919191;stop-opacity:1"
         offset="1"
         id="stop37216" />
    </linearGradient>
    <linearGradient
       inkscape:collect="always"
       xlink:href="#linearGradient37218"
       id="linearGradient881"
       x1="64.208344"
       y1="64.062607"
       x2="0.30528301"
       y2="0.13507102"
       gradientUnits="userSpaceOnUse" />
    <linearGradient
       inkscape:collect="always"
       xlink:href="#linearGradient1137"
       id="linearGradient1139"
       x1="8.9958334"
       y1="18.520832"
       x2="8.9958334"
       y2="-2.7838135e-07"
       gradientUnits="userSpaceOnUse" />
    <linearGradient
       inkscape:collect="always"
       xlink:href="#linearGradient10846"
       id="linearGradient10848"
       x1="1.5875"
       y1="5.953125"
       x2="1.5874997"
       y2="0.13229157"
       gradientUnits="userSpaceOnUse" />
  </defs>
  <path
     id="rect846-3"
     style="fill:url(#linearGradient1139);stroke-width:0.337527;fill-opacity:1"
     d="m 3.175,1.5875 h 10.583333 c 0.879475,0 1.5875,0.708025 1.5875,1.5875 v 10.583333 c 0,0.879475 -0.708025,1.5875 -1.5875,1.5875 H 3.175 c -0.879475,0 -1.5875,-0.708025 -1.5875,-1.5875 V 3.175 c 0,-0.879475 0.708025,-1.5875 1.5875,-1.5875 z" />
  <path
     id="rect1785"
     style="opacity:1;fill:#dad9d8;fill-opacity:1;stroke-width:0.376081;stroke-linecap:round;stroke-linejoin:round"
     d="M 1.8520833,8.2020831 V 8.4666664 H 15.081249 V 8.2020831 Z m 0,3.4395829 V 11.90625 H 15.081249 v -0.264584 z"
     sodipodi:nodetypes="cccccccccc" />
  <path
     id="path1866"
     style="opacity:1;fill:#dad9d8;fill-opacity:1;stroke-width:0.0995048;stroke-linecap:round;stroke-linejoin:round"
     d="M 1.984375,5.5562499 V 5.8208333 H 2.2489583 V 5.5562499 Z m 0.5291666,0 V 5.8208333 H 2.778125 V 5.5562499 Z m 0.5291667,0 V 5.8208333 H 3.3072916 V 5.5562499 Z m 0.5291666,0 V 5.8208333 H 3.8364583 V 5.5562499 Z m 0.5291667,0 V 5.8208333 H 4.3656249 V 5.5562499 Z m 0.5291667,0 V 5.8208333 H 4.8947916 V 5.5562499 Z m 0.5291666,0 V 5.8208333 H 5.4239583 V 5.5562499 Z m 0.5291667,0 V 5.8208333 H 5.9531249 V 5.5562499 Z m 0.5291666,0 V 5.8208333 H 6.4822916 V 5.5562499 Z m 0.5291667,0 V 5.8208333 H 7.0114582 V 5.5562499 Z m 0.5291667,0 V 5.8208333 H 7.5406249 V 5.5562499 Z m 0.5291666,0 V 5.8208333 H 8.0697916 V 5.5562499 Z m 0.5291667,0 V 5.8208333 H 8.5989582 V 5.5562499 Z m 0.5291666,0 V 5.8208333 H 9.1281249 V 5.5562499 Z m 0.5291667,0 V 5.8208333 H 9.6572915 V 5.5562499 Z m 0.5291667,0 V 5.8208333 H 10.186458 V 5.5562499 Z m 0.5291671,0 v 0.2645834 h 0.264583 V 5.5562499 Z m 0.529166,0 v 0.2645834 h 0.264584 V 5.5562499 Z m 0.529167,0 v 0.2645834 h 0.264583 V 5.5562499 Z m 0.529167,0 v 0.2645834 h 0.264583 V 5.5562499 Z m 0.529166,0 v 0.2645834 h 0.264583 V 5.5562499 Z m 0.529167,0 v 0.2645834 h 0.264583 V 5.5562499 Z m 0.529166,0 v 0.2645834 h 0.264584 V 5.5562499 Z m 0.529167,0 v 0.2645834 h 0.264583 V 5.5562499 Z m 0.529167,0 v 0.2645834 h 0.264583 V 5.5562499 Z" />
  <path
     id="rect1985"
     style="fill:url(#linearGradient10848);fill-opacity:1;stroke-width:0.276932"
     d="m 3.175,1.5875 h 10.583333 c 0.879475,0 1.5875,0.708025 1.5875,1.5875 V 5.2916666 H 1.5875 V 3.175 c 0,-0.879475 0.708025,-1.5875 1.5875,-1.5875 z"
     sodipodi:nodetypes="sssccss" />
  <path
     id="rect846"
     style="opacity:0.3;fill:url(#linearGradient881);stroke-width:1.27569;fill-opacity:1"
     d="M 12 6 C 8.6760005 6 6 8.6760005 6 12 L 6 18 L 6 19 L 6 52 C 6 55.324 8.6760005 58 12 58 L 52 58 C 55.324 58 58 55.324 58 52 L 58 19 L 58 18 L 58 12 C 58 8.6760005 55.324 6 52 6 L 12 6 z M 12 7 L 52 7 C 54.77 7 57 9.23 57 12 L 57 18 L 57 19 L 57 52 C 57 54.77 54.77 57 52 57 L 12 57 C 9.23 57 7 54.77 7 52 L 7 19 L 7 18 L 7 12 C 7 9.23 9.23 7 12 7 z "
     transform="scale(0.26458333)" />
</svg>
