<?xml version="1.0" encoding="UTF-8" standalone="no"?>
<!-- Created with Inkscape (http://www.inkscape.org/) -->

<svg
   width="64"
   height="64"
   viewBox="0 0 16.933333 16.933333"
   version="1.1"
   id="svg5"
   inkscape:version="1.1.1 (3bf5ae0d25, 2021-09-20, custom)"
   sodipodi:docname="addressbook.svg"
   xmlns:inkscape="http://www.inkscape.org/namespaces/inkscape"
   xmlns:sodipodi="http://sodipodi.sourceforge.net/DTD/sodipodi-0.dtd"
   xmlns:xlink="http://www.w3.org/1999/xlink"
   xmlns="http://www.w3.org/2000/svg"
   xmlns:svg="http://www.w3.org/2000/svg">
  <sodipodi:namedview
     id="namedview7"
     pagecolor="#ffffff"
     bordercolor="#666666"
     borderopacity="1.0"
     inkscape:pageshadow="2"
     inkscape:pageopacity="0.0"
     inkscape:pagecheckerboard="0"
     inkscape:document-units="px"
     showgrid="false"
     units="px"
     height="48px"
     inkscape:zoom="5.656854"
     inkscape:cx="-6.1871846"
     inkscape:cy="24.306797"
     inkscape:window-width="1920"
     inkscape:window-height="1011"
     inkscape:window-x="0"
     inkscape:window-y="0"
     inkscape:window-maximized="1"
     inkscape:current-layer="svg5"
     inkscape:lockguides="true" />
  <defs
     id="defs2">
    <linearGradient
       inkscape:collect="always"
       id="linearGradient856">
      <stop
         style="stop-color:#ffffff;stop-opacity:1;"
         offset="0"
         id="stop852" />
      <stop
         style="stop-color:#ffffff;stop-opacity:0;"
         offset="1"
         id="stop854" />
    </linearGradient>
    <linearGradient
       inkscape:collect="always"
       id="linearGradient2180">
      <stop
         style="stop-color:#fda123;stop-opacity:1;"
         offset="0"
         id="stop2176" />
      <stop
         style="stop-color:#fd782c;stop-opacity:1"
         offset="1"
         id="stop2178" />
    </linearGradient>
    <linearGradient
       inkscape:collect="always"
       id="linearGradient37218">
      <stop
         style="stop-color:#ffffff;stop-opacity:1"
         offset="0"
         id="stop37214" />
      <stop
         style="stop-color:#f9f9f9;stop-opacity:0.00427137"
         offset="0.49741825"
         id="stop37220" />
      <stop
         style="stop-color:#ffffff;stop-opacity:0.99327379"
         offset="1"
         id="stop37216" />
    </linearGradient>
    <linearGradient
       inkscape:collect="always"
       xlink:href="#linearGradient856"
       id="linearGradient858"
       x1="10.318749"
       y1="3.4395835"
       x2="10.318749"
       y2="11.90625"
       gradientUnits="userSpaceOnUse" />
    <linearGradient
       inkscape:collect="always"
       xlink:href="#linearGradient856"
       id="linearGradient2092"
       gradientUnits="userSpaceOnUse"
       x1="18"
       y1="31.876953"
       x2="18"
       y2="69.876953" />
    <linearGradient
       inkscape:collect="always"
       xlink:href="#linearGradient37218"
       id="linearGradient1781"
       x1="2.8346456e-08"
       y1="2.2677165e-07"
       x2="64"
       y2="64"
       gradientUnits="userSpaceOnUse"
       gradientTransform="scale(0.26458333)" />
    <linearGradient
       inkscape:collect="always"
       xlink:href="#linearGradient2180"
       id="linearGradient952"
       x1="7.4083333"
       y1="6.7529299e-07"
       x2="7.4083333"
       y2="16.933334"
       gradientUnits="userSpaceOnUse" />
  </defs>
  <path
     id="rect863"
     style="fill:url(#linearGradient952);stroke-width:0.264583;fill-opacity:1"
     d="M 3.1750003,1.0583333 H 13.758333 c 1.172634,0 2.116667,0.944034 2.116667,2.116667 V 13.758333 c 0,1.172634 -0.944033,2.116667 -2.116667,2.116667 H 3.1750003 c -1.172633,0 -2.116667,-0.944033 -2.116667,-2.116667 V 3.1750003 c 0,-1.172633 0.944034,-2.116667 2.116667,-2.116667 z" />
  <path
     id="rect1345"
     style="opacity:0.3;fill:url(#linearGradient1781);fill-opacity:1.0;stroke-width:0.264583"
     d="m 3.1750003,1.0583333 c -1.172633,0 -2.116667,0.944034 -2.116667,2.116667 V 13.758333 c 0,1.172634 0.944034,2.116667 2.116667,2.116667 H 13.758334 c 1.172633,0 2.116666,-0.944033 2.116666,-2.116667 V 3.1750003 c 0,-1.172633 -0.944033,-2.116667 -2.116666,-2.116667 z m 0,0.264584 H 13.758334 c 1.026054,0 1.852083,0.826029 1.852083,1.852083 V 13.758333 c 0,1.026054 -0.826029,1.852084 -1.852083,1.852084 H 3.1750003 c -1.026054,0 -1.852083,-0.82603 -1.852083,-1.852084 V 3.1750003 c 0,-1.026054 0.826029,-1.852083 1.852083,-1.852083 z" />
  <path
     id="path2"
     style="fill:url(#linearGradient2092);fill-opacity:1;stroke:none;stroke-width:2.58959"
     d="m 28.071681,33.668303 c -1.687932,1.642921 -8.911976,2.878923 -9.169337,5.33365 L 18,45.876953 C 18,48.153087 24.27221,50 32.001953,50 39.731699,50 46,48.155683 46,45.876953 l -0.902344,-6.875 c -0.01222,-1.857593 -6.076374,-3.075664 -8.922437,-5.145527 -0.358268,-0.322318 -0.78509,-0.197647 -0.78509,-0.197647 -0.311394,0.116155 -0.823005,0.265933 -1.487784,0.341221 -0.886449,0.204086 -2.236103,0.162703 -3.269532,0 0,0 -0.75319,-0.190608 -1.784456,-0.541838 0,0 -0.444172,-0.05109 -0.776676,0.210141 z"
     transform="scale(0.26458333)"
     sodipodi:nodetypes="cccscccccccc" />
  <path
     d="m 8.4669997,3.7041666 c -1.0235635,0 -1.8524165,0.732718 -1.8524165,1.6361145 0.008,0.3346902 0.038008,0.7320513 0.2467221,1.6361146 0.1233612,0.3506911 1.2249421,1.28609 1.2349444,1.4027648 0.240054,0.1166747 0.6174722,0.1166747 0.8648611,0 0,-0.1166748 0.9875555,-1.0520737 1.1109162,-1.4027648 0.235386,-0.9400659 0.234719,-1.2854233 0.246722,-1.6361146 0,-0.9033965 -0.8288526,-1.6361145 -1.8517493,-1.6361145 z"
     id="path4"
     style="stroke:none;stroke-width:0.666765;fill:url(#linearGradient858);fill-opacity:1" />
</svg>
