<?xml version="1.0" encoding="UTF-8" standalone="no"?>
<!-- Created with Inkscape (http://www.inkscape.org/) -->

<svg
   width="64"
   height="64"
   viewBox="0 0 16.933333 16.933333"
   version="1.1"
   id="svg5"
   inkscape:version="1.1.1 (3bf5ae0d25, 2021-09-20, custom)"
   sodipodi:docname="amarok.svg"
   xmlns:inkscape="http://www.inkscape.org/namespaces/inkscape"
   xmlns:sodipodi="http://sodipodi.sourceforge.net/DTD/sodipodi-0.dtd"
   xmlns:xlink="http://www.w3.org/1999/xlink"
   xmlns="http://www.w3.org/2000/svg"
   xmlns:svg="http://www.w3.org/2000/svg">
  <sodipodi:namedview
     id="namedview7"
     pagecolor="#ffffff"
     bordercolor="#666666"
     borderopacity="1.0"
     inkscape:pageshadow="2"
     inkscape:pageopacity="0.0"
     inkscape:pagecheckerboard="0"
     inkscape:document-units="px"
     showgrid="false"
     units="px"
     height="48px"
     inkscape:zoom="7.9999996"
     inkscape:cx="24.500001"
     inkscape:cy="30.062502"
     inkscape:window-width="1920"
     inkscape:window-height="1011"
     inkscape:window-x="0"
     inkscape:window-y="0"
     inkscape:window-maximized="1"
     inkscape:current-layer="svg5"
     inkscape:lockguides="true" />
  <defs
     id="defs2">
    <linearGradient
       inkscape:collect="always"
       id="linearGradient2946">
      <stop
         style="stop-color:#add6ff;stop-opacity:1"
         offset="0"
         id="stop2942" />
      <stop
         style="stop-color:#e2f4fd;stop-opacity:1"
         offset="1"
         id="stop2944" />
    </linearGradient>
    <linearGradient
       id="b"
       x1="25.868999"
       x2="24.539"
       y1="39.240002"
       y2="10.624"
       gradientTransform="matrix(1.3028,0,0,1.3028,-2.5031,2.2272)"
       gradientUnits="userSpaceOnUse">
      <stop
         stop-color="#2980b9"
         offset="0"
         id="stop7" />
      <stop
         stop-color="#1d99f3"
         offset="1"
         id="stop9" />
    </linearGradient>
    <linearGradient
       id="d"
       x1="27.040001"
       x2="24.839001"
       y1="16.621"
       y2="17.990999"
       gradientTransform="matrix(0.31269867,0,0,0.31269867,0.07671397,1.4790919)"
       gradientUnits="userSpaceOnUse">
      <stop
         stop-color="#fcfcfc"
         offset="0"
         id="stop12" />
      <stop
         stop-color="#c7c7c7"
         offset="1"
         id="stop14" />
    </linearGradient>
    <linearGradient
       id="g"
       x1="3.783"
       x2="19.573999"
       y1="23.643999"
       y2="22.495001"
       gradientTransform="matrix(0.31269867,0,0,0.31269867,0.07671397,1.4790919)"
       gradientUnits="userSpaceOnUse">
      <stop
         stop-color="#2980b9"
         offset="0"
         id="stop17" />
      <stop
         stop-color="#34495e"
         offset="1"
         id="stop19" />
    </linearGradient>
    <linearGradient
       id="i"
       x1="22.139999"
       x2="28.818001"
       y1="20.882"
       y2="26.073"
       gradientTransform="matrix(1.1276048,0,0,1.1276048,-10.48898,12.772196)"
       gradientUnits="userSpaceOnUse"
       xlink:href="#e" />
    <linearGradient
       id="e"
       x1="31.537001"
       x2="35.973"
       y1="27.6"
       y2="31"
       gradientUnits="userSpaceOnUse">
      <stop
         offset="0"
         id="stop2" />
      <stop
         stop-opacity="0"
         offset="1"
         id="stop4" />
    </linearGradient>
    <linearGradient
       inkscape:collect="always"
       xlink:href="#b"
       id="linearGradient1864"
       x1="-1.9090867"
       y1="12.964159"
       x2="-2.8000367"
       y2="6.5677681"
       gradientUnits="userSpaceOnUse"
       gradientTransform="matrix(3.4804184,0,0,5.0637639,40.842762,-16.03193)" />
    <linearGradient
       inkscape:collect="always"
       xlink:href="#b"
       id="linearGradient2939"
       gradientUnits="userSpaceOnUse"
       gradientTransform="matrix(0.31269867,0,0,0.31269867,0.07668997,1.4791158)"
       x1="25.868999"
       y1="39.240002"
       x2="24.539"
       y2="10.624" />
    <linearGradient
       inkscape:collect="always"
       xlink:href="#linearGradient2946"
       id="linearGradient2948"
       x1="1.5875"
       y1="1.058333"
       x2="15.345833"
       y2="15.874999"
       gradientUnits="userSpaceOnUse" />
    <linearGradient
       inkscape:collect="always"
       xlink:href="#linearGradient37218"
       id="linearGradient1781"
       x1="2.8346456e-08"
       y1="2.2677165e-07"
       x2="64"
       y2="64"
       gradientUnits="userSpaceOnUse"
       gradientTransform="scale(0.26458333)" />
    <linearGradient
       inkscape:collect="always"
       id="linearGradient37218">
      <stop
         style="stop-color:#ffffff;stop-opacity:1"
         offset="0"
         id="stop37214" />
      <stop
         style="stop-color:#717171;stop-opacity:0.00392157"
         offset="0.49741825"
         id="stop37220" />
      <stop
         style="stop-color:#000000;stop-opacity:1"
         offset="1"
         id="stop37216" />
    </linearGradient>
  </defs>
  <path
     id="rect1856"
     style="fill:url(#linearGradient1864);fill-opacity:1;fill-rule:evenodd;stroke-width:9.25542;stroke-linejoin:round"
     d="M 12 4 C 7.5680012 4 4 7.5680012 4 12 L 4 52 C 4 56.432003 7.5680012 60 12 60 L 52 60 C 56.432003 60 60 56.432003 60 52 L 60 12 C 60 7.5680012 56.432003 4 52 4 L 12 4 z "
     transform="scale(0.26458333)" />
  <path
     id="rect1345"
     style="opacity:0.3;fill:url(#linearGradient1781);fill-opacity:1;stroke-width:0.264583"
     d="m 3.1750003,1.0583333 c -1.172633,0 -2.116667,0.944034 -2.116667,2.116667 V 13.758333 c 0,1.172634 0.944034,2.116667 2.116667,2.116667 H 13.758334 c 1.172633,0 2.116666,-0.944033 2.116666,-2.116667 V 3.1750003 c 0,-1.172633 -0.944033,-2.116667 -2.116666,-2.116667 z m 0,0.264584 H 13.758334 c 1.026054,0 1.852083,0.826029 1.852083,1.852083 V 13.758333 c 0,1.026054 -0.826029,1.852084 -1.852083,1.852084 H 3.1750003 c -1.026054,0 -1.852083,-0.82603 -1.852083,-1.852084 V 3.1750003 c 0,-1.026054 0.826029,-1.852083 1.852083,-1.852083 z" />
  <path
     id="rect846-3"
     style="fill:url(#linearGradient2948);stroke-width:0.337527;fill-opacity:1"
     d="m 3.175,1.5875 h 10.583333 c 0.879475,0 1.5875,0.708025 1.5875,1.5875 v 10.583333 c 0,0.879475 -0.708025,1.5875 -1.5875,1.5875 H 3.175 c -0.879475,0 -1.5875,-0.708025 -1.5875,-1.5875 V 3.175 c 0,-0.879475 0.708025,-1.5875 1.5875,-1.5875 z" />
  <path
     id="path54"
     style="fill:url(#linearGradient2939);fill-rule:evenodd;stroke-width:0.24002"
     d="m 12.482441,4.9971108 c -0.0306,7.81e-5 -0.06235,0.00206 -0.09612,0.00723 C 11.847238,5.0872094 10.621129,5.5433566 10.234,5.6399647 9.8471832,5.7365873 9.6658473,5.8232931 9.0454423,5.7645048 8.3381258,5.6975872 8.0202107,5.6930427 7.8341467,5.698359 7.555531,5.6736549 7.415051,5.6125763 7.415051,5.6125763 L 7.43934,5.8869781 C 7.2542214,6.0283166 6.8811748,6.2340291 6.1153894,6.4419829 5.617899,6.4973316 5.2036382,6.3451083 4.9547367,6.483324 4.7061477,6.6215376 3.9184975,6.967018 3.5176154,7.0636505 3.1167333,7.1602731 2.8201407,7.341419 2.5796882,7.4202178 c -0.3818006,0.1244528 0.7565114,1.949185 1.2505694,2.1890134 0,0 -0.1710063,0.1775346 -0.3126422,0.3260783 C 3.1739539,10.170146 2.9031825,10.18594 2.9031825,10.18594 l 0.017052,0.188619 c -0.3990099,0.212011 -0.7943903,0.310434 -0.9260415,0.32918 -0.015938,0.0022 -0.2282095,0.0725 -0.4066935,0.132808 v 2.921786 c 0,0.879475 0.708025,1.5875 1.5874999,1.5875 h 5.9340044 c 0.1118039,-0.615005 0.2384882,-1.317923 0.2661337,-1.605587 0.1357099,-0.1995 0.3183268,-0.202055 0.3183268,-0.202055 0,0 -0.234497,-0.664846 -0.2113565,-1.465027 0.029081,-0.189808 0.078537,-0.368366 0.1410766,-0.538468 h 0.2361613 c 0,0 -0.030168,-0.326577 0.1033528,-0.658358 C 10.402032,10.208409 11.002125,9.7621847 11.258227,9.5658239 11.49964,9.3803936 12.611924,9.0961401 12.846761,9.0407914 13.081597,8.9854427 13.302746,8.611963 13.316499,8.5012893 13.330252,8.390616 13.247769,8.1829625 13.247769,8.1829625 L 12.626102,8.0455033 11.873693,7.9607541 c 0,0 1.033007,-1.5300861 1.219047,-1.7073892 0.197311,-0.1879315 0.293522,-0.4197051 0.293522,-0.6407878 0,-0.2210829 -0.16278,-0.5183147 -0.16278,-0.5183147 0,0 -0.187091,-0.094254 -0.49196,-0.082682 -0.05097,0.00188 -0.103079,-0.00512 -0.15968,-0.00982 h -10e-4 c -0.0283,-0.00235 -0.05776,-0.00473 -0.08837,-0.00465 z" />
  <path
     d="m 13.288161,5.2315479 c 0,0 -0.09788,-0.087869 -0.205131,-0.097875 -0.107568,-0.00969 -0.332405,0.029393 -0.400571,0.019701 -0.06848,-0.00969 -0.303001,-0.1466549 -0.303001,-0.1466549 0,0 0.312698,-0.1760502 0.420275,-0.1954366 0.107568,-0.019701 0.293305,-0.048782 0.293305,-0.048782 0,0 0.07817,0.097875 0.136963,0.234524 0.05879,0.1369629 0.05879,0.234524 0.05879,0.234524"
     fill="#2c3e50"
     id="path56"
     style="fill-rule:evenodd;stroke-width:0.24002" />
  <path
     d="m 12.893327,8.1177941 c -0.211072,0.028142 -0.251733,0.00469 -0.251733,0.00469 0,0 0.04878,-0.2210781 0.101627,-0.2398405 0.05284,-0.018762 0.207005,0.2210781 0.150094,0.2351505"
     fill="#fcfcfc"
     id="path58"
     style="fill-rule:evenodd;stroke-width:0.24002" />
  <path
     d="m 13.180632,6.1599471 c 0,0 -0.693876,0.3324043 -1.025968,0.8502245 -0.332404,0.5178202 -0.566928,1.0456732 -0.566928,1.0456732 0,0 0.234524,0.048782 0.449654,0.1269564 0.21513,0.078175 0.606004,0.097876 0.77205,0.06848 0.166044,-0.029393 0.215137,-0.1075675 0.04878,-0.1760502 -0.166044,-0.06848 -0.410579,-0.117262 -0.420276,-0.2639265 -0.0097,-0.1466549 0.303002,-0.996877 0.390873,-1.1335207 0.08787,-0.1369628 0.351774,-0.5178201 0.351774,-0.5178201"
     fill="#2c3e50"
     id="path60"
     style="fill-rule:evenodd;stroke-width:0.24002" />
  <path
     d="m 7.0929924,7.8504113 c 0,0 0.8596093,-0.1294575 1.1869972,-0.3252038 1.067563,-0.6379024 1.0312719,-0.9940688 1.0312719,-0.9940688 0,0 -1.1291523,-0.4518385 -1.9099629,0.4796809 C 7.0745348,7.4007569 7.0929684,7.8504113 7.0929684,7.8504113"
     fill="#34495e"
     id="path62"
     style="fill-rule:evenodd;stroke-width:0.24002" />
  <path
     d="m 7.4148598,7.4642183 c 0,0 0.8568011,-0.1726107 1.1748042,-0.4077708 C 8.9073551,6.8216115 9.0386943,6.6971609 8.9974348,6.6142818 8.9558464,6.5314172 8.6450127,6.4069617 8.2582197,6.5035868 7.8714027,6.6002118 7.5949952,6.8766266 7.5190047,7.0495614 7.443019,7.2221721 7.3670333,7.408848 7.4155007,7.4641967"
     fill="url(#d)"
     id="path64"
     style="fill:url(#d);fill-rule:evenodd;stroke-width:0.24002" />
  <path
     d="m 12.258233,8.2572459 c 0.315819,0.036272 0.375248,0.00594 0.375248,0.00594 0,0 -0.07255,-0.2845443 -0.151347,-0.3086424 -0.0788,-0.024079 -0.308643,0.2845443 -0.223892,0.3026898"
     fill="#fcfcfc"
     id="path66"
     style="fill-rule:evenodd;stroke-width:0.24002" />
  <path
     d="m 3.9223219,9.2324491 c 0.315819,0.2420367 1.113215,0.3846088 1.5044003,0.3277 C 6.3495049,9.4253752 6.397029,9.4944819 6.174386,8.9056612 6.0136587,8.480705 5.0799407,8.0457399 4.4545433,8.6711372 L 4.1418447,8.3584386 C 4.3272749,8.0913918 3.9854953,7.4691147 3.829146,7.4203426 3.6727967,7.3715704 2.9351418,7.5723139 2.8666639,7.6407942 c -0.068478,0.06848 0.7407752,1.3499231 1.055682,1.5919597"
     fill="url(#g)"
     id="path68"
     style="fill:url(#g);fill-rule:evenodd;stroke-width:0.24002" />
  <path
     id="path72"
     style="mix-blend-mode:normal;fill:url(#i);stroke-width:0.907162;opacity:0.15"
     d="M 14.318359 36.451172 C 14.318359 36.451172 13.70223 37.091348 13.191406 37.626953 C 11.95222 38.473774 10.974609 38.53125 10.974609 38.53125 L 11.037109 39.208984 C 10.148567 39.68144 9.2941404 39.984387 8.6367188 40.173828 L 7.6816406 40.400391 L 6 40.957031 L 6 52 C 6 55.324 8.676 58 12 58 L 27.132812 58 L 31.238281 46.601562 L 22.216797 37.582031 C 22.216797 37.582031 20.741304 38.063374 18.123047 37.611328 C 15.505879 37.159058 14.324219 36.453125 14.324219 36.453125 L 14.318359 36.451172 z "
     transform="scale(0.26458333)" />
</svg>
