<?xml version="1.0" encoding="UTF-8" standalone="no"?>
<!-- Created with Inkscape (http://www.inkscape.org/) -->

<svg
   width="64"
   height="64"
   viewBox="0 0 16.933333 16.933333"
   version="1.1"
   id="svg5"
   inkscape:version="1.1.1 (3bf5ae0d25, 2021-09-20, custom)"
   sodipodi:docname="amarok.svg"
   xmlns:inkscape="http://www.inkscape.org/namespaces/inkscape"
   xmlns:sodipodi="http://sodipodi.sourceforge.net/DTD/sodipodi-0.dtd"
   xmlns:xlink="http://www.w3.org/1999/xlink"
   xmlns="http://www.w3.org/2000/svg"
   xmlns:svg="http://www.w3.org/2000/svg">
  <sodipodi:namedview
     id="namedview7"
     pagecolor="#ffffff"
     bordercolor="#666666"
     borderopacity="1.0"
     inkscape:pageshadow="2"
     inkscape:pageopacity="0.0"
     inkscape:pagecheckerboard="0"
     inkscape:document-units="px"
     showgrid="false"
     units="px"
     height="48px"
     inkscape:zoom="7.9999996"
     inkscape:cx="26.125001"
     inkscape:cy="34.500002"
     inkscape:window-width="1920"
     inkscape:window-height="1011"
     inkscape:window-x="0"
     inkscape:window-y="0"
     inkscape:window-maximized="1"
     inkscape:current-layer="svg5"
     inkscape:lockguides="true" />
  <defs
     id="defs2">
    <linearGradient
       inkscape:collect="always"
       id="linearGradient2946">
      <stop
         style="stop-color:#add6ff;stop-opacity:1"
         offset="0"
         id="stop2942" />
      <stop
         style="stop-color:#e2f4fd;stop-opacity:1"
         offset="1"
         id="stop2944" />
    </linearGradient>
    <linearGradient
       inkscape:collect="always"
       id="linearGradient37218">
      <stop
         style="stop-color:#1a1a1a;stop-opacity:1"
         offset="0"
         id="stop37214" />
      <stop
         style="stop-color:#e6e6e6;stop-opacity:0.00306325"
         offset="0.49741825"
         id="stop37220" />
      <stop
         style="stop-color:#ffffff;stop-opacity:1"
         offset="1"
         id="stop37216" />
    </linearGradient>
    <linearGradient
       inkscape:collect="always"
       xlink:href="#linearGradient37218"
       id="linearGradient881"
       x1="64.208344"
       y1="64.062607"
       x2="0.30528301"
       y2="0.13507102"
       gradientUnits="userSpaceOnUse" />
    <linearGradient
       id="b"
       x1="25.868999"
       x2="24.539"
       y1="39.240002"
       y2="10.624"
       gradientTransform="matrix(1.3028,0,0,1.3028,-2.5031,2.2272)"
       gradientUnits="userSpaceOnUse">
      <stop
         stop-color="#2980b9"
         offset="0"
         id="stop7" />
      <stop
         stop-color="#1d99f3"
         offset="1"
         id="stop9" />
    </linearGradient>
    <linearGradient
       id="d"
       x1="27.040001"
       x2="24.839001"
       y1="16.621"
       y2="17.990999"
       gradientTransform="matrix(1.3028,0,0,1.3028,-2.503,2.2271)"
       gradientUnits="userSpaceOnUse">
      <stop
         stop-color="#fcfcfc"
         offset="0"
         id="stop12" />
      <stop
         stop-color="#c7c7c7"
         offset="1"
         id="stop14" />
    </linearGradient>
    <linearGradient
       id="g"
       x1="3.783"
       x2="19.573999"
       y1="23.643999"
       y2="22.495001"
       gradientTransform="matrix(1.3028,0,0,1.3028,-2.503,2.2271)"
       gradientUnits="userSpaceOnUse">
      <stop
         stop-color="#2980b9"
         offset="0"
         id="stop17" />
      <stop
         stop-color="#34495e"
         offset="1"
         id="stop19" />
    </linearGradient>
    <linearGradient
       id="i"
       x1="22.139999"
       x2="28.818001"
       y1="20.882"
       y2="26.073"
       gradientTransform="matrix(1.1276048,0,0,1.1276048,-10.48898,12.772196)"
       gradientUnits="userSpaceOnUse"
       xlink:href="#e" />
    <linearGradient
       id="e"
       x1="31.537001"
       x2="35.973"
       y1="27.6"
       y2="31"
       gradientUnits="userSpaceOnUse">
      <stop
         offset="0"
         id="stop2" />
      <stop
         stop-opacity="0"
         offset="1"
         id="stop4" />
    </linearGradient>
    <linearGradient
       inkscape:collect="always"
       xlink:href="#b"
       id="linearGradient1864"
       x1="-1.9090867"
       y1="12.964159"
       x2="-2.8000367"
       y2="6.5677681"
       gradientUnits="userSpaceOnUse"
       gradientTransform="matrix(3.4804185,0,0,5.063764,40.842762,-16.03193)" />
    <linearGradient
       inkscape:collect="always"
       xlink:href="#b"
       id="linearGradient2939"
       gradientUnits="userSpaceOnUse"
       gradientTransform="matrix(1.1818533,0,0,1.1818533,0.28985187,5.5903593)"
       x1="25.868999"
       y1="39.240002"
       x2="24.539"
       y2="10.624" />
    <linearGradient
       inkscape:collect="always"
       xlink:href="#linearGradient2946"
       id="linearGradient2948"
       x1="1.5875"
       y1="1.058333"
       x2="15.345833"
       y2="15.874999"
       gradientUnits="userSpaceOnUse" />
  </defs>
  <path
     id="rect846-3"
     style="fill:url(#linearGradient2948);stroke-width:0.337527;fill-opacity:1"
     d="m 3.175,1.5875 h 10.583333 c 0.879475,0 1.5875,0.708025 1.5875,1.5875 v 10.583333 c 0,0.879475 -0.708025,1.5875 -1.5875,1.5875 H 3.175 c -0.879475,0 -1.5875,-0.708025 -1.5875,-1.5875 V 3.175 c 0,-0.879475 0.708025,-1.5875 1.5875,-1.5875 z" />
  <g
     fill-rule="evenodd"
     id="g70"
     transform="matrix(0.24002047,0,0,0.24002047,0.67748521,0.94454229)">
    <path
       id="path54"
       style="fill:url(#linearGradient2939);stroke-width:0.907164"
       d="M 47.177734 18.886719 C 47.062062 18.887014 46.942091 18.894558 46.814453 18.914062 C 44.776963 19.227252 40.142852 20.951273 38.679688 21.316406 C 37.217702 21.681594 36.532338 22.009301 34.1875 21.787109 C 31.514178 21.534192 30.312609 21.517016 29.609375 21.537109 C 28.556339 21.443744 28.025391 21.212891 28.025391 21.212891 L 28.117188 22.25 C 27.417528 22.784193 26.007588 23.561689 23.113281 24.347656 C 21.233002 24.556848 19.667292 23.981516 18.726562 24.503906 C 17.787013 25.026288 14.810067 26.332041 13.294922 26.697266 C 11.779777 27.062454 10.658797 27.7471 9.75 28.044922 C 8.3069742 28.515295 12.609256 35.411921 14.476562 36.318359 C 14.476562 36.318359 13.830239 36.989356 13.294922 37.550781 C 11.996044 38.438351 10.972656 38.498047 10.972656 38.498047 L 11.037109 39.210938 C 9.5290399 40.012235 8.0346888 40.384229 7.5371094 40.455078 C 7.4768701 40.463515 6.6745853 40.729097 6 40.957031 L 6 52 C 6 55.324 8.676 58 12 58 L 34.427734 58 C 34.8503 55.675574 35.329107 53.018877 35.433594 51.931641 C 35.946513 51.177624 36.636719 51.167969 36.636719 51.167969 C 36.636719 51.167969 35.750431 48.655163 35.837891 45.630859 C 35.947803 44.913474 36.134723 44.23861 36.371094 43.595703 L 37.263672 43.595703 C 37.263672 43.595703 37.149651 42.361395 37.654297 41.107422 C 39.31477 38.582966 41.582837 36.896448 42.550781 36.154297 C 43.463207 35.453458 47.667118 34.379114 48.554688 34.169922 C 49.442257 33.96073 50.278098 32.549153 50.330078 32.130859 C 50.382059 31.712566 50.070312 30.927734 50.070312 30.927734 L 47.720703 30.408203 L 44.876953 30.087891 C 44.876953 30.087891 48.781232 24.304888 49.484375 23.634766 C 50.230118 22.924474 50.59375 22.048479 50.59375 21.212891 C 50.59375 20.377302 49.978516 19.253906 49.978516 19.253906 C 49.978516 19.253906 49.271402 18.897672 48.119141 18.941406 C 47.926495 18.948482 47.729552 18.922032 47.515625 18.904297 L 47.511719 18.904297 C 47.404764 18.895407 47.293407 18.886428 47.177734 18.886719 z "
       transform="matrix(1.1023365,0,0,1.1023365,-2.8226143,-3.9352572)" />
    <path
       d="m 52.54,17.861 c 0,0 -0.40778,-0.36609 -0.85464,-0.40778 -0.44816,-0.04039 -1.3849,0.12246 -1.6689,0.08208 -0.28531,-0.04039 -1.2624,-0.61101 -1.2624,-0.61101 0,0 1.3028,-0.73348 1.751,-0.81425 0.44816,-0.08208 1.222,-0.20324 1.222,-0.20324 0,0 0.3257,0.40778 0.57063,0.9771 0.24493,0.57063 0.24493,0.9771 0.24493,0.9771"
       fill="#2c3e50"
       id="path56" />
    <path
       d="m 50.895,29.886 c -0.87939,0.11725 -1.0488,0.01954 -1.0488,0.01954 0,0 0.20324,-0.92108 0.42341,-0.99925 0.22017,-0.07817 0.86245,0.92108 0.62534,0.97971"
       fill="#fcfcfc"
       id="path58" />
    <path
       d="m 52.092,21.729 c 0,0 -2.8909,1.3849 -4.2745,3.5423 -1.3849,2.1574 -2.362,4.3566 -2.362,4.3566 0,0 0.9771,0.20324 1.8734,0.52894 0.8963,0.3257 2.5248,0.40778 3.2166,0.28531 0.69179,-0.12246 0.89633,-0.44816 0.20324,-0.73348 -0.69179,-0.28531 -1.7106,-0.48855 -1.751,-1.0996 -0.04039,-0.61101 1.2624,-4.1533 1.6285,-4.7226 0.36609,-0.57063 1.4656,-2.1574 1.4656,-2.1574"
       fill="#2c3e50"
       id="path60" />
    <path
       d="m 26.729,28.772 c 0,0 3.5814,-0.53936 4.9454,-1.3549 4.4478,-2.6577 4.2966,-4.1416 4.2966,-4.1416 0,0 -4.7044,-1.8825 -7.9575,1.9985 -1.3614,1.6246 -1.2846,3.498 -1.2846,3.498"
       fill="#34495e"
       id="path62" />
    <path
       d="m 28.07,27.163 c 0,0 3.5697,-0.71915 4.8946,-1.6989 1.3236,-0.9784 1.8708,-1.4969 1.6989,-1.8422 -0.17327,-0.34524 -1.4683,-0.86376 -3.0798,-0.46119 -1.6116,0.40257 -2.7632,1.5542 -3.0798,2.2747 -0.31658,0.71915 -0.63316,1.4969 -0.43123,1.7275"
       fill="url(#d)"
       id="path64"
       style="fill:url(#d)" />
    <path
       d="m 48.249,30.467 c 1.3158,0.15112 1.5634,0.02475 1.5634,0.02475 0,0 -0.30225,-1.1855 -0.63056,-1.2859 -0.32831,-0.10032 -1.2859,1.1855 -0.9328,1.2611"
       fill="#fcfcfc"
       id="path66" />
    <path
       d="m 13.519,34.53 c 1.3158,1.0084 4.638,1.6024 6.2678,1.3653 3.8446,-0.56151 4.0426,-0.27359 3.115,-2.7268 -0.66964,-1.7705 -4.5598,-3.5827 -7.1654,-0.9771 l -1.3028,-1.3028 c 0.77256,-1.1126 -0.6514,-3.7052 -1.3028,-3.9084 -0.6514,-0.2032 -3.7247,0.63316 -4.01,0.91847 -0.2853,0.28531 3.0863,5.6242 4.3983,6.6326"
       fill="url(#g)"
       id="path68"
       style="fill:url(#g)" />
    <path
       id="rect1856"
       style="fill:url(#linearGradient1864);fill-opacity:1;stroke-width:9.25543;stroke-linejoin:round"
       d="M 12,6 C 8.6760001,6 6,8.6760001 6,12 v 40 c 0,3.324 2.6760001,6 6,6 h 40 c 3.324,0 6,-2.676 6,-6 V 12 C 58,8.6760001 55.324,6 52,6 Z m 0,2 h 40 c 2.216,0 4,1.784 4,4 v 40 c 0,2.216 -1.784,4 -4,4 H 12 C 9.784,56 8,54.216 8,52 V 12 C 8,9.784 9.784,8 12,8 Z"
       transform="matrix(1.1023365,0,0,1.1023365,-2.8226143,-3.9352572)" />
  </g>
  <path
     id="path72"
     style="mix-blend-mode:normal;fill:url(#i);stroke-width:0.907162;opacity:0.15"
     d="M 14.318359 36.451172 C 14.318359 36.451172 13.70223 37.091348 13.191406 37.626953 C 11.95222 38.473774 10.974609 38.53125 10.974609 38.53125 L 11.037109 39.208984 C 10.148567 39.68144 9.2941404 39.984387 8.6367188 40.173828 L 7.6816406 40.400391 L 6 40.957031 L 6 52 C 6 55.324 8.676 58 12 58 L 27.132812 58 L 31.238281 46.601562 L 22.216797 37.582031 C 22.216797 37.582031 20.741304 38.063374 18.123047 37.611328 C 15.505879 37.159058 14.324219 36.453125 14.324219 36.453125 L 14.318359 36.451172 z "
     transform="scale(0.26458333)" />
  <path
     id="rect846"
     style="opacity:0.3;fill:url(#linearGradient881);stroke-width:1.27569;fill-opacity:1"
     d="M 12 6 C 8.6760005 6 6 8.6760005 6 12 L 6 52 C 6 55.324 8.6760005 58 12 58 L 52 58 C 55.324 58 58 55.324 58 52 L 58 12 C 58 8.6760005 55.324 6 52 6 L 12 6 z M 12 7 L 52 7 C 54.77 7 57 9.23 57 12 L 57 52 C 57 54.77 54.77 57 52 57 L 12 57 C 9.23 57 7 54.77 7 52 L 7 12 C 7 9.23 9.23 7 12 7 z "
     transform="scale(0.26458333)" />
</svg>
