<?xml version="1.0" encoding="UTF-8" standalone="no"?>
<!-- Created with Inkscape (http://www.inkscape.org/) -->

<svg
   width="64"
   height="64"
   viewBox="0 0 16.933333 16.933333"
   version="1.1"
   id="svg5"
   inkscape:version="1.1.1 (3bf5ae0d25, 2021-09-20, custom)"
   sodipodi:docname="android-studio.svg"
   xmlns:inkscape="http://www.inkscape.org/namespaces/inkscape"
   xmlns:sodipodi="http://sodipodi.sourceforge.net/DTD/sodipodi-0.dtd"
   xmlns:xlink="http://www.w3.org/1999/xlink"
   xmlns="http://www.w3.org/2000/svg"
   xmlns:svg="http://www.w3.org/2000/svg">
  <sodipodi:namedview
     id="namedview7"
     pagecolor="#ffffff"
     bordercolor="#666666"
     borderopacity="1.0"
     inkscape:pageshadow="2"
     inkscape:pageopacity="0.0"
     inkscape:pagecheckerboard="0"
     inkscape:document-units="px"
     showgrid="true"
     units="px"
     height="48px"
     inkscape:zoom="7.9999996"
     inkscape:cx="29.625002"
     inkscape:cy="44.437502"
     inkscape:window-width="1920"
     inkscape:window-height="1019"
     inkscape:window-x="0"
     inkscape:window-y="0"
     inkscape:window-maximized="1"
     inkscape:current-layer="svg5"
     inkscape:lockguides="true" />
  <defs
     id="defs2">
    <linearGradient
       inkscape:collect="always"
       id="linearGradient37218">
      <stop
         style="stop-color:#1a1a1a;stop-opacity:1"
         offset="0"
         id="stop37214" />
      <stop
         style="stop-color:#afafaf;stop-opacity:0.40000001"
         offset="0.49741825"
         id="stop37220" />
      <stop
         style="stop-color:#4d4d4d;stop-opacity:1"
         offset="1"
         id="stop37216" />
    </linearGradient>
    <linearGradient
       inkscape:collect="always"
       xlink:href="#linearGradient37218"
       id="linearGradient881"
       x1="64.208344"
       y1="64.062607"
       x2="0.30528301"
       y2="0.13507102"
       gradientUnits="userSpaceOnUse" />
  </defs>
  <path
     id="rect846-3"
     style="fill:#ffffff;stroke-width:0.337527;fill-opacity:1"
     d="m 3.175,1.5875 h 10.583333 c 0.879475,0 1.5875,0.708025 1.5875,1.5875 v 10.583333 c 0,0.879475 -0.708025,1.5875 -1.5875,1.5875 H 3.175 c -0.879475,0 -1.5875,-0.708025 -1.5875,-1.5875 V 3.175 c 0,-0.879475 0.708025,-1.5875 1.5875,-1.5875 z" />
  <path
     id="rect846"
     style="opacity:0.3;fill:url(#linearGradient881);stroke-width:1.27569;fill-opacity:1"
     d="M 12 6 C 8.6760005 6 6 8.6760005 6 12 L 6 52 C 6 55.324 8.6760005 58 12 58 L 52 58 C 55.324 58 58 55.324 58 52 L 58 12 C 58 8.6760005 55.324 6 52 6 L 12 6 z M 12 7 L 52 7 C 54.77 7 57 9.23 57 12 L 57 52 C 57 54.77 54.77 57 52 57 L 12 57 C 9.23 57 7 54.77 7 52 L 7 12 C 7 9.23 9.23 7 12 7 z "
     transform="scale(0.26458333)" />
  <path
     id="path4"
     d="M 7.4469923,4.9076739 H 5.2878338 A 0.7921173,0.7921173 0 0 0 4.4982717,5.6997912 0.76656513,0.76656513 0 0 0 5.2418399,6.4893533 h 2.2204837 z"
     style="fill:#073042;stroke-width:0.255522"
     inkscape:connector-curvature="0" />
  <path
     id="path6"
     d="M 12.340233,11.947297 H 5.2852786 A 0.7921173,0.7921173 0 0 1 4.4982717,11.157735 V 5.6946808 a 0.7921173,0.7921173 0 0 0 0.7870069,0.7972277 h 5.9051064 c 0,0 1.149848,-0.099653 1.149848,0.7665652 z"
     style="fill:#4285f4;stroke-width:0.255522"
     inkscape:connector-curvature="0" />
  <path
     id="path10"
     d="M 9.0491134,9.1493343 A 0.71035035,0.71035035 0 0 0 8.6428339,7.8717258 h 0.022997 a 0.51104342,0.51104342 0 0 1 0.1252057,0 V 7.4322284 A 0.14309216,0.14309216 0 0 0 8.7246008,7.3070228 0.13798172,0.13798172 0 0 0 8.5176282,7.4322284 v 0.447163 A 0.71035035,0.71035035 0 0 0 7.9248179,8.6945057 0.7026847,0.7026847 0 0 0 8.2058917,9.157 l -1.3006055,2.780076 h 0.8483321 l 0.600476,-1.277608 a 0.30918127,0.30918127 0 0 1 0.5595926,0 l 0.6183625,1.277608 H 10.390602 Z M 8.6147265,9.0241287 A 0.43949734,0.43949734 0 0 1 8.1777844,8.5820761 0.43949734,0.43949734 0 0 1 8.9213525,8.2703396 0.43949734,0.43949734 0 0 1 8.6147265,9.0241287 Z"
     style="fill:#3870b2;stroke-width:0.255522"
     inkscape:connector-curvature="0" />
  <path
     id="path12"
     d="M 6.9742771,5.2960669 H 10.002209 V 5.850549 H 6.9742771 Z"
     style="fill:#ffffff;stroke-width:0.255522"
     inkscape:connector-curvature="0" />
  <path
     id="path14"
     d="M 8.3796465,8.1476892 A 0.43694212,0.43694212 0 1 1 7.9375939,8.5820761 0.44716299,0.44716299 0 0 1 8.06791,8.2754501 0.43949734,0.43949734 0 0 1 8.3796465,8.1476892 Z M 8.5534013,7.8921675 V 7.4322284 A 0.14309216,0.14309216 0 0 0 8.4869656,7.3070228 0.13798172,0.13798172 0 0 0 8.279993,7.4322284 v 0.447163 A 0.71035035,0.71035035 0 0 0 7.6871827,8.6945057 0.7026847,0.7026847 0 0 0 7.9682565,9.157 l -1.6327837,3.513423 a 0.38328257,0.38328257 0 0 0 0.028107,0.390949 0.38583778,0.38583778 0 0 0 0.6720221,-0.06388 l 1.0885225,-2.338023 a 0.30918127,0.30918127 0 0 1 0.5595925,0 l 1.1166299,2.325247 A 0.38626919,0.38626919 0 0 0 10.495366,12.647427 L 8.8140334,9.1493343 A 0.71801601,0.71801601 0 0 0 8.5585117,7.8947227"
     style="fill:#073042;stroke-width:0.255522"
     inkscape:connector-curvature="0" />
  <path
     id="path16"
     d="m 9.5550464,5.7841134 a 0.20441737,0.20441737 0 0 1 -0.2095278,-0.1993069 0.19675172,0.19675172 0 0 1 0.061325,-0.1507578 0.20697259,0.20697259 0 0 1 0.2912947,0 0.21463824,0.21463824 0 0 1 0.061325,0.1430921 0.20441737,0.20441737 0 0 1 -0.2044173,0.2044174 v 0 m -2.271588,0 A 0.20441737,0.20441737 0 0 1 7.0764858,5.579696 0.19930693,0.19930693 0 0 1 7.137811,5.4314934 0.20441737,0.20441737 0 0 1 7.4291057,5.4033861 0.2095278,0.2095278 0 0 1 7.4469923,5.697236 L 7.4188853,5.725343 A 0.20697259,0.20697259 0 0 1 7.2732379,5.784113 M 9.6189268,4.544833 10.027762,3.8344827 A 0.08687738,0.08687738 0 0 0 10.002212,3.7220531 0.08176695,0.08176695 0 0 0 9.902559,3.7476051 L 9.4758346,4.4707317 a 2.5756588,2.5756588 0 0 0 -2.1106093,0 L 6.9487249,3.7476053 a 0.08687738,0.08687738 0 0 0 -0.074101,-0.043439 0.09454303,0.09454303 0 0 0 -0.074101,0.043439 0.08687738,0.08687738 0 0 0 0,0.086877 l 0.41139,0.7103503 A 2.4325667,2.4325667 0 0 0 5.9547455,6.4893533 H 10.886314 A 2.4325667,2.4325667 0 0 0 9.6291477,4.544833"
     class="cls-5"
     style="fill:#3ddc84;stroke-width:0.255522"
     inkscape:connector-curvature="0" />
  <path
     id="path18"
     d="m 11.632438,8.0045971 h -0.324513 a 0.04088347,0.04088347 0 0 0 -0.02811,0.043439 v 0 5.1104339 a 0.04088347,0.04088347 0 0 0 0.03833,0.04088 h 0.334734 A 0.71035035,0.71035035 0 0 0 12.360674,12.489 V 7.2942467 a 0.71035035,0.71035035 0 0 1 -0.710351,0.7103504 z"
     style="fill:#073042;stroke-width:0.255522"
     inkscape:connector-curvature="0" />
</svg>
