<?xml version="1.0" encoding="UTF-8" standalone="no"?>
<!-- Created with Inkscape (http://www.inkscape.org/) -->

<svg
   width="64"
   height="64"
   viewBox="0 0 16.933333 16.933333"
   version="1.1"
   id="svg5"
   inkscape:version="1.1.1 (3bf5ae0d25, 2021-09-20, custom)"
   sodipodi:docname="applications-internet.svg"
   xmlns:inkscape="http://www.inkscape.org/namespaces/inkscape"
   xmlns:sodipodi="http://sodipodi.sourceforge.net/DTD/sodipodi-0.dtd"
   xmlns:xlink="http://www.w3.org/1999/xlink"
   xmlns="http://www.w3.org/2000/svg"
   xmlns:svg="http://www.w3.org/2000/svg">
  <sodipodi:namedview
     id="namedview7"
     pagecolor="#ffffff"
     bordercolor="#666666"
     borderopacity="1.0"
     inkscape:pageshadow="2"
     inkscape:pageopacity="0.0"
     inkscape:pagecheckerboard="0"
     inkscape:document-units="px"
     showgrid="false"
     units="px"
     height="48px"
     inkscape:zoom="7.9999996"
     inkscape:cx="14.000001"
     inkscape:cy="43.562502"
     inkscape:window-width="1920"
     inkscape:window-height="1019"
     inkscape:window-x="0"
     inkscape:window-y="0"
     inkscape:window-maximized="1"
     inkscape:current-layer="svg5"
     inkscape:lockguides="true" />
  <defs
     id="defs2">
    <linearGradient
       inkscape:collect="always"
       id="linearGradient1575">
      <stop
         style="stop-color:#000000;stop-opacity:1;"
         offset="0"
         id="stop1571" />
      <stop
         style="stop-color:#000000;stop-opacity:0;"
         offset="1"
         id="stop1573" />
    </linearGradient>
    <linearGradient
       inkscape:collect="always"
       xlink:href="#linearGradient37218"
       id="linearGradient1781"
       x1="2.8346456e-08"
       y1="2.2677165e-07"
       x2="64"
       y2="64"
       gradientUnits="userSpaceOnUse"
       gradientTransform="scale(0.26458333)" />
    <linearGradient
       inkscape:collect="always"
       id="linearGradient37218">
      <stop
         style="stop-color:#ffffff;stop-opacity:1"
         offset="0"
         id="stop37214" />
      <stop
         style="stop-color:#717171;stop-opacity:0.00392157"
         offset="0.49741825"
         id="stop37220" />
      <stop
         style="stop-color:#292929;stop-opacity:1"
         offset="1"
         id="stop37216" />
    </linearGradient>
    <linearGradient
       inkscape:collect="always"
       xlink:href="#linearGradient1575"
       id="linearGradient1577"
       x1="6"
       y1="48.750977"
       x2="60"
       y2="24.750977"
       gradientUnits="userSpaceOnUse" />
    <linearGradient
       inkscape:collect="always"
       id="linearGradient6859">
      <stop
         style="stop-color:#a0e5fe;stop-opacity:1"
         offset="0"
         id="stop6855" />
      <stop
         style="stop-color:#0292f3;stop-opacity:1"
         offset="1"
         id="stop6857" />
    </linearGradient>
    <linearGradient
       inkscape:collect="always"
       xlink:href="#linearGradient6859"
       id="linearGradient2093"
       x1="12.170833"
       y1="6.7529299e-07"
       x2="12.170834"
       y2="16.933334"
       gradientUnits="userSpaceOnUse" />
  </defs>
  <path
     id="rect863"
     style="fill:url(#linearGradient2093);stroke-width:0.264583;fill-opacity:1"
     d="M 3.1750003,1.0583333 H 13.758333 c 1.172634,0 2.116667,0.944034 2.116667,2.116667 V 13.758333 c 0,1.172634 -0.944033,2.116667 -2.116667,2.116667 H 3.1750003 c -1.172633,0 -2.116667,-0.944033 -2.116667,-2.116667 V 3.1750003 c 0,-1.172633 0.944034,-2.116667 2.116667,-2.116667 z" />
  <path
     id="rect1345"
     style="opacity:0.3;fill:url(#linearGradient1781);fill-opacity:1;stroke-width:0.264583"
     d="m 3.1750003,1.0583333 c -1.172633,0 -2.116667,0.944034 -2.116667,2.116667 V 13.758333 c 0,1.172634 0.944034,2.116667 2.116667,2.116667 H 13.758334 c 1.172633,0 2.116666,-0.944033 2.116666,-2.116667 V 3.1750003 c 0,-1.172633 -0.944033,-2.116667 -2.116666,-2.116667 z m 0,0.264584 H 13.758334 c 1.026054,0 1.852083,0.826029 1.852083,1.852083 V 13.758333 c 0,1.026054 -0.826029,1.852084 -1.852083,1.852084 H 3.1750003 c -1.026054,0 -1.852083,-0.82603 -1.852083,-1.852084 V 3.1750003 c 0,-1.026054 0.826029,-1.852083 1.852083,-1.852083 z" />
  <path
     id="path867"
     style="opacity:1;fill:#ffffff;stroke-width:0.176389"
     d="M 8.4666666,4.2333333 C 7.0018036,4.2345033 5.6752293,5.0988327 5.0823769,6.4383665 3.6540929,6.7799304 2.6464327,8.0564426 2.6458333,9.5249999 2.6458333,11.278504 4.0673292,12.7 5.8208333,12.7 H 11.90625 c 1.315128,0 2.38125,-1.066122 2.38125,-2.38125 1.1e-4,-1.2130239 -0.911642,-2.2322635 -2.117184,-2.3667806 1.82e-4,-0.00482 3.54e-4,-0.00965 5.17e-4,-0.01447 0,-2.0457546 -1.658412,-3.7041666 -3.7041664,-3.7041661 z"
     sodipodi:nodetypes="ccccccccc" />
  <path
     id="path867-6"
     style="opacity:0.3;fill:url(#linearGradient1577);stroke-width:0.666667;fill-opacity:1"
     d="M 10.011719 36.501953 C 10.004827 36.667474 10.000068 36.83309 10 37 C 10 43.627413 15.372581 49 22 49 L 45 49 C 49.970563 49 54 44.970563 54 40 C 54.000015 39.832828 53.993411 39.667051 53.984375 39.501953 C 53.723682 44.238762 49.801933 48 45 48 L 22 48 C 15.540779 48 10.274916 42.896505 10.011719 36.501953 z "
     transform="scale(0.26458333)" />
</svg>
