<?xml version="1.0" encoding="UTF-8" standalone="no"?>
<!-- Created with Inkscape (http://www.inkscape.org/) -->

<svg
   width="64"
   height="64"
   viewBox="0 0 16.933333 16.933333"
   version="1.1"
   id="svg5"
   inkscape:version="1.1.1 (3bf5ae0d25, 2021-09-20, custom)"
   sodipodi:docname="bluetooth.svg"
   xmlns:inkscape="http://www.inkscape.org/namespaces/inkscape"
   xmlns:sodipodi="http://sodipodi.sourceforge.net/DTD/sodipodi-0.dtd"
   xmlns:xlink="http://www.w3.org/1999/xlink"
   xmlns="http://www.w3.org/2000/svg"
   xmlns:svg="http://www.w3.org/2000/svg">
  <sodipodi:namedview
     id="namedview7"
     pagecolor="#ffffff"
     bordercolor="#666666"
     borderopacity="1.0"
     inkscape:pageshadow="2"
     inkscape:pageopacity="0.0"
     inkscape:pagecheckerboard="0"
     inkscape:document-units="px"
     showgrid="false"
     units="px"
     height="48px"
     inkscape:zoom="4.328125"
     inkscape:cx="-44.361011"
     inkscape:cy="50.137184"
     inkscape:window-width="1368"
     inkscape:window-height="846"
     inkscape:window-x="544"
     inkscape:window-y="95"
     inkscape:window-maximized="0"
     inkscape:current-layer="svg5"
     inkscape:lockguides="true" />
  <defs
     id="defs2">
    <linearGradient
       inkscape:collect="always"
       id="linearGradient2500">
      <stop
         style="stop-color:#f9f9f9;stop-opacity:1;"
         offset="0"
         id="stop2496" />
      <stop
         style="stop-color:#a3e2ff;stop-opacity:0.99801135"
         offset="1"
         id="stop2498" />
    </linearGradient>
    <linearGradient
       inkscape:collect="always"
       id="linearGradient2270">
      <stop
         style="stop-color:#000000;stop-opacity:1;"
         offset="0"
         id="stop2266" />
      <stop
         style="stop-color:#000000;stop-opacity:0;"
         offset="1"
         id="stop2268" />
    </linearGradient>
    <linearGradient
       inkscape:collect="always"
       id="linearGradient1414">
      <stop
         style="stop-color:#007df4;stop-opacity:1"
         offset="0"
         id="stop1410" />
      <stop
         style="stop-color:#1abfff;stop-opacity:0.99714887"
         offset="1"
         id="stop1412" />
    </linearGradient>
    <linearGradient
       inkscape:collect="always"
       xlink:href="#linearGradient1414"
       id="linearGradient1418"
       x1="8.9958334"
       y1="16.933332"
       x2="8.9958334"
       y2="4.7529298e-07"
       gradientUnits="userSpaceOnUse" />
    <linearGradient
       inkscape:collect="always"
       xlink:href="#linearGradient37218"
       id="linearGradient1781"
       x1="2.8346456e-08"
       y1="2.2677165e-07"
       x2="64"
       y2="64"
       gradientUnits="userSpaceOnUse"
       gradientTransform="scale(0.26458333)" />
    <linearGradient
       inkscape:collect="always"
       id="linearGradient37218">
      <stop
         style="stop-color:#ffffff;stop-opacity:1"
         offset="0"
         id="stop37214" />
      <stop
         style="stop-color:#ffffff;stop-opacity:0"
         offset="0.49741825"
         id="stop37220" />
      <stop
         style="stop-color:#000000;stop-opacity:1"
         offset="1"
         id="stop37216" />
    </linearGradient>
    <linearGradient
       inkscape:collect="always"
       xlink:href="#linearGradient2270"
       id="linearGradient2272"
       x1="14"
       y1="47.25"
       x2="49.839844"
       y2="21.25"
       gradientUnits="userSpaceOnUse"
       gradientTransform="matrix(0.26458333,0,0,0.26458333,0.26458342,0)" />
    <linearGradient
       inkscape:collect="always"
       xlink:href="#linearGradient2500"
       id="linearGradient2502"
       x1="6.8792577"
       y1="2.1166661"
       x2="6.836791"
       y2="14.816667"
       gradientUnits="userSpaceOnUse"
       gradientTransform="translate(0.26458342)" />
  </defs>
  <path
     id="rect849"
     style="opacity:1;fill:url(#linearGradient1418);stroke-width:6.25078;stroke-linecap:round;stroke-linejoin:round"
     d="M 3.1750002,1.0583334 H 13.758333 c 1.172634,0 2.116667,0.9440334 2.116667,2.1166668 V 13.758333 c 0,1.172634 -0.944033,2.116667 -2.116667,2.116667 H 3.1750002 c -1.1726334,0 -2.1166668,-0.944033 -2.1166668,-2.116667 V 3.1750002 c 0,-1.1726334 0.9440334,-2.1166668 2.1166668,-2.1166668 z" />
  <path
     id="rect1345"
     style="opacity:0.3;fill:url(#linearGradient1781);fill-opacity:1;stroke-width:0.264583"
     d="m 3.1750002,1.0583334 c -1.172633,0 -2.116667,0.944034 -2.116667,2.116667 V 13.758333 c 0,1.172634 0.944034,2.116667 2.116667,2.116667 H 13.758334 c 1.172633,0 2.116666,-0.944033 2.116666,-2.116667 V 3.1750004 c 0,-1.172633 -0.944033,-2.116667 -2.116666,-2.116667 z m 0,0.264584 H 13.758334 c 1.026054,0 1.852083,0.826029 1.852083,1.852083 V 13.758333 c 0,1.026054 -0.826029,1.852084 -1.852083,1.852084 H 3.1750002 c -1.026054,0 -1.852083,-0.82603 -1.852083,-1.852084 V 3.1750004 c 0,-1.026054 0.826029,-1.852083 1.852083,-1.852083 z" />
  <path
     id="rect3138"
     style="fill:url(#linearGradient2502);fill-opacity:1;stroke-width:3.60012;stroke-linecap:round;stroke-linejoin:round"
     d="M 7.6305422,2.6458332 V 7.6491453 L 5.4757257,5.8765816 5.0271743,6.4212514 7.6305422,8.4935381 5.0271743,10.565528 5.4757257,11.110197 7.6305422,9.3379309 V 14.2875 L 11.334709,11.1125 8.615495,8.4935381 11.334709,6.0854166 Z m 0.6614584,1.4552084 1.9843754,1.984375 -1.9843754,1.7197915 z m 0,5.0270833 1.9843754,1.9843751 -1.9843754,1.719791 z"
     sodipodi:nodetypes="ccccccccccccccccccccc" />
  <path
     id="rect3138-3"
     style="opacity:0.3;fill:url(#linearGradient2272);fill-opacity:1;stroke-width:3.60013;stroke-linecap:round;stroke-linejoin:round"
     d="m 8.2920004,4.1010416 v 0.2645833 l 1.8427816,1.8427817 0.141594,-0.12299 z M 11.188981,6.2146076 8.6154948,8.4935382 8.7586386,8.6315144 11.334709,6.3499999 Z M 5.1588583,6.5262167 5.0270834,6.6858967 7.4641441,8.6258298 7.6305421,8.4935382 Z M 8.2920004,9.1281249 V 9.3927082 L 10.134782,11.23549 10.276376,11.1125 Z M 7.6305421,9.3379313 5.4756347,11.110433 5.1588583,10.725443 5.0270834,10.830347 5.4756347,11.375016 7.6305421,9.6025146 Z M 11.189498,11.23704 7.6305421,14.2875 v 0.264583 l 3.7041669,-3.175 z" />
</svg>
