<?xml version="1.0" encoding="UTF-8" standalone="no"?>
<!-- Created with Inkscape (http://www.inkscape.org/) -->

<svg
   width="64"
   height="64"
   viewBox="0 0 16.933333 16.933333"
   version="1.1"
   id="svg5"
   inkscape:version="1.1.1 (3bf5ae0d25, 2021-09-20, custom)"
   sodipodi:docname="gnome-builder.svg"
   xmlns:inkscape="http://www.inkscape.org/namespaces/inkscape"
   xmlns:sodipodi="http://sodipodi.sourceforge.net/DTD/sodipodi-0.dtd"
   xmlns:xlink="http://www.w3.org/1999/xlink"
   xmlns="http://www.w3.org/2000/svg"
   xmlns:svg="http://www.w3.org/2000/svg">
  <sodipodi:namedview
     id="namedview7"
     pagecolor="#ffffff"
     bordercolor="#666666"
     borderopacity="1.0"
     inkscape:pageshadow="2"
     inkscape:pageopacity="0.0"
     inkscape:pagecheckerboard="0"
     inkscape:document-units="px"
     showgrid="false"
     units="px"
     height="48px"
     inkscape:zoom="8.0762834"
     inkscape:cx="13.248668"
     inkscape:cy="46.18461"
     inkscape:window-width="1920"
     inkscape:window-height="1011"
     inkscape:window-x="0"
     inkscape:window-y="0"
     inkscape:window-maximized="1"
     inkscape:current-layer="svg5"
     inkscape:lockguides="true"
     showguides="false" />
  <defs
     id="defs2">
    <linearGradient
       inkscape:collect="always"
       id="linearGradient1843">
      <stop
         style="stop-color:#fcfcfc;stop-opacity:1"
         offset="0"
         id="stop1839" />
      <stop
         style="stop-color:#fffcd3;stop-opacity:1"
         offset="1"
         id="stop1841" />
    </linearGradient>
    <linearGradient
       inkscape:collect="always"
       id="linearGradient1533">
      <stop
         style="stop-color:#000000;stop-opacity:1;"
         offset="0"
         id="stop1529" />
      <stop
         style="stop-color:#000000;stop-opacity:0;"
         offset="1"
         id="stop1531" />
    </linearGradient>
    <linearGradient
       inkscape:collect="always"
       xlink:href="#linearGradient37218"
       id="linearGradient1781"
       x1="2.8346456e-08"
       y1="2.2677165e-07"
       x2="64"
       y2="64"
       gradientUnits="userSpaceOnUse"
       gradientTransform="scale(0.26458333)" />
    <linearGradient
       inkscape:collect="always"
       id="linearGradient37218">
      <stop
         style="stop-color:#ffffff;stop-opacity:1"
         offset="0"
         id="stop37214" />
      <stop
         style="stop-color:#717171;stop-opacity:0.00392157"
         offset="0.49741825"
         id="stop37220" />
      <stop
         style="stop-color:#010101;stop-opacity:1"
         offset="1"
         id="stop37216" />
    </linearGradient>
    <linearGradient
       inkscape:collect="always"
       xlink:href="#linearGradient10076"
       id="linearGradient9784"
       x1="49.494141"
       y1="37.104492"
       x2="54.251953"
       y2="37.104492"
       gradientUnits="userSpaceOnUse"
       gradientTransform="matrix(0.26458333,0,0,0.26458333,-0.06553676,0.5291663)" />
    <linearGradient
       inkscape:collect="always"
       id="linearGradient10076">
      <stop
         style="stop-color:#444b58;stop-opacity:1;"
         offset="0"
         id="stop10072" />
      <stop
         style="stop-color:#7a8599;stop-opacity:1"
         offset="1"
         id="stop10074" />
    </linearGradient>
    <linearGradient
       inkscape:collect="always"
       xlink:href="#linearGradient10076"
       id="linearGradient9782"
       x1="38.398438"
       y1="37.104492"
       x2="43.154297"
       y2="37.104492"
       gradientUnits="userSpaceOnUse"
       gradientTransform="matrix(0.26458333,0,0,0.26458333,-0.06553676,0.5291663)" />
    <linearGradient
       inkscape:collect="always"
       xlink:href="#linearGradient13988"
       id="linearGradient12830"
       x1="0.84028774"
       y1="-10.653093"
       x2="0.79929656"
       y2="-22.368774"
       gradientUnits="userSpaceOnUse"
       gradientTransform="matrix(0.12600465,0,0,0.13432969,12.084682,10.427893)" />
    <linearGradient
       inkscape:collect="always"
       id="linearGradient13988">
      <stop
         style="stop-color:#3c3a42;stop-opacity:1"
         offset="0"
         id="stop13984" />
      <stop
         style="stop-color:#58565e;stop-opacity:1"
         offset="1"
         id="stop13986" />
    </linearGradient>
    <linearGradient
       inkscape:collect="always"
       xlink:href="#linearGradient10872"
       id="linearGradient11842"
       x1="46.247284"
       y1="33.28915"
       x2="46.16198"
       y2="24.314434"
       gradientUnits="userSpaceOnUse"
       gradientTransform="matrix(0.26458333,0,0,0.26458333,-0.06553676,0.5291663)" />
    <linearGradient
       inkscape:collect="always"
       id="linearGradient10872">
      <stop
         style="stop-color:#f6c317;stop-opacity:1;"
         offset="0"
         id="stop10868" />
      <stop
         style="stop-color:#f9f06b;stop-opacity:1"
         offset="1"
         id="stop10870" />
    </linearGradient>
    <linearGradient
       inkscape:collect="always"
       xlink:href="#linearGradient10872"
       id="linearGradient18047"
       x1="35.600166"
       y1="24.197157"
       x2="35.491016"
       y2="10.017427"
       gradientUnits="userSpaceOnUse"
       gradientTransform="matrix(0.26458333,0,0,0.26458333,-0.06553676,0.5291663)" />
    <linearGradient
       inkscape:collect="always"
       xlink:href="#linearGradient13988"
       id="linearGradient18717"
       x1="35.557541"
       y1="20.944075"
       x2="35.540688"
       y2="13.045764"
       gradientUnits="userSpaceOnUse"
       gradientTransform="matrix(0.26458333,0,0,0.26458333,-0.06553676,0.5291663)" />
    <linearGradient
       inkscape:collect="always"
       xlink:href="#linearGradient10872"
       id="linearGradient10874"
       x1="-4.8348813"
       y1="42.25016"
       x2="-4.8554606"
       y2="24.463703"
       gradientUnits="userSpaceOnUse"
       gradientTransform="matrix(0.26458333,0,0,0.26458333,7.0007468,-0.2808208)" />
    <linearGradient
       inkscape:collect="always"
       xlink:href="#linearGradient13988"
       id="linearGradient13266"
       x1="27.232723"
       y1="35.507519"
       x2="27.261728"
       y2="25.072847"
       gradientUnits="userSpaceOnUse"
       gradientTransform="matrix(0.26458333,0,0,0.26458333,-0.06553676,0.5291663)" />
    <linearGradient
       inkscape:collect="always"
       xlink:href="#linearGradient5871"
       id="linearGradient5873"
       x1="16.248047"
       y1="37.43795"
       x2="27.000299"
       y2="37.43795"
       gradientUnits="userSpaceOnUse"
       gradientTransform="matrix(0.26458333,0,0,0.26458333,-0.06553676,0.5291663)" />
    <linearGradient
       inkscape:collect="always"
       id="linearGradient5871">
      <stop
         style="stop-color:#525252;stop-opacity:1;"
         offset="0"
         id="stop5867" />
      <stop
         style="stop-color:#a6a6a6;stop-opacity:1"
         offset="1"
         id="stop5869" />
    </linearGradient>
    <linearGradient
       inkscape:collect="always"
       xlink:href="#linearGradient5871"
       id="linearGradient6622"
       x1="12.2483"
       y1="45.249748"
       x2="30.999998"
       y2="45.249748"
       gradientUnits="userSpaceOnUse"
       gradientTransform="matrix(0.26458333,0,0,0.26458333,-0.06553676,0.5291663)" />
    <linearGradient
       inkscape:collect="always"
       xlink:href="#linearGradient7192"
       id="linearGradient7194"
       x1="12.247698"
       y1="47.376499"
       x2="31"
       y2="47.376499"
       gradientUnits="userSpaceOnUse"
       gradientTransform="matrix(0.26458333,0,0,0.26458333,-0.06553676,0.5291663)" />
    <linearGradient
       inkscape:collect="always"
       id="linearGradient7192">
      <stop
         style="stop-color:#262626;stop-opacity:1;"
         offset="0"
         id="stop7188" />
      <stop
         style="stop-color:#7c7c7c;stop-opacity:1"
         offset="1"
         id="stop7190" />
    </linearGradient>
    <linearGradient
       inkscape:collect="always"
       xlink:href="#linearGradient1533"
       id="linearGradient1535"
       x1="11"
       y1="52.577148"
       x2="54.996094"
       y2="20.577148"
       gradientUnits="userSpaceOnUse"
       gradientTransform="matrix(0.26458333,0,0,0.26458333,0,-0.26458337)" />
    <linearGradient
       inkscape:collect="always"
       xlink:href="#linearGradient1843"
       id="linearGradient1845"
       x1="13.758333"
       y1="6.7529299e-07"
       x2="13.758333"
       y2="16.933334"
       gradientUnits="userSpaceOnUse" />
  </defs>
  <path
     id="rect863"
     style="fill:url(#linearGradient1845);stroke-width:0.264583;fill-opacity:1"
     d="M 3.1750003,1.0583333 H 13.758333 c 1.172634,0 2.116667,0.944034 2.116667,2.116667 V 13.758333 c 0,1.172634 -0.944033,2.116667 -2.116667,2.116667 H 3.1750003 c -1.172633,0 -2.116667,-0.944033 -2.116667,-2.116667 V 3.1750003 c 0,-1.172633 0.944034,-2.116667 2.116667,-2.116667 z" />
  <path
     id="rect1345"
     style="opacity:0.3;fill:url(#linearGradient1781);fill-opacity:1;stroke-width:0.264583"
     d="m 3.1750003,1.0583333 c -1.172633,0 -2.116667,0.944034 -2.116667,2.116667 V 13.758333 c 0,1.172634 0.944034,2.116667 2.116667,2.116667 H 13.758334 c 1.172633,0 2.116666,-0.944033 2.116666,-2.116667 V 3.1750003 c 0,-1.172633 -0.944033,-2.116667 -2.116666,-2.116667 z m 0,0.264584 H 13.758334 c 1.026054,0 1.852083,0.826029 1.852083,1.852083 V 13.758333 c 0,1.026054 -0.826029,1.852084 -1.852083,1.852084 H 3.1750003 c -1.026054,0 -1.852083,-0.82603 -1.852083,-1.852084 V 3.1750003 c 0,-1.026054 0.826029,-1.852083 1.852083,-1.852083 z" />
  <g
     id="g1470"
     transform="matrix(0.90467298,0,0,0.90467298,0.56724664,0.83182993)">
    <path
       id="rect6624"
       style="fill:url(#linearGradient7194);fill-opacity:1;stroke-width:2.38125;stroke-linecap:round;stroke-linejoin:round"
       d="M 3.1749999,12.634119 H 8.136546 v 0.86016 H 3.1749999 Z"
       sodipodi:nodetypes="ccccc" />
    <path
       id="rect3205"
       style="fill:url(#linearGradient5873);fill-opacity:1;stroke:none;stroke-width:2.38125;stroke-linecap:round;stroke-linejoin:round"
       d="m 4.4107551,7.9705464 v 0.79375 2.2820316 0.264583 c 0,0.439738 -0.3540125,0.79375 -0.79375,0.79375 H 3.3524218 3.1751716 l -7.93e-5,0.794041 H 8.136546 l 8e-5,-0.794041 H 7.954208 7.689625 c -0.4397378,0 -0.7937503,-0.354012 -0.7937503,-0.79375 v -0.264583 -2.2820316 -0.79375 z"
       sodipodi:nodetypes="cccssccccccsscccc" />
    <rect
       style="fill:url(#linearGradient6622);fill-opacity:1;stroke:none;stroke-width:2.38125;stroke-linecap:round;stroke-linejoin:round;stroke-opacity:1"
       id="rect6614"
       width="4.9613872"
       height="0.79414684"
       x="3.1751599"
       y="12.104422" />
    <path
       id="rect7551"
       style="fill:#dcb500;fill-opacity:1;stroke-width:2.38125;stroke-linecap:round;stroke-linejoin:round"
       d="M 8.767516,3.5909949 3.8272489,8.5322954 5.3227646,8.5328244 8.767516,5.0875568 Z M 9.206249,5.5257604 5.7599473,8.9699944 V 10.466544 L 10.714167,5.5257604 Z" />
    <path
       id="rect8443"
       style="fill:#424048;fill-opacity:1;stroke-width:2.38125;stroke-linecap:round;stroke-linejoin:round"
       d="m 9.655833,4.7294269 3.354318,3.3548335 -0.113173,0.116335 1.345139,1.350759 -0.747758,0.7482746 -1.303796,-1.3027626 -1.30328,1.3027626 -0.748275,-0.7482746 1.421102,-1.421102 -2.652034,-2.652551 z"
       sodipodi:nodetypes="ccccccccccc" />
    <path
       id="rect941"
       style="fill:url(#linearGradient9782);fill-opacity:1;stroke-width:2.38125;stroke-linecap:round;stroke-linejoin:round"
       d="m 10.723469,9.0878164 a 0.62927176,0.62917916 0 0 0 -0.629419,0.629419 v 1.2578056 l 0.628385,0.629935 h 0.629936 V 9.7172354 a 0.62927176,0.62917916 0 0 0 -0.628902,-0.629419 z" />
    <path
       id="rect1042"
       style="fill:url(#linearGradient9784);fill-opacity:1;stroke-width:2.38125;stroke-linecap:round;stroke-linejoin:round"
       d="m 13.659207,9.0878164 a 0.62931145,0.62931145 0 0 0 -0.629419,0.629419 v 1.8877406 h 0.628385 l 0.629419,-0.629935 10e-4,-1.2578056 a 0.62931145,0.62931145 0 0 0 -0.629387,-0.629419 z" />
    <circle
       style="fill:url(#linearGradient10874);fill-opacity:1;stroke:none;stroke-width:2.39983;stroke-linecap:round;stroke-linejoin:round;stroke-opacity:1"
       id="path10180"
       cx="5.7552962"
       cy="8.5460405"
       r="2.3812499" />
    <circle
       style="fill:url(#linearGradient11842);fill-opacity:1;stroke:none;stroke-width:2.38125;stroke-linecap:round;stroke-linejoin:round;stroke-opacity:1"
       id="path11754"
       cx="12.106091"
       cy="8.1362009"
       r="1.190625" />
    <circle
       style="fill:url(#linearGradient12830);fill-opacity:1;stroke:none;stroke-width:1.17091;stroke-linecap:round;stroke-linejoin:round;stroke-opacity:1"
       id="path12690"
       cx="12.106091"
       cy="8.1362009"
       r="0.79374999" />
    <circle
       style="fill:#1a1723;fill-opacity:1;stroke:none;stroke-width:2.22929;stroke-linecap:round;stroke-linejoin:round;stroke-opacity:1"
       id="path11362"
       cx="12.105297"
       cy="8.1359367"
       r="0.39687499" />
    <circle
       style="fill:url(#linearGradient13266);fill-opacity:1;stroke:none;stroke-width:2.50031;stroke-linecap:round;stroke-linejoin:round;stroke-opacity:1"
       id="path13178"
       cx="5.7552962"
       cy="8.5328112"
       r="1.3890625" />
    <circle
       style="fill:#1a1723;fill-opacity:1;stroke:none;stroke-width:2.99146;stroke-linecap:round;stroke-linejoin:round;stroke-opacity:1"
       id="path14458"
       cx="5.7554278"
       cy="8.5329437"
       r="0.67243856" />
    <circle
       style="fill:url(#linearGradient18047);fill-opacity:1;stroke:none;stroke-width:2.45037;stroke-linecap:round;stroke-linejoin:round;stroke-opacity:1"
       id="path17879"
       cx="9.2283487"
       cy="5.0605531"
       r="1.8855531" />
    <circle
       style="fill:url(#linearGradient18717);fill-opacity:1;stroke:none;stroke-width:9.82147;stroke-linecap:round;stroke-linejoin:round;stroke-opacity:1"
       id="path18629"
       cx="9.2278204"
       cy="5.0600238"
       r="1.0912739" />
    <circle
       style="fill:#1a1723;fill-opacity:1;stroke:none;stroke-width:3.53624;stroke-linecap:round;stroke-linejoin:round;stroke-opacity:1"
       id="path19193"
       cx="9.2303343"
       cy="5.0625377"
       r="0.52916664" />
    <circle
       style="fill:#1a1723;fill-opacity:1;stroke:none;stroke-width:1.905;stroke-linecap:round;stroke-linejoin:round;stroke-opacity:1"
       id="path19297"
       cx="10.729463"
       cy="9.7366657"
       r="0.21166667" />
    <circle
       style="fill:#1a1723;fill-opacity:1;stroke:none;stroke-width:9.525;stroke-linecap:round;stroke-linejoin:round;stroke-opacity:1"
       id="path19401"
       cx="13.666339"
       cy="9.7366657"
       r="0.21166667" />
  </g>
  <path
     id="rect6624-2"
     style="opacity:0.3;fill:url(#linearGradient1535);fill-opacity:1;stroke-width:2.15427;stroke-linecap:round;stroke-linejoin:round"
     d="m 10.614856,5.5216268 a 1.7058225,1.7058225 0 0 1 -0.199988,0.701249 l 0.08372,0.084233 A 1.7058225,1.7058225 0 0 0 10.62209,5.674589 1.7058225,1.7058225 0 0 0 10.614856,5.5216268 Z M 7.5308065,6.4032266 7.0817382,6.8512612 A 2.1542696,2.1542696 0 0 1 7.2259155,6.972184 L 7.5308065,6.66781 a 1.7058225,1.7058225 0 0 0 0.249597,0.2780191 L 7.9276815,6.7985512 A 1.7058225,1.7058225 0 0 1 7.5308065,6.4032266 Z M 9.7404906,6.902421 A 1.7058225,1.7058225 0 0 1 8.9741292,7.1132609 L 7.895642,8.1891641 A 2.1542696,2.1542696 0 0 1 7.921997,8.4273923 L 8.9741292,7.3778442 A 1.7058225,1.7058225 0 0 0 9.7404906,7.1670044 l 0.7425904,0.7420734 a 1.0771348,1.0771348 0 0 1 0.0708,-0.1932699 z m 2.8473714,1.4200682 a 1.0771348,1.0771348 0 0 1 -0.05323,0.2289265 l 0.05064,0.05116 a 1.0771348,1.0771348 0 0 0 0.01137,-0.1457275 1.0771348,1.0771348 0 0 0 -0.0088,-0.1343589 z m -2.13527,0.00362 a 1.0771348,1.0771348 0 0 0 -0.01033,0.1307415 1.0771348,1.0771348 0 0 0 0.03824,0.2749185 l 0.06976,-0.069763 A 1.0771348,1.0771348 0 0 1 10.452592,8.3261066 Z M 7.9219969,8.6821572 A 2.1542696,2.1542696 0 0 1 6.8063027,10.452592 v 0.264583 a 2.1542696,2.1542696 0 0 0 1.1218955,-1.8898071 2.1542696,2.1542696 0 0 0 -0.0062,-0.1452107 z m -4.2948283,0.015503 a 2.1542696,2.1542696 0 0 0 -0.00775,0.1297077 2.1542696,2.1542696 0 0 0 0.9384437,1.7787031 V 10.341488 A 2.1542696,2.1542696 0 0 1 3.6271686,8.6976602 Z M 11.843721,9.2195921 A 1.0771348,1.0771348 0 0 1 11.51971,9.2692015 1.0771348,1.0771348 0 0 1 11.317139,9.2495644 L 10.837581,9.7291216 V 9.993705 l 0.479558,-0.4795573 a 1.0771348,1.0771348 0 0 0 0.202571,0.019637 1.0771348,1.0771348 0 0 0 0.324528,-0.049609 L 12.354801,9.994222 V 9.7296386 Z M 9.6991494,10.760583 v 0.264584 l 0.5684406,0.569991 h 0.569991 V 11.330574 H 10.26759 Z m 3.7935666,0 -0.569474,0.569991 h -0.568441 v 0.264584 h 0.568441 l 0.569474,-0.569991 z m -5.5645178,1.286743 v 0.213941 0.239262 l 5.167e-4,-0.453203 z m -4.4886149,0.992705 v 0.264583 h 4.4886149 v -0.264583 z" />
</svg>
