<?xml version="1.0" encoding="UTF-8" standalone="no"?>
<!-- Created with Inkscape (http://www.inkscape.org/) -->

<svg
   width="64"
   height="64"
   viewBox="0 0 16.933333 16.933333"
   version="1.1"
   id="svg5"
   inkscape:version="1.1.1 (3bf5ae0d25, 2021-09-20, custom)"
   sodipodi:docname="calligrakarbon.svg"
   xmlns:inkscape="http://www.inkscape.org/namespaces/inkscape"
   xmlns:sodipodi="http://sodipodi.sourceforge.net/DTD/sodipodi-0.dtd"
   xmlns:xlink="http://www.w3.org/1999/xlink"
   xmlns="http://www.w3.org/2000/svg"
   xmlns:svg="http://www.w3.org/2000/svg">
  <sodipodi:namedview
     id="namedview7"
     pagecolor="#ffffff"
     bordercolor="#666666"
     borderopacity="1.0"
     inkscape:pageshadow="2"
     inkscape:pageopacity="0.0"
     inkscape:pagecheckerboard="0"
     inkscape:document-units="px"
     showgrid="false"
     units="px"
     height="48px"
     inkscape:zoom="7.9999996"
     inkscape:cx="9.6250004"
     inkscape:cy="22.875001"
     inkscape:window-width="1920"
     inkscape:window-height="1011"
     inkscape:window-x="0"
     inkscape:window-y="0"
     inkscape:window-maximized="1"
     inkscape:current-layer="svg5"
     inkscape:lockguides="true" />
  <defs
     id="defs2">
    <linearGradient
       inkscape:collect="always"
       id="linearGradient921">
      <stop
         style="stop-color:#c6cdd1;stop-opacity:1;"
         offset="0"
         id="stop917" />
      <stop
         style="stop-color:#e0e5e7;stop-opacity:1"
         offset="1"
         id="stop919" />
    </linearGradient>
    <linearGradient
       inkscape:collect="always"
       id="linearGradient37218">
      <stop
         style="stop-color:#1a1a1a;stop-opacity:1"
         offset="0"
         id="stop37214" />
      <stop
         style="stop-color:#e6e6e6;stop-opacity:0.00306325"
         offset="0.49741825"
         id="stop37220" />
      <stop
         style="stop-color:#ffffff;stop-opacity:1"
         offset="1"
         id="stop37216" />
    </linearGradient>
    <linearGradient
       inkscape:collect="always"
       xlink:href="#linearGradient37218"
       id="linearGradient881"
       x1="64.208344"
       y1="64.062607"
       x2="0.30528301"
       y2="0.13507102"
       gradientUnits="userSpaceOnUse" />
    <linearGradient
       inkscape:collect="always"
       xlink:href="#linearGradient921"
       id="linearGradient923"
       x1="1.0583333"
       y1="15.345833"
       x2="1.0583332"
       y2="1.5874997"
       gradientUnits="userSpaceOnUse" />
    <linearGradient
       xlink:href="#b"
       id="e"
       y1="24.02"
       x1="18.190001"
       y2="40.189999"
       x2="34.360001"
       gradientUnits="userSpaceOnUse" />
    <linearGradient
       id="b"
       y1="14.849"
       y2="26.16"
       x2="0"
       gradientUnits="userSpaceOnUse">
      <stop
         id="stop7" />
      <stop
         offset="1"
         stop-opacity="0"
         id="stop9" />
    </linearGradient>
    <linearGradient
       id="a"
       y1="45"
       y2="13"
       x2="0"
       gradientUnits="userSpaceOnUse"
       gradientTransform="matrix(1.3,0,0,1.3,0.79999995,0.79999988)">
      <stop
         stop-color="#663579"
         id="stop2" />
      <stop
         offset="1"
         stop-color="#16a085"
         id="stop4" />
    </linearGradient>
    <linearGradient
       id="g"
       x1="8.2130003"
       x2="40.550999"
       gradientUnits="userSpaceOnUse">
      <stop
         stop-color="#1d1e1e"
         id="stop20" />
      <stop
         offset="1"
         stop-color="#2c2f32"
         id="stop22" />
    </linearGradient>
    <linearGradient
       inkscape:collect="always"
       xlink:href="#b"
       id="linearGradient896"
       gradientUnits="userSpaceOnUse"
       y1="14.849"
       x2="0"
       y2="26.16" />
    <linearGradient
       id="linearGradient2779"
       y1="14.849"
       y2="26.16"
       x2="0"
       gradientUnits="userSpaceOnUse">
      <stop
         id="stop2775" />
      <stop
         offset="1"
         stop-opacity="0"
         id="stop2777" />
    </linearGradient>
    <linearGradient
       inkscape:collect="always"
       xlink:href="#h"
       id="linearGradient898"
       gradientUnits="userSpaceOnUse"
       gradientTransform="translate(-21,-3)"
       x1="7"
       x2="11" />
    <linearGradient
       id="h"
       x1="7"
       x2="11"
       gradientUnits="userSpaceOnUse"
       gradientTransform="translate(-21,-3)">
      <stop
         stop-color="#1d1e1e"
         id="stop25" />
      <stop
         offset="1"
         stop-color="#44484c"
         id="stop27" />
    </linearGradient>
    <linearGradient
       xlink:href="#b"
       id="d"
       y1="36.77"
       y2="48.080002"
       x2="0"
       gradientUnits="userSpaceOnUse"
       gradientTransform="translate(2.1757132,2.1757132)" />
    <linearGradient
       id="linearGradient2790"
       y1="14.849"
       y2="26.16"
       x2="0"
       gradientUnits="userSpaceOnUse">
      <stop
         id="stop2786" />
      <stop
         offset="1"
         stop-opacity="0"
         id="stop2788" />
    </linearGradient>
    <linearGradient
       xlink:href="#h"
       id="j"
       x1="19"
       x2="25"
       gradientUnits="userSpaceOnUse"
       gradientTransform="translate(-52,-4.923077)" />
    <linearGradient
       id="linearGradient2797"
       x1="7"
       x2="11"
       gradientUnits="userSpaceOnUse"
       gradientTransform="translate(-21,-3)">
      <stop
         stop-color="#1d1e1e"
         id="stop2793" />
      <stop
         offset="1"
         stop-color="#44484c"
         id="stop2795" />
    </linearGradient>
    <linearGradient
       xlink:href="#b"
       id="c"
       y1="31.885"
       y2="44.48"
       x2="0"
       gradientUnits="userSpaceOnUse" />
    <linearGradient
       id="linearGradient2804"
       y1="14.849"
       y2="26.16"
       x2="0"
       gradientUnits="userSpaceOnUse">
      <stop
         id="stop2800" />
      <stop
         offset="1"
         stop-opacity="0"
         id="stop2802" />
    </linearGradient>
    <linearGradient
       xlink:href="#h"
       id="i"
       x1="23"
       x2="28"
       gradientUnits="userSpaceOnUse"
       gradientTransform="translate(-45,6)" />
    <linearGradient
       id="linearGradient2811"
       x1="7"
       x2="11"
       gradientUnits="userSpaceOnUse"
       gradientTransform="translate(-21,-3)">
      <stop
         stop-color="#1d1e1e"
         id="stop2807" />
      <stop
         offset="1"
         stop-color="#44484c"
         id="stop2809" />
    </linearGradient>
    <linearGradient
       xlink:href="#h"
       id="k"
       x1="34"
       x2="42"
       gradientUnits="userSpaceOnUse"
       gradientTransform="matrix(0.96153846,0,0,0.96153846,-71.384615,6.5000016)" />
    <linearGradient
       id="linearGradient2818"
       x1="7"
       x2="11"
       gradientUnits="userSpaceOnUse"
       gradientTransform="translate(-21,-3)">
      <stop
         stop-color="#1d1e1e"
         id="stop2814" />
      <stop
         offset="1"
         stop-color="#44484c"
         id="stop2816" />
    </linearGradient>
    <linearGradient
       id="a-7"
       y1="45"
       y2="13"
       x2="0"
       gradientUnits="userSpaceOnUse"
       gradientTransform="matrix(0.34395833,0,0,0.34395833,-16.751295,2.3144215)">
      <stop
         stop-color="#663579"
         id="stop2-5" />
      <stop
         offset="1"
         stop-color="#16a085"
         id="stop4-3" />
    </linearGradient>
  </defs>
  <path
     id="rect846-3"
     style="fill:url(#linearGradient923);stroke-width:0.337527;fill-opacity:1"
     d="m 3.175,1.5875 h 10.583333 c 0.879475,0 1.5875,0.708025 1.5875,1.5875 v 10.583333 c 0,0.879475 -0.708025,1.5875 -1.5875,1.5875 H 3.175 c -0.879475,0 -1.5875,-0.708025 -1.5875,-1.5875 V 3.175 c 0,-0.879475 0.708025,-1.5875 1.5875,-1.5875 z" />
  <g
     fill-rule="evenodd"
     id="g45"
     transform="matrix(0.34395833,0,0,0.34395833,0.21166665,0.21166663)">
    <path
       opacity="0.2"
       fill="url(#e)"
       d="M 24.426,16 12,31 24.965,43.965 A 20,20 0 0 0 41.701328,33.275547 Z"
       id="path37"
       style="fill:url(#e)" />
    <path
       id="path39"
       style="fill:url(#a);stroke-width:1.3"
       d="M 7.9042969,15.994141 C 7.3645565,15.990915 6.852309,15.99349 6.3476562,15.998047 6.1268564,16.624641 6,17.296007 6,18 v 34 c 0,3.324 2.6759996,6 6,6 h 40 c 3.324,0 6,-2.676 6,-6 v -5.412109 c -7.593264,-0.14933 -26.19925,-0.468182 -28.65625,-6.613282 -2.6585,-6.6456 6.644353,-7.975493 5.314453,-14.621093 -1.56,-7.8 -16.849619,-9.300178 -26.7539061,-9.359375 z"
       transform="matrix(0.76923076,0,0,0.76923076,-0.61538457,-0.61538451)" />
    <path
       fill="url(#g)"
       d="m 5.1570769,11.732 c -0.007,0.01 -0.014,0.02 -0.021,0.029 C 12.25395,12.029095 23.847,12.898 25.045,18.888 26.067,24 18.866,24.978 20.911,30.09 c 1.891,4.726 16.285643,7.173667 22.538,6.909 L 44,35.222 C 39.844,35.205 23.847,34.861 21.956,30.134 19.911,25.022 27.068,24 26.046,18.888 24.766,12.488 12.384768,11.826334 5.1580769,11.732"
       id="path43"
       style="fill:url(#g)"
       sodipodi:nodetypes="ccccccccc" />
    <path
       id="rect1598"
       style="opacity:1;fill:#4f2c60;fill-opacity:1;stroke-width:2;stroke-linejoin:round"
       d="m 6,51 v 1 c 0,3.324 2.6759996,6 6,6 h 40 c 3.324,0 6,-2.676 6,-6 v -1 c 0,3.324 -2.676,6 -6,6 H 12 C 8.6759996,57 6,54.324 6,51 Z"
       transform="matrix(0.76923076,0,0,0.76923076,-0.61538457,-0.61538451)" />
  </g>
  <g
     stroke-linejoin="bevel"
     stroke-width="2"
     id="g75"
     transform="matrix(0.34395833,0,0,0.34395833,0.21166665,0.21166663)">
    <g
       stroke-linecap="round"
       id="g57"
       transform="translate(-3)">
      <rect
         width="4"
         x="-4.1199999"
         opacity="0.2"
         y="14.85"
         fill="url(#b)"
         height="15"
         transform="rotate(-45)"
         id="rect47"
         style="fill:url(#linearGradient896)" />
      <circle
         fill="url(#h)"
         cx="-12"
         cy="9"
         r="2"
         transform="rotate(-90)"
         id="circle49"
         style="fill:url(#linearGradient898)" />
      <circle
         fill="#ffffff"
         cx="9"
         cy="12"
         r="1"
         id="circle51" />
      <rect
         width="6"
         x="-6.4842863"
         opacity="0.2"
         y="38.945713"
         fill="url(#d)"
         height="12"
         transform="rotate(-45)"
         id="rect53"
         style="fill:url(#d)" />
      <circle
         fill="url(#j)"
         cx="-30"
         cy="25.076923"
         r="3"
         transform="rotate(-90)"
         id="circle55"
         style="fill:url(#j)" />
    </g>
    <path
       opacity="0.2"
       fill="url(#c)"
       d="m 1.743,31.82 h 5 v 14 h -5 z"
       transform="rotate(-45)"
       id="path59"
       style="fill:url(#c)" />
    <g
       stroke-linecap="round"
       id="g73">
      <circle
         fill="url(#i)"
         cx="-19.5"
         cy="25.5"
         r="2.5"
         transform="rotate(-90)"
         id="circle61"
         style="fill:url(#i)" />
      <g
         fill="#ffffff"
         id="g67">
        <circle
           cx="25.5"
           cy="19.5"
           r="1.5"
           id="circle63" />
        <circle
           cx="22"
           cy="30"
           r="2"
           id="circle65" />
      </g>
      <circle
         fill="url(#k)"
         cx="-34.846153"
         cy="40.153847"
         r="3.8461537"
         transform="rotate(-90)"
         id="circle69"
         style="fill:url(#k);stroke-width:1.92308" />
      <circle
         fill="#ffffff"
         cx="40.153847"
         cy="34.846153"
         r="2.8846154"
         id="circle71"
         style="stroke-width:1.92308" />
    </g>
  </g>
  <path
     id="rect846"
     style="opacity:0.3;fill:url(#linearGradient881);stroke-width:1.27569;fill-opacity:1"
     d="M 12 6 C 8.6760005 6 6 8.6760005 6 12 L 6 52 C 6 55.324 8.6760005 58 12 58 L 52 58 C 55.324 58 58 55.324 58 52 L 58 12 C 58 8.6760005 55.324 6 52 6 L 12 6 z M 12 7 L 52 7 C 54.77 7 57 9.23 57 12 L 57 52 C 57 54.77 54.77 57 52 57 L 12 57 C 9.23 57 7 54.77 7 52 L 7 12 C 7 9.23 9.23 7 12 7 z "
     transform="scale(0.26458333)" />
</svg>
