<?xml version="1.0" encoding="UTF-8" standalone="no"?>
<!-- Created with Inkscape (http://www.inkscape.org/) -->

<svg
   width="64"
   height="64"
   viewBox="0 0 16.933333 16.933333"
   version="1.1"
   id="svg5"
   inkscape:version="1.1.1 (3bf5ae0d25, 2021-09-20, custom)"
   sodipodi:docname="calligrakarbon.svg"
   xmlns:inkscape="http://www.inkscape.org/namespaces/inkscape"
   xmlns:sodipodi="http://sodipodi.sourceforge.net/DTD/sodipodi-0.dtd"
   xmlns:xlink="http://www.w3.org/1999/xlink"
   xmlns="http://www.w3.org/2000/svg"
   xmlns:svg="http://www.w3.org/2000/svg">
  <sodipodi:namedview
     id="namedview7"
     pagecolor="#ffffff"
     bordercolor="#666666"
     borderopacity="1.0"
     inkscape:pageshadow="2"
     inkscape:pageopacity="0.0"
     inkscape:pagecheckerboard="0"
     inkscape:document-units="px"
     showgrid="false"
     units="px"
     height="48px"
     inkscape:zoom="7.9999996"
     inkscape:cx="40.750002"
     inkscape:cy="30.875002"
     inkscape:window-width="1920"
     inkscape:window-height="1011"
     inkscape:window-x="0"
     inkscape:window-y="0"
     inkscape:window-maximized="1"
     inkscape:current-layer="svg5"
     inkscape:lockguides="true" />
  <defs
     id="defs2">
    <linearGradient
       inkscape:collect="always"
       id="linearGradient921">
      <stop
         style="stop-color:#c6cdd1;stop-opacity:1;"
         offset="0"
         id="stop917" />
      <stop
         style="stop-color:#e0e5e7;stop-opacity:1"
         offset="1"
         id="stop919" />
    </linearGradient>
    <linearGradient
       xlink:href="#b"
       id="e"
       y1="24.02"
       x1="18.190001"
       y2="40.189999"
       x2="34.360001"
       gradientUnits="userSpaceOnUse" />
    <linearGradient
       id="b"
       y1="14.849"
       y2="26.16"
       x2="0"
       gradientUnits="userSpaceOnUse">
      <stop
         id="stop7" />
      <stop
         offset="1"
         stop-opacity="0"
         id="stop9" />
    </linearGradient>
    <linearGradient
       id="a"
       y1="45"
       y2="13"
       x2="0"
       gradientUnits="userSpaceOnUse"
       gradientTransform="matrix(1.3,0,0,1.3,0.79999995,0.79999988)">
      <stop
         stop-color="#663579"
         id="stop2" />
      <stop
         offset="1"
         stop-color="#16a085"
         id="stop4" />
    </linearGradient>
    <linearGradient
       id="g"
       x1="8.2130003"
       x2="40.550999"
       gradientUnits="userSpaceOnUse">
      <stop
         stop-color="#1d1e1e"
         id="stop20" />
      <stop
         offset="1"
         stop-color="#2c2f32"
         id="stop22" />
    </linearGradient>
    <linearGradient
       inkscape:collect="always"
       xlink:href="#b"
       id="linearGradient896"
       gradientUnits="userSpaceOnUse"
       y1="14.849"
       x2="0"
       y2="26.16"
       gradientTransform="translate(-1.0878566,-1.0878566)" />
    <linearGradient
       id="linearGradient2779"
       y1="14.849"
       y2="26.16"
       x2="0"
       gradientUnits="userSpaceOnUse">
      <stop
         id="stop2775" />
      <stop
         offset="1"
         stop-opacity="0"
         id="stop2777" />
    </linearGradient>
    <linearGradient
       inkscape:collect="always"
       xlink:href="#h"
       id="linearGradient898"
       gradientUnits="userSpaceOnUse"
       gradientTransform="translate(-21,-4.5384615)"
       x1="7"
       x2="11" />
    <linearGradient
       id="h"
       x1="7"
       x2="11"
       gradientUnits="userSpaceOnUse"
       gradientTransform="translate(-21,-3)">
      <stop
         stop-color="#1d1e1e"
         id="stop25" />
      <stop
         offset="1"
         stop-color="#44484c"
         id="stop27" />
    </linearGradient>
    <linearGradient
       xlink:href="#b"
       id="d"
       y1="36.77"
       y2="48.080002"
       x2="0"
       gradientUnits="userSpaceOnUse"
       gradientTransform="translate(2.1757132,2.1757132)" />
    <linearGradient
       id="linearGradient2790"
       y1="14.849"
       y2="26.16"
       x2="0"
       gradientUnits="userSpaceOnUse">
      <stop
         id="stop2786" />
      <stop
         offset="1"
         stop-opacity="0"
         id="stop2788" />
    </linearGradient>
    <linearGradient
       xlink:href="#h"
       id="j"
       x1="19"
       x2="25"
       gradientUnits="userSpaceOnUse"
       gradientTransform="translate(-52,-4.923077)" />
    <linearGradient
       id="linearGradient2797"
       x1="7"
       x2="11"
       gradientUnits="userSpaceOnUse"
       gradientTransform="translate(-21,-3)">
      <stop
         stop-color="#1d1e1e"
         id="stop2793" />
      <stop
         offset="1"
         stop-color="#44484c"
         id="stop2795" />
    </linearGradient>
    <linearGradient
       xlink:href="#b"
       id="c"
       y1="31.885"
       y2="44.48"
       x2="0"
       gradientUnits="userSpaceOnUse" />
    <linearGradient
       id="linearGradient2804"
       y1="14.849"
       y2="26.16"
       x2="0"
       gradientUnits="userSpaceOnUse">
      <stop
         id="stop2800" />
      <stop
         offset="1"
         stop-opacity="0"
         id="stop2802" />
    </linearGradient>
    <linearGradient
       xlink:href="#h"
       id="i"
       x1="23"
       x2="28"
       gradientUnits="userSpaceOnUse"
       gradientTransform="translate(-45,6)" />
    <linearGradient
       id="linearGradient2811"
       x1="7"
       x2="11"
       gradientUnits="userSpaceOnUse"
       gradientTransform="translate(-21,-3)">
      <stop
         stop-color="#1d1e1e"
         id="stop2807" />
      <stop
         offset="1"
         stop-color="#44484c"
         id="stop2809" />
    </linearGradient>
    <linearGradient
       xlink:href="#h"
       id="k"
       x1="34"
       x2="42"
       gradientUnits="userSpaceOnUse"
       gradientTransform="matrix(0.96153846,0,0,0.96153846,-71.384615,8.0384631)" />
    <linearGradient
       id="linearGradient2818"
       x1="7"
       x2="11"
       gradientUnits="userSpaceOnUse"
       gradientTransform="translate(-21,-3)">
      <stop
         stop-color="#1d1e1e"
         id="stop2814" />
      <stop
         offset="1"
         stop-color="#44484c"
         id="stop2816" />
    </linearGradient>
    <linearGradient
       id="a-7"
       y1="45"
       y2="13"
       x2="0"
       gradientUnits="userSpaceOnUse"
       gradientTransform="matrix(0.34395833,0,0,0.34395833,-16.751295,2.3144215)">
      <stop
         stop-color="#663579"
         id="stop2-5" />
      <stop
         offset="1"
         stop-color="#16a085"
         id="stop4-3" />
    </linearGradient>
    <linearGradient
       inkscape:collect="always"
       xlink:href="#linearGradient921"
       id="linearGradient4696"
       x1="8.4666662"
       y1="16.933334"
       x2="8.4666672"
       y2="6.7529299e-07"
       gradientUnits="userSpaceOnUse" />
    <linearGradient
       inkscape:collect="always"
       xlink:href="#linearGradient37218"
       id="linearGradient1781"
       x1="2.8346456e-08"
       y1="2.2677165e-07"
       x2="64"
       y2="64"
       gradientUnits="userSpaceOnUse"
       gradientTransform="scale(0.26458333)" />
    <linearGradient
       inkscape:collect="always"
       id="linearGradient37218">
      <stop
         style="stop-color:#ffffff;stop-opacity:1"
         offset="0"
         id="stop37214" />
      <stop
         style="stop-color:#e6e6e6;stop-opacity:0.00306325"
         offset="0.49741825"
         id="stop37220" />
      <stop
         style="stop-color:#000000;stop-opacity:1"
         offset="1"
         id="stop37216" />
    </linearGradient>
  </defs>
  <path
     id="rect914"
     style="fill:url(#linearGradient4696);stroke-width:0.79375;stroke-linecap:round;stroke-linejoin:round;fill-opacity:1"
     d="M 3.1749998,1.0583333 H 13.758333 c 1.172634,0 2.116667,0.9440333 2.116667,2.1166665 V 13.758333 c 0,1.172634 -0.944033,2.116667 -2.116667,2.116667 H 3.1749998 c -1.1726332,0 -2.1166665,-0.944033 -2.1166665,-2.116667 V 3.1749998 c 0,-1.1726332 0.9440333,-2.1166665 2.1166665,-2.1166665 z" />
  <g
     fill-rule="evenodd"
     id="g45"
     transform="matrix(0.34395833,0,0,0.34395833,0.21166665,0.21166663)">
    <path
       opacity="0.2"
       fill="url(#e)"
       d="M 24.426,16 12,31 24.965,43.965 A 20,20 0 0 0 41.701328,33.275547 Z"
       id="path37"
       style="fill:url(#e)" />
    <path
       id="path39"
       style="fill:url(#a);stroke-width:1.3"
       d="M 5.9042969,15.994141 C 5.3645565,15.990915 4.852309,15.99349 4.3476562,15.998047 4.1268565,16.624641 4,17.296007 4,18 v 34 c 0,4.432003 3.568,8 8,8 h 40 c 4.431999,0 8,-3.567997 8,-8 v -5.412109 c -7.593264,-0.14933 -28.19925,-0.468182 -30.65625,-6.613282 -2.6585,-6.6456 6.644353,-7.975493 5.314453,-14.621093 -1.56,-7.8 -18.849619,-9.300178 -28.7539061,-9.359375 z"
       transform="matrix(0.76923076,0,0,0.76923076,-0.61538457,-0.61538451)" />
    <path
       fill="url(#g)"
       d="m 5.1570769,11.732 c -0.007,0.01 -0.014,0.02 -0.021,0.029 C 12.25395,12.029095 23.847,12.898 25.045,18.888 26.067,24 18.866,24.978 20.911,30.09 c 1.891,4.726 16.285643,7.173667 22.538,6.909 L 44,35.222 C 39.844,35.205 23.847,34.861 21.956,30.134 19.911,25.022 27.068,24 26.046,18.888 24.766,12.488 12.384768,11.826334 5.1580769,11.732"
       id="path43"
       style="fill:url(#g)"
       sodipodi:nodetypes="ccccccccc" />
  </g>
  <g
     stroke-linejoin="bevel"
     stroke-width="2"
     id="g75"
     transform="matrix(0.34395833,0,0,0.34395833,0.21166665,0.21166663)">
    <g
       stroke-linecap="round"
       id="g57"
       transform="translate(-3)">
      <rect
         width="4"
         x="-5.2078567"
         opacity="0.2"
         y="13.762144"
         fill="url(#b)"
         height="15"
         transform="rotate(-45)"
         id="rect47"
         style="fill:url(#linearGradient896)" />
      <circle
         fill="url(#h)"
         cx="-12"
         cy="7.4615383"
         r="2"
         transform="rotate(-90)"
         id="circle49"
         style="fill:url(#linearGradient898)" />
      <circle
         fill="#ffffff"
         cx="7.4615383"
         cy="12"
         r="1"
         id="circle51" />
      <rect
         width="6"
         x="-6.4842863"
         opacity="0.2"
         y="38.945713"
         fill="url(#d)"
         height="12"
         transform="rotate(-45)"
         id="rect53"
         style="fill:url(#d)" />
      <circle
         fill="url(#j)"
         cx="-30"
         cy="25.076923"
         r="3"
         transform="rotate(-90)"
         id="circle55"
         style="fill:url(#j)" />
    </g>
    <path
       opacity="0.2"
       fill="url(#c)"
       d="m 1.743,31.82 h 5 v 14 h -5 z"
       transform="rotate(-45)"
       id="path59"
       style="fill:url(#c)" />
    <g
       stroke-linecap="round"
       id="g73">
      <circle
         fill="url(#i)"
         cx="-19.5"
         cy="25.5"
         r="2.5"
         transform="rotate(-90)"
         id="circle61"
         style="fill:url(#i)" />
      <g
         fill="#ffffff"
         id="g67">
        <circle
           cx="25.5"
           cy="19.5"
           r="1.5"
           id="circle63" />
        <circle
           cx="22"
           cy="30"
           r="2"
           id="circle65" />
      </g>
      <circle
         fill="url(#k)"
         cx="-34.846153"
         cy="41.692307"
         r="3.8461537"
         transform="rotate(-90)"
         id="circle69"
         style="fill:url(#k);stroke-width:1.92308" />
      <circle
         fill="#ffffff"
         cx="41.692307"
         cy="34.846153"
         r="2.8846154"
         id="circle71"
         style="stroke-width:1.92308" />
    </g>
  </g>
  <path
     id="rect1277"
     style="fill:#4f2c60;stroke-width:3;stroke-linecap:round;stroke-linejoin:round;fill-opacity:1"
     d="M 4 51 L 4 52 C 4 56.432 7.5680001 60 12 60 L 52 60 C 56.432 60 60 56.432 60 52 L 60 51 C 60 55.432 56.432 59 52 59 L 12 59 C 7.5680001 59 4 55.432 4 51 z "
     transform="scale(0.26458333)" />
  <path
     id="rect1345"
     style="opacity:0.3;fill:url(#linearGradient1781);fill-opacity:1;stroke-width:0.264583"
     d="m 3.175,1.0583333 c -1.1726334,0 -2.1166667,0.944033 -2.1166667,2.116666 V 13.758332 c 0,1.172634 0.9440333,2.116667 2.1166667,2.116667 h 10.583333 c 1.172634,0 2.116667,-0.944033 2.116667,-2.116667 V 3.1749993 c 0,-1.172633 -0.944033,-2.116666 -2.116667,-2.116666 z m 0,0.264583 h 10.583333 c 1.026054,0 1.852084,0.826029 1.852084,1.852083 V 13.758332 c 0,1.026055 -0.82603,1.852084 -1.852084,1.852084 H 3.175 c -1.0260542,0 -1.8520834,-0.826029 -1.8520834,-1.852084 V 3.1749993 c 0,-1.026054 0.8260292,-1.852083 1.8520834,-1.852083 z" />
</svg>
