<?xml version="1.0" encoding="UTF-8" standalone="no"?>
<!-- Created with Inkscape (http://www.inkscape.org/) -->

<svg
   width="64"
   height="64"
   viewBox="0 0 16.933333 16.933333"
   version="1.1"
   id="svg5"
   inkscape:version="1.1.1 (3bf5ae0d25, 2021-09-20, custom)"
   sodipodi:docname="chromium.svg"
   xmlns:inkscape="http://www.inkscape.org/namespaces/inkscape"
   xmlns:sodipodi="http://sodipodi.sourceforge.net/DTD/sodipodi-0.dtd"
   xmlns:xlink="http://www.w3.org/1999/xlink"
   xmlns="http://www.w3.org/2000/svg"
   xmlns:svg="http://www.w3.org/2000/svg">
  <sodipodi:namedview
     id="namedview7"
     pagecolor="#ffffff"
     bordercolor="#666666"
     borderopacity="1.0"
     inkscape:pageshadow="2"
     inkscape:pageopacity="0.0"
     inkscape:pagecheckerboard="0"
     inkscape:document-units="px"
     showgrid="true"
     units="px"
     height="48px"
     inkscape:zoom="7.9999996"
     inkscape:cx="18.125001"
     inkscape:cy="8.0625004"
     inkscape:window-width="1920"
     inkscape:window-height="1019"
     inkscape:window-x="0"
     inkscape:window-y="0"
     inkscape:window-maximized="1"
     inkscape:current-layer="svg5"
     inkscape:lockguides="true" />
  <defs
     id="defs2">
    <linearGradient
       inkscape:collect="always"
       xlink:href="#linearGradient37218"
       id="linearGradient1781"
       x1="2.8346456e-08"
       y1="2.2677165e-07"
       x2="64"
       y2="64"
       gradientUnits="userSpaceOnUse"
       gradientTransform="scale(0.26458333)" />
    <linearGradient
       inkscape:collect="always"
       id="linearGradient37218">
      <stop
         style="stop-color:#808080;stop-opacity:1"
         offset="0"
         id="stop37214" />
      <stop
         style="stop-color:#717171;stop-opacity:0.00392157"
         offset="0.49741825"
         id="stop37220" />
      <stop
         style="stop-color:#808080;stop-opacity:1"
         offset="1"
         id="stop37216" />
    </linearGradient>
  </defs>
  <path
     id="rect863"
     style="fill:#ffffff;stroke-width:0.264583"
     d="M 3.1749998,1.0583333 H 13.758333 c 1.172634,0 2.116667,0.9440336 2.116667,2.1166668 V 13.758333 c 0,1.172634 -0.944033,2.116667 -2.116667,2.116667 H 3.1749998 c -1.1726332,0 -2.1166665,-0.944033 -2.1166665,-2.116667 V 3.1750001 c 0,-1.1726332 0.9440333,-2.1166668 2.1166665,-2.1166668 z" />
  <path
     id="rect1345"
     style="opacity:0.3;fill:url(#linearGradient1781);fill-opacity:1;stroke-width:0.264583"
     d="m 3.175,1.0583333 c -1.1726333,0 -2.1166667,0.9440337 -2.1166667,2.116667 V 13.758333 c 0,1.172634 0.9440334,2.116667 2.1166667,2.116667 h 10.583335 c 1.172632,0 2.116666,-0.944033 2.116666,-2.116667 V 3.1750003 c 0,-1.1726333 -0.944034,-2.116667 -2.116666,-2.116667 z m 0,0.2645837 h 10.583335 c 1.026054,0 1.852083,0.8260291 1.852083,1.8520833 V 13.758333 c 0,1.026054 -0.826029,1.852084 -1.852083,1.852084 H 3.175 c -1.0260542,0 -1.8520834,-0.82603 -1.8520834,-1.852084 V 3.1750003 C 1.3229166,2.1489461 2.1489458,1.322917 3.175,1.322917 Z" />
  <path
     style="fill:#91b0e8;fill-opacity:1;stroke:none;stroke-width:0;stroke-linecap:butt;stroke-linejoin:miter;stroke-miterlimit:4;stroke-dasharray:none;stroke-dashoffset:0;stroke-opacity:1"
     d="m 12.921409,6.1357435 c -7.0411313,5.6252525 -3.520566,2.8126258 0,0 z m 0,0 -4.0698899,0.00158 c 1.1207106,0.1837944 1.9758789,1.1566176 1.9758889,2.3293387 -8.37e-4,0.576746 -0.212752,1.133238 -0.595776,1.5644328 l -2.0184282,3.456323 c 0.08397,0.0042 0.1684562,0.0063 0.2534625,0.0063 2.7763857,1e-5 5.0270937,-2.250697 5.0270837,-5.0270835 3e-6,-0.8413158 -0.207002,-1.6341467 -0.572341,-2.3309231 z"
     id="path4797"
     inkscape:connector-curvature="0"
     sodipodi:nodetypes="cccccccssc" />
  <path
     style="fill:#396bd7;fill-opacity:1;stroke-width:0.0266002"
     clip-path="none"
     d="M 8.4666663,3.4395833 C 6.659311,3.4395769 5.0749741,4.3935219 4.1890215,5.8252054 l 1.9617249,3.0894463 c 0.0091,0.147042 -0.044714,-0.4374233 -0.044822,-0.4479852 1.15e-5,-1.3037968 1.056945,-2.3607308 2.3607419,-2.3607414 0.122407,9.775e-4 0.3751994,0.025661 0.4959781,0.045579 l 3.9587646,-0.01576 C 12.08111,4.5331233 10.401737,3.4395763 8.4666663,3.4395833 Z M 4.1884157,5.8261839 c -1.2191358,5.8316251 -0.6095679,2.9158127 0,0 z"
     id="path3923"
     inkscape:connector-curvature="0"
     sodipodi:nodetypes="sccccccscc" />
  <path
     style="fill:#6199f6;fill-opacity:1;stroke-width:0.0266002"
     clip-path="none"
     d="M 4.1890215,5.8252054 C 3.7140101,6.5928149 3.4395797,7.497637 3.4395833,8.4666665 3.4395738,11.158046 5.554597,13.355387 8.2132038,13.487414 L 10.231632,10.031098 C 9.7842367,10.536694 9.1417865,10.826551 8.4666663,10.827408 7.3363253,10.826487 6.3652532,10.024454 6.1507464,8.9146517 Z"
     id="path3923-1"
     inkscape:connector-curvature="0"
     sodipodi:nodetypes="csccccc" />
  <circle
     style="fill:#ffffff;fill-opacity:1;stroke:none;stroke-width:0;stroke-linecap:butt;stroke-linejoin:miter;stroke-miterlimit:4;stroke-dasharray:none;stroke-dashoffset:0;stroke-opacity:1"
     id="path4162"
     cx="8.4666653"
     cy="8.4666662"
     r="2.3607624" />
  <circle
     style="fill:#4688f4;fill-opacity:1;stroke:none;stroke-width:0;stroke-linecap:butt;stroke-linejoin:miter;stroke-miterlimit:4;stroke-dasharray:none;stroke-dashoffset:0;stroke-opacity:1"
     id="path3956"
     cx="8.4666653"
     cy="8.4666662"
     clip-path="none"
     r="1.9479985" />
  <path
     id="rect5020-5-5"
     clip-path="none"
     style="opacity:0.1;fill:#367100;fill-opacity:1;stroke:none;stroke-width:0;stroke-linecap:butt;stroke-linejoin:miter;stroke-miterlimit:4;stroke-dasharray:none;stroke-dashoffset:0;stroke-opacity:1"
     d="m 4.1901547,5.8309388 a 5.0270651,5.0270651 0 0 0 -0.00109,0.00218 L 6.1527681,8.9117726 A 2.3590148,2.3590148 0 0 1 6.1074937,8.4677572 2.3590148,2.3590148 0 0 1 6.2847726,7.5797266 Z m 8.7292113,0.3049196 -3.9574097,0.01691 0.00436,0.00982 a 2.3590148,2.3590148 0 0 1 1.2098597,0.6807508 l 2.743186,-0.7069335 a 5.0270651,5.0270651 0 0 0 0,-5.455e-4 z m -2.689729,3.8984986 a 2.3590148,2.3590148 0 0 1 -1.5076893,0.778391 l -0.5089265,2.672274 a 5.0270651,5.0270651 0 0 0 0.00164,5.45e-4 z" />
</svg>
