<?xml version="1.0" encoding="UTF-8" standalone="no"?>
<!-- Created with Inkscape (http://www.inkscape.org/) -->

<svg
   width="64"
   height="64"
   viewBox="0 0 16.933333 16.933333"
   version="1.1"
   id="svg5"
   inkscape:version="1.1.1 (3bf5ae0d25, 2021-09-20, custom)"
   sodipodi:docname="dconf-editor.svg"
   xmlns:inkscape="http://www.inkscape.org/namespaces/inkscape"
   xmlns:sodipodi="http://sodipodi.sourceforge.net/DTD/sodipodi-0.dtd"
   xmlns:xlink="http://www.w3.org/1999/xlink"
   xmlns="http://www.w3.org/2000/svg"
   xmlns:svg="http://www.w3.org/2000/svg">
  <sodipodi:namedview
     id="namedview7"
     pagecolor="#ffffff"
     bordercolor="#666666"
     borderopacity="1.0"
     inkscape:pageshadow="2"
     inkscape:pageopacity="0.0"
     inkscape:pagecheckerboard="0"
     inkscape:document-units="px"
     showgrid="false"
     units="px"
     height="48px"
     inkscape:zoom="5.656854"
     inkscape:cx="8.4852817"
     inkscape:cy="38.272156"
     inkscape:window-width="1920"
     inkscape:window-height="1011"
     inkscape:window-x="0"
     inkscape:window-y="0"
     inkscape:window-maximized="1"
     inkscape:current-layer="svg5"
     inkscape:lockguides="true" />
  <defs
     id="defs2">
    <linearGradient
       inkscape:collect="always"
       id="linearGradient8752">
      <stop
         style="stop-color:#e47661;stop-opacity:1;"
         offset="0"
         id="stop8748" />
      <stop
         style="stop-color:#dc4431;stop-opacity:1"
         offset="1"
         id="stop8750" />
    </linearGradient>
    <linearGradient
       inkscape:collect="always"
       id="linearGradient6968">
      <stop
         style="stop-color:#ffffff;stop-opacity:1;"
         offset="0"
         id="stop6964" />
      <stop
         style="stop-color:#f8ded6;stop-opacity:1"
         offset="1"
         id="stop6966" />
    </linearGradient>
    <linearGradient
       inkscape:collect="always"
       id="linearGradient6426">
      <stop
         style="stop-color:#000000;stop-opacity:1;"
         offset="0"
         id="stop6422" />
      <stop
         style="stop-color:#000000;stop-opacity:0;"
         offset="1"
         id="stop6424" />
    </linearGradient>
    <linearGradient
       inkscape:collect="always"
       xlink:href="#linearGradient37218"
       id="linearGradient1781"
       x1="2.8346456e-08"
       y1="2.2677165e-07"
       x2="64"
       y2="64"
       gradientUnits="userSpaceOnUse"
       gradientTransform="scale(0.26458333)" />
    <linearGradient
       inkscape:collect="always"
       id="linearGradient37218">
      <stop
         style="stop-color:#ffffff;stop-opacity:1"
         offset="0"
         id="stop37214" />
      <stop
         style="stop-color:#717171;stop-opacity:0.00392157"
         offset="0.49741825"
         id="stop37220" />
      <stop
         style="stop-color:#010101;stop-opacity:1"
         offset="1"
         id="stop37216" />
    </linearGradient>
    <linearGradient
       inkscape:collect="always"
       xlink:href="#linearGradient6426"
       id="linearGradient6652"
       x1="8"
       y1="51.5"
       x2="58"
       y2="9.5"
       gradientUnits="userSpaceOnUse" />
    <linearGradient
       inkscape:collect="always"
       xlink:href="#linearGradient6968"
       id="linearGradient6970"
       x1="14"
       y1="14"
       x2="14"
       y2="56"
       gradientUnits="userSpaceOnUse" />
    <linearGradient
       inkscape:collect="always"
       xlink:href="#linearGradient8752"
       id="linearGradient8754"
       x1="11.1125"
       y1="6.7529299e-07"
       x2="11.1125"
       y2="16.933334"
       gradientUnits="userSpaceOnUse" />
  </defs>
  <path
     id="rect863"
     style="fill:url(#linearGradient8754);stroke-width:0.264583;fill-opacity:1"
     d="M 3.1750003,1.0583333 H 13.758333 c 1.172634,0 2.116667,0.944034 2.116667,2.116667 V 13.758333 c 0,1.172634 -0.944033,2.116667 -2.116667,2.116667 H 3.1750003 c -1.172633,0 -2.116667,-0.944033 -2.116667,-2.116667 V 3.1750003 c 0,-1.172633 0.944034,-2.116667 2.116667,-2.116667 z" />
  <path
     id="rect1345"
     style="opacity:0.3;fill:url(#linearGradient1781);fill-opacity:1;stroke-width:0.264583"
     d="m 3.1750003,1.0583333 c -1.172633,0 -2.116667,0.944034 -2.116667,2.116667 V 13.758333 c 0,1.172634 0.944034,2.116667 2.116667,2.116667 H 13.758334 c 1.172633,0 2.116666,-0.944033 2.116666,-2.116667 V 3.1750003 c 0,-1.172633 -0.944033,-2.116667 -2.116666,-2.116667 z m 0,0.264584 H 13.758334 c 1.026054,0 1.852083,0.826029 1.852083,1.852083 V 13.758333 c 0,1.026054 -0.826029,1.852084 -1.852083,1.852084 H 3.1750003 c -1.026054,0 -1.852083,-0.82603 -1.852083,-1.852084 V 3.1750003 c 0,-1.026054 0.826029,-1.852083 1.852083,-1.852083 z" />
  <path
     id="path849"
     style="opacity:1;fill:url(#linearGradient6970);stroke-width:9;stroke-linecap:round;stroke-linejoin:round;fill-opacity:1"
     d="M 32 14 A 18 18 0 0 0 14 32 A 18 18 0 0 0 32 50 A 18 18 0 0 0 50 32 A 18 18 0 0 0 32 14 z M 32 16 A 15.999999 15.999999 0 0 1 48 32 A 15.999999 15.999999 0 0 1 32 48 A 15.999999 15.999999 0 0 1 16 32 A 15.999999 15.999999 0 0 1 32 16 z M 42.626953 25 L 29.900391 37.728516 L 21.414062 29.242188 L 20 30.65625 L 29.900391 40.556641 L 44.041016 26.414062 L 42.626953 25 z "
     transform="scale(0.26458333)" />
  <path
     id="path849-6"
     style="opacity:0.3;fill:url(#linearGradient6652);stroke-width:9;stroke-linecap:round;stroke-linejoin:round;fill-opacity:1"
     d="M 32 16 A 15.999999 15.999999 0 0 0 16 32 A 15.999999 15.999999 0 0 0 16.019531 32.5 A 15.999999 15.999999 0 0 1 32 17 A 15.999999 15.999999 0 0 1 47.986328 32.363281 A 15.999999 15.999999 0 0 0 48 32 A 15.999999 15.999999 0 0 0 32 16 z M 43.541016 26.914062 L 29.900391 40.556641 L 20.5 31.15625 L 20 31.65625 L 29.900391 41.556641 L 44.041016 27.414062 L 43.541016 26.914062 z M 49.986328 32.347656 A 18 18 0 0 1 32 50 A 18 18 0 0 1 14.019531 32.5 A 18 18 0 0 0 14 33 A 18 18 0 0 0 32 51 A 18 18 0 0 0 50 33 A 18 18 0 0 0 49.986328 32.347656 z "
     transform="scale(0.26458333)" />
</svg>
