<?xml version="1.0" encoding="UTF-8" standalone="no"?>
<!-- Created with Inkscape (http://www.inkscape.org/) -->

<svg
   width="64"
   height="64"
   viewBox="0 0 16.933333 16.933333"
   version="1.1"
   id="svg5"
   inkscape:version="1.1.1 (3bf5ae0d25, 2021-09-20, custom)"
   sodipodi:docname="desktop-environment-xfce.svg"
   xmlns:inkscape="http://www.inkscape.org/namespaces/inkscape"
   xmlns:sodipodi="http://sodipodi.sourceforge.net/DTD/sodipodi-0.dtd"
   xmlns:xlink="http://www.w3.org/1999/xlink"
   xmlns="http://www.w3.org/2000/svg"
   xmlns:svg="http://www.w3.org/2000/svg">
  <sodipodi:namedview
     id="namedview7"
     pagecolor="#ffffff"
     bordercolor="#666666"
     borderopacity="1.0"
     inkscape:pageshadow="2"
     inkscape:pageopacity="0.0"
     inkscape:pagecheckerboard="0"
     inkscape:document-units="px"
     showgrid="false"
     units="px"
     height="48px"
     inkscape:zoom="12.328125"
     inkscape:cx="31.959442"
     inkscape:cy="32"
     inkscape:window-width="1920"
     inkscape:window-height="1011"
     inkscape:window-x="0"
     inkscape:window-y="0"
     inkscape:window-maximized="1"
     inkscape:current-layer="svg5"
     inkscape:lockguides="true" />
  <defs
     id="defs2">
    <linearGradient
       inkscape:collect="always"
       id="linearGradient1406">
      <stop
         style="stop-color:#00aade;stop-opacity:1;"
         offset="0"
         id="stop1402" />
      <stop
         style="stop-color:#00cdf4;stop-opacity:1"
         offset="1"
         id="stop1404" />
    </linearGradient>
    <linearGradient
       inkscape:collect="always"
       id="linearGradient1127">
      <stop
         style="stop-color:#000000;stop-opacity:1;"
         offset="0"
         id="stop1123" />
      <stop
         style="stop-color:#000000;stop-opacity:0;"
         offset="1"
         id="stop1125" />
    </linearGradient>
    <linearGradient
       inkscape:collect="always"
       xlink:href="#linearGradient37218"
       id="linearGradient1781"
       x1="2.8346456e-08"
       y1="2.2677165e-07"
       x2="64"
       y2="64"
       gradientUnits="userSpaceOnUse"
       gradientTransform="scale(0.26458333)" />
    <linearGradient
       inkscape:collect="always"
       id="linearGradient37218">
      <stop
         style="stop-color:#ffffff;stop-opacity:1"
         offset="0"
         id="stop37214" />
      <stop
         style="stop-color:#808080;stop-opacity:0.00392157"
         offset="0.49741825"
         id="stop37220" />
      <stop
         style="stop-color:#000000;stop-opacity:1"
         offset="1"
         id="stop37216" />
    </linearGradient>
    <linearGradient
       inkscape:collect="always"
       xlink:href="#linearGradient1127"
       id="linearGradient1129"
       x1="1.5875"
       y1="12.532761"
       x2="15.345833"
       y2="7.2410941"
       gradientUnits="userSpaceOnUse"
       gradientTransform="scale(3.7795276)" />
    <linearGradient
       inkscape:collect="always"
       xlink:href="#linearGradient1406"
       id="linearGradient1408"
       x1="11.1125"
       y1="16.933334"
       x2="11.1125"
       y2="6.7529299e-07"
       gradientUnits="userSpaceOnUse" />
  </defs>
  <path
     id="rect863"
     style="fill:url(#linearGradient1408);stroke-width:0.264583;fill-opacity:1"
     d="M 3.1750003,1.0583333 H 13.758333 c 1.172634,0 2.116667,0.944034 2.116667,2.116667 V 13.758333 c 0,1.172634 -0.944033,2.116667 -2.116667,2.116667 H 3.1750003 c -1.172633,0 -2.116667,-0.944033 -2.116667,-2.116667 V 3.1750003 c 0,-1.172633 0.944034,-2.116667 2.116667,-2.116667 z" />
  <path
     id="rect1345"
     style="opacity:0.3;fill:url(#linearGradient1781);fill-opacity:1;stroke-width:0.264583"
     d="m 3.1750003,1.0583333 c -1.172633,0 -2.116667,0.944034 -2.116667,2.116667 V 13.758333 c 0,1.172634 0.944034,2.116667 2.116667,2.116667 H 13.758334 c 1.172633,0 2.116666,-0.944033 2.116666,-2.116667 V 3.1750003 c 0,-1.172633 -0.944033,-2.116667 -2.116666,-2.116667 z m 0,0.264584 H 13.758334 c 1.026054,0 1.852083,0.826029 1.852083,1.852083 V 13.758333 c 0,1.026054 -0.826029,1.852084 -1.852083,1.852084 H 3.1750003 c -1.026054,0 -1.852083,-0.82603 -1.852083,-1.852084 V 3.1750003 c 0,-1.026054 0.826029,-1.852083 1.852083,-1.852083 z" />
  <path
     id="path14"
     style="fill:#ffffff;fill-opacity:1;fill-rule:evenodd;stroke:none;stroke-width:0.016464"
     d="m 3.1792407,5.8208857 c -0.056188,0.030769 0.4479763,0.3608052 1.3929172,0.7498332 0.9450008,0.3890281 2.2515728,1.3741619 2.1492198,1.5333085 -0.306936,0.4323157 -0.487895,0.9504625 -0.362947,1.8360889 0.02253,0.1558827 -0.462888,0.4266237 -0.427645,0.6618457 0.02947,0.17898 0.542448,-0.177767 0.598443,-0.107397 0.03425,0.126298 -0.274036,0.766261 -0.149448,0.811943 0.09112,0.02708 0.891558,-0.761678 0.938099,-0.74854 1.320951,0.399344 3.0411023,0.09935 3.0743813,0.08669 -0.0033,-0.007 1.235344,0.582237 1.343101,0.51175 0.271815,-0.29435 -0.515509,-0.708981 -0.384297,-0.874698 0.05753,-0.08676 0.95905,0.325458 1.003443,0.212852 0.0646,-0.194945 -0.418411,-0.6039857 -0.491047,-0.7252487 -0.06317,-0.111815 -0.07534,-0.292026 0.0867,-0.4050005 0.162093,-0.1129764 1.8189,-0.7464154 1.749395,-1.2369981 C 13.579406,7.2359194 11.59656,7.1775541 11.56457,7.1025252 11.54955,7.0672702 11.65301,5.8274216 11.074816,6.0563814 10.718823,6.1888886 11.007786,6.9790676 11.030826,7.081175 11.052056,7.175182 10.87251,7.164493 10.838677,7.123228 10.763157,7.031004 10.515576,6.2069942 10.221472,6.3539858 9.8089887,6.5814093 10.195692,7.2923529 10.113428,7.3153768 9.9606047,7.4007898 9.9693707,7.6099437 9.8468737,7.7798973 9.6448637,8.069398 8.1332157,7.6445276 7.6445977,7.6149211 7.2868827,7.5937876 6.9458227,7.8858063 6.9135257,7.8484761 6.4779577,7.4122925 5.5768687,6.6522121 4.5896258,6.39992 4.0359846,6.2496649 3.2122723,5.8153592 3.1792407,5.8208857 Z M 13.2622,6.6185942 c -0.033,0.014221 -0.165924,0.6997843 -0.101571,0.7310711 0.05704,0.042667 0.155588,-0.691185 0.103512,-0.7291303 -8.62e-4,-9.937e-4 -9.28e-4,-0.00242 -0.002,-0.00195 z m 0.489754,0.094457 c -0.07482,-0.00135 -0.474257,0.6358523 -0.382357,0.7038986 0.05704,0.042667 0.411969,-0.6778279 0.387532,-0.7019575 -0.0016,-0.00143 -0.0029,-0.00189 -0.0051,-0.00195 z m -1.934427,0.7770052 c 0.0945,0 0.170798,0.085854 0.170798,0.193443 0,0.107608 -0.07629,0.1960306 -0.170798,0.1960306 -0.0945,0 -0.1708,-0.088423 -0.1708,-0.1960306 0,-0.1076081 0.0763,-0.193443 0.1708,-0.193443 z m -0.383652,0.1171009 c 0.07269,0.3138145 0.18546,0.4130672 0.525984,0.4030596 C 11.52644,8.407656 11.263736,7.7274395 11.433875,7.6071573 Z m 0.936159,0.8203526 c 0.01774,7.95e-4 0.03122,0.00567 0.04011,0.014233 0.170747,0.061897 -0.732171,0.3875858 -0.738188,0.3415979 -0.009,-0.031691 0.490485,-0.3398681 0.679314,-0.3551839 0.0068,-5.631e-4 0.01284,-8.944e-4 0.01877,-6.625e-4 z m 0.09252,0.2076759 c 0.0095,-7.287e-4 0.01768,0.00222 0.02459,0.00582 C 12.648316,8.801136 11.9769,9.1561615 11.984452,9.143698 11.930342,9.111007 12.322371,8.6467068 12.46256,8.6358301 Z" />
  <path
     id="path14-3"
     style="opacity:0.3;fill:url(#linearGradient1129);fill-opacity:1;fill-rule:evenodd;stroke:none;stroke-width:0.0622261"
     d="M 12.015625 23 C 11.803261 23.116292 13.70982 24.363642 17.28125 25.833984 C 20.211125 27.040125 24.057551 29.761825 25.132812 31.033203 C 25.219988 30.896352 25.310542 30.760958 25.404297 30.628906 C 25.707984 30.156709 22.729386 27.764621 19.707031 26.044922 C 18.945252 25.691115 18.152413 25.39561 17.345703 25.189453 C 15.253201 24.62156 12.140469 22.979112 12.015625 23 z M 41.226562 24.777344 C 41.109116 25.465459 41.306497 26.38003 41.480469 27.023438 C 41.621205 26.994289 41.725707 26.915555 41.691406 26.763672 C 41.646306 26.563799 41.332579 25.665757 41.226562 24.777344 z M 37.943359 25.994141 C 37.830279 26.563753 37.962395 27.220795 38.091797 27.742188 C 38.132562 27.708588 38.175785 27.675726 38.224609 27.648438 C 38.388326 27.602617 38.062769 26.835342 37.943359 25.994141 z M 50.146484 26.041016 C 50.064138 26.867436 49.872817 27.876518 49.740234 27.777344 C 49.738639 27.776568 49.73786 27.774425 49.736328 27.773438 C 49.707454 27.989866 49.686597 28.193153 49.679688 28.359375 C 49.757429 28.397352 49.833102 28.438364 49.908203 28.478516 C 50.092371 27.809611 50.26892 26.251925 50.146484 26.041016 z M 51.976562 26.373047 C 51.731269 26.368621 50.563183 28.177915 50.484375 28.826172 C 50.547368 28.870181 50.606473 28.916684 50.666016 28.962891 C 51.069238 28.536757 52.076585 26.458385 51.996094 26.378906 C 51.990047 26.373502 51.984877 26.373274 51.976562 26.373047 z M 44.664062 28.308594 C 44.306897 28.308594 44.019531 28.632355 44.019531 29.039062 C 44.019531 29.2329 44.084169 29.410403 44.191406 29.542969 C 44.309219 29.399248 44.476608 29.308594 44.664062 29.308594 C 44.851517 29.308594 45.018908 29.399239 45.136719 29.542969 C 45.24395 29.410403 45.310547 29.2329 45.310547 29.039062 C 45.310547 28.632427 45.021228 28.308594 44.664062 28.308594 z M 43.214844 28.751953 C 42.972639 28.923183 42.961829 29.394968 43.130859 29.835938 C 43.154988 29.803316 43.182627 29.774729 43.214844 29.751953 C 43.258779 29.941628 43.306744 30.107988 43.361328 30.257812 C 43.603867 30.584846 43.965152 30.807349 44.410156 30.720703 C 44.193785 30.613217 44.038732 30.372755 44.021484 30.091797 C 43.598716 29.877048 43.378829 29.459906 43.214844 28.751953 z M 51.675781 31.28125 C 51.113835 32.479691 48.520276 33.785333 46.767578 34.613281 C 46.17098 35.121971 45.27791 35.58667 45.294922 35.558594 C 45.249694 35.531269 45.291635 35.422197 45.382812 35.271484 C 45.287055 35.320578 45.209411 35.362332 45.166016 35.392578 C 44.601323 35.786282 44.595334 36.39636 44.785156 36.820312 C 44.863257 36.664389 44.986492 36.517742 45.166016 36.392578 C 45.778651 35.965581 52.04004 33.570968 51.777344 31.716797 C 51.756915 31.565237 51.723392 31.420359 51.675781 31.28125 z M 46.751953 31.851562 C 46.729541 31.850686 46.707341 31.851387 46.681641 31.853516 C 45.967956 31.911402 44.081219 33.077489 44.115234 33.197266 C 44.137976 33.371078 47.54964 32.140191 46.904297 31.90625 C 46.870697 31.873886 46.819002 31.854567 46.751953 31.851562 z M 47.103516 32.636719 L 47.103516 32.638672 C 46.994871 32.647101 46.843675 32.729818 46.677734 32.853516 C 46.6789 32.853416 46.680481 32.85361 46.681641 32.853516 C 46.707341 32.851387 46.729541 32.850686 46.751953 32.851562 C 46.819002 32.854567 46.870697 32.873886 46.904297 32.90625 C 47.216718 33.019505 46.576681 33.365747 45.832031 33.673828 C 45.467425 34.096951 45.200536 34.50157 45.294922 34.558594 C 45.266379 34.6057 47.804467 33.26342 47.195312 32.658203 C 47.169196 32.644597 47.139421 32.633965 47.103516 32.636719 z M 23.894531 36.078125 C 23.87019 36.624344 23.885908 37.215439 23.949219 37.863281 C 24.009934 37.75707 24.044046 37.656894 24.03125 37.568359 C 23.956206 37.036451 23.913912 36.54416 23.894531 36.078125 z M 43.041016 38.814453 C 42.969856 38.815233 42.922728 38.828633 42.902344 38.859375 C 42.719579 39.090201 43.008407 39.450655 43.394531 39.867188 C 44.395728 40.094809 46.560305 41.001564 46.693359 40.664062 C 46.774443 40.419373 46.625645 40.086123 46.382812 39.732422 C 45.601832 39.645994 43.605748 38.808267 43.041016 38.814453 z M 24.576172 39.628906 C 24.22992 39.632155 23.224708 40.236135 22.714844 40.261719 C 22.71461 40.262029 22.713124 40.261408 22.712891 40.261719 C 22.509168 40.532999 22.376685 40.807809 22.416016 41.070312 C 22.510946 41.646852 23.929364 40.754684 24.478516 40.642578 C 24.615087 40.205594 24.721003 39.823617 24.677734 39.664062 C 24.657894 39.639128 24.623444 39.628463 24.576172 39.628906 z M 27.658203 39.904297 C 27.486426 39.855806 24.59874 42.696344 24.142578 42.734375 C 23.998998 43.244598 23.927495 43.664301 24.113281 43.732422 C 24.457672 43.834771 27.4823 40.854641 27.658203 40.904297 C 32.650775 42.413629 39.151565 41.280271 39.277344 41.232422 C 39.264871 41.205965 43.946245 43.432423 44.353516 43.166016 C 44.656934 42.837443 44.61058 42.46959 44.408203 42.097656 C 44.390722 42.120382 44.374173 42.143646 44.353516 42.166016 C 43.946245 42.432423 39.264871 40.205965 39.277344 40.232422 C 39.151565 40.280271 32.650774 41.413629 27.658203 39.904297 z "
     transform="scale(0.26458333)" />
</svg>
