<?xml version="1.0" encoding="UTF-8" standalone="no"?>
<!-- Created with Inkscape (http://www.inkscape.org/) -->

<svg
   width="64"
   height="64"
   viewBox="0 0 16.933333 16.933333"
   version="1.1"
   id="svg5"
   inkscape:version="1.1.1 (3bf5ae0d25, 2021-09-20, custom)"
   sodipodi:docname="discord-canary.svg"
   xmlns:inkscape="http://www.inkscape.org/namespaces/inkscape"
   xmlns:sodipodi="http://sodipodi.sourceforge.net/DTD/sodipodi-0.dtd"
   xmlns:xlink="http://www.w3.org/1999/xlink"
   xmlns="http://www.w3.org/2000/svg"
   xmlns:svg="http://www.w3.org/2000/svg">
  <sodipodi:namedview
     id="namedview7"
     pagecolor="#ffffff"
     bordercolor="#666666"
     borderopacity="1.0"
     inkscape:pageshadow="2"
     inkscape:pageopacity="0.0"
     inkscape:pagecheckerboard="0"
     inkscape:document-units="px"
     showgrid="false"
     units="px"
     height="48px"
     inkscape:zoom="5.656854"
     inkscape:cx="40.305088"
     inkscape:cy="34.206292"
     inkscape:window-width="1920"
     inkscape:window-height="1019"
     inkscape:window-x="0"
     inkscape:window-y="0"
     inkscape:window-maximized="1"
     inkscape:current-layer="svg5"
     inkscape:lockguides="true" />
  <defs
     id="defs2">
    <linearGradient
       inkscape:collect="always"
       id="linearGradient37218">
      <stop
         style="stop-color:#1a1a1a;stop-opacity:1"
         offset="0"
         id="stop37214" />
      <stop
         style="stop-color:#e6e6e6;stop-opacity:0.00306325"
         offset="0.49741825"
         id="stop37220" />
      <stop
         style="stop-color:#ffffff;stop-opacity:1"
         offset="1"
         id="stop37216" />
    </linearGradient>
    <linearGradient
       inkscape:collect="always"
       xlink:href="#linearGradient37218"
       id="linearGradient881"
       x1="64.208344"
       y1="64.062607"
       x2="0.30528301"
       y2="0.13507102"
       gradientUnits="userSpaceOnUse" />
  </defs>
  <path
     id="rect846-3"
     style="fill:#fee75c;stroke-width:0.337527;fill-opacity:1"
     d="m 3.175,1.5875 h 10.583333 c 0.879475,0 1.5875,0.708025 1.5875,1.5875 v 10.583333 c 0,0.879475 -0.708025,1.5875 -1.5875,1.5875 H 3.175 c -0.879475,0 -1.5875,-0.708025 -1.5875,-1.5875 V 3.175 c 0,-0.879475 0.708025,-1.5875 1.5875,-1.5875 z" />
  <path
     id="rect846"
     style="opacity:0.3;fill:url(#linearGradient881);stroke-width:1.27569;fill-opacity:1"
     d="M 12 6 C 8.6760005 6 6 8.6760005 6 12 L 6 52 C 6 55.324 8.6760005 58 12 58 L 52 58 C 55.324 58 58 55.324 58 52 L 58 12 C 58 8.6760005 55.324 6 52 6 L 12 6 z M 12 7 L 52 7 C 54.77 7 57 9.23 57 12 L 57 52 C 57 54.77 54.77 57 52 57 L 12 57 C 9.23 57 7 54.77 7 52 L 7 12 C 7 9.23 9.23 7 12 7 z "
     transform="scale(0.26458333)" />
  <path
     id="rect889"
     style="fill:#ffffff;fill-opacity:1;stroke-width:0.531555"
     d="m 7.1644158,5.2917344 c 0,0 -1.1097127,-0.024333 -2.2850062,0.8489745 0,0 -1.1752429,2.1143044 -1.175243,4.7179061 0,0 0.6855986,1.174554 2.4893476,1.231691 0,0 0.3015616,-0.358195 0.5464142,-0.668342 -1.0365433,-0.310145 -1.428129,-0.955097 -1.428129,-0.955097 0,0 0.081138,0.05724 0.2280491,0.138862 0.00817,0 0.016407,0.0076 0.032739,0.0158 0.024486,0.01632 0.048895,0.02432 0.073383,0.04064 0.2040432,0.114264 0.4083685,0.204266 0.5960887,0.277723 0.3346322,0.13875 0.7348598,0.261327 1.20008,0.351105 0.6121317,0.11425 1.3298766,0.154814 2.113405,0.0079 0.3836031,-0.07345 0.7761868,-0.179708 1.1842748,-0.351105 0.285661,-0.106103 0.60353,-0.260568 0.938162,-0.480936 0,0 -0.408612,0.661014 -1.477804,0.962999 0.244854,0.301985 0.539642,0.652537 0.539642,0.652537 1.803749,-0.05713 2.489348,-1.231948 2.489348,-1.223788 0,-2.6036018 -1.175243,-4.7179062 -1.175243,-4.7179062 C 10.886792,5.2674025 9.767788,5.2917344 9.767788,5.2917344 L 9.6537639,5.422694 C 11.041262,5.838943 11.685884,6.4511722 11.685884,6.4511722 10.837061,5.9941134 10.004642,5.7653587 9.2292758,5.6755794 8.6416294,5.6102831 8.0788686,5.6260906 7.5810004,5.691385 c -0.048971,0 -0.08989,0.00878 -0.1388616,0.016931 C 7.1564769,5.740964 6.4628308,5.8383886 5.5895225,6.2219902 5.2875372,6.3525784 5.1074587,6.4511688 5.1074587,6.4511688 c 0,0 0.6691255,-0.644969 2.1382416,-1.0612184 z M 6.9442695,8.3037883 c 0.4652202,0 0.8402003,0.3996527 0.8320403,0.8975197 0,0.4978683 -0.3668201,0.89752 -0.8320403,0.89752 -0.4570585,0 -0.8331691,-0.3996517 -0.8331691,-0.89752 0,-0.497867 0.3679489,-0.8975197 0.8331691,-0.8975197 z m 2.9793142,0 c 0.4570583,0 0.8320403,0.3996527 0.8320403,0.8975197 0,0.4978683 -0.36682,0.89752 -0.8320403,0.89752 -0.4570585,0 -0.8331692,-0.3996517 -0.8331692,-0.89752 0,-0.497867 0.367949,-0.8975197 0.8331692,-0.8975197 z" />
</svg>
