<?xml version="1.0" encoding="UTF-8" standalone="no"?>
<!-- Created with Inkscape (http://www.inkscape.org/) -->

<svg
   width="64"
   height="64"
   viewBox="0 0 16.933333 16.933333"
   version="1.1"
   id="svg5"
   inkscape:version="1.1.1 (3bf5ae0d25, 2021-09-20, custom)"
   sodipodi:docname="document-viewer.svg"
   xmlns:inkscape="http://www.inkscape.org/namespaces/inkscape"
   xmlns:sodipodi="http://sodipodi.sourceforge.net/DTD/sodipodi-0.dtd"
   xmlns:xlink="http://www.w3.org/1999/xlink"
   xmlns="http://www.w3.org/2000/svg"
   xmlns:svg="http://www.w3.org/2000/svg">
  <sodipodi:namedview
     id="namedview7"
     pagecolor="#ffffff"
     bordercolor="#666666"
     borderopacity="1.0"
     inkscape:pageshadow="2"
     inkscape:pageopacity="0.0"
     inkscape:pagecheckerboard="0"
     inkscape:document-units="px"
     showgrid="false"
     units="px"
     height="48px"
     inkscape:zoom="3.9999998"
     inkscape:cx="60.500003"
     inkscape:cy="82.625004"
     inkscape:window-width="1920"
     inkscape:window-height="1019"
     inkscape:window-x="0"
     inkscape:window-y="0"
     inkscape:window-maximized="1"
     inkscape:current-layer="svg5"
     inkscape:lockguides="true" />
  <defs
     id="defs2">
    <linearGradient
       inkscape:collect="always"
       id="linearGradient1921">
      <stop
         style="stop-color:#000000;stop-opacity:1;"
         offset="0"
         id="stop1917" />
      <stop
         style="stop-color:#000000;stop-opacity:0;"
         offset="1"
         id="stop1919" />
    </linearGradient>
    <linearGradient
       inkscape:collect="always"
       id="linearGradient37218">
      <stop
         style="stop-color:#1a1a1a;stop-opacity:1"
         offset="0"
         id="stop37214" />
      <stop
         style="stop-color:#e6e6e6;stop-opacity:0.00306325"
         offset="0.49741825"
         id="stop37220" />
      <stop
         style="stop-color:#ffffff;stop-opacity:1"
         offset="1"
         id="stop37216" />
    </linearGradient>
    <linearGradient
       inkscape:collect="always"
       xlink:href="#linearGradient37218"
       id="linearGradient881"
       x1="64.208344"
       y1="64.062607"
       x2="0.30528301"
       y2="0.13507102"
       gradientUnits="userSpaceOnUse"
       gradientTransform="matrix(0.26458333,0,0,0.26458333,4e-8,-0.26458331)" />
    <linearGradient
       inkscape:collect="always"
       xlink:href="#linearGradient1297"
       id="linearGradient1299"
       x1="17.912449"
       y1="14.008792"
       x2="17.909224"
       y2="26.098545"
       gradientUnits="userSpaceOnUse"
       gradientTransform="matrix(0.52916769,0,0,0.52916769,-0.10584238,-0.10182058)" />
    <linearGradient
       inkscape:collect="always"
       id="linearGradient1297">
      <stop
         style="stop-color:#f0f0f0;stop-opacity:1;"
         offset="0"
         id="stop1293" />
      <stop
         style="stop-color:#ff966d;stop-opacity:1"
         offset="1"
         id="stop1295" />
    </linearGradient>
    <linearGradient
       inkscape:collect="always"
       id="linearGradient1265">
      <stop
         style="stop-color:#ff3737;stop-opacity:1"
         offset="0"
         id="stop1261" />
      <stop
         style="stop-color:#ff7034;stop-opacity:1"
         offset="1"
         id="stop1263" />
    </linearGradient>
    <linearGradient
       inkscape:collect="always"
       xlink:href="#linearGradient1265"
       id="linearGradient860"
       x1="7.4081421e-09"
       y1="16.933332"
       x2="-2.0654296e-07"
       y2="3.1749997"
       gradientUnits="userSpaceOnUse" />
    <linearGradient
       inkscape:collect="always"
       xlink:href="#linearGradient1921"
       id="linearGradient1923"
       x1="2.116667"
       y1="14.18581"
       x2="14.287499"
       y2="2.5441437"
       gradientUnits="userSpaceOnUse"
       gradientTransform="matrix(3.7795276,0,0,3.7795276,0,0.99999921)" />
  </defs>
  <path
     id="rect846-3"
     style="fill:url(#linearGradient860);stroke-width:0.337527;fill-opacity:1"
     d="m 3.175,1.5875 h 10.583333 c 0.879475,0 1.5875,0.708025 1.5875,1.5875 v 10.583333 c 0,0.879475 -0.708025,1.5875 -1.5875,1.5875 H 3.175 c -0.879475,0 -1.5875,-0.708025 -1.5875,-1.5875 V 3.175 c 0,-0.879475 0.708025,-1.5875 1.5875,-1.5875 z" />
  <path
     id="rect846"
     style="opacity:0.3;fill:url(#linearGradient881);fill-opacity:1;stroke-width:0.337526"
     d="m 3.175,1.3229167 c -0.8794749,0 -1.5875,0.7080251 -1.5875,1.5874999 V 13.49375 c 0,0.879475 0.7080251,1.5875 1.5875,1.5875 h 10.583333 c 0.879475,0 1.5875,-0.708025 1.5875,-1.5875 V 2.9104166 c 0,-0.8794748 -0.708025,-1.5874999 -1.5875,-1.5874999 z m 0,0.2645833 h 10.583333 c 0.732896,0 1.322917,0.5900208 1.322917,1.3229166 V 13.49375 c 0,0.732896 -0.590021,1.322916 -1.322917,1.322916 H 3.175 c -0.7328958,0 -1.3229167,-0.59002 -1.3229167,-1.322916 V 2.9104166 C 1.8520833,2.1775208 2.4421042,1.5875 3.175,1.5875 Z" />
  <path
     id="path1219-7"
     d="M 13.074974,9.4481723 C 12.884579,9.2605718 12.46233,9.1612808 11.819777,9.1528174 11.384815,9.1455465 10.861324,9.1861336 10.310674,9.263426 10.064111,9.1211349 9.8100155,8.9663572 9.6105091,8.7799134 9.0739014,8.278847 8.6259841,7.5832545 8.3468762,6.8185103 c 0.01818,-0.071478 0.033666,-0.1342342 0.04808,-0.1982603 0,0 0.302267,-1.7169382 0.2222466,-2.2973064 -0.011,-0.079596 -0.0178,-0.1027362 -0.03919,-0.1646423 L 8.5517604,4.0911232 C 8.4695494,3.9015254 8.3083491,3.7006552 8.055617,3.711568 l -0.1482083,-0.00728 -0.00412,-1.214e-4 c -0.2818289,0 -0.5115162,0.1441703 -0.5717953,0.3596347 -0.1832704,0.6755897 0.00582,1.6865129 0.3485309,2.9957295 L 7.5923001,7.2728752 C 7.346906,7.8709952 7.0394108,8.4734882 6.7680865,9.0049525 l -0.035274,0.069238 C 6.4473632,9.6327597 6.1883933,10.106993 5.9535905,10.508673 L 5.711175,10.636914 c -0.01766,0.0084 -0.4331127,0.228974 -0.5305663,0.287924 -0.8266832,0.493637 -1.3744761,1.053948 -1.4653712,1.498629 -0.02893,0.14186 -0.00738,0.323411 0.1396902,0.407557 l 0.2344605,0.11794 c 0.1016902,0.05088 0.2089434,0.07682 0.318823,0.07682 0.5887774,0 1.2723413,-0.733447 2.2140044,-2.376826 1.0872035,-0.353947 2.32501,-0.648078 3.4099284,-0.8104359 0.826737,0.4655789 1.843538,0.7888019 2.485301,0.7888019 0.11395,0 0.212174,-0.011 0.292007,-0.0321 0.123085,-0.0327 0.226824,-0.102801 0.290076,-0.198021 0.124498,-0.18736 0.149758,-0.4455207 0.115954,-0.7098252 -0.01008,-0.078322 -0.07272,-0.1753023 -0.140492,-0.2415111 z M 4.2807342,12.58106 c 0.1073582,-0.293559 0.5323892,-0.873926 1.1607907,-1.388871 0.039508,-0.0321 0.1368242,-0.12328 0.2259424,-0.207895 -0.6571389,1.04807 -1.0972186,1.465779 -1.3867219,1.596762 z M 8.0028083,4.0099762 c 0.1892724,0 0.2969334,0.4770905 0.3058594,0.9243818 0.00892,0.4472911 -0.09568,0.7611785 -0.2254334,0.9933694 C 7.9757681,5.5839045 7.92383,5.0419356 7.92383,4.6874443 c 0,0 -0.0079,-0.6774681 0.078968,-0.6774681 z M 6.8925265,10.117911 C 7.0243688,9.8819102 7.1615413,9.6330097 7.3017181,9.3690876 7.6433918,8.7228887 7.8591996,8.2173049 8.0198987,7.8017183 c 0.3196301,0.5815659 0.7177177,1.0759371 1.1856644,1.4720381 0.058368,0.049064 0.1202122,0.0991 0.1851704,0.1485883 -0.9515963,0.188329 -1.774088,0.4173014 -2.4982282,0.6955943 z m 5.9998955,-0.0533 c -0.05796,0.03574 -0.223986,0.05754 -0.330788,0.05754 -0.344666,0 -0.771112,-0.1575606 -1.368924,-0.4137912 0.229693,-0.017 0.440324,-0.02544 0.62919,-0.02544 0.345701,0 0.448108,0 0.786161,0.08462 0.338054,0.0862 0.3423,0.2613822 0.284361,0.2976152 z"
     inkscape:connector-curvature="0"
     style="fill:url(#linearGradient1299);fill-opacity:1;stroke-width:0.605759;image-rendering:optimizeSpeed" />
  <path
     id="path1219-7-7"
     style="opacity:0.3;fill:url(#linearGradient1923);fill-opacity:1;stroke-width:2.28948;image-rendering:optimizeSpeed"
     d="M 30.246094 15.15625 C 29.917774 15.15625 29.949219 17.716797 29.949219 17.716797 C 29.949219 17.823544 29.952579 17.941635 29.955078 18.056641 C 29.970097 17.29806 30.025847 16.15625 30.246094 16.15625 C 30.916197 16.15625 31.316989 17.73836 31.392578 19.328125 C 31.403719 19.110993 31.407056 18.886691 31.402344 18.650391 C 31.368608 16.959841 30.961454 15.15625 30.246094 15.15625 z M 32.607422 17.777344 C 32.513719 20.551051 31.728516 25.021484 31.728516 25.021484 C 31.674038 25.263473 31.615587 25.501331 31.546875 25.771484 C 31.594587 25.902212 31.645019 26.030542 31.695312 26.160156 C 31.705694 26.115531 31.718449 26.066199 31.728516 26.021484 C 31.728516 26.021484 32.737608 20.287114 32.607422 17.777344 z M 27.451172 18.185547 C 27.358834 20.482367 27.944604 23.464617 28.869141 27.068359 L 29.027344 26.681641 C 28.14523 23.311809 27.533602 20.465408 27.451172 18.185547 z M 30.310547 29.486328 C 29.70318 31.057049 28.889021 32.96783 27.597656 35.410156 C 27.067854 36.407657 26.549083 37.348263 26.050781 38.240234 C 26.28044 38.151975 26.513085 38.066123 26.748047 37.980469 C 27.027128 37.471904 27.310504 36.9508 27.597656 36.410156 C 28.889021 33.967829 29.70318 32.057049 30.310547 30.486328 C 31.455604 32.569756 32.869322 34.356883 34.519531 35.8125 C 34.841097 35.744648 35.162511 35.676574 35.492188 35.611328 C 35.246676 35.424286 35.013572 35.23622 34.792969 35.050781 C 33.024351 33.553707 31.518598 31.684373 30.310547 29.486328 z M 44.681641 36.597656 C 43.967816 36.597656 43.170865 36.629107 42.302734 36.693359 C 43.135288 37.050204 43.879119 37.355169 44.552734 37.599609 C 44.595064 37.599391 44.639872 37.597656 44.681641 37.597656 C 45.988227 37.597656 46.374663 37.596192 47.652344 37.916016 C 47.933507 37.987709 48.150399 38.07679 48.320312 38.171875 C 48.492941 38.136952 48.640954 38.091852 48.726562 38.039062 L 48.726562 38.041016 C 48.945545 37.904072 48.930028 37.241811 47.652344 36.916016 C 46.374663 36.596192 45.988227 36.597656 44.681641 36.597656 z M 37.916016 37.185547 C 33.815537 37.799183 29.138413 38.910294 25.029297 40.248047 C 21.470255 46.459243 18.885457 49.230469 16.660156 49.230469 C 16.244863 49.230469 15.839419 49.133709 15.455078 48.941406 L 14.570312 48.496094 C 14.304227 48.343853 14.148136 48.10592 14.068359 47.841797 C 14.058934 47.879893 14.048715 47.917413 14.041016 47.955078 C 13.931674 48.491242 14.014457 49.178062 14.570312 49.496094 L 15.455078 49.941406 C 15.839419 50.133709 16.244863 50.230469 16.660156 50.230469 C 18.885457 50.230469 21.470255 47.459243 25.029297 41.248047 C 29.138413 39.910294 33.815537 38.799183 37.916016 38.185547 C 41.040691 39.945216 44.884986 41.166016 47.310547 41.166016 C 47.741224 41.166016 48.112331 41.12467 48.414062 41.044922 C 48.879266 40.921331 49.270703 40.656762 49.509766 40.296875 C 49.938414 39.651792 50.055641 38.783381 49.976562 37.878906 C 49.923179 38.4076 49.77642 38.89558 49.509766 39.296875 C 49.270703 39.656762 48.879266 39.921331 48.414062 40.044922 C 48.112331 40.12467 47.741224 40.166016 47.310547 40.166016 C 44.884986 40.166016 41.040691 38.945215 37.916016 37.185547 z M 21.419922 41.515625 C 21.083097 41.83543 20.715728 42.179458 20.566406 42.300781 C 18.191345 44.24703 16.585451 46.441267 16.179688 47.550781 C 16.442239 47.431993 16.738755 47.24785 17.070312 46.986328 C 17.70019 46.096436 18.608332 45.044161 19.738281 44.015625 C 20.252051 43.311978 20.811334 42.486262 21.419922 41.515625 z "
     transform="scale(0.26458333)" />
</svg>
