<?xml version="1.0" encoding="UTF-8" standalone="no"?>
<!-- Created with Inkscape (http://www.inkscape.org/) -->

<svg
   width="64"
   height="64"
   viewBox="0 0 16.933333 16.933333"
   version="1.1"
   id="svg5"
   inkscape:version="1.1.1 (3bf5ae0d25, 2021-09-20, custom)"
   sodipodi:docname="dropbox.svg"
   xmlns:inkscape="http://www.inkscape.org/namespaces/inkscape"
   xmlns:sodipodi="http://sodipodi.sourceforge.net/DTD/sodipodi-0.dtd"
   xmlns:xlink="http://www.w3.org/1999/xlink"
   xmlns="http://www.w3.org/2000/svg"
   xmlns:svg="http://www.w3.org/2000/svg">
  <sodipodi:namedview
     id="namedview7"
     pagecolor="#ffffff"
     bordercolor="#666666"
     borderopacity="1.0"
     inkscape:pageshadow="2"
     inkscape:pageopacity="0.0"
     inkscape:pagecheckerboard="0"
     inkscape:document-units="px"
     showgrid="false"
     units="px"
     height="48px"
     inkscape:zoom="8"
     inkscape:cx="38.8125"
     inkscape:cy="50.1875"
     inkscape:window-width="1853"
     inkscape:window-height="1019"
     inkscape:window-x="0"
     inkscape:window-y="0"
     inkscape:window-maximized="1"
     inkscape:current-layer="svg5"
     inkscape:lockguides="true"
     showguides="false" />
  <defs
     id="defs2">
    <linearGradient
       inkscape:collect="always"
       xlink:href="#linearGradient37218"
       id="linearGradient1781"
       x1="2.8346456e-08"
       y1="2.2677165e-07"
       x2="64"
       y2="64"
       gradientUnits="userSpaceOnUse"
       gradientTransform="scale(0.26458333)" />
    <linearGradient
       inkscape:collect="always"
       id="linearGradient37218">
      <stop
         style="stop-color:#808080;stop-opacity:1"
         offset="0"
         id="stop37214" />
      <stop
         style="stop-color:#717171;stop-opacity:0.00392157"
         offset="0.49741825"
         id="stop37220" />
      <stop
         style="stop-color:#808080;stop-opacity:1"
         offset="1"
         id="stop37216" />
    </linearGradient>
  </defs>
  <path
     id="rect863"
     style="fill:#ffffff;stroke-width:0.264583"
     d="m 3.175,1.0583333 h 10.583333 c 1.172634,0 2.116667,0.9440333 2.116667,2.1166665 V 13.758333 c 0,1.172634 -0.944033,2.116667 -2.116667,2.116667 H 3.175 c -1.172633,0 -2.1166667,-0.944033 -2.1166667,-2.116667 V 3.1749998 c 0,-1.1726332 0.9440337,-2.1166665 2.1166667,-2.1166665 z" />
  <path
     id="rect1345"
     style="opacity:0.3;fill:url(#linearGradient1781);fill-opacity:1;stroke-width:0.264583"
     d="m 3.175,1.0583333 c -1.172633,0 -2.1166667,0.9440334 -2.1166667,2.1166667 v 10.583333 c 0,1.172634 0.9440337,2.116667 2.1166667,2.116667 h 10.583334 c 1.172633,0 2.116666,-0.944033 2.116666,-2.116667 V 3.175 c 0,-1.1726333 -0.944033,-2.1166667 -2.116666,-2.1166667 z m 0,0.2645834 h 10.583334 c 1.026054,0 1.852083,0.8260291 1.852083,1.8520833 v 10.583333 c 0,1.026054 -0.826029,1.852084 -1.852083,1.852084 H 3.175 c -1.026054,0 -1.8520834,-0.82603 -1.8520834,-1.852084 V 3.175 c 0,-1.0260542 0.8260294,-1.8520833 1.8520834,-1.8520833 z" />
  <path
     id="rect849"
     style="opacity:1;fill:#0060ff;stroke-width:0.18514"
     d="M 5.8208337,4.2333332 8.4666672,5.820833 5.8208337,7.4083331 3.1750006,5.820833 Z"
     sodipodi:nodetypes="ccccc" />
  <path
     id="rect849-3"
     style="fill:#0060ff;stroke-width:0.18514"
     d="M 11.1125,4.2333332 13.758334,5.820833 11.1125,7.4083331 8.4666672,5.820833 Z"
     sodipodi:nodetypes="ccccc" />
  <path
     id="rect849-6"
     style="fill:#0060ff;stroke-width:0.18514"
     d="M 5.8208337,7.4083331 8.4666674,8.9958325 5.8208337,10.583333 3.1750008,8.9958325 Z"
     sodipodi:nodetypes="ccccc" />
  <path
     id="rect849-6-5"
     style="fill:#0060ff;stroke-width:0.18514"
     d="M 8.4666664,9.5250002 11.1125,11.1125 8.4666664,12.7 5.8208332,11.1125 Z"
     sodipodi:nodetypes="ccccc" />
  <path
     id="rect849-3-7"
     style="fill:#0060ff;stroke-width:0.18514"
     d="m 11.1125,7.4083331 2.645833,1.5875 L 11.1125,10.583333 8.466666,8.9958331 Z"
     sodipodi:nodetypes="ccccc" />
</svg>
