<?xml version="1.0" encoding="UTF-8" standalone="no"?>
<!-- Created with Inkscape (http://www.inkscape.org/) -->

<svg
   width="64"
   height="64"
   viewBox="0 0 16.933333 16.933333"
   version="1.1"
   id="svg5"
   inkscape:version="1.1.1 (3bf5ae0d25, 2021-09-20, custom)"
   sodipodi:docname="emacs.svg"
   xmlns:inkscape="http://www.inkscape.org/namespaces/inkscape"
   xmlns:sodipodi="http://sodipodi.sourceforge.net/DTD/sodipodi-0.dtd"
   xmlns:xlink="http://www.w3.org/1999/xlink"
   xmlns="http://www.w3.org/2000/svg"
   xmlns:svg="http://www.w3.org/2000/svg">
  <sodipodi:namedview
     id="namedview7"
     pagecolor="#ffffff"
     bordercolor="#666666"
     borderopacity="1.0"
     inkscape:pageshadow="2"
     inkscape:pageopacity="0.0"
     inkscape:pagecheckerboard="0"
     inkscape:document-units="px"
     showgrid="false"
     units="px"
     height="48px"
     inkscape:zoom="7.9999996"
     inkscape:cx="9.0000004"
     inkscape:cy="40.500002"
     inkscape:window-width="1920"
     inkscape:window-height="1011"
     inkscape:window-x="0"
     inkscape:window-y="0"
     inkscape:window-maximized="1"
     inkscape:current-layer="svg5"
     inkscape:lockguides="true" />
  <defs
     id="defs2">
    <linearGradient
       inkscape:collect="always"
       id="linearGradient3018">
      <stop
         style="stop-color:#000000;stop-opacity:1;"
         offset="0"
         id="stop3014" />
      <stop
         style="stop-color:#000000;stop-opacity:0;"
         offset="1"
         id="stop3016" />
    </linearGradient>
    <linearGradient
       inkscape:collect="always"
       id="linearGradient2134">
      <stop
         style="stop-color:#ffffff;stop-opacity:1;"
         offset="0"
         id="stop2130" />
      <stop
         style="stop-color:#b690f8;stop-opacity:0.99607843"
         offset="1"
         id="stop2132" />
    </linearGradient>
    <linearGradient
       inkscape:collect="always"
       id="linearGradient1084">
      <stop
         style="stop-color:#8381c5;stop-opacity:1;"
         offset="0"
         id="stop1080" />
      <stop
         style="stop-color:#7e55b3;stop-opacity:1"
         offset="0.5"
         id="stop1654" />
      <stop
         style="stop-color:#a52ecb;stop-opacity:1"
         offset="1"
         id="stop1082" />
    </linearGradient>
    <linearGradient
       inkscape:collect="always"
       xlink:href="#linearGradient37218"
       id="linearGradient1781"
       x1="2.8346456e-08"
       y1="2.2677165e-07"
       x2="64"
       y2="64"
       gradientUnits="userSpaceOnUse"
       gradientTransform="scale(0.26458333)" />
    <linearGradient
       inkscape:collect="always"
       id="linearGradient37218">
      <stop
         style="stop-color:#ffffff;stop-opacity:1"
         offset="0"
         id="stop37214" />
      <stop
         style="stop-color:#717171;stop-opacity:0.00392157"
         offset="0.49741825"
         id="stop37220" />
      <stop
         style="stop-color:#000000;stop-opacity:1"
         offset="1"
         id="stop37216" />
    </linearGradient>
    <linearGradient
       inkscape:collect="always"
       xlink:href="#linearGradient1084"
       id="linearGradient1086"
       x1="7.4083333"
       y1="6.7529299e-07"
       x2="7.4083328"
       y2="16.933334"
       gradientUnits="userSpaceOnUse" />
    <linearGradient
       inkscape:collect="always"
       xlink:href="#linearGradient2134"
       id="linearGradient2136"
       x1="4.2333331"
       y1="2.6458435"
       x2="4.2393579"
       y2="13.805724"
       gradientUnits="userSpaceOnUse" />
    <linearGradient
       inkscape:collect="always"
       xlink:href="#linearGradient3018"
       id="linearGradient3020"
       x1="12.001011"
       y1="55.901546"
       x2="52.755669"
       y2="13.901546"
       gradientUnits="userSpaceOnUse" />
  </defs>
  <path
     id="rect863"
     style="fill:url(#linearGradient1086);stroke-width:0.264583;fill-opacity:1"
     d="M 3.1750003,1.0583333 H 13.758333 c 1.172634,0 2.116667,0.944034 2.116667,2.116667 V 13.758333 c 0,1.172634 -0.944033,2.116667 -2.116667,2.116667 H 3.1750003 c -1.172633,0 -2.116667,-0.944033 -2.116667,-2.116667 V 3.1750003 c 0,-1.172633 0.944034,-2.116667 2.116667,-2.116667 z" />
  <path
     id="rect1345"
     style="opacity:0.3;fill:url(#linearGradient1781);fill-opacity:1;stroke-width:0.264583"
     d="m 3.1750003,1.0583333 c -1.172633,0 -2.116667,0.944034 -2.116667,2.116667 V 13.758333 c 0,1.172634 0.944034,2.116667 2.116667,2.116667 H 13.758334 c 1.172633,0 2.116666,-0.944033 2.116666,-2.116667 V 3.1750003 c 0,-1.172633 -0.944033,-2.116667 -2.116666,-2.116667 z m 0,0.264584 H 13.758334 c 1.026054,0 1.852083,0.826029 1.852083,1.852083 V 13.758333 c 0,1.026054 -0.826029,1.852084 -1.852083,1.852084 H 3.1750003 c -1.026054,0 -1.852083,-0.82603 -1.852083,-1.852084 V 3.1750003 c 0,-1.026054 0.826029,-1.852083 1.852083,-1.852083 z" />
  <path
     id="path44_12_"
     d="m 9.9683899,3.1755327 c -0.1172638,0.00298 -0.2352486,0.018865 -0.3513961,0.0478 C 8.9184123,3.397322 7.2463618,4.0068687 7.2463618,4.0068687 9.3570066,3.8668549 9.7126238,3.8834012 9.8870006,4.1018231 9.9900514,4.2306367 9.8677854,4.423173 9.31146,4.5501116 8.7051044,4.6890005 7.4401466,4.8860048 7.4401466,4.8860048 6.2225854,5.0308687 5.3619258,5.0859137 5.1437989,5.6650192 5.0022851,6.0432477 5.374335,6.3488786 5.5423493,6.5441554 6.2413057,7.2479619 7.2031264,7.5946745 7.8251319,7.8541395 8.0592341,7.9519628 8.7365657,8.1235001 8.7365657,8.1235001 6.7804225,8.1246246 5.4196756,8.8221824 4.6464182,9.5801145 3.7779601,10.523999 4.2673443,11.560206 6.2238253,12.103836 c 1.1122726,0.266215 1.7522584,0.340524 3.400274,0.217685 0.9871977,-0.112001 1.1457287,-0.08777 1.1614167,-0.0045 0.02278,0.117239 -1.0714717,0.47437 -1.3694124,0.582646 -0.7575693,0.274427 -2.7540145,0.855853 -2.7640143,0.858465 0,0 0.5862726,0.0098 1.3325919,-0.100767 0.3020529,-0.04593 1.448132,-0.229666 2.2976398,-0.473481 0,0 1.036191,-0.293585 1.583221,-0.540012 0.57313,-0.257254 0.880112,-0.466449 1.00445,-0.743489 0.0448,-0.09298 0.09817,-0.38787 -0.313285,-0.514821 -0.651906,-0.191539 -1.45678,-0.102116 -3.0540462,0.0562 C 7.7302695,11.480195 7.1204294,11.208568 6.7896762,10.981178 6.4711856,10.748563 6.5727647,10.0497 7.8160888,9.3682436 8.4411073,9.0071903 10.939897,8.2636716 10.939897,8.2636716 10.052764,7.8761179 8.4013024,7.2002775 8.0615492,7.0531634 7.7632214,6.9247247 7.2869408,6.7324874 7.168202,6.4737475 7.0367759,6.2258328 7.4015122,5.9848851 7.6087394,5.9098343 8.2785704,5.6675194 9.2352201,5.4851682 10.113728,5.420205 c 0.441705,-0.031737 0.511592,-0.065887 0.511592,-0.065887 0.602244,-0.139264 0.972583,-0.59332 0.756406,-1.2654137 -0.16949,-0.5796616 -0.78011,-0.9294719 -1.4133361,-0.9133721 z"
     style="stroke-width:0.330725;fill:url(#linearGradient2136);fill-opacity:1" />
  <path
     id="path44_12_-7"
     style="opacity:0.3;fill:url(#linearGradient3020);fill-opacity:1;stroke-width:1.24998"
     d="M 34.546875 14.802734 C 33.645193 14.79692 32.429901 14.844026 30.810547 14.933594 C 28.93236 15.581563 27.388672 16.144531 27.388672 16.144531 C 34.825915 15.651167 36.496335 15.671628 37.222656 16.345703 C 37.544027 16.045595 37.562175 15.745199 37.369141 15.503906 C 36.998418 15.039546 36.409723 14.814746 34.546875 14.802734 z M 43.21875 17.337891 C 43.007413 18.840488 41.814869 19.853238 40.158203 20.236328 C 40.158203 20.236328 39.894046 20.366377 38.224609 20.486328 C 34.904266 20.731858 31.289457 21.420102 28.757812 22.335938 C 27.974589 22.619594 26.595069 23.529796 27.091797 24.466797 C 27.105227 24.496062 27.120922 24.525872 27.136719 24.554688 C 27.458711 23.989637 28.237982 23.524202 28.757812 23.335938 C 31.289457 22.420102 34.904265 21.731858 38.224609 21.486328 C 39.894046 21.366377 40.158203 21.236328 40.158203 21.236328 C 42.159295 20.773592 43.483178 19.391253 43.21875 17.337891 z M 19.392578 22.558594 C 19.002526 23.920279 20.334182 25.021813 20.947266 25.734375 C 23.588989 28.394431 27.225287 29.704892 29.576172 30.685547 C 29.70117 30.737779 29.863044 30.794729 30.042969 30.855469 C 30.991661 30.757911 31.982347 30.703708 33.019531 30.703125 C 33.019531 30.703125 30.460967 30.05526 29.576172 29.685547 C 27.225287 28.70489 23.588989 27.394431 20.947266 24.734375 C 20.492455 24.205768 19.642098 23.462676 19.392578 22.558594 z M 39.988281 31.646484 C 37.344164 32.459165 31.372284 34.350336 29.541016 35.408203 C 25.805521 37.455599 24.798423 39.543549 25.146484 40.755859 C 25.431033 39.553355 26.692071 37.969688 29.541016 36.408203 C 31.903292 35.043592 41.347656 32.232422 41.347656 32.232422 C 40.933914 32.051674 40.475254 31.854612 39.988281 31.646484 z M 16.035156 40.123047 C 15.67795 42.750142 18.119867 45.244652 23.523438 46.746094 C 27.7273 47.752261 30.146278 48.034586 36.375 47.570312 C 37.915597 47.395526 38.915174 47.30882 39.570312 47.289062 C 40.284776 46.984431 40.794357 46.710657 40.763672 46.552734 C 40.704379 46.238013 40.106136 46.147002 36.375 46.570312 C 30.146278 47.034586 27.7273 46.752261 23.523438 45.746094 C 18.811092 44.436716 16.35062 42.372431 16.035156 40.123047 z M 48.65625 44.947266 C 48.651756 44.957611 48.64706 44.969213 48.642578 44.978516 C 48.172639 46.025596 47.011864 46.814811 44.845703 47.787109 C 42.778188 48.718487 38.863281 49.828125 38.863281 49.828125 C 35.652545 50.749631 31.319352 51.445547 30.177734 51.619141 C 29.930365 51.655788 29.690103 51.686815 29.453125 51.716797 C 27.141139 52.417066 25.161879 52.994958 25.142578 53 C 25.142578 53 27.357001 53.037032 30.177734 52.619141 C 31.319352 52.445547 35.652543 51.749631 38.863281 50.828125 C 38.863281 50.828125 42.778188 49.718487 44.845703 48.787109 C 47.011864 47.814811 48.172639 47.025596 48.642578 45.978516 C 48.735045 45.786605 48.835856 45.366687 48.65625 44.947266 z "
     transform="scale(0.26458333)" />
</svg>
