<?xml version="1.0" encoding="UTF-8" standalone="no"?>
<!-- Created with Inkscape (http://www.inkscape.org/) -->

<svg
   width="64"
   height="64"
   viewBox="0 0 16.933333 16.933333"
   version="1.1"
   id="svg5"
   inkscape:version="1.1.1 (3bf5ae0d25, 2021-09-20, custom)"
   sodipodi:docname="empathy.svg"
   xmlns:inkscape="http://www.inkscape.org/namespaces/inkscape"
   xmlns:sodipodi="http://sodipodi.sourceforge.net/DTD/sodipodi-0.dtd"
   xmlns:xlink="http://www.w3.org/1999/xlink"
   xmlns="http://www.w3.org/2000/svg"
   xmlns:svg="http://www.w3.org/2000/svg">
  <sodipodi:namedview
     id="namedview7"
     pagecolor="#ffffff"
     bordercolor="#666666"
     borderopacity="1.0"
     inkscape:pageshadow="2"
     inkscape:pageopacity="0.0"
     inkscape:pagecheckerboard="0"
     inkscape:document-units="px"
     showgrid="false"
     units="px"
     height="48px"
     inkscape:zoom="8"
     inkscape:cx="4.25"
     inkscape:cy="37.5"
     inkscape:window-width="1920"
     inkscape:window-height="1011"
     inkscape:window-x="0"
     inkscape:window-y="0"
     inkscape:window-maximized="1"
     inkscape:current-layer="svg5"
     inkscape:lockguides="true"
     showguides="false" />
  <defs
     id="defs2">
    <linearGradient
       inkscape:collect="always"
       id="linearGradient9333">
      <stop
         style="stop-color:#ffffff;stop-opacity:1;"
         offset="0"
         id="stop9329" />
      <stop
         style="stop-color:#ffffff;stop-opacity:0;"
         offset="1"
         id="stop9331" />
    </linearGradient>
    <linearGradient
       inkscape:collect="always"
       id="linearGradient8941">
      <stop
         style="stop-color:#000000;stop-opacity:1;"
         offset="0"
         id="stop8937" />
      <stop
         style="stop-color:#000000;stop-opacity:0;"
         offset="1"
         id="stop8939" />
    </linearGradient>
    <linearGradient
       inkscape:collect="always"
       id="linearGradient4421">
      <stop
         style="stop-color:#e89e4d;stop-opacity:1"
         offset="0"
         id="stop4417" />
      <stop
         style="stop-color:#f0db45;stop-opacity:1"
         offset="1"
         id="stop4419" />
    </linearGradient>
    <linearGradient
       inkscape:collect="always"
       id="linearGradient37218">
      <stop
         style="stop-color:#1a1a1a;stop-opacity:1"
         offset="0"
         id="stop37214" />
      <stop
         style="stop-color:#e6e6e6;stop-opacity:0.00306325"
         offset="0.49741825"
         id="stop37220" />
      <stop
         style="stop-color:#ffffff;stop-opacity:1"
         offset="1"
         id="stop37216" />
    </linearGradient>
    <linearGradient
       inkscape:collect="always"
       xlink:href="#linearGradient8941"
       id="linearGradient8943"
       x1="16"
       y1="53.167645"
       x2="48"
       y2="19.167645"
       gradientUnits="userSpaceOnUse"
       gradientTransform="translate(0,1.0000002)" />
    <linearGradient
       inkscape:collect="always"
       xlink:href="#linearGradient9333"
       id="linearGradient9335"
       x1="8.9153872"
       y1="6.8317075"
       x2="8.9153862"
       y2="24.294205"
       gradientUnits="userSpaceOnUse"
       gradientTransform="scale(3.7795276)" />
    <linearGradient
       inkscape:collect="always"
       xlink:href="#linearGradient37218"
       id="linearGradient1781"
       x1="64"
       y1="64"
       x2="4.5354329e-07"
       y2="4.5354329e-07"
       gradientUnits="userSpaceOnUse"
       gradientTransform="scale(0.26458333)" />
    <linearGradient
       inkscape:collect="always"
       xlink:href="#linearGradient4421"
       id="linearGradient1381"
       x1="25.4"
       y1="16.933334"
       x2="25.400002"
       y2="6.7529299e-07"
       gradientUnits="userSpaceOnUse"
       gradientTransform="translate(-16.933333)" />
  </defs>
  <path
     id="rect863"
     style="fill:url(#linearGradient1381);fill-opacity:1;stroke-width:0.264583"
     d="M 3.1749993,1.0583333 H 13.758333 c 1.172634,0 2.116667,0.9440336 2.116667,2.1166668 V 13.758334 c 0,1.172633 -0.944033,2.116667 -2.116667,2.116667 H 3.1749993 c -1.172633,0 -2.116666,-0.944034 -2.116666,-2.116667 V 3.1750001 c 0,-1.1726332 0.944033,-2.1166668 2.116666,-2.1166668 z" />
  <path
     id="rect1345"
     style="opacity:0.3;fill:url(#linearGradient1781);fill-opacity:1;stroke-width:0.264583"
     d="m 3.1750003,1.0583333 c -1.172634,0 -2.116667,0.9440337 -2.116667,2.116667 V 13.758334 c 0,1.172633 0.944033,2.116667 2.116667,2.116667 H 13.758335 c 1.172632,0 2.116666,-0.944034 2.116666,-2.116667 V 3.1750003 c 0,-1.1726333 -0.944034,-2.116667 -2.116666,-2.116667 z m 0,0.2645837 H 13.758335 c 1.026054,0 1.852083,0.8260291 1.852083,1.8520833 V 13.758334 c 0,1.026053 -0.826029,1.852083 -1.852083,1.852083 H 3.1750003 c -1.026055,0 -1.852084,-0.82603 -1.852084,-1.852083 V 3.1750003 c 0,-1.0260542 0.826029,-1.8520833 1.852084,-1.8520833 z" />
  <path
     id="rect849"
     style="fill:url(#linearGradient9335);fill-opacity:1;stroke-width:0.979253"
     d="M 16.666016,17 C 15.188683,17 14,18.188683 14,19.666016 V 38.333984 C 14,39.811319 15.188683,41 16.666016,41 h 4.667968 v 6.664062 c -0.0011,1.411767 1.903176,1.85809 2.527344,0.591797 L 29.310547,41 H 47.333984 C 48.811315,41 50,39.811319 50,38.333984 V 19.666016 C 50,18.188683 48.811315,17 47.333984,17 Z M 20,22 h 24 v 2 H 20 Z m 0,6 h 24 v 2 H 20 Z m 0,6 h 12 v 2 H 20 Z"
     transform="scale(0.26458333)"
     sodipodi:nodetypes="ssssccccsssssccccccccccccccc" />
  <path
     id="rect849-9"
     style="opacity:0.3;fill:url(#linearGradient8943);fill-opacity:1;stroke-width:0.979253"
     d="m 20,22 v 1 h 24 v -1 z m 0,6 v 1 h 24 v -1 z m 0,6 v 1 h 12 v -1 z m -6,4.333984 v 1 C 14,40.811319 15.188683,42 16.666016,42 h 4.667968 V 41 H 16.666016 C 15.188683,41 14,39.811319 14,38.333984 Z m 36,0 C 50,39.811319 48.811319,41 47.333984,41 H 29.310547 l -5.449219,7.255859 c -0.624166,1.266293 -2.528402,0.81997 -2.527344,-0.591797 v 1 c -0.0011,1.411767 1.903178,1.85809 2.527344,0.591797 L 29.310547,42 H 47.333984 C 48.811319,42 50,40.811319 50,39.333984 Z"
     transform="scale(0.26458333)"
     sodipodi:nodetypes="ccccccccccccccccssccsccsccccccssc" />
</svg>
