<?xml version="1.0" encoding="UTF-8" standalone="no"?>
<!-- Created with Inkscape (http://www.inkscape.org/) -->

<svg
   width="64"
   height="64"
   viewBox="0 0 16.933333 16.933333"
   version="1.1"
   id="svg5"
   inkscape:version="1.1.1 (3bf5ae0d25, 2021-09-20, custom)"
   sodipodi:docname="evolution.svg"
   xmlns:inkscape="http://www.inkscape.org/namespaces/inkscape"
   xmlns:sodipodi="http://sodipodi.sourceforge.net/DTD/sodipodi-0.dtd"
   xmlns:xlink="http://www.w3.org/1999/xlink"
   xmlns="http://www.w3.org/2000/svg"
   xmlns:svg="http://www.w3.org/2000/svg">
  <sodipodi:namedview
     id="namedview7"
     pagecolor="#ffffff"
     bordercolor="#666666"
     borderopacity="1.0"
     inkscape:pageshadow="2"
     inkscape:pageopacity="0.0"
     inkscape:pagecheckerboard="0"
     inkscape:document-units="px"
     showgrid="false"
     units="px"
     height="48px"
     inkscape:zoom="1"
     inkscape:cx="32"
     inkscape:cy="22.5"
     inkscape:window-width="1920"
     inkscape:window-height="1019"
     inkscape:window-x="0"
     inkscape:window-y="0"
     inkscape:window-maximized="1"
     inkscape:current-layer="svg5"
     inkscape:lockguides="true" />
  <defs
     id="defs2">
    <linearGradient
       inkscape:collect="always"
       id="linearGradient9776">
      <stop
         style="stop-color:#000000;stop-opacity:1;"
         offset="0"
         id="stop9772" />
      <stop
         style="stop-color:#000000;stop-opacity:0;"
         offset="1"
         id="stop9774" />
    </linearGradient>
    <linearGradient
       inkscape:collect="always"
       id="linearGradient8526">
      <stop
         style="stop-color:#e14141;stop-opacity:1;"
         offset="0"
         id="stop8522" />
      <stop
         style="stop-color:#e24a4a;stop-opacity:1"
         offset="1"
         id="stop8524" />
    </linearGradient>
    <linearGradient
       inkscape:collect="always"
       id="linearGradient7416">
      <stop
         style="stop-color:#3875e2;stop-opacity:1"
         offset="0"
         id="stop7412" />
      <stop
         style="stop-color:#3b9ee3;stop-opacity:1"
         offset="1"
         id="stop7414" />
    </linearGradient>
    <linearGradient
       inkscape:collect="always"
       id="linearGradient1137">
      <stop
         style="stop-color:#e9e8e3;stop-opacity:1"
         offset="0"
         id="stop1133" />
      <stop
         style="stop-color:#fcfcfc;stop-opacity:1"
         offset="1"
         id="stop1135" />
    </linearGradient>
    <linearGradient
       inkscape:collect="always"
       id="linearGradient37218">
      <stop
         style="stop-color:#1a1a1a;stop-opacity:1"
         offset="0"
         id="stop37214" />
      <stop
         style="stop-color:#e6e6e6;stop-opacity:0.00306325"
         offset="0.49741825"
         id="stop37220" />
      <stop
         style="stop-color:#ffffff;stop-opacity:1"
         offset="1"
         id="stop37216" />
    </linearGradient>
    <linearGradient
       inkscape:collect="always"
       xlink:href="#linearGradient37218"
       id="linearGradient881"
       x1="64.208344"
       y1="64.062607"
       x2="0.30528301"
       y2="0.13507102"
       gradientUnits="userSpaceOnUse" />
    <linearGradient
       inkscape:collect="always"
       xlink:href="#linearGradient1137"
       id="linearGradient1141"
       x1="14.287499"
       y1="16.404165"
       x2="14.287499"
       y2="-2.7838135e-07"
       gradientUnits="userSpaceOnUse" />
    <linearGradient
       inkscape:collect="always"
       xlink:href="#linearGradient7416"
       id="linearGradient7418"
       x1="4.2519684e-08"
       y1="64"
       x2="64"
       y2="2.2677165e-07"
       gradientUnits="userSpaceOnUse" />
    <linearGradient
       inkscape:collect="always"
       xlink:href="#linearGradient8526"
       id="linearGradient8528"
       x1="4.2519684e-08"
       y1="64"
       x2="64"
       y2="2.2677165e-07"
       gradientUnits="userSpaceOnUse" />
    <linearGradient
       inkscape:collect="always"
       xlink:href="#linearGradient9776"
       id="linearGradient9778"
       x1="4"
       y1="26"
       x2="58"
       y2="6"
       gradientUnits="userSpaceOnUse" />
  </defs>
  <path
     id="rect846-3"
     style="fill:url(#linearGradient1141);stroke-width:0.337527;fill-opacity:1"
     d="m 3.175,1.5875 h 10.583333 c 0.879475,0 1.5875,0.708025 1.5875,1.5875 v 10.583333 c 0,0.879475 -0.708025,1.5875 -1.5875,1.5875 H 3.175 c -0.879475,0 -1.5875,-0.708025 -1.5875,-1.5875 V 3.175 c 0,-0.879475 0.708025,-1.5875 1.5875,-1.5875 z" />
  <path
     id="rect1589"
     style="fill:#4d4d4d;stroke-width:0.307875;opacity:0.4"
     d="M 3.7041664,4.4979166 8.4666665,8.73125 13.229167,4.4979166 9.9915394,7.9533827 13.229167,12.435416 9.7432884,8.1661691 8.4666664,9.2604171 7.1900444,8.1661692 3.7041667,12.435415 6.9417934,7.9533826 Z"
     sodipodi:nodetypes="ccccccccccc" />
  <path
     id="rect854"
     style="opacity:1;fill:url(#linearGradient7418);fill-opacity:1;stroke-width:1.24859"
     d="M 12 6 C 8.676 6 6 8.676 6 12 L 6 52 C 6 55.324 8.676 58 12 58 L 52 58 C 55.324 58 58 55.324 58 52 L 58 12 C 58 8.676 55.324 6 52 6 L 12 6 z M 13 10 L 51 10 C 52.662 10 54 11.338 54 13 L 54 51 C 54 52.662 52.662 54 51 54 L 13 54 C 11.338 54 10 52.662 10 51 L 10 13 C 10 11.338 11.338 10 13 10 z "
     transform="scale(0.26458333)" />
  <path
     id="rect854-1"
     style="fill:url(#linearGradient9778);fill-opacity:1;stroke-width:1.24859;opacity:0.3"
     d="m 13,10 c -1.662,0 -3,1.338 -3,3 v 1 c 0,-1.662 1.338,-3 3,-3 h 38 c 1.661998,0 3,1.338 3,3 v -1 c 0,-1.662 -1.338002,-3 -3,-3 z"
     transform="scale(0.26458333)"
     sodipodi:nodetypes="sscsscsss" />
  <path
     id="rect2991"
     style="opacity:1;fill:url(#linearGradient8528);fill-opacity:1;stroke-width:1.00032"
     d="M 12 6 C 8.676 6 6 8.676 6 12 L 6 16 L 10.310547 11.689453 C 10.603327 11.08779 11.08779 10.603327 11.689453 10.310547 L 16 6 L 12 6 z M 23 6 L 19 10 L 25.333984 10 L 29.333984 6 L 23 6 z M 38 6 L 34 10 L 40.980469 10 L 44.980469 6 L 38 6 z M 53.460938 6.1855469 L 49.646484 10 L 51 10 C 52.662 10 54 11.338 54 13 L 54 13.666016 L 57.65625 10.009766 C 56.995378 8.121846 55.42457 6.6743179 53.460938 6.1855469 z M 58 18.333984 L 54 22.333984 L 54 30 L 58 26 L 58 18.333984 z M 10 19 L 6 23 L 6 29.333984 L 10 25.333984 L 10 19 z M 10 34 L 6 38 L 6 44.980469 L 10 40.980469 L 10 34 z M 58 34.666016 L 54 38.666016 L 54 45 L 58 41 L 58 34.666016 z M 58 48 L 53.689453 52.310547 C 53.396673 52.91221 52.91221 53.396673 52.310547 53.689453 L 48 58 L 52 58 C 55.324 58 58 55.324 58 52 L 58 48 z M 10 49.646484 L 6.1855469 53.460938 C 6.6743179 55.42457 8.121846 56.995378 10.009766 57.65625 L 13.666016 54 L 13 54 C 11.338 54 10 52.662 10 51 L 10 49.646484 z M 22.333984 54 L 18.333984 58 L 26 58 L 30 54 L 22.333984 54 z M 38.666016 54 L 34.666016 58 L 41 58 L 45 54 L 38.666016 54 z "
     transform="scale(0.26458333)" />
  <path
     id="rect846"
     style="opacity:0.3;fill:url(#linearGradient881);stroke-width:1.27569;fill-opacity:1"
     d="M 12 6 C 8.6760005 6 6 8.6760005 6 12 L 6 52 C 6 55.324 8.6760005 58 12 58 L 52 58 C 55.324 58 58 55.324 58 52 L 58 12 C 58 8.6760005 55.324 6 52 6 L 12 6 z M 12 7 L 52 7 C 54.77 7 57 9.23 57 12 L 57 52 C 57 54.77 54.77 57 52 57 L 12 57 C 9.23 57 7 54.77 7 52 L 7 12 C 7 9.23 9.23 7 12 7 z "
     transform="scale(0.26458333)" />
</svg>
