<?xml version="1.0" encoding="UTF-8" standalone="no"?>
<!-- Created with Inkscape (http://www.inkscape.org/) -->

<svg
   width="64"
   height="64"
   viewBox="0 0 16.933333 16.933333"
   version="1.1"
   id="svg5"
   inkscape:version="1.1.1 (3bf5ae0d25, 2021-09-20, custom)"
   sodipodi:docname="evolution.svg"
   xmlns:inkscape="http://www.inkscape.org/namespaces/inkscape"
   xmlns:sodipodi="http://sodipodi.sourceforge.net/DTD/sodipodi-0.dtd"
   xmlns:xlink="http://www.w3.org/1999/xlink"
   xmlns="http://www.w3.org/2000/svg"
   xmlns:svg="http://www.w3.org/2000/svg">
  <sodipodi:namedview
     id="namedview7"
     pagecolor="#ffffff"
     bordercolor="#666666"
     borderopacity="1.0"
     inkscape:pageshadow="2"
     inkscape:pageopacity="0.0"
     inkscape:pagecheckerboard="0"
     inkscape:document-units="px"
     showgrid="false"
     units="px"
     height="48px"
     inkscape:zoom="8.8277862"
     inkscape:cx="30.925081"
     inkscape:cy="37.89172"
     inkscape:window-width="1920"
     inkscape:window-height="1019"
     inkscape:window-x="0"
     inkscape:window-y="0"
     inkscape:window-maximized="1"
     inkscape:current-layer="svg5"
     inkscape:lockguides="true" />
  <defs
     id="defs2">
    <linearGradient
       inkscape:collect="always"
       id="linearGradient9776">
      <stop
         style="stop-color:#000000;stop-opacity:1;"
         offset="0"
         id="stop9772" />
      <stop
         style="stop-color:#000000;stop-opacity:0;"
         offset="1"
         id="stop9774" />
    </linearGradient>
    <linearGradient
       inkscape:collect="always"
       id="linearGradient8526">
      <stop
         style="stop-color:#b71d1d;stop-opacity:1"
         offset="0"
         id="stop8522" />
      <stop
         style="stop-color:#ec5c5c;stop-opacity:1"
         offset="1"
         id="stop8524" />
    </linearGradient>
    <linearGradient
       inkscape:collect="always"
       id="linearGradient7416">
      <stop
         style="stop-color:#3875e2;stop-opacity:1"
         offset="0"
         id="stop7412" />
      <stop
         style="stop-color:#3b9ee3;stop-opacity:1"
         offset="1"
         id="stop7414" />
    </linearGradient>
    <linearGradient
       inkscape:collect="always"
       id="linearGradient1137">
      <stop
         style="stop-color:#e9e8e3;stop-opacity:1"
         offset="0"
         id="stop1133" />
      <stop
         style="stop-color:#fcfcfc;stop-opacity:1"
         offset="1"
         id="stop1135" />
    </linearGradient>
    <linearGradient
       inkscape:collect="always"
       id="linearGradient37218">
      <stop
         style="stop-color:#1a1a1a;stop-opacity:1"
         offset="0"
         id="stop37214" />
      <stop
         style="stop-color:#e6e6e6;stop-opacity:0.00306325"
         offset="0.49741825"
         id="stop37220" />
      <stop
         style="stop-color:#ffffff;stop-opacity:1"
         offset="1"
         id="stop37216" />
    </linearGradient>
    <linearGradient
       inkscape:collect="always"
       xlink:href="#linearGradient37218"
       id="linearGradient881"
       x1="64.208344"
       y1="64.062607"
       x2="0.30528301"
       y2="0.13507102"
       gradientUnits="userSpaceOnUse" />
    <linearGradient
       inkscape:collect="always"
       xlink:href="#linearGradient1137"
       id="linearGradient1141"
       x1="14.287499"
       y1="16.404165"
       x2="14.287499"
       y2="-2.7838135e-07"
       gradientUnits="userSpaceOnUse" />
    <linearGradient
       inkscape:collect="always"
       xlink:href="#linearGradient8526"
       id="linearGradient8528"
       x1="4.2519684e-08"
       y1="64"
       x2="64"
       y2="2.2677165e-07"
       gradientUnits="userSpaceOnUse" />
    <linearGradient
       inkscape:collect="always"
       xlink:href="#linearGradient9776"
       id="linearGradient9778"
       x1="4"
       y1="26"
       x2="58"
       y2="6"
       gradientUnits="userSpaceOnUse" />
    <linearGradient
       inkscape:collect="always"
       xlink:href="#linearGradient7416"
       id="linearGradient1005"
       gradientUnits="userSpaceOnUse"
       x1="4.2519684e-08"
       y1="64"
       x2="64"
       y2="2.2677165e-07"
       gradientTransform="matrix(0.26458333,0,0,0.26458333,1.5874998,1.5875)" />
  </defs>
  <path
     id="rect846-3"
     style="fill:url(#linearGradient1141);stroke-width:0.337527;fill-opacity:1"
     d="m 3.175,1.5875 h 10.583333 c 0.879475,0 1.5875,0.708025 1.5875,1.5875 v 10.583333 c 0,0.879475 -0.708025,1.5875 -1.5875,1.5875 H 3.175 c -0.879475,0 -1.5875,-0.708025 -1.5875,-1.5875 V 3.175 c 0,-0.879475 0.708025,-1.5875 1.5875,-1.5875 z" />
  <path
     id="rect1589"
     style="fill:#808080;stroke-width:0.307875;opacity:1"
     d="M 3.7041664,4.4979166 8.4666665,8.73125 13.229167,4.4979166 9.9915394,7.9533827 13.229167,12.435416 9.7432884,8.1661691 8.4666664,9.2604171 7.1900444,8.1661692 3.7041667,12.435415 6.9417934,7.9533826 Z"
     sodipodi:nodetypes="ccccccccccc" />
  <path
     id="rect854-1"
     style="opacity:0.3;fill:url(#linearGradient9778);fill-opacity:1;stroke-width:1.24859"
     d="M 19 10 L 18 11 L 24.333984 11 L 25.333984 10 L 19 10 z M 34 10 L 33 11 L 39.980469 11 L 40.980469 10 L 34 10 z M 49.646484 10 L 48.646484 11 L 51 11 C 52.661998 11 54 12.338 54 14 L 54 13 C 54 11.338 52.661998 10 51 10 L 49.646484 10 z M 11.705078 10.294922 C 11.088085 10.589691 10.589691 11.088085 10.294922 11.705078 L 11.705078 10.294922 z "
     transform="scale(0.26458333)" />
  <path
     id="rect2991"
     style="opacity:1;fill:url(#linearGradient8528);fill-opacity:1;stroke-width:1.00032"
     d="M 12,6 C 8.676,6 6,8.676 6,12 v 4 l 4.310547,-4.310547 c 0.29278,-0.601663 0.777243,-1.086126 1.378906,-1.378906 L 16,6 Z m 26,0 -4,4 h 6.980469 l 4,-4 z m 20,12.333984 -4,4 V 30 l 4,-4 z M 10,34 6,38 v 6.980469 l 4,-4 z m 48,14 -4.310547,4.310547 c -0.29278,0.601663 -0.777243,1.086126 -1.378906,1.378906 L 48,58 h 4 c 3.324,0 6,-2.676 6,-6 z m -35.666016,6 -4,4 H 26 l 4,-4 z"
     sodipodi:nodetypes="ssccccscccccccccccccccccccsscccccc"
     transform="scale(0.26458333)" />
  <path
     d="M 6.0854164,1.5875 5.0270831,2.6458333 H 6.7029496 L 7.7612829,1.5875 Z m 8.0594566,0.049093 -1.009241,1.0092407 h 0.358118 c 0.439737,0 0.79375,0.3540125 0.79375,0.79375 V 3.6158004 L 15.254883,2.6484176 C 15.080027,2.1489051 14.664417,1.7659133 14.144873,1.636593 Z M 2.6458331,5.0270833 1.5874998,6.0854166 V 7.7612831 L 2.6458331,6.7029498 Z M 15.345833,9.1720499 14.2875,10.230383 v 1.675867 l 1.058333,-1.058333 z M 2.6458331,13.135632 1.6365924,14.144873 c 0.1293207,0.519544 0.5123125,0.935154 1.0118246,1.11001 L 3.6157998,14.2875 H 3.4395831 c -0.4397375,0 -0.79375,-0.354013 -0.79375,-0.79375 z M 10.230383,14.2875 9.1720497,15.345833 H 10.847916 L 11.90625,14.2875 Z"
     style="opacity:1;fill:url(#linearGradient1005);fill-opacity:1.0;stroke-width:0.264668"
     id="path910" />
  <path
     id="rect846"
     style="opacity:0.3;fill:url(#linearGradient881);stroke-width:1.27569;fill-opacity:1"
     d="M 12 6 C 8.6760005 6 6 8.6760005 6 12 L 6 52 C 6 55.324 8.6760005 58 12 58 L 52 58 C 55.324 58 58 55.324 58 52 L 58 12 C 58 8.6760005 55.324 6 52 6 L 12 6 z M 12 7 L 52 7 C 54.77 7 57 9.23 57 12 L 57 52 C 57 54.77 54.77 57 52 57 L 12 57 C 9.23 57 7 54.77 7 52 L 7 12 C 7 9.23 9.23 7 12 7 z "
     transform="scale(0.26458333)" />
</svg>
