<?xml version="1.0" encoding="UTF-8" standalone="no"?>
<svg
   version="1.1"
   viewBox="0 0 64 64"
   id="svg15"
   sodipodi:docname="fbmessenger.svg"
   width="64"
   height="64"
   inkscape:version="1.1.1 (3bf5ae0d25, 2021-09-20, custom)"
   xmlns:inkscape="http://www.inkscape.org/namespaces/inkscape"
   xmlns:sodipodi="http://sodipodi.sourceforge.net/DTD/sodipodi-0.dtd"
   xmlns:xlink="http://www.w3.org/1999/xlink"
   xmlns="http://www.w3.org/2000/svg"
   xmlns:svg="http://www.w3.org/2000/svg">
  <defs
     id="defs19">
    <linearGradient
       inkscape:collect="always"
       id="linearGradient37218">
      <stop
         style="stop-color:#1a1a1a;stop-opacity:1"
         offset="0"
         id="stop37214" />
      <stop
         style="stop-color:#cccccc;stop-opacity:0"
         offset="0.49741825"
         id="stop37220" />
      <stop
         style="stop-color:#1a1a1a;stop-opacity:1"
         offset="1"
         id="stop37216" />
    </linearGradient>
    <linearGradient
       inkscape:collect="always"
       xlink:href="#linearGradient37218"
       id="linearGradient881"
       x1="64.208344"
       y1="64.062607"
       x2="0.30528301"
       y2="0.13507102"
       gradientUnits="userSpaceOnUse" />
  </defs>
  <sodipodi:namedview
     id="namedview17"
     pagecolor="#ffffff"
     bordercolor="#666666"
     borderopacity="1.0"
     inkscape:pageshadow="2"
     inkscape:pageopacity="0.0"
     inkscape:pagecheckerboard="0"
     showgrid="false"
     inkscape:zoom="12.59375"
     inkscape:cx="32"
     inkscape:cy="32"
     inkscape:window-width="1920"
     inkscape:window-height="1011"
     inkscape:window-x="0"
     inkscape:window-y="0"
     inkscape:window-maximized="1"
     inkscape:current-layer="svg15" />
  <radialGradient
     id="Gradient"
     cx="101.925"
     cy="809.00787"
     r="1.0896"
     gradientTransform="matrix(36,0,0,-35.999932,-3648.37,29174.034)"
     gradientUnits="userSpaceOnUse">
    <stop
       offset="0"
       style="stop-color:#0099FF"
       id="stop2" />
    <stop
       offset="0.6098"
       style="stop-color:#A033FF"
       id="stop4" />
    <stop
       offset="0.9348"
       style="stop-color:#FF5280"
       id="stop6" />
    <stop
       offset="1"
       style="stop-color:#FF7061"
       id="stop8" />
  </radialGradient>
  <path
     id="rect846-3"
     style="fill:#ffffff;fill-opacity:1;stroke-width:1.27569"
     d="m 12,6.0000001 h 39.999999 c 3.324,0 6,2.676 6,5.9999999 v 39.999999 c 0,3.324 -2.676,6 -6,6 H 12 c -3.3239999,0 -5.9999999,-2.676 -5.9999999,-6 V 12 c 0,-3.3239999 2.676,-5.9999999 5.9999999,-5.9999999 z" />
  <path
     id="rect846"
     style="opacity:0.3;fill:url(#linearGradient881);fill-opacity:1;stroke-width:1.27569"
     d="M 12,6 C 8.6760005,6 6,8.6760005 6,12 v 40 c 0,3.324 2.6760005,6 6,6 h 40 c 3.324,0 6,-2.676 6,-6 V 12 C 58,8.6760005 55.324,6 52,6 Z m 0,1 h 40 c 2.77,0 5,2.23 5,5 v 40 c 0,2.77 -2.23,5 -5,5 H 12 C 9.23,57 7,54.77 7,52 V 12 C 7,9.23 9.23,7 12,7 Z" />
  <path
     fill="url(#Gradient)"
     d="m 32,14 c -10.1385,0 -18,7.4295 -18,17.46 0,5.247 2.151,9.783 5.652,12.915 0.2925,0.261 0.4725,0.63 0.4815,1.026 l 0.099,3.204 c 0.0315,1.0215 1.0845,1.6875 2.0205,1.2735 l 3.573,-1.575 c 0.3015,-0.135 0.6435,-0.1575 0.963,-0.072 1.6425,0.45 3.3885,0.693 5.211,0.693 10.1385,0 18,-7.4295 18,-17.46 C 50,21.434 42.1385,14 32,14 Z"
     id="path11"
     style="fill:url(#Gradient);stroke-width:0.045" />
  <path
     fill="#ffffff"
     d="m 21.191,36.5675 5.2875,-8.388 c 0.8415,-1.3365 2.6415,-1.665 3.906,-0.72 l 4.2075,3.1545 c 0.387,0.288 0.918,0.288 1.3005,-0.0045 l 5.679,-4.311 c 0.756,-0.576 1.746,0.333 1.242,1.1385 l -5.292,8.3835 c -0.8415,1.3365 -2.6415,1.665 -3.906,0.72 L 29.408,33.386 c -0.387,-0.288 -0.918,-0.288 -1.3005,0.0045 l -5.679,4.311 c -0.756,0.576 -1.746,-0.3285 -1.2375,-1.134 z"
     id="path13"
     style="stroke-width:0.045" />
</svg>
