<?xml version="1.0" encoding="UTF-8" standalone="no"?>
<!-- This Source Code Form is subject to the terms of the Mozilla Public
   - License, v. 2.0. If a copy of the MPL was not distributed with this
   - file, You can obtain one at http://mozilla.org/MPL/2.0/. -->

<svg
   width="64"
   height="64"
   version="1.1"
   viewBox="0 0 64.000001 63.999999"
   id="svg174"
   sodipodi:docname="firefox.svg"
   inkscape:version="1.1.1 (3bf5ae0d25, 2021-09-20, custom)"
   xmlns:inkscape="http://www.inkscape.org/namespaces/inkscape"
   xmlns:sodipodi="http://sodipodi.sourceforge.net/DTD/sodipodi-0.dtd"
   xmlns:xlink="http://www.w3.org/1999/xlink"
   xmlns="http://www.w3.org/2000/svg"
   xmlns:svg="http://www.w3.org/2000/svg"
   xmlns:rdf="http://www.w3.org/1999/02/22-rdf-syntax-ns#"
   xmlns:cc="http://creativecommons.org/ns#"
   xmlns:dc="http://purl.org/dc/elements/1.1/">
  <sodipodi:namedview
     id="namedview176"
     pagecolor="#ffffff"
     bordercolor="#666666"
     borderopacity="1.0"
     inkscape:pageshadow="2"
     inkscape:pageopacity="0.0"
     inkscape:pagecheckerboard="0"
     showgrid="false"
     inkscape:zoom="3.9389771"
     inkscape:cx="-9.1394287"
     inkscape:cy="50.774604"
     inkscape:window-width="1920"
     inkscape:window-height="1011"
     inkscape:window-x="0"
     inkscape:window-y="0"
     inkscape:window-maximized="1"
     inkscape:current-layer="svg174" />
  <defs
     id="defs148">
    <linearGradient
       id="a"
       x1="70.790001"
       x2="6.447"
       y1="12.39"
       y2="74.470001"
       gradientTransform="matrix(0.47525278,0,0,0.47525278,12.38027,13.006566)"
       gradientUnits="userSpaceOnUse">
      <stop
         stop-color="#fff44f"
         offset=".048"
         id="stop4" />
      <stop
         stop-color="#ffe847"
         offset=".111"
         id="stop6" />
      <stop
         stop-color="#ffc830"
         offset=".225"
         id="stop8" />
      <stop
         stop-color="#ff980e"
         offset=".368"
         id="stop10" />
      <stop
         stop-color="#ff8b16"
         offset=".401"
         id="stop12" />
      <stop
         stop-color="#ff672a"
         offset=".462"
         id="stop14" />
      <stop
         stop-color="#ff3647"
         offset=".534"
         id="stop16" />
      <stop
         stop-color="#e31587"
         offset=".705"
         id="stop18" />
    </linearGradient>
    <radialGradient
       id="b"
       cx="-7907"
       cy="-8515"
       r="80.800003"
       gradientTransform="matrix(0.47525278,0,0,0.47525278,3802.6638,4064.0632)"
       gradientUnits="userSpaceOnUse">
      <stop
         stop-color="#ffbd4f"
         offset=".129"
         id="stop21" />
      <stop
         stop-color="#ffac31"
         offset=".186"
         id="stop23" />
      <stop
         stop-color="#ff9d17"
         offset=".247"
         id="stop25" />
      <stop
         stop-color="#ff980e"
         offset=".283"
         id="stop27" />
      <stop
         stop-color="#ff563b"
         offset=".403"
         id="stop29" />
      <stop
         stop-color="#ff3750"
         offset=".467"
         id="stop31" />
      <stop
         stop-color="#f5156c"
         offset=".71"
         id="stop33" />
      <stop
         stop-color="#eb0878"
         offset=".782"
         id="stop35" />
      <stop
         stop-color="#e50080"
         offset=".86"
         id="stop37" />
    </radialGradient>
    <radialGradient
       id="c"
       cx="-7937"
       cy="-8482"
       r="80.800003"
       gradientTransform="matrix(0.47525278,0,0,0.47525278,3802.6638,4064.0632)"
       gradientUnits="userSpaceOnUse">
      <stop
         stop-color="#960e18"
         offset=".3"
         id="stop40" />
      <stop
         stop-color="#b11927"
         stop-opacity=".74"
         offset=".351"
         id="stop42" />
      <stop
         stop-color="#db293d"
         stop-opacity=".343"
         offset=".435"
         id="stop44" />
      <stop
         stop-color="#f5334b"
         stop-opacity=".094"
         offset=".497"
         id="stop46" />
      <stop
         stop-color="#ff3750"
         stop-opacity="0"
         offset=".53"
         id="stop48" />
    </radialGradient>
    <radialGradient
       id="d"
       cx="-7927"
       cy="-8533"
       r="58.529999"
       gradientTransform="matrix(0.47525278,0,0,0.47525278,3802.6638,4064.0632)"
       gradientUnits="userSpaceOnUse">
      <stop
         stop-color="#fff44f"
         offset=".132"
         id="stop51" />
      <stop
         stop-color="#ffdc3e"
         offset=".252"
         id="stop53" />
      <stop
         stop-color="#ff9d12"
         offset=".506"
         id="stop55" />
      <stop
         stop-color="#ff980e"
         offset=".526"
         id="stop57" />
    </radialGradient>
    <radialGradient
       id="e"
       cx="-7946"
       cy="-8461"
       r="38.470001"
       gradientTransform="matrix(0.47525278,0,0,0.47525278,3802.6638,4064.0632)"
       gradientUnits="userSpaceOnUse">
      <stop
         stop-color="#3a8ee6"
         offset=".353"
         id="stop60" />
      <stop
         stop-color="#5c79f0"
         offset=".472"
         id="stop62" />
      <stop
         stop-color="#9059ff"
         offset=".669"
         id="stop64" />
      <stop
         stop-color="#c139e6"
         offset="1"
         id="stop66" />
    </radialGradient>
    <radialGradient
       id="f"
       cx="-7936"
       cy="-8492"
       r="20.4"
       gradientTransform="matrix(0.4619457,-0.1116844,0.13069451,0.54083766,4808.2986,3736.1387)"
       gradientUnits="userSpaceOnUse">
      <stop
         stop-color="#9059ff"
         stop-opacity="0"
         offset=".206"
         id="stop69" />
      <stop
         stop-color="#8c4ff3"
         stop-opacity=".064"
         offset=".278"
         id="stop71" />
      <stop
         stop-color="#7716a8"
         stop-opacity=".45"
         offset=".747"
         id="stop73" />
      <stop
         stop-color="#6e008b"
         stop-opacity=".6"
         offset=".975"
         id="stop75" />
    </radialGradient>
    <radialGradient
       id="g"
       cx="-7938"
       cy="-8518"
       r="27.68"
       gradientTransform="matrix(0.47525278,0,0,0.47525278,3802.6638,4064.0632)"
       gradientUnits="userSpaceOnUse">
      <stop
         stop-color="#ffe226"
         offset="0"
         id="stop78" />
      <stop
         stop-color="#ffdb27"
         offset=".121"
         id="stop80" />
      <stop
         stop-color="#ffc82a"
         offset=".295"
         id="stop82" />
      <stop
         stop-color="#ffa930"
         offset=".502"
         id="stop84" />
      <stop
         stop-color="#ff7e37"
         offset=".732"
         id="stop86" />
      <stop
         stop-color="#ff7139"
         offset=".792"
         id="stop88" />
    </radialGradient>
    <radialGradient
       id="h"
       cx="-7916"
       cy="-8536"
       r="118.1"
       gradientTransform="matrix(0.47525278,0,0,0.47525278,3802.6638,4064.0632)"
       gradientUnits="userSpaceOnUse">
      <stop
         stop-color="#fff44f"
         offset=".113"
         id="stop91" />
      <stop
         stop-color="#ff980e"
         offset=".456"
         id="stop93" />
      <stop
         stop-color="#ff5634"
         offset=".622"
         id="stop95" />
      <stop
         stop-color="#ff3647"
         offset=".716"
         id="stop97" />
      <stop
         stop-color="#e31587"
         offset=".904"
         id="stop99" />
    </radialGradient>
    <radialGradient
       id="i"
       cx="-7927"
       cy="-8523"
       r="86.5"
       gradientTransform="matrix(0.04990154,0.47287651,-0.31034006,0.03279244,-2213.5612,4038.3995)"
       gradientUnits="userSpaceOnUse">
      <stop
         stop-color="#fff44f"
         offset="0"
         id="stop102" />
      <stop
         stop-color="#ffe847"
         offset=".06"
         id="stop104" />
      <stop
         stop-color="#ffc830"
         offset=".168"
         id="stop106" />
      <stop
         stop-color="#ff980e"
         offset=".304"
         id="stop108" />
      <stop
         stop-color="#ff8b16"
         offset=".356"
         id="stop110" />
      <stop
         stop-color="#ff672a"
         offset=".455"
         id="stop112" />
      <stop
         stop-color="#ff3647"
         offset=".57"
         id="stop114" />
      <stop
         stop-color="#e31587"
         offset=".737"
         id="stop116" />
    </radialGradient>
    <radialGradient
       id="j"
       cx="-7938"
       cy="-8508"
       r="73.720001"
       gradientTransform="matrix(0.47525278,0,0,0.47525278,3802.6638,4064.0632)"
       gradientUnits="userSpaceOnUse">
      <stop
         stop-color="#fff44f"
         offset=".137"
         id="stop119" />
      <stop
         stop-color="#ff980e"
         offset=".48"
         id="stop121" />
      <stop
         stop-color="#ff5634"
         offset=".592"
         id="stop123" />
      <stop
         stop-color="#ff3647"
         offset=".655"
         id="stop125" />
      <stop
         stop-color="#e31587"
         offset=".904"
         id="stop127" />
    </radialGradient>
    <radialGradient
       id="k"
       cx="-7919"
       cy="-8504"
       r="80.690002"
       gradientTransform="matrix(0.47525278,0,0,0.47525278,3802.6638,4064.0632)"
       gradientUnits="userSpaceOnUse">
      <stop
         stop-color="#fff44f"
         offset=".094"
         id="stop130" />
      <stop
         stop-color="#ffe141"
         offset=".231"
         id="stop132" />
      <stop
         stop-color="#ffaf1e"
         offset=".509"
         id="stop134" />
      <stop
         stop-color="#ff980e"
         offset=".626"
         id="stop136" />
    </radialGradient>
    <linearGradient
       id="l"
       x1="70.010002"
       x2="15.27"
       y1="12.06"
       y2="66.809998"
       gradientTransform="matrix(0.47525278,0,0,0.47525278,12.38027,13.006566)"
       gradientUnits="userSpaceOnUse">
      <stop
         stop-color="#fff44f"
         stop-opacity=".8"
         offset=".167"
         id="stop139" />
      <stop
         stop-color="#fff44f"
         stop-opacity=".634"
         offset=".266"
         id="stop141" />
      <stop
         stop-color="#fff44f"
         stop-opacity=".217"
         offset=".489"
         id="stop143" />
      <stop
         stop-color="#fff44f"
         stop-opacity="0"
         offset=".6"
         id="stop145" />
    </linearGradient>
    <linearGradient
       inkscape:collect="always"
       xlink:href="#linearGradient3973"
       id="linearGradient3975"
       x1="17.219175"
       y1="17.244844"
       x2="-2.0654296e-07"
       y2="-0.52916694"
       gradientUnits="userSpaceOnUse"
       gradientTransform="scale(3.7795276)" />
    <linearGradient
       inkscape:collect="always"
       id="linearGradient3973">
      <stop
         style="stop-color:#220045;stop-opacity:1;"
         offset="0"
         id="stop3969" />
      <stop
         style="stop-color:#381648;stop-opacity:1"
         offset="1"
         id="stop3971" />
    </linearGradient>
    <linearGradient
       inkscape:collect="always"
       xlink:href="#linearGradient37218"
       id="linearGradient881"
       x1="64.208344"
       y1="64.062607"
       x2="0.30528301"
       y2="0.13507102"
       gradientUnits="userSpaceOnUse" />
    <linearGradient
       inkscape:collect="always"
       id="linearGradient37218">
      <stop
         style="stop-color:#1a1a1a;stop-opacity:1"
         offset="0"
         id="stop37214" />
      <stop
         style="stop-color:#e6e6e6;stop-opacity:0.00306325"
         offset="0.49741825"
         id="stop37220" />
      <stop
         style="stop-color:#ffffff;stop-opacity:1"
         offset="1"
         id="stop37216" />
    </linearGradient>
  </defs>
  <path
     id="rect846-3"
     style="fill:url(#linearGradient3975);fill-opacity:1;stroke-width:1.27569"
     d="m 12,6 h 39.999999 c 3.324,0 6,2.676 6,6 v 40 c 0,3.324 -2.676,6 -6,6 H 12 C 8.676,58 6,55.324 6,52 V 12 C 6,8.676 8.676,6 12,6 Z" />
  <path
     id="rect846"
     style="opacity:0.3;fill:url(#linearGradient881);fill-opacity:1;stroke-width:1.27569"
     d="M 12,6 C 8.676001,6 6,8.676 6,12 v 40 c 0,3.324 2.676001,6 6,6 h 40 c 3.324,0 6,-2.676 6,-6 V 12 C 58,8.676 55.324,6 52,6 Z m 0,1 h 40 c 2.77,0 5,2.23 5,5 v 40 c 0,2.77 -2.23,5 -5,5 H 12 C 9.23,57 7,54.77 7,52 V 12 C 7,9.23 9.23,7 12,7 Z" />
  <path
     d="m 48.461462,25.75954 c -0.800326,-1.925724 -2.423789,-4.004955 -3.695091,-4.662229 a 19.13843,19.13843 0 0 1 1.865367,5.588971 l 0.0033,0.0309 C 44.552507,21.527414 41.022329,19.43155 38.137545,14.873875 37.991642,14.643378 37.84574,14.412405 37.70364,14.1686 37.622368,14.029351 37.557262,13.903884 37.500707,13.788399 a 3.3519578,3.3519578 0 0 1 -0.274697,-0.729514 0.04752528,0.04752528 0 0 0 -0.04182,-0.04752 0.06558488,0.06558488 0 0 0 -0.03469,0 c -0.0024,0 -0.0062,0.0043 -0.0091,0.0053 -0.0029,9.51e-4 -0.0091,0.0053 -0.0133,0.0071 l 0.0071,-0.01236 c -4.626539,2.708936 -6.19725,7.722853 -6.339825,10.232188 a 9.2151512,9.2151512 0 0 0 -5.070948,1.953764 5.5081797,5.5081797 0 0 0 -0.475252,-0.360241 8.5402925,8.5402925 0 0 1 -0.0518,-4.502069 13.639754,13.639754 0 0 0 -4.433634,3.426572 h -0.0085 C 20.024206,22.836246 20.075534,19.785124 20.117356,19.14781 a 3.2925512,3.2925512 0 0 0 -0.614977,0.326498 13.411634,13.411634 0 0 0 -1.800258,1.542196 16.082554,16.082554 0 0 0 -1.721841,2.065924 v 0.0029 -0.0033 a 15.555023,15.555023 0 0 0 -2.471314,5.579451 l -0.02471,0.121665 c -0.03469,0.162062 -0.159686,0.973794 -0.181072,1.150112 0,0.01379 -0.0029,0.02662 -0.0043,0.04039 A 17.555838,17.555838 0 0 0 13,32.512882 v 0.09505 a 18.420797,18.420797 0 0 0 36.570702,3.114806 c 0.0309,-0.237626 0.05608,-0.472876 0.08364,-0.712879 A 18.943576,18.943576 0 0 0 48.45956,25.756688 Z M 27.231919,40.178709 c 0.08602,0.04135 0.166814,0.08602 0.255211,0.125468 l 0.01283,0.008 q -0.134021,-0.06416 -0.268044,-0.133545 z m 4.219294,-11.11141 m 15.184328,-2.344897 v -0.01758 l 0.0033,0.01949 z"
     style="fill:url(#a);stroke-width:0.475253"
     id="path150" />
  <path
     d="m 48.461462,25.75954 c -0.800326,-1.925724 -2.423789,-4.004955 -3.695091,-4.662229 a 19.13843,19.13843 0 0 1 1.865367,5.588971 v 0.01758 l 0.0033,0.01949 A 16.681373,16.681373 0 0 1 46.06191,39.155966 C 43.950837,43.6856 38.842821,48.328344 30.844316,48.100222 22.204221,47.855468 14.590671,41.441931 13.169665,33.044215 c -0.259012,-1.32453 0,-1.996061 0.13022,-3.07251 a 13.725301,13.725301 0 0 0 -0.296082,2.541652 v 0.09505 a 18.420797,18.420797 0 0 0 36.5707,3.114811 c 0.0309,-0.237627 0.05608,-0.472877 0.08364,-0.712879 a 18.943576,18.943576 0 0 0 -1.194786,-9.253172 z"
     style="fill:url(#b);stroke-width:0.475253"
     id="path152" />
  <path
     d="m 48.461462,25.75954 c -0.800326,-1.925724 -2.423789,-4.004955 -3.695091,-4.662229 a 19.13843,19.13843 0 0 1 1.865367,5.588971 v 0.01758 l 0.0033,0.01949 A 16.681373,16.681373 0 0 1 46.06191,39.155966 C 43.950837,43.6856 38.842821,48.328344 30.844316,48.100222 22.204221,47.855468 14.590671,41.441931 13.169665,33.044215 c -0.259012,-1.32453 0,-1.996061 0.13022,-3.07251 a 13.725301,13.725301 0 0 0 -0.296082,2.541652 v 0.09505 a 18.420797,18.420797 0 0 0 36.5707,3.114811 c 0.0309,-0.237627 0.05608,-0.472877 0.08364,-0.712879 a 18.943576,18.943576 0 0 0 -1.194786,-9.253172 z"
     style="fill:url(#c);stroke-width:0.475253"
     id="path154" />
  <path
     d="m 39.507699,27.92194 c 0.03992,0.02804 0.07699,0.05608 0.114537,0.08412 A 10.027834,10.027834 0 0 0 37.911325,25.774748 C 32.184529,20.047953 36.410952,13.361145 37.123356,13.018964 l 0.0071,-0.01046 c -4.626586,2.70894 -6.197297,7.722858 -6.339873,10.232192 0.214815,-0.01473 0.427728,-0.03279 0.647295,-0.03279 a 9.2959445,9.2959445 0 0 1 8.069792,4.713081 z"
     style="fill:url(#d);stroke-width:0.475253"
     id="path156" />
  <path
     d="m 31.447412,29.067299 c -0.03041,0.458144 -1.649128,2.03836 -2.215153,2.03836 -5.237287,0 -6.087988,3.16851 -6.087988,3.16851 0.231923,2.668069 2.091112,4.866589 4.338582,6.026205 0.102659,0.05323 0.206735,0.101233 0.310816,0.148279 q 0.270419,0.119763 0.540838,0.221468 a 8.193358,8.193358 0 0 0 2.396699,0.462421 c 9.181884,0.430579 10.95933,-10.978339 4.33383,-14.290851 a 6.3588822,6.3588822 0 0 1 4.441237,1.078348 9.2959445,9.2959445 0 0 0 -8.069792,-4.713081 c -0.218617,0 -0.43248,0.01806 -0.647295,0.03279 a 9.2151512,9.2151512 0 0 0 -5.070946,1.953763 c 0.280873,0.237627 0.597867,0.555096 1.265598,1.213321 1.249915,1.23138 4.455495,2.506958 4.462624,2.656663 z"
     style="fill:url(#e);stroke-width:0.475253"
     id="path158" />
  <path
     d="m 31.447412,29.067299 c -0.03041,0.458144 -1.649128,2.03836 -2.215153,2.03836 -5.237287,0 -6.087988,3.16851 -6.087988,3.16851 0.231923,2.668069 2.091112,4.866589 4.338582,6.026205 0.102659,0.05323 0.206735,0.101233 0.310816,0.148279 q 0.270419,0.119763 0.540838,0.221468 a 8.193358,8.193358 0 0 0 2.396699,0.462421 c 9.181884,0.430579 10.95933,-10.978339 4.33383,-14.290851 a 6.3588822,6.3588822 0 0 1 4.441237,1.078348 9.2959445,9.2959445 0 0 0 -8.069792,-4.713081 c -0.218617,0 -0.43248,0.01806 -0.647295,0.03279 a 9.2151512,9.2151512 0 0 0 -5.070946,1.953763 c 0.280873,0.237627 0.597867,0.555096 1.265598,1.213321 1.249915,1.23138 4.455495,2.506958 4.462624,2.656663 z"
     style="fill:url(#f);stroke-width:0.475253"
     id="path160" />
  <path
     d="m 24.860408,24.585666 c 0.149229,0.09505 0.27232,0.177745 0.380203,0.252359 a 8.5402925,8.5402925 0 0 1 -0.0518,-4.50207 13.639754,13.639754 0 0 0 -4.433633,3.426573 c 0.08983,-0.0024 2.761693,-0.05037 4.105234,0.823138 z"
     style="fill:url(#g);stroke-width:0.475253"
     id="path162" />
  <path
     d="m 13.166339,33.045166 c 1.421481,8.397716 9.034554,14.813628 17.674651,15.056007 7.998503,0.226221 13.107471,-4.416999 15.217594,-8.944258 a 16.681373,16.681373 0 0 0 0.573154,-12.432612 v -0.01758 c 0,-0.01379 -0.0029,-0.02186 0,-0.01758 l 0.0033,0.0309 c 0.653472,4.266344 -1.516532,8.397717 -4.909362,11.196956 l -0.01046,0.02377 c -6.610766,5.384612 -12.936381,3.247877 -14.214812,2.376263 q -0.13402,-0.06416 -0.268042,-0.133546 c -3.853855,-1.842095 -5.446426,-5.351361 -5.104244,-8.364464 a 4.730191,4.730191 0 0 1 -4.363296,-2.744586 6.9481956,6.9481956 0 0 1 6.772352,-0.271843 9.172379,9.172379 0 0 0 6.914928,0.271843 c -0.0071,-0.149704 -3.212709,-1.425758 -4.462623,-2.656662 -0.66773,-0.658225 -0.984724,-0.975219 -1.265599,-1.21332 a 5.5081797,5.5081797 0 0 0 -0.475253,-0.360242 c -0.109305,-0.07461 -0.232398,-0.155407 -0.380202,-0.252359 -1.343539,-0.873515 -4.015411,-0.825515 -4.103807,-0.823138 h -0.0085 c -0.730003,-0.925318 -0.678676,-3.97644 -0.636853,-4.613754 a 3.2925512,3.2925512 0 0 0 -0.614977,0.326498 13.411634,13.411634 0 0 0 -1.800258,1.542196 16.082554,16.082554 0 0 0 -1.728969,2.06117 v 0.0029 -0.0033 a 15.555023,15.555023 0 0 0 -2.471315,5.579453 c -0.009,0.03754 -0.663453,2.898567 -0.340757,4.382305 z"
     style="fill:url(#h);stroke-width:0.475253"
     id="path164" />
  <path
     d="m 37.91085,25.773798 a 10.027834,10.027834 0 0 1 1.71091,2.233687 c 0.101233,0.07652 0.195804,0.152557 0.276121,0.226221 4.176047,3.849548 1.987982,9.291192 1.824971,9.676147 3.392354,-2.794962 5.560458,-6.929187 4.909361,-11.196956 C 44.548705,21.518385 41.014726,19.42252 38.134693,14.864845 37.98879,14.634348 37.842888,14.403376 37.700788,14.15957 37.619518,14.020322 37.55441,13.894854 37.497855,13.779368 a 3.3519578,3.3519578 0 0 1 -0.274697,-0.729513 0.04752528,0.04752528 0 0 0 -0.04182,-0.04752 0.06558488,0.06558488 0 0 0 -0.03469,0 c -0.0024,0 -0.0062,0.0043 -0.0091,0.0053 -0.0029,9.51e-4 -0.0091,0.0053 -0.0133,0.0071 -0.712362,0.337905 -4.937834,7.028989 0.788962,12.751031 z"
     style="fill:url(#i);stroke-width:0.475253"
     id="path166" />
  <path
     d="m 39.897406,28.235607 c -0.08032,-0.07367 -0.174892,-0.149705 -0.276121,-0.226221 -0.03754,-0.02804 -0.07461,-0.05608 -0.114537,-0.08412 a 6.3588822,6.3588822 0 0 0 -4.441236,-1.078348 c 6.625024,3.31251 4.847578,14.718577 -4.333831,14.29085 a 8.193358,8.193358 0 0 1 -2.3967,-0.462416 q -0.270419,-0.101233 -0.540838,-0.221468 c -0.104084,-0.04752 -0.20816,-0.09505 -0.310815,-0.148279 l 0.01283,0.008 c 1.280332,0.873991 7.604045,3.009302 14.214811,-2.376263 l 0.01046,-0.02377 c 0.164912,-0.384955 2.352977,-5.8266 -1.824971,-9.676148 z"
     style="fill:url(#j);stroke-width:0.475253"
     id="path168" />
  <path
     d="m 23.144746,34.271317 c 0,0 0.850226,-3.16851 6.087988,-3.16851 0.566025,0 2.186163,-1.580215 2.215154,-2.038359 a 9.172379,9.172379 0 0 1 -6.914929,-0.271844 6.9481956,6.9481956 0 0 0 -6.772352,0.271844 4.730191,4.730191 0 0 0 4.363296,2.744584 c -0.341232,3.011677 1.250865,6.520469 5.104215,8.36445 0.08602,0.04135 0.166814,0.08602 0.25521,0.125466 -2.24937,-1.161993 -4.106659,-3.359561 -4.338582,-6.026205 z"
     style="fill:url(#k);stroke-width:0.475253"
     id="path170" />
  <path
     d="m 48.461462,25.75954 c -0.800326,-1.925724 -2.423789,-4.004955 -3.695091,-4.662229 a 19.13843,19.13843 0 0 1 1.865367,5.588971 l 0.0033,0.0309 C 44.552507,21.527414 41.022329,19.43155 38.137545,14.873875 37.991642,14.643378 37.84574,14.412405 37.70364,14.1686 37.622368,14.029351 37.557262,13.903884 37.500707,13.788399 a 3.3519578,3.3519578 0 0 1 -0.274697,-0.729514 0.04752528,0.04752528 0 0 0 -0.04182,-0.04752 0.06558488,0.06558488 0 0 0 -0.03469,0 c -0.0024,0 -0.0062,0.0043 -0.0091,0.0053 -0.0029,9.51e-4 -0.0091,0.0053 -0.0133,0.0071 l 0.0071,-0.01236 c -4.626539,2.708941 -6.19725,7.722857 -6.339825,10.232193 0.214813,-0.01473 0.427727,-0.03279 0.647294,-0.03279 a 9.2959445,9.2959445 0 0 1 8.069793,4.713077 6.3588822,6.3588822 0 0 0 -4.441239,-1.078349 c 6.625025,3.312512 4.847579,14.718579 -4.333829,14.290852 a 8.193358,8.193358 0 0 1 -2.3967,-0.462419 Q 28.069276,40.572736 27.798856,40.4525 c -0.104085,-0.04752 -0.20816,-0.09505 -0.310815,-0.148278 l 0.01283,0.008 q -0.134022,-0.06416 -0.268043,-0.133545 c 0.08602,0.04135 0.166814,0.08602 0.25521,0.125466 -2.24937,-1.162468 -4.106659,-3.360036 -4.338582,-6.026205 0,0 0.850227,-3.16851 6.087988,-3.16851 0.566026,0 2.186163,-1.580216 2.215153,-2.03836 -0.0071,-0.149704 -3.212709,-1.425758 -4.462623,-2.656663 -0.66773,-0.658224 -0.984724,-0.975218 -1.265599,-1.21332 a 5.5081797,5.5081797 0 0 0 -0.475253,-0.360211 8.5402925,8.5402925 0 0 1 -0.0518,-4.50207 13.639754,13.639754 0 0 0 -4.433634,3.426572 h -0.0085 c -0.730036,-0.925372 -0.678707,-3.976496 -0.636886,-4.61381 a 3.2925512,3.2925512 0 0 0 -0.614977,0.3265 13.411634,13.411634 0 0 0 -1.800257,1.542194 16.082554,16.082554 0 0 0 -1.721841,2.065924 v 0.0029 -0.0033 a 15.555023,15.555023 0 0 0 -2.471315,5.579453 l -0.02471,0.121665 c -0.03469,0.16206 -0.190101,0.985198 -0.212438,1.161993 v 0 a 21.429148,21.429148 0 0 0 -0.271845,2.56779 v 0.09505 a 18.420797,18.420797 0 0 0 36.570701,3.114806 c 0.0309,-0.237627 0.05608,-0.472876 0.08364,-0.712879 A 18.943576,18.943576 0 0 0 48.460474,25.76049 Z m -1.827347,0.946228 0.0033,0.01949 z"
     style="fill:url(#l);stroke-width:0.475253"
     id="path172" />
</svg>
