<?xml version="1.0" encoding="UTF-8" standalone="no"?>
<!-- Created with Inkscape (http://www.inkscape.org/) -->

<svg
   width="64"
   height="64"
   viewBox="0 0 16.933333 16.933333"
   version="1.1"
   id="svg5"
   inkscape:version="1.1.1 (3bf5ae0d25, 2021-09-20, custom)"
   sodipodi:docname="flash.svg"
   xmlns:inkscape="http://www.inkscape.org/namespaces/inkscape"
   xmlns:sodipodi="http://sodipodi.sourceforge.net/DTD/sodipodi-0.dtd"
   xmlns:xlink="http://www.w3.org/1999/xlink"
   xmlns="http://www.w3.org/2000/svg"
   xmlns:svg="http://www.w3.org/2000/svg">
  <sodipodi:namedview
     id="namedview7"
     pagecolor="#ffffff"
     bordercolor="#666666"
     borderopacity="1.0"
     inkscape:pageshadow="2"
     inkscape:pageopacity="0.0"
     inkscape:pagecheckerboard="0"
     inkscape:document-units="px"
     showgrid="false"
     units="px"
     height="48px"
     inkscape:zoom="7.9999996"
     inkscape:cx="12.000001"
     inkscape:cy="18.687501"
     inkscape:window-width="1920"
     inkscape:window-height="1011"
     inkscape:window-x="0"
     inkscape:window-y="0"
     inkscape:window-maximized="1"
     inkscape:current-layer="svg5"
     inkscape:lockguides="true" />
  <defs
     id="defs2">
    <linearGradient
       inkscape:collect="always"
       id="linearGradient3111">
      <stop
         style="stop-color:#000000;stop-opacity:1;"
         offset="0"
         id="stop3107" />
      <stop
         style="stop-color:#000000;stop-opacity:0;"
         offset="1"
         id="stop3109" />
    </linearGradient>
    <linearGradient
       inkscape:collect="always"
       id="linearGradient1865">
      <stop
         style="stop-color:#f33629;stop-opacity:1"
         offset="0"
         id="stop1861" />
      <stop
         style="stop-color:#f56f48;stop-opacity:1"
         offset="1"
         id="stop1863" />
    </linearGradient>
    <linearGradient
       inkscape:collect="always"
       id="linearGradient1013">
      <stop
         style="stop-color:#f99992;stop-opacity:1"
         offset="0"
         id="stop1009" />
      <stop
         style="stop-color:#ffffff;stop-opacity:1"
         offset="1"
         id="stop1011" />
    </linearGradient>
    <linearGradient
       inkscape:collect="always"
       xlink:href="#linearGradient37218"
       id="linearGradient1781"
       x1="2.8346456e-08"
       y1="2.2677165e-07"
       x2="64"
       y2="64"
       gradientUnits="userSpaceOnUse"
       gradientTransform="scale(0.26458333)" />
    <linearGradient
       inkscape:collect="always"
       id="linearGradient37218">
      <stop
         style="stop-color:#ffffff;stop-opacity:1"
         offset="0"
         id="stop37214" />
      <stop
         style="stop-color:#717171;stop-opacity:0.00392157"
         offset="0.49741825"
         id="stop37220" />
      <stop
         style="stop-color:#000000;stop-opacity:1"
         offset="1"
         id="stop37216" />
    </linearGradient>
    <linearGradient
       inkscape:collect="always"
       xlink:href="#linearGradient1013"
       id="linearGradient1015"
       x1="15.042898"
       y1="15.122825"
       x2="15.012473"
       y2="5.7612391"
       gradientUnits="userSpaceOnUse"
       gradientTransform="matrix(1.120584,0,0,1.120584,-4.5160102,-3.326063)" />
    <linearGradient
       inkscape:collect="always"
       xlink:href="#linearGradient1865"
       id="linearGradient1867"
       x1="8.9958324"
       y1="16.933334"
       x2="8.9958334"
       y2="6.7529299e-07"
       gradientUnits="userSpaceOnUse" />
    <linearGradient
       inkscape:collect="always"
       xlink:href="#linearGradient3111"
       id="linearGradient3113"
       x1="12"
       y1="52.348736"
       x2="62.513672"
       y2="20.348736"
       gradientUnits="userSpaceOnUse" />
  </defs>
  <path
     id="rect863"
     style="fill:url(#linearGradient1867);stroke-width:0.264583;fill-opacity:1"
     d="M 3.1750003,1.0583333 H 13.758333 c 1.172634,0 2.116667,0.944034 2.116667,2.116667 V 13.758333 c 0,1.172634 -0.944033,2.116667 -2.116667,2.116667 H 3.1750003 c -1.172633,0 -2.116667,-0.944033 -2.116667,-2.116667 V 3.1750003 c 0,-1.172633 0.944034,-2.116667 2.116667,-2.116667 z" />
  <path
     id="rect1345"
     style="opacity:0.3;fill:url(#linearGradient1781);fill-opacity:1;stroke-width:0.264583"
     d="m 3.1750003,1.0583333 c -1.172633,0 -2.116667,0.944034 -2.116667,2.116667 V 13.758333 c 0,1.172634 0.944034,2.116667 2.116667,2.116667 H 13.758334 c 1.172633,0 2.116666,-0.944033 2.116666,-2.116667 V 3.1750003 c 0,-1.172633 -0.944033,-2.116667 -2.116666,-2.116667 z m 0,0.264584 H 13.758334 c 1.026054,0 1.852083,0.826029 1.852083,1.852083 V 13.758333 c 0,1.026054 -0.826029,1.852084 -1.852083,1.852084 H 3.1750003 c -1.026054,0 -1.852083,-0.82603 -1.852083,-1.852084 V 3.1750003 c 0,-1.026054 0.826029,-1.852083 1.852083,-1.852083 z" />
  <path
     id="path20"
     style="fill:url(#linearGradient1015);fill-opacity:1;stroke-width:0.296488"
     d="M 12.15964,3.4399377 C 11.498464,3.4511887 8.785915,3.7601954 7.700161,7.9885939 6.7073719,11.853756 4.7624999,11.468849 4.7624999,11.468849 v 2.023299 c 0,0 3.0602598,0.209875 4.3928838,-4.1739916 H 11.467062 V 7.641726 H 9.8693873 c 0,0 0.5431657,-2.1297096 2.4373377,-2.1657507 v -2.023298 -0.00985 c 0,0 -0.05263,-0.0045 -0.147085,-0.0029 z" />
  <path
     id="path20-3"
     style="opacity:0.3;fill:url(#linearGradient3113);fill-opacity:1;stroke-width:1.12058"
     d="M 46.513672 20.697266 C 39.354596 20.833484 37.300781 28.882812 37.300781 28.882812 L 37.636719 28.882812 C 38.451876 26.72923 40.919162 21.803714 46.513672 21.697266 L 46.513672 20.697266 z M 34.603516 35.21875 C 29.56683 51.787695 18 50.994141 18 50.994141 L 18 51.994141 C 18 51.994141 29.566826 52.787694 34.603516 36.21875 L 43.339844 36.21875 L 43.339844 35.21875 L 34.603516 35.21875 z "
     transform="scale(0.26458333)" />
</svg>
