<?xml version="1.0" encoding="UTF-8" standalone="no"?>
<!-- Created with Inkscape (http://www.inkscape.org/) -->

<svg
   width="64"
   height="64"
   viewBox="0 0 16.933333 16.933333"
   version="1.1"
   id="svg5"
   inkscape:version="1.1.1 (3bf5ae0d25, 2021-09-20, custom)"
   sodipodi:docname="goa-account-foursquare.svg"
   xmlns:inkscape="http://www.inkscape.org/namespaces/inkscape"
   xmlns:sodipodi="http://sodipodi.sourceforge.net/DTD/sodipodi-0.dtd"
   xmlns:xlink="http://www.w3.org/1999/xlink"
   xmlns="http://www.w3.org/2000/svg"
   xmlns:svg="http://www.w3.org/2000/svg">
  <sodipodi:namedview
     id="namedview7"
     pagecolor="#ffffff"
     bordercolor="#666666"
     borderopacity="1.0"
     inkscape:pageshadow="2"
     inkscape:pageopacity="0.0"
     inkscape:pagecheckerboard="0"
     inkscape:document-units="px"
     showgrid="false"
     units="px"
     height="48px"
     inkscape:zoom="11.313708"
     inkscape:cx="11.313709"
     inkscape:cy="31.554642"
     inkscape:window-width="1920"
     inkscape:window-height="1011"
     inkscape:window-x="0"
     inkscape:window-y="0"
     inkscape:window-maximized="1"
     inkscape:current-layer="svg5"
     inkscape:lockguides="true" />
  <defs
     id="defs2">
    <linearGradient
       inkscape:collect="always"
       id="linearGradient37218">
      <stop
         style="stop-color:#1a1a1a;stop-opacity:1"
         offset="0"
         id="stop37214" />
      <stop
         style="stop-color:#e6e6e6;stop-opacity:0.00306325"
         offset="0.49741825"
         id="stop37220" />
      <stop
         style="stop-color:#ffffff;stop-opacity:1"
         offset="1"
         id="stop37216" />
    </linearGradient>
    <linearGradient
       inkscape:collect="always"
       xlink:href="#linearGradient37218"
       id="linearGradient881"
       x1="64.208344"
       y1="64.062607"
       x2="0.30528301"
       y2="0.13507102"
       gradientUnits="userSpaceOnUse" />
  </defs>
  <path
     id="rect846-3"
     style="fill:#fa4779;stroke-width:0.337527;fill-opacity:1"
     d="m 3.175,1.5875 h 10.583333 c 0.879475,0 1.5875,0.708025 1.5875,1.5875 v 10.583333 c 0,0.879475 -0.708025,1.5875 -1.5875,1.5875 H 3.175 c -0.879475,0 -1.5875,-0.708025 -1.5875,-1.5875 V 3.175 c 0,-0.879475 0.708025,-1.5875 1.5875,-1.5875 z" />
  <path
     id="rect846"
     style="opacity:0.3;fill:url(#linearGradient881);stroke-width:1.27569;fill-opacity:1"
     d="M 12 6 C 8.6760005 6 6 8.6760005 6 12 L 6 52 C 6 55.324 8.6760005 58 12 58 L 52 58 C 55.324 58 58 55.324 58 52 L 58 12 C 58 8.6760005 55.324 6 52 6 L 12 6 z M 12 7 L 52 7 C 54.77 7 57 9.23 57 12 L 57 52 C 57 54.77 54.77 57 52 57 L 12 57 C 9.23 57 7 54.77 7 52 L 7 12 C 7 9.23 9.23 7 12 7 z "
     transform="scale(0.26458333)" />
  <path
     d="M 10.582587,5.513788 10.370229,6.5391609 C 10.345959,6.6483733 10.242812,6.7454525 10.1154,6.7454525 H 8.2709456 c -0.2062916,0 -0.3761744,0.1698867 -0.3761744,0.3761745 v 0.2244913 c 0,0.2062915 0.1698867,0.3761745 0.3761744,0.3761745 h 1.5592871 c 0.145617,0 0.2669633,0.1395494 0.2366253,0.291233 -0.03034,0.1577494 -0.1941543,0.9586223 -0.2123583,1.043582 -0.01213,0.091007 -0.109212,0.2062915 -0.2548282,0.2062915 H 8.3255496 c -0.2669622,0.0061 -0.3215662,0.01213 -0.4793338,0.206292 -0.1577498,0.194153 -1.5532487,1.9415377 -1.5532487,1.9415377 -0.012129,0.01821 -0.024271,0.01213 -0.024271,-0.0061 V 5.4652101 c 0,-0.1395494 0.1152798,-0.254829 0.2548289,-0.254829 h 3.828495 c 0.133478,0 0.266962,0.1334782 0.230558,0.3033662 M 10.861674,4.233541 H 6.1350417 c -0.6492078,0 -0.8433751,0.4914578 -0.8433751,0.8008727 v 7.5111393 c 0,0.370108 0.1880873,0.479334 0.2912331,0.52179 0.1031459,0.04247 0.3761745,0.07281 0.5703328,-0.121339 0,0 2.2449134,-2.614995 2.281331,-2.657497 0.036403,-0.04247 0.054603,-0.04247 0.078875,-0.04247 h 1.4197462 c 0.6067513,0 0.7219993,-0.4186454 0.7887493,-0.6734564 0.0546,-0.212364 0.679541,-3.2460442 0.873709,-4.2046666 0.145616,-0.7402064 -0.04247,-1.1345808 -0.734168,-1.1345808"
     enable-background="new"
     fill="#ffffff"
     stroke-width="0.121346"
     id="path18" />
</svg>
