<?xml version="1.0" encoding="UTF-8" standalone="no"?>
<!-- Created with Inkscape (http://www.inkscape.org/) -->

<svg
   width="64"
   height="64"
   viewBox="0 0 16.933333 16.933333"
   version="1.1"
   id="svg5"
   inkscape:version="1.1.1 (3bf5ae0d25, 2021-09-20, custom)"
   sodipodi:docname="github.svg"
   xmlns:inkscape="http://www.inkscape.org/namespaces/inkscape"
   xmlns:sodipodi="http://sodipodi.sourceforge.net/DTD/sodipodi-0.dtd"
   xmlns:xlink="http://www.w3.org/1999/xlink"
   xmlns="http://www.w3.org/2000/svg"
   xmlns:svg="http://www.w3.org/2000/svg">
  <sodipodi:namedview
     id="namedview7"
     pagecolor="#ffffff"
     bordercolor="#666666"
     borderopacity="1.0"
     inkscape:pageshadow="2"
     inkscape:pageopacity="0.0"
     inkscape:pagecheckerboard="0"
     inkscape:document-units="px"
     showgrid="false"
     units="px"
     height="48px"
     inkscape:zoom="11.313708"
     inkscape:cx="11.313709"
     inkscape:cy="31.510447"
     inkscape:window-width="1920"
     inkscape:window-height="1019"
     inkscape:window-x="0"
     inkscape:window-y="0"
     inkscape:window-maximized="1"
     inkscape:current-layer="svg5"
     inkscape:lockguides="true" />
  <defs
     id="defs2">
    <linearGradient
       inkscape:collect="always"
       id="linearGradient37218">
      <stop
         style="stop-color:#1a1a1a;stop-opacity:1"
         offset="0"
         id="stop37214" />
      <stop
         style="stop-color:#e6e6e6;stop-opacity:0.00306325"
         offset="0.49741825"
         id="stop37220" />
      <stop
         style="stop-color:#ffffff;stop-opacity:1"
         offset="1"
         id="stop37216" />
    </linearGradient>
    <linearGradient
       inkscape:collect="always"
       xlink:href="#linearGradient37218"
       id="linearGradient881"
       x1="64.208344"
       y1="64.062607"
       x2="0.30528301"
       y2="0.13507102"
       gradientUnits="userSpaceOnUse" />
  </defs>
  <path
     id="rect846-3"
     style="fill:#333333;stroke-width:0.337527;fill-opacity:1"
     d="m 3.175,1.5875 h 10.583333 c 0.879475,0 1.5875,0.708025 1.5875,1.5875 v 10.583333 c 0,0.879475 -0.708025,1.5875 -1.5875,1.5875 H 3.175 c -0.879475,0 -1.5875,-0.708025 -1.5875,-1.5875 V 3.175 c 0,-0.879475 0.708025,-1.5875 1.5875,-1.5875 z" />
  <path
     id="rect846"
     style="opacity:0.3;fill:url(#linearGradient881);stroke-width:1.27569;fill-opacity:1"
     d="M 12 6 C 8.6760005 6 6 8.6760005 6 12 L 6 52 C 6 55.324 8.6760005 58 12 58 L 52 58 C 55.324 58 58 55.324 58 52 L 58 12 C 58 8.6760005 55.324 6 52 6 L 12 6 z M 12 7 L 52 7 C 54.77 7 57 9.23 57 12 L 57 52 C 57 54.77 54.77 57 52 57 L 12 57 C 9.23 57 7 54.77 7 52 L 7 12 C 7 9.23 9.23 7 12 7 z "
     transform="scale(0.26458333)" />
  <path
     id="path4"
     d="m 8.4666644,3.7041666 c -2.6384238,0 -4.7624978,2.124074 -4.7624978,4.7624978 0,2.5507736 1.9853671,4.6204676 4.5013843,4.7551886 -0.2594516,-0.01464 -0.5132479,-0.05072 -0.7600861,-0.10431 -7.824e-4,-0.430833 -0.00122,-0.832349 -0.00201,-0.966717 -1.2399814,0.276395 -1.37068,-0.681686 -1.37068,-0.681686 -0.2027974,-0.528617 -0.4949861,-0.669062 -0.4949861,-0.669062 -0.4047629,-0.283681 0.029899,-0.278388 0.029899,-0.278388 0.4474537,0.03228 0.6830144,0.471731 0.6830144,0.471731 0.3976345,0.699112 0.9087588,0.565601 1.162719,0.448477 0.040501,-0.295478 0.2906607,-0.463056 0.4179146,-0.577372 -0.9898372,-0.115458 -2.1261012,-0.576214 -2.1261012,-2.3294246 0,-0.499382 0.1673059,-0.9081965 0.4524638,-1.2278315 C 6.1517243,7.191575 5.998144,6.6240977 6.2408853,5.9943938 c 0,0 0.023383,-0.00702 0.071757,-0.0093 0.1450861,-0.00684 0.4710512,0.1260295 1.1095665,0.5700645 0.377528,-0.1095672 0.8389062,-0.1250421 1.1833157,-0.12956 0.4037796,-0.0053 0.8216166,0.018292 1.1906244,0.12956 C 10.434464,6.1111041 10.842499,5.9776642 10.987442,5.9844338 h 6.81e-4 c 0.04832,0.00225 0.07176,0.00996 0.07176,0.00996 0.243285,0.6297039 0.08955,1.1971542 0.04385,1.3128762 0.285676,0.3196316 0.424543,0.7277854 0.424543,1.2271674 0,1.7577016 -1.042261,2.2135756 -2.0350914,2.3267656 0.1598193,0.141277 0.3361919,0.352039 0.3361919,0.77869 0,0.253516 -0.00112,0.783878 -0.00201,1.390613 -0.3159057,0.09348 -0.6456223,0.155634 -0.9853213,0.182712 2.4614578,-0.190391 4.3871188,-2.234628 4.3871188,-4.7465506 0,-2.6384241 -2.124073,-4.7624982 -4.7624972,-4.7624982 z M 8.2055509,13.221853 c 0.086456,0.0046 0.1734631,0.0073 0.2611135,0.0073 -0.087787,0 -0.1746296,-0.0024 -0.2611135,-0.0073 z m 0.2611135,0.0073 c 0.1113686,0 0.2214627,-0.0051 0.3308765,-0.0126 -0.1094155,0.0077 -0.2194034,0.0126 -0.3308765,0.0126 z"
     style="stroke-width:0.340178;fill:#ffffff" />
</svg>
