<?xml version="1.0" encoding="UTF-8" standalone="no"?>
<!-- Created with Inkscape (http://www.inkscape.org/) -->

<svg
   width="64"
   height="64"
   viewBox="0 0 16.933333 16.933333"
   version="1.1"
   id="svg5"
   inkscape:version="1.1.1 (3bf5ae0d25, 2021-09-20, custom)"
   sodipodi:docname="github.svg"
   xmlns:inkscape="http://www.inkscape.org/namespaces/inkscape"
   xmlns:sodipodi="http://sodipodi.sourceforge.net/DTD/sodipodi-0.dtd"
   xmlns:xlink="http://www.w3.org/1999/xlink"
   xmlns="http://www.w3.org/2000/svg"
   xmlns:svg="http://www.w3.org/2000/svg">
  <sodipodi:namedview
     id="namedview7"
     pagecolor="#ffffff"
     bordercolor="#666666"
     borderopacity="1.0"
     inkscape:pageshadow="2"
     inkscape:pageopacity="0.0"
     inkscape:pagecheckerboard="0"
     inkscape:document-units="px"
     showgrid="false"
     units="px"
     height="48px"
     inkscape:zoom="5.656854"
     inkscape:cx="7.0710681"
     inkscape:cy="21.478369"
     inkscape:window-width="1920"
     inkscape:window-height="1019"
     inkscape:window-x="0"
     inkscape:window-y="0"
     inkscape:window-maximized="1"
     inkscape:current-layer="svg5"
     inkscape:lockguides="true" />
  <defs
     id="defs2">
    <linearGradient
       inkscape:collect="always"
       xlink:href="#linearGradient37218-3"
       id="linearGradient1781"
       x1="2.8346456e-08"
       y1="2.2677165e-07"
       x2="64"
       y2="64"
       gradientUnits="userSpaceOnUse"
       gradientTransform="scale(0.26458333)" />
    <linearGradient
       inkscape:collect="always"
       id="linearGradient37218-3">
      <stop
         style="stop-color:#808080;stop-opacity:1"
         offset="0"
         id="stop37214-6" />
      <stop
         style="stop-color:#717171;stop-opacity:0.00392157"
         offset="0.49741825"
         id="stop37220-7" />
      <stop
         style="stop-color:#808080;stop-opacity:1"
         offset="1"
         id="stop37216-5" />
    </linearGradient>
  </defs>
  <path
     id="rect863"
     style="fill:#333333;stroke-width:0.264583;fill-opacity:1"
     d="M 3.1749998,1.0583333 H 13.758333 c 1.172634,0 2.116667,0.9440333 2.116667,2.1166665 V 13.758333 c 0,1.172634 -0.944033,2.116667 -2.116667,2.116667 H 3.1749998 c -1.1726332,0 -2.1166665,-0.944033 -2.1166665,-2.116667 V 3.1749998 c 0,-1.1726332 0.9440333,-2.1166665 2.1166665,-2.1166665 z" />
  <path
     id="rect1345"
     style="opacity:0.3;fill:url(#linearGradient1781);fill-opacity:1;stroke-width:0.264583"
     d="m 3.175,1.0583333 c -1.1726333,0 -2.1166667,0.9440334 -2.1166667,2.1166667 v 10.583333 c 0,1.172634 0.9440334,2.116667 2.1166667,2.116667 h 10.583334 c 1.172633,0 2.116666,-0.944033 2.116666,-2.116667 V 3.175 c 0,-1.1726333 -0.944033,-2.1166667 -2.116666,-2.1166667 z m 0,0.2645834 h 10.583334 c 1.026054,0 1.852083,0.8260291 1.852083,1.8520833 v 10.583333 c 0,1.026054 -0.826029,1.852084 -1.852083,1.852084 H 3.175 c -1.0260542,0 -1.8520834,-0.82603 -1.8520834,-1.852084 V 3.175 c 0,-1.0260542 0.8260292,-1.8520833 1.8520834,-1.8520833 z" />
  <path
     id="path4"
     d="m 8.4666655,3.1749999 c -2.9315828,0 -5.2916656,2.3600828 -5.2916656,5.2916656 0,2.8341935 2.205964,5.1338535 5.0015394,5.2835435 -0.2882797,-0.01627 -0.5702756,-0.05635 -0.8445403,-0.1159 -8.694e-4,-0.478703 -0.00136,-0.924832 -0.00223,-1.07413 C 5.9520082,12.867285 5.8067875,11.80275 5.8067875,11.80275 5.581457,11.215398 5.2568028,11.059348 5.2568028,11.059348 c -0.4497367,-0.315202 0.033221,-0.30932 0.033221,-0.30932 0.4971709,0.03587 0.7589051,0.524145 0.7589051,0.524145 0.4418162,0.776792 1.0097322,0.628446 1.2919103,0.498308 0.045001,-0.328309 0.3229564,-0.514507 0.4643497,-0.641524 C 6.7053695,11.00267 5.4428536,10.490719 5.4428536,8.5427066 c 0,-0.554869 0.1858955,-1.0091075 0.5027377,-1.3642576 -0.051082,-0.1285499 -0.2217271,-0.7590804 0.047986,-1.4587516 0,0 0.025981,-0.0078 0.07973,-0.010333 0.1612068,-0.0076 0.5233903,0.1400328 1.2328519,0.6334052 C 7.7256349,6.2210282 8.2382775,6.2038339 8.6209548,6.198814 9.0695989,6.192924 9.5338623,6.219138 9.9438713,6.3427696 10.65311,5.8493759 11.106482,5.7011093 11.26753,5.7086311 h 7.57e-4 c 0.05369,0.0025 0.07973,0.011067 0.07973,0.011067 0.270317,0.6996712 0.0995,1.3301717 0.04872,1.4587517 0.317418,0.3551463 0.471715,0.8086507 0.471715,1.3635197 0,1.9530025 -1.158068,2.4595295 -2.2612137,2.5852955 0.177577,0.156975 0.373547,0.391155 0.373547,0.865212 0,0.281684 -0.0012,0.870975 -0.0022,1.545126 -0.351007,0.103866 -0.7173582,0.172926 -1.0948017,0.203013 2.7349534,-0.211546 4.8745774,-2.482921 4.8745774,-5.2739465 0,-2.9315831 -2.360082,-5.291666 -5.2916646,-5.291666 z M 8.1765393,13.750209 c 0.096062,0.0051 0.1927368,0.0081 0.2901262,0.0081 -0.097541,0 -0.194033,-0.0027 -0.2901262,-0.0081 z m 0.2901262,0.0081 c 0.1237429,0 0.2460697,-0.0057 0.3676406,-0.014 -0.1215728,0.0086 -0.2437816,0.014 -0.3676406,0.014 z"
     style="fill:#ffffff;stroke-width:0.377976" />
</svg>
