<?xml version="1.0" encoding="UTF-8" standalone="no"?>
<!-- Created with Inkscape (http://www.inkscape.org/) -->

<svg
   width="64"
   height="64"
   viewBox="0 0 16.933333 16.933333"
   version="1.1"
   id="svg5"
   inkscape:version="1.1.1 (3bf5ae0d25, 2021-09-20, custom)"
   sodipodi:docname="gmail.svg"
   xmlns:inkscape="http://www.inkscape.org/namespaces/inkscape"
   xmlns:sodipodi="http://sodipodi.sourceforge.net/DTD/sodipodi-0.dtd"
   xmlns:xlink="http://www.w3.org/1999/xlink"
   xmlns="http://www.w3.org/2000/svg"
   xmlns:svg="http://www.w3.org/2000/svg">
  <sodipodi:namedview
     id="namedview7"
     pagecolor="#ffffff"
     bordercolor="#666666"
     borderopacity="1.0"
     inkscape:pageshadow="2"
     inkscape:pageopacity="0.0"
     inkscape:pagecheckerboard="0"
     inkscape:document-units="px"
     showgrid="false"
     units="px"
     height="48px"
     inkscape:zoom="2.828427"
     inkscape:cx="1.0606602"
     inkscape:cy="10.960156"
     inkscape:window-width="1920"
     inkscape:window-height="1011"
     inkscape:window-x="0"
     inkscape:window-y="0"
     inkscape:window-maximized="1"
     inkscape:current-layer="svg5"
     inkscape:lockguides="true" />
  <defs
     id="defs2">
    <linearGradient
       inkscape:collect="always"
       id="linearGradient37218">
      <stop
         style="stop-color:#4d4d4d;stop-opacity:1"
         offset="0"
         id="stop37214" />
      <stop
         style="stop-color:#cccccc;stop-opacity:1"
         offset="0.49741825"
         id="stop37220" />
      <stop
         style="stop-color:#4d4d4d;stop-opacity:1"
         offset="1"
         id="stop37216" />
    </linearGradient>
    <linearGradient
       inkscape:collect="always"
       xlink:href="#linearGradient37218"
       id="linearGradient881"
       x1="64.208344"
       y1="64.062607"
       x2="0.30528301"
       y2="0.13507102"
       gradientUnits="userSpaceOnUse" />
  </defs>
  <path
     id="rect846-3"
     style="fill:#ffffff;stroke-width:0.337527;fill-opacity:1"
     d="m 3.175,1.5875 h 10.583333 c 0.879475,0 1.5875,0.708025 1.5875,1.5875 v 10.583333 c 0,0.879475 -0.708025,1.5875 -1.5875,1.5875 H 3.175 c -0.879475,0 -1.5875,-0.708025 -1.5875,-1.5875 V 3.175 c 0,-0.879475 0.708025,-1.5875 1.5875,-1.5875 z" />
  <path
     id="rect846"
     style="opacity:0.3;fill:url(#linearGradient881);stroke-width:1.27569;fill-opacity:1"
     d="M 12 6 C 8.6760005 6 6 8.6760005 6 12 L 6 52 C 6 55.324 8.6760005 58 12 58 L 52 58 C 55.324 58 58 55.324 58 52 L 58 12 C 58 8.6760005 55.324 6 52 6 L 12 6 z M 12 7 L 52 7 C 54.77 7 57 9.23 57 12 L 57 52 C 57 54.77 54.77 57 52 57 L 12 57 C 9.23 57 7 54.77 7 52 L 7 12 C 7 9.23 9.23 7 12 7 z "
     transform="scale(0.26458333)" />
  <path
     fill="#4285f4"
     d="m 4.3535982,11.908094 h 1.515341 V 8.2279786 L 3.7041666,6.6043992 v 4.6542628 c 0,0.359352 0.291162,0.649432 0.6494316,0.649432"
     id="path2"
     style="stroke-width:0.108239" />
  <path
     fill="#34a853"
     d="m 11.064394,11.908094 h 1.515341 c 0.359352,0 0.649431,-0.291162 0.649431,-0.649432 V 6.6043992 l -2.164772,1.6235794"
     id="path4"
     style="stroke-width:0.108239" />
  <path
     fill="#fbbc04"
     d="M 11.064394,5.4137742 V 8.2279786 L 13.229166,6.6043992 V 5.7384899 c 0,-0.8031305 -0.916781,-1.26098 -1.558636,-0.779318"
     id="path6"
     style="stroke-width:0.108239" />
  <path
     fill="#ea4335"
     d="M 5.8689392,8.2279786 V 5.4137742 L 8.4666665,7.3620696 11.064394,5.4137742 V 8.2279786 L 8.4666665,10.176275"
     id="path8"
     style="stroke-width:0.108239" />
  <path
     fill="#c5221f"
     d="M 3.7041666,5.7384899 V 6.6043992 L 5.8689392,8.2279786 V 5.4137742 L 5.2628029,4.9591719 C 4.6198654,4.4775099 3.7041666,4.9353589 3.7041666,5.7384899"
     id="path10"
     style="stroke-width:0.108239" />
</svg>
