<?xml version="1.0" encoding="UTF-8" standalone="no"?>
<!-- Created with Inkscape (http://www.inkscape.org/) -->

<svg
   width="64"
   height="64"
   viewBox="0 0 16.933333 16.933333"
   version="1.1"
   id="svg5"
   inkscape:version="1.1.1 (3bf5ae0d25, 2021-09-20, custom)"
   sodipodi:docname="gnome-music.svg"
   xmlns:inkscape="http://www.inkscape.org/namespaces/inkscape"
   xmlns:sodipodi="http://sodipodi.sourceforge.net/DTD/sodipodi-0.dtd"
   xmlns:xlink="http://www.w3.org/1999/xlink"
   xmlns="http://www.w3.org/2000/svg"
   xmlns:svg="http://www.w3.org/2000/svg">
  <sodipodi:namedview
     id="namedview7"
     pagecolor="#ffffff"
     bordercolor="#666666"
     borderopacity="1.0"
     inkscape:pageshadow="2"
     inkscape:pageopacity="0.0"
     inkscape:pagecheckerboard="0"
     inkscape:document-units="px"
     showgrid="false"
     units="px"
     height="48px"
     inkscape:zoom="5.656854"
     inkscape:cx="25.986175"
     inkscape:cy="41.719302"
     inkscape:window-width="1920"
     inkscape:window-height="1011"
     inkscape:window-x="0"
     inkscape:window-y="0"
     inkscape:window-maximized="1"
     inkscape:current-layer="svg5"
     inkscape:lockguides="true" />
  <defs
     id="defs2">
    <linearGradient
       inkscape:collect="always"
       id="linearGradient10436">
      <stop
         style="stop-color:#ffffff;stop-opacity:1;"
         offset="0"
         id="stop10432" />
      <stop
         style="stop-color:#ffffff;stop-opacity:0;"
         offset="1"
         id="stop10434" />
    </linearGradient>
    <linearGradient
       inkscape:collect="always"
       id="linearGradient9472">
      <stop
         style="stop-color:#000000;stop-opacity:1;"
         offset="0"
         id="stop9468" />
      <stop
         style="stop-color:#000000;stop-opacity:0;"
         offset="1"
         id="stop9470" />
    </linearGradient>
    <linearGradient
       inkscape:collect="always"
       id="linearGradient3973">
      <stop
         style="stop-color:#de2460;stop-opacity:1"
         offset="0"
         id="stop3969" />
      <stop
         style="stop-color:#f49a8b;stop-opacity:1"
         offset="1"
         id="stop3971" />
    </linearGradient>
    <linearGradient
       inkscape:collect="always"
       id="linearGradient37218">
      <stop
         style="stop-color:#1a1a1a;stop-opacity:1"
         offset="0"
         id="stop37214" />
      <stop
         style="stop-color:#e6e6e6;stop-opacity:0.00306325"
         offset="0.49741825"
         id="stop37220" />
      <stop
         style="stop-color:#ffffff;stop-opacity:1"
         offset="1"
         id="stop37216" />
    </linearGradient>
    <linearGradient
       inkscape:collect="always"
       xlink:href="#linearGradient9472"
       id="linearGradient9634"
       x1="11.142988"
       y1="21.198652"
       x2="1.8359178"
       y2="7.9502316"
       gradientUnits="userSpaceOnUse" />
    <linearGradient
       inkscape:collect="always"
       xlink:href="#linearGradient10436"
       id="linearGradient10438"
       x1="6.8791666"
       y1="2.5099294"
       x2="6.8791666"
       y2="18.649508"
       gradientUnits="userSpaceOnUse" />
    <linearGradient
       inkscape:collect="always"
       xlink:href="#linearGradient37218"
       id="linearGradient1781"
       x1="64"
       y1="64"
       x2="4.5354329e-07"
       y2="-1.9999995"
       gradientUnits="userSpaceOnUse"
       gradientTransform="scale(0.26458333)" />
    <linearGradient
       inkscape:collect="always"
       xlink:href="#linearGradient3973"
       id="linearGradient1554"
       x1="23.626356"
       y1="16.32439"
       x2="23.626356"
       y2="-0.60894185"
       gradientUnits="userSpaceOnUse"
       gradientTransform="translate(-9.8680227,0.60894236)" />
  </defs>
  <path
     id="rect863"
     style="fill:url(#linearGradient1554);fill-opacity:1.0;stroke-width:0.264583"
     d="M 3.1750003,1.0583333 H 13.758333 c 1.172634,0 2.116667,0.944034 2.116667,2.116667 V 13.758333 c 0,1.172634 -0.944033,2.116667 -2.116667,2.116667 H 3.1750003 c -1.172633,0 -2.116667,-0.944033 -2.116667,-2.116667 V 3.1750004 c 0,-1.172633 0.944034,-2.1166671 2.116667,-2.1166671 z" />
  <path
     id="rect1345"
     style="opacity:0.3;fill:url(#linearGradient1781);fill-opacity:1;stroke-width:0.264583"
     d="m 3.1750003,1.0583333 c -1.172633,0 -2.116667,0.944034 -2.116667,2.116667 V 13.758333 c 0,1.172634 0.944034,2.116667 2.116667,2.116667 H 13.758335 c 1.172632,0 2.116666,-0.944033 2.116666,-2.116667 V 3.1750004 c 0,-1.172633 -0.944034,-2.1166671 -2.116666,-2.1166671 z m 0,0.264584 H 13.758335 c 1.026054,0 1.852083,0.826029 1.852083,1.852083 V 13.758333 c 0,1.026054 -0.826029,1.852084 -1.852083,1.852084 H 3.1750003 c -1.026054,0 -1.852084,-0.82603 -1.852084,-1.852084 V 3.1750004 c 0,-1.026054 0.82603,-1.8520831 1.852084,-1.8520831 z" />
  <path
     id="path7876-6"
     style="opacity:0.3;fill:url(#linearGradient9634);fill-opacity:1;stroke-width:0.260202"
     d="M 11.1125,5.049304 6.8791666,6.2140908 V 6.4786742 L 11.1125,5.3138873 Z m 0.529167,5.675105 c -0.104615,0.54291 -0.686724,1.03596 -1.322917,1.168921 -0.6743426,0.118905 -1.2308296,-0.186707 -1.3125816,-0.694014 -0.00668,0.04425 -0.010324,0.08881 -0.010335,0.133325 -1.421e-4,0.584606 0.5921907,0.95412 1.3229166,0.825273 0.636193,-0.132961 1.218302,-0.626012 1.322917,-1.168921 z M 6.8791666,12.034924 C 6.7745535,12.577833 6.1924432,13.070885 5.5562499,13.203845 4.8819075,13.32275 4.3254207,13.017138 4.2436684,12.50983 c -0.00668,0.04425 -0.010324,0.08881 -0.010335,0.133325 -1.418e-4,0.584606 0.5921896,0.95412 1.3229166,0.825273 0.6361933,-0.13296 1.2183036,-0.626012 1.3229167,-1.168921 z" />
  <path
     id="path7876"
     style="opacity:1;fill:url(#linearGradient10438);fill-opacity:1;stroke-width:0.260202"
     d="m 11.270113,3.968755 c -0.04987,-2.259e-4 -0.102645,0.0071 -0.157613,0.022221 L 6.8791666,5.1557626 C 6.5860083,5.2364201 6.3499999,5.5374984 6.3499999,5.8306568 v 4.9654582 c 0,0 -0.023593,0.294296 -0.3229776,0.277502 -0.1493351,-0.01916 -0.3089365,-0.01508 -0.4707724,0.01344 -0.7305265,0.12881 -1.3227751,0.706948 -1.3229166,1.291394 -1.418e-4,0.584606 0.5921896,0.954119 1.3229166,0.825272 0.6361933,-0.13296 1.2183041,-0.626012 1.3229167,-1.168921 V 6.2140959 L 11.1125,5.0493091 v 4.4364216 c 0,0 -0.02411,0.29378 -0.323495,0.276986 -0.149335,-0.01916 -0.308419,-0.01457 -0.470255,0.01395 -0.7305267,0.128813 -1.3227752,0.7069483 -1.3229168,1.2913943 -1.418e-4,0.584606 0.5921901,0.954119 1.3229168,0.825272 0.636193,-0.132961 1.218303,-0.626012 1.322917,-1.168921 V 4.3744139 C 11.643267,4.1121692 11.486216,3.969734 11.270113,3.968755 Z"
     sodipodi:nodetypes="sccscccscccccccscccs" />
</svg>
