<?xml version="1.0" encoding="UTF-8" standalone="no"?>
<!-- Created with Inkscape (http://www.inkscape.org/) -->

<svg
   width="64"
   height="64"
   viewBox="0 0 16.933333 16.933333"
   version="1.1"
   id="svg5"
   inkscape:version="1.1.1 (3bf5ae0d25, 2021-09-20, custom)"
   sodipodi:docname="gnome-power-stats.svg"
   xmlns:inkscape="http://www.inkscape.org/namespaces/inkscape"
   xmlns:sodipodi="http://sodipodi.sourceforge.net/DTD/sodipodi-0.dtd"
   xmlns:xlink="http://www.w3.org/1999/xlink"
   xmlns="http://www.w3.org/2000/svg"
   xmlns:svg="http://www.w3.org/2000/svg">
  <sodipodi:namedview
     id="namedview7"
     pagecolor="#ffffff"
     bordercolor="#666666"
     borderopacity="1.0"
     inkscape:pageshadow="2"
     inkscape:pageopacity="0.0"
     inkscape:pagecheckerboard="0"
     inkscape:document-units="px"
     showgrid="false"
     units="px"
     height="48px"
     inkscape:zoom="1.9417471"
     inkscape:cx="47.895012"
     inkscape:cy="46.607511"
     inkscape:window-width="1920"
     inkscape:window-height="1019"
     inkscape:window-x="0"
     inkscape:window-y="0"
     inkscape:window-maximized="1"
     inkscape:current-layer="svg5"
     inkscape:lockguides="true" />
  <defs
     id="defs2">
    <linearGradient
       inkscape:collect="always"
       id="linearGradient1254">
      <stop
         style="stop-color:#999999;stop-opacity:1"
         offset="0"
         id="stop1250" />
      <stop
         style="stop-color:#cccccc;stop-opacity:1"
         offset="1"
         id="stop1252" />
    </linearGradient>
    <linearGradient
       inkscape:collect="always"
       id="linearGradient867">
      <stop
         style="stop-color:#cccccc;stop-opacity:1"
         offset="0"
         id="stop863" />
      <stop
         style="stop-color:#f2f2f2;stop-opacity:1"
         offset="1"
         id="stop865" />
    </linearGradient>
    <linearGradient
       inkscape:collect="always"
       id="linearGradient37218">
      <stop
         style="stop-color:#1a1a1a;stop-opacity:1"
         offset="0"
         id="stop37214" />
      <stop
         style="stop-color:#e6e6e6;stop-opacity:0.00306325"
         offset="0.49741825"
         id="stop37220" />
      <stop
         style="stop-color:#ffffff;stop-opacity:1"
         offset="1"
         id="stop37216" />
    </linearGradient>
    <linearGradient
       inkscape:collect="always"
       xlink:href="#linearGradient37218"
       id="linearGradient1781"
       x1="64"
       y1="64"
       x2="4.5354329e-07"
       y2="4.5354329e-07"
       gradientUnits="userSpaceOnUse"
       gradientTransform="scale(0.26458333)" />
    <linearGradient
       inkscape:collect="always"
       xlink:href="#linearGradient867"
       id="linearGradient1378"
       x1="7.9375"
       y1="16.933334"
       x2="7.937499"
       y2="6.7529299e-07"
       gradientUnits="userSpaceOnUse" />
    <linearGradient
       inkscape:collect="always"
       xlink:href="#linearGradient1254"
       id="linearGradient1256"
       x1="50"
       y1="64"
       x2="50"
       y2="2.2677165e-07"
       gradientUnits="userSpaceOnUse" />
  </defs>
  <path
     id="rect863"
     style="fill:url(#linearGradient1378);stroke-width:0.264583;fill-opacity:1"
     d="M 3.1750003,1.0583333 H 13.758332 c 1.172634,0 2.116667,0.944034 2.116667,2.116667 V 13.758333 c 0,1.172634 -0.944033,2.116667 -2.116667,2.116667 H 3.1750003 c -1.172633,0 -2.116667,-0.944033 -2.116667,-2.116667 V 3.1750003 c 0,-1.172633 0.944034,-2.116667 2.116667,-2.116667 z" />
  <path
     id="rect1408"
     style="opacity:1;fill:#d54e43;fill-opacity:1;stroke-width:0.541187"
     d="M 58,14.800781 44.5,34.5 34,26.5 27,37.5 16,32 6,48.207031 V 50 c 0,0.723018 0.097218,1.4226 0.2753906,2.087891 L 17,35 l 10.5,5.5 7,-11 L 45,38 58,19 Z"
     transform="scale(0.26458333)"
     sodipodi:nodetypes="ccccccsccccccc" />
  <path
     id="rect1408-6"
     style="opacity:1;fill:#43abd5;fill-opacity:1;stroke-width:0.143189"
     d="M 15.345833,9.2077068 11.90625,11.90625 9.1281249,10.980208 7.408333,13.096875 4.3656249,11.773958 l -2.9213717,1.964738 0.072864,0.552423 2.716216,-1.855703 3.241146,1.45521 1.7859377,-2.116668 2.7781251,0.926041 3.307291,-2.645832 z"
     sodipodi:nodetypes="ccccccccccccc" />
  <path
     id="rect867"
     style="fill:url(#linearGradient1256);stroke-width:9;stroke-linecap:round;stroke-linejoin:round;fill-opacity:1"
     d="M 12 4 C 7.5680001 4 4 7.5680001 4 12 L 4 52 C 4 56.432 7.5680001 60 12 60 L 52 60 C 56.432 60 60 56.432 60 52 L 60 12 C 60 7.5680001 56.432 4 52 4 L 12 4 z M 13 7 L 51 7 C 54.324 7 57 9.676 57 13 L 57 51 C 57 54.324 54.324 57 51 57 L 13 57 C 9.676 57 7 54.324 7 51 L 7 13 C 7 9.676 9.676 7 13 7 z "
     transform="scale(0.26458333)" />
  <path
     id="rect1345"
     style="opacity:0.3;fill:url(#linearGradient1781);fill-opacity:1;stroke-width:0.264583"
     d="m 3.1750003,1.0583333 c -1.172633,0 -2.116667,0.944034 -2.116667,2.116667 V 13.758333 c 0,1.172634 0.944034,2.116667 2.116667,2.116667 H 13.758333 c 1.172633,0 2.116666,-0.944033 2.116666,-2.116667 V 3.1750003 c 0,-1.172633 -0.944033,-2.116667 -2.116666,-2.116667 z m 0,0.264584 H 13.758333 c 1.026054,0 1.852083,0.826029 1.852083,1.852083 V 13.758333 c 0,1.026054 -0.826029,1.852084 -1.852083,1.852084 H 3.1750003 c -1.026054,0 -1.852083,-0.82603 -1.852083,-1.852084 V 3.1750003 c 0,-1.026054 0.826029,-1.852083 1.852083,-1.852083 z" />
</svg>
