<?xml version="1.0" encoding="UTF-8" standalone="no"?>
<!-- Created with Inkscape (http://www.inkscape.org/) -->

<svg
   width="64"
   height="64"
   viewBox="0 0 16.933333 16.933333"
   version="1.1"
   id="svg5"
   inkscape:version="1.1.1 (3bf5ae0d25, 2021-09-20, custom)"
   sodipodi:docname="gnome-photos.svg"
   xmlns:inkscape="http://www.inkscape.org/namespaces/inkscape"
   xmlns:sodipodi="http://sodipodi.sourceforge.net/DTD/sodipodi-0.dtd"
   xmlns:xlink="http://www.w3.org/1999/xlink"
   xmlns="http://www.w3.org/2000/svg"
   xmlns:svg="http://www.w3.org/2000/svg">
  <sodipodi:namedview
     id="namedview7"
     pagecolor="#ffffff"
     bordercolor="#666666"
     borderopacity="1.0"
     inkscape:pageshadow="2"
     inkscape:pageopacity="0.0"
     inkscape:pagecheckerboard="0"
     inkscape:document-units="px"
     showgrid="false"
     units="px"
     height="48px"
     inkscape:zoom="6.1640625"
     inkscape:cx="39.908745"
     inkscape:cy="60.917617"
     inkscape:window-width="1920"
     inkscape:window-height="1019"
     inkscape:window-x="0"
     inkscape:window-y="0"
     inkscape:window-maximized="1"
     inkscape:current-layer="svg5"
     inkscape:lockguides="true" />
  <defs
     id="defs2">
    <linearGradient
       inkscape:collect="always"
       id="linearGradient76915">
      <stop
         style="stop-color:#000000;stop-opacity:1;"
         offset="0"
         id="stop76911" />
      <stop
         style="stop-color:#000000;stop-opacity:0;"
         offset="1"
         id="stop76913" />
    </linearGradient>
    <linearGradient
       inkscape:collect="always"
       xlink:href="#linearGradient37218"
       id="linearGradient1781"
       x1="2.8346456e-08"
       y1="2.2677165e-07"
       x2="64"
       y2="64"
       gradientUnits="userSpaceOnUse"
       gradientTransform="scale(0.26458333)" />
    <linearGradient
       inkscape:collect="always"
       id="linearGradient37218">
      <stop
         style="stop-color:#ffffff;stop-opacity:1"
         offset="0"
         id="stop37214" />
      <stop
         style="stop-color:#717171;stop-opacity:0.00392157"
         offset="0.49741825"
         id="stop37220" />
      <stop
         style="stop-color:#000000;stop-opacity:1"
         offset="1"
         id="stop37216" />
    </linearGradient>
    <linearGradient
       inkscape:collect="always"
       xlink:href="#linearGradient76915"
       id="linearGradient76917"
       x1="0.98242193"
       y1="60.993164"
       x2="58.982628"
       y2="22.993164"
       gradientUnits="userSpaceOnUse" />
  </defs>
  <path
     id="rect863"
     style="fill:#ffffff;stroke-width:0.264583"
     d="M 3.1750003,1.0583333 H 13.758333 c 1.172634,0 2.116667,0.944034 2.116667,2.116667 V 13.758333 c 0,1.172634 -0.944033,2.116667 -2.116667,2.116667 H 3.1750003 c -1.172633,0 -2.116667,-0.944033 -2.116667,-2.116667 V 3.1750003 c 0,-1.172633 0.944034,-2.116667 2.116667,-2.116667 z" />
  <path
     id="rect1345"
     style="opacity:0.3;fill:url(#linearGradient1781);fill-opacity:1;stroke-width:0.264583"
     d="m 3.1750003,1.0583333 c -1.172633,0 -2.116667,0.944034 -2.116667,2.116667 V 13.758333 c 0,1.172634 0.944034,2.116667 2.116667,2.116667 H 13.758334 c 1.172633,0 2.116666,-0.944033 2.116666,-2.116667 V 3.1750003 c 0,-1.172633 -0.944033,-2.116667 -2.116666,-2.116667 z m 0,0.264584 H 13.758334 c 1.026054,0 1.852083,0.826029 1.852083,1.852083 V 13.758333 c 0,1.026054 -0.826029,1.852084 -1.852083,1.852084 H 3.1750003 c -1.026054,0 -1.852083,-0.82603 -1.852083,-1.852084 V 3.1750003 c 0,-1.026054 0.826029,-1.852083 1.852083,-1.852083 z" />
  <path
     id="path873"
     style="opacity:1;fill:#ff6600;stroke-width:0.999969"
     d="M 32 9 C 27.316318 8.9697591 25.780121 11.846577 25.267578 16.251953 C 25.284344 16.107816 25.303229 15.965034 25.322266 15.824219 C 27.203155 17.253478 29.184616 19.241789 31.351562 21.392578 C 33.996748 24.018018 34.082939 28.240817 31.636719 30.990234 C 31.756693 30.996348 31.878533 31 32 31 C 35.865763 31.000001 38.997951 27.865993 39 24 C 39.004437 15.633372 39.148154 9.0461529 32 9 z M 25.175781 17.191406 C 25.163012 17.345982 25.151504 17.502412 25.140625 17.660156 C 25.151474 17.502535 25.163043 17.345863 25.175781 17.191406 z M 25.064453 19.136719 C 25.058231 19.306025 25.051815 19.476297 25.046875 19.648438 C 25.051774 19.476959 25.058283 19.305385 25.064453 19.136719 z M 25.046875 19.648438 C 25.038039 19.956328 25.030872 20.269463 25.025391 20.585938 C 25.030837 20.269318 25.038076 19.956467 25.046875 19.648438 z M 25.023438 20.744141 C 25.018122 21.080992 25.014557 21.421922 25.011719 21.767578 C 25.014529 21.421446 25.018152 21.081448 25.023438 20.744141 z M 25.011719 21.767578 C 25.005749 22.494624 25.002849 23.239089 25 24 C 24.999781 24.058457 25.000734 24.117667 25.001953 24.175781 C 25.000732 24.117628 25.001735 24.058497 25.001953 24 C 25.004807 23.2396 25.005819 22.494186 25.011719 21.767578 z M 25.021484 24.566406 C 25.029179 24.666411 25.038891 24.764506 25.050781 24.863281 C 25.038941 24.764848 25.029158 24.666062 25.021484 24.566406 z M 25.050781 24.863281 C 25.057584 24.919794 25.066065 24.977116 25.074219 25.033203 C 25.066054 24.977018 25.057591 24.919894 25.050781 24.863281 z M 25.130859 25.367188 C 25.152559 25.477961 25.176222 25.58844 25.203125 25.697266 C 25.176297 25.588642 25.152506 25.477751 25.130859 25.367188 z M 25.203125 25.697266 C 25.229935 25.805718 25.259174 25.913146 25.291016 26.019531 C 25.259141 25.912982 25.229953 25.805889 25.203125 25.697266 z M 25.291016 26.019531 C 25.323018 26.126454 25.357582 26.231237 25.394531 26.335938 C 25.357745 26.231595 25.322891 26.126081 25.291016 26.019531 z M 25.394531 26.335938 C 25.411559 26.384188 25.429209 26.432711 25.447266 26.480469 C 25.429208 26.432667 25.411558 26.384233 25.394531 26.335938 z M 25.576172 26.796875 C 25.620068 26.897634 25.666377 26.997481 25.714844 27.095703 C 25.666372 26.997459 25.620071 26.897658 25.576172 26.796875 z M 25.714844 27.095703 C 25.73912 27.144901 25.763665 27.193651 25.789062 27.242188 C 25.763709 27.193725 25.73908 27.144825 25.714844 27.095703 z M 25.789062 27.242188 C 25.814566 27.290926 25.840571 27.338664 25.867188 27.386719 C 25.840733 27.338933 25.814416 27.29065 25.789062 27.242188 z M 26.058594 27.712891 C 26.078326 27.744358 26.098921 27.775512 26.119141 27.806641 C 26.098778 27.775291 26.078463 27.744584 26.058594 27.712891 z M 26.119141 27.806641 C 26.149006 27.85262 26.180025 27.898134 26.210938 27.943359 C 26.180249 27.898446 26.148796 27.852297 26.119141 27.806641 z M 26.5 28.337891 C 26.533364 28.380048 26.567253 28.421527 26.601562 28.462891 C 26.566911 28.421115 26.533686 28.380475 26.5 28.337891 z M 26.740234 28.625 C 26.800986 28.693871 26.864346 28.761699 26.927734 28.828125 C 26.86427 28.761608 26.801055 28.693969 26.740234 28.625 z M 27.521484 29.382812 C 27.563485 29.417712 27.605615 29.452398 27.648438 29.486328 C 27.60586 29.452587 27.563249 29.417513 27.521484 29.382812 z M 27.648438 29.486328 C 27.691246 29.520247 27.733731 29.553005 27.777344 29.585938 C 27.73397 29.553173 27.691015 29.520069 27.648438 29.486328 z M 27.777344 29.585938 C 27.853511 29.643452 27.931217 29.699471 28.009766 29.753906 C 27.930969 29.699293 27.853743 29.64365 27.777344 29.585938 z M 29.529297 30.552734 C 29.569256 30.567782 29.610089 30.581367 29.650391 30.595703 C 29.610049 30.581351 29.569295 30.5678 29.529297 30.552734 z M 29.828125 30.65625 C 29.874336 30.671292 29.920172 30.685116 29.966797 30.699219 C 29.920598 30.685233 29.873917 30.671158 29.828125 30.65625 z M 29.966797 30.699219 C 30.0198 30.715251 30.073431 30.731291 30.126953 30.746094 C 30.073146 30.731206 30.020079 30.715349 29.966797 30.699219 z "
     transform="scale(0.26458333)" />
  <path
     id="path873-3"
     style="fill:#00ccff;stroke-width:0.999969"
     d="M 32 33 C 24.928192 32.95434 25.031748 39.536406 25 48 C 24.985529 51.865965 28.134235 55 32 55 C 35.612733 55 38.583776 52.261829 38.958984 48.748047 C 38.774113 48.597629 38.596099 48.435754 38.423828 48.263672 C 32.624315 42.470295 27.938519 37.979586 32.474609 33.015625 C 32.319643 33.007879 32.162408 33.001049 32 33 z M 32.474609 33.015625 C 32.578775 33.020822 32.68038 33.026976 32.78125 33.035156 C 32.680473 33.026976 32.578676 33.020827 32.474609 33.015625 z M 32.78125 33.035156 C 32.98299 33.051517 33.178313 33.073473 33.367188 33.101562 C 33.178324 33.073458 32.98298 33.05153 32.78125 33.035156 z M 33.367188 33.101562 C 33.461625 33.115607 33.555184 33.131511 33.646484 33.148438 C 33.555078 33.131479 33.461739 33.115633 33.367188 33.101562 z M 33.646484 33.148438 C 33.737785 33.165364 33.827799 33.183351 33.916016 33.203125 C 33.827851 33.183351 33.737731 33.165367 33.646484 33.148438 z M 34.046875 33.234375 C 34.090222 33.244967 34.133188 33.256284 34.175781 33.267578 C 34.133076 33.25625 34.090339 33.244998 34.046875 33.234375 z M 34.175781 33.267578 C 34.346152 33.312753 34.511357 33.363696 34.669922 33.419922 C 34.510903 33.363467 34.346683 33.312911 34.175781 33.267578 z M 34.787109 33.462891 C 34.826029 33.477627 34.864139 33.4924 34.902344 33.507812 C 34.864243 33.492429 34.825921 33.477602 34.787109 33.462891 z M 35.015625 33.554688 C 35.165613 33.619023 35.310297 33.68876 35.449219 33.763672 C 35.310483 33.68884 35.165399 33.618969 35.015625 33.554688 z M 35.449219 33.763672 C 35.483949 33.7824 35.518679 33.802887 35.552734 33.822266 C 35.518427 33.802731 35.484212 33.782546 35.449219 33.763672 z M 35.849609 34.003906 C 35.913749 34.046515 35.977504 34.091585 36.039062 34.136719 C 35.977222 34.091335 35.914057 34.046739 35.849609 34.003906 z M 36.21875 34.275391 C 36.27778 34.323016 36.336023 34.371792 36.392578 34.421875 C 36.33577 34.371516 36.278058 34.323268 36.21875 34.275391 z M 36.392578 34.421875 C 36.532234 34.545549 36.665894 34.676151 36.791016 34.814453 C 36.665964 34.676088 36.532161 34.545614 36.392578 34.421875 z M 37.087891 35.173828 C 37.224851 35.354714 37.352617 35.547348 37.470703 35.748047 C 37.352174 35.546289 37.225468 35.355588 37.087891 35.173828 z M 37.585938 35.953125 C 37.6521 36.075435 37.715258 36.201213 37.775391 36.330078 C 37.715191 36.200958 37.652187 36.075669 37.585938 35.953125 z M 38.238281 37.566406 C 38.263236 37.650247 38.287195 37.736527 38.310547 37.822266 C 38.287112 37.736152 38.263332 37.650606 38.238281 37.566406 z M 38.310547 37.822266 C 38.333899 37.908004 38.357103 37.994429 38.378906 38.082031 C 38.357113 37.994389 38.33389 37.908042 38.310547 37.822266 z M 38.378906 38.082031 C 38.400709 38.169634 38.421099 38.258223 38.441406 38.347656 C 38.421106 38.258166 38.400704 38.16969 38.378906 38.082031 z M 38.441406 38.347656 C 38.461713 38.437089 38.481137 38.525958 38.5 38.617188 C 38.481241 38.526416 38.461594 38.43665 38.441406 38.347656 z M 38.5 38.617188 C 38.518863 38.708417 38.537215 38.801539 38.554688 38.894531 C 38.537181 38.801286 38.518904 38.708661 38.5 38.617188 z M 38.554688 38.894531 C 38.570708 38.979793 38.586668 39.065628 38.601562 39.152344 C 38.586656 39.06547 38.570724 38.979946 38.554688 38.894531 z "
     transform="scale(0.26458333)" />
  <path
     id="path873-6"
     style="fill:#ffd42a;stroke-width:0.999969"
     d="M 43.892578 13.611328 C 42.206462 13.615136 40.502925 14.476292 38.707031 15.845703 C 39.02043 18.181028 39.001603 20.973736 39 24 C 38.998023 27.72483 36.089804 30.768892 32.419922 30.986328 C 32.512252 31.090253 32.607475 31.193412 32.707031 31.292969 C 35.440537 34.026476 39.870353 34.02519 42.605469 31.292969 C 48.524693 25.380007 53.285542 20.82347 48.263672 15.736328 C 46.78873 14.242216 45.346681 13.608045 43.892578 13.611328 z M 37.578125 16.759766 C 37.507278 16.820127 37.436405 16.881718 37.365234 16.943359 C 37.436597 16.881562 37.507087 16.820279 37.578125 16.759766 z M 32.707031 21.392578 C 32.638303 21.460793 32.571132 21.531244 32.505859 21.601562 C 32.571438 21.530883 32.637961 21.461133 32.707031 21.392578 z M 31.482422 23.03125 C 31.464582 23.064383 31.446951 23.0975 31.429688 23.130859 C 31.446913 23.097561 31.464622 23.064323 31.482422 23.03125 z M 31.339844 23.3125 C 31.318882 23.356106 31.297344 23.399412 31.277344 23.443359 C 31.297426 23.399206 31.31879 23.35631 31.339844 23.3125 z M 30.685547 25.658203 C 30.682907 25.685521 30.680053 25.712892 30.677734 25.740234 C 30.680065 25.712649 30.68289 25.685763 30.685547 25.658203 z M 30.662109 25.980469 C 30.66027 26.016912 30.659475 26.053379 30.658203 26.089844 C 30.659458 26.053445 30.660289 26.016847 30.662109 25.980469 z M 30.65625 26.203125 C 30.65487 26.276726 30.653368 26.350216 30.654297 26.423828 C 30.653347 26.350337 30.654899 26.276605 30.65625 26.203125 z M 30.65625 26.544922 C 30.658372 26.616062 30.661737 26.686747 30.666016 26.757812 C 30.661741 26.687013 30.658384 26.615795 30.65625 26.544922 z M 30.681641 26.951172 C 30.685364 26.993468 30.68887 27.035888 30.693359 27.078125 C 30.688881 27.036051 30.685359 26.993304 30.681641 26.951172 z M 30.767578 27.601562 C 30.77691 27.652579 30.78836 27.703066 30.798828 27.753906 C 30.788268 27.702702 30.776985 27.652945 30.767578 27.601562 z M 30.833984 27.914062 C 30.845823 27.965453 30.856132 28.017194 30.869141 28.068359 C 30.856095 28.017086 30.845855 27.965561 30.833984 27.914062 z M 31.011719 28.546875 C 31.028394 28.597126 31.044658 28.647328 31.0625 28.697266 C 31.044806 28.647737 31.028266 28.596711 31.011719 28.546875 z M 31.408203 29.5 C 31.437121 29.557146 31.467467 29.613423 31.498047 29.669922 C 31.467585 29.613653 31.437016 29.556911 31.408203 29.5 z M 31.623047 29.892578 C 31.639931 29.921203 31.656504 29.950083 31.673828 29.978516 C 31.656427 29.949955 31.640004 29.921333 31.623047 29.892578 z M 31.992188 30.455078 C 32.088948 30.588001 32.189635 30.718366 32.296875 30.845703 C 32.189706 30.71842 32.088893 30.587941 31.992188 30.455078 z "
     transform="scale(0.26458333)" />
  <path
     id="path873-3-7"
     style="opacity:1;fill:#2a7fff;stroke-width:0.999969"
     d="M 26.921875 30.582031 C 23.477959 30.589819 19.96008 34.171098 15.736328 38.363281 C 12.992445 41.086699 13.002819 45.530163 15.736328 48.263672 C 18.469834 50.997177 22.899648 50.995892 25.634766 48.263672 C 27.357555 46.542709 28.97919 44.936049 30.292969 43.398438 C 28.97952 44.935946 27.355379 46.540978 25.632812 48.261719 C 25.442677 48.451651 25.244446 48.627475 25.039062 48.791016 C 25.01052 48.531063 24.997044 48.265826 24.998047 47.998047 C 25.029148 39.70695 24.930105 33.223863 31.574219 33.005859 C 31.483374 32.906703 31.39124 32.80658 31.292969 32.707031 C 29.818023 31.212916 28.375973 30.578743 26.921875 30.582031 z M 31.574219 33.005859 C 31.645269 33.083466 31.714677 33.160899 31.78125 33.238281 C 31.714357 33.160564 31.645629 33.083803 31.574219 33.005859 z M 31.78125 33.238281 C 31.914395 33.393045 32.03869 33.547225 32.154297 33.701172 C 32.03871 33.547349 31.914353 33.392922 31.78125 33.238281 z M 32.154297 33.701172 C 32.298805 33.893605 32.4289 34.085997 32.546875 34.277344 C 32.428786 34.085935 32.298945 33.89367 32.154297 33.701172 z M 32.546875 34.277344 C 32.735635 34.583499 32.89157 34.887327 33.015625 35.191406 C 32.891577 34.887865 32.735424 34.582959 32.546875 34.277344 z M 33.015625 35.191406 C 34.085596 37.814091 32.822529 40.377292 30.498047 43.15625 C 32.824191 40.376068 34.087947 37.815339 33.015625 35.191406 z "
     transform="scale(0.26458333)" />
  <path
     id="path873-6-3"
     style="fill:#ff0000;stroke-width:0.999969"
     d="M 20.164062 13.611328 C 18.70996 13.608045 17.269863 14.242216 15.794922 15.736328 C 12.700435 18.871034 13.320302 21.803457 15.636719 24.976562 C 15.751503 24.971226 15.866239 24.968315 15.982422 24.96875 C 24.311329 24.999992 30.818995 24.90037 30.980469 31.636719 C 31.10692 31.527113 31.231383 31.413148 31.351562 31.292969 C 34.085069 28.559462 34.093494 24.115995 31.349609 21.392578 C 27.125899 17.200362 23.607989 13.619105 20.164062 13.611328 z M 16.863281 26.511719 C 16.946487 26.608437 17.031613 26.705459 17.117188 26.802734 C 17.031798 26.705663 16.946312 26.608234 16.863281 26.511719 z M 17.214844 26.914062 C 17.295484 27.005005 17.376407 27.096045 17.458984 27.1875 C 17.376433 27.096065 17.295459 27.004985 17.214844 26.914062 z M 18.234375 28.025391 C 18.348053 28.145791 18.463758 28.267285 18.580078 28.388672 C 18.463439 28.26695 18.348358 28.146121 18.234375 28.025391 z M 21.960938 31.753906 C 22.00443 31.78965 22.047656 31.824838 22.091797 31.859375 C 22.047447 31.824659 22.004633 31.789841 21.960938 31.753906 z "
     transform="scale(0.26458333)" />
  <path
     id="path873-3-7-5"
     style="opacity:1;fill:#00d455;stroke-width:0.999969"
     d="M 37.302734 30.585938 C 37.346845 30.587525 37.391407 30.589061 37.435547 30.591797 C 37.391199 30.589058 37.347053 30.587516 37.302734 30.585938 z M 37.482422 30.595703 C 37.527885 30.598935 37.573643 30.60299 37.619141 30.607422 C 37.573274 30.602951 37.528253 30.598955 37.482422 30.595703 z M 37.980469 30.654297 C 38.01764 30.66044 38.054596 30.666919 38.091797 30.673828 C 38.054686 30.666935 38.01755 30.660429 37.980469 30.654297 z M 38.919922 30.888672 C 38.962617 30.902732 39.004124 30.916668 39.046875 30.931641 C 39.004505 30.916812 38.962237 30.902604 38.919922 30.888672 z M 39.285156 31.019531 C 39.376492 31.054988 39.468922 31.093379 39.560547 31.132812 C 39.468729 31.093312 39.376682 31.055038 39.285156 31.019531 z M 39.59375 31.146484 C 39.642792 31.167833 39.691104 31.19043 39.740234 31.212891 C 39.691205 31.190487 39.642691 31.167781 39.59375 31.146484 z M 40.742188 31.740234 C 40.795966 31.772132 40.850384 31.804844 40.904297 31.837891 C 40.850082 31.804667 40.796266 31.772296 40.742188 31.740234 z M 40.904297 31.837891 C 41.016131 31.906441 41.127793 31.977421 41.240234 32.050781 C 41.127891 31.977505 41.016033 31.906365 40.904297 31.837891 z M 32.998047 32.478516 C 32.9206 32.55242 32.843254 32.628394 32.765625 32.707031 C 27.743752 37.794173 32.502632 42.350703 38.421875 48.263672 C 41.156991 50.995892 45.586803 50.997177 48.320312 48.263672 C 50.972306 45.611678 51.061324 41.351986 48.558594 38.613281 C 46.140562 38.990969 43.190441 38.968498 39.978516 38.966797 C 36.284437 38.96484 33.259841 36.105469 32.998047 32.478516 z M 48.558594 38.613281 C 48.481666 38.529101 48.402137 38.444496 48.320312 38.363281 C 48.31998 38.362951 48.318692 38.363612 48.318359 38.363281 C 48.400791 38.445108 48.481113 38.528431 48.558594 38.613281 z M 48.318359 38.363281 C 47.825311 37.873916 47.345927 37.397698 46.871094 36.929688 C 47.345111 37.396917 47.826172 37.874773 48.318359 38.363281 z M 42.089844 32.644531 C 42.203972 32.729124 42.318723 32.815527 42.433594 32.904297 C 42.319039 32.815787 42.203661 32.728887 42.089844 32.644531 z M 42.433594 32.904297 C 42.515382 32.967501 42.597506 33.032413 42.679688 33.097656 C 42.597673 33.032559 42.515217 32.967363 42.433594 32.904297 z M 44.248047 34.431641 C 44.46663 34.62852 44.686276 34.830209 44.908203 35.037109 C 44.686348 34.830302 44.466563 34.628431 44.248047 34.431641 z M 45.273438 35.380859 C 45.395635 35.496533 45.519292 35.612245 45.642578 35.730469 C 45.519002 35.611974 45.39592 35.496792 45.273438 35.380859 z "
     transform="scale(0.26458333)" />
  <path
     id="path873-3-78-5"
     style="fill:#00d0aa;stroke-width:0.264575;fill-opacity:1"
     d="m 8.5922399,8.7353836 c -1.2001738,1.3133814 0.03961,2.5015484 1.5740641,4.0343794 0.04558,0.04553 0.09268,0.08836 0.141594,0.128158 0.0069,-0.06495 0.01082,-0.130629 0.01085,-0.197404 0.0011,-2.163478 0.03736,-3.8771277 -1.7265101,-3.9651334 z" />
  <path
     id="path873-6-2"
     style="fill:#7fff2a;stroke-width:0.999969"
     d="M 43.462891 24.996094 C 43.761518 25.001547 44.058679 25.007133 44.349609 25.015625 C 44.057782 25.007179 43.762464 25.001485 43.462891 24.996094 z M 44.349609 25.015625 C 44.446813 25.018462 44.542366 25.022154 44.638672 25.025391 C 44.54284 25.022196 44.446331 25.018424 44.349609 25.015625 z M 46.34375 25.109375 C 46.503803 25.12054 46.661581 25.133368 46.818359 25.146484 C 46.662084 25.133445 46.503278 25.12047 46.34375 25.109375 z M 46.818359 25.146484 C 46.953485 25.15779 47.088085 25.168771 47.220703 25.181641 C 47.088076 25.168795 46.953494 25.15776 46.818359 25.146484 z M 47.738281 25.238281 C 47.878957 25.254721 48.018742 25.270469 48.15625 25.289062 C 48.018572 25.27045 47.879135 25.254726 47.738281 25.238281 z M 48.183594 25.292969 C 46.752581 27.173807 44.756345 29.142415 42.605469 31.291016 C 39.96438 33.929309 35.742473 34.020452 32.994141 31.5625 C 32.986477 31.696708 32.982422 31.832657 32.982422 31.96875 C 32.982421 35.834512 36.116427 38.964748 39.982422 38.966797 C 48.349049 38.971234 54.936274 39.116904 54.982422 31.96875 C 55.011609 27.448366 52.330898 25.859018 48.183594 25.292969 z M 32.994141 31.5625 C 32.997418 31.505028 33.001205 31.447724 33.005859 31.390625 C 33.001187 31.447845 32.997429 31.504905 32.994141 31.5625 z M 34.128906 28.125 C 34.099313 28.170089 34.06959 28.215914 34.041016 28.261719 C 34.069759 28.215603 34.099131 28.170391 34.128906 28.125 z M 34.041016 28.261719 C 34.012456 28.3075 33.984557 28.35391 33.957031 28.400391 C 33.984726 28.353566 34.012273 28.307835 34.041016 28.261719 z M 33.957031 28.400391 C 33.929019 28.447692 33.901925 28.49496 33.875 28.542969 C 33.90163 28.495452 33.929336 28.447215 33.957031 28.400391 z M 33.875 28.542969 C 33.848516 28.590192 33.822291 28.637657 33.796875 28.685547 C 33.822424 28.637356 33.84837 28.590485 33.875 28.542969 z M 33.650391 28.978516 C 33.626917 29.028233 33.604363 29.078558 33.582031 29.128906 C 33.604238 29.078791 33.627054 29.028007 33.650391 28.978516 z M 33.326172 29.792969 C 33.314275 29.829451 33.304281 29.865602 33.292969 29.902344 C 33.304227 29.865763 33.314334 29.829293 33.326172 29.792969 z M 33.201172 30.222656 C 33.160211 30.382365 33.125484 30.543172 33.095703 30.707031 C 33.125335 30.544052 33.160486 30.381534 33.201172 30.222656 z M 33.066406 30.882812 C 33.048969 30.994867 33.033546 31.106978 33.021484 31.220703 C 33.033515 31.107284 33.049032 30.994572 33.066406 30.882812 z "
     transform="scale(0.26458333)" />
  <path
     id="path873-3-7-5-6-2"
     style="fill:#40ea3f;fill-opacity:1;stroke-width:0.264575"
     d="m 9.8249748,8.0915711 c -0.364304,-8.24e-4 -0.725338,0.149142 -1.09399,0.500744 0.06877,0.960118 0.869176,1.7172069 1.8469162,1.7177249 0.849822,4.5e-4 1.630374,0.0064 2.270145,-0.09353 -0.0205,-0.02245 -0.04175,-0.04449 -0.06356,-0.06614 C 11.666951,9.0411881 10.73618,8.0936411 9.8249768,8.0915811 Z" />
  <path
     id="path873-3-78-5-5"
     style="fill:#20dd75;fill-opacity:1;stroke-width:0.264575"
     d="M 8.7483033,8.7477863 C 8.8676518,9.5080213 9.4493652,10.114303 10.196793,10.270691 10.032574,9.4196044 9.647831,8.8489286 8.7483033,8.7477863 Z" />
  <path
     id="path873-6-26-8"
     style="fill:#bfea2a;fill-opacity:1;stroke-width:0.264575"
     d="m 10.578163,6.6059795 c -0.9869036,-0.00369 -1.7929606,0.7719126 -1.8484656,1.745113 0.727163,0.6503332 1.8442086,0.6262185 2.5429966,-0.07183 0.569086,-0.5684838 1.097257,-1.0893449 1.475879,-1.5869833 -0.619345,-0.084532 -1.362493,-0.083276 -2.17041,-0.0863 z" />
  <path
     id="path873-3-7-5-6-2-69"
     style="fill:#80ea34;fill-opacity:1;stroke-width:0.264575"
     d="m 9.8249772,8.0915809 c -0.317536,-7.181e-4 -0.63262,0.1131014 -0.952398,0.3751709 0.621706,0.4540488 1.4621318,0.4721588 2.1016818,0.054777 C 10.580022,8.253966 10.200825,8.0924307 9.8249772,8.0915809 Z" />
  <path
     id="path873-3-7-9"
     style="opacity:1;fill:#ab37c8;stroke-width:0.999969"
     d="M 15.982422 24.96875 C 12.116456 24.954279 8.9824219 28.102985 8.9824219 31.96875 C 8.9824219 35.580176 11.716568 38.550782 15.228516 38.927734 C 15.38609 38.733297 15.554605 38.54364 15.736328 38.363281 C 19.96008 34.171103 23.477959 30.589817 26.921875 30.582031 C 28.269704 30.578983 29.607942 31.125037 30.970703 32.394531 C 30.977003 32.255239 30.981484 32.114002 30.982422 31.96875 C 31.028082 24.896942 24.446016 25.000498 15.982422 24.96875 z M 30.960938 32.574219 C 30.95819 32.617896 30.954457 32.661995 30.951172 32.705078 C 30.954498 32.661548 30.958161 32.618356 30.960938 32.574219 z M 30.865234 33.441406 C 30.857963 33.486225 30.849732 33.530123 30.841797 33.574219 C 30.849692 33.530331 30.857998 33.48601 30.865234 33.441406 z M 29.345703 36.589844 C 29.320903 36.614532 29.296798 36.637931 29.271484 36.662109 C 29.296531 36.638176 29.32116 36.614276 29.345703 36.589844 z M 28.455078 37.302734 C 28.389912 37.344791 28.323242 37.385819 28.255859 37.425781 C 28.32329 37.38578 28.389868 37.344832 28.455078 37.302734 z M 28.050781 37.542969 C 27.981215 37.58089 27.909606 37.618362 27.837891 37.654297 C 27.910166 37.618088 27.980688 37.581195 28.050781 37.542969 z M 27.837891 37.654297 C 27.789558 37.678515 27.740702 37.701274 27.691406 37.724609 C 27.740613 37.701317 27.789643 37.678468 27.837891 37.654297 z M 27.164062 37.951172 C 27.088014 37.980723 27.011558 38.009247 26.933594 38.037109 C 27.011412 38.009292 27.088153 37.980672 27.164062 37.951172 z M 26.431641 38.203125 C 26.349082 38.227821 26.266047 38.250303 26.181641 38.273438 C 26.265845 38.25035 26.349276 38.227767 26.431641 38.203125 z M 26.181641 38.273438 C 26.095839 38.296954 26.009552 38.319841 25.921875 38.341797 C 26.009489 38.319846 26.0959 38.296947 26.181641 38.273438 z M 25.921875 38.341797 C 25.845748 38.360861 25.768923 38.380513 25.691406 38.398438 C 25.769072 38.380472 25.845604 38.360906 25.921875 38.341797 z M 25.382812 38.464844 C 25.292093 38.4837 25.19989 38.502056 25.107422 38.519531 C 25.200021 38.502027 25.291967 38.483733 25.382812 38.464844 z M 25.107422 38.519531 C 25.014322 38.537125 24.921011 38.554066 24.826172 38.570312 C 24.920641 38.554119 25.014679 38.537062 25.107422 38.519531 z M 24.539062 38.617188 C 24.442519 38.63214 24.344308 38.646444 24.246094 38.660156 C 24.344705 38.646385 24.442136 38.63221 24.539062 38.617188 z M 24.246094 38.660156 C 24.147879 38.673868 24.04907 38.686694 23.949219 38.699219 C 24.048892 38.68671 24.148051 38.673848 24.246094 38.660156 z M 23.949219 38.699219 C 23.849367 38.711743 23.749891 38.722985 23.648438 38.734375 C 23.749422 38.723025 23.849822 38.711693 23.949219 38.699219 z M 20.353516 38.9375 C 19.919323 38.948509 19.47616 38.956543 19.025391 38.960938 C 19.476216 38.956528 19.919267 38.948529 20.353516 38.9375 z M 15.603516 38.957031 C 15.656725 38.959887 15.710154 38.961228 15.763672 38.962891 C 15.710236 38.961326 15.656665 38.959755 15.603516 38.957031 z M 15.982422 38.966797 C 16.751255 38.967205 17.503195 38.969797 18.238281 38.966797 C 17.503571 38.969771 16.750855 38.967222 15.982422 38.966797 z "
     transform="scale(0.26458333)" />
  <path
     id="path873-3-7-4"
     style="fill:#6b5be3;fill-opacity:1;stroke-width:0.264575"
     d="m 7.1230794,8.0914958 c -0.9112028,0.00206 -1.8419749,0.9496078 -2.9595093,2.0587882 -0.048081,0.04772 -0.092667,0.0979 -0.1343586,0.149345 0.065439,0.007 0.1321739,0.0103 0.199471,0.01034 2.1686898,0.0012 3.8852908,0.03791 3.9656493,-1.7389119 C 7.8337679,8.2351701 7.4796925,8.0906894 7.1230794,8.0914958 Z" />
  <path
     id="path873-6-3-3"
     style="fill:#d51c64;fill-opacity:1;stroke-width:0.264575"
     d="m 4.2285735,6.6064631 c -0.03074,-1.15e-4 -0.0611,6.88e-4 -0.09147,0.0021 0.381735,0.5229523 0.937794,1.0707213 1.538924,1.6712163 0.69176,0.691026 1.7932426,0.721822 2.5207756,0.09147 C 8.1544031,6.5883971 6.4324755,6.6147661 4.2285705,6.6064991 Z" />
  <path
     id="path873-3-7-4-8"
     style="fill:#a03ba3;fill-opacity:1;stroke-width:0.999969"
     d="M 26.921875 30.582031 C 25.50106 30.585243 24.06849 31.197356 22.578125 32.208984 C 24.99537 33.787698 28.173224 33.718255 30.523438 32.001953 C 29.314671 31.01129 28.121775 30.579318 26.921875 30.582031 z "
     transform="scale(0.26458333)" />
  <path
     id="path873-1"
     style="fill:#ff2900;fill-opacity:1;stroke-width:0.264575"
     d="m 6.6996467,4.1868874 c -0.08353,0.617886 -0.08173,1.3584185 -0.08475,2.1631756 -0.0037,0.9905547 0.777186,1.7993747 1.755448,1.8494987 0.647229,-0.72745 0.624422,-1.8447317 -0.07545,-2.5393793 -0.573338,-0.5690629 -1.0976,-1.0951369 -1.595252,-1.473295 z" />
  <path
     id="path873-0"
     style="fill:#ff9d15;fill-opacity:1;stroke-width:0.264575"
     d="m 10.241248,4.1925714 c -0.4953681,0.3777298 -1.0171061,0.9014701 -1.5875001,1.467611 -0.699518,0.6943 -0.7222,1.810871 -0.07596,2.538346 0.97099,-0.05753 1.7404561,-0.862938 1.7409791,-1.848466 4.24e-4,-0.800699 0.0054,-1.5396029 -0.07752,-2.157491 z" />
  <path
     id="path873-6-26-8-2-8"
     style="fill:#dfc420;fill-opacity:1;stroke-width:0.264575"
     d="M 10.298454,6.6260306 C 9.4988022,6.7451498 8.8672292,7.3799249 8.7471272,8.1804577 9.5467832,8.0589785 10.178499,7.4263478 10.298454,6.6260306 Z" />
  <path
     id="path873-0-2-0"
     style="fill:#ff630a;fill-opacity:1;stroke-width:0.264575"
     d="M 8.4744181,5.8663085 C 7.9882552,6.5174126 7.9903049,7.4182156 8.4749348,8.0713417 8.9594337,7.4182631 8.9605481,6.5173692 8.4744181,5.8663085 Z" />
  <path
     id="path873-3-2"
     style="fill:#15a6ff;fill-opacity:1;stroke-width:0.264575"
     d="m 8.3539315,8.7328413 c -1.7579218,0.05768 -1.7317167,1.7729967 -1.7399455,3.9666827 -2.653e-4,0.07085 0.0033,0.141028 0.010852,0.209807 0.054341,-0.04327 0.1067896,-0.08979 0.1570964,-0.140043 1.5351995,-1.533572 2.7751134,-2.72231 1.5719971,-4.0364467 z" />
  <path
     id="path873-3-7-7"
     style="fill:#0bbbd5;fill-opacity:1;stroke-width:0.264575"
     d="m 8.4744181,8.8743937 c -0.532976,0.674709 -0.434451,1.3204033 0,2.0019463 0.434424,-0.6815 0.532864,-1.3272833 0,-2.0019463 z" />
  <path
     id="path873-6-3-3-5"
     style="fill:#ea2332;fill-opacity:1;stroke-width:0.264575"
     d="M 6.6538575,6.7339558 C 6.8099659,7.4826621 7.4219694,8.0651079 8.1855468,8.1814129 8.0956853,7.2817941 7.5205412,6.8984266 6.6538575,6.7339558 Z" />
  <path
     id="path873-3-7-4-7"
     style="fill:#4080f1;fill-opacity:1;stroke-width:0.264575"
     d="M 8.1808154,8.7442066 C 7.3247232,8.8327366 6.938449,9.3627856 6.7633308,10.166342 7.5552031,9.991281 8.0826612,9.6035486 8.1808154,8.7442066 Z" />
  <path
     id="path873-9"
     style="opacity:0.3;fill:url(#linearGradient76917);stroke-width:0.999969;fill-opacity:1"
     d="M 27.855469 17.986328 C 27.855469 17.986328 27.855469 17.988281 27.855469 17.988281 C 27.883577 18.014383 27.911296 18.040139 27.939453 18.066406 C 27.91139 18.040259 27.883475 18.012331 27.855469 17.986328 z M 50.349609 20.638672 C 50.205003 22.163433 49.400699 23.695843 48.185547 25.292969 C 48.405407 25.322997 48.61865 25.358463 48.830078 25.394531 C 49.912893 23.772933 50.51122 22.207548 50.349609 20.638672 z M 13.708984 20.662109 C 13.56703 22.107676 14.069212 23.55027 15 25.037109 C 15.209504 25.008206 15.421695 24.986325 15.636719 24.976562 C 14.559321 23.500708 13.849321 22.078401 13.708984 20.662109 z M 32.029297 30.503906 C 32.008271 30.532251 31.988241 30.561679 31.966797 30.589844 C 31.98872 30.562145 32.010275 30.534129 32.03125 30.505859 L 32.029297 30.503906 z M 30.935547 30.921875 C 30.938797 30.954681 30.94239 30.986347 30.945312 31.019531 C 30.945436 31.020914 30.947143 31.022041 30.947266 31.023438 C 30.944242 30.988968 30.938938 30.955966 30.935547 30.921875 z M 32.419922 30.986328 C 32.280838 30.994567 32.141158 31 32 31 C 31.87853 31 31.756692 30.996357 31.636719 30.990234 C 31.545247 31.093075 31.450117 31.194414 31.351562 31.292969 C 31.231385 31.41315 31.10692 31.527112 30.980469 31.636719 L 30.980469 31.638672 C 30.983044 31.746967 30.983144 31.856891 30.982422 31.96875 C 30.981477 32.113332 30.976977 32.253915 30.970703 32.392578 L 30.970703 32.394531 C 31.015598 32.436354 31.060535 32.482172 31.105469 32.525391 C 31.189073 32.449952 31.27111 32.373423 31.351562 32.292969 C 31.450117 32.194414 31.545247 32.093075 31.636719 31.990234 C 31.756692 31.996357 31.87853 32 32 32 C 32.141158 32 32.280838 31.994567 32.419922 31.986328 C 32.512252 32.090254 32.607475 32.193412 32.707031 32.292969 C 32.787033 32.372971 32.870097 32.448374 32.953125 32.523438 C 32.968215 32.508872 32.982952 32.492919 32.998047 32.478516 C 32.997954 32.477242 32.998139 32.475897 32.998047 32.474609 L 33 32.472656 C 32.988094 32.305782 32.982422 32.13867 32.982422 31.96875 C 32.982422 31.832657 32.98643 31.696707 32.994141 31.5625 C 32.896871 31.47545 32.800473 31.38641 32.707031 31.292969 C 32.607475 31.193412 32.512252 31.090254 32.419922 30.986328 z M 32.029297 31.503906 L 32.03125 31.505859 C 32.010275 31.534129 31.98872 31.562145 31.966797 31.589844 C 31.988241 31.561679 32.008271 31.532251 32.029297 31.503906 z M 54.970703 32.408203 C 54.781635 36.484299 52.309308 38.028645 48.558594 38.613281 C 48.813246 38.891946 49.04117 39.187278 49.242188 39.494141 C 52.733911 38.80343 54.955685 37.109974 54.982422 32.96875 C 54.983666 32.775585 54.979258 32.590814 54.970703 32.408203 z M 9.0019531 32.480469 C 8.9907945 32.642116 8.9824219 32.804318 8.9824219 32.96875 C 8.9824219 36.364141 11.399632 39.194387 14.607422 39.833984 C 14.78802 39.519798 14.99284 39.216353 15.226562 38.927734 C 11.882692 38.567886 9.2455737 35.857053 9.0019531 32.480469 z M 50.357422 43.798828 C 50.243166 45.425544 49.562942 47.021043 48.320312 48.263672 C 45.759339 50.824638 41.709237 50.984794 38.958984 48.748047 C 38.583776 52.261828 35.612733 55 32 55 C 28.401995 55 25.424466 52.284108 25.041016 48.791016 C 22.292031 50.980349 18.279943 50.807286 15.736328 48.263672 C 14.49524 47.022585 13.818483 45.42971 13.703125 43.804688 C 13.563464 45.761869 14.241027 47.768372 15.736328 49.263672 C 18.279943 51.807286 22.292031 51.980349 25.041016 49.791016 C 25.424466 53.284108 28.401995 56 32 56 C 35.612733 56 38.583776 53.261828 38.958984 49.748047 C 41.709237 51.984794 45.759342 51.824638 48.320312 49.263672 C 49.817515 47.76647 50.499163 45.757887 50.357422 43.798828 z "
     transform="scale(0.26458333)" />
</svg>
