<?xml version="1.0" encoding="UTF-8" standalone="no"?>
<!-- Created with Inkscape (http://www.inkscape.org/) -->

<svg
   width="64"
   height="64"
   viewBox="0 0 16.933333 16.933333"
   version="1.1"
   id="svg5"
   inkscape:version="1.1.1 (3bf5ae0d25, 2021-09-20, custom)"
   sodipodi:docname="org.gnome.SoundRecorder.svg"
   xmlns:inkscape="http://www.inkscape.org/namespaces/inkscape"
   xmlns:sodipodi="http://sodipodi.sourceforge.net/DTD/sodipodi-0.dtd"
   xmlns:xlink="http://www.w3.org/1999/xlink"
   xmlns="http://www.w3.org/2000/svg"
   xmlns:svg="http://www.w3.org/2000/svg">
  <sodipodi:namedview
     id="namedview7"
     pagecolor="#ffffff"
     bordercolor="#666666"
     borderopacity="1.0"
     inkscape:pageshadow="2"
     inkscape:pageopacity="0.0"
     inkscape:pagecheckerboard="0"
     inkscape:document-units="px"
     showgrid="false"
     units="px"
     height="48px"
     inkscape:zoom="1"
     inkscape:cx="-15"
     inkscape:cy="28.5"
     inkscape:window-width="1920"
     inkscape:window-height="1011"
     inkscape:window-x="0"
     inkscape:window-y="0"
     inkscape:window-maximized="1"
     inkscape:current-layer="svg5"
     inkscape:lockguides="true" />
  <defs
     id="defs2">
    <linearGradient
       inkscape:collect="always"
       id="linearGradient1429">
      <stop
         style="stop-color:#262626;stop-opacity:1"
         offset="0"
         id="stop1425" />
      <stop
         style="stop-color:#666666;stop-opacity:1"
         offset="1"
         id="stop1427" />
    </linearGradient>
    <linearGradient
       inkscape:collect="always"
       xlink:href="#linearGradient37218"
       id="linearGradient1781"
       x1="2.8346456e-08"
       y1="2.2677165e-07"
       x2="64"
       y2="64"
       gradientUnits="userSpaceOnUse"
       gradientTransform="scale(0.26458333)" />
    <linearGradient
       inkscape:collect="always"
       id="linearGradient37218">
      <stop
         style="stop-color:#ffffff;stop-opacity:1"
         offset="0"
         id="stop37214" />
      <stop
         style="stop-color:#717171;stop-opacity:0.00392157"
         offset="0.49741825"
         id="stop37220" />
      <stop
         style="stop-color:#000000;stop-opacity:1"
         offset="1"
         id="stop37216" />
    </linearGradient>
    <linearGradient
       inkscape:collect="always"
       xlink:href="#linearGradient1429"
       id="linearGradient1431"
       x1="4.2333331"
       y1="16.933334"
       x2="4.2333336"
       y2="6.7529299e-07"
       gradientUnits="userSpaceOnUse" />
  </defs>
  <path
     id="rect863"
     style="fill:url(#linearGradient1431);stroke-width:0.264583;fill-opacity:1"
     d="M 3.1750003,1.0583333 H 13.758333 c 1.172634,0 2.116667,0.944034 2.116667,2.116667 V 13.758333 c 0,1.172634 -0.944033,2.116667 -2.116667,2.116667 H 3.1750003 c -1.172633,0 -2.116667,-0.944033 -2.116667,-2.116667 V 3.1750003 c 0,-1.172633 0.944034,-2.116667 2.116667,-2.116667 z" />
  <path
     id="rect1345"
     style="opacity:0.3;fill:url(#linearGradient1781);fill-opacity:1;stroke-width:0.264583"
     d="m 3.1750003,1.0583333 c -1.172633,0 -2.116667,0.944034 -2.116667,2.116667 V 13.758333 c 0,1.172634 0.944034,2.116667 2.116667,2.116667 H 13.758334 c 1.172633,0 2.116666,-0.944033 2.116666,-2.116667 V 3.1750003 c 0,-1.172633 -0.944033,-2.116667 -2.116666,-2.116667 z m 0,0.264584 H 13.758334 c 1.026054,0 1.852083,0.826029 1.852083,1.852083 V 13.758333 c 0,1.026054 -0.826029,1.852084 -1.852083,1.852084 H 3.1750003 c -1.026054,0 -1.852083,-0.82603 -1.852083,-1.852084 V 3.1750003 c 0,-1.026054 0.826029,-1.852083 1.852083,-1.852083 z" />
  <path
     id="rect849"
     style="fill:#69aeff;fill-opacity:1;stroke-width:9;stroke-linecap:round;stroke-linejoin:round"
     d="M 32 8 A 1.9999999 1.9999999 0 0 0 30 10 A 1.9999999 1.9999999 0 0 0 31 11.732422 L 31 52.267578 A 1.9999999 1.9999999 0 0 0 30 54 A 1.9999999 1.9999999 0 0 0 32 56 A 1.9999999 1.9999999 0 0 0 34 54 A 1.9999999 1.9999999 0 0 0 33 52.269531 L 33 11.732422 A 1.9999999 1.9999999 0 0 0 34 10 A 1.9999999 1.9999999 0 0 0 32 8 z "
     transform="scale(0.26458333)" />
  <path
     id="path23"
     style="fill:#ff2a2a;stroke-width:0.263952"
     d="m 5.6727925,4.7624999 c -0.072941,0 -0.131662,0.059002 -0.131662,0.1322916 v 7.1437505 c 0,0.07329 0.058719,0.132291 0.131662,0.132291 0.072941,0 0.1316621,-0.059 0.1316621,-0.132291 V 4.8947915 c 0,-0.07329 -0.058719,-0.1322916 -0.1316621,-0.1322916 z M 6.726086,5.2916665 c -0.072941,0 -0.1316611,0.059002 -0.1316611,0.1322917 v 6.0854168 c 0,0.07329 0.058719,0.132292 0.1316611,0.132292 0.072941,0 0.1316621,-0.059 0.1316621,-0.132292 V 5.4239582 c 0,-0.07329 -0.058719,-0.1322917 -0.1316621,-0.1322917 z M 6.1994398,4.2333332 c -0.072941,0 -0.1316621,0.059002 -0.1316621,0.1322916 v 8.2020832 c 0,0.07329 0.058719,0.132292 0.1316621,0.132292 0.072941,0 0.131661,-0.059 0.131661,-0.132292 V 4.3656248 c 0,-0.073289 -0.058719,-0.1322916 -0.131661,-0.1322916 z m 1.0532935,2.9104166 c -0.072941,0 -0.1316621,0.059002 -0.1316621,0.1322916 v 2.38125 c 0,0.07329 0.058719,0.132292 0.1316621,0.132292 0.072941,0 0.131662,-0.059 0.131662,-0.132292 v -2.38125 c 0,-0.073289 -0.058719,-0.1322916 -0.131662,-0.1322916 z M 4.619499,5.2916665 c -0.072941,0 -0.131662,0.059002 -0.131662,0.1322917 v 6.0854168 c 0,0.07329 0.058719,0.132292 0.131662,0.132292 0.072941,0 0.1316611,-0.059 0.1316611,-0.132292 V 5.4239582 c 0,-0.07329 -0.058719,-0.1322917 -0.1316611,-0.1322917 z m 0.5266463,0.2645833 c -0.072941,0 -0.1316611,0.059002 -0.1316611,0.1322917 v 5.5562505 c 0,0.07329 0.058719,0.132291 0.1316611,0.132291 0.072941,0 0.131662,-0.059 0.131662,-0.132291 V 5.6885415 c 0,-0.07329 -0.058719,-0.1322917 -0.131662,-0.1322917 z M 3.5662046,6.3500003 c -0.072941,0 -0.1316611,0.08443 -0.1316611,0.189135 v 3.8550617 c 0,0.104701 0.058719,0.189136 0.1316611,0.189136 0.072941,0 0.131662,-0.08443 0.131662,-0.189136 V 6.5391353 c 0,-0.104701 -0.058719,-0.189135 -0.131662,-0.189135 z m 0.5266472,0.5291663 c -0.072941,0 -0.1316621,0.059 -0.1316621,0.132292 v 2.910416 c 0,0.07329 0.058719,0.1322924 0.1316621,0.1322924 0.072941,0 0.1316621,-0.059 0.1316621,-0.1322924 v -2.910416 c 0,-0.07329 -0.058719,-0.132292 -0.1316621,-0.132292 z m -1.0532935,0.529167 c -0.072941,0 -0.1316621,0.059 -0.1316621,0.132291 v 1.852084 c 0,0.07329 0.058719,0.132291 0.1316621,0.132291 0.072941,0 0.1316621,-0.059 0.1316621,-0.132291 v -1.852084 c 0,-0.07329 -0.058719,-0.132291 -0.1316621,-0.132291 z M 7.7793805,6.6145833 c -0.072941,0 -0.1316621,0.059 -0.1316621,0.132292 v 3.4395827 c 0,0.07329 0.058719,0.132292 0.1316621,0.132292 0.072941,0 0.1316611,-0.059 0.1316611,-0.132292 V 6.7468753 c 0,-0.07329 -0.058719,-0.132292 -0.1316611,-0.132292 z M 2.5129111,7.9374996 c -0.072941,0 -0.1316611,0.059 -0.1316611,0.132292 v 0.79375 c 0,0.07329 0.058719,0.132292 0.1316611,0.132292 0.072941,0 0.131662,-0.059 0.131662,-0.132292 v -0.79375 c 0,-0.07329 -0.058719,-0.132292 -0.131662,-0.132292 z"
     sodipodi:nodetypes="sssssssssssssssssssssssssssssssssssssssssssssssssssssssssssssssssssssssssssss" />
  <path
     id="rect1379"
     style="opacity:1;fill:#ffffff;fill-opacity:1;stroke-width:11.6189;stroke-linecap:round;stroke-linejoin:round"
     d="M 34.5 27 C 34.223 27 34 27.223 34 27.5 L 34 36.5 C 34 36.777 34.223 37 34.5 37 C 34.777 37 35 36.777 35 36.5 L 35 27.5 C 35 27.223 34.777 27 34.5 27 z M 38.5 28 C 38.222998 28 38 28.222991 38 28.5 L 38 35.5 C 38 35.777002 38.222991 36 38.5 36 C 38.777002 36 39 35.777009 39 35.5 L 39 28.5 C 39 28.222998 38.777009 28 38.5 28 z M 40.5 28 C 40.222998 28 40 28.222991 40 28.5 L 40 35.5 C 40 35.777002 40.222991 36 40.5 36 C 40.777002 36 41 35.777009 41 35.5 L 41 28.5 C 41 28.222998 40.777009 28 40.5 28 z M 48.5 28 C 48.222998 28 48 28.222991 48 28.5 L 48 35.5 C 48 35.777002 48.222991 36 48.5 36 C 48.777002 36 49 35.777009 49 35.5 L 49 28.5 C 49 28.222998 48.777009 28 48.5 28 z M 36.5 29 C 36.222998 29 36 29.222995 36 29.5 L 36 34.5 C 36 34.777002 36.223 35 36.5 35 C 36.777002 35 37 34.777009 37 34.5 L 37 29.5 C 37 29.222998 36.777 29 36.5 29 z M 42.5 29 C 42.222998 29 42 29.222995 42 29.5 L 42 34.5 C 42 34.777002 42.222991 35 42.5 35 C 42.777002 35 43 34.777009 43 34.5 L 43 29.5 C 43 29.222998 42.777009 29 42.5 29 z M 44.5 30 C 44.222998 30 44 30.222991 44 30.5 L 44 33.5 C 44 33.777002 44.222991 34 44.5 34 C 44.777002 34 45 33.777005 45 33.5 L 45 30.5 C 45 30.222998 44.777009 30 44.5 30 z M 46.5 30 C 46.222998 30 46 30.222991 46 30.5 L 46 33.5 C 46 33.777002 46.222995 34 46.5 34 C 46.777002 34 47 33.777005 47 33.5 L 47 30.5 C 47 30.222998 46.777009 30 46.5 30 z M 50.5 30 C 50.222998 30 50 30.222991 50 30.5 L 50 33.5 C 50 33.777002 50.222991 34 50.5 34 C 50.777002 34 51 33.777005 51 33.5 L 51 30.5 C 51 30.222998 50.777009 30 50.5 30 z M 52.474609 31 C 52.209362 31 52 31.231646 52 31.5 L 52 32.5 C 52 32.777002 52.222991 33 52.5 33 C 52.777002 33 53 32.777009 53 32.5 L 53 31.5 C 53 31.222998 52.777005 31 52.5 31 L 52.474609 31 z M 54.474609 31 C 54.209362 31 54 31.231646 54 31.5 L 54 32.5 C 54 32.777002 54.222995 33 54.5 33 C 54.777002 33 55 32.777009 55 32.5 L 55 31.5 C 55 31.222998 54.777013 31 54.5 31 L 54.474609 31 z "
     transform="scale(0.26458333)" />
</svg>
