<?xml version="1.0" encoding="UTF-8" standalone="no"?>
<!-- Created with Inkscape (http://www.inkscape.org/) -->

<svg
   width="64"
   height="64"
   viewBox="0 0 16.933333 16.933333"
   version="1.1"
   id="svg5"
   inkscape:version="1.1.1 (3bf5ae0d25, 2021-09-20, custom)"
   sodipodi:docname="gnome-disks.svg"
   xmlns:inkscape="http://www.inkscape.org/namespaces/inkscape"
   xmlns:sodipodi="http://sodipodi.sourceforge.net/DTD/sodipodi-0.dtd"
   xmlns:xlink="http://www.w3.org/1999/xlink"
   xmlns="http://www.w3.org/2000/svg"
   xmlns:svg="http://www.w3.org/2000/svg">
  <sodipodi:namedview
     id="namedview7"
     pagecolor="#ffffff"
     bordercolor="#666666"
     borderopacity="1.0"
     inkscape:pageshadow="2"
     inkscape:pageopacity="0.0"
     inkscape:pagecheckerboard="0"
     inkscape:document-units="px"
     showgrid="false"
     units="px"
     height="48px"
     inkscape:zoom="4.4138931"
     inkscape:cx="7.4763931"
     inkscape:cy="49.389506"
     inkscape:window-width="1920"
     inkscape:window-height="1019"
     inkscape:window-x="0"
     inkscape:window-y="0"
     inkscape:window-maximized="1"
     inkscape:current-layer="svg5"
     inkscape:lockguides="true" />
  <defs
     id="defs2">
    <linearGradient
       inkscape:collect="always"
       id="linearGradient2123">
      <stop
         style="stop-color:#e3e3e3;stop-opacity:1"
         offset="0"
         id="stop2119" />
      <stop
         style="stop-color:#747474;stop-opacity:1"
         offset="1"
         id="stop2121" />
    </linearGradient>
    <linearGradient
       inkscape:collect="always"
       id="linearGradient4764">
      <stop
         style="stop-color:#ffffff;stop-opacity:1"
         offset="0"
         id="stop4760" />
      <stop
         style="stop-color:#b3b3b3;stop-opacity:1"
         offset="1"
         id="stop4762" />
    </linearGradient>
    <linearGradient
       inkscape:collect="always"
       id="linearGradient4218">
      <stop
         style="stop-color:#666666;stop-opacity:1"
         offset="0"
         id="stop4214" />
      <stop
         style="stop-color:#333333;stop-opacity:1"
         offset="1"
         id="stop4216" />
    </linearGradient>
    <linearGradient
       inkscape:collect="always"
       id="linearGradient3908">
      <stop
         style="stop-color:#000000;stop-opacity:1;"
         offset="0"
         id="stop3904" />
      <stop
         style="stop-color:#000000;stop-opacity:0;"
         offset="1"
         id="stop3906" />
    </linearGradient>
    <linearGradient
       inkscape:collect="always"
       id="linearGradient867">
      <stop
         style="stop-color:#b3b3b3;stop-opacity:1;"
         offset="0"
         id="stop863" />
      <stop
         style="stop-color:#e6e6e6;stop-opacity:1"
         offset="1"
         id="stop865" />
    </linearGradient>
    <linearGradient
       inkscape:collect="always"
       xlink:href="#linearGradient3908"
       id="linearGradient3910"
       x1="15.001922"
       y1="58.742687"
       x2="52"
       y2="18.742687"
       gradientUnits="userSpaceOnUse" />
    <linearGradient
       inkscape:collect="always"
       xlink:href="#linearGradient4218"
       id="linearGradient4220"
       x1="12.7"
       y1="3.7041681"
       x2="12.7"
       y2="15.345835"
       gradientUnits="userSpaceOnUse" />
    <linearGradient
       inkscape:collect="always"
       xlink:href="#linearGradient4764"
       id="linearGradient4766"
       x1="3.9687499"
       y1="12.235105"
       x2="4.1533575"
       y2="15.410105"
       gradientUnits="userSpaceOnUse" />
    <linearGradient
       inkscape:collect="always"
       xlink:href="#linearGradient2123"
       id="linearGradient2023"
       gradientUnits="userSpaceOnUse"
       x1="12.7"
       y1="-12.295832"
       x2="12.7"
       y2="15.345835"
       gradientTransform="matrix(0.26458333,0,0,0.26458333,7.14375,6.6145832)" />
    <linearGradient
       inkscape:collect="always"
       xlink:href="#linearGradient37218"
       id="linearGradient1781"
       x1="2.8346456e-08"
       y1="2.2677165e-07"
       x2="64"
       y2="64"
       gradientUnits="userSpaceOnUse"
       gradientTransform="scale(0.26458333)" />
    <linearGradient
       inkscape:collect="always"
       id="linearGradient37218">
      <stop
         style="stop-color:#808080;stop-opacity:1"
         offset="0"
         id="stop37214" />
      <stop
         style="stop-color:#717171;stop-opacity:0.00392157"
         offset="0.49741825"
         id="stop37220" />
      <stop
         style="stop-color:#808080;stop-opacity:1"
         offset="1"
         id="stop37216" />
    </linearGradient>
    <linearGradient
       inkscape:collect="always"
       xlink:href="#linearGradient867"
       id="linearGradient917"
       x1="16.404167"
       y1="16.933334"
       x2="16.404167"
       y2="6.7529299e-07"
       gradientUnits="userSpaceOnUse" />
  </defs>
  <path
     id="rect863"
     style="fill:url(#linearGradient917);stroke-width:0.264583;fill-opacity:1"
     d="M 3.1749998,1.0583333 H 13.758333 c 1.172634,0 2.116667,0.9440333 2.116667,2.1166665 V 13.758333 c 0,1.172634 -0.944033,2.116667 -2.116667,2.116667 H 3.1749998 c -1.1726332,0 -2.1166665,-0.944033 -2.1166665,-2.116667 V 3.1749998 c 0,-1.1726332 0.9440333,-2.1166665 2.1166665,-2.1166665 z" />
  <path
     id="rect1345"
     style="opacity:0.3;fill:url(#linearGradient1781);fill-opacity:1;stroke-width:0.264583"
     d="m 3.175,1.0583333 c -1.1726333,0 -2.1166667,0.9440334 -2.1166667,2.1166667 v 10.583333 c 0,1.172634 0.9440334,2.116667 2.1166667,2.116667 h 10.583334 c 1.172633,0 2.116666,-0.944033 2.116666,-2.116667 V 3.175 c 0,-1.1726333 -0.944033,-2.1166667 -2.116666,-2.1166667 z m 0,0.2645834 h 10.583334 c 1.026054,0 1.852083,0.8260291 1.852083,1.8520833 v 10.583333 c 0,1.026054 -0.826029,1.852084 -1.852083,1.852084 H 3.175 c -1.0260542,0 -1.8520834,-0.82603 -1.8520834,-1.852084 V 3.175 c 0,-1.0260542 0.8260292,-1.8520833 1.8520834,-1.8520833 z" />
  <path
     id="path1150"
     style="opacity:1;fill:url(#linearGradient4220);fill-opacity:1;stroke-width:0.280329"
     d="m 8.4666666,3.7041666 c -2.3380055,-2e-7 -4.2333336,1.8953279 -4.2333333,4.2333333 2.273e-4,1.2958281 0.5939324,2.5201781 1.6112712,3.3227951 l 4.0106078,-1.206128 -2.1693767,2.041219 c 0.2573809,0.04926 0.5187797,0.07452 0.780831,0.07545 C 10.804672,12.170833 12.7,10.275505 12.7,7.9374999 12.7,5.5994945 10.804672,3.7041664 8.4666666,3.7041666 Z m 0,2.6458333 c 0.8767519,0 1.5875004,0.7107481 1.5875004,1.5875 0,0.8767519 -0.7107485,1.5875 -1.5875004,1.5875 -0.8767519,0 -1.5875,-0.7107481 -1.5875,-1.5875 0,-0.8767519 0.7107481,-1.5875 1.5875,-1.5875 z"
     sodipodi:nodetypes="scccccsssssss" />
  <path
     d="m 8.4666666,6.6145832 c -0.7306267,0 -1.3229166,0.5922899 -1.3229166,1.3229166 0,0.7306268 0.5922901,1.3229167 1.3229166,1.3229167 0.7306268,0 1.3229167,-0.5922899 1.3229167,-1.3229167 0,-0.7306267 -0.5922899,-1.3229166 -1.3229167,-1.3229166 z"
     style="opacity:1;fill:url(#linearGradient2023);fill-opacity:1;stroke-width:0.0741704"
     id="path1928" />
  <path
     id="path1496"
     style="opacity:1;fill:url(#linearGradient4766);stroke-width:0.264593;fill-opacity:1"
     d="m 8.9158572,10.583333 -4.417842,1.328669 c -0.5061043,0.292271 -0.6795136,0.939444 -0.3873501,1.44561 0.2922716,0.506105 0.9394435,0.679514 1.4456104,0.38735 z"
     sodipodi:nodetypes="ccccc" />
  <path
     id="path1150-5"
     style="fill:url(#linearGradient3910);fill-opacity:1;stroke-width:1.05951;opacity:0.3"
     d="M 32 24 C 28.686292 24 26 26.686292 26 30 C 26 30.16863 26.009796 30.334891 26.023438 30.5 C 26.277867 27.420589 28.854922 25 32 25 A 4.9999998 4.9999998 0 0 1 32.246094 25.005859 C 32.248688 25.005964 32.251313 25.005751 32.253906 25.005859 C 35.28274 25.132154 37.729025 27.504007 37.976562 30.5 C 37.990204 30.334891 38 30.16863 38 30 C 38 26.686292 35.313708 24 32 24 z M 36.96875 30.445312 A 4.9999998 4.9999998 0 0 1 32 35 A 4.9999998 4.9999998 0 0 1 27.035156 30.5 A 4.9999998 4.9999998 0 0 0 27 31 A 4.9999998 4.9999998 0 0 0 32 36 A 4.9999998 4.9999998 0 0 0 37 31 A 4.9999998 4.9999998 0 0 0 36.96875 30.445312 z M 47.990234 30.5 C 47.725708 39.104858 40.669031 45.999978 32 46 C 31.316448 45.997574 30.634053 45.950944 29.957031 45.861328 L 29.048828 46.714844 C 30.021606 46.901023 31.00957 46.996485 32 47 C 40.836556 46.999977 48 39.836554 48 31 C 48 30.832475 47.995346 30.666285 47.990234 30.5 z M 16.007812 30.519531 C 16.003092 30.679354 16 30.839034 16 31 C 16.000855 35.871635 18.221552 40.47556 22.029297 43.509766 L 33.697266 40 L 33.591797 40.099609 L 35.685547 39.470703 L 37.248047 38 L 22.089844 42.558594 C 18.380921 39.632488 16.161076 35.223692 16.007812 30.519531 z M 33.697266 41 L 32.134766 41.46875 L 21 51.949219 C 19.086928 53.053461 16.641758 52.397213 15.537109 50.484375 C 15.263145 50.009739 15.098311 49.501779 15.033203 48.990234 C 14.928568 49.825163 15.083927 50.699248 15.537109 51.484375 C 16.641758 53.397213 19.086928 54.053461 21 52.949219 L 33.697266 41 z "
     transform="scale(0.26458333)" />
</svg>
