<?xml version="1.0" encoding="UTF-8" standalone="no"?>
<!-- Created with Inkscape (http://www.inkscape.org/) -->

<svg
   width="64"
   height="64"
   viewBox="0 0 16.933333 16.933333"
   version="1.1"
   id="svg5"
   inkscape:version="1.1.1 (3bf5ae0d25, 2021-09-20, custom)"
   sodipodi:docname="gnome-nibbles.svg"
   xmlns:inkscape="http://www.inkscape.org/namespaces/inkscape"
   xmlns:sodipodi="http://sodipodi.sourceforge.net/DTD/sodipodi-0.dtd"
   xmlns:xlink="http://www.w3.org/1999/xlink"
   xmlns="http://www.w3.org/2000/svg"
   xmlns:svg="http://www.w3.org/2000/svg">
  <sodipodi:namedview
     id="namedview7"
     pagecolor="#ffffff"
     bordercolor="#666666"
     borderopacity="1.0"
     inkscape:pageshadow="2"
     inkscape:pageopacity="0.0"
     inkscape:pagecheckerboard="0"
     inkscape:document-units="px"
     showgrid="false"
     units="px"
     height="48px"
     inkscape:zoom="7.9999996"
     inkscape:cx="0.12500001"
     inkscape:cy="26.687501"
     inkscape:window-width="1920"
     inkscape:window-height="1019"
     inkscape:window-x="0"
     inkscape:window-y="0"
     inkscape:window-maximized="1"
     inkscape:current-layer="svg5"
     inkscape:lockguides="true" />
  <defs
     id="defs2">
    <linearGradient
       inkscape:collect="always"
       id="linearGradient1742">
      <stop
         style="stop-color:#ffffff;stop-opacity:1;"
         offset="0"
         id="stop1738" />
      <stop
         style="stop-color:#ffbc72;stop-opacity:1"
         offset="1"
         id="stop1740" />
    </linearGradient>
    <linearGradient
       inkscape:collect="always"
       id="linearGradient1384">
      <stop
         style="stop-color:#f88c16;stop-opacity:1;"
         offset="0"
         id="stop1380" />
      <stop
         style="stop-color:#f8ba16;stop-opacity:1"
         offset="1"
         id="stop1382" />
    </linearGradient>
    <linearGradient
       inkscape:collect="always"
       id="linearGradient1074">
      <stop
         style="stop-color:#000000;stop-opacity:1;"
         offset="0"
         id="stop1070" />
      <stop
         style="stop-color:#000000;stop-opacity:0;"
         offset="1"
         id="stop1072" />
    </linearGradient>
    <linearGradient
       inkscape:collect="always"
       id="linearGradient37218">
      <stop
         style="stop-color:#1a1a1a;stop-opacity:1"
         offset="0"
         id="stop37214" />
      <stop
         style="stop-color:#e6e6e6;stop-opacity:0.00306325"
         offset="0.49741825"
         id="stop37220" />
      <stop
         style="stop-color:#ffffff;stop-opacity:1"
         offset="1"
         id="stop37216" />
    </linearGradient>
    <linearGradient
       inkscape:collect="always"
       xlink:href="#linearGradient37218"
       id="linearGradient881"
       x1="64.208344"
       y1="64.062607"
       x2="0.30528301"
       y2="0.13507102"
       gradientUnits="userSpaceOnUse" />
    <linearGradient
       inkscape:collect="always"
       xlink:href="#linearGradient1074"
       id="linearGradient1076"
       x1="16.002106"
       y1="54.552742"
       x2="52.878914"
       y2="16.552742"
       gradientUnits="userSpaceOnUse" />
    <linearGradient
       inkscape:collect="always"
       xlink:href="#linearGradient1384"
       id="linearGradient1386"
       x1="15.875"
       y1="16.933332"
       x2="15.874999"
       y2="-2.7838135e-07"
       gradientUnits="userSpaceOnUse" />
    <linearGradient
       inkscape:collect="always"
       xlink:href="#linearGradient1742"
       id="linearGradient1744"
       x1="4.7624998"
       y1="7.9888625"
       x2="4.9949536"
       y2="14.868029"
       gradientUnits="userSpaceOnUse" />
  </defs>
  <path
     id="rect846-3"
     style="fill:url(#linearGradient1386);stroke-width:0.337527;fill-opacity:1"
     d="m 3.175,1.5875 h 10.583333 c 0.879475,0 1.5875,0.708025 1.5875,1.5875 v 10.583333 c 0,0.879475 -0.708025,1.5875 -1.5875,1.5875 H 3.175 c -0.879475,0 -1.5875,-0.708025 -1.5875,-1.5875 V 3.175 c 0,-0.879475 0.708025,-1.5875 1.5875,-1.5875 z" />
  <path
     id="rect846"
     style="opacity:0.3;fill:url(#linearGradient881);stroke-width:1.27569;fill-opacity:1"
     d="M 12 6 C 8.6760005 6 6 8.6760005 6 12 L 6 52 C 6 55.324 8.6760005 58 12 58 L 52 58 C 55.324 58 58 55.324 58 52 L 58 12 C 58 8.6760005 55.324 6 52 6 L 12 6 z M 12 7 L 52 7 C 54.77 7 57 9.23 57 12 L 57 52 C 57 54.77 54.77 57 52 57 L 12 57 C 9.23 57 7 54.77 7 52 L 7 12 C 7 9.23 9.23 7 12 7 z "
     transform="scale(0.26458333)" />
  <path
     id="path8"
     style="stroke-width:1.00002;fill:url(#linearGradient1744);fill-opacity:1"
     d="M 6.9571036,4.4983181 A 1.9140377,1.9140377 0 0 0 6.4331045,4.5603296 C 5.9710954,4.6803321 5.5290638,4.9611196 5.2140575,5.340127 4.9000513,5.7191344 4.7122898,6.2001263 4.7742912,6.7121363 c 0.065001,0.8740172 0.4749762,2.3118782 0.9859861,3.5419037 0.256005,0.616012 0.5369989,1.178075 0.8170045,1.590083 0.1400027,0.207004 0.2800932,0.376092 0.4190957,0.496094 0.1370029,0.118002 0.2767105,0.190169 0.4227132,0.190169 a 0.85601685,0.85601685 0 0 0 0.6661094,-0.19327 C 8.2782039,12.186113 8.4433438,11.96944 8.5983471,11.730435 8.8983528,11.266426 9.16829,10.67746 9.4752962,10.328454 c 0.03,0.035 0.07189,0.145609 0.119889,0.23461 0.096,0.179004 0.220336,0.439379 0.380339,0.705384 0.1600028,0.265005 0.3566088,0.518117 0.6046138,0.728121 0.247005,0.210004 0.548331,0.340581 0.904338,0.341581 0.214004,0.015 0.43006,0.0012 0.603064,-0.08578 0.175003,-0.088 0.306742,-0.228963 0.315742,-0.445968 v -0.0021 a 0.42500835,0.42500835 0 0 0 -0.21394,-0.371003 C 12.06834,11.357299 11.920565,11.305561 11.764562,11.22556 11.452556,11.063556 11.10065,10.800466 10.888646,10.035451 10.720643,9.4284385 10.4984,8.9740985 10.264395,8.6680924 10.03039,8.3630865 9.8414472,8.0914891 9.5414422,8.1254899 9.0214317,8.1854911 8.7775888,8.9314755 8.5285838,9.3274835 8.3765807,9.5714885 8.2334903,9.8140255 8.1094881,10.007029 8.0094859,10.164032 7.9343948,10.251402 7.8753937,10.311404 7.6833899,10.105399 7.569106,9.8835275 7.5891064,9.6215225 7.6131067,9.3275165 7.7803689,8.9915095 7.936372,8.6345027 8.2463779,7.9204886 8.641108,7.1191321 8.5601063,6.3261166 8.5001051,5.746105 8.1985325,5.0963942 7.7715241,4.7623876 A 1.4040276,1.4040276 0 0 0 7.1302197,4.5122738 1.52603,1.52603 0 0 0 6.9571036,4.4983223 Z M 6.9162792,5.4812036 C 7.217285,5.599206 7.4524811,5.8563585 7.554483,6.0563623 A 2.3330459,2.3330459 0 0 0 6.914212,5.7860947 1.5300301,1.5300301 0 0 0 6.3834951,6.0930526 1.0000197,1.0000197 0 0 1 6.9162792,5.4812036 Z M 5.7504589,5.9390569 v 0.00103 c 0.2440048,0.003 0.4800332,0.070343 0.6330362,0.1493448 -0.2680052,0.008 -0.516011,0.049553 -0.6940145,0.1095542 -0.110002,0.1350045 -0.2042469,0.3003934 -0.2542478,0.5053973 a 0.83501642,0.83501642 0 0 1 0.07028,-0.7451741 c 0.081001,-0.013999 0.1629447,-0.020152 0.2449461,-0.020152 z m 1.1441162,0.1426268 c 0.2496556,-0.00273 0.4620546,0.3243413 0.4785236,0.7467245 0.008,0.1870038 -0.024749,0.3297696 -0.084749,0.4707724 A 2.6040512,2.6040512 0 0 0 6.5824494,7.4123519 c -0.013999,-0.022 -0.030374,-0.041145 -0.042375,-0.066146 A 1.0550208,1.0550208 0 0 1 6.5292215,7.4304388 2.0470403,2.0470403 0 0 0 5.936493,7.7642686 0.99301952,0.99301952 0 0 1 5.7101501,7.2159816 C 5.6651491,6.8179736 5.8123581,6.4111254 6.0403626,6.3881252 6.1903654,6.3731262 6.3350679,6.5642586 6.43207,6.7622624 6.46107,6.3962553 6.641248,6.1062347 6.8692527,6.0832342 h 0.00103 c 0.00813,-7.938e-4 0.016235,-0.00146 0.024289,-0.00156 z m -0.00517,0.6227011 a 0.16700329,0.23000452 0 0 0 -0.1710489,0.2299602 0.16700329,0.23000452 0 0 0 0.3338299,0 A 0.16700329,0.23000452 0 0 0 6.8904416,6.7043848 H 6.8899124 Z M 6.1700719,6.8780176 a 0.16700329,0.23000452 0 0 0 -0.1715656,0.2299602 0.1675033,0.23069316 0 0 0 0.3348633,0 A 0.16700329,0.23000452 0 0 0 6.1700719,6.8780176 Z M 7.5544835,7.469196 C 7.5474827,8.0962085 6.9242503,8.849373 6.5452429,8.8463729 6.0122323,8.8413722 5.8313216,8.4793611 5.7153193,8.2293563 6.3163312,8.0863536 7.0814744,7.7472014 7.5544835,7.469196 Z" />
  <path
     id="path8-3"
     style="opacity:0.3;fill:url(#linearGradient1076);fill-opacity:1;stroke-width:3.7796"
     d="M 26.140625 20.716797 A 3.7796021 3.7796021 0 0 0 24.126953 23.029297 A 5.782791 5.782791 0 0 1 25.410156 22.173828 A 3.7796021 3.7796021 0 0 1 26.140625 21.716797 C 26.403267 21.81976 26.651771 21.951668 26.884766 22.101562 A 8.8178114 8.8178114 0 0 1 28.552734 22.890625 C 28.167215 22.134705 27.278285 21.16279 26.140625 20.716797 z M 21.734375 22.447266 C 21.424448 22.447266 21.114739 22.470528 20.808594 22.523438 A 3.1559676 3.1559676 0 0 0 20.376953 24.695312 A 3.1559676 3.1559676 0 0 1 20.808594 23.523438 C 21.033075 23.484641 21.259334 23.460603 21.486328 23.451172 C 21.49209 23.444027 21.498121 23.436788 21.503906 23.429688 C 22.176675 23.202911 23.11402 23.045861 24.126953 23.015625 C 23.548674 22.717036 22.656598 22.46251 21.734375 22.451172 L 21.734375 22.447266 z M 26.058594 22.986328 C 26.028153 22.986706 25.997524 22.989187 25.966797 22.992188 L 25.962891 22.992188 C 25.101141 23.079119 24.420153 24.17526 24.310547 25.558594 C 23.943925 24.810233 23.397018 24.087842 22.830078 24.144531 C 21.976875 24.230599 21.423954 25.73864 21.578125 27.228516 C 21.691186 26.127871 22.17059 25.211058 22.830078 25.144531 C 23.397018 25.087842 23.943925 25.810233 24.310547 26.558594 C 24.420153 25.17526 25.101141 24.079119 25.962891 23.992188 L 25.966797 23.992188 C 25.997524 23.989187 26.028153 23.986706 26.058594 23.986328 C 26.938377 23.976708 27.694904 25.050958 27.84375 26.490234 C 27.868323 26.278191 27.877699 26.054308 27.867188 25.808594 C 27.804942 24.212185 27.002174 22.97601 26.058594 22.986328 z M 18.023438 25.132812 C 17.990507 25.537742 17.99423 25.950524 18.044922 26.369141 C 18.290595 29.672513 19.840108 35.106945 21.771484 39.755859 C 22.739062 42.084094 23.801086 44.208429 24.859375 45.765625 C 25.388519 46.548002 25.917996 47.187074 26.443359 47.640625 C 26.961166 48.086617 27.489194 48.359375 28.041016 48.359375 A 3.2353393 3.2353393 0 0 0 30.558594 47.628906 C 31.288058 47.058186 31.912205 46.239264 32.498047 45.335938 C 33.631924 43.582203 34.652162 41.356187 35.8125 40.037109 C 35.925886 40.169393 36.084211 40.587446 36.265625 40.923828 C 36.62846 41.600379 37.098389 42.584471 37.703125 43.589844 C 38.30786 44.591437 39.050939 45.548081 39.988281 46.341797 C 40.921843 47.135513 42.060712 47.629033 43.40625 47.632812 C 44.215084 47.689505 45.031673 47.637337 45.685547 47.308594 C 46.346976 46.975995 46.844891 46.443223 46.878906 45.623047 L 46.878906 45.615234 A 1.6063308 1.6063308 0 0 0 46.796875 45.103516 C 46.626187 45.658158 46.207504 46.046129 45.685547 46.308594 C 45.031673 46.637337 44.215084 46.689505 43.40625 46.632812 C 42.060712 46.629033 40.921843 46.135513 39.988281 45.341797 C 39.050939 44.548081 38.307856 43.591437 37.703125 42.589844 C 37.098389 41.584471 36.62846 40.600379 36.265625 39.923828 C 36.084211 39.587446 35.925886 39.169393 35.8125 39.037109 C 34.652162 40.356187 33.631925 42.582203 32.498047 44.335938 C 31.912205 45.239264 31.288058 46.058186 30.558594 46.628906 A 3.2353393 3.2353393 0 0 1 28.041016 47.359375 C 27.489194 47.359375 26.961166 47.086617 26.443359 46.640625 C 25.917996 46.187074 25.388519 45.548002 24.859375 44.765625 C 23.801086 43.208429 22.739062 41.084094 21.771484 38.755859 C 19.840108 34.106946 18.290595 28.672514 18.044922 25.369141 C 18.035343 25.290042 18.029893 25.211501 18.023438 25.132812 z M 32.378906 25.220703 C 32.231462 27.782785 30.99716 30.329086 29.996094 32.634766 C 29.406476 33.984083 28.774302 35.254031 28.683594 36.365234 C 28.664696 36.612798 28.677547 36.850042 28.71875 37.080078 C 28.881581 36.038526 29.456159 34.870384 29.996094 33.634766 C 31.127339 31.029254 32.557115 28.116184 32.378906 25.220703 z M 25.515625 26.693359 A 0.63119355 0.86930844 0 0 0 25.392578 27.208984 A 0.63119355 0.86930844 0 0 0 25.611328 27.828125 A 9.8420835 9.8420835 0 0 1 26.542969 27.664062 A 0.63119355 0.86930844 0 0 0 26.654297 27.208984 A 0.63119355 0.86930844 0 0 0 26.53125 26.695312 A 0.63119355 0.86930844 0 0 1 25.515625 26.693359 z M 22.794922 27.351562 A 0.63119355 0.86930844 0 0 0 22.671875 27.865234 A 0.63308335 0.87191117 0 0 0 23.386719 28.693359 A 7.7368454 7.7368454 0 0 1 23.6875 28.527344 A 0.63308335 0.87191117 0 0 0 23.9375 27.865234 A 0.63119355 0.86930844 0 0 0 23.814453 27.351562 A 0.63308335 0.87191117 0 0 1 22.794922 27.351562 z M 28.552734 28.230469 C 26.764983 29.281199 23.873104 30.563032 21.601562 31.103516 C 21.7282 31.37644 21.876584 31.68353 22.070312 31.984375 C 24.190823 31.40956 26.719169 30.282741 28.390625 29.322266 C 28.489229 28.954975 28.548748 28.587518 28.552734 28.230469 z "
     transform="scale(0.26458333)" />
</svg>
