<?xml version="1.0" encoding="UTF-8" standalone="no"?>
<!-- Created with Inkscape (http://www.inkscape.org/) -->

<svg
   width="64"
   height="64"
   viewBox="0 0 16.933333 16.933333"
   version="1.1"
   id="svg5"
   inkscape:version="1.1.1 (3bf5ae0d25, 2021-09-20, custom)"
   sodipodi:docname="gnome-mines.svg"
   xmlns:inkscape="http://www.inkscape.org/namespaces/inkscape"
   xmlns:sodipodi="http://sodipodi.sourceforge.net/DTD/sodipodi-0.dtd"
   xmlns:xlink="http://www.w3.org/1999/xlink"
   xmlns="http://www.w3.org/2000/svg"
   xmlns:svg="http://www.w3.org/2000/svg">
  <sodipodi:namedview
     id="namedview7"
     pagecolor="#ffffff"
     bordercolor="#666666"
     borderopacity="1.0"
     inkscape:pageshadow="2"
     inkscape:pageopacity="0.0"
     inkscape:pagecheckerboard="0"
     inkscape:document-units="px"
     showgrid="false"
     units="px"
     height="48px"
     inkscape:zoom="12.59375"
     inkscape:cx="27.950372"
     inkscape:cy="35.295285"
     inkscape:window-width="1920"
     inkscape:window-height="1011"
     inkscape:window-x="0"
     inkscape:window-y="0"
     inkscape:window-maximized="1"
     inkscape:current-layer="svg5"
     inkscape:lockguides="true" />
  <defs
     id="defs2">
    <linearGradient
       inkscape:collect="always"
       id="linearGradient1424">
      <stop
         style="stop-color:#4d4d4d;stop-opacity:1;"
         offset="0"
         id="stop1420" />
      <stop
         style="stop-color:#333333;stop-opacity:1"
         offset="1"
         id="stop1422" />
    </linearGradient>
    <linearGradient
       inkscape:collect="always"
       id="linearGradient3632">
      <stop
         style="stop-color:#ffffff;stop-opacity:1;"
         offset="0"
         id="stop3628" />
      <stop
         style="stop-color:#b3b3b3;stop-opacity:1"
         offset="1"
         id="stop3630" />
    </linearGradient>
    <linearGradient
       inkscape:collect="always"
       id="linearGradient2931">
      <stop
         style="stop-color:#000000;stop-opacity:1;"
         offset="0"
         id="stop2927" />
      <stop
         style="stop-color:#000000;stop-opacity:0;"
         offset="1"
         id="stop2929" />
    </linearGradient>
    <linearGradient
       inkscape:collect="always"
       id="linearGradient37218">
      <stop
         style="stop-color:#ffffff;stop-opacity:1"
         offset="0"
         id="stop37214" />
      <stop
         style="stop-color:#e6e6e6;stop-opacity:0.00306325"
         offset="0.49741825"
         id="stop37220" />
      <stop
         style="stop-color:#000000;stop-opacity:1"
         offset="1"
         id="stop37216" />
    </linearGradient>
    <linearGradient
       inkscape:collect="always"
       xlink:href="#linearGradient2931"
       id="linearGradient2933"
       x1="2.6456208"
       y1="16.139618"
       x2="14.791559"
       y2="8.7312841"
       gradientUnits="userSpaceOnUse"
       gradientTransform="scale(3.7795276)" />
    <linearGradient
       inkscape:collect="always"
       xlink:href="#linearGradient3632"
       id="linearGradient3634"
       x1="11.999197"
       y1="13.99987"
       x2="11.905102"
       y2="49.99987"
       gradientUnits="userSpaceOnUse" />
    <linearGradient
       inkscape:collect="always"
       xlink:href="#linearGradient37218"
       id="linearGradient1781"
       x1="2.8346456e-08"
       y1="2.2677165e-07"
       x2="64"
       y2="64"
       gradientUnits="userSpaceOnUse"
       gradientTransform="scale(0.26458333)" />
    <linearGradient
       inkscape:collect="always"
       xlink:href="#linearGradient1424"
       id="linearGradient1426"
       x1="16.404167"
       y1="6.7529299e-07"
       x2="16.404167"
       y2="16.933334"
       gradientUnits="userSpaceOnUse" />
  </defs>
  <path
     id="rect863"
     style="fill:url(#linearGradient1426);stroke-width:0.264583;fill-opacity:1"
     d="M 3.1749998,1.0583333 H 13.758333 c 1.172634,0 2.116667,0.944034 2.116667,2.116667 V 13.758333 c 0,1.172634 -0.944033,2.116667 -2.116667,2.116667 H 3.1749998 c -1.1726332,0 -2.1166665,-0.944033 -2.1166665,-2.116667 V 3.1750003 c 0,-1.172633 0.9440333,-2.116667 2.1166665,-2.116667 z" />
  <path
     id="path957"
     style="opacity:1;fill:url(#linearGradient3634);stroke-width:2.00695;stroke-linejoin:round;fill-opacity:1"
     d="M 31.882812 14 C 30.419574 14.036824 29.251953 15.22679 29.251953 16.699219 L 29.251953 20.300781 C 29.251953 21.796582 30.457325 23 31.953125 23 C 33.448925 23 34.652344 21.796582 34.652344 20.300781 L 34.652344 16.699219 C 34.652344 15.203418 33.448925 14 31.953125 14 C 31.929753 14 31.906039 13.999415 31.882812 14 z M 36.453125 19.273438 L 36.453125 20.300781 C 36.453125 22.793782 34.446126 24.800781 31.953125 24.800781 C 29.460124 24.800781 27.453125 22.793782 27.453125 20.300781 L 27.453125 19.283203 A 13.500003 13.500003 0 0 0 23.1875 21.744141 L 24.070312 22.253906 C 26.229316 23.500407 26.963297 26.241389 25.716797 28.400391 C 24.470297 30.559392 21.729316 31.293375 19.570312 30.046875 L 18.6875 29.539062 A 13.500003 13.500003 0 0 0 18.453125 32 A 13.500003 13.500003 0 0 0 18.6875 34.460938 L 19.570312 33.953125 C 20.278736 33.544117 21.050071 33.347781 21.810547 33.345703 C 23.367711 33.341447 24.879305 34.14903 25.716797 35.599609 C 26.963297 37.758611 26.229316 40.501547 24.070312 41.748047 L 23.1875 42.257812 A 13.500003 13.500003 0 0 0 27.453125 44.71875 L 27.453125 43.699219 C 27.453125 41.206216 29.460124 39.199219 31.953125 39.199219 C 34.446126 39.199219 36.453125 41.206216 36.453125 43.699219 L 36.453125 44.71875 A 13.500003 13.500003 0 0 0 40.716797 42.257812 L 39.833984 41.748047 C 37.674981 40.501547 36.940996 37.758611 38.1875 35.599609 C 39.005515 34.182764 40.46774 33.378338 41.986328 33.345703 C 42.781775 33.32862 43.591829 33.524639 44.333984 33.953125 L 45.216797 34.460938 A 13.500003 13.500003 0 0 0 45.453125 32 A 13.500003 13.500003 0 0 0 45.226562 29.53125 L 44.333984 30.046875 C 42.175005 31.293375 39.434 30.559392 38.1875 28.400391 C 36.940996 26.241389 37.674981 23.500407 39.833984 22.253906 L 40.724609 21.740234 A 13.500003 13.500003 0 0 0 36.453125 19.273438 z M 18.642578 21.648438 C 17.731427 21.668019 16.854091 22.149893 16.363281 23 C 15.615381 24.295401 16.056161 25.9396 17.351562 26.6875 L 20.470703 28.488281 C 21.766104 29.236181 23.410303 28.795401 24.158203 27.5 C 24.906103 26.204599 24.465323 24.5604 23.169922 23.8125 L 20.052734 22.011719 C 19.60744 21.754628 19.119848 21.638181 18.642578 21.648438 z M 45.130859 21.648438 C 44.695816 21.660189 44.258328 21.778 43.853516 22.011719 L 40.734375 23.8125 C 39.438974 24.5604 38.998194 26.204599 39.746094 27.5 C 40.493994 28.795401 42.140146 29.236181 43.435547 28.488281 L 46.552734 26.6875 C 47.848135 25.9396 48.288916 24.295401 47.541016 23 C 47.026834 22.109412 46.087955 21.622585 45.130859 21.648438 z M 32 28 A 3.9999999 3.9999999 0 0 1 36 32 A 3.9999999 3.9999999 0 0 1 32 36 A 3.9999999 3.9999999 0 0 1 28 32 A 3.9999999 3.9999999 0 0 1 32 28 z M 32 30 A 1.9999999 1.9999999 0 0 0 30 32 A 1.9999999 1.9999999 0 0 0 32 34 A 1.9999999 1.9999999 0 0 0 34 32 A 1.9999999 1.9999999 0 0 0 32 30 z M 21.748047 35.148438 C 21.313004 35.160189 20.875516 35.278 20.470703 35.511719 L 17.351562 37.3125 C 16.056161 38.0604 15.615381 39.704599 16.363281 41 C 17.111181 42.295401 18.757333 42.736181 20.052734 41.988281 L 23.169922 40.1875 C 24.465323 39.4396 24.906103 37.795401 24.158203 36.5 C 23.644022 35.609412 22.705142 35.122585 21.748047 35.148438 z M 42.025391 35.148438 C 41.114239 35.168019 40.236903 35.649893 39.746094 36.5 C 38.998194 37.795401 39.438974 39.4396 40.734375 40.1875 L 43.853516 41.988281 C 45.148917 42.736181 46.793115 42.295401 47.541016 41 C 48.288916 39.704599 47.848135 38.0604 46.552734 37.3125 L 43.435547 35.511719 C 42.990253 35.254628 42.50266 35.138181 42.025391 35.148438 z M 31.882812 41 C 30.419574 41.036824 29.251953 42.22679 29.251953 43.699219 L 29.251953 47.300781 C 29.251953 48.796582 30.457325 50 31.953125 50 C 33.448925 50 34.652344 48.796582 34.652344 47.300781 L 34.652344 43.699219 C 34.652344 42.203418 33.448925 41 31.953125 41 C 31.929753 41 31.906039 40.999415 31.882812 41 z "
     transform="scale(0.26458333)" />
  <path
     id="path957-5"
     style="opacity:0.3;fill:url(#linearGradient2933);fill-opacity:1;stroke-width:2.00695;stroke-linejoin:round"
     d="M 29.251953 20.300781 L 29.251953 21.300781 C 29.251953 22.796582 30.457325 24 31.953125 24 C 33.448925 24 34.652344 22.796582 34.652344 21.300781 L 34.652344 20.300781 C 34.652344 21.796582 33.448925 23 31.953125 23 C 30.457325 23 29.251953 21.796582 29.251953 20.300781 z M 39.994141 22.160156 L 39.833984 22.253906 C 38.233405 23.178002 37.417244 24.923746 37.609375 26.644531 C 37.764042 25.276492 38.544721 23.998263 39.833984 23.253906 L 40.724609 22.740234 A 13.500003 13.500003 0 0 0 39.994141 22.160156 z M 23.916016 22.166016 A 13.500003 13.500003 0 0 0 23.1875 22.744141 L 24.070312 23.253906 C 25.359576 23.998263 26.140255 25.276492 26.294922 26.644531 C 26.487053 24.923746 25.670894 23.178002 24.070312 22.253906 L 23.916016 22.166016 z M 16.046875 24.845703 C 15.836462 25.942857 16.326707 27.095799 17.351562 27.6875 L 20.470703 29.488281 C 21.766104 30.236181 23.410303 29.795401 24.158203 28.5 C 24.494436 27.917627 24.588517 27.264529 24.474609 26.654297 C 24.419064 26.943928 24.314402 27.229455 24.158203 27.5 C 23.410303 28.795402 21.766104 29.236181 20.470703 28.488281 L 17.351562 26.6875 C 16.638534 26.275833 16.186338 25.59284 16.046875 24.845703 z M 47.857422 24.845703 C 47.717958 25.59284 47.265761 26.275833 46.552734 26.6875 L 43.435547 28.488281 C 42.140144 29.236181 40.493994 28.795401 39.746094 27.5 C 39.589894 27.229455 39.485233 26.943928 39.429688 26.654297 C 39.315779 27.264529 39.40986 27.917627 39.746094 28.5 C 40.493994 29.795401 42.140144 30.236181 43.435547 29.488281 L 46.552734 27.6875 C 47.577589 27.095799 48.067833 25.942857 47.857422 24.845703 z M 32 28 A 4 4 0 0 0 28 32 A 4 4 0 0 0 28.039062 32.5 A 4 4 0 0 1 32 29 A 4 4 0 0 1 35.962891 32.46875 A 4 4 0 0 0 36 32 A 4 4 0 0 0 32 28 z M 45.439453 32.398438 A 13.500003 13.500003 0 0 1 45.216797 34.460938 L 44.333984 33.953125 C 43.591829 33.524641 42.781775 33.32862 41.986328 33.345703 C 40.46774 33.378338 39.005515 34.182764 38.1875 35.599609 C 37.685355 36.469349 37.505036 37.434161 37.609375 38.357422 C 37.676354 37.756687 37.864998 37.158198 38.1875 36.599609 C 39.005515 35.182764 40.46774 34.378338 41.986328 34.345703 C 42.781775 34.32862 43.591829 34.524641 44.333984 34.953125 L 45.216797 35.460938 A 13.500003 13.500003 0 0 0 45.453125 33 A 13.500003 13.500003 0 0 0 45.439453 32.398438 z M 33.933594 32.492188 A 1.9999999 1.9999999 0 0 1 32 34 A 1.9999999 1.9999999 0 0 1 30.070312 32.5 A 1.9999999 1.9999999 0 0 0 30 33 A 1.9999999 1.9999999 0 0 0 32 35 A 1.9999999 1.9999999 0 0 0 34 33 A 1.9999999 1.9999999 0 0 0 33.933594 32.492188 z M 18.46875 32.5 A 13.500003 13.500003 0 0 0 18.453125 33 A 13.500003 13.500003 0 0 0 18.6875 35.460938 L 19.570312 34.953125 C 20.278737 34.544117 21.050071 34.347781 21.810547 34.345703 C 23.367711 34.341394 24.879305 35.14903 25.716797 36.599609 C 26.039298 37.158198 26.227943 37.756687 26.294922 38.357422 C 26.399261 37.434161 26.218941 36.469349 25.716797 35.599609 C 24.879305 34.14903 23.367711 33.341394 21.810547 33.345703 C 21.050071 33.347781 20.278737 33.544117 19.570312 33.953125 L 18.6875 34.460938 A 13.500003 13.500003 0 0 1 18.46875 32.5 z M 24.474609 38.345703 C 24.335146 39.092841 23.88295 39.775833 23.169922 40.1875 L 20.052734 41.988281 C 18.757333 42.736182 17.111181 42.295403 16.363281 41 C 16.207082 40.729455 16.102421 40.443927 16.046875 40.154297 C 15.932967 40.764528 16.027048 41.417628 16.363281 42 C 17.111181 43.295403 18.757333 43.736182 20.052734 42.988281 L 23.169922 41.1875 C 24.194778 40.595799 24.685022 39.442858 24.474609 38.345703 z M 39.429688 38.345703 C 39.219274 39.442858 39.709515 40.595799 40.734375 41.1875 L 43.853516 42.988281 C 45.148918 43.736182 46.793111 43.295407 47.541016 42 C 47.877247 41.417628 47.971329 40.764528 47.857422 40.154297 C 47.801876 40.443927 47.697214 40.729455 47.541016 41 C 46.793111 42.295407 45.148918 42.736182 43.853516 41.988281 L 40.734375 40.1875 C 40.021344 39.775833 39.56915 39.092841 39.429688 38.345703 z M 31.953125 39.199219 C 29.460124 39.199219 27.453125 41.206216 27.453125 43.699219 L 27.453125 44.699219 C 27.453125 42.206216 29.460124 40.199219 31.953125 40.199219 C 34.446126 40.199219 36.453125 42.206216 36.453125 44.699219 L 36.453125 43.699219 C 36.453125 41.206216 34.446126 39.199219 31.953125 39.199219 z M 23.916016 42.835938 L 23.1875 43.257812 A 13.500003 13.500003 0 0 0 27.453125 45.71875 L 27.453125 44.71875 A 13.500003 13.500003 0 0 1 23.916016 42.835938 z M 39.988281 42.835938 A 13.500003 13.500003 0 0 1 36.453125 44.71875 L 36.453125 45.71875 A 13.500003 13.500003 0 0 0 40.716797 43.257812 L 39.988281 42.835938 z M 29.251953 47.300781 L 29.251953 48.300781 C 29.251953 49.796582 30.457325 51 31.953125 51 C 33.448925 51 34.652344 49.796582 34.652344 48.300781 L 34.652344 47.300781 C 34.652344 48.796582 33.448925 50 31.953125 50 C 30.457325 50 29.251953 48.796582 29.251953 47.300781 z "
     transform="scale(0.26458333)" />
  <path
     id="rect1345"
     style="opacity:0.3;fill:url(#linearGradient1781);fill-opacity:1.0;stroke-width:0.264583"
     d="m 3.1749998,1.0583333 c -1.1726331,0 -2.1166665,0.944034 -2.1166665,2.116667 V 13.758333 c 0,1.172634 0.9440334,2.116667 2.1166665,2.116667 H 13.758335 c 1.172632,0 2.116666,-0.944033 2.116666,-2.116667 V 3.1750003 c 0,-1.172633 -0.944034,-2.116667 -2.116666,-2.116667 z m 0,0.264584 H 13.758335 c 1.026054,0 1.852083,0.826029 1.852083,1.852083 V 13.758333 c 0,1.026054 -0.826029,1.852084 -1.852083,1.852084 H 3.1749998 c -1.026054,0 -1.8520832,-0.82603 -1.8520832,-1.852084 V 3.1750003 c 0,-1.026054 0.8260292,-1.852083 1.8520832,-1.852083 z" />
</svg>
