<?xml version="1.0" encoding="UTF-8" standalone="no"?>
<!-- Created with Inkscape (http://www.inkscape.org/) -->

<svg
   width="64"
   height="64"
   viewBox="0 0 16.933333 16.933333"
   version="1.1"
   id="svg5"
   inkscape:version="1.1.1 (3bf5ae0d25, 2021-09-20, custom)"
   sodipodi:docname="gnome-boxes.svg"
   xmlns:inkscape="http://www.inkscape.org/namespaces/inkscape"
   xmlns:sodipodi="http://sodipodi.sourceforge.net/DTD/sodipodi-0.dtd"
   xmlns:xlink="http://www.w3.org/1999/xlink"
   xmlns="http://www.w3.org/2000/svg"
   xmlns:svg="http://www.w3.org/2000/svg">
  <sodipodi:namedview
     id="namedview7"
     pagecolor="#ffffff"
     bordercolor="#666666"
     borderopacity="1.0"
     inkscape:pageshadow="2"
     inkscape:pageopacity="0.0"
     inkscape:pagecheckerboard="0"
     inkscape:document-units="px"
     showgrid="false"
     units="px"
     height="48px"
     inkscape:zoom="2.828427"
     inkscape:cx="-5.8336312"
     inkscape:cy="54.447225"
     inkscape:window-width="1853"
     inkscape:window-height="1019"
     inkscape:window-x="0"
     inkscape:window-y="0"
     inkscape:window-maximized="1"
     inkscape:current-layer="svg5"
     inkscape:lockguides="true" />
  <defs
     id="defs2">
    <linearGradient
       inkscape:collect="always"
       id="linearGradient1713">
      <stop
         style="stop-color:#ffffff;stop-opacity:1;"
         offset="0"
         id="stop1709" />
      <stop
         style="stop-color:#bcbcbc;stop-opacity:1"
         offset="1"
         id="stop1711" />
    </linearGradient>
    <linearGradient
       inkscape:collect="always"
       id="linearGradient1467">
      <stop
         style="stop-color:#000000;stop-opacity:1;"
         offset="0"
         id="stop1463" />
      <stop
         style="stop-color:#000000;stop-opacity:0;"
         offset="1"
         id="stop1465" />
    </linearGradient>
    <linearGradient
       inkscape:collect="always"
       id="linearGradient983">
      <stop
         style="stop-color:#4d4d4d;stop-opacity:1;"
         offset="0"
         id="stop979" />
      <stop
         style="stop-color:#999999;stop-opacity:1"
         offset="1"
         id="stop981" />
    </linearGradient>
    <linearGradient
       inkscape:collect="always"
       xlink:href="#linearGradient1467"
       id="linearGradient1469"
       x1="8"
       y1="59.180664"
       x2="56"
       y2="15.180664"
       gradientUnits="userSpaceOnUse" />
    <linearGradient
       inkscape:collect="always"
       xlink:href="#linearGradient1713"
       id="linearGradient1715"
       x1="3.7041667"
       y1="7.4083338"
       x2="3.7041671"
       y2="13.758334"
       gradientUnits="userSpaceOnUse" />
    <linearGradient
       inkscape:collect="always"
       xlink:href="#linearGradient37218"
       id="linearGradient1781"
       x1="2.8346456e-08"
       y1="2.2677165e-07"
       x2="64"
       y2="64"
       gradientUnits="userSpaceOnUse"
       gradientTransform="matrix(0.26458333,0,0,0.26458333,1.3125e-6,1.25e-8)" />
    <linearGradient
       inkscape:collect="always"
       id="linearGradient37218">
      <stop
         style="stop-color:#ffffff;stop-opacity:1"
         offset="0"
         id="stop37214" />
      <stop
         style="stop-color:#717171;stop-opacity:0.00392157"
         offset="0.49741825"
         id="stop37220" />
      <stop
         style="stop-color:#000000;stop-opacity:1"
         offset="1"
         id="stop37216" />
    </linearGradient>
    <linearGradient
       inkscape:collect="always"
       xlink:href="#linearGradient983"
       id="linearGradient948"
       x1="-11.906251"
       y1="13.163021"
       x2="-11.90625"
       y2="-3.7703121"
       gradientUnits="userSpaceOnUse"
       gradientTransform="translate(19.314584,3.7703123)" />
  </defs>
  <path
     id="rect863"
     style="fill:url(#linearGradient948);fill-opacity:1;stroke-width:0.264583"
     d="M 3.1750003,1.0583333 H 13.758334 c 1.172634,0 2.116667,0.9440333 2.116667,2.1166665 V 13.758333 c 0,1.172634 -0.944033,2.116667 -2.116667,2.116667 H 3.1750003 c -1.172632,0 -2.116666,-0.944033 -2.116666,-2.116667 V 3.1749998 c 0,-1.1726332 0.944034,-2.1166665 2.116666,-2.1166665 z" />
  <path
     id="rect1345"
     style="opacity:0.3;fill:url(#linearGradient1781);fill-opacity:1;stroke-width:0.264583"
     d="m 3.1750003,1.0583333 c -1.172633,0 -2.116667,0.9440334 -2.116667,2.1166667 v 10.583333 c 0,1.172634 0.944034,2.116667 2.116667,2.116667 H 13.758334 c 1.172633,0 2.116666,-0.944033 2.116666,-2.116667 V 3.175 c 0,-1.1726333 -0.944033,-2.1166667 -2.116666,-2.1166667 z m 0,0.2645834 H 13.758334 c 1.026054,0 1.852083,0.8260291 1.852083,1.8520833 v 10.583333 c 0,1.026054 -0.826029,1.852084 -1.852083,1.852084 H 3.1750003 c -1.026055,0 -1.852083,-0.82603 -1.852083,-1.852084 V 3.175 c 0,-1.0260542 0.826028,-1.8520833 1.852083,-1.8520833 z" />
  <path
     id="rect874"
     style="fill:url(#linearGradient1715);stroke-width:0.432954;fill-opacity:1"
     d="M 5.0030305,3.7041667 A 1.2988637,1.2988637 0 0 0 3.7041667,5.0030305 1.2988637,1.2988637 0 0 0 4.5700759,6.2274803 v 4.4783727 a 1.2988637,1.2988637 0 0 0 -0.8659092,1.22445 1.2988637,1.2988637 0 0 0 1.2988638,1.298864 1.2988637,1.2988637 0 0 0 1.2244498,-0.865909 h 4.4783747 a 1.2988637,1.2988637 0 0 0 1.224449,0.865909 1.2988637,1.2988637 0 0 0 1.298863,-1.298864 1.2988637,1.2988637 0 0 0 -0.865908,-1.22445 V 6.2274803 A 1.2988637,1.2988637 0 0 0 13.229167,5.0030305 1.2988637,1.2988637 0 0 0 11.930304,3.7041667 1.2988637,1.2988637 0 0 0 10.706699,4.5700759 H 6.2274803 A 1.2988637,1.2988637 0 0 0 5.0030305,3.7041667 Z m 1.2244498,1.7318185 h 4.4783747 a 1.2988637,1.2988637 0 0 0 0.165741,0.3196422 l -0.60969,0.6096879 A 0.64943189,0.64943189 0 0 0 9.982007,6.3018948 0.64943189,0.64943189 0 0 0 9.3706293,6.7348494 H 7.5643971 A 0.64943189,0.64943189 0 0 0 6.9513261,6.3018942 0.64943189,0.64943189 0 0 0 6.6722737,6.3661613 L 6.0617395,5.7556274 A 1.2988637,1.2988637 0 0 0 6.2274803,5.4359852 Z M 5.7547817,6.0625855 6.3653153,6.673119 A 0.64943189,0.64943189 0 0 0 6.3018941,6.9513261 0.64943189,0.64943189 0 0 0 6.7348489,7.5635509 V 9.3697827 A 0.64943189,0.64943189 0 0 0 6.3018941,9.9820079 0.64943189,0.64943189 0 0 0 6.3661613,10.262752 L 5.7564731,10.87244 A 1.2988637,1.2988637 0 0 0 5.4359852,10.705853 V 6.2274803 A 1.2988637,1.2988637 0 0 0 5.7547817,6.0625855 Z m 5.4237713,0 a 1.2988637,1.2988637 0 0 0 0.318796,0.1648948 V 10.705853 A 1.2988637,1.2988637 0 0 0 11.176861,10.87244 L 10.567173,10.262752 A 0.64943189,0.64943189 0 0 0 10.631442,9.9820079 0.64943189,0.64943189 0 0 0 10.198488,9.3697827 V 7.5635509 A 0.64943189,0.64943189 0 0 0 10.631441,6.9513261 0.64943189,0.64943189 0 0 0 10.568018,6.673119 Z M 7.5643971,7.1678035 H 9.3697833 A 0.64943189,0.64943189 0 0 0 9.7655311,7.5635509 V 9.3697827 A 0.64943189,0.64943189 0 0 0 9.3706293,9.7655313 H 7.5643971 A 0.64943189,0.64943189 0 0 0 7.1678039,9.3697827 V 7.5635509 A 0.64943189,0.64943189 0 0 0 7.5643971,7.1678035 Z m 0,3.0306815 h 1.8053862 a 0.64943189,0.64943189 0 0 0 0.6122237,0.432954 0.64943189,0.64943189 0 0 0 0.279899,-0.06341 l 0.610534,0.609688 a 1.2988637,1.2988637 0 0 0 -0.165741,0.319638 H 6.2274803 A 1.2988637,1.2988637 0 0 0 6.0617395,11.177706 l 0.6096882,-0.609688 a 0.64943189,0.64943189 0 0 0 0.2798984,0.06342 0.64943189,0.64943189 0 0 0 0.613071,-0.432956 z" />
  <path
     id="rect874-3"
     style="opacity:0.3;fill:url(#linearGradient1469);stroke-width:1.63636;fill-opacity:1"
     d="M 49.96875 19.361328 A 4.9090912 4.9090912 0 0 1 46.726562 23.537109 L 46.726562 24.537109 A 4.9090912 4.9090912 0 0 0 50 19.908203 A 4.9090912 4.9090912 0 0 0 49.96875 19.361328 z M 14.035156 19.417969 A 4.9090912 4.9090912 0 0 0 14 19.908203 A 4.9090912 4.9090912 0 0 0 17.273438 24.537109 L 17.273438 23.537109 A 4.9090912 4.9090912 0 0 1 14.035156 19.417969 z M 23.537109 20.544922 A 4.9090912 4.9090912 0 0 1 22.910156 21.753906 L 23.285156 22.128906 A 4.9090912 4.9090912 0 0 0 23.537109 21.544922 L 40.462891 21.544922 A 4.9090912 4.9090912 0 0 0 40.714844 22.128906 L 41.089844 21.753906 A 4.9090912 4.9090912 0 0 1 40.462891 20.544922 L 23.537109 20.544922 z M 21.75 22.914062 A 4.9090912 4.9090912 0 0 1 20.544922 23.537109 L 20.544922 24.537109 A 4.9090912 4.9090912 0 0 0 21.75 23.914062 L 23.839844 26.001953 A 2.4545458 2.4545458 0 0 1 24.058594 25.220703 L 21.75 22.914062 z M 42.25 22.914062 L 39.941406 25.220703 A 2.4545458 2.4545458 0 0 1 40.160156 26.001953 L 42.25 23.914062 A 4.9090912 4.9090912 0 0 0 43.455078 24.537109 L 43.455078 23.537109 A 4.9090912 4.9090912 0 0 1 42.25 22.914062 z M 23.873047 26.787109 A 2.4545458 2.4545458 0 0 0 23.818359 27.273438 A 2.4545458 2.4545458 0 0 0 25.455078 29.585938 L 25.455078 28.585938 A 2.4545458 2.4545458 0 0 1 23.873047 26.787109 z M 40.126953 26.787109 A 2.4545458 2.4545458 0 0 1 38.544922 28.585938 L 38.544922 29.585938 A 2.4545458 2.4545458 0 0 0 40.181641 27.273438 A 2.4545458 2.4545458 0 0 0 40.126953 26.787109 z M 28.589844 27.091797 A 2.4545458 2.4545458 0 0 1 27.091797 28.585938 L 27.091797 29.585938 A 2.4545458 2.4545458 0 0 0 28.589844 28.091797 L 35.414062 28.091797 A 2.4545458 2.4545458 0 0 0 36.908203 29.585938 L 36.908203 28.585938 A 2.4545458 2.4545458 0 0 1 35.414062 27.091797 L 28.589844 27.091797 z M 23.873047 38.212891 A 2.4545458 2.4545458 0 0 0 23.818359 38.726562 A 2.4545458 2.4545458 0 0 0 23.839844 39.009766 L 24.060547 38.789062 A 2.4545458 2.4545458 0 0 1 23.873047 38.212891 z M 40.126953 38.212891 A 2.4545458 2.4545458 0 0 1 39.939453 38.789062 L 40.160156 39.009766 A 2.4545458 2.4545458 0 0 0 40.181641 38.726562 A 2.4545458 2.4545458 0 0 0 40.126953 38.212891 z M 28.589844 38.544922 A 2.4545458 2.4545458 0 0 1 26.273438 40.181641 A 2.4545458 2.4545458 0 0 1 25.214844 39.941406 L 22.910156 42.246094 A 4.9090912 4.9090912 0 0 1 23.285156 42.871094 L 25.214844 40.941406 A 2.4545458 2.4545458 0 0 0 26.273438 41.181641 A 2.4545458 2.4545458 0 0 0 28.589844 39.544922 L 35.414062 39.544922 A 2.4545458 2.4545458 0 0 0 37.726562 41.181641 A 2.4545458 2.4545458 0 0 0 38.785156 40.941406 L 40.71875 42.873047 A 4.9090912 4.9090912 0 0 1 41.091797 42.246094 L 38.785156 39.941406 A 2.4545458 2.4545458 0 0 1 37.726562 40.181641 A 2.4545458 2.4545458 0 0 1 35.414062 38.544922 L 28.589844 38.544922 z M 14.035156 45.582031 A 4.9090912 4.9090912 0 0 0 14 46.091797 A 4.9090912 4.9090912 0 0 0 18.908203 51 A 4.9090912 4.9090912 0 0 0 23.537109 47.726562 L 40.462891 47.726562 A 4.9090912 4.9090912 0 0 0 45.091797 51 A 4.9090912 4.9090912 0 0 0 50 46.091797 A 4.9090912 4.9090912 0 0 0 49.96875 45.638672 A 4.9090912 4.9090912 0 0 1 45.091797 50 A 4.9090912 4.9090912 0 0 1 40.462891 46.726562 L 23.537109 46.726562 A 4.9090912 4.9090912 0 0 1 18.908203 50 A 4.9090912 4.9090912 0 0 1 14.035156 45.582031 z "
     transform="scale(0.26458333)" />
</svg>
