<?xml version="1.0" encoding="UTF-8" standalone="no"?>
<!-- Created with Inkscape (http://www.inkscape.org/) -->

<svg
   width="64"
   height="64"
   viewBox="0 0 16.933333 16.933333"
   version="1.1"
   id="svg5"
   inkscape:version="1.2 (dc2aedaf03, 2022-05-15)"
   sodipodi:docname="gnome-robots.svg"
   xmlns:inkscape="http://www.inkscape.org/namespaces/inkscape"
   xmlns:sodipodi="http://sodipodi.sourceforge.net/DTD/sodipodi-0.dtd"
   xmlns:xlink="http://www.w3.org/1999/xlink"
   xmlns="http://www.w3.org/2000/svg"
   xmlns:svg="http://www.w3.org/2000/svg">
  <sodipodi:namedview
     id="namedview7"
     pagecolor="#ffffff"
     bordercolor="#666666"
     borderopacity="1.0"
     inkscape:pageshadow="2"
     inkscape:pageopacity="0.0"
     inkscape:pagecheckerboard="0"
     inkscape:document-units="px"
     showgrid="false"
     units="px"
     height="48px"
     inkscape:zoom="12.34375"
     inkscape:cx="31.959494"
     inkscape:cy="32"
     inkscape:window-width="1920"
     inkscape:window-height="1011"
     inkscape:window-x="0"
     inkscape:window-y="0"
     inkscape:window-maximized="1"
     inkscape:current-layer="svg5"
     inkscape:lockguides="true"
     inkscape:showpageshadow="2"
     inkscape:deskcolor="#d1d1d1" />
  <defs
     id="defs2">
    <linearGradient
       inkscape:collect="always"
       id="linearGradient8660">
      <stop
         style="stop-color:#aa0000;stop-opacity:1;"
         offset="0"
         id="stop8656" />
      <stop
         style="stop-color:#ff1a1a;stop-opacity:1"
         offset="1"
         id="stop8658" />
    </linearGradient>
    <linearGradient
       inkscape:collect="always"
       id="linearGradient6036">
      <stop
         style="stop-color:#000000;stop-opacity:1;"
         offset="0"
         id="stop6032" />
      <stop
         style="stop-color:#000000;stop-opacity:0;"
         offset="1"
         id="stop6034" />
    </linearGradient>
    <linearGradient
       inkscape:collect="always"
       id="linearGradient4207">
      <stop
         style="stop-color:#e6e6e6;stop-opacity:1"
         offset="0"
         id="stop4203" />
      <stop
         style="stop-color:#999999;stop-opacity:1"
         offset="1"
         id="stop4205" />
    </linearGradient>
    <linearGradient
       inkscape:collect="always"
       id="linearGradient1714">
      <stop
         style="stop-color:#333333;stop-opacity:1"
         offset="0"
         id="stop1710" />
      <stop
         style="stop-color:#545454;stop-opacity:1"
         offset="0.5"
         id="stop1782" />
      <stop
         style="stop-color:#333333;stop-opacity:1"
         offset="1"
         id="stop1712" />
    </linearGradient>
    <linearGradient
       inkscape:collect="always"
       id="linearGradient3453">
      <stop
         style="stop-color:#333333;stop-opacity:1;"
         offset="0"
         id="stop3449" />
      <stop
         style="stop-color:#666666;stop-opacity:1"
         offset="1"
         id="stop3451" />
    </linearGradient>
    <linearGradient
       inkscape:collect="always"
       xlink:href="#linearGradient37218"
       id="linearGradient1781"
       x1="2.8346456e-08"
       y1="2.2677165e-07"
       x2="64"
       y2="64"
       gradientUnits="userSpaceOnUse"
       gradientTransform="scale(0.26458333)" />
    <linearGradient
       inkscape:collect="always"
       id="linearGradient37218">
      <stop
         style="stop-color:#ffffff;stop-opacity:1"
         offset="0"
         id="stop37214" />
      <stop
         style="stop-color:#717171;stop-opacity:0.00392157"
         offset="0.49741825"
         id="stop37220" />
      <stop
         style="stop-color:#000000;stop-opacity:1"
         offset="1"
         id="stop37216" />
    </linearGradient>
    <linearGradient
       inkscape:collect="always"
       xlink:href="#linearGradient3453"
       id="linearGradient3455"
       x1="12.170833"
       y1="16.933334"
       x2="12.170834"
       y2="6.7529299e-07"
       gradientUnits="userSpaceOnUse" />
    <linearGradient
       inkscape:collect="always"
       xlink:href="#linearGradient1714"
       id="linearGradient1716"
       x1="3.7041667"
       y1="8.4666666"
       x2="13.229166"
       y2="8.4666666"
       gradientUnits="userSpaceOnUse" />
    <radialGradient
       inkscape:collect="always"
       xlink:href="#linearGradient4207"
       id="radialGradient3177"
       cx="19.989073"
       cy="28.412205"
       fx="19.989073"
       fy="28.412205"
       r="19.587891"
       gradientTransform="matrix(1.4243469,0.46339982,-0.51032964,1.5685953,8.0282162,-33.830184)"
       gradientUnits="userSpaceOnUse" />
    <linearGradient
       inkscape:collect="always"
       xlink:href="#linearGradient6036"
       id="linearGradient6038"
       x1="4.4160156"
       y1="62.5"
       x2="57.595703"
       y2="18.5"
       gradientUnits="userSpaceOnUse" />
    <linearGradient
       inkscape:collect="always"
       xlink:href="#linearGradient8660"
       id="linearGradient8238"
       x1="8.4666662"
       y1="8.9958324"
       x2="8.4666662"
       y2="7.9374995"
       gradientUnits="userSpaceOnUse" />
  </defs>
  <path
     id="rect863"
     style="fill:url(#linearGradient3455);stroke-width:0.264583;fill-opacity:1"
     d="M 3.1750003,1.0583333 H 13.758333 c 1.172634,0 2.116667,0.944034 2.116667,2.116667 V 13.758333 c 0,1.172634 -0.944033,2.116667 -2.116667,2.116667 H 3.1750003 c -1.172633,0 -2.116667,-0.944033 -2.116667,-2.116667 V 3.1750003 c 0,-1.172633 0.944034,-2.116667 2.116667,-2.116667 z" />
  <path
     id="rect1345"
     style="opacity:0.3;fill:url(#linearGradient1781);fill-opacity:1;stroke-width:0.264583"
     d="m 3.1750003,1.0583333 c -1.172633,0 -2.116667,0.944034 -2.116667,2.116667 V 13.758333 c 0,1.172634 0.944034,2.116667 2.116667,2.116667 H 13.758334 c 1.172633,0 2.116666,-0.944033 2.116666,-2.116667 V 3.1750003 c 0,-1.172633 -0.944033,-2.116667 -2.116666,-2.116667 z m 0,0.264584 H 13.758334 c 1.026054,0 1.852083,0.826029 1.852083,1.852083 V 13.758333 c 0,1.026054 -0.826029,1.852084 -1.852083,1.852084 H 3.1750003 c -1.026054,0 -1.852083,-0.82603 -1.852083,-1.852084 V 3.1750003 c 0,-1.026054 0.826029,-1.852083 1.852083,-1.852083 z" />
  <path
     id="path948"
     style="fill:url(#radialGradient3177);stroke-width:9.47369;stroke-linecap:round;stroke-linejoin:round;fill-opacity:1"
     d="M 32 12 C 22.502112 12.0075 14.319497 18.694005 12.419922 28 L 51.595703 28 C 49.694951 18.688257 41.503758 12.000102 32 12 z M 12.416016 36 C 14.315886 45.307431 22.500645 51.994331 32 52 C 41.499355 51.9943 49.684114 45.307431 51.583984 36 L 12.416016 36 z "
     transform="scale(0.26458333)" />
  <rect
     style="fill:url(#linearGradient1716);stroke-width:2.28303;stroke-linecap:round;stroke-linejoin:round;fill-opacity:1"
     id="rect1404"
     width="9.5249996"
     height="2.1166666"
     x="3.7041667"
     y="7.4083333" />
  <path
     id="path948-2"
     style="fill:url(#linearGradient6038);fill-opacity:1;stroke-width:9.47369;stroke-linecap:round;stroke-linejoin:round;opacity:0.3"
     d="M 12.652344 28 C 12.567362 28.329773 12.488677 28.663171 12.419922 29 L 14 29 L 50 29 L 51.595703 29 C 51.526906 28.662963 51.448324 28.32997 51.363281 28 L 50 28 L 14 28 L 12.652344 28 z M 12.416016 37 C 14.315886 46.30743 22.500645 52.994331 32 53 C 41.499353 52.994331 49.684114 46.30743 51.583984 37 L 51.351562 37 C 49.08824 45.78259 41.155524 51.994536 32 52 C 22.844472 51.994536 14.91176 45.78259 12.648438 37 L 12.416016 37 z "
     transform="scale(0.26458333)" />
  <path
     id="path6616"
     style="opacity:1;fill:url(#linearGradient8238);fill-opacity:1;stroke-width:2.01733;stroke-linecap:round;stroke-linejoin:round"
     d="M 6.0854165 7.9374998 A 0.52916664 0.52916664 0 0 0 5.5562499 8.4666665 A 0.52916664 0.52916664 0 0 0 6.0854165 8.9958332 A 0.52916664 0.52916664 0 0 0 6.6145832 8.4666665 A 0.52916664 0.52916664 0 0 0 6.0854165 7.9374998 z M 8.4666665 7.9374998 A 0.52916664 0.52916664 0 0 0 7.9374998 8.4666665 A 0.52916664 0.52916664 0 0 0 8.4666665 8.9958332 A 0.52916664 0.52916664 0 0 0 8.9958332 8.4666665 A 0.52916664 0.52916664 0 0 0 8.4666665 7.9374998 z M 10.847916 7.9374998 A 0.52916664 0.52916664 0 0 0 10.31875 8.4666665 A 0.52916664 0.52916664 0 0 0 10.847916 8.9958332 A 0.52916664 0.52916664 0 0 0 11.377083 8.4666665 A 0.52916664 0.52916664 0 0 0 10.847916 7.9374998 z " />
</svg>
