<?xml version="1.0" encoding="UTF-8" standalone="no"?>
<!-- Created with Inkscape (http://www.inkscape.org/) -->

<svg
   width="64"
   height="64"
   viewBox="0 0 16.933333 16.933333"
   version="1.1"
   id="svg5"
   inkscape:version="1.1.1 (3bf5ae0d25, 2021-09-20, custom)"
   sodipodi:docname="gnome-extensions.svg"
   xmlns:inkscape="http://www.inkscape.org/namespaces/inkscape"
   xmlns:sodipodi="http://sodipodi.sourceforge.net/DTD/sodipodi-0.dtd"
   xmlns:xlink="http://www.w3.org/1999/xlink"
   xmlns="http://www.w3.org/2000/svg"
   xmlns:svg="http://www.w3.org/2000/svg">
  <sodipodi:namedview
     id="namedview7"
     pagecolor="#ffffff"
     bordercolor="#666666"
     borderopacity="1.0"
     inkscape:pageshadow="2"
     inkscape:pageopacity="0.0"
     inkscape:pagecheckerboard="0"
     inkscape:document-units="px"
     showgrid="false"
     units="px"
     height="48px"
     inkscape:zoom="6.2968758"
     inkscape:cx="17.310171"
     inkscape:cy="34.461534"
     inkscape:window-width="1920"
     inkscape:window-height="1011"
     inkscape:window-x="0"
     inkscape:window-y="0"
     inkscape:window-maximized="1"
     inkscape:current-layer="svg5"
     inkscape:lockguides="true" />
  <defs
     id="defs2">
    <linearGradient
       inkscape:collect="always"
       id="linearGradient7606">
      <stop
         style="stop-color:#000000;stop-opacity:1;"
         offset="0"
         id="stop7602" />
      <stop
         style="stop-color:#000000;stop-opacity:0;"
         offset="1"
         id="stop7604" />
    </linearGradient>
    <linearGradient
       inkscape:collect="always"
       id="linearGradient5554">
      <stop
         style="stop-color:#85da22;stop-opacity:1"
         offset="0"
         id="stop5550" />
      <stop
         style="stop-color:#bae251;stop-opacity:1"
         offset="1"
         id="stop5552" />
    </linearGradient>
    <linearGradient
       inkscape:collect="always"
       id="linearGradient3966">
      <stop
         style="stop-color:#ffffff;stop-opacity:1;"
         offset="0"
         id="stop3962" />
      <stop
         style="stop-color:#d6ffcc;stop-opacity:0.99985904"
         offset="1"
         id="stop3964" />
    </linearGradient>
    <linearGradient
       inkscape:collect="always"
       id="linearGradient37218">
      <stop
         style="stop-color:#1a1a1a;stop-opacity:1"
         offset="0"
         id="stop37214" />
      <stop
         style="stop-color:#e6e6e6;stop-opacity:0.00306325"
         offset="0.49741825"
         id="stop37220" />
      <stop
         style="stop-color:#ffffff;stop-opacity:1"
         offset="1"
         id="stop37216" />
    </linearGradient>
    <linearGradient
       inkscape:collect="always"
       xlink:href="#linearGradient37218"
       id="linearGradient881"
       x1="64.208344"
       y1="64.062607"
       x2="0.30528301"
       y2="0.13507102"
       gradientUnits="userSpaceOnUse" />
    <linearGradient
       inkscape:collect="always"
       xlink:href="#linearGradient3966"
       id="linearGradient3968"
       x1="11.641666"
       y1="4.2333341"
       x2="11.641665"
       y2="13.229167"
       gradientUnits="userSpaceOnUse"
       gradientTransform="matrix(1.1250002,0,0,1.1250002,-0.52916714,-1.3229172)" />
    <linearGradient
       inkscape:collect="always"
       xlink:href="#linearGradient5554"
       id="linearGradient5556"
       x1="11.641666"
       y1="16.933332"
       x2="11.641666"
       y2="-2.7838135e-07"
       gradientUnits="userSpaceOnUse" />
    <linearGradient
       inkscape:collect="always"
       xlink:href="#linearGradient7606"
       id="linearGradient7608"
       x1="12"
       y1="55.001953"
       x2="58"
       y2="25.001953"
       gradientUnits="userSpaceOnUse"
       gradientTransform="matrix(0.26458333,0,0,0.26458333,0,-0.26458329)" />
  </defs>
  <path
     id="rect846-3"
     style="fill:url(#linearGradient5556);stroke-width:0.337527;fill-opacity:1"
     d="m 3.175,1.5875 h 10.583333 c 0.879475,0 1.5875,0.708025 1.5875,1.5875 v 10.583333 c 0,0.879475 -0.708025,1.5875 -1.5875,1.5875 H 3.175 c -0.879475,0 -1.5875,-0.708025 -1.5875,-1.5875 V 3.175 c 0,-0.879475 0.708025,-1.5875 1.5875,-1.5875 z" />
  <path
     id="rect846"
     style="opacity:0.3;fill:url(#linearGradient881);stroke-width:1.27569;fill-opacity:1"
     d="M 12 6 C 8.6760005 6 6 8.6760005 6 12 L 6 52 C 6 55.324 8.6760005 58 12 58 L 52 58 C 55.324 58 58 55.324 58 52 L 58 12 C 58 8.6760005 55.324 6 52 6 L 12 6 z M 12 7 L 52 7 C 54.77 7 57 9.23 57 12 L 57 52 C 57 54.77 54.77 57 52 57 L 12 57 C 9.23 57 7 54.77 7 52 L 7 12 C 7 9.23 9.23 7 12 7 z "
     transform="scale(0.26458333)" />
  <path
     id="rect1239"
     style="opacity:1;fill:url(#linearGradient3968);fill-opacity:1;stroke-width:0.552453;stroke-linejoin:round"
     d="M 8.1028648,3.4395833 A 1.1906251,1.1906251 0 0 0 6.9122397,4.6302084 1.1906251,1.1906251 0 0 0 7.0715323,5.225521 H 5.3815192 c -0.6360492,0 -1.148186,0.5121367 -1.148186,1.1481859 v 1.5307206 c 0,0 0.550099,0.00184 0.8929688,0 0.6575642,0 1.1906252,0.533061 1.1906252,1.1906251 0,0.6575641 -0.533061,1.1906244 -1.1906252,1.1906244 -0.3428698,-0.0018 -0.8929688,0 -0.8929688,0 v 1.53072 c 0,0.636049 0.5121368,1.148186 1.148186,1.148186 h 1.5307205 c 0,0 0.00184,-0.550099 0,-0.892968 0,-0.657565 0.5330612,-1.190625 1.1906251,-1.190625 0.6575642,0 1.1906252,0.53306 1.1906252,1.190625 -3.869e-4,0.34195 0,0.892968 0,0.892968 h 1.530721 c 0.636048,0 1.148185,-0.512137 1.148185,-1.148186 v -1.69001 a 1.1906251,1.1906251 0 0 0 0.595312,0.15929 1.1906251,1.1906251 0 0 0 1.190625,-1.1906244 1.1906251,1.1906251 0 0 0 -1.190625,-1.1906251 1.1906251,1.1906251 0 0 0 -0.595312,0.1592926 V 6.3737069 c 0,-0.6360492 -0.512137,-1.1481859 -1.148185,-1.1481859 H 9.1341975 A 1.1906251,1.1906251 0 0 0 9.29349,4.6302084 1.1906251,1.1906251 0 0 0 8.1028648,3.4395833 Z" />
  <path
     id="rect1239-7"
     style="opacity:0.3;fill:url(#linearGradient7608);fill-opacity:1;stroke-width:0.552453;stroke-linejoin:round"
     d="M 9.285738,4.7635335 A 1.1906251,1.1906251 0 0 1 9.1343262,5.2255208 H 9.246464 A 1.1906251,1.1906251 0 0 0 9.2934895,4.8947917 1.1906251,1.1906251 0 0 0 9.285738,4.7635335 Z m -2.3647135,0.00258 a 1.1906251,1.1906251 0 0 0 -0.00878,0.1286743 1.1906251,1.1906251 0 0 0 0.048059,0.3307291 H 7.0714028 A 1.1906251,1.1906251 0 0 1 6.9210245,4.7661174 Z M 4.2333333,7.9044271 v 0.2645833 c 0,0 0.5500989,0.00184 0.8929687,0 0.6128838,0 1.1171126,0.4629777 1.1828735,1.0583333 0.00479,-0.043402 0.00775,-0.087611 0.00775,-0.1322917 0,-0.6575639 -0.5330608,-1.1906249 -1.190625,-1.1906249 -0.3428698,0.00184 -0.8929687,0 -0.8929687,0 z m 9.5172487,1.3229166 a 1.1906251,1.1906251 0 0 1 -1.182874,1.0583333 1.1906251,1.1906251 0 0 1 -0.595312,-0.159163 v 0.264583 a 1.1906251,1.1906251 0 0 0 0.595312,0.159163 1.1906251,1.1906251 0 0 0 1.190625,-1.1906246 1.1906251,1.1906251 0 0 0 -0.0078,-0.1322917 z M 8.1028645,10.880989 c -0.6575639,0 -1.190625,0.53306 -1.190625,1.190625 4.082e-4,0.07609 -1.061e-4,0.167057 0,0.255282 0.005,-0.653279 0.5361673,-1.181324 1.190625,-1.181324 0.6575642,0 1.190625,0.53306 1.190625,1.190625 9e-6,-0.118255 -1.146e-4,-0.163264 0,-0.264583 0,-0.657565 -0.5330608,-1.190625 -1.190625,-1.190625 z m -3.8695312,0.935343 v 0.264584 c 0,0.636049 0.512201,1.14825 1.1482504,1.14825 h 1.5306558 c 0,0 4.741e-4,-0.232315 5.167e-4,-0.488342 -2.151e-4,0.103305 -5.167e-4,0.223759 -5.167e-4,0.223759 H 5.3815837 c -0.6360494,0 -1.1482504,-0.512201 -1.1482504,-1.148251 z m 7.7390627,0 c 0,0.63605 -0.512203,1.148251 -1.148251,1.148251 H 9.2934895 c 3.78e-5,0.07698 0,0.264583 0,0.264583 h 1.5306555 c 0.636048,0 1.148251,-0.512201 1.148251,-1.14825 z" />
</svg>
