<?xml version="1.0" encoding="UTF-8" standalone="no"?>
<!-- Created with Inkscape (http://www.inkscape.org/) -->

<svg
   width="64"
   height="64"
   viewBox="0 0 16.933333 16.933333"
   version="1.1"
   id="svg5"
   inkscape:version="1.1.1 (3bf5ae0d25, 2021-09-20, custom)"
   sodipodi:docname="gnome-tweaks.svg"
   xmlns:inkscape="http://www.inkscape.org/namespaces/inkscape"
   xmlns:sodipodi="http://sodipodi.sourceforge.net/DTD/sodipodi-0.dtd"
   xmlns:xlink="http://www.w3.org/1999/xlink"
   xmlns="http://www.w3.org/2000/svg"
   xmlns:svg="http://www.w3.org/2000/svg">
  <sodipodi:namedview
     id="namedview7"
     pagecolor="#ffffff"
     bordercolor="#666666"
     borderopacity="1.0"
     inkscape:pageshadow="2"
     inkscape:pageopacity="0.0"
     inkscape:pagecheckerboard="0"
     inkscape:document-units="px"
     showgrid="false"
     units="px"
     height="48px"
     inkscape:zoom="5.656854"
     inkscape:cx="34.383069"
     inkscape:cy="60.369244"
     inkscape:window-width="1853"
     inkscape:window-height="1019"
     inkscape:window-x="0"
     inkscape:window-y="0"
     inkscape:window-maximized="1"
     inkscape:current-layer="svg5"
     inkscape:lockguides="true" />
  <defs
     id="defs2">
    <linearGradient
       inkscape:collect="always"
       id="linearGradient5398">
      <stop
         style="stop-color:#000000;stop-opacity:1;"
         offset="0"
         id="stop5394" />
      <stop
         style="stop-color:#000000;stop-opacity:0;"
         offset="1"
         id="stop5396" />
    </linearGradient>
    <linearGradient
       inkscape:collect="always"
       id="linearGradient4126">
      <stop
         style="stop-color:#cbcbcb;stop-opacity:1"
         offset="0"
         id="stop4122" />
      <stop
         style="stop-color:#ffffff;stop-opacity:1"
         offset="1"
         id="stop4124" />
    </linearGradient>
    <linearGradient
       inkscape:collect="always"
       id="linearGradient2772">
      <stop
         style="stop-color:#62c3ff;stop-opacity:1;"
         offset="0"
         id="stop2768" />
      <stop
         style="stop-color:#009ae9;stop-opacity:1"
         offset="1"
         id="stop2770" />
    </linearGradient>
    <linearGradient
       inkscape:collect="always"
       id="linearGradient2542">
      <stop
         style="stop-color:#4d4d4d;stop-opacity:1;"
         offset="0"
         id="stop2538" />
      <stop
         style="stop-color:#939393;stop-opacity:1"
         offset="1"
         id="stop2540" />
    </linearGradient>
    <linearGradient
       inkscape:collect="always"
       id="linearGradient948">
      <stop
         style="stop-color:#e6e6e6;stop-opacity:1"
         offset="0"
         id="stop944" />
      <stop
         style="stop-color:#f9f9f9;stop-opacity:1"
         offset="1"
         id="stop946" />
    </linearGradient>
    <linearGradient
       inkscape:collect="always"
       xlink:href="#linearGradient2542"
       id="linearGradient2544"
       x1="3.175"
       y1="14.287499"
       x2="13.758332"
       y2="7.4083328"
       gradientUnits="userSpaceOnUse"
       gradientTransform="translate(0.26458318)" />
    <linearGradient
       inkscape:collect="always"
       xlink:href="#linearGradient2772"
       id="linearGradient2774"
       x1="13.758333"
       y1="3.175"
       x2="3.1749995"
       y2="8.9958324"
       gradientUnits="userSpaceOnUse"
       gradientTransform="translate(0.26458318)" />
    <linearGradient
       inkscape:collect="always"
       xlink:href="#linearGradient4126"
       id="linearGradient4128"
       x1="3.4395838"
       y1="7.9375"
       x2="3.4395835"
       y2="4.2333331"
       gradientUnits="userSpaceOnUse"
       gradientTransform="translate(0.26458318)" />
    <linearGradient
       inkscape:collect="always"
       xlink:href="#linearGradient4126"
       id="linearGradient4574"
       gradientUnits="userSpaceOnUse"
       x1="3.4395838"
       y1="7.9375"
       x2="3.4395835"
       y2="4.2333331"
       gradientTransform="translate(6.0854166,5.2916672)" />
    <linearGradient
       inkscape:collect="always"
       xlink:href="#linearGradient5398"
       id="linearGradient5400"
       x1="24"
       y1="65.75"
       x2="54"
       y2="21.75"
       gradientUnits="userSpaceOnUse"
       gradientTransform="matrix(0.26458333,0,0,0.26458333,0.26458318,0)" />
    <linearGradient
       inkscape:collect="always"
       xlink:href="#linearGradient37218"
       id="linearGradient1781"
       x1="2.8346456e-08"
       y1="2.2677165e-07"
       x2="64"
       y2="64"
       gradientUnits="userSpaceOnUse"
       gradientTransform="scale(0.26458333)" />
    <linearGradient
       inkscape:collect="always"
       id="linearGradient37218">
      <stop
         style="stop-color:#ffffff;stop-opacity:1"
         offset="0"
         id="stop37214" />
      <stop
         style="stop-color:#717171;stop-opacity:0.00392157"
         offset="0.49741825"
         id="stop37220" />
      <stop
         style="stop-color:#000000;stop-opacity:1"
         offset="1"
         id="stop37216" />
    </linearGradient>
    <linearGradient
       inkscape:collect="always"
       xlink:href="#linearGradient948"
       id="linearGradient960"
       x1="11.641666"
       y1="16.933334"
       x2="11.641666"
       y2="6.7529299e-07"
       gradientUnits="userSpaceOnUse" />
  </defs>
  <path
     id="rect863"
     style="fill:url(#linearGradient960);stroke-width:0.264583;fill-opacity:1"
     d="M 3.1749999,1.0583333 H 13.758333 c 1.172634,0 2.116667,0.944034 2.116667,2.116667 V 13.758333 c 0,1.172634 -0.944033,2.116667 -2.116667,2.116667 H 3.1749999 c -1.1726326,0 -2.1166666,-0.944033 -2.1166666,-2.116667 V 3.1750003 c 0,-1.172633 0.944034,-2.116667 2.1166666,-2.116667 z" />
  <path
     id="rect1345"
     style="opacity:0.3;fill:url(#linearGradient1781);fill-opacity:1;stroke-width:0.264583"
     d="m 3.1749999,1.0583333 c -1.1726326,0 -2.1166666,0.944034 -2.1166666,2.116667 V 13.758333 c 0,1.172634 0.944034,2.116667 2.1166666,2.116667 H 13.758334 c 1.172633,0 2.116666,-0.944033 2.116666,-2.116667 V 3.1750003 c 0,-1.172633 -0.944033,-2.116667 -2.116666,-2.116667 z m 0,0.264584 H 13.758334 c 1.026054,0 1.852083,0.826029 1.852083,1.852083 V 13.758333 c 0,1.026054 -0.826029,1.852084 -1.852083,1.852084 H 3.1749999 c -1.0260536,0 -1.8520826,-0.82603 -1.8520826,-1.852084 V 3.1750003 c 0,-1.026054 0.826029,-1.852083 1.8520826,-1.852083 z" />
  <path
     id="rect1276"
     style="opacity:1;fill:url(#linearGradient2774);stroke-width:0.716903;stroke-linecap:round;stroke-linejoin:round"
     d="m 5.5562498,4.2333331 h 5.8208332 c 0.879475,0 1.5875,0.708025 1.5875,1.5875 0,0.879475 -0.708025,1.5875 -1.5875,1.5875 H 5.5562498 c -0.879475,0 -1.5874999,-0.708025 -1.5874999,-1.5875 0,-0.879475 0.7080249,-1.5875 1.5874999,-1.5875 z"
     sodipodi:nodetypes="sssssss" />
  <path
     id="rect1276-3"
     style="opacity:0.5;fill:url(#linearGradient2544);stroke-width:0.716903;stroke-linecap:round;stroke-linejoin:round"
     d="m 5.5562498,9.5249987 h 5.8208332 c 0.879475,0 1.5875,0.7080253 1.5875,1.5875003 0,0.879475 -0.708025,1.5875 -1.5875,1.5875 H 5.5562498 c -0.879475,0 -1.5874999,-0.708025 -1.5874999,-1.5875 0,-0.879475 0.7080249,-1.5875003 1.5874999,-1.5875003 z"
     sodipodi:nodetypes="sssssss" />
  <circle
     style="opacity:1;fill:url(#linearGradient4128);fill-opacity:1;stroke-width:0.933177;stroke-linecap:round;stroke-linejoin:round"
     id="path3468"
     cx="5.5562501"
     cy="5.8208332"
     r="1.3229166" />
  <circle
     style="fill:url(#linearGradient4574);fill-opacity:1;stroke-width:0.933177;stroke-linecap:round;stroke-linejoin:round"
     id="path3468-5"
     cx="11.377083"
     cy="11.1125"
     r="1.3229166" />
  <path
     id="rect1276-6"
     style="opacity:0.3;fill:url(#linearGradient5400);fill-opacity:1;stroke-width:0.716902;stroke-linecap:round;stroke-linejoin:round"
     d="m 3.9744341,5.9531249 c -0.00357,0.043616 -0.00568,0.087725 -0.00568,0.1322917 0,0.879475 0.708025,1.5875 1.5875,1.5875 h 5.8208329 c 0.879475,0 1.5875,-0.708025 1.5875,-1.5875 0,-0.044566 -0.0021,-0.088675 -0.0057,-0.1322917 -0.06681,0.8171048 -0.746907,1.4552083 -1.581816,1.4552083 H 5.5562498 c -0.8349086,0 -1.5150029,-0.6381035 -1.5818157,-1.4552083 z m 0,5.2916671 c -0.00357,0.04362 -0.00568,0.08772 -0.00568,0.132291 0,0.879475 0.708025,1.5875 1.5875,1.5875 h 5.8208329 c 0.879475,0 1.5875,-0.708025 1.5875,-1.5875 0,-0.04457 -0.0021,-0.08868 -0.0057,-0.132291 C 12.892086,12.061896 12.211992,12.7 11.377083,12.7 H 5.5562498 c -0.8349086,0 -1.5150029,-0.638104 -1.5818157,-1.455208 z"
     sodipodi:nodetypes="csssscssccsssscssc" />
</svg>
