<?xml version="1.0" encoding="UTF-8" standalone="no"?>
<!-- Created with Inkscape (http://www.inkscape.org/) -->

<svg
   width="64"
   height="64"
   viewBox="0 0 16.933333 16.933333"
   version="1.1"
   id="svg5"
   inkscape:version="1.1.1 (3bf5ae0d25, 2021-09-20, custom)"
   sodipodi:docname="gnome-todo.svg"
   xmlns:inkscape="http://www.inkscape.org/namespaces/inkscape"
   xmlns:sodipodi="http://sodipodi.sourceforge.net/DTD/sodipodi-0.dtd"
   xmlns:xlink="http://www.w3.org/1999/xlink"
   xmlns="http://www.w3.org/2000/svg"
   xmlns:svg="http://www.w3.org/2000/svg">
  <sodipodi:namedview
     id="namedview7"
     pagecolor="#ffffff"
     bordercolor="#666666"
     borderopacity="1.0"
     inkscape:pageshadow="2"
     inkscape:pageopacity="0.0"
     inkscape:pagecheckerboard="0"
     inkscape:document-units="px"
     showgrid="false"
     units="px"
     height="48px"
     inkscape:zoom="11.313708"
     inkscape:cx="21.831922"
     inkscape:cy="30.273009"
     inkscape:window-width="1920"
     inkscape:window-height="1011"
     inkscape:window-x="0"
     inkscape:window-y="0"
     inkscape:window-maximized="1"
     inkscape:current-layer="svg5"
     inkscape:lockguides="true" />
  <defs
     id="defs2">
    <linearGradient
       inkscape:collect="always"
       id="linearGradient5475">
      <stop
         style="stop-color:#ededed;stop-opacity:1"
         offset="0"
         id="stop5471" />
      <stop
         style="stop-color:#fcfcfc;stop-opacity:1"
         offset="1"
         id="stop5473" />
    </linearGradient>
    <linearGradient
       inkscape:collect="always"
       id="linearGradient37218">
      <stop
         style="stop-color:#808080;stop-opacity:1"
         offset="0"
         id="stop37214" />
      <stop
         style="stop-color:#717171;stop-opacity:0.00392157"
         offset="0.49741825"
         id="stop37220" />
      <stop
         style="stop-color:#808080;stop-opacity:1"
         offset="1"
         id="stop37216" />
    </linearGradient>
    <linearGradient
       inkscape:collect="always"
       xlink:href="#linearGradient5475"
       id="linearGradient1241"
       x1="-0.07266596"
       y1="17.248035"
       x2="-0.072665736"
       y2="0.31470177"
       gradientUnits="userSpaceOnUse"
       gradientTransform="translate(16.476832,-0.314702)" />
    <linearGradient
       inkscape:collect="always"
       xlink:href="#linearGradient37218"
       id="linearGradient1781"
       x1="2.8346456e-08"
       y1="2.2677165e-07"
       x2="64"
       y2="64"
       gradientUnits="userSpaceOnUse" />
  </defs>
  <path
     id="rect863"
     style="opacity:1;fill:url(#linearGradient1241);stroke-width:0.264583"
     d="M 3.1749998,1.0583333 H 13.758333 c 1.172634,0 2.116667,0.9440333 2.116667,2.1166665 V 13.758333 c 0,1.172634 -0.944033,2.116667 -2.116667,2.116667 H 3.1749998 c -1.1726332,0 -2.1166665,-0.944033 -2.1166665,-2.116667 V 3.1749998 c 0,-1.1726332 0.9440333,-2.1166665 2.1166665,-2.1166665 z" />
  <path
     id="rect1345"
     style="opacity:0.3;fill:url(#linearGradient1781);stroke-width:0.999999;fill-opacity:1"
     d="M 12 4 C 7.5680001 4 4 7.5680001 4 12 L 4 52 C 4 56.432 7.5680001 60 12 60 L 52 60 C 56.432 60 60 56.432 60 52 L 60 12 C 60 7.5680001 56.432 4 52 4 L 12 4 z M 12 5 L 52 5 C 55.878 5 59 8.1219999 59 12 L 59 52 C 59 55.878 55.878 59 52 59 L 12 59 C 8.1219999 59 5 55.878 5 52 L 5 12 C 5 8.1219999 8.1219999 5 12 5 z "
     transform="scale(0.26458333)" />
  <path
     id="path1039"
     style="opacity:0.6;fill:#19aaf7;stroke-width:9;stroke-linecap:round;stroke-linejoin:round;fill-opacity:1"
     d="M 15 27 A 4.9999998 4.9999998 0 0 0 10 32 A 4.9999998 4.9999998 0 0 0 15 37 A 4.9999998 4.9999998 0 0 0 20 32 A 4.9999998 4.9999998 0 0 0 15 27 z M 15 28 A 4 4 0 0 1 19 32 A 4 4 0 0 1 15 36 A 4 4 0 0 1 11 32 A 4 4 0 0 1 15 28 z M 15 29 A 3 3 0 0 0 12 32 A 3 3 0 0 0 15 35 A 3 3 0 0 0 18 32 A 3 3 0 0 0 15 29 z "
     transform="scale(0.26458333)" />
  <path
     id="path1143"
     style="opacity:0.6;fill:#fdac00;stroke-width:9;stroke-linecap:round;stroke-linejoin:round;fill-opacity:1"
     d="M 15 42 A 4.9999998 4.9999998 0 0 0 10 47 A 4.9999998 4.9999998 0 0 0 15 52 A 4.9999998 4.9999998 0 0 0 20 47 A 4.9999998 4.9999998 0 0 0 15 42 z M 15 43 A 4 4 0 0 1 19 47 A 4 4 0 0 1 15 51 A 4 4 0 0 1 11 47 A 4 4 0 0 1 15 43 z M 15 44 A 3 3 0 0 0 12 47 A 3 3 0 0 0 15 50 A 3 3 0 0 0 18 47 A 3 3 0 0 0 15 44 z "
     transform="scale(0.26458333)" />
  <path
     id="path935"
     style="opacity:0.6;fill:#d40000;stroke-width:2.97656;stroke-linecap:round;stroke-linejoin:round"
     d="M 3.9687499,3.175 A 1.3229166,1.3229166 0 0 0 2.6458333,4.4979166 1.3229166,1.3229166 0 0 0 3.9687499,5.8208333 1.3229166,1.3229166 0 0 0 5.2916666,4.4979166 1.3229166,1.3229166 0 0 0 3.9687499,3.175 Z m 0,0.2645833 A 1.0583333,1.0583333 0 0 1 5.0270833,4.4979166 1.0583333,1.0583333 0 0 1 3.9687499,5.5562499 1.0583333,1.0583333 0 0 1 2.9104166,4.4979166 1.0583333,1.0583333 0 0 1 3.9687499,3.4395833 Z m 0,0.2645833 a 0.79374999,0.79374999 0 0 0 -0.79375,0.79375 0.79374999,0.79374999 0 0 0 0.79375,0.79375 0.79374999,0.79374999 0 0 0 0.79375,-0.79375 0.79374999,0.79374999 0 0 0 -0.79375,-0.79375 z" />
  <rect
     style="opacity:0.3;fill:#000000;stroke-width:2.20461;stroke-linecap:round;stroke-linejoin:round"
     id="rect1875"
     width="7.9375"
     height="0.52916664"
     x="6.3499999"
     y="4.2333331" />
  <rect
     style="opacity:0.3;fill:#000000;stroke-width:2.38125;stroke-linecap:round;stroke-linejoin:round"
     id="rect1979"
     width="7.9375005"
     height="0.5291667"
     x="6.3499999"
     y="8.2020836" />
  <rect
     style="opacity:0.3;fill:#000000;stroke-width:2.38125;stroke-linecap:round;stroke-linejoin:round"
     id="rect2083"
     width="7.9375005"
     height="0.52916718"
     x="6.3499999"
     y="12.170833" />
</svg>
