<?xml version="1.0" encoding="UTF-8" standalone="no"?>
<!-- Created with Inkscape (http://www.inkscape.org/) -->

<svg
   width="64"
   height="64"
   viewBox="0 0 16.933333 16.933333"
   version="1.1"
   id="svg5"
   inkscape:version="1.1.1 (3bf5ae0d25, 2021-09-20, custom)"
   sodipodi:docname="google-drive.svg"
   xmlns:inkscape="http://www.inkscape.org/namespaces/inkscape"
   xmlns:sodipodi="http://sodipodi.sourceforge.net/DTD/sodipodi-0.dtd"
   xmlns:xlink="http://www.w3.org/1999/xlink"
   xmlns="http://www.w3.org/2000/svg"
   xmlns:svg="http://www.w3.org/2000/svg">
  <sodipodi:namedview
     id="namedview7"
     pagecolor="#ffffff"
     bordercolor="#666666"
     borderopacity="1.0"
     inkscape:pageshadow="2"
     inkscape:pageopacity="0.0"
     inkscape:pagecheckerboard="0"
     inkscape:document-units="px"
     showgrid="true"
     units="px"
     height="48px"
     inkscape:zoom="7.9999996"
     inkscape:cx="29.625001"
     inkscape:cy="49.437502"
     inkscape:window-width="1920"
     inkscape:window-height="1019"
     inkscape:window-x="0"
     inkscape:window-y="0"
     inkscape:window-maximized="1"
     inkscape:current-layer="svg5"
     inkscape:lockguides="true" />
  <defs
     id="defs2">
    <linearGradient
       inkscape:collect="always"
       id="linearGradient37218">
      <stop
         style="stop-color:#1a1a1a;stop-opacity:1"
         offset="0"
         id="stop37214" />
      <stop
         style="stop-color:#afafaf;stop-opacity:0.40000001"
         offset="0.49741825"
         id="stop37220" />
      <stop
         style="stop-color:#4d4d4d;stop-opacity:1"
         offset="1"
         id="stop37216" />
    </linearGradient>
    <linearGradient
       inkscape:collect="always"
       xlink:href="#linearGradient37218"
       id="linearGradient881"
       x1="64.208344"
       y1="64.062607"
       x2="0.30528301"
       y2="0.13507102"
       gradientUnits="userSpaceOnUse" />
    <linearGradient
       id="path29_1_"
       gradientUnits="userSpaceOnUse"
       x1="239.3423"
       y1="1021.4185"
       x2="258.2334"
       y2="1054.1401"
       gradientTransform="matrix(0.04277371,0,0,0.04277371,-1.4422934,-34.435687)">
      <stop
         offset="0"
         style="stop-color:#991700;stop-opacity:0"
         id="stop16" />
      <stop
         offset="1"
         style="stop-color:#991700;stop-opacity:0.1"
         id="stop18" />
    </linearGradient>
  </defs>
  <path
     id="rect846-3"
     style="fill:#ffffff;stroke-width:0.337527;fill-opacity:1"
     d="m 3.175,1.5875 h 10.583333 c 0.879475,0 1.5875,0.708025 1.5875,1.5875 v 10.583333 c 0,0.879475 -0.708025,1.5875 -1.5875,1.5875 H 3.175 c -0.879475,0 -1.5875,-0.708025 -1.5875,-1.5875 V 3.175 c 0,-0.879475 0.708025,-1.5875 1.5875,-1.5875 z" />
  <path
     id="rect846"
     style="opacity:0.3;fill:url(#linearGradient881);stroke-width:1.27569;fill-opacity:1"
     d="M 12 6 C 8.6760005 6 6 8.6760005 6 12 L 6 52 C 6 55.324 8.6760005 58 12 58 L 52 58 C 55.324 58 58 55.324 58 52 L 58 12 C 58 8.6760005 55.324 6 52 6 L 12 6 z M 12 7 L 52 7 C 54.77 7 57 9.23 57 12 L 57 52 C 57 54.77 54.77 57 52 57 L 12 57 C 9.23 57 7 54.77 7 52 L 7 12 C 7 9.23 9.23 7 12 7 z "
     transform="scale(0.26458333)" />
  <path
     inkscape:connector-curvature="0"
     d="m 4.4242697,11.527104 0.4200602,0.725558 c 0.087285,0.152749 0.2127578,0.272767 0.3600516,0.360052 l 1.500215,-2.596735 H 3.7041666 c 0,0.169115 0.043643,0.33823 0.1309279,0.490979 z"
     id="path2-0"
     style="fill:#0066da;stroke-width:0.109106" />
  <path
     inkscape:connector-curvature="0"
     d="M 8.4666667,6.9609962 6.9664514,4.3642613 c -0.1472935,0.08728 -0.2727661,0.207302 -0.3600513,0.360051 L 3.8350945,9.5249992 A 0.98850512,0.9885051 0 0 0 3.7041666,10.015979 h 3.0004299 z"
     id="path4-3"
     style="fill:#00ac47;stroke-width:0.109106" />
  <path
     inkscape:connector-curvature="0"
     d="m 11.728952,12.612714 c 0.147293,-0.08728 0.272766,-0.207303 0.360051,-0.360052 l 0.17457,-0.300043 0.834665,-1.445661 c 0.08729,-0.152749 0.130929,-0.321864 0.130929,-0.490979 h -3.000649 l 0.638492,1.254725 z"
     id="path6-0"
     style="fill:#ea4335;stroke-width:0.109106" />
  <path
     inkscape:connector-curvature="0"
     d="M 8.4666667,6.9609962 9.9668809,4.3642613 C 9.8195873,4.2769762 9.6504723,4.2333332 9.4759018,4.2333332 H 7.457431 c -0.1745705,0 -0.3436855,0.0491 -0.4909796,0.1309281 z"
     id="path8-4"
     style="fill:#00832d;stroke-width:0.109106" />
  <path
     inkscape:connector-curvature="0"
     d="M 10.228737,10.015979 H 6.7045965 l -1.500215,2.596735 c 0.1472938,0.08729 0.3164088,0.130928 0.4909793,0.130928 h 5.5426112 c 0.17457,0 0.343685,-0.0491 0.49098,-0.130928 z"
     id="path10-4"
     style="fill:#2684fc;stroke-width:0.109106" />
  <path
     inkscape:connector-curvature="0"
     d="m 11.712585,7.1246562 -1.385653,-2.400344 c -0.08728,-0.152749 -0.212757,-0.272766 -0.3600511,-0.360051 l -1.5002142,2.596735 1.7620703,3.0549828 h 2.994974 c 0,-0.1691158 -0.04364,-0.3382308 -0.130928,-0.4909798 z"
     id="path12"
     style="fill:#ffba00;stroke-width:0.109106" />
</svg>
