<?xml version="1.0" encoding="UTF-8" standalone="no"?>
<!-- Created with Inkscape (http://www.inkscape.org/) -->

<svg
   width="64"
   height="64"
   viewBox="0 0 16.933333 16.933333"
   version="1.1"
   id="svg5"
   inkscape:version="1.1.1 (3bf5ae0d25, 2021-09-20, custom)"
   sodipodi:docname="google-calculator.svg"
   xmlns:inkscape="http://www.inkscape.org/namespaces/inkscape"
   xmlns:sodipodi="http://sodipodi.sourceforge.net/DTD/sodipodi-0.dtd"
   xmlns:xlink="http://www.w3.org/1999/xlink"
   xmlns="http://www.w3.org/2000/svg"
   xmlns:svg="http://www.w3.org/2000/svg">
  <sodipodi:namedview
     id="namedview7"
     pagecolor="#ffffff"
     bordercolor="#666666"
     borderopacity="1.0"
     inkscape:pageshadow="2"
     inkscape:pageopacity="0.0"
     inkscape:pagecheckerboard="0"
     inkscape:document-units="px"
     showgrid="false"
     units="px"
     height="48px"
     inkscape:zoom="2.828427"
     inkscape:cx="-25.102292"
     inkscape:cy="56.038215"
     inkscape:window-width="1920"
     inkscape:window-height="1019"
     inkscape:window-x="0"
     inkscape:window-y="0"
     inkscape:window-maximized="1"
     inkscape:current-layer="svg5"
     inkscape:lockguides="true" />
  <defs
     id="defs2">
    <linearGradient
       inkscape:collect="always"
       id="linearGradient37218">
      <stop
         style="stop-color:#1a1a1a;stop-opacity:1"
         offset="0"
         id="stop37214" />
      <stop
         style="stop-color:#e6e6e6;stop-opacity:0.00306325"
         offset="0.49741825"
         id="stop37220" />
      <stop
         style="stop-color:#ffffff;stop-opacity:1"
         offset="1"
         id="stop37216" />
    </linearGradient>
    <linearGradient
       inkscape:collect="always"
       xlink:href="#linearGradient37218"
       id="linearGradient881"
       x1="64.208344"
       y1="64.062607"
       x2="0.30528301"
       y2="0.13507102"
       gradientUnits="userSpaceOnUse" />
    <linearGradient
       inkscape:collect="always"
       xlink:href="#linearGradient11192"
       id="linearGradient11194"
       x1="0.4447121"
       y1="-1.8023899"
       x2="12.951"
       y2="9.5994987"
       gradientUnits="userSpaceOnUse" />
    <linearGradient
       inkscape:collect="always"
       id="linearGradient11192">
      <stop
         style="stop-color:#333333;stop-opacity:1;"
         offset="0"
         id="stop11188" />
      <stop
         style="stop-color:#333333;stop-opacity:0;"
         offset="1"
         id="stop11190" />
    </linearGradient>
  </defs>
  <path
     id="rect846-3"
     style="fill:#4d4d4d;stroke-width:0.337527;fill-opacity:1"
     d="m 3.175,1.5875 h 10.583333 c 0.879475,0 1.5875,0.708025 1.5875,1.5875 v 10.583333 c 0,0.879475 -0.708025,1.5875 -1.5875,1.5875 H 3.175 c -0.879475,0 -1.5875,-0.708025 -1.5875,-1.5875 V 3.175 c 0,-0.879475 0.708025,-1.5875 1.5875,-1.5875 z" />
  <path
     id="rect858"
     style="fill:url(#linearGradient11194);fill-opacity:1;stroke-width:0.0352101"
     d="M 8.4666671,1.5875 15.345835,8.4666664 H 8.4666671 Z"
     sodipodi:nodetypes="cccc" />
  <path
     id="rect12222"
     style="fill:#f1f1f1;fill-opacity:1;stroke-width:0.240313"
     d="m 13.040307,3.7010915 -1.17369,1.1736892 -1.173689,-1.1736891 -0.374177,0.3741774 1.173689,1.1736887 -1.173689,1.173689 0.374177,0.374178 1.173689,-1.173689 1.173325,1.173323 0.374177,-0.374177 -1.173324,-1.173324 1.17369,-1.1736889 z" />
  <path
     id="rect10997"
     style="opacity:1;fill:#80868b;stroke-width:0.262661;fill-opacity:1"
     d="M 3.175,1.5875 H 8.4666666 V 8.4666666 H 1.5875 l 0,-5.2916666 c 0,-0.879475 0.708025,-1.5875 1.5875,-1.5875 z"
     sodipodi:nodetypes="sccccs" />
  <rect
     style="opacity:1;fill:#f1f1f1;fill-opacity:1;stroke-width:0.264583"
     id="rect4029"
     width="3.1750002"
     height="0.529167"
     x="3.4395843"
     y="5.0270863"
     ry="0" />
  <path
     id="rect15162"
     style="opacity:1;fill:#5f6368;stroke-width:0.263459"
     d="m 8.4666666,8.466666 -10e-8,6.879167 H 3.1750001 C 2.295525,15.345833 1.5875,14.637808 1.5875,13.758333 V 8.466666 Z"
     sodipodi:nodetypes="ccsscc" />
  <path
     id="rect11712-9"
     style="fill:#f1f1f1;fill-opacity:1;stroke-width:0.168372"
     d="m 4.762501,10.054166 v 1.322918 H 3.4395843 v 0.529167 H 4.762501 v 1.322917 H 5.2916677 V 11.906251 H 6.6145844 V 11.377084 H 5.2916677 v -1.322918 z" />
  <path
     id="rect19292"
     style="opacity:1;fill:#4285f4;stroke-width:0.258925;fill-opacity:1"
     d="m 15.345835,8.466666 v 5.291667 c 0,0.879475 -0.708025,1.5875 -1.5875,1.5875 H 8.466668 l 10e-8,-6.879167 z"
     sodipodi:nodetypes="cssccc" />
  <path
     id="rect11712-0"
     style="fill:#f1f1f1;fill-opacity:1;stroke-width:0.636367"
     d="M 39 40 L 39 42 L 51 42 L 51 40 L 39 40 z M 39 45.5 L 39 47.5 L 51 47.5 L 51 45.5 L 39 45.5 z "
     transform="scale(0.26458333)" />
  <path
     id="rect846"
     style="opacity:0.3;fill:url(#linearGradient881);stroke-width:1.27569;fill-opacity:1"
     d="M 12 6 C 8.6760005 6 6 8.6760005 6 12 L 6 52 C 6 55.324 8.6760005 58 12 58 L 52 58 C 55.324 58 58 55.324 58 52 L 58 12 C 58 8.6760005 55.324 6 52 6 L 12 6 z M 12 7 L 52 7 C 54.77 7 57 9.23 57 12 L 57 52 C 57 54.77 54.77 57 52 57 L 12 57 C 9.23 57 7 54.77 7 52 L 7 12 C 7 9.23 9.23 7 12 7 z "
     transform="scale(0.26458333)" />
</svg>
