<?xml version="1.0" encoding="UTF-8" standalone="no"?>
<!-- Created with Inkscape (http://www.inkscape.org/) -->

<svg
   width="64"
   height="64"
   viewBox="0 0 16.933333 16.933333"
   version="1.1"
   id="svg5"
   inkscape:version="1.1.1 (3bf5ae0d25, 2021-09-20, custom)"
   sodipodi:docname="google-music.svg"
   xmlns:inkscape="http://www.inkscape.org/namespaces/inkscape"
   xmlns:sodipodi="http://sodipodi.sourceforge.net/DTD/sodipodi-0.dtd"
   xmlns:xlink="http://www.w3.org/1999/xlink"
   xmlns="http://www.w3.org/2000/svg"
   xmlns:svg="http://www.w3.org/2000/svg">
  <sodipodi:namedview
     id="namedview7"
     pagecolor="#ffffff"
     bordercolor="#666666"
     borderopacity="1.0"
     inkscape:pageshadow="2"
     inkscape:pageopacity="0.0"
     inkscape:pagecheckerboard="0"
     inkscape:document-units="px"
     showgrid="true"
     units="px"
     height="48px"
     inkscape:zoom="7.9999996"
     inkscape:cx="29.625002"
     inkscape:cy="64.437503"
     inkscape:window-width="1920"
     inkscape:window-height="1019"
     inkscape:window-x="0"
     inkscape:window-y="0"
     inkscape:window-maximized="1"
     inkscape:current-layer="svg5"
     inkscape:lockguides="true" />
  <defs
     id="defs2">
    <linearGradient
       inkscape:collect="always"
       id="linearGradient37218">
      <stop
         style="stop-color:#1a1a1a;stop-opacity:1"
         offset="0"
         id="stop37214" />
      <stop
         style="stop-color:#afafaf;stop-opacity:0.40000001"
         offset="0.49741825"
         id="stop37220" />
      <stop
         style="stop-color:#4d4d4d;stop-opacity:1"
         offset="1"
         id="stop37216" />
    </linearGradient>
    <linearGradient
       inkscape:collect="always"
       xlink:href="#linearGradient37218"
       id="linearGradient881"
       x1="64.208344"
       y1="64.062607"
       x2="0.30528301"
       y2="0.13507102"
       gradientUnits="userSpaceOnUse" />
    <linearGradient
       id="path29_1_"
       gradientUnits="userSpaceOnUse"
       x1="239.3423"
       y1="1021.4185"
       x2="258.2334"
       y2="1054.1401"
       gradientTransform="matrix(0.04277371,0,0,0.04277371,-1.4422934,-34.435687)">
      <stop
         offset="0"
         style="stop-color:#991700;stop-opacity:0"
         id="stop16" />
      <stop
         offset="1"
         style="stop-color:#991700;stop-opacity:0.1"
         id="stop18" />
    </linearGradient>
  </defs>
  <path
     id="rect846-3"
     style="fill:#ffffff;stroke-width:0.337527;fill-opacity:1"
     d="m 3.175,1.5875 h 10.583333 c 0.879475,0 1.5875,0.708025 1.5875,1.5875 v 10.583333 c 0,0.879475 -0.708025,1.5875 -1.5875,1.5875 H 3.175 c -0.879475,0 -1.5875,-0.708025 -1.5875,-1.5875 V 3.175 c 0,-0.879475 0.708025,-1.5875 1.5875,-1.5875 z" />
  <path
     id="rect846"
     style="opacity:0.3;fill:url(#linearGradient881);stroke-width:1.27569;fill-opacity:1"
     d="M 12 6 C 8.6760005 6 6 8.6760005 6 12 L 6 52 C 6 55.324 8.6760005 58 12 58 L 52 58 C 55.324 58 58 55.324 58 52 L 58 12 C 58 8.6760005 55.324 6 52 6 L 12 6 z M 12 7 L 52 7 C 54.77 7 57 9.23 57 12 L 57 52 C 57 54.77 54.77 57 52 57 L 12 57 C 9.23 57 7 54.77 7 52 L 7 12 C 7 9.23 9.23 7 12 7 z "
     transform="scale(0.26458333)" />
  <path
     style="fill:#f4481e;stroke-width:0.0570316"
     inkscape:connector-curvature="0"
     d="M 12.394559,7.9364907 5.1743554,3.8302141 C 4.8663847,3.6591192 4.5869297,3.6705255 4.421538,3.8359172 4.3017716,3.9499805 4.2390369,4.1324816 4.2390369,4.3720145 v 8.1897405 c 0,0.239533 0.068438,0.422034 0.1825011,0.536097 0.1710949,0.165392 0.4448467,0.182501 0.7528174,0.0057 L 12.394559,8.9972788 c 0.518987,-0.2851581 0.518987,-0.7642237 0,-1.0607881 z"
     class="st2"
     id="path21" />
  <path
     style="opacity:0.1;fill:#ffffff;stroke-width:0.0570316;enable-background:new"
     inkscape:connector-curvature="0"
     d="M 12.394559,7.9878192 5.1743554,3.8815425 C 4.6553677,3.5906813 4.2333337,3.8302141 4.2333337,4.4233429 v -0.051328 c 0,-0.5931289 0.422034,-0.8383649 0.9410217,-0.5418004 L 12.394559,7.9364911 C 12.662607,8.0904765 12.79378,8.2957903 12.77667,8.5011041 12.76526,8.3128998 12.645498,8.1303986 12.394559,7.9878192 Z"
     class="st3"
     id="path23" />
  <path
     style="fill:#ffd119;stroke-width:0.0570316"
     inkscape:connector-curvature="0"
     d="m 11.681663,9.4136097 c 0.08555,-0.2965645 0.131173,-0.6159415 0.131173,-0.9410218 0,-1.9105592 -1.55126,-3.4675225 -3.4675225,-3.4675225 -1.9162624,0 -3.4675225,1.5512601 -3.4675225,3.4675225 0,1.6025881 1.0893039,2.9485351 2.5664229,3.3477561 z"
     class="st4"
     id="path25" />
  <circle
     style="fill:#ff8c00;stroke-width:0.0570316"
     r="2.1672015"
     cy="8.4725885"
     cx="8.345314"
     class="st5"
     id="circle27" />
  <path
     inkscape:connector-curvature="0"
     style="fill:url(#path29_1_);stroke-width:0.0570316"
     d="m 8.3453135,5.0050654 c -1.9105593,0 -3.4675225,1.5512601 -3.4675225,3.4675225 0,1.6025881 1.0893039,2.9485351 2.5664229,3.3477561 L 11.67596,9.4136097 c 0.08555,-0.2965645 0.131173,-0.6159415 0.131173,-0.9410218 0,-1.9105592 -1.55126,-3.4675225 -3.4618195,-3.4675225 z"
     class="st6"
     id="path29" />
  <path
     style="opacity:0.722;fill:#808080;stroke-width:0.0150896"
     inkscape:connector-curvature="0"
     d="M 8.4246632,7.4158716 V 8.748285 C 8.3492152,8.704525 8.2616953,8.677364 8.1696486,8.677364 c -0.2821759,0 -0.5039933,0.2278533 -0.5039933,0.5039933 0,0.2821759 0.2278533,0.5039933 0.5039933,0.5039933 0.2821759,0 0.5251188,-0.2278532 0.5251188,-0.5039933 V 7.9575889 H 9.1821621 V 7.4158716 Z"
     class="st8"
     id="path31" />
  <path
     style="fill:#fafafa;stroke-width:0.0570316"
     inkscape:connector-curvature="0"
     d="M 8.3453135,7.3376587 V 8.6664954 C 8.2711724,8.6208701 8.185625,8.5980575 8.0886712,8.5980575 c -0.2794549,0 -0.5018782,0.2281265 -0.5018782,0.5018783 0,0.2794549 0.2281264,0.5018782 0.5018782,0.5018782 0.2794549,0 0.5246909,-0.2281265 0.5246909,-0.5018782 V 7.8737559 H 9.0981309 V 7.3319555 Z"
     class="st9"
     id="path35" />
  <path
     style="opacity:0.3;fill:#ffffff;stroke-width:0.0570316;enable-background:new"
     inkscape:connector-curvature="0"
     d="m 8.3453135,5.0620971 c 1.9048565,0 3.4561165,1.5398537 3.4675225,3.4447098 v -0.034219 c 0,-1.9105592 -1.55126,-3.4675225 -3.4675225,-3.4675225 -1.9162624,0 -3.4675225,1.5512601 -3.4675225,3.4675225 v 0.028516 C 4.8949005,6.5962476 6.4404574,5.0620971 8.3453135,5.0620971 Z"
     class="st10"
     id="path37" />
</svg>
