<?xml version="1.0" encoding="UTF-8" standalone="no"?>
<!-- Created with Inkscape (http://www.inkscape.org/) -->

<svg
   width="64"
   height="64"
   viewBox="0 0 16.933333 16.933333"
   version="1.1"
   id="svg5"
   inkscape:version="1.1.1 (3bf5ae0d25, 2021-09-20, custom)"
   sodipodi:docname="google-chrome-beta.svg"
   xmlns:inkscape="http://www.inkscape.org/namespaces/inkscape"
   xmlns:sodipodi="http://sodipodi.sourceforge.net/DTD/sodipodi-0.dtd"
   xmlns:xlink="http://www.w3.org/1999/xlink"
   xmlns="http://www.w3.org/2000/svg"
   xmlns:svg="http://www.w3.org/2000/svg">
  <sodipodi:namedview
     id="namedview7"
     pagecolor="#ffffff"
     bordercolor="#666666"
     borderopacity="1.0"
     inkscape:pageshadow="2"
     inkscape:pageopacity="0.0"
     inkscape:pagecheckerboard="0"
     inkscape:document-units="px"
     showgrid="true"
     units="px"
     height="48px"
     inkscape:zoom="7.5484086"
     inkscape:cx="44.380216"
     inkscape:cy="54.448563"
     inkscape:window-width="1920"
     inkscape:window-height="1011"
     inkscape:window-x="0"
     inkscape:window-y="0"
     inkscape:window-maximized="1"
     inkscape:current-layer="svg5"
     inkscape:lockguides="true" />
  <defs
     id="defs2">
    <linearGradient
       inkscape:collect="always"
       id="linearGradient37218">
      <stop
         style="stop-color:#1a1a1a;stop-opacity:1"
         offset="0"
         id="stop37214" />
      <stop
         style="stop-color:#afafaf;stop-opacity:0.40000001"
         offset="0.49741825"
         id="stop37220" />
      <stop
         style="stop-color:#4d4d4d;stop-opacity:1"
         offset="1"
         id="stop37216" />
    </linearGradient>
    <linearGradient
       inkscape:collect="always"
       xlink:href="#linearGradient37218"
       id="linearGradient881"
       x1="64.208344"
       y1="64.062607"
       x2="0.30528301"
       y2="0.13507102"
       gradientUnits="userSpaceOnUse" />
    <linearGradient
       inkscape:collect="always"
       xlink:href="#linearGradient8986"
       id="linearGradient8988"
       x1="343.89917"
       y1="131.7724"
       x2="288.6394"
       y2="105.74506"
       gradientUnits="userSpaceOnUse"
       gradientTransform="translate(27.10082,13.354545)" />
    <linearGradient
       inkscape:collect="always"
       id="linearGradient8986">
      <stop
         style="stop-color:#055524;stop-opacity:0.40000001"
         offset="0"
         id="stop8982" />
      <stop
         style="stop-color:#055524;stop-opacity:0.00243676"
         offset="0.33000001"
         id="stop9592" />
      <stop
         style="stop-color:#055524;stop-opacity:0;"
         offset="1"
         id="stop8984" />
    </linearGradient>
    <linearGradient
       inkscape:collect="always"
       xlink:href="#linearGradient5320"
       id="linearGradient5322"
       x1="339.97534"
       y1="29.645454"
       x2="359.89917"
       y2="91.645454"
       gradientUnits="userSpaceOnUse"
       gradientTransform="translate(27.100816,13.354545)" />
    <linearGradient
       inkscape:collect="always"
       id="linearGradient5320">
      <stop
         style="stop-color:#ea6100;stop-opacity:0.3019608"
         offset="0"
         id="stop5316" />
      <stop
         style="stop-color:#ea6100;stop-opacity:0.00289255"
         offset="0.66000003"
         id="stop5388" />
      <stop
         style="stop-color:#ea6100;stop-opacity:0;"
         offset="1"
         id="stop5318" />
    </linearGradient>
    <linearGradient
       inkscape:collect="always"
       xlink:href="#linearGradient7553"
       id="linearGradient7555"
       x1="257.79175"
       y1="63.645454"
       x2="308.25464"
       y2="33.645454"
       gradientUnits="userSpaceOnUse"
       gradientTransform="translate(27.190663,13.454155)" />
    <linearGradient
       inkscape:collect="always"
       id="linearGradient7553">
      <stop
         style="stop-color:#a52714;stop-opacity:0.99215686"
         offset="0"
         id="stop7549" />
      <stop
         style="stop-color:#a52714;stop-opacity:0"
         offset="0.66000003"
         id="stop7777" />
      <stop
         style="stop-color:#a52714;stop-opacity:0;"
         offset="1"
         id="stop7551" />
    </linearGradient>
    <radialGradient
       inkscape:collect="always"
       xlink:href="#linearGradient29324"
       id="radialGradient29326"
       cx="359.70151"
       cy="117.08517"
       fx="359.70151"
       fy="117.08517"
       r="19.409994"
       gradientTransform="matrix(3.4729536,0,0,3.5600214,-905.19043,-322.30696)"
       gradientUnits="userSpaceOnUse" />
    <linearGradient
       inkscape:collect="always"
       id="linearGradient29324">
      <stop
         style="stop-color:#263238;stop-opacity:0.2"
         offset="0"
         id="stop29320" />
      <stop
         style="stop-color:#263238;stop-opacity:0;"
         offset="1"
         id="stop29322" />
    </linearGradient>
    <radialGradient
       inkscape:collect="always"
       xlink:href="#linearGradient27513"
       id="radialGradient27515"
       cx="349"
       cy="20.275003"
       fx="349"
       fy="20.275003"
       r="39.200001"
       gradientTransform="matrix(2.020408,0,0,1.8998723,-356.12236,10.480081)"
       gradientUnits="userSpaceOnUse" />
    <linearGradient
       inkscape:collect="always"
       id="linearGradient27513">
      <stop
         style="stop-color:#3e2723;stop-opacity:0.2"
         offset="0"
         id="stop27509" />
      <stop
         style="stop-color:#3e2723;stop-opacity:0"
         offset="1"
         id="stop27511" />
    </linearGradient>
    <radialGradient
       inkscape:collect="always"
       xlink:href="#linearGradient27513"
       id="radialGradient35106"
       cx="274.87961"
       cy="46.549999"
       fx="274.87961"
       fy="46.549999"
       r="28.625"
       gradientTransform="matrix(2.3973753,0,0,2.4393014,-384.09686,-71.986974)"
       gradientUnits="userSpaceOnUse" />
  </defs>
  <path
     id="rect846-3"
     style="fill:#ffffff;stroke-width:0.337527;fill-opacity:1"
     d="m 3.175,1.5875 h 10.583333 c 0.879475,0 1.5875,0.708025 1.5875,1.5875 v 10.583333 c 0,0.879475 -0.708025,1.5875 -1.5875,1.5875 H 3.175 c -0.879475,0 -1.5875,-0.708025 -1.5875,-1.5875 V 3.175 c 0,-0.879475 0.708025,-1.5875 1.5875,-1.5875 z" />
  <path
     id="rect846"
     style="opacity:0.3;fill:url(#linearGradient881);stroke-width:1.27569;fill-opacity:1"
     d="M 12 6 C 8.6760005 6 6 8.6760005 6 12 L 6 52 C 6 55.324 8.6760005 58 12 58 L 52 58 C 55.324 58 58 55.324 58 52 L 58 12 C 58 8.6760005 55.324 6 52 6 L 12 6 z M 12 7 L 52 7 C 54.77 7 57 9.23 57 12 L 57 52 C 57 54.77 54.77 57 52 57 L 12 57 C 9.23 57 7 54.77 7 52 L 7 12 C 7 9.23 9.23 7 12 7 z "
     transform="scale(0.26458333)" />
  <g
     id="g38077"
     transform="matrix(0.05411932,0,0,0.05411932,-10.420976,3.6500473)">
    <path
       id="path2795"
       style="fill:#db4437;fill-opacity:1;stroke-width:0.951353"
       d="M 349,1 A 88,88 0 0 0 274.89258,41.562503 L 314.34961,109 C 315.29922,108.6 349,49.000003 349,49.000003 h 78.35547 A 88,88 0 0 0 349,1 Z" />
    <path
       id="path2999"
       style="fill:#0f9d58;fill-opacity:1;stroke-width:1.04222"
       d="M 274.9082,41.535153 A 88,88 0 0 0 261,89.000003 88,88 0 0 0 345.07617,176.71875 l 38.66406,-67.61914 h -69.30078 z" />
    <path
       id="path2999-9"
       style="fill:url(#linearGradient8988);fill-opacity:1;stroke-width:1.04222"
       d="M 274.9082,41.535153 A 88,88 0 0 0 261,89.000003 88,88 0 0 0 345.07617,176.71875 l 38.66406,-67.61914 h -69.30078 z" />
    <path
       id="path4009"
       style="fill:#ffcd40;fill-opacity:1;stroke-width:0.940164"
       d="m 349,49.000003 34.74023,60.099607 -38.66406,67.61914 c 1.30568,0.12298 2.61395,0.21675 3.92383,0.28125 48.60106,0 88,-39.39894 88,-87.999997 -0.009,-13.90814 -3.31392,-27.61616 -9.64453,-40 z"
       sodipodi:nodetypes="ccccccc" />
    <path
       id="path4009-7"
       style="fill:url(#linearGradient5322);fill-opacity:1;stroke-width:0.940164"
       d="m 349,49.000003 34.74023,60.099617 -38.66406,67.61913 c 1.30568,0.12298 2.61395,0.21675 3.92383,0.28125 48.60106,0 88,-39.39894 88,-87.999995 -0.009,-13.908142 -3.31392,-27.616162 -9.64453,-40.000002 z"
       sodipodi:nodetypes="ccccccc" />
    <path
       id="rect37027"
       style="fill:#3e2723;fill-opacity:0.14902"
       d="m 274.55273,39.644531 a 88,88 0 0 0 -0.5664,0.75586 l -0.0781,0.134765 39.53907,67.800784 0.86132,-0.5 z"
       transform="translate(1,1)" />
    <path
       id="path2795-2"
       style="fill:url(#linearGradient7555);fill-opacity:1;stroke-width:0.951353"
       d="m 349.08984,1.09961 a 88,88 0 0 0 -74.10742,40.562503 l 39.45703,67.437497 c 0.94961,-0.4 34.65039,-59.999997 34.65039,-59.999997 h 78.35547 A 88,88 0 0 0 349.08984,1.09961 Z" />
    <path
       id="path10302"
       style="fill:#3e2723;fill-opacity:0.2;stroke-width:0.860913"
       d="m 348,47 c -22.09139,0 -40,17.90861 -40,40 0.012,0.166747 0.025,0.333417 0.0391,0.5 C 308.31254,65.619325 326.11762,48.019659 348,48 h 78.35547 a 88,88 0 0 0 -0.58985,-1 z"
       transform="translate(1,1)" />
    <path
       id="rect11816"
       style="fill:url(#radialGradient29326);fill-opacity:1"
       d="m 383.89616,108.81875 -17.86,-10.3 -20.95999,78.2 z"
       sodipodi:nodetypes="cccc" />
    <path
       id="rect12627"
       style="fill:#ffffff;fill-opacity:0.2"
       d="M 376.80664,60.263672 C 383.98405,67.713816 387.99593,77.654963 388,88 l -5.25977,20.09961 -38.66406,67.61914 c 0.26779,0.0252 0.53669,0.0358 0.80469,0.0586 l 37.48047,-64.76562 c 0.48828,-0.78008 0.94949,-1.57678 1.38281,-2.38867 l 0.98047,-1.69532 -0.0762,0.0371 C 387.48169,101.39845 388.97197,95.245896 389,89 388.99522,78.165136 384.59528,67.795701 376.80664,60.263672 Z"
       transform="translate(1,1)" />
    <path
       id="path13191"
       style="fill:#3e2723;fill-opacity:0.1;stroke-width:0.986001"
       d="M 349,48 A 40,40 0 0 0 348.74219,48.01758 40,40 0 0 1 388,88 40,40 0 0 1 348.5,127.96484 40,40 0 0 0 349,128 40,40 0 0 0 389,88 40,40 0 0 0 349,48 Z"
       transform="translate(1,1)" />
    <path
       id="path13191-8"
       style="fill:#3e2723;fill-opacity:0.1;stroke-width:0.986001"
       d="m 350,48.999956 a 40,40 0 0 0 -0.25781,0.01758 A 40,40 0 0 1 389,88.999956 40,40 0 0 1 349.5,128.9648 40,40 0 0 0 350,129 a 40,40 0 0 0 40,-40.000004 40,40 0 0 0 -40,-40 z" />
    <path
       id="rect14116"
       style="fill:url(#radialGradient27515);fill-opacity:1"
       d="m 349,49.000004 h 78.4 L 349,69.950005 Z"
       sodipodi:nodetypes="cccc" />
    <path
       id="path111-3"
       d="m 273.9082,40.535156 a 88,88 0 0 0 -0.17773,0.316406 l 39.82031,68.248048 c 6.92,11.94 19.79961,20 34.59961,20 12.63154,0 23.8492,-5.87576 31.17188,-15.02344 l 3.30859,-5.78515 c -6.94681,11.83259 -19.76124,19.80859 -34.48047,19.80859 -14.8,0 -27.69961,-8.06 -34.59961,-20 h -0.041 -0.0703 z"
       style="fill:#ffffff;fill-opacity:0.1"
       transform="translate(1,1)" />
    <path
       id="path33289"
       style="fill:#ffffff;fill-opacity:0.2;stroke-width:0.905648"
       d="m 348,0 a 88,88 0 0 0 -88,88 88,88 0 0 0 0.0352,0.5 A 88,88 0 0 1 348,1 88,88 0 0 1 435.98242,88.253906 88,88 0 0 0 436,88 88,88 0 0 0 348,0 Z"
       transform="translate(1,1)" />
    <path
       id="rect34189"
       style="fill:url(#radialGradient35106);fill-opacity:1"
       d="m 274.89258,41.562503 57.25,57.239999 -17.78,10.409998 z"
       sodipodi:nodetypes="cccc" />
    <path
       id="path35564"
       style="fill:#3e2723;fill-opacity:0.14902;stroke-width:0.98282"
       d="M 435.98242,87.253906 A 88,88 0 0 1 348,175 88,88 0 0 1 260.03516,87.5 88,88 0 0 0 260,88 a 88,88 0 0 0 88,88 88,88 0 0 0 88,-88 88,88 0 0 0 -0.0176,-0.746094 z"
       transform="translate(1,1)" />
    <path
       id="rect35898"
       style="fill:#263238;fill-opacity:0.14902"
       d="m 382.63086,108.29102 -1.66016,0.88086 -38.01172,66.46679 a 88,88 0 0 0 1.10547,0.0801 z"
       transform="translate(1,1)" />
    <circle
       style="fill:#f1f1f1;fill-opacity:1;stroke-width:1.07656"
       id="path10697"
       cx="349"
       cy="89"
       r="40" />
    <circle
       style="fill:#4285f4;fill-opacity:1;stroke-width:1.34765"
       id="path11362"
       cx="349"
       cy="89"
       r="32" />
    <path
       id="path39619"
       style="opacity:1;fill:#414242;fill-opacity:1;stroke-width:5.23477;stroke-linecap:round;stroke-linejoin:round"
       d="m 14.474609,35 a 17.999999,17.999999 0 0 0 0.002,0.0059 17.999999,17.999999 0 0 0 1.310547,4.335938 17.999999,17.999999 0 0 0 0.01563,0.0293 17.999999,17.999999 0 0 0 3.007813,4.582031 17.999999,17.999999 0 0 0 1.488281,1.488281 17.999999,17.999999 0 0 0 2.232422,1.6875 17.999999,17.999999 0 0 0 3.244141,1.652344 17.999999,17.999999 0 0 0 1.273437,0.435547 A 17.999999,17.999999 0 0 0 32,50 a 17.999999,17.999999 0 0 0 4.951172,-0.783203 17.999999,17.999999 0 0 0 1.273437,-0.435547 17.999999,17.999999 0 0 0 3.244141,-1.652344 17.999999,17.999999 0 0 0 2.232422,-1.6875 17.999999,17.999999 0 0 0 1.488281,-1.488281 17.999999,17.999999 0 0 0 3.007813,-4.582031 17.999999,17.999999 0 0 0 0.01563,-0.0293 17.999999,17.999999 0 0 0 1.310547,-4.335938 17.999999,17.999999 0 0 0 0.002,-0.0059 z"
       transform="matrix(4.8888886,0,0,4.8888886,192.55556,-67.444441)" />
    <path
       id="path59350"
       style="font-size:33.394px;line-height:1.25;font-family:'Google Sans';-inkscape-font-specification:'Google Sans';fill:#ffffff;stroke-width:0.170765"
       d="m 25.59375,38.601562 v 4.890626 h 1.851562 c 0.259563,0 0.501478,-0.05934 0.72461,-0.177735 0.227686,-0.118396 0.407004,-0.280763 0.539062,-0.490234 0.136612,-0.214026 0.205078,-0.454634 0.205078,-0.71875 0,-0.268671 -0.07759,-0.502761 -0.232421,-0.703125 -0.154826,-0.200363 -0.355661,-0.341862 -0.601563,-0.423828 v -0.02734 c 0.204918,-0.09563 0.365979,-0.23256 0.484375,-0.410156 0.122951,-0.1776 0.185547,-0.384305 0.185547,-0.621098 0,-0.250455 -0.0639,-0.475417 -0.191406,-0.675781 -0.127504,-0.200365 -0.300953,-0.35686 -0.519532,-0.470703 -0.214025,-0.113844 -0.443551,-0.171876 -0.689453,-0.171876 z m 8.134766,0.423829 v 0.984375 h -0.607422 v 0.52539 h 0.607422 v 2.042969 c 0,0.163935 0.02282,0.302172 0.06836,0.416016 0.04554,0.113843 0.114004,0.214261 0.205078,0.300781 0.08197,0.07741 0.182384,0.138056 0.300781,0.183594 0.122951,0.04554 0.25532,0.06836 0.396485,0.06836 0.10929,0 0.197319,-0.0059 0.265625,-0.01953 0.07286,-0.01366 0.144584,-0.03648 0.21289,-0.06836 V 42.89258 c -0.122951,0.07741 -0.250755,0.115235 -0.382812,0.115234 -0.163935,0 -0.28848,-0.05021 -0.375,-0.15039 -0.07286,-0.09107 -0.109375,-0.232571 -0.109375,-0.423828 v -1.898438 h 0.845703 v -0.52539 h -0.845703 v -0.984375 z m -7.560547,0.130859 h 1.208984 c 0.159381,0 0.297619,0.03782 0.416016,0.115234 0.122951,0.07741 0.217497,0.177831 0.28125,0.300782 0.06831,0.118397 0.101562,0.238378 0.101562,0.361328 0,0.127505 -0.03326,0.254003 -0.101562,0.376953 -0.06831,0.118398 -0.167417,0.215555 -0.294922,0.292969 -0.12295,0.07741 -0.265753,0.115234 -0.429688,0.115234 h -1.18164 z m 4.951172,0.744141 c -0.336975,0 -0.63171,0.08347 -0.886719,0.251953 -0.255008,0.168488 -0.452584,0.39345 -0.59375,0.675781 -0.136612,0.282331 -0.205078,0.592712 -0.205078,0.929687 0,0.350638 0.07303,0.666888 0.21875,0.949219 0.150272,0.277777 0.356976,0.49687 0.621094,0.65625 0.264115,0.159381 0.562109,0.238282 0.894531,0.238281 0.364298,0 0.674679,-0.08216 0.929687,-0.246093 0.259563,-0.163935 0.463009,-0.385639 0.613282,-0.667969 L 32.21875,42.447266 c -0.241349,0.418941 -0.584985,0.628906 -1.03125,0.628906 -0.191257,0 -0.37514,-0.04564 -0.552734,-0.136719 -0.173042,-0.09107 -0.315845,-0.228007 -0.429688,-0.410156 -0.113843,-0.182149 -0.177744,-0.405806 -0.191406,-0.669922 h 2.751953 c 0.01366,-0.05009 0.02148,-0.109428 0.02148,-0.177734 0,-0.346084 -0.06847,-0.653206 -0.205078,-0.921875 -0.132058,-0.268671 -0.323763,-0.476681 -0.574219,-0.626954 -0.250455,-0.154827 -0.547142,-0.232421 -0.888671,-0.232421 z m 5.970703,0 c -0.291439,0 -0.557481,0.05934 -0.798828,0.177734 -0.236794,0.118396 -0.423935,0.280762 -0.560547,0.490234 l 0.4375,0.328125 c 0.09563,-0.150272 0.224738,-0.265688 0.388672,-0.347656 0.163935,-0.08652 0.345205,-0.130859 0.541015,-0.130859 0.277777,0 0.507304,0.08085 0.689453,0.240234 0.182149,0.154826 0.273438,0.361531 0.273438,0.621094 v 0.212891 c -0.09563,-0.0592 -0.23582,-0.112666 -0.417969,-0.158204 -0.177596,-0.04554 -0.370607,-0.06836 -0.580078,-0.06836 -0.423496,0 -0.774956,0.104981 -1.052734,0.314453 -0.277777,0.204918 -0.416016,0.492477 -0.416016,0.861328 0,0.223133 0.05477,0.422015 0.164062,0.59961 0.109289,0.173042 0.26448,0.309975 0.464844,0.410156 0.200363,0.100182 0.428584,0.150391 0.683594,0.15039 0.250455,1e-6 0.475418,-0.05934 0.675781,-0.177734 0.200365,-0.118398 0.35099,-0.261201 0.451172,-0.429687 h 0.02734 v 0.498047 h 0.552734 v -2.205079 c 0,-0.428051 -0.136932,-0.765817 -0.410156,-1.011718 -0.26867,-0.250455 -0.639694,-0.375 -1.113281,-0.375 z m -5.976563,0.52539 c 0.236794,0 0.433065,0.05021 0.587891,0.150391 0.15938,0.100182 0.274796,0.223421 0.347656,0.36914 0.07286,0.145719 0.113938,0.291781 0.123047,0.4375 h -2.125 c 0.0592,-0.286884 0.182438,-0.518364 0.369141,-0.691406 0.191256,-0.177596 0.424042,-0.265625 0.697265,-0.265625 z m -4.945312,0.839844 h 1.283203 c 0.173041,0 0.326926,0.04108 0.458984,0.123047 0.132059,0.07741 0.233782,0.182394 0.306641,0.314453 0.07286,0.127504 0.109375,0.259873 0.109375,0.396484 0,0.136612 -0.03652,0.270285 -0.109375,0.402344 -0.06831,0.127504 -0.168723,0.232486 -0.300781,0.314453 -0.127504,0.08197 -0.273567,0.123047 -0.4375,0.123047 h -1.310547 z m 10.982422,0.470703 c 0.177596,0 0.346479,0.02282 0.505859,0.06836 0.15938,0.04554 0.295008,0.104875 0.404297,0.177734 0,0.200364 -0.05021,0.386199 -0.150391,0.554687 -0.100182,0.168489 -0.235808,0.302163 -0.404297,0.402344 -0.168488,0.100182 -0.349111,0.150391 -0.544921,0.150391 -0.223134,0 -0.40897,-0.05934 -0.554688,-0.177735 -0.14572,-0.118397 -0.21875,-0.273588 -0.21875,-0.464843 0,-0.209473 0.08085,-0.379662 0.240234,-0.511719 0.163934,-0.132059 0.403896,-0.199219 0.722657,-0.199219 z"
       transform="matrix(4.8888886,0,0,4.8888886,192.55556,-67.444441)" />
  </g>
</svg>
