<?xml version="1.0" encoding="UTF-8" standalone="no"?>
<!-- Created with Inkscape (http://www.inkscape.org/) -->

<svg
   width="64"
   height="64"
   viewBox="0 0 16.933333 16.933333"
   version="1.1"
   id="svg5"
   inkscape:version="1.1.1 (3bf5ae0d25, 2021-09-20, custom)"
   sodipodi:docname="google-calendar.svg"
   xmlns:inkscape="http://www.inkscape.org/namespaces/inkscape"
   xmlns:sodipodi="http://sodipodi.sourceforge.net/DTD/sodipodi-0.dtd"
   xmlns:xlink="http://www.w3.org/1999/xlink"
   xmlns="http://www.w3.org/2000/svg"
   xmlns:svg="http://www.w3.org/2000/svg">
  <sodipodi:namedview
     id="namedview7"
     pagecolor="#ffffff"
     bordercolor="#666666"
     borderopacity="1.0"
     inkscape:pageshadow="2"
     inkscape:pageopacity="0.0"
     inkscape:pagecheckerboard="0"
     inkscape:document-units="px"
     showgrid="true"
     units="px"
     height="48px"
     inkscape:zoom="3.9999998"
     inkscape:cx="13.125001"
     inkscape:cy="18.125001"
     inkscape:window-width="1853"
     inkscape:window-height="1019"
     inkscape:window-x="0"
     inkscape:window-y="0"
     inkscape:window-maximized="1"
     inkscape:current-layer="svg5"
     inkscape:lockguides="true" />
  <defs
     id="defs2">
    <linearGradient
       inkscape:collect="always"
       xlink:href="#linearGradient37218"
       id="linearGradient1781"
       x1="2.8346456e-08"
       y1="2.2677165e-07"
       x2="64"
       y2="64"
       gradientUnits="userSpaceOnUse"
       gradientTransform="matrix(0.26458333,0,0,0.26458333,1.0125e-6,3.125e-7)" />
    <linearGradient
       inkscape:collect="always"
       id="linearGradient37218">
      <stop
         style="stop-color:#808080;stop-opacity:1"
         offset="0"
         id="stop37214" />
      <stop
         style="stop-color:#717171;stop-opacity:0.00392157"
         offset="0.49741825"
         id="stop37220" />
      <stop
         style="stop-color:#808080;stop-opacity:1"
         offset="1"
         id="stop37216" />
    </linearGradient>
  </defs>
  <path
     id="rect863"
     style="fill:#ffffff;stroke-width:0.264583"
     d="M 3.1750003,1.0583333 H 13.758334 c 1.172634,0 2.116667,0.9440336 2.116667,2.1166668 V 13.758333 c 0,1.172634 -0.944033,2.116667 -2.116667,2.116667 H 3.1750003 c -1.1726327,0 -2.116666,-0.944033 -2.116666,-2.116667 V 3.1750001 c 0,-1.1726332 0.9440333,-2.1166668 2.116666,-2.1166668 z" />
  <path
     id="rect1345"
     style="opacity:0.3;fill:url(#linearGradient1781);fill-opacity:1;stroke-width:0.264583"
     d="m 3.1750003,1.0583333 c -1.1726336,0 -2.116667,0.9440337 -2.116667,2.116667 V 13.758333 c 0,1.172634 0.9440334,2.116667 2.116667,2.116667 H 13.758334 c 1.172633,0 2.116666,-0.944033 2.116666,-2.116667 V 3.1750003 c 0,-1.1726333 -0.944033,-2.116667 -2.116666,-2.116667 z m 0,0.264584 H 13.758334 c 1.026054,0 1.852083,0.8260288 1.852083,1.852083 V 13.758333 c 0,1.026054 -0.826029,1.852084 -1.852083,1.852084 H 3.1750003 c -1.0260549,0 -1.8520837,-0.82603 -1.8520837,-1.852084 V 3.1750003 c 0,-1.0260542 0.8260288,-1.852083 1.8520837,-1.852083 z" />
  <path
     inkscape:connector-curvature="0"
     id="path2-3"
     style="fill:#ffffff;stroke-width:0.139254"
     d="m 4.0099417,3.1749999 c -0.4616299,0 -0.8349418,0.3740535 -0.8349418,0.8356816 v 7.2413445 1.670627 c 0,0.461626 0.3733119,0.835681 0.8349418,0.835681 h 1.6713655 5.5699818 l 2.507044,-2.506308 V 5.6820451 4.0106815 c 0,-0.4616281 -0.374053,-0.8356816 -0.835683,-0.8356816 h -1.671361 z" />
  <path
     inkscape:connector-curvature="0"
     d="M 11.251754,5.6815789 H 5.6815795 v 5.5701751 h 5.5701745 z"
     id="path2-6"
     style="fill:#ffffff;stroke-width:0.139254" />
  <path
     inkscape:connector-curvature="0"
     d="m 11.251754,13.758334 2.506579,-2.50658 h -2.506579 z"
     id="path4-7"
     style="fill:#ea4335;stroke-width:0.139254" />
  <path
     inkscape:connector-curvature="0"
     d="m 13.758333,5.6815789 h -2.506579 v 5.5701751 h 2.506579 z"
     id="path6-5"
     style="fill:#fbbc04;stroke-width:0.139254" />
  <path
     inkscape:connector-curvature="0"
     d="M 11.251754,11.251754 H 5.6815795 v 2.50658 h 5.5701745 z"
     id="path8-3"
     style="fill:#34a853;stroke-width:0.139254" />
  <path
     inkscape:connector-curvature="0"
     d="m 3.1749999,11.251754 v 1.671053 c 0,0.461628 0.3738978,0.835527 0.8355277,0.835527 h 1.6710519 v -2.50658 z"
     id="path10-5"
     style="fill:#188038;stroke-width:0.139254" />
  <path
     inkscape:connector-curvature="0"
     d="M 13.758333,5.6815789 V 4.0105262 c 0,-0.4616281 -0.373898,-0.8355263 -0.835528,-0.8355263 h -1.671051 v 2.506579 z"
     id="path12-6"
     style="fill:#1967d2;stroke-width:0.139254" />
  <path
     inkscape:connector-curvature="0"
     d="M 11.251754,3.1749999 H 4.0105276 c -0.4616299,0 -0.8355277,0.3738982 -0.8355277,0.8355263 V 11.251754 H 5.6815795 V 5.6815789 h 5.5701745 z"
     id="path14"
     style="fill:#4285f4;stroke-width:0.139254" />
  <path
     inkscape:connector-curvature="0"
     d="M 6.8241596,10.002643 C 6.6159743,9.8619953 6.4718482,9.6565953 6.3931687,9.3850495 L 6.8763814,9.1859158 c 0.043862,0.167105 0.1204571,0.2966125 0.2297711,0.3885205 0.1086156,0.09191 0.2409074,0.137165 0.395481,0.137165 0.1580539,0 0.2938268,-0.04804 0.4073178,-0.144129 C 8.0224464,9.4713823 8.07954,9.3488433 8.07954,9.2005373 8.07954,9.0487499 8.019661,8.9248133 7.8999025,8.8287284 7.780141,8.7326423 7.6297483,8.6846004 7.4501109,8.6846004 H 7.1709037 V 8.2062613 h 0.2506587 c 0.1545737,0 0.2847751,-0.041774 0.3906085,-0.125329 0.1058333,-0.083553 0.15875,-0.1977413 0.15875,-0.3432622 0,-0.1295065 -0.047343,-0.2325547 -0.1420396,-0.3098412 C 7.7341902,7.3505433 7.614429,7.3115516 7.4689075,7.3115516 c -0.1420389,0 -0.2548349,0.0376 -0.3383868,0.1134927 A 0.66619302,0.66619302 0 0 0 6.9480982,7.7042491 L 6.4697579,7.5051154 C 6.533119,7.3254769 6.6493988,7.1667269 6.8199834,7.0295616 6.990572,6.8923957 7.2085052,6.8234653 7.4730885,6.8234653 c 0.1956517,0 0.3718073,0.0376 0.5277721,0.1134921 0.1559642,0.075893 0.278508,0.1810309 0.3669353,0.3147149 0.088428,0.1343807 0.1322917,0.2847751 0.1322917,0.4518807 0,0.1705862 -0.041081,0.3147148 -0.1232388,0.4330811 -0.082161,0.1183658 -0.1831222,0.2088816 -0.3028804,0.2722422 v 0.028551 a 0.91977527,0.91977527 0 0 1 0.3885213,0.3028779 c 0.1009578,0.135773 0.1517879,0.2980043 0.1517879,0.4873901 0,0.1893864 -0.048042,0.358581 -0.1441297,0.506887 -0.096086,0.148305 -0.2290721,0.265279 -0.3975706,0.3502247 -0.1691934,0.08494 -0.3592776,0.12811 -0.5702488,0.12811 -0.244388,7.06e-4 -0.4699829,-0.06963 -0.6781689,-0.210274 z M 9.7923693,7.6046823 9.2618077,7.9883281 8.9965288,7.5858828 9.9483333,6.899359 h 0.3648447 v 3.23836 H 9.7923693 Z"
     id="path16"
     style="fill:#4285f4;stroke-width:0.139254" />
</svg>
