<?xml version="1.0" encoding="UTF-8" standalone="no"?>
<!-- Created with Inkscape (http://www.inkscape.org/) -->

<svg
   width="64"
   height="64"
   viewBox="0 0 16.933333 16.933333"
   version="1.1"
   id="svg5"
   inkscape:version="1.1.1 (3bf5ae0d25, 2021-09-20, custom)"
   sodipodi:docname="google-maps.svg"
   xmlns:inkscape="http://www.inkscape.org/namespaces/inkscape"
   xmlns:sodipodi="http://sodipodi.sourceforge.net/DTD/sodipodi-0.dtd"
   xmlns:xlink="http://www.w3.org/1999/xlink"
   xmlns="http://www.w3.org/2000/svg"
   xmlns:svg="http://www.w3.org/2000/svg">
  <sodipodi:namedview
     id="namedview7"
     pagecolor="#ffffff"
     bordercolor="#666666"
     borderopacity="1.0"
     inkscape:pageshadow="2"
     inkscape:pageopacity="0.0"
     inkscape:pagecheckerboard="0"
     inkscape:document-units="px"
     showgrid="true"
     units="px"
     height="48px"
     inkscape:zoom="7.9999996"
     inkscape:cx="29.625001"
     inkscape:cy="34.437502"
     inkscape:window-width="1920"
     inkscape:window-height="1019"
     inkscape:window-x="0"
     inkscape:window-y="0"
     inkscape:window-maximized="1"
     inkscape:current-layer="svg5"
     inkscape:lockguides="true" />
  <defs
     id="defs2">
    <linearGradient
       inkscape:collect="always"
       id="linearGradient37218">
      <stop
         style="stop-color:#1a1a1a;stop-opacity:1"
         offset="0"
         id="stop37214" />
      <stop
         style="stop-color:#afafaf;stop-opacity:0.40000001"
         offset="0.49741825"
         id="stop37220" />
      <stop
         style="stop-color:#4d4d4d;stop-opacity:1"
         offset="1"
         id="stop37216" />
    </linearGradient>
    <linearGradient
       inkscape:collect="always"
       xlink:href="#linearGradient37218"
       id="linearGradient881"
       x1="64.208344"
       y1="64.062607"
       x2="0.30528301"
       y2="0.13507102"
       gradientUnits="userSpaceOnUse" />
    <linearGradient
       id="path29_1_"
       gradientUnits="userSpaceOnUse"
       x1="239.3423"
       y1="1021.4185"
       x2="258.2334"
       y2="1054.1401"
       gradientTransform="matrix(0.04277371,0,0,0.04277371,-1.4422934,-34.435687)">
      <stop
         offset="0"
         style="stop-color:#991700;stop-opacity:0"
         id="stop16" />
      <stop
         offset="1"
         style="stop-color:#991700;stop-opacity:0.1"
         id="stop18" />
    </linearGradient>
  </defs>
  <path
     id="rect846-3"
     style="fill:#ffffff;stroke-width:0.337527;fill-opacity:1"
     d="m 3.175,1.5875 h 10.583333 c 0.879475,0 1.5875,0.708025 1.5875,1.5875 v 10.583333 c 0,0.879475 -0.708025,1.5875 -1.5875,1.5875 H 3.175 c -0.879475,0 -1.5875,-0.708025 -1.5875,-1.5875 V 3.175 c 0,-0.879475 0.708025,-1.5875 1.5875,-1.5875 z" />
  <path
     id="rect846"
     style="opacity:0.3;fill:url(#linearGradient881);stroke-width:1.27569;fill-opacity:1"
     d="M 12 6 C 8.6760005 6 6 8.6760005 6 12 L 6 52 C 6 55.324 8.6760005 58 12 58 L 52 58 C 55.324 58 58 55.324 58 52 L 58 12 C 58 8.6760005 55.324 6 52 6 L 12 6 z M 12 7 L 52 7 C 54.77 7 57 9.23 57 12 L 57 52 C 57 54.77 54.77 57 52 57 L 12 57 C 9.23 57 7 54.77 7 52 L 7 12 C 7 9.23 9.23 7 12 7 z "
     transform="scale(0.26458333)" />
  <path
     fill="#1a73e8"
     d="m 9.3579366,3.8624366 c -0.3165408,-0.100717 -0.661858,-0.15827 -1.0143693,-0.15827 -1.0143693,0 -1.9280211,0.460423 -2.5395204,1.187028 l 1.5683157,1.316522 z"
     id="path2"
     style="stroke-width:0.071941" />
  <path
     fill="#ea4335"
     d="m 5.8040469,4.8911946 c -0.4820052,0.575529 -0.7769637,1.323716 -0.7769637,2.129456 0,0.625888 0.1222999,1.129475 0.330929,1.582704 l 2.0143504,-2.395638 z"
     id="path4"
     style="stroke-width:0.071941" />
  <path
     fill="#4285f4"
     d="m 8.3507614,5.7544876 c 0.7050226,0 1.2733572,0.568335 1.2733572,1.273357 0,0.309347 -0.1151057,0.597111 -0.3021526,0.820129 0,0 0.999982,-1.194222 1.978381,-2.352474 -0.40287,-0.776964 -1.100699,-1.36688 -1.9424104,-1.633063 l -1.985574,2.34528 c 0.2374056,-0.273376 0.5827228,-0.453229 0.9783988,-0.453229"
     id="path6"
     style="stroke-width:0.071941" />
  <path
     fill="#fbbc04"
     d="m 8.3507614,8.2940076 c -0.7050227,0 -1.2733572,-0.568334 -1.2733572,-1.273357 0,-0.309347 0.1079116,-0.597111 0.2949584,-0.812934 L 5.3580122,8.6033546 C 5.7033294,9.3659301 6.2788581,9.9846234 6.868775,10.754393 L 9.321966,7.8407786 c -0.2374056,0.280571 -0.5827228,0.453229 -0.9712046,0.453229"
     id="path8"
     style="stroke-width:0.071941" />
  <path
     fill="#34a853"
     d="m 9.2788014,11.560133 c 1.1078936,-1.73378 2.3956396,-2.5179378 2.3956396,-4.5322884 0,-0.553946 -0.136688,-1.071922 -0.374094,-1.532345 L 6.868775,10.754393 c 0.1870468,0.2446 0.3812878,0.52517 0.5683346,0.812934 0.6762462,1.043146 0.4891994,1.661839 0.9208459,1.661839 0.4316465,0 0.2445997,-0.625887 0.9208459,-1.669033"
     id="path10"
     style="stroke-width:0.071941" />
</svg>
