<?xml version="1.0" encoding="UTF-8" standalone="no"?>
<!-- Created with Inkscape (http://www.inkscape.org/) -->

<svg
   width="64"
   height="64"
   viewBox="0 0 16.933333 16.933334"
   version="1.1"
   id="svg5"
   inkscape:version="1.1.1 (3bf5ae0d25, 2021-09-20, custom)"
   sodipodi:docname="google-photos.svg"
   xmlns:inkscape="http://www.inkscape.org/namespaces/inkscape"
   xmlns:sodipodi="http://sodipodi.sourceforge.net/DTD/sodipodi-0.dtd"
   xmlns:xlink="http://www.w3.org/1999/xlink"
   xmlns="http://www.w3.org/2000/svg"
   xmlns:svg="http://www.w3.org/2000/svg">
  <sodipodi:namedview
     id="namedview7"
     pagecolor="#ffffff"
     bordercolor="#666666"
     borderopacity="1.0"
     inkscape:pageshadow="2"
     inkscape:pageopacity="0.0"
     inkscape:pagecheckerboard="0"
     inkscape:document-units="px"
     showgrid="false"
     units="px"
     height="64px"
     inkscape:zoom="6.1640625"
     inkscape:cx="3.0823828"
     inkscape:cy="31.229404"
     inkscape:window-width="1920"
     inkscape:window-height="1019"
     inkscape:window-x="0"
     inkscape:window-y="0"
     inkscape:window-maximized="1"
     inkscape:current-layer="svg5" />
  <defs
     id="defs2">
    <linearGradient
       inkscape:collect="always"
       xlink:href="#linearGradient37218"
       id="linearGradient1781"
       x1="2.8346456e-08"
       y1="2.2677165e-07"
       x2="64"
       y2="64"
       gradientUnits="userSpaceOnUse"
       gradientTransform="scale(0.26458333)" />
    <linearGradient
       inkscape:collect="always"
       id="linearGradient37218">
      <stop
         style="stop-color:#808080;stop-opacity:1"
         offset="0"
         id="stop37214" />
      <stop
         style="stop-color:#717171;stop-opacity:0.00392157"
         offset="0.49741825"
         id="stop37220" />
      <stop
         style="stop-color:#808080;stop-opacity:1"
         offset="1"
         id="stop37216" />
    </linearGradient>
  </defs>
  <path
     id="rect863"
     style="fill:#ffffff;stroke-width:0.264583"
     d="M 3.1749998,1.0583333 H 13.758333 c 1.172634,0 2.116667,0.9440336 2.116667,2.1166668 V 13.758333 c 0,1.172634 -0.944033,2.116667 -2.116667,2.116667 H 3.1749998 c -1.1726332,0 -2.1166665,-0.944033 -2.1166665,-2.116667 V 3.1750001 c 0,-1.1726332 0.9440333,-2.1166668 2.1166665,-2.1166668 z" />
  <path
     id="rect1345"
     style="opacity:0.3;fill:url(#linearGradient1781);fill-opacity:1;stroke-width:0.264583"
     d="m 3.175,1.0583333 c -1.1726333,0 -2.1166667,0.9440337 -2.1166667,2.116667 V 13.758333 c 0,1.172634 0.9440334,2.116667 2.1166667,2.116667 h 10.583335 c 1.172632,0 2.116666,-0.944033 2.116666,-2.116667 V 3.1750003 c 0,-1.1726333 -0.944034,-2.116667 -2.116666,-2.116667 z m 0,0.2645837 h 10.583335 c 1.026054,0 1.852083,0.8260291 1.852083,1.8520833 V 13.758333 c 0,1.026054 -0.826029,1.852084 -1.852083,1.852084 H 3.175 c -1.0260542,0 -1.8520834,-0.82603 -1.8520834,-1.852084 V 3.1750003 C 1.3229166,2.1489461 2.1489458,1.322917 3.175,1.322917 Z" />
  <path
     id="path6"
     class="st0"
     d="m 5.820833,5.578929 c -1.4605,0 -2.645833,1.185333 -2.645833,2.645833 0,0.133048 0.108857,0.241905 0.241905,0.241905 H 8.466667 V 8.224762 c 0,-1.4605 -1.185334,-2.645833 -2.645834,-2.645833 z"
     style="fill:#fbbb05;stroke-width:0.0302381" />
  <path
     id="path8"
     class="st1"
     d="m 8.708571,3.175 c -0.133047,0 -0.241904,0.108857 -0.241904,0.241905 v 5.049762 h 0.241904 c 1.460501,0 2.645834,-1.185334 2.645834,-2.645834 0,-1.4605 -1.185333,-2.645833 -2.645834,-2.645833 z"
     style="fill:#e94335;stroke-width:0.0302381" />
  <path
     id="path10"
     class="st2"
     d="m 8.466667,8.466667 v 0.241904 c 0,1.460501 1.185333,2.645834 2.645833,2.645834 1.4605,0 2.645833,-1.185333 2.645833,-2.645834 0,-0.133047 -0.108857,-0.241904 -0.241904,-0.241904 z"
     style="fill:#4285f4;stroke-width:0.0302381" />
  <path
     id="path12"
     class="st3"
     d="m 8.224762,8.466667 c -1.4605,0 -2.645833,1.185333 -2.645833,2.645833 0,1.4605 1.185333,2.645833 2.645833,2.645833 0.133048,0 0.241905,-0.108857 0.241905,-0.241904 V 8.466667 Z"
     style="fill:#0f9d58;stroke-width:0.0302381" />
</svg>
