<?xml version="1.0" encoding="UTF-8" standalone="no"?>
<!-- Created with Inkscape (http://www.inkscape.org/) -->

<svg
   width="64"
   height="64"
   viewBox="0 0 16.933333 16.933333"
   version="1.1"
   id="svg5"
   inkscape:version="1.1.2 (0a00cf5339, 2022-02-04, custom)"
   sodipodi:docname="hitori.svg"
   xmlns:inkscape="http://www.inkscape.org/namespaces/inkscape"
   xmlns:sodipodi="http://sodipodi.sourceforge.net/DTD/sodipodi-0.dtd"
   xmlns:xlink="http://www.w3.org/1999/xlink"
   xmlns="http://www.w3.org/2000/svg"
   xmlns:svg="http://www.w3.org/2000/svg">
  <sodipodi:namedview
     id="namedview7"
     pagecolor="#ffffff"
     bordercolor="#666666"
     borderopacity="1.0"
     inkscape:pageshadow="2"
     inkscape:pageopacity="0.0"
     inkscape:pagecheckerboard="0"
     inkscape:document-units="px"
     showgrid="false"
     units="px"
     height="48px"
     inkscape:zoom="5.6568543"
     inkscape:cx="-7.3362328"
     inkscape:cy="43.84062"
     inkscape:window-width="1920"
     inkscape:window-height="1017"
     inkscape:window-x="0"
     inkscape:window-y="32"
     inkscape:window-maximized="1"
     inkscape:current-layer="svg5"
     inkscape:lockguides="true" />
  <defs
     id="defs2">
    <linearGradient
       inkscape:collect="always"
       id="linearGradient9659">
      <stop
         style="stop-color:#efefef;stop-opacity:1"
         offset="0"
         id="stop9655" />
      <stop
         style="stop-color:#fcfcfc;stop-opacity:1"
         offset="1"
         id="stop9657" />
    </linearGradient>
    <linearGradient
       inkscape:collect="always"
       id="linearGradient7771">
      <stop
         style="stop-color:#d5d5d5;stop-opacity:1"
         offset="0"
         id="stop7767" />
      <stop
         style="stop-color:#fcfcfc;stop-opacity:1"
         offset="1"
         id="stop7769" />
    </linearGradient>
    <linearGradient
       inkscape:collect="always"
       xlink:href="#linearGradient37218"
       id="linearGradient1781"
       x1="2.8346456e-08"
       y1="2.2677165e-07"
       x2="64"
       y2="64"
       gradientUnits="userSpaceOnUse"
       gradientTransform="scale(0.26458333)" />
    <linearGradient
       inkscape:collect="always"
       id="linearGradient37218">
      <stop
         style="stop-color:#ffffff;stop-opacity:1"
         offset="0"
         id="stop37214" />
      <stop
         style="stop-color:#808080;stop-opacity:0.00392157"
         offset="0.49741825"
         id="stop37220" />
      <stop
         style="stop-color:#000000;stop-opacity:1"
         offset="1"
         id="stop37216" />
    </linearGradient>
    <linearGradient
       inkscape:collect="always"
       xlink:href="#linearGradient7771"
       id="linearGradient7773"
       x1="8.4666662"
       y1="16.933334"
       x2="8.4666672"
       y2="6.7529299e-07"
       gradientUnits="userSpaceOnUse" />
    <linearGradient
       inkscape:collect="always"
       xlink:href="#linearGradient9659"
       id="linearGradient9661"
       x1="32"
       y1="64"
       x2="32"
       y2="2.2677165e-07"
       gradientUnits="userSpaceOnUse" />
  </defs>
  <path
     id="rect863"
     style="fill:url(#linearGradient7773);stroke-width:0.264583;fill-opacity:1"
     d="M 3.1750003,1.0583333 H 13.758333 c 1.172634,0 2.116667,0.944034 2.116667,2.116667 V 13.758333 c 0,1.172634 -0.944033,2.116667 -2.116667,2.116667 H 3.1750003 c -1.172633,0 -2.116667,-0.944033 -2.116667,-2.116667 V 3.1750003 c 0,-1.172633 0.944034,-2.116667 2.116667,-2.116667 z" />
  <path
     id="rect3844"
     style="opacity:1;fill:url(#linearGradient9661);fill-opacity:1;stroke-width:9;stroke-linecap:round;stroke-linejoin:round"
     d="M 12,4 C 7.5680001,4 4,7.5680001 4,12 v 40 c 0,4.432 3.5680001,8 8,8 h 40 c 4.432,0 8,-3.568 8,-8 V 12 C 60,7.5680001 56.432,4 52,4 Z M 5,41 h 17 v 2 H 5 Z"
     sodipodi:nodetypes="sssssssssccccc"
     transform="scale(0.26458333)" />
  <path
     id="rect849"
     style="opacity:1;fill:#cccccc;stroke-width:6.36397;stroke-linecap:round;stroke-linejoin:round"
     d="M 22,5 V 22 H 5 v 1 H 22 V 41 H 5.0000003 l 2e-7,1.999999 H 22 L 22,59 h 1 V 42 h 18 v 17 h 1 V 42 H 59 V 41 H 42 V 23 H 59 V 22 H 42 V 5 H 41 V 22 H 23 V 5 Z m 1,18 H 41 V 41 H 23 Z"
     sodipodi:nodetypes="cccccccccccccccccccccccccccccccccc"
     transform="scale(0.26458333)" />
  <path
     id="rect1345"
     style="opacity:0.3;fill:url(#linearGradient1781);fill-opacity:1;stroke-width:0.264583"
     d="m 3.1750003,1.0583333 c -1.172633,0 -2.116667,0.944034 -2.116667,2.116667 V 13.758333 c 0,1.172634 0.944034,2.116667 2.116667,2.116667 H 13.758334 c 1.172633,0 2.116666,-0.944033 2.116666,-2.116667 V 3.1750003 c 0,-1.172633 -0.944033,-2.116667 -2.116666,-2.116667 z m 0,0.264584 H 13.758334 c 1.026054,0 1.852083,0.826029 1.852083,1.852083 V 13.758333 c 0,1.026054 -0.826029,1.852084 -1.852083,1.852084 H 3.1750003 c -1.026054,0 -1.852083,-0.82603 -1.852083,-1.852084 V 3.1750003 c 0,-1.026054 0.826029,-1.852083 1.852083,-1.852083 z" />
  <path
     d="m 3.5729776,14.513088 q -0.2248743,0 -0.4029925,-0.0757 -0.1781182,-0.0757 -0.2816494,-0.212629 -0.102418,-0.136928 -0.1102107,-0.315046 h 0.2872156 q 0.00779,0.105757 0.0757,0.18591 0.067908,0.07904 0.1792315,0.122457 0.1124371,0.04342 0.2482522,0.04342 0.149174,0 0.2671774,-0.0501 0.1180033,-0.05121 0.1847976,-0.142494 0.066794,-0.09129 0.066794,-0.208176 0,-0.124683 -0.065681,-0.220421 -0.064567,-0.09574 -0.18925,-0.149174 -0.1246828,-0.05344 -0.2994613,-0.05344 H 3.3481033 V 13.188334 H 3.532901 q 0.1380416,0 0.2449125,-0.04898 0.1079842,-0.04898 0.1669859,-0.136928 0.060115,-0.08906 0.060115,-0.205949 0,-0.112437 -0.052322,-0.198157 -0.052322,-0.08572 -0.1491741,-0.132475 -0.096852,-0.04787 -0.2259875,-0.04787 -0.1224562,0 -0.2304404,0.04342 -0.1068709,0.04342 -0.1736653,0.124683 -0.066794,0.08015 -0.072361,0.188137 H 2.8271075 q 0.00668,-0.175892 0.1090974,-0.31282 0.102418,-0.138042 0.2727436,-0.213742 0.1703255,-0.07681 0.372935,-0.07681 0.2104022,0 0.3684821,0.08349 0.1591931,0.08349 0.2437993,0.223761 0.085719,0.140268 0.084606,0.305028 0.00111,0.126909 -0.045643,0.231553 Q 4.1863719,13.11932 4.098426,13.19168 4.01048,13.26404 3.8913635,13.297438 v 0.01781 q 0.1469476,0.02226 0.2538185,0.09685 0.1079842,0.07347 0.1647593,0.190364 0.056775,0.115776 0.055662,0.260498 0.00111,0.183684 -0.102418,0.332858 -0.102418,0.148061 -0.2849891,0.232667 -0.181458,0.08461 -0.405219,0.08461 z"
     style="font-size:3.22394px;line-height:1.25;font-family:Pretendard;-inkscape-font-specification:Pretendard;stroke-width:0.0805987;fill:#cccccc;fill-opacity:1"
     id="path11358" />
  <path
     d="m 3.5729776,4.723495 q -0.2248743,0 -0.4029925,-0.0757 Q 2.9918669,4.572095 2.8883357,4.435166 2.7859177,4.298238 2.778125,4.12012 h 0.2872156 q 0.00779,0.105757 0.0757,0.18591 0.067908,0.07904 0.1792315,0.122457 0.1124371,0.04342 0.2482522,0.04342 0.149174,0 0.2671774,-0.0501 0.1180033,-0.05121 0.1847976,-0.142494 0.066794,-0.09129 0.066794,-0.208176 0,-0.124683 -0.065681,-0.220421 Q 3.9570453,3.754976 3.8323623,3.701542 3.7076795,3.648102 3.532901,3.648102 H 3.3481033 V 3.398741 H 3.532901 q 0.1380416,0 0.2449125,-0.04898 0.1079842,-0.04898 0.1669859,-0.136928 0.060115,-0.08906 0.060115,-0.205949 0,-0.112437 -0.052322,-0.198157 -0.052322,-0.08572 -0.1491741,-0.132475 -0.096852,-0.04787 -0.2259875,-0.04787 -0.1224562,0 -0.2304404,0.04342 -0.1068709,0.04342 -0.1736653,0.124683 -0.066794,0.08015 -0.072361,0.188137 H 2.8271075 Q 2.8337875,2.80873 2.9362049,2.671802 3.0386229,2.53376 3.2089485,2.45806 3.379274,2.38125 3.5818835,2.38125 q 0.2104022,0 0.3684821,0.08349 0.1591931,0.08349 0.2437993,0.223761 0.085719,0.140268 0.084606,0.305028 0.00111,0.126909 -0.045643,0.231553 Q 4.1863719,3.329727 4.098426,3.402087 4.01048,3.474447 3.8913635,3.507845 v 0.01781 q 0.1469476,0.02226 0.2538185,0.09685 0.1079842,0.07347 0.1647593,0.190364 0.056775,0.115776 0.055662,0.260498 0.00111,0.183684 -0.102418,0.332858 -0.102418,0.148061 -0.2849891,0.232667 -0.181458,0.08461 -0.405219,0.08461 z"
     style="font-size:3.22394px;line-height:1.25;font-family:Pretendard;-inkscape-font-specification:Pretendard;stroke-width:0.0805987;fill:#808080"
     id="path11358-7" />
  <path
     d="m 8.4677691,9.4859949 q -0.2248743,0 -0.4029925,-0.0757 -0.1781182,-0.0757 -0.2816494,-0.212629 -0.102418,-0.136928 -0.1102107,-0.315046 h 0.2872156 q 0.00779,0.105757 0.0757,0.18591 0.067908,0.07904 0.1792315,0.122457 0.1124371,0.04342 0.2482522,0.04342 0.149174,0 0.2671774,-0.0501 0.1180033,-0.05121 0.1847976,-0.142494 0.066794,-0.09129 0.066794,-0.208176 0,-0.124683 -0.065681,-0.220421 -0.064567,-0.09574 -0.18925,-0.149174 -0.1246828,-0.05344 -0.2994613,-0.05344 H 8.2428948 v -0.249361 h 0.1847977 q 0.1380416,0 0.2449125,-0.04898 0.1079842,-0.04898 0.1669859,-0.136928 0.060115,-0.08906 0.060115,-0.205949 0,-0.112437 -0.052322,-0.198157 -0.052322,-0.08572 -0.1491741,-0.132475 -0.096852,-0.04787 -0.2259875,-0.04787 -0.1224562,0 -0.2304404,0.04342 -0.1068709,0.04342 -0.1736653,0.124683 -0.066794,0.08015 -0.072361,0.188137 H 7.721899 q 0.00668,-0.175892 0.1090974,-0.31282 0.102418,-0.138042 0.2727436,-0.213742 0.1703255,-0.07681 0.372935,-0.07681 0.2104022,0 0.3684821,0.08349 0.1591931,0.08349 0.2437993,0.223761 0.085719,0.140268 0.084606,0.305028 0.00111,0.126909 -0.045643,0.231553 -0.046756,0.104645 -0.1347019,0.177005 -0.087946,0.07236 -0.2070625,0.105758 v 0.01781 q 0.1469476,0.02226 0.2538185,0.09685 0.1079842,0.07347 0.1647593,0.190364 0.056775,0.115776 0.055662,0.260498 0.00111,0.183684 -0.102418,0.332858 -0.102418,0.148061 -0.2849891,0.232667 -0.181458,0.08461 -0.405219,0.08461 z"
     style="font-size:3.22394px;line-height:1.25;font-family:Pretendard;-inkscape-font-specification:Pretendard;stroke-width:0.0805987;fill:#808080"
     id="path11358-5" />
  <path
     d="m 13.494852,9.5038049 q -0.224874,0 -0.402992,-0.0757 -0.178118,-0.0757 -0.28165,-0.212629 Q 12.707792,9.0785479 12.7,8.9004299 h 0.287215 q 0.0078,0.105757 0.0757,0.18591 0.06791,0.07904 0.179232,0.122457 0.112437,0.04342 0.248252,0.04342 0.149174,0 0.267177,-0.0501 0.118004,-0.05121 0.184798,-0.142494 0.06679,-0.09129 0.06679,-0.208176 0,-0.124683 -0.06568,-0.220421 -0.06457,-0.09574 -0.18925,-0.149174 -0.124683,-0.05344 -0.299461,-0.05344 h -0.184798 v -0.249361 h 0.184798 q 0.138041,0 0.244912,-0.04898 0.107984,-0.04898 0.166986,-0.136928 0.06011,-0.08906 0.06011,-0.205949 0,-0.112437 -0.05232,-0.198157 -0.05232,-0.08572 -0.149174,-0.132475 -0.09685,-0.04787 -0.225988,-0.04787 -0.122456,0 -0.23044,0.04342 -0.106871,0.04342 -0.173665,0.124683 -0.06679,0.08015 -0.07236,0.188137 h -0.273857 q 0.0067,-0.175892 0.109098,-0.31282 0.102418,-0.138042 0.272743,-0.213742 0.170326,-0.07681 0.372935,-0.07681 0.210402,0 0.368482,0.08349 0.159193,0.08349 0.2438,0.223761 0.08572,0.140268 0.08461,0.305028 0.0011,0.126909 -0.04564,0.231553 -0.04676,0.104645 -0.134702,0.177005 -0.08795,0.07236 -0.207063,0.105758 v 0.01781 q 0.146948,0.02226 0.253819,0.09685 0.107984,0.07347 0.164759,0.190364 0.05678,0.115776 0.05566,0.260498 0.0011,0.183684 -0.102418,0.332858 -0.102418,0.148061 -0.284989,0.232667 -0.181458,0.08461 -0.405219,0.08461 z"
     style="font-size:3.22394px;line-height:1.25;font-family:Pretendard;-inkscape-font-specification:Pretendard;stroke-width:0.0805987;fill:#808080"
     id="path11358-5-2" />
  <path
     d="m 7.6751728,14.513189 -0.00226,-0.209864 0.7875542,-0.830429 q 0.1557055,-0.165861 0.2369432,-0.266279 0.082366,-0.101547 0.1252414,-0.195196 0.042876,-0.09478 0.044004,-0.197453 -0.00113,-0.117343 -0.062057,-0.206479 -0.0598,-0.08914 -0.1647319,-0.137653 -0.1038037,-0.04852 -0.2335584,-0.04852 -0.1353961,0 -0.2380715,0.05416 -0.1015471,0.05416 -0.1568338,0.15232 -0.054159,0.09816 -0.054159,0.226789 H 7.6841992 q -0.00113,-0.200838 0.093649,-0.355415 0.095906,-0.155706 0.2628942,-0.241457 0.1669885,-0.08688 0.3745959,-0.08688 0.2053508,0 0.3689545,0.08575 0.164732,0.08462 0.2572527,0.231302 0.092521,0.146679 0.093649,0.326079 -0.00113,0.132011 -0.049645,0.252739 -0.047389,0.1196 -0.1613471,0.266279 -0.1128301,0.14668 -0.3215658,0.361057 L 8.0745914,14.24014 v 0.01805 h 1.1012219 v 0.254996 z"
     style="font-size:3.26756px;line-height:1.25;font-family:Pretendard;-inkscape-font-specification:Pretendard;stroke-width:0.272297;fill:#808080"
     id="path11192" />
  <path
     d="M 12.702256,14.513189 12.7,14.303325 13.487554,13.472896 q 0.155705,-0.165861 0.236943,-0.266279 0.08237,-0.101547 0.125241,-0.195196 0.04288,-0.09478 0.044,-0.197453 -0.0011,-0.117343 -0.06206,-0.206479 -0.0598,-0.08914 -0.164732,-0.137653 -0.103804,-0.04852 -0.233559,-0.04852 -0.135396,0 -0.238071,0.05416 -0.101547,0.05416 -0.156834,0.15232 -0.05416,0.09816 -0.05416,0.226789 h -0.273048 q -0.0011,-0.200838 0.09365,-0.355415 0.0959,-0.155706 0.262894,-0.241457 0.166988,-0.08688 0.374596,-0.08688 0.205351,0 0.368954,0.08575 0.164732,0.08462 0.257253,0.231302 0.09252,0.146679 0.09365,0.326079 -0.0011,0.132011 -0.04964,0.252739 -0.04739,0.1196 -0.161347,0.266279 -0.112831,0.14668 -0.321566,0.361057 l -0.528045,0.546097 v 0.01805 h 1.101222 v 0.254996 z"
     style="font-size:3.26756px;line-height:1.25;font-family:Pretendard;-inkscape-font-specification:Pretendard;stroke-width:0.272297;fill:#808080"
     id="path11189" />
  <path
     d="m 2.7803849,9.4861059 -0.00226,-0.209864 0.7875542,-0.830429 q 0.1557055,-0.165861 0.2369432,-0.266279 0.082366,-0.101547 0.1252414,-0.195196 0.042876,-0.09478 0.044004,-0.197453 -0.00113,-0.117343 -0.062057,-0.206479 -0.0598,-0.08914 -0.1647319,-0.137653 -0.1038037,-0.04852 -0.2335584,-0.04852 -0.1353961,0 -0.2380715,0.05416 -0.1015471,0.05416 -0.1568338,0.15232 -0.054159,0.09816 -0.054159,0.226789 H 2.7894113 q -0.00113,-0.200838 0.093649,-0.355415 0.095906,-0.155706 0.2628942,-0.241457 0.1669885,-0.08688 0.3745959,-0.08688 0.2053508,0 0.3689545,0.08575 0.164732,0.08462 0.2572527,0.231302 0.092521,0.146679 0.093649,0.326079 -0.00113,0.132011 -0.049645,0.252739 -0.047389,0.1196 -0.1613471,0.266279 -0.1128301,0.14668 -0.3215658,0.361057 l -0.5280452,0.546101 v 0.01805 h 1.1012219 v 0.254996 z"
     style="font-size:3.26756px;line-height:1.25;font-family:Pretendard;-inkscape-font-specification:Pretendard;stroke-width:0.272297;fill:#808080"
     id="path11192-6" />
  <path
     d="M 8.520802,2.3812501 H 8.8135967 V 4.7236075 H 8.520802 V 2.685482 H 8.5070772 L 7.9375001,3.0629127 V 2.770118 Z"
     style="font-size:3.31224px;line-height:1.25;font-family:Pretendard;-inkscape-font-specification:Pretendard;stroke-width:0.276019;fill:#808080"
     id="path14445" />
  <path
     d="m 13.415593,2.3812501 h 0.292795 V 4.7236075 H 13.415593 V 2.685482 h -0.01372 L 12.832291,3.0629127 V 2.770118 Z"
     style="font-size:3.31224px;line-height:1.25;font-family:Pretendard;-inkscape-font-specification:Pretendard;stroke-width:0.276019;fill:#808080"
     id="path14445-1" />
</svg>
