<?xml version="1.0" encoding="UTF-8" standalone="no"?>
<!-- Created with Inkscape (http://www.inkscape.org/) -->

<svg
   width="64"
   height="64"
   viewBox="0 0 16.933333 16.933333"
   version="1.1"
   id="svg5"
   inkscape:version="1.1.1 (3bf5ae0d25, 2021-09-20, custom)"
   sodipodi:docname="info.svg"
   xmlns:inkscape="http://www.inkscape.org/namespaces/inkscape"
   xmlns:sodipodi="http://sodipodi.sourceforge.net/DTD/sodipodi-0.dtd"
   xmlns:xlink="http://www.w3.org/1999/xlink"
   xmlns="http://www.w3.org/2000/svg"
   xmlns:svg="http://www.w3.org/2000/svg">
  <sodipodi:namedview
     id="namedview7"
     pagecolor="#ffffff"
     bordercolor="#666666"
     borderopacity="1.0"
     inkscape:pageshadow="2"
     inkscape:pageopacity="0.0"
     inkscape:pagecheckerboard="0"
     inkscape:document-units="px"
     showgrid="false"
     units="px"
     height="48px"
     inkscape:zoom="11.313708"
     inkscape:cx="30.847535"
     inkscape:cy="33.101438"
     inkscape:window-width="1920"
     inkscape:window-height="1011"
     inkscape:window-x="0"
     inkscape:window-y="0"
     inkscape:window-maximized="1"
     inkscape:current-layer="svg5"
     inkscape:lockguides="true" />
  <defs
     id="defs2">
    <linearGradient
       inkscape:collect="always"
       id="linearGradient12015">
      <stop
         style="stop-color:#ffffff;stop-opacity:1;"
         offset="0"
         id="stop12011" />
      <stop
         style="stop-color:#ffffff;stop-opacity:0;"
         offset="1"
         id="stop12013" />
    </linearGradient>
    <linearGradient
       inkscape:collect="always"
       id="linearGradient10920">
      <stop
         style="stop-color:#337eff;stop-opacity:1;"
         offset="0"
         id="stop10916" />
      <stop
         style="stop-color:#33ccff;stop-opacity:1"
         offset="1"
         id="stop10918" />
    </linearGradient>
    <linearGradient
       inkscape:collect="always"
       id="linearGradient10602">
      <stop
         style="stop-color:#000000;stop-opacity:1;"
         offset="0"
         id="stop10598" />
      <stop
         style="stop-color:#000000;stop-opacity:0;"
         offset="1"
         id="stop10600" />
    </linearGradient>
    <linearGradient
       inkscape:collect="always"
       xlink:href="#linearGradient37218"
       id="linearGradient1781"
       x1="2.8346456e-08"
       y1="2.2677165e-07"
       x2="64"
       y2="64"
       gradientUnits="userSpaceOnUse"
       gradientTransform="scale(0.26458333)" />
    <linearGradient
       inkscape:collect="always"
       id="linearGradient37218">
      <stop
         style="stop-color:#ffffff;stop-opacity:1"
         offset="0"
         id="stop37214" />
      <stop
         style="stop-color:#ffffff;stop-opacity:0.00392157"
         offset="0.49741825"
         id="stop37220" />
      <stop
         style="stop-color:#000000;stop-opacity:1"
         offset="1"
         id="stop37216" />
    </linearGradient>
    <linearGradient
       inkscape:collect="always"
       xlink:href="#linearGradient10602"
       id="linearGradient10604"
       x1="20.199219"
       y1="38.407227"
       x2="42.931641"
       y2="24.407227"
       gradientUnits="userSpaceOnUse" />
    <linearGradient
       inkscape:collect="always"
       xlink:href="#linearGradient10920"
       id="linearGradient10922"
       x1="11.1125"
       y1="16.933334"
       x2="11.1125"
       y2="6.7529299e-07"
       gradientUnits="userSpaceOnUse" />
    <linearGradient
       inkscape:collect="always"
       xlink:href="#linearGradient12015"
       id="linearGradient12017"
       x1="7.738606"
       y1="5.7843394"
       x2="7.7385459"
       y2="14.816667"
       gradientUnits="userSpaceOnUse" />
  </defs>
  <path
     id="rect863"
     style="fill:url(#linearGradient10922);stroke-width:0.264583;fill-opacity:1"
     d="M 3.1750003,1.0583333 H 13.758333 c 1.172634,0 2.116667,0.944034 2.116667,2.116667 V 13.758333 c 0,1.172634 -0.944033,2.116667 -2.116667,2.116667 H 3.1750003 c -1.172633,0 -2.116667,-0.944033 -2.116667,-2.116667 V 3.1750003 c 0,-1.172633 0.944034,-2.116667 2.116667,-2.116667 z" />
  <path
     id="rect1345"
     style="opacity:0.3;fill:url(#linearGradient1781);fill-opacity:1;stroke-width:0.264583"
     d="m 3.1750003,1.0583333 c -1.172633,0 -2.116667,0.944034 -2.116667,2.116667 V 13.758333 c 0,1.172634 0.944034,2.116667 2.116667,2.116667 H 13.758334 c 1.172633,0 2.116666,-0.944033 2.116666,-2.116667 V 3.1750003 c 0,-1.172633 -0.944033,-2.116667 -2.116666,-2.116667 z m 0,0.264584 H 13.758334 c 1.026054,0 1.852083,0.826029 1.852083,1.852083 V 13.758333 c 0,1.026054 -0.826029,1.852084 -1.852083,1.852084 H 3.1750003 c -1.026054,0 -1.852083,-0.82603 -1.852083,-1.852084 V 3.1750003 c 0,-1.026054 0.826029,-1.852083 1.852083,-1.852083 z" />
  <path
     d="m 8.3517095,4.9413223 q -0.3649425,0 -0.6277011,-0.2627586 -0.2627586,-0.2627586 -0.2627586,-0.6277011 0,-0.3649425 0.2627586,-0.6131034 0.2627586,-0.2627586 0.6277011,-0.2627586 0.3649425,0 0.6277011,0.2627586 0.2627586,0.2481609 0.2627586,0.6131034 0,0.3649425 -0.2627586,0.6277011 Q 8.7312497,4.9413223 8.3517095,4.9413223 Z M 7.7386061,6.3135061 H 8.9648129 V 13.758333 H 7.7386061 Z"
     style="font-size:14.5977px;line-height:1.25;font-family:'Google Sans';-inkscape-font-specification:'Google Sans';stroke-width:0.364943;fill:url(#linearGradient12017);fill-opacity:1"
     id="path10402" />
  <path
     id="path10402-3"
     style="font-size:14.5977px;line-height:1.25;font-family:'Google Sans';-inkscape-font-specification:'Google Sans';opacity:0.3;stroke-width:1.37931;fill-opacity:1;fill:url(#linearGradient10604)"
     d="M 28.234375 15.814453 C 28.211642 15.97474 28.199219 16.140157 28.199219 16.310547 C 28.199219 17.230086 28.531289 18.021524 29.193359 18.683594 C 29.855427 19.345661 30.646865 19.675781 31.566406 19.675781 C 32.522728 19.675781 33.312212 19.345661 33.9375 18.683594 C 34.59957 18.021524 34.931641 17.230086 34.931641 16.310547 C 34.931641 16.140157 34.919217 15.97474 34.896484 15.814453 C 34.795622 16.522355 34.475432 17.145662 33.9375 17.683594 C 33.312212 18.345661 32.522728 18.675781 31.566406 18.675781 C 30.646865 18.675781 29.855427 18.345661 29.193359 17.683594 C 28.655428 17.145662 28.335237 16.522355 28.234375 15.814453 z M 29.248047 52 L 29.248047 53 L 33.882812 53 L 33.882812 52 L 29.248047 52 z "
     transform="scale(0.26458333)" />
</svg>
