<?xml version="1.0" encoding="UTF-8" standalone="no"?>
<!-- Created with Inkscape (http://www.inkscape.org/) -->

<svg
   width="64"
   height="64"
   viewBox="0 0 16.933333 16.933333"
   version="1.1"
   id="svg5"
   inkscape:version="1.1.1 (3bf5ae0d25, 2021-09-20, custom)"
   sodipodi:docname="inkscape.svg"
   xmlns:inkscape="http://www.inkscape.org/namespaces/inkscape"
   xmlns:sodipodi="http://sodipodi.sourceforge.net/DTD/sodipodi-0.dtd"
   xmlns:xlink="http://www.w3.org/1999/xlink"
   xmlns="http://www.w3.org/2000/svg"
   xmlns:svg="http://www.w3.org/2000/svg">
  <sodipodi:namedview
     id="namedview7"
     pagecolor="#ffffff"
     bordercolor="#666666"
     borderopacity="1.0"
     inkscape:pageshadow="2"
     inkscape:pageopacity="0.0"
     inkscape:pagecheckerboard="0"
     inkscape:document-units="px"
     showgrid="false"
     units="px"
     height="48px"
     inkscape:zoom="13.312499"
     inkscape:cx="33.577466"
     inkscape:cy="25.953053"
     inkscape:window-width="1920"
     inkscape:window-height="1019"
     inkscape:window-x="0"
     inkscape:window-y="0"
     inkscape:window-maximized="1"
     inkscape:current-layer="svg5"
     inkscape:lockguides="true" />
  <defs
     id="defs2">
    <linearGradient
       inkscape:collect="always"
       id="linearGradient1749">
      <stop
         style="stop-color:#666666;stop-opacity:1;"
         offset="0"
         id="stop1745" />
      <stop
         style="stop-color:#333333;stop-opacity:1"
         offset="1"
         id="stop1747" />
    </linearGradient>
    <linearGradient
       inkscape:collect="always"
       id="linearGradient1297">
      <stop
         style="stop-color:#ffffff;stop-opacity:1;"
         offset="0"
         id="stop1293" />
      <stop
         style="stop-color:#b3b3b3;stop-opacity:1"
         offset="1"
         id="stop1295" />
    </linearGradient>
    <linearGradient
       inkscape:collect="always"
       id="linearGradient1005">
      <stop
         style="stop-color:#000000;stop-opacity:1;"
         offset="0"
         id="stop1001" />
      <stop
         style="stop-color:#000000;stop-opacity:0;"
         offset="1"
         id="stop1003" />
    </linearGradient>
    <linearGradient
       inkscape:collect="always"
       id="linearGradient37218">
      <stop
         style="stop-color:#1a1a1a;stop-opacity:1"
         offset="0"
         id="stop37214" />
      <stop
         style="stop-color:#e6e6e6;stop-opacity:0.00306325"
         offset="0.49741825"
         id="stop37220" />
      <stop
         style="stop-color:#ffffff;stop-opacity:1"
         offset="1"
         id="stop37216" />
    </linearGradient>
    <linearGradient
       inkscape:collect="always"
       xlink:href="#linearGradient37218"
       id="linearGradient881"
       x1="64.208344"
       y1="64.062607"
       x2="0.30528301"
       y2="0.13507102"
       gradientUnits="userSpaceOnUse" />
    <linearGradient
       inkscape:collect="always"
       xlink:href="#linearGradient1005"
       id="linearGradient1007"
       x1="3.175"
       y1="14.534903"
       x2="14.816666"
       y2="2.8932362"
       gradientUnits="userSpaceOnUse"
       gradientTransform="scale(3.7795276)" />
    <linearGradient
       inkscape:collect="always"
       xlink:href="#linearGradient1297"
       id="linearGradient1299"
       x1="50"
       y1="27.935066"
       x2="50"
       y2="69.935066"
       gradientUnits="userSpaceOnUse" />
    <linearGradient
       inkscape:collect="always"
       xlink:href="#linearGradient1749"
       id="linearGradient1751"
       x1="16.933332"
       y1="-2.7838135e-07"
       x2="16.933332"
       y2="16.933332"
       gradientUnits="userSpaceOnUse" />
  </defs>
  <path
     id="rect846-3"
     style="fill:url(#linearGradient1751);stroke-width:0.337527;fill-opacity:1"
     d="m 3.175,1.5875 h 10.583333 c 0.879475,0 1.5875,0.708025 1.5875,1.5875 v 10.583333 c 0,0.879475 -0.708025,1.5875 -1.5875,1.5875 H 3.175 c -0.879475,0 -1.5875,-0.708025 -1.5875,-1.5875 V 3.175 c 0,-0.879475 0.708025,-1.5875 1.5875,-1.5875 z" />
  <path
     id="rect846"
     style="opacity:0.3;fill:url(#linearGradient881);stroke-width:1.27569;fill-opacity:1"
     d="M 12 6 C 8.6760005 6 6 8.6760005 6 12 L 6 52 C 6 55.324 8.6760005 58 12 58 L 52 58 C 55.324 58 58 55.324 58 52 L 58 12 C 58 8.6760005 55.324 6 52 6 L 12 6 z M 12 7 L 52 7 C 54.77 7 57 9.23 57 12 L 57 52 C 57 54.77 54.77 57 52 57 L 12 57 C 9.23 57 7 54.77 7 52 L 7 12 C 7 9.23 9.23 7 12 7 z "
     transform="scale(0.26458333)" />
  <path
     id="rect887"
     style="opacity:0.3;fill:url(#linearGradient1007);fill-opacity:1;stroke-width:0.999999"
     d="M 32.271484 17.029297 C 31.253897 17.0293 30.89254 17.346564 30.462891 17.798828 L 24.628906 23.791016 L 23.632812 25.058594 L 24.166016 25.378906 L 24.626953 24.791016 L 30.460938 18.798828 C 30.890587 18.346564 31.253897 18.0293 32.271484 18.029297 C 33.334299 18.029297 36.228753 21.602013 38.806641 24.292969 C 38.879123 24.387415 38.934815 24.482207 38.976562 24.576172 C 39.117249 24.214525 39.158299 23.753142 38.806641 23.294922 C 36.228753 20.603966 33.334299 17.029297 32.271484 17.029297 z M 14.048828 32.943359 C 14.020779 33.126571 14.004014 33.311452 14 33.496094 L 14 33.564453 C 14 36.565629 21.745645 33.83781 22.908203 37.097656 C 23.014007 36.917905 23.053259 36.700893 23 36.431641 C 22.287089 32.823871 14.722972 35.40671 14.048828 32.943359 z M 49.972656 33.130859 C 49.876674 33.856132 49.445076 34.414736 47.535156 35.324219 C 41.565309 36.95236 39.687736 36.476197 39.800781 38.126953 C 39.802755 38.296715 39.823264 38.453314 39.855469 38.599609 C 40.220736 37.562613 42.31154 37.748842 47.535156 36.324219 C 49.909527 35.193568 50 34.604651 50 33.564453 L 50 33.496094 C 49.997337 33.373938 49.987565 33.252595 49.972656 33.130859 z M 18.621094 40.09375 C 18.543259 40.23876 18.5 40.404738 18.5 40.597656 C 18.5 43.017253 25.441691 41.366665 27.431641 43.333984 C 27.434442 43.340832 27.436753 43.346722 27.439453 43.353516 C 27.583401 43.092503 27.6092 42.768018 27.431641 42.333984 C 25.597155 40.520362 19.554075 41.781292 18.621094 40.09375 z M 49.824219 40.408203 C 49.324171 41.406778 47.282465 41.008776 45.775391 40.412109 C 45.573724 40.621382 45.45417 40.906012 45.5 41.298828 C 47.128137 41.999825 49.614235 42.541456 49.908203 41.162109 C 49.975314 40.86011 49.933939 40.611225 49.824219 40.408203 z M 42.388672 42.646484 C 41.477059 44.584136 36.640367 44.479718 35.572266 45.568359 C 35.174938 45.989059 35.265713 46.328579 35.507812 46.642578 C 35.5285 46.617489 35.548016 46.592082 35.572266 46.566406 C 36.748145 45.367914 42.49188 45.617258 42.537109 42.994141 C 42.49654 42.870741 42.445862 42.755746 42.388672 42.646484 z M 22.226562 44.621094 C 22.162094 44.656748 22.103195 44.690015 22.027344 44.730469 C 21.009756 45.273443 20.217719 45.726517 19.064453 45.296875 C 18.955178 45.256165 18.863943 45.210109 18.789062 45.160156 C 18.400577 45.587352 18.378893 46.04147 19.064453 46.296875 C 20.217719 46.726517 21.009756 46.273439 22.027344 45.730469 C 23.044932 45.187755 22.99948 45.098116 22.931641 44.894531 C 22.863802 44.905681 22.5988 44.770781 22.228516 44.621094 C 22.227984 44.620879 22.227095 44.621309 22.226562 44.621094 z M 25.470703 45.931641 C 25.314371 46.17253 25.261969 46.467389 25.396484 46.861328 C 26.549751 48.05982 29.172435 47.38142 29.669922 49.326172 C 30.257864 51.542256 34.01161 51.157483 36.205078 49.529297 C 36.616841 49.109615 36.520124 48.769362 36.271484 48.453125 C 36.250093 48.478097 36.230153 48.50374 36.205078 48.529297 C 34.01161 50.15748 30.257864 50.542253 29.669922 48.326172 C 29.182616 46.421219 26.657806 47.032203 25.470703 45.931641 z "
     transform="scale(0.26458333)" />
  <path
     id="path2"
     style="stroke-width:2.2613;fill:url(#linearGradient1299);fill-opacity:1"
     d="M 32 14 C 30.982411 14 29.964156 14.385147 29.195312 15.199219 L 15.199219 29.625 C 14.430375 30.416456 14.022614 31.457849 14 32.498047 L 14 32.564453 C 14 35.662441 22.253769 32.655254 23 36.431641 C 23.407035 38.48943 18.5 37.539867 18.5 39.597656 C 18.5 42.017253 25.441691 40.366661 27.431641 42.333984 C 28.245711 44.323932 24.763319 44.007054 25.396484 45.861328 C 26.549751 47.05982 29.172435 46.38142 29.669922 48.326172 C 30.257864 50.542256 34.01161 50.157468 36.205078 48.529297 C 37.380957 47.330805 34.418999 46.789464 35.572266 45.568359 C 36.748145 44.369867 42.49188 44.617258 42.537109 41.994141 C 41.994396 40.343383 39.823394 40.071671 39.800781 38.126953 C 39.687736 36.4762 41.565309 36.95236 47.535156 35.324219 C 49.909527 34.193569 50 33.604651 50 32.564453 L 50 32.498047 C 49.977323 31.457876 49.503218 30.416456 48.734375 29.625 L 34.804688 15.199219 C 34.013232 14.385149 33.017589 14 32 14 z M 32.271484 17.029297 C 33.334299 17.029297 36.228753 20.603966 38.806641 23.294922 C 39.552871 24.267281 38.535156 25.261719 38.535156 25.261719 L 33.130859 22.298828 L 30.734375 25.533203 L 28.630859 22.367188 L 27.365234 27.296875 L 23.632812 25.058594 L 24.628906 23.791016 L 30.462891 17.798828 C 30.89254 17.346564 31.253896 17.0293 32.271484 17.029297 z M 48.087891 38.685547 C 47.878012 38.685575 47.687791 38.711092 47.535156 38.761719 C 47.150737 38.874802 45.341706 38.942061 45.5 40.298828 C 47.128141 40.999825 49.616188 41.541467 49.910156 40.162109 C 50.136285 39.144517 49.163986 38.715976 48.304688 38.693359 C 48.231195 38.687785 48.15785 38.685537 48.087891 38.685547 z M 20.648438 43.244141 A 1.8316582 1.8316582 0 0 0 20.400391 43.261719 C 20.242096 43.284018 20.127864 43.328302 19.992188 43.396484 C 18.748468 43.871337 17.911187 44.867226 19.064453 45.296875 C 20.217719 45.726517 21.009756 45.27353 22.027344 44.730469 C 23.044932 44.187755 22.99948 44.098112 22.931641 43.894531 C 22.795963 43.91683 21.868846 43.352144 20.896484 43.261719 A 1.8316582 1.8316582 0 0 0 20.648438 43.244141 z "
     transform="scale(0.26458333)" />
</svg>
