<?xml version="1.0" encoding="UTF-8" standalone="no"?>
<!-- Created with Inkscape (http://www.inkscape.org/) -->

<svg
   width="64"
   height="64"
   viewBox="0 0 16.933333 16.933333"
   version="1.1"
   id="svg5"
   inkscape:version="1.1.1 (3bf5ae0d25, 2021-09-20, custom)"
   sodipodi:docname="inkscape.svg"
   xmlns:inkscape="http://www.inkscape.org/namespaces/inkscape"
   xmlns:sodipodi="http://sodipodi.sourceforge.net/DTD/sodipodi-0.dtd"
   xmlns:xlink="http://www.w3.org/1999/xlink"
   xmlns="http://www.w3.org/2000/svg"
   xmlns:svg="http://www.w3.org/2000/svg">
  <sodipodi:namedview
     id="namedview7"
     pagecolor="#ffffff"
     bordercolor="#666666"
     borderopacity="1.0"
     inkscape:pageshadow="2"
     inkscape:pageopacity="0.0"
     inkscape:pagecheckerboard="0"
     inkscape:document-units="px"
     showgrid="false"
     units="px"
     height="48px"
     inkscape:zoom="9.4133583"
     inkscape:cx="27.036047"
     inkscape:cy="40.208817"
     inkscape:window-width="1853"
     inkscape:window-height="1019"
     inkscape:window-x="0"
     inkscape:window-y="0"
     inkscape:window-maximized="1"
     inkscape:current-layer="svg5"
     inkscape:lockguides="true" />
  <defs
     id="defs2">
    <linearGradient
       inkscape:collect="always"
       id="linearGradient1749">
      <stop
         style="stop-color:#666666;stop-opacity:1;"
         offset="0"
         id="stop1745" />
      <stop
         style="stop-color:#333333;stop-opacity:1"
         offset="1"
         id="stop1747" />
    </linearGradient>
    <linearGradient
       inkscape:collect="always"
       id="linearGradient1297">
      <stop
         style="stop-color:#ffffff;stop-opacity:1;"
         offset="0"
         id="stop1293" />
      <stop
         style="stop-color:#b3b3b3;stop-opacity:1"
         offset="1"
         id="stop1295" />
    </linearGradient>
    <linearGradient
       inkscape:collect="always"
       id="linearGradient1005">
      <stop
         style="stop-color:#000000;stop-opacity:1;"
         offset="0"
         id="stop1001" />
      <stop
         style="stop-color:#000000;stop-opacity:0;"
         offset="1"
         id="stop1003" />
    </linearGradient>
    <linearGradient
       inkscape:collect="always"
       xlink:href="#linearGradient1297"
       id="linearGradient1299"
       x1="50"
       y1="27.935066"
       x2="50"
       y2="69.935066"
       gradientUnits="userSpaceOnUse"
       gradientTransform="matrix(0.29398148,0,0,0.29398148,-0.9407407,-0.9407407)" />
    <linearGradient
       inkscape:collect="always"
       xlink:href="#linearGradient37218"
       id="linearGradient1781"
       x1="2.8346456e-08"
       y1="2.2677165e-07"
       x2="64"
       y2="64"
       gradientUnits="userSpaceOnUse"
       gradientTransform="scale(0.26458333)" />
    <linearGradient
       inkscape:collect="always"
       id="linearGradient37218">
      <stop
         style="stop-color:#ffffff;stop-opacity:1"
         offset="0"
         id="stop37214" />
      <stop
         style="stop-color:#717171;stop-opacity:0.00392157"
         offset="0.49741825"
         id="stop37220" />
      <stop
         style="stop-color:#808080;stop-opacity:1"
         offset="1"
         id="stop37216" />
    </linearGradient>
    <linearGradient
       inkscape:collect="always"
       xlink:href="#linearGradient1749"
       id="linearGradient969"
       x1="0.52916664"
       y1="6.7529299e-07"
       x2="0.529167"
       y2="16.933334"
       gradientUnits="userSpaceOnUse" />
    <linearGradient
       inkscape:collect="always"
       xlink:href="#linearGradient1005"
       id="linearGradient1823"
       x1="8"
       y1="58.11042"
       x2="56"
       y2="18.11042"
       gradientUnits="userSpaceOnUse" />
  </defs>
  <path
     id="rect863"
     style="fill:url(#linearGradient969);fill-opacity:1;stroke-width:0.264583"
     d="M 3.1750003,1.0583333 H 13.758333 c 1.172634,0 2.116667,0.9440333 2.116667,2.1166665 V 13.758333 c 0,1.172634 -0.944033,2.116667 -2.116667,2.116667 H 3.1750003 c -1.172633,0 -2.116667,-0.944033 -2.116667,-2.116667 V 3.1749998 c 0,-1.1726332 0.944034,-2.1166665 2.116667,-2.1166665 z" />
  <path
     id="rect1345"
     style="opacity:0.3;fill:url(#linearGradient1781);fill-opacity:1;stroke-width:0.264583"
     d="m 3.1750003,1.0583333 c -1.172633,0 -2.116667,0.9440334 -2.116667,2.1166667 v 10.583333 c 0,1.172634 0.944034,2.116667 2.116667,2.116667 H 13.758334 c 1.172633,0 2.116666,-0.944033 2.116666,-2.116667 V 3.175 c 0,-1.1726333 -0.944033,-2.1166667 -2.116666,-2.1166667 z m 0,0.2645834 H 13.758334 c 1.026054,0 1.852083,0.8260291 1.852083,1.8520833 v 10.583333 c 0,1.026054 -0.826029,1.852084 -1.852083,1.852084 H 3.1750003 c -1.026054,0 -1.852083,-0.82603 -1.852083,-1.852084 V 3.175 c 0,-1.0260542 0.826029,-1.8520833 1.852083,-1.8520833 z" />
  <path
     id="path2"
     style="fill:url(#linearGradient1299);fill-opacity:1;stroke-width:0.66478"
     d="m 8.4666665,3.1749999 c -0.2991523,0 -0.5985004,0.1132261 -0.8245263,0.3525482 L 3.5275481,7.7684605 C 3.3015222,8.0011339 3.181648,8.3072841 3.1749999,8.6130831 v 0.019522 c 0,0.9107512 2.4264552,0.026694 2.6458333,1.1368822 0.1196608,0.6049507 -1.3229166,0.3257967 -1.3229166,0.9307487 0,0.711317 2.0407285,0.226074 2.625737,0.80443 0.2393215,0.585008 -0.7844373,0.491852 -0.5982985,1.036974 0.3390391,0.352334 1.1100597,0.152897 1.2563116,0.724618 0.1728441,0.651488 1.2763759,0.538367 1.9212146,0.05972 C 10.048568,12.973644 9.1778074,12.8145 9.5168463,12.455517 9.8625333,12.103183 11.551085,12.175911 11.564381,11.404764 11.404833,10.919466 10.766599,10.839588 10.759951,10.267877 10.726721,9.7825863 11.27869,9.9225683 13.033714,9.4439253 13.731735,9.1115351 13.758333,8.9384042 13.758333,8.6326052 V 8.6130831 C 13.751666,8.3072921 13.612288,8.0011339 13.386262,7.7684605 L 9.2911928,3.5275481 C 9.0585194,3.2882266 8.7658188,3.1749999 8.4666665,3.1749999 Z m 0.079811,0.8905572 c 0.312448,0 1.1633638,1.0508865 1.9212155,1.8419777 0.219377,0.2858555 -0.07981,0.5782019 -0.07981,0.5782019 L 8.7991181,5.6147016 8.0945962,6.565548 7.4762014,5.6347982 7.1041311,7.0840349 6.0068682,6.4260217 6.2997014,6.0533773 8.0147849,4.291785 C 8.1410938,4.1588277 8.2473257,4.065558 8.5464775,4.0655571 Z m 4.6497305,6.3665359 c -0.0617,8e-6 -0.117622,0.0075 -0.162494,0.02239 -0.113012,0.03324 -0.644833,0.05302 -0.598298,0.451882 0.478643,0.20608 1.210083,0.365313 1.296504,-0.04019 0.06648,-0.299153 -0.21936,-0.425136 -0.471978,-0.431785 -0.0216,-0.0016 -0.04317,-0.0023 -0.06373,-0.0023 z m -8.0666905,1.340142 a 0.53847358,0.53847358 0 0 0 -0.072921,0.0052 c -0.046536,0.0066 -0.080118,0.01957 -0.1200041,0.03962 -0.3656307,0.139598 -0.6117758,0.432371 -0.2727369,0.55868 0.3390388,0.126307 0.571883,-0.0069 0.8710351,-0.166513 0.299152,-0.159548 0.2857899,-0.185901 0.2658465,-0.24575 -0.039887,0.0066 -0.312442,-0.159452 -0.5982984,-0.186035 a 0.53847358,0.53847358 0 0 0 -0.072921,-0.0052 z" />
  <path
     id="path2-6"
     style="opacity:0.3;fill:url(#linearGradient1823);fill-opacity:1;stroke-width:2.51255"
     d="M 32.300781 15.365234 C 31.170132 15.365238 30.770357 15.718187 30.292969 16.220703 L 23.810547 22.878906 L 22.703125 24.287109 L 23.238281 24.607422 L 23.810547 23.878906 L 30.292969 17.220703 C 30.770357 16.718187 31.170132 16.365238 32.300781 16.365234 C 33.481687 16.365234 36.698176 20.338174 39.5625 23.328125 C 39.65722 23.451549 39.725266 23.574886 39.773438 23.697266 C 39.912151 23.304234 39.935309 22.813907 39.5625 22.328125 C 36.698177 19.338174 33.481687 15.365234 32.300781 15.365234 z M 12.044922 33.009766 C 12.01995 33.190341 12.003948 33.371143 12 33.552734 L 12 33.626953 C 12 36.983281 20.718186 33.89173 21.921875 37.625 C 22.02204 37.433293 22.055222 37.203007 22 36.923828 C 21.204254 32.896863 12.726729 35.811123 12.044922 33.009766 z M 51.974609 33.201172 C 51.882158 34.034094 51.431828 34.659976 49.261719 35.693359 C 42.628557 37.502405 40.542375 36.974425 40.667969 38.808594 C 40.669893 38.974051 40.686811 39.126303 40.714844 39.271484 C 41.072073 38.063687 43.376116 38.298525 49.261719 36.693359 C 51.899908 35.437081 52 34.782729 52 33.626953 L 52 33.552734 C 51.997437 33.435156 51.987372 33.318485 51.974609 33.201172 z M 17.107422 40.935547 C 17.037959 41.083797 17 41.250423 17 41.441406 C 17 44.129849 24.71277 42.296509 26.923828 44.482422 C 26.935691 44.51142 26.942883 44.538278 26.953125 44.566406 C 27.091133 44.284623 27.110592 43.938956 26.923828 43.482422 C 24.865218 41.447223 18.039186 42.895811 17.107422 40.935547 z M 51.832031 41.28125 C 51.32248 42.484574 48.944826 42.009164 47.234375 41.318359 C 47.054823 41.541703 46.954802 41.833305 47 42.220703 C 48.809044 42.999588 51.57376 43.600969 51.900391 42.068359 C 51.969607 41.756894 51.934452 41.497635 51.832031 41.28125 z M 43.570312 43.769531 C 42.62982 45.984728 37.16645 45.855442 35.96875 47.076172 C 35.552076 47.517357 35.620486 47.878402 35.855469 48.210938 C 35.888603 48.166898 35.925593 48.121868 35.96875 48.076172 C 37.275284 46.744516 43.656779 47.02004 43.707031 44.105469 C 43.668377 43.987894 43.62273 43.875407 43.570312 43.769531 z M 21.255859 45.960938 C 21.156517 46.017178 21.047818 46.07632 20.919922 46.144531 C 19.789265 46.747793 18.90836 47.252768 17.626953 46.775391 C 17.472618 46.717892 17.351055 46.649813 17.257812 46.576172 C 16.884421 47.030699 16.901213 47.505015 17.626953 47.775391 C 18.90836 48.252771 19.789265 47.747793 20.919922 47.144531 C 22.050575 46.541515 21.999203 46.442998 21.923828 46.216797 C 21.856746 46.227896 21.598088 46.104297 21.255859 45.960938 z M 24.703125 47.439453 C 24.563454 47.693974 24.525552 48.002426 24.662109 48.402344 C 25.943517 49.734 28.857393 48.97979 29.410156 51.140625 C 30.063425 53.602942 34.234692 53.174294 36.671875 51.365234 C 37.10422 50.924576 37.031326 50.565044 36.789062 50.230469 C 36.754696 50.274488 36.71669 50.319557 36.671875 50.365234 C 34.234692 52.17429 30.063425 52.602942 29.410156 50.140625 C 28.862968 48.001585 26.003809 48.716536 24.703125 47.439453 z "
     transform="scale(0.26458333)" />
</svg>
