<?xml version="1.0" encoding="UTF-8" standalone="no"?>
<!-- Created with Inkscape (http://www.inkscape.org/) -->

<svg
   width="64"
   height="64"
   viewBox="0 0 16.933333 16.933333"
   version="1.1"
   id="svg5"
   inkscape:version="1.1.1 (3bf5ae0d25, 2021-09-20, custom)"
   sodipodi:docname="instagram.svg"
   xmlns:inkscape="http://www.inkscape.org/namespaces/inkscape"
   xmlns:sodipodi="http://sodipodi.sourceforge.net/DTD/sodipodi-0.dtd"
   xmlns:xlink="http://www.w3.org/1999/xlink"
   xmlns="http://www.w3.org/2000/svg"
   xmlns:svg="http://www.w3.org/2000/svg">
  <sodipodi:namedview
     id="namedview7"
     pagecolor="#ffffff"
     bordercolor="#666666"
     borderopacity="1.0"
     inkscape:pageshadow="2"
     inkscape:pageopacity="0.0"
     inkscape:pagecheckerboard="0"
     inkscape:document-units="px"
     showgrid="false"
     units="px"
     height="48px"
     inkscape:zoom="5.656854"
     inkscape:cx="73.539108"
     inkscape:cy="64.965438"
     inkscape:window-width="1920"
     inkscape:window-height="1019"
     inkscape:window-x="0"
     inkscape:window-y="0"
     inkscape:window-maximized="1"
     inkscape:current-layer="svg5"
     inkscape:lockguides="true" />
  <defs
     id="defs2">
    <linearGradient
       inkscape:collect="always"
       id="linearGradient37218">
      <stop
         style="stop-color:#1a1a1a;stop-opacity:1"
         offset="0"
         id="stop37214" />
      <stop
         style="stop-color:#e6e6e6;stop-opacity:0.00306325"
         offset="0.49741825"
         id="stop37220" />
      <stop
         style="stop-color:#ffffff;stop-opacity:1"
         offset="1"
         id="stop37216" />
    </linearGradient>
    <linearGradient
       inkscape:collect="always"
       xlink:href="#linearGradient37218"
       id="linearGradient881"
       x1="64.208344"
       y1="64.062607"
       x2="0.30528301"
       y2="0.13507102"
       gradientUnits="userSpaceOnUse" />
    <radialGradient
       fy="578.08801"
       fx="158.429"
       gradientTransform="matrix(0,-0.79264488,0.73742311,0,-406.48287,187.5679)"
       gradientUnits="userSpaceOnUse"
       xlink:href="#a"
       r="65"
       cy="578.08801"
       cx="158.429"
       id="c" />
    <linearGradient
       id="a">
      <stop
         id="stop9"
         stop-color="#fd5"
         offset="0" />
      <stop
         id="stop11"
         stop-color="#fd5"
         offset=".1" />
      <stop
         id="stop13"
         stop-color="#ff543e"
         offset=".5" />
      <stop
         id="stop15"
         stop-color="#c837ab"
         offset="1" />
    </linearGradient>
    <radialGradient
       fy="473.45499"
       fx="147.694"
       gradientTransform="matrix(0.01840524,0.09192246,-0.37900348,0.07588746,176.00567,-46.927338)"
       gradientUnits="userSpaceOnUse"
       xlink:href="#b"
       r="65"
       cy="473.45499"
       cx="147.694"
       id="d" />
    <linearGradient
       id="b">
      <stop
         id="stop2"
         stop-color="#3771c8"
         offset="0" />
      <stop
         id="stop4"
         offset=".128"
         stop-color="#3771c8" />
      <stop
         id="stop6"
         stop-opacity="0"
         stop-color="#60f"
         offset="1" />
    </linearGradient>
  </defs>
  <path
     id="path22"
     style="fill:url(#c);stroke-width:0.399927"
     d="M 12 6 C 8.6759999 6 6 8.6759999 6 12 L 6 52 C 6 55.324 8.6759999 58 12 58 L 52 58 C 55.324 58 58 55.324 58 52 L 58 12 C 58 8.6759999 55.324 6 52 6 L 12 6 z "
     transform="scale(0.26458333)" />
  <path
     id="path24"
     style="fill:url(#d);stroke-width:0.105814"
     d="m 3.175,1.5875 c -0.879475,0 -1.5875,0.7080249 -1.5875,1.5874999 V 13.758333 c 0,0.879475 0.708025,1.5875 1.5875,1.5875 h 10.583333 c 0.879475,0 1.5875,-0.708025 1.5875,-1.5875 0,-3.527778 0,-7.0555553 0,-10.5833331 0,-0.879475 -0.708025,-1.5874999 -1.5875,-1.5874999 -3.527778,0 -7.055555,0 -10.583333,0 z"
     sodipodi:nodetypes="csssscccc" />
  <path
     style="stroke-width:0.105814"
     id="path26"
     d="m 8.465755,3.3863328 c -1.3793874,0 -1.5524986,0.00604 -2.0942647,0.030686 C 5.8307824,3.441779 5.4617045,3.5273824 5.138761,3.6529833 4.8047072,3.7827108 4.5213381,3.9562453 4.2390271,4.238662 3.9565045,4.5209729 3.7829701,4.8043421 3.6528193,5.13829 3.526901,5.4613393 3.4411918,5.8305233 3.4168548,6.3710197 c -0.024232,0.5417661 -0.03058,0.714983 -0.03058,2.0943703 0,1.3793877 0.00613,1.551969 0.030686,2.093735 0.024867,0.540708 0.1104687,0.909786 0.2359645,1.232729 0.1298331,0.334055 0.3033678,0.617423 0.5857846,0.899734 0.282205,0.282523 0.5655741,0.456481 0.8994163,0.586208 0.3231551,0.125601 0.6923391,0.211205 1.2329414,0.235965 0.5417661,0.02465 0.7147716,0.03069 2.0940527,0.03069 1.3794931,0 1.5520747,-0.006 2.0938417,-0.03069 0.540707,-0.02476 0.910209,-0.110364 1.233364,-0.235965 0.333948,-0.129727 0.616893,-0.303685 0.899099,-0.586208 0.282522,-0.282311 0.456057,-0.565679 0.586207,-0.899628 0.12486,-0.323049 0.21057,-0.692233 0.235965,-1.232729 0.02434,-0.541766 0.03069,-0.7144533 0.03069,-2.093841 0,-1.3793873 -0.0064,-1.5524985 -0.03069,-2.0942646 C 13.488202,5.8304177 13.402492,5.4613393 13.277632,5.1383959 13.147482,4.8043421 12.973947,4.5209729 12.691425,4.238662 12.408902,3.9561394 12.126379,3.7826049 11.792008,3.6529833 11.468218,3.5273824 11.098929,3.441779 10.55822,3.4170188 10.016454,3.3923642 9.8439784,3.3863326 8.4641678,3.3863326 Z M 8.0101215,4.3016212 c 0.13523,-2.115e-4 0.2861201,0 0.4556335,0 1.3561084,0 1.5168394,0.00487 2.052362,0.029206 0.495208,0.022644 0.763975,0.1053912 0.943012,0.1749098 0.237023,0.092059 0.406007,0.2021043 0.583668,0.3798714 0.177768,0.1777661 0.287813,0.3470689 0.380083,0.5840914 0.06952,0.1788247 0.152371,0.4475918 0.17491,0.9428002 0.02434,0.5354171 0.02963,0.696254 0.02963,2.0517272 0,1.3554735 -0.0053,1.5163112 -0.02963,2.0517278 -0.02264,0.495208 -0.105392,0.763974 -0.17491,0.9428 -0.09206,0.237022 -0.202316,0.405795 -0.380083,0.583456 -0.177766,0.177768 -0.34654,0.287813 -0.583668,0.379872 -0.178825,0.06984 -0.447804,0.152371 -0.943012,0.175015 -0.5354166,0.02434 -0.6962536,0.02963 -2.052362,0.02963 -1.3562139,0 -1.516945,-0.0053 -2.0523622,-0.02963 C 5.9181844,12.574241 5.6494177,12.491495 5.4702752,12.421975 5.2332527,12.329917 5.0639507,12.219871 4.8861838,12.042104 4.7084167,11.864337 4.5983705,11.695458 4.5061009,11.45833 4.4365814,11.279505 4.3537292,11.010738 4.3311909,10.515529 4.3068537,9.9801124 4.3019863,9.8192767 4.3019863,8.4629562 c 0,-1.3563198 0.00487,-1.5163099 0.029205,-2.0517272 C 4.353836,5.9160207 4.4365831,5.6472539 4.5061017,5.4682171 4.5981605,5.2311946 4.7084174,5.0618926 4.8861845,4.8841257 5.0639507,4.7063577 5.2332534,4.5963124 5.4702759,4.5040428 5.6493124,4.4342048 5.9181852,4.3516713 6.4133935,4.3289213 6.8819362,4.3077591 7.0635128,4.3014095 8.0101222,4.3003509 Z m 3.1667915,0.8433351 c -0.336487,0 -0.609487,0.272682 -0.609487,0.6092754 0,0.3364873 0.273,0.6094868 0.609487,0.6094868 0.336488,0 0.609487,-0.2729995 0.609487,-0.6094868 0,-0.3364876 -0.272999,-0.609487 -0.609487,-0.609487 z M 8.465755,5.8570822 c -1.4404416,0 -2.6083073,1.1678659 -2.6083073,2.6083078 0,1.4404417 1.1678657,2.607778 2.6083073,2.607778 1.4404424,0 2.607884,-1.1673363 2.607884,-2.607778 0,-1.4404419 -1.1675476,-2.6083078 -2.6079897,-2.6083078 z m 0,0.9152888 c 0.9349694,0 1.693019,0.7579435 1.693019,1.693019 0,0.9349697 -0.7580496,1.693019 -1.693019,1.693019 -0.9350756,0 -1.6930193,-0.7580493 -1.6930193,-1.693019 0,-0.9350755 0.7579437,-1.693019 1.6930193,-1.693019 z"
     fill="#ffffff" />
  <path
     id="rect846"
     style="opacity:0.3;fill:url(#linearGradient881);stroke-width:1.27569;fill-opacity:1"
     d="M 12 6 C 8.6760005 6 6 8.6760005 6 12 L 6 52 C 6 55.324 8.6760005 58 12 58 L 52 58 C 55.324 58 58 55.324 58 52 L 58 12 C 58 8.6760005 55.324 6 52 6 L 12 6 z M 12 7 L 52 7 C 54.77 7 57 9.23 57 12 L 57 52 C 57 54.77 54.77 57 52 57 L 12 57 C 9.23 57 7 54.77 7 52 L 7 12 C 7 9.23 9.23 7 12 7 z "
     transform="scale(0.26458333)" />
</svg>
