<?xml version="1.0" encoding="UTF-8" standalone="no"?>
<!-- Created with Inkscape (http://www.inkscape.org/) -->

<svg
   width="64"
   height="64"
   viewBox="0 0 16.933333 16.933333"
   version="1.1"
   id="svg5"
   inkscape:version="1.1.1 (3bf5ae0d25, 2021-09-20, custom)"
   sodipodi:docname="internet-chat.svg"
   xmlns:inkscape="http://www.inkscape.org/namespaces/inkscape"
   xmlns:sodipodi="http://sodipodi.sourceforge.net/DTD/sodipodi-0.dtd"
   xmlns:xlink="http://www.w3.org/1999/xlink"
   xmlns="http://www.w3.org/2000/svg"
   xmlns:svg="http://www.w3.org/2000/svg">
  <sodipodi:namedview
     id="namedview7"
     pagecolor="#ffffff"
     bordercolor="#666666"
     borderopacity="1.0"
     inkscape:pageshadow="2"
     inkscape:pageopacity="0.0"
     inkscape:pagecheckerboard="0"
     inkscape:document-units="px"
     showgrid="false"
     units="px"
     height="48px"
     inkscape:zoom="5.656854"
     inkscape:cx="30.05204"
     inkscape:cy="39.421205"
     inkscape:window-width="1920"
     inkscape:window-height="1011"
     inkscape:window-x="0"
     inkscape:window-y="0"
     inkscape:window-maximized="1"
     inkscape:current-layer="svg5"
     inkscape:lockguides="true"
     showguides="false" />
  <defs
     id="defs2">
    <linearGradient
       inkscape:collect="always"
       id="linearGradient9333">
      <stop
         style="stop-color:#ffffff;stop-opacity:1;"
         offset="0"
         id="stop9329" />
      <stop
         style="stop-color:#ffffff;stop-opacity:0;"
         offset="1"
         id="stop9331" />
    </linearGradient>
    <linearGradient
       inkscape:collect="always"
       id="linearGradient8941">
      <stop
         style="stop-color:#000000;stop-opacity:1;"
         offset="0"
         id="stop8937" />
      <stop
         style="stop-color:#000000;stop-opacity:0;"
         offset="1"
         id="stop8939" />
    </linearGradient>
    <linearGradient
       inkscape:collect="always"
       id="linearGradient4421">
      <stop
         style="stop-color:#44c53e;stop-opacity:1"
         offset="0"
         id="stop4417" />
      <stop
         style="stop-color:#9ae157;stop-opacity:1"
         offset="1"
         id="stop4419" />
    </linearGradient>
    <linearGradient
       inkscape:collect="always"
       xlink:href="#linearGradient8941"
       id="linearGradient8943"
       x1="16"
       y1="53.167645"
       x2="48"
       y2="19.167645"
       gradientUnits="userSpaceOnUse"
       gradientTransform="matrix(0.26458333,0,0,0.26458333,-0.52916663,0.26458338)" />
    <linearGradient
       inkscape:collect="always"
       xlink:href="#linearGradient9333"
       id="linearGradient9335"
       x1="8.9153872"
       y1="6.8317075"
       x2="8.9153862"
       y2="24.294205"
       gradientUnits="userSpaceOnUse"
       gradientTransform="translate(-0.52916663)" />
    <linearGradient
       inkscape:collect="always"
       xlink:href="#linearGradient37218"
       id="linearGradient1781"
       x1="2.8346456e-08"
       y1="2.2677165e-07"
       x2="64"
       y2="64"
       gradientUnits="userSpaceOnUse"
       gradientTransform="matrix(0.26458333,0,0,0.26458333,1.0125e-6,-1.75e-8)" />
    <linearGradient
       inkscape:collect="always"
       id="linearGradient37218">
      <stop
         style="stop-color:#ffffff;stop-opacity:1"
         offset="0"
         id="stop37214" />
      <stop
         style="stop-color:#959595;stop-opacity:0.00392157"
         offset="0.49741825"
         id="stop37220" />
      <stop
         style="stop-color:#000000;stop-opacity:1"
         offset="1"
         id="stop37216" />
    </linearGradient>
    <linearGradient
       inkscape:collect="always"
       xlink:href="#linearGradient4421"
       id="linearGradient1739"
       x1="6.8791676"
       y1="16.933334"
       x2="6.879168"
       y2="6.7529299e-07"
       gradientUnits="userSpaceOnUse" />
  </defs>
  <path
     id="rect863"
     style="fill:url(#linearGradient1739);stroke-width:0.264583;fill-opacity:1"
     d="M 3.1750003,1.0583333 H 13.758334 c 1.172634,0 2.116667,0.9440333 2.116667,2.1166665 V 13.758333 c 0,1.172634 -0.944033,2.116667 -2.116667,2.116667 H 3.1750003 c -1.1726327,0 -2.116666,-0.944033 -2.116666,-2.116667 V 3.1749998 c 0,-1.1726332 0.9440333,-2.1166665 2.116666,-2.1166665 z" />
  <path
     id="rect1345"
     style="opacity:0.3;fill:url(#linearGradient1781);fill-opacity:1;stroke-width:0.264583"
     d="m 3.1750003,1.0583333 c -1.1726336,0 -2.116667,0.9440334 -2.116667,2.1166667 v 10.583333 c 0,1.172634 0.9440334,2.116667 2.116667,2.116667 H 13.758334 c 1.172633,0 2.116666,-0.944033 2.116666,-2.116667 V 3.175 c 0,-1.1726333 -0.944033,-2.1166667 -2.116666,-2.1166667 z m 0,0.2645834 H 13.758334 c 1.026054,0 1.852083,0.8260291 1.852083,1.8520833 v 10.583333 c 0,1.026054 -0.826029,1.852084 -1.852083,1.852084 H 3.1750003 c -1.0260549,0 -1.8520837,-0.82603 -1.8520837,-1.852084 V 3.175 c 0,-1.0260542 0.8260288,-1.8520833 1.8520837,-1.8520833 z" />
  <path
     id="rect849"
     style="fill:url(#linearGradient9335);fill-opacity:1;stroke-width:0.259094"
     d="m 4.40955,4.4979166 c -0.3908777,0 -0.7053834,0.3145057 -0.7053834,0.7053834 v 4.939233 c 0,0.390878 0.3145057,0.705384 0.7053834,0.705384 h 1.2349962 v 1.763199 c -2.91e-4,0.37353 0.5035487,0.49162 0.6686931,0.15658 l 1.4417725,-1.919779 h 4.7687712 c 0.390877,0 0.705383,-0.314506 0.705383,-0.705384 V 5.2033 c 0,-0.3908777 -0.314506,-0.7053834 -0.705383,-0.7053834 z"
     sodipodi:nodetypes="ssssccccsssss" />
  <path
     id="rect849-9"
     style="opacity:0.3;fill:url(#linearGradient8943);fill-opacity:1;stroke-width:0.259094"
     d="m 3.7041666,10.142533 v 0.264583 c 0,0.390879 0.3145057,0.705384 0.7053834,0.705384 H 5.6445462 V 10.847917 H 4.40955 c -0.3908777,0 -0.7053834,-0.314506 -0.7053834,-0.705384 z m 9.5249994,0 c 0,0.390878 -0.314505,0.705384 -0.705383,0.705384 H 7.7550118 l -1.4417725,1.919779 c -0.1651439,0.33504 -0.668973,0.21695 -0.6686931,-0.15658 V 12.8757 c -2.91e-4,0.37353 0.5035492,0.491619 0.6686931,0.156579 L 7.7550118,11.1125 h 4.7687712 c 0.390878,0 0.705383,-0.314505 0.705383,-0.705384 z"
     sodipodi:nodetypes="cssccsccsccccccssc" />
</svg>
