<?xml version="1.0" encoding="UTF-8" standalone="no"?>
<!-- Created with Inkscape (http://www.inkscape.org/) -->

<svg
   width="64"
   height="64"
   viewBox="0 0 16.933333 16.933333"
   version="1.1"
   id="svg5"
   inkscape:version="1.1.1 (3bf5ae0d25, 2021-09-20, custom)"
   sodipodi:docname="internet-news-reader.svg"
   xmlns:inkscape="http://www.inkscape.org/namespaces/inkscape"
   xmlns:sodipodi="http://sodipodi.sourceforge.net/DTD/sodipodi-0.dtd"
   xmlns:xlink="http://www.w3.org/1999/xlink"
   xmlns="http://www.w3.org/2000/svg"
   xmlns:svg="http://www.w3.org/2000/svg">
  <sodipodi:namedview
     id="namedview7"
     pagecolor="#ffffff"
     bordercolor="#666666"
     borderopacity="1.0"
     inkscape:pageshadow="2"
     inkscape:pageopacity="0.0"
     inkscape:pagecheckerboard="0"
     inkscape:document-units="px"
     showgrid="false"
     units="px"
     height="48px"
     inkscape:zoom="7.9999996"
     inkscape:cx="2.2500001"
     inkscape:cy="50.500002"
     inkscape:window-width="1920"
     inkscape:window-height="1011"
     inkscape:window-x="0"
     inkscape:window-y="0"
     inkscape:window-maximized="1"
     inkscape:current-layer="svg5"
     inkscape:lockguides="true"
     showguides="false" />
  <defs
     id="defs2">
    <linearGradient
       inkscape:collect="always"
       id="linearGradient3215">
      <stop
         style="stop-color:#ffffff;stop-opacity:1;"
         offset="0"
         id="stop3211" />
      <stop
         style="stop-color:#ffa377;stop-opacity:1"
         offset="1"
         id="stop3213" />
    </linearGradient>
    <linearGradient
       inkscape:collect="always"
       id="linearGradient2841">
      <stop
         style="stop-color:#000000;stop-opacity:1;"
         offset="0"
         id="stop2837" />
      <stop
         style="stop-color:#000000;stop-opacity:0;"
         offset="1"
         id="stop2839" />
    </linearGradient>
    <linearGradient
       inkscape:collect="always"
       id="linearGradient939">
      <stop
         style="stop-color:#ff6600;stop-opacity:1;"
         offset="0"
         id="stop935" />
      <stop
         style="stop-color:#fea000;stop-opacity:1"
         offset="1"
         id="stop937" />
    </linearGradient>
    <linearGradient
       inkscape:collect="always"
       id="linearGradient37218">
      <stop
         style="stop-color:#1a1a1a;stop-opacity:1"
         offset="0"
         id="stop37214" />
      <stop
         style="stop-color:#e6e6e6;stop-opacity:0.00306325"
         offset="0.49741825"
         id="stop37220" />
      <stop
         style="stop-color:#ffffff;stop-opacity:1"
         offset="1"
         id="stop37216" />
    </linearGradient>
    <linearGradient
       inkscape:collect="always"
       xlink:href="#linearGradient37218"
       id="linearGradient881"
       x1="64.208344"
       y1="64.062607"
       x2="0.30528301"
       y2="0.13507102"
       gradientUnits="userSpaceOnUse" />
    <linearGradient
       inkscape:collect="always"
       xlink:href="#linearGradient939"
       id="linearGradient941"
       x1="17.4625"
       y1="16.933332"
       x2="17.4625"
       y2="-2.7838135e-07"
       gradientUnits="userSpaceOnUse" />
    <linearGradient
       inkscape:collect="always"
       xlink:href="#linearGradient2841"
       id="linearGradient2843"
       x1="4"
       y1="53.585938"
       x2="62"
       y2="17.585938"
       gradientUnits="userSpaceOnUse" />
    <linearGradient
       inkscape:collect="always"
       xlink:href="#linearGradient3215"
       id="linearGradient3217"
       x1="50"
       y1="14"
       x2="50"
       y2="56"
       gradientUnits="userSpaceOnUse" />
  </defs>
  <path
     id="rect846-3"
     style="fill:url(#linearGradient941);stroke-width:0.337527;fill-opacity:1"
     d="m 3.175,1.5875 h 10.583333 c 0.879475,0 1.5875,0.708025 1.5875,1.5875 v 10.583333 c 0,0.879475 -0.708025,1.5875 -1.5875,1.5875 H 3.175 c -0.879475,0 -1.5875,-0.708025 -1.5875,-1.5875 V 3.175 c 0,-0.879475 0.708025,-1.5875 1.5875,-1.5875 z" />
  <path
     id="rect846"
     style="opacity:0.3;fill:url(#linearGradient881);stroke-width:1.27569;fill-opacity:1"
     d="M 12 6 C 8.6760005 6 6 8.6760005 6 12 L 6 52 C 6 55.324 8.6760005 58 12 58 L 52 58 C 55.324 58 58 55.324 58 52 L 58 12 C 58 8.6760005 55.324 6 52 6 L 12 6 z M 12 7 L 52 7 C 54.77 7 57 9.23 57 12 L 57 52 C 57 54.77 54.77 57 52 57 L 12 57 C 9.23 57 7 54.77 7 52 L 7 12 C 7 9.23 9.23 7 12 7 z "
     transform="scale(0.26458333)" />
  <path
     id="path1545"
     style="opacity:1;fill:url(#linearGradient3217);fill-opacity:1;stroke-width:2.81682;stroke-linejoin:round"
     d="M 14 14 L 14 20.171875 A 29.82857 29.82857 0 0 1 43.828125 50 L 50 50 A 35.999996 35.999996 0 0 0 14 14 z M 14 27.621094 L 14 33.458984 A 17.513512 17.513512 0 0 1 31.455078 50 L 37.300781 50 A 23.35135 23.35135 0 0 0 14 27.621094 z M 18.378906 41.244141 A 4.378378 4.378378 0 0 0 14 45.621094 A 4.378378 4.378378 0 0 0 18.378906 50 A 4.378378 4.378378 0 0 0 22.755859 45.621094 A 4.378378 4.378378 0 0 0 18.378906 41.244141 z "
     transform="scale(0.26458333)" />
  <path
     id="path1545-3"
     style="opacity:0.3;fill:url(#linearGradient2843);fill-opacity:1;stroke-width:2.81682;stroke-linejoin:round"
     d="M 14 20.171875 L 14 21.171875 A 29.82857 29.82857 0 0 1 43.828125 51 L 50 51 A 35.999996 35.999996 0 0 0 49.984375 50 L 43.828125 50 A 29.82857 29.82857 0 0 0 14 20.171875 z M 14 33.458984 L 14 34.458984 A 17.513512 17.513512 0 0 1 31.455078 51 L 37.300781 51 A 23.35135 23.35135 0 0 0 37.226562 50 L 31.455078 50 A 17.513512 17.513512 0 0 0 14 33.458984 z M 14.035156 46.121094 A 4.3783779 4.3783779 0 0 0 14 46.621094 A 4.3783779 4.3783779 0 0 0 18.378906 51 A 4.3783779 4.3783779 0 0 0 22.755859 46.621094 A 4.3783779 4.3783779 0 0 0 22.722656 46.154297 A 4.3783779 4.3783779 0 0 1 18.378906 50 A 4.3783779 4.3783779 0 0 1 14.035156 46.121094 z "
     transform="scale(0.26458333)" />
</svg>
