<?xml version="1.0" encoding="UTF-8" standalone="no"?>
<!-- Created with Inkscape (http://www.inkscape.org/) -->

<svg
   width="64"
   height="64"
   viewBox="0 0 16.933333 16.933333"
   version="1.1"
   id="svg5"
   inkscape:version="1.1.1 (3bf5ae0d25, 2021-09-20, custom)"
   sodipodi:docname="internet-mail.svg"
   xmlns:inkscape="http://www.inkscape.org/namespaces/inkscape"
   xmlns:sodipodi="http://sodipodi.sourceforge.net/DTD/sodipodi-0.dtd"
   xmlns:xlink="http://www.w3.org/1999/xlink"
   xmlns="http://www.w3.org/2000/svg"
   xmlns:svg="http://www.w3.org/2000/svg">
  <sodipodi:namedview
     id="namedview7"
     pagecolor="#ffffff"
     bordercolor="#666666"
     borderopacity="1.0"
     inkscape:pageshadow="2"
     inkscape:pageopacity="0.0"
     inkscape:pagecheckerboard="0"
     inkscape:document-units="px"
     showgrid="false"
     units="px"
     height="48px"
     inkscape:zoom="3.6876549"
     inkscape:cx="-7.8640763"
     inkscape:cy="38.371269"
     inkscape:window-width="1920"
     inkscape:window-height="1019"
     inkscape:window-x="0"
     inkscape:window-y="0"
     inkscape:window-maximized="1"
     inkscape:current-layer="svg5"
     inkscape:lockguides="true" />
  <defs
     id="defs2">
    <linearGradient
       inkscape:collect="always"
       id="linearGradient3728">
      <stop
         style="stop-color:#ffffff;stop-opacity:1;"
         offset="0"
         id="stop3724" />
      <stop
         style="stop-color:#e1f6ff;stop-opacity:1"
         offset="1"
         id="stop3726" />
    </linearGradient>
    <linearGradient
       inkscape:collect="always"
       id="linearGradient3092">
      <stop
         style="stop-color:#000000;stop-opacity:1;"
         offset="0"
         id="stop3088" />
      <stop
         style="stop-color:#000000;stop-opacity:0;"
         offset="1"
         id="stop3090" />
    </linearGradient>
    <linearGradient
       inkscape:collect="always"
       id="linearGradient1137">
      <stop
         style="stop-color:#ffc446;stop-opacity:1"
         offset="0"
         id="stop1133" />
      <stop
         style="stop-color:#ffeb76;stop-opacity:1"
         offset="1"
         id="stop1135" />
    </linearGradient>
    <linearGradient
       inkscape:collect="always"
       id="linearGradient37218">
      <stop
         style="stop-color:#1a1a1a;stop-opacity:1"
         offset="0"
         id="stop37214" />
      <stop
         style="stop-color:#e6e6e6;stop-opacity:0.00306325"
         offset="0.49741825"
         id="stop37220" />
      <stop
         style="stop-color:#ffffff;stop-opacity:1"
         offset="1"
         id="stop37216" />
    </linearGradient>
    <linearGradient
       inkscape:collect="always"
       xlink:href="#linearGradient37218"
       id="linearGradient881"
       x1="64.208344"
       y1="64.062607"
       x2="0.30528301"
       y2="0.13507102"
       gradientUnits="userSpaceOnUse" />
    <linearGradient
       inkscape:collect="always"
       xlink:href="#linearGradient1137"
       id="linearGradient1141"
       x1="14.287499"
       y1="16.404165"
       x2="14.287499"
       y2="-2.7838135e-07"
       gradientUnits="userSpaceOnUse" />
    <linearGradient
       inkscape:collect="always"
       xlink:href="#linearGradient3092"
       id="linearGradient3094"
       x1="4"
       y1="59.5"
       x2="58"
       y2="19.5"
       gradientUnits="userSpaceOnUse" />
    <linearGradient
       inkscape:collect="always"
       xlink:href="#linearGradient3728"
       id="linearGradient3730"
       x1="13.229166"
       y1="5.5562501"
       x2="13.229166"
       y2="14.022917"
       gradientUnits="userSpaceOnUse" />
  </defs>
  <path
     id="rect846-3"
     style="fill:url(#linearGradient1141);stroke-width:0.337527;fill-opacity:1"
     d="m 3.175,1.5875 h 10.583333 c 0.879475,0 1.5875,0.708025 1.5875,1.5875 v 10.583333 c 0,0.879475 -0.708025,1.5875 -1.5875,1.5875 H 3.175 c -0.879475,0 -1.5875,-0.708025 -1.5875,-1.5875 V 3.175 c 0,-0.879475 0.708025,-1.5875 1.5875,-1.5875 z" />
  <path
     id="rect846"
     style="opacity:0.3;fill:url(#linearGradient881);stroke-width:1.27569;fill-opacity:1"
     d="M 12 6 C 8.6760005 6 6 8.6760005 6 12 L 6 52 C 6 55.324 8.6760005 58 12 58 L 52 58 C 55.324 58 58 55.324 58 52 L 58 12 C 58 8.6760005 55.324 6 52 6 L 12 6 z M 12 7 L 52 7 C 54.77 7 57 9.23 57 12 L 57 52 C 57 54.77 54.77 57 52 57 L 12 57 C 9.23 57 7 54.77 7 52 L 7 12 C 7 9.23 9.23 7 12 7 z "
     transform="scale(0.26458333)" />
  <path
     id="rect1387-6"
     style="fill:url(#linearGradient3730);fill-opacity:1;stroke-width:0.319823"
     d="m 4.7624999,5.2916666 c -0.5863166,0 -1.0583333,0.472016 -1.0583333,1.058333 V 11.1125 c 0,0.586317 0.4720167,1.058333 1.0583333,1.058333 h 7.4083331 c 0.586317,0 1.058333,-0.472016 1.058333,-1.058333 V 6.3499996 c 0,-0.586317 -0.472016,-1.058333 -1.058333,-1.058333 z m 0,1.058333 3.7041667,3.175 3.7041664,-3.175 -2.1791949,2.39727 L 12.170833,11.1125 9.7430745,8.9601766 8.4666666,10.054167 7.1902586,8.9601766 4.7624999,11.1125 6.941695,8.7472696 Z" />
  <path
     id="rect1387-3"
     style="opacity:0.3;fill:url(#linearGradient3094);fill-opacity:1;stroke-width:1.20878"
     d="M 18 24 L 22.117188 28.529297 L 32 37 L 41.882812 28.529297 L 46 24 L 32 36 L 18 24 z M 25.779297 33.556641 L 18 42 L 23.029297 37.541016 L 26.236328 34.060547 L 25.779297 33.556641 z M 38.220703 33.556641 L 37.763672 34.060547 L 40.970703 37.541016 L 46 42 L 38.220703 33.556641 z M 14 42 L 14 43 C 14 45.215998 15.784 47 18 47 L 46 47 C 48.216001 47 50 45.215998 50 43 L 50 42 C 50 44.215998 48.216001 46 46 46 L 18 46 C 15.784 46 14 44.215998 14 42 z "
     transform="scale(0.26458333)" />
</svg>
