<?xml version="1.0" encoding="UTF-8" standalone="no"?>
<!-- Created with Inkscape (http://www.inkscape.org/) -->

<svg
   width="64"
   height="64"
   viewBox="0 0 16.933333 16.933333"
   version="1.1"
   id="svg5"
   inkscape:version="1.1.1 (3bf5ae0d25, 2021-09-20, custom)"
   sodipodi:docname="geary.svg"
   xmlns:inkscape="http://www.inkscape.org/namespaces/inkscape"
   xmlns:sodipodi="http://sodipodi.sourceforge.net/DTD/sodipodi-0.dtd"
   xmlns:xlink="http://www.w3.org/1999/xlink"
   xmlns="http://www.w3.org/2000/svg"
   xmlns:svg="http://www.w3.org/2000/svg">
  <sodipodi:namedview
     id="namedview7"
     pagecolor="#ffffff"
     bordercolor="#666666"
     borderopacity="1.0"
     inkscape:pageshadow="2"
     inkscape:pageopacity="0.0"
     inkscape:pagecheckerboard="0"
     inkscape:document-units="px"
     showgrid="false"
     units="px"
     height="48px"
     inkscape:zoom="7.3753098"
     inkscape:cx="25.76163"
     inkscape:cy="33.490119"
     inkscape:window-width="1920"
     inkscape:window-height="1011"
     inkscape:window-x="0"
     inkscape:window-y="0"
     inkscape:window-maximized="1"
     inkscape:current-layer="svg5"
     inkscape:lockguides="true" />
  <defs
     id="defs2">
    <linearGradient
       inkscape:collect="always"
       id="linearGradient3728">
      <stop
         style="stop-color:#ffffff;stop-opacity:1;"
         offset="0"
         id="stop3724" />
      <stop
         style="stop-color:#ffedc1;stop-opacity:1"
         offset="1"
         id="stop3726" />
    </linearGradient>
    <linearGradient
       inkscape:collect="always"
       id="linearGradient3092">
      <stop
         style="stop-color:#000000;stop-opacity:1;"
         offset="0"
         id="stop3088" />
      <stop
         style="stop-color:#000000;stop-opacity:0;"
         offset="1"
         id="stop3090" />
    </linearGradient>
    <linearGradient
       inkscape:collect="always"
       id="linearGradient1137">
      <stop
         style="stop-color:#ffc446;stop-opacity:1"
         offset="0"
         id="stop1133" />
      <stop
         style="stop-color:#ffeb76;stop-opacity:1"
         offset="1"
         id="stop1135" />
    </linearGradient>
    <linearGradient
       inkscape:collect="always"
       xlink:href="#linearGradient3092"
       id="linearGradient3094"
       x1="4"
       y1="59.5"
       x2="58"
       y2="19.5"
       gradientUnits="userSpaceOnUse"
       gradientTransform="matrix(0.26458333,0,0,0.26458333,0,-0.52916669)" />
    <linearGradient
       inkscape:collect="always"
       xlink:href="#linearGradient3728"
       id="linearGradient3730"
       x1="13.229166"
       y1="5.5562501"
       x2="13.229166"
       y2="14.022917"
       gradientUnits="userSpaceOnUse"
       gradientTransform="translate(0,-0.52916669)" />
    <linearGradient
       inkscape:collect="always"
       xlink:href="#linearGradient37218"
       id="linearGradient1781"
       x1="2.8346456e-08"
       y1="2.2677165e-07"
       x2="64"
       y2="64"
       gradientUnits="userSpaceOnUse"
       gradientTransform="scale(0.26458333)" />
    <linearGradient
       inkscape:collect="always"
       id="linearGradient37218">
      <stop
         style="stop-color:#ffffff;stop-opacity:1"
         offset="0"
         id="stop37214" />
      <stop
         style="stop-color:#717171;stop-opacity:0.00392157"
         offset="0.49741825"
         id="stop37220" />
      <stop
         style="stop-color:#000000;stop-opacity:1"
         offset="1"
         id="stop37216" />
    </linearGradient>
    <linearGradient
       inkscape:collect="always"
       xlink:href="#linearGradient1137"
       id="linearGradient1179"
       x1="0.52916664"
       y1="16.933334"
       x2="0.529167"
       y2="6.7529299e-07"
       gradientUnits="userSpaceOnUse" />
  </defs>
  <path
     id="rect863"
     style="fill:url(#linearGradient1179);stroke-width:0.264583;fill-opacity:1"
     d="M 3.1749998,1.0583333 H 13.758333 c 1.172634,0 2.116667,0.9440333 2.116667,2.1166665 V 13.758334 c 0,1.172634 -0.944033,2.116667 -2.116667,2.116667 H 3.1749998 c -1.1726332,0 -2.1166665,-0.944033 -2.1166665,-2.116667 V 3.1749998 c 0,-1.1726332 0.9440333,-2.1166665 2.1166665,-2.1166665 z" />
  <path
     id="rect1345"
     style="opacity:0.3;fill:url(#linearGradient1781);fill-opacity:1;stroke-width:0.264583"
     d="m 3.175,1.0583333 c -1.1726333,0 -2.1166667,0.9440334 -2.1166667,2.1166667 v 10.583334 c 0,1.172634 0.9440334,2.116667 2.1166667,2.116667 h 10.583334 c 1.172633,0 2.116666,-0.944033 2.116666,-2.116667 V 3.175 c 0,-1.1726333 -0.944033,-2.1166667 -2.116666,-2.1166667 z m 0,0.2645834 h 10.583334 c 1.026054,0 1.852083,0.8260291 1.852083,1.8520833 v 10.583334 c 0,1.026054 -0.826029,1.852084 -1.852083,1.852084 H 3.175 c -1.0260542,0 -1.8520834,-0.82603 -1.8520834,-1.852084 V 3.175 c 0,-1.0260542 0.8260292,-1.8520833 1.8520834,-1.8520833 z" />
  <path
     id="rect1387-6"
     style="fill:url(#linearGradient3730);fill-opacity:1;stroke-width:0.319823"
     d="m 4.4979166,4.7624999 c -0.5863166,0 -1.0583333,0.472016 -1.0583333,1.058333 V 11.1125 c 0,0.586317 0.4720167,1.058333 1.0583333,1.058333 h 7.9375004 c 0.586317,0 1.058333,-0.472016 1.058333,-1.058333 V 5.8208329 c 0,-0.586317 -0.472016,-1.058333 -1.058333,-1.058333 z m 0.2645833,1.058333 3.7041667,3.175 3.7041664,-3.175 -2.1791949,2.39727 L 12.170833,11.1125 9.7430745,8.4310099 8.4666666,9.5250003 7.1902586,8.4310099 4.7624999,11.1125 6.941695,8.2181029 Z"
     sodipodi:nodetypes="sssssssssccccccccccc" />
  <path
     id="rect1387-3"
     style="opacity:0.3;fill:url(#linearGradient3094);fill-opacity:1;stroke-width:0.319823"
     d="m 4.7624999,5.8208332 1.0893394,1.1983765 2.6148273,2.2412068 2.6148274,-2.2412068 1.089339,-1.1983765 -3.7041664,3.175 z M 6.8207722,8.3493611 4.7624999,11.1125 6.1894124,9.3419876 6.941695,8.4826863 Z m 3.2917888,0 L 9.9916381,8.4826863 10.638494,9.2130415 12.170833,11.1125 Z M 3.4395833,11.1125 v 0.264584 c 0,0.586316 0.4720167,1.058333 1.0583333,1.058333 h 7.9375004 c 0.586316,0 1.058333,-0.472017 1.058333,-1.058333 V 11.1125 c 0,0.586317 -0.472017,1.058334 -1.058333,1.058334 H 4.4979166 c -0.5863166,0 -1.0583333,-0.472017 -1.0583333,-1.058334 z"
     sodipodi:nodetypes="ccccccccccccccccccsssscssc" />
</svg>
