<?xml version="1.0" encoding="UTF-8" standalone="no"?>
<!-- Created with Inkscape (http://www.inkscape.org/) -->

<svg
   width="64"
   height="64"
   viewBox="0 0 16.933333 16.933333"
   version="1.1"
   id="svg5"
   inkscape:version="1.1.1 (3bf5ae0d25, 2021-09-20, custom)"
   sodipodi:docname="java.svg"
   xmlns:inkscape="http://www.inkscape.org/namespaces/inkscape"
   xmlns:sodipodi="http://sodipodi.sourceforge.net/DTD/sodipodi-0.dtd"
   xmlns:xlink="http://www.w3.org/1999/xlink"
   xmlns="http://www.w3.org/2000/svg"
   xmlns:svg="http://www.w3.org/2000/svg">
  <sodipodi:namedview
     id="namedview7"
     pagecolor="#ffffff"
     bordercolor="#666666"
     borderopacity="1.0"
     inkscape:pageshadow="2"
     inkscape:pageopacity="0.0"
     inkscape:pagecheckerboard="0"
     inkscape:document-units="px"
     showgrid="false"
     units="px"
     height="48px"
     inkscape:zoom="11.313708"
     inkscape:cx="17.058952"
     inkscape:cy="30.405593"
     inkscape:window-width="1920"
     inkscape:window-height="1011"
     inkscape:window-x="0"
     inkscape:window-y="0"
     inkscape:window-maximized="1"
     inkscape:current-layer="svg5"
     inkscape:lockguides="true" />
  <defs
     id="defs2">
    <linearGradient
       inkscape:collect="always"
       id="linearGradient2174">
      <stop
         style="stop-color:#f2f2f2;stop-opacity:1;"
         offset="0"
         id="stop2170" />
      <stop
         style="stop-color:#f9f9f9;stop-opacity:1"
         offset="1"
         id="stop2172" />
    </linearGradient>
    <linearGradient
       inkscape:collect="always"
       id="linearGradient1730">
      <stop
         style="stop-color:#4d7997;stop-opacity:1;"
         offset="0"
         id="stop1726" />
      <stop
         style="stop-color:#6694b1;stop-opacity:1"
         offset="1"
         id="stop1728" />
    </linearGradient>
    <linearGradient
       inkscape:collect="always"
       id="linearGradient1594">
      <stop
         style="stop-color:#f58312;stop-opacity:1;"
         offset="0"
         id="stop1590" />
      <stop
         style="stop-color:#f64b1d;stop-opacity:1"
         offset="1"
         id="stop1592" />
    </linearGradient>
    <linearGradient
       inkscape:collect="always"
       id="linearGradient980">
      <stop
         style="stop-color:#000000;stop-opacity:1;"
         offset="0"
         id="stop976" />
      <stop
         style="stop-color:#000000;stop-opacity:0;"
         offset="1"
         id="stop978" />
    </linearGradient>
    <linearGradient
       inkscape:collect="always"
       xlink:href="#linearGradient37218"
       id="linearGradient1781"
       x1="2.8346456e-08"
       y1="2.2677165e-07"
       x2="64"
       y2="64"
       gradientUnits="userSpaceOnUse"
       gradientTransform="scale(0.26458333)" />
    <linearGradient
       inkscape:collect="always"
       id="linearGradient37218">
      <stop
         style="stop-color:#ececec;stop-opacity:1"
         offset="0"
         id="stop37214" />
      <stop
         style="stop-color:#b6b6b6;stop-opacity:0.00392157"
         offset="0.49741825"
         id="stop37220" />
      <stop
         style="stop-color:#000000;stop-opacity:1"
         offset="1"
         id="stop37216" />
    </linearGradient>
    <linearGradient
       inkscape:collect="always"
       xlink:href="#linearGradient980"
       id="linearGradient982"
       x1="8.0018024"
       y1="46.800026"
       x2="56.001953"
       y2="26.800026"
       gradientUnits="userSpaceOnUse" />
    <linearGradient
       inkscape:collect="always"
       xlink:href="#linearGradient1594"
       id="linearGradient1596"
       x1="5.9027367"
       y1="6.6528401"
       x2="6.2901239"
       y2="1.3611735"
       gradientUnits="userSpaceOnUse" />
    <linearGradient
       inkscape:collect="always"
       xlink:href="#linearGradient1730"
       id="linearGradient1732"
       x1="3.1749997"
       y1="8.7442722"
       x2="3.175575"
       y2="15.094272"
       gradientUnits="userSpaceOnUse" />
    <linearGradient
       inkscape:collect="always"
       xlink:href="#linearGradient2174"
       id="linearGradient2176"
       x1="10.583333"
       y1="16.933334"
       x2="10.583333"
       y2="6.7529299e-07"
       gradientUnits="userSpaceOnUse" />
  </defs>
  <path
     id="rect863"
     style="fill:url(#linearGradient2176);stroke-width:0.264583;fill-opacity:1"
     d="M 3.1750003,1.0583333 H 13.758333 c 1.172634,0 2.116667,0.944034 2.116667,2.116667 V 13.758333 c 0,1.172634 -0.944033,2.116667 -2.116667,2.116667 H 3.1750003 c -1.172633,0 -2.116667,-0.944033 -2.116667,-2.116667 V 3.1750003 c 0,-1.172633 0.944034,-2.116667 2.116667,-2.116667 z" />
  <path
     id="rect1345"
     style="opacity:0.3;fill:url(#linearGradient1781);fill-opacity:1;stroke-width:0.264583"
     d="m 3.1750003,1.0583333 c -1.172633,0 -2.116667,0.944034 -2.116667,2.116667 V 13.758333 c 0,1.172634 0.944034,2.116667 2.116667,2.116667 H 13.758334 c 1.172633,0 2.116666,-0.944033 2.116666,-2.116667 V 3.1750003 c 0,-1.172633 -0.944033,-2.116667 -2.116666,-2.116667 z m 0,0.264584 H 13.758334 c 1.026054,0 1.852083,0.826029 1.852083,1.852083 V 13.758333 c 0,1.026054 -0.826029,1.852084 -1.852083,1.852084 H 3.1750003 c -1.026054,0 -1.852083,-0.82603 -1.852083,-1.852084 V 3.1750003 c 0,-1.026054 0.826029,-1.852083 1.852083,-1.852083 z" />
  <path
     id="path8"
     style="fill:url(#linearGradient1596);fill-opacity:1;fill-rule:evenodd;stroke-width:1.00006"
     d="m 9.6144576,2.9104166 -5.29e-4,0.00156 C 10.095327,4.7293378 7.9171883,5.276232 7.1319092,6.407371 6.5963359,7.179529 7.3954299,8.008416 8.4816977,8.947784 8.0583704,8.029903 6.6198769,7.22472 8.4816977,5.814125 10.806596,4.0548258 9.6144446,2.9104275 9.6144446,2.9104275 Z m 1.4381554,2.2458577 c 0,0 -3.930703,0.9407847 -2.0541386,3.0142867 l 0.00156,0.0052 C 9.5541806,8.785784 8.8512063,9.33693 8.8512063,9.33693 c 0,0 1.4073487,-0.697882 0.7642943,-1.567863 C 9.0084386,6.955388 8.5473371,6.553725 11.052624,5.1562737 Z" />
  <path
     id="path10"
     style="fill:url(#linearGradient1732);fill-opacity:1;fill-rule:evenodd;stroke-width:1.00006"
     d="m 11.748694,8.863025 c -0.13823,2.26e-4 -0.284961,0.02376 -0.435632,0.07441 -0.120642,0.04107 -0.181901,0.135392 -0.181901,0.135392 0,0 0.07631,-0.02834 0.246497,-0.06304 0.694314,-0.138865 1.689499,0.891591 -0.463538,1.964738 l -0.001,-5.29e-4 c -0.01016,0.02668 -0.04341,0.05478 -0.04341,0.05478 2.561177,-0.645053 2.004609,-2.167596 0.879016,-2.16576 z M 7.089547,8.967928 c -0.2291726,8e-5 -0.9159722,0.0354 -1.725993,0.410311 -1.1754958,0.545677 2.917109,0.795202 5.033802,0.260966 0.219704,-0.143928 0.525549,-0.269751 0.525549,-0.269751 0,0 -0.8663,0.14917 -1.7311609,0.218591 -1.058346,0.08423 -2.1899052,0.100721 -2.7605548,0.02791 -1.3367824,-0.17214 0.7002203,-0.638803 0.7338052,-0.646472 -0.00558,-3.17e-4 -0.028433,-0.0016 -0.075448,-0.0016 z m 0.075448,0.0016 c 6.879e-4,4.1e-5 0.0062,0 0.0062,0 l -5.291e-4,-0.0016 c 0,0 -0.00541,0.0015 -0.00568,0.0016 z m 0.2464967,1.903243 c -0.1856883,6.6e-5 -0.7425571,0.02902 -1.3988812,0.332796 -0.9526259,0.442128 2.3637512,0.644228 4.0788215,0.211357 0.178022,-0.116635 0.425814,-0.218602 0.425814,-0.218602 0,0 -0.7022554,0.120999 -1.4030159,0.17725 -0.8574206,0.06824 -1.77367,0.08174 -2.2360392,0.02274 -1.0810584,-0.139204 0.559108,-0.516314 0.5927286,-0.523999 -0.00551,-3.17e-4 -0.022582,-0.0016 -0.059428,-0.0016 z m 0.059428,0.0016 c 8.996e-4,5.1e-5 0.0062,0 0.0062,0 l -5.291e-4,-0.0016 c 0,0 -0.00534,0.0015 -0.00568,0.0016 z m -1.6939535,1.344104 c -0.7762124,-0.0018 -2.4122488,0.704574 -0.9684163,0.927592 4.5820907,0.712886 8.3521411,-0.320895 7.1633881,-0.833541 l -5.3e-4,5.29e-4 c 0,0 0.326167,0.256216 -0.357084,0.454753 -1.297902,0.375496 -5.3994684,0.489175 -6.5386193,0.01292 -0.4085148,-0.170181 0.3591751,-0.405089 0.6004801,-0.456303 0.2531573,-0.05292 0.3953248,-0.04289 0.3953248,-0.04289 -0.063698,-0.04346 -0.1675392,-0.06275 -0.2945558,-0.06305 z m 6.9236088,0.656807 c 0,0 -0.145852,0.353871 -1.71049,0.636654 -1.7644444,0.317503 -3.9405627,0.281229 -5.2317222,0.07803 0,0 0.2643958,0.208244 1.6236736,0.292489 2.0670902,0.127425 5.2423066,-0.07119 5.3185386,-1.007174 z" />
  <path
     id="path8-3"
     style="opacity:0.3;fill:url(#linearGradient982);fill-opacity:1;fill-rule:evenodd;stroke-width:3.77975"
     d="M 36.337891 12 L 36.335938 12.005859 C 36.465202 12.493853 36.542887 12.956403 36.576172 13.398438 C 36.606189 13.037923 36.601625 12.660418 36.564453 12.267578 C 36.432979 12.097731 36.337891 12 36.337891 12 z M 37.464844 14.564453 C 37.282846 16.436029 36.032039 18.966342 32.056641 21.974609 C 29.13361 24.189222 28.363614 26.009406 28.576172 27.628906 C 28.759021 26.263638 29.719649 24.745214 32.056641 22.974609 C 36.791781 19.39143 37.664691 16.484711 37.464844 14.564453 z M 41.773438 20.488281 C 41.773438 20.488281 40.040425 20.903411 38.041016 21.761719 C 35.048607 23.812145 34.307461 25.172191 34.589844 26.457031 C 34.928152 24.990619 36.81139 23.256116 41.773438 20.488281 z M 26.349609 26.685547 C 25.963917 29.184601 28.630873 31.85587 32.056641 34.818359 C 31.695975 34.036346 31.13994 33.275674 30.576172 32.505859 C 28.316147 30.439477 26.623959 28.514098 26.349609 26.685547 z M 32.125 27.318359 C 31.950722 28.636927 32.447456 30.154592 34.009766 31.880859 L 34.015625 31.900391 C 34.443024 32.370884 34.670991 32.831428 34.765625 33.267578 C 34.914188 32.571069 34.78816 31.75082 34.015625 30.900391 L 34.009766 30.880859 C 32.828614 29.575751 32.258697 28.389354 32.125 27.318359 z M 36.925781 31.615234 C 36.682864 32.844705 35.596941 33.861439 34.701172 34.511719 C 34.368443 35.570599 33.453125 36.289062 33.453125 36.289062 C 33.453125 36.289062 37.471697 34.296294 36.925781 31.615234 z M 44.404297 34.498047 C 43.881853 34.498901 43.327278 34.587864 42.757812 34.779297 C 42.301843 34.934522 42.070313 35.291016 42.070312 35.291016 C 42.070312 35.291016 42.358727 35.183884 43.001953 35.052734 C 44.282203 34.79668 45.832782 35.59202 46.140625 36.945312 C 46.356618 35.919729 45.905229 35.081694 45.199219 34.566406 C 44.94478 34.521152 44.679314 34.497598 44.404297 34.498047 z M 26.794922 34.894531 C 26.164721 34.894751 24.617186 34.968455 22.642578 35.552734 C 22.502711 35.765821 22.635748 35.96708 23.208984 36.134766 C 24.42195 35.510886 27.00693 34.917094 27.080078 34.900391 C 27.058988 34.899193 26.972614 34.894532 26.794922 34.894531 z M 27.080078 34.900391 C 27.082678 34.900546 27.103516 34.900391 27.103516 34.900391 L 27.101562 34.894531 C 27.101562 34.894531 27.081099 34.900013 27.080078 34.900391 z M 41.283203 36.412109 C 41.283203 36.412109 38.009002 36.975902 34.740234 37.238281 C 34.386599 37.266426 34.030133 37.290367 33.673828 37.314453 C 27.967967 37.822675 21.647266 37.476539 19.933594 36.623047 C 16.728489 38.56005 31.530734 39.39175 39.296875 37.431641 C 40.127252 36.88766 41.283203 36.412109 41.283203 36.412109 z M 47.929688 36.947266 C 47.697389 38.171109 46.604424 39.512528 44.251953 40.597656 C 43.510601 41.209811 42.527128 41.841951 41.25 42.478516 L 41.246094 42.476562 C 41.207694 42.5774 41.082031 42.683594 41.082031 42.683594 C 46.616308 41.289742 48.298529 38.812767 47.929688 36.947266 z M 28.011719 42.09375 C 27.498749 42.093935 26.233954 42.153004 24.623047 42.632812 C 24.684441 42.760249 24.915005 42.878022 25.375 42.976562 C 26.420194 42.520987 28.169281 42.114935 28.236328 42.099609 C 28.215503 42.098411 28.150979 42.09375 28.011719 42.09375 z M 28.236328 42.099609 C 28.239728 42.099802 28.259766 42.099609 28.259766 42.099609 L 28.257812 42.09375 C 28.257812 42.09375 28.237613 42.099231 28.236328 42.099609 z M 39.75 43.324219 C 39.75 43.324219 37.09581 43.781538 34.447266 43.994141 C 31.206621 44.252056 27.743631 44.30307 25.996094 44.080078 C 25.490432 44.014966 25.143492 43.935961 24.921875 43.847656 C 23.933899 43.735101 23.140933 43.581125 22.648438 43.390625 C 19.31941 45.034994 31.7081 45.773913 38.140625 44.150391 C 38.813464 43.709565 39.75 43.324219 39.75 43.324219 z M 21.833984 47.179688 C 20.969793 47.177683 19.824906 47.408469 18.777344 47.755859 C 18.679077 47.944282 18.772052 48.133245 19.183594 48.304688 C 19.213352 48.317129 19.246522 48.327615 19.277344 48.339844 C 19.919331 47.984058 20.966692 47.683317 21.453125 47.580078 C 22.40994 47.380066 22.947266 47.417969 22.947266 47.417969 C 22.706517 47.25371 22.314048 47.180821 21.833984 47.179688 z M 45.248047 47.535156 L 45.246094 47.537109 C 45.246094 47.537109 45.267277 47.553028 45.296875 47.582031 C 45.302728 47.576378 45.308848 47.572046 45.314453 47.566406 C 45.291812 47.556086 45.271727 47.545368 45.248047 47.535156 z M 45.814453 47.869141 C 45.737303 47.946004 45.646198 48.02251 45.537109 48.099609 C 45.532721 48.437812 45.208574 48.874596 43.896484 49.255859 C 42.36698 49.69836 39.808147 50.043351 36.878906 50.255859 C 36.872297 50.256339 36.865988 50.257334 36.859375 50.257812 C 31.86923 50.783346 25.281143 50.79131 18.173828 49.685547 C 17.188746 49.533389 16.585516 49.320901 16.271484 49.076172 C 15.669998 49.712977 15.979883 50.346665 18.173828 50.685547 C 34.548612 53.233151 48.176009 49.880003 45.814453 47.869141 z M 48.001953 49.662109 C 48.001953 49.662109 47.450706 50.999573 41.537109 52.068359 C 34.868345 53.268371 26.643645 53.131281 21.763672 52.363281 C 21.763672 52.363281 22.762962 53.150344 27.900391 53.46875 C 35.713015 53.950356 47.713832 53.199683 48.001953 49.662109 z "
     transform="scale(0.26458333)" />
</svg>
