<?xml version="1.0" encoding="UTF-8" standalone="no"?>
<!-- Created with Inkscape (http://www.inkscape.org/) -->

<svg
   width="64"
   height="64"
   viewBox="0 0 16.933333 16.933333"
   version="1.1"
   id="svg5"
   inkscape:version="1.1.1 (3bf5ae0d25, 2021-09-20, custom)"
   sodipodi:docname="kmag.svg"
   xmlns:inkscape="http://www.inkscape.org/namespaces/inkscape"
   xmlns:sodipodi="http://sodipodi.sourceforge.net/DTD/sodipodi-0.dtd"
   xmlns:xlink="http://www.w3.org/1999/xlink"
   xmlns="http://www.w3.org/2000/svg"
   xmlns:svg="http://www.w3.org/2000/svg">
  <sodipodi:namedview
     id="namedview7"
     pagecolor="#ffffff"
     bordercolor="#666666"
     borderopacity="1.0"
     inkscape:pageshadow="2"
     inkscape:pageopacity="0.0"
     inkscape:pagecheckerboard="0"
     inkscape:document-units="px"
     showgrid="false"
     units="px"
     height="48px"
     inkscape:zoom="7.9999996"
     inkscape:cx="21.687501"
     inkscape:cy="36.062502"
     inkscape:window-width="1920"
     inkscape:window-height="1005"
     inkscape:window-x="0"
     inkscape:window-y="0"
     inkscape:window-maximized="1"
     inkscape:current-layer="svg5"
     inkscape:lockguides="true"
     showguides="false" />
  <defs
     id="defs2">
    <linearGradient
       inkscape:collect="always"
       id="linearGradient6859">
      <stop
         style="stop-color:#a0e5fe;stop-opacity:1"
         offset="0"
         id="stop6855" />
      <stop
         style="stop-color:#0292f3;stop-opacity:1"
         offset="1"
         id="stop6857" />
    </linearGradient>
    <linearGradient
       inkscape:collect="always"
       id="linearGradient5772">
      <stop
         style="stop-color:#d6d6d6;stop-opacity:1"
         offset="0"
         id="stop5768" />
      <stop
         style="stop-color:#ffffff;stop-opacity:1"
         offset="1"
         id="stop5770" />
    </linearGradient>
    <linearGradient
       inkscape:collect="always"
       id="linearGradient5328">
      <stop
         style="stop-color:#000000;stop-opacity:1;"
         offset="0"
         id="stop5324" />
      <stop
         style="stop-color:#000000;stop-opacity:0;"
         offset="1"
         id="stop5326" />
    </linearGradient>
    <linearGradient
       inkscape:collect="always"
       id="linearGradient4742">
      <stop
         style="stop-color:#cccccc;stop-opacity:1"
         offset="0"
         id="stop4738" />
      <stop
         style="stop-color:#a8a8a8;stop-opacity:1"
         offset="0.5"
         id="stop4810" />
      <stop
         style="stop-color:#cccccc;stop-opacity:0.99607843"
         offset="1"
         id="stop4740" />
    </linearGradient>
    <linearGradient
       inkscape:collect="always"
       id="linearGradient2948">
      <stop
         style="stop-color:#ffffff;stop-opacity:1"
         offset="0"
         id="stop2944" />
      <stop
         style="stop-color:#e5e5e5;stop-opacity:1"
         offset="0.5"
         id="stop3080" />
      <stop
         style="stop-color:#ffffff;stop-opacity:1"
         offset="1"
         id="stop2946" />
    </linearGradient>
    <linearGradient
       inkscape:collect="always"
       xlink:href="#linearGradient37218"
       id="linearGradient1781"
       x1="2.8346456e-08"
       y1="2.2677165e-07"
       x2="64"
       y2="64"
       gradientUnits="userSpaceOnUse"
       gradientTransform="scale(0.26458333)" />
    <linearGradient
       inkscape:collect="always"
       id="linearGradient37218">
      <stop
         style="stop-color:#ffffff;stop-opacity:1"
         offset="0"
         id="stop37214" />
      <stop
         style="stop-color:#fefefe;stop-opacity:0.00392157"
         offset="0.49741825"
         id="stop37220" />
      <stop
         style="stop-color:#808080;stop-opacity:1"
         offset="1"
         id="stop37216" />
    </linearGradient>
    <linearGradient
       inkscape:collect="always"
       xlink:href="#linearGradient2948"
       id="linearGradient2950"
       x1="-0.71274608"
       y1="15.302519"
       x2="0.6998927"
       y2="15.312511"
       gradientUnits="userSpaceOnUse" />
    <linearGradient
       inkscape:collect="always"
       xlink:href="#linearGradient4742"
       id="linearGradient4744"
       x1="11.623724"
       y1="12.285182"
       x2="12.946641"
       y2="12.285182"
       gradientUnits="userSpaceOnUse"
       gradientTransform="rotate(-45,12.285182,12.285182)" />
    <linearGradient
       inkscape:collect="always"
       xlink:href="#linearGradient5328"
       id="linearGradient5330"
       x1="10"
       y1="51.704166"
       x2="55.410023"
       y2="21.704166"
       gradientUnits="userSpaceOnUse" />
    <linearGradient
       inkscape:collect="always"
       xlink:href="#linearGradient5772"
       id="linearGradient5774"
       x1="8.4666662"
       y1="10.847917"
       x2="8.4666672"
       y2="3.4395831"
       gradientUnits="userSpaceOnUse" />
    <linearGradient
       inkscape:collect="always"
       xlink:href="#linearGradient6859"
       id="linearGradient6861"
       x1="11.641666"
       y1="-1.0583327"
       x2="11.641666"
       y2="16.933334"
       gradientUnits="userSpaceOnUse" />
  </defs>
  <path
     id="rect863"
     style="fill:url(#linearGradient6861);stroke-width:0.264583;fill-opacity:1"
     d="M 3.1750003,1.0583333 H 13.758333 c 1.172634,0 2.116667,0.944034 2.116667,2.116667 V 13.758333 c 0,1.172634 -0.944033,2.116667 -2.116667,2.116667 H 3.1750003 c -1.172633,0 -2.116667,-0.944033 -2.116667,-2.116667 V 3.1750003 c 0,-1.172633 0.944034,-2.116667 2.116667,-2.116667 z" />
  <path
     id="rect1345"
     style="opacity:0.3;fill:url(#linearGradient1781);fill-opacity:1;stroke-width:0.264583"
     d="m 3.1750003,1.0583333 c -1.172633,0 -2.116667,0.944034 -2.116667,2.116667 V 13.758333 c 0,1.172634 0.944034,2.116667 2.116667,2.116667 H 13.758334 c 1.172633,0 2.116666,-0.944033 2.116666,-2.116667 V 3.1750003 c 0,-1.172633 -0.944033,-2.116667 -2.116666,-2.116667 z m 0,0.264584 H 13.758334 c 1.026054,0 1.852083,0.826029 1.852083,1.852083 V 13.758333 c 0,1.026054 -0.826029,1.852084 -1.852083,1.852084 H 3.1750003 c -1.026054,0 -1.852083,-0.82603 -1.852083,-1.852084 V 3.1750003 c 0,-1.026054 0.826029,-1.852083 1.852083,-1.852083 z" />
  <rect
     style="fill:url(#linearGradient2950);fill-opacity:1;stroke-width:2.98198;stroke-linecap:round;stroke-linejoin:round"
     id="rect2292-3"
     width="0.79374999"
     height="6.0854163"
     x="-0.39687496"
     y="12.26485"
     transform="rotate(-45)" />
  <path
     id="path849"
     style="fill:url(#linearGradient5774);stroke-width:2.06375;stroke-linecap:round;stroke-linejoin:round;fill-opacity:1"
     d="M 6.6145832,3.1749999 C 4.7149538,3.1749999 3.175,4.7149537 3.175,6.6145832 c 0,1.8996297 1.5399538,3.4395828 3.4395832,3.4395828 1.8996297,0 3.4395838,-1.5399531 3.4395838,-3.4395828 0,-1.8996295 -1.5399541,-3.4395833 -3.4395838,-3.4395833 z m 0,0.79375 A 2.6458333,2.6458333 0 0 1 9.2604166,6.6145832 2.6458333,2.6458333 0 0 1 6.6145832,9.2604166 2.6458333,2.6458333 0 0 1 3.9687499,6.6145832 2.6458333,2.6458333 0 0 1 6.6145832,3.9687499 Z" />
  <path
     id="rect4198"
     style="opacity:1;fill:url(#linearGradient4744);fill-opacity:1;stroke-width:2.01252;stroke-linecap:round;stroke-linejoin:round"
     d="m 11.16265,11.16265 c 0.259118,-0.259118 0.676326,-0.259117 0.935444,0 l 1.309621,1.309621 c 0.259117,0.259118 0.259117,0.676326 -10e-7,0.935443 -0.259117,0.259118 -0.676325,0.259118 -0.935443,0 l -1.30962,-1.30962 c -0.259118,-0.259118 -0.259118,-0.676327 -1e-6,-0.935444 z" />
  <path
     id="rect2292-3-7"
     style="opacity:0.3;fill:url(#linearGradient5330);fill-opacity:1;stroke-width:11.2705;stroke-linecap:round;stroke-linejoin:round"
     d="M 25 15 A 10 10 0 0 0 15 25 A 10 10 0 0 0 15.025391 25.5 A 10 10 0 0 1 25 16 A 10 10 0 0 1 34.980469 25.382812 A 10 10 0 0 0 35 25 A 10 10 0 0 0 25 15 z M 12.009766 25.5 C 12.003492 25.665747 12 25.832723 12 26 C 12 33.179702 17.820298 39 25 39 C 28.049502 39 30.85506 37.9496 33.072266 36.191406 L 41.482422 44.601562 C 41.374743 45.353054 41.610924 46.144112 42.191406 46.724609 L 47.140625 51.673828 C 48.119969 52.653172 49.696441 52.653172 50.675781 51.673828 C 51.293991 51.055622 51.521657 50.199939 51.359375 49.40625 C 51.264584 49.869892 51.036904 50.312698 50.675781 50.673828 C 49.696441 51.653172 48.119969 51.653172 47.140625 50.673828 L 42.191406 45.724609 C 41.610924 45.144112 41.374743 44.35305 41.482422 43.601562 L 33.072266 35.191406 C 30.85506 36.949596 28.049502 38 25 38 C 17.987577 38 12.272294 32.448185 12.009766 25.5 z M 18.134766 25.5 C 18.049794 25.647138 18 25.817204 18 26 C 18 26.554 18.446 27 19 27 L 24 27 L 24 26 L 19 26 C 18.628796 26 18.307317 25.798793 18.134766 25.5 z M 31.865234 25.5 C 31.692683 25.798793 31.371204 26 31 26 L 26 26 L 26 27 L 31 27 C 31.554 27 32 26.554 32 26 C 32 25.817204 31.950206 25.647138 31.865234 25.5 z M 37.990234 25.505859 C 37.881082 28.358902 36.853754 30.976441 35.193359 33.070312 L 35.619141 33.496094 C 37.117378 31.377464 38 28.79247 38 26 C 38 25.834687 37.99641 25.669677 37.990234 25.505859 z M 24 31 L 24 32 C 24 32.554 24.446 33 25 33 C 25.554 33 26 32.554 26 32 L 26 31 C 26 31.553999 25.554 32 25 32 C 24.446 32 24 31.553999 24 31 z "
     transform="scale(0.26458333)" />
  <path
     id="rect960"
     style="fill:#ffffff;stroke-width:0.500001;stroke-linejoin:round"
     d="M 25 18 C 24.446 18 24 18.446 24 19 L 24 24 L 19 24 C 18.446 24 18 24.446 18 25 C 18 25.554 18.446 26 19 26 L 24 26 L 24 31 C 24 31.554 24.446 32 25 32 C 25.554 32 26 31.554 26 31 L 26 26 L 31 26 C 31.554 26 32 25.554 32 25 C 32 24.446 31.554 24 31 24 L 26 24 L 26 19 C 26 18.446 25.554 18 25 18 z "
     transform="scale(0.26458333)" />
</svg>
