<?xml version="1.0" encoding="UTF-8" standalone="no"?>
<!-- Created with Inkscape (http://www.inkscape.org/) -->

<svg
   width="64"
   height="64"
   viewBox="0 0 16.933333 16.933333"
   version="1.1"
   id="svg5"
   inkscape:version="1.1.1 (3bf5ae0d25, 2021-09-20, custom)"
   sodipodi:docname="konqueror.svg"
   xmlns:inkscape="http://www.inkscape.org/namespaces/inkscape"
   xmlns:sodipodi="http://sodipodi.sourceforge.net/DTD/sodipodi-0.dtd"
   xmlns:xlink="http://www.w3.org/1999/xlink"
   xmlns="http://www.w3.org/2000/svg"
   xmlns:svg="http://www.w3.org/2000/svg">
  <sodipodi:namedview
     id="namedview7"
     pagecolor="#ffffff"
     bordercolor="#666666"
     borderopacity="1.0"
     inkscape:pageshadow="2"
     inkscape:pageopacity="0.0"
     inkscape:pagecheckerboard="0"
     inkscape:document-units="px"
     showgrid="false"
     units="px"
     height="48px"
     inkscape:zoom="7.9999996"
     inkscape:cx="18.000001"
     inkscape:cy="46.562502"
     inkscape:window-width="1512"
     inkscape:window-height="937"
     inkscape:window-x="45"
     inkscape:window-y="29"
     inkscape:window-maximized="0"
     inkscape:current-layer="svg5"
     inkscape:lockguides="true" />
  <defs
     id="defs2">
    <linearGradient
       inkscape:collect="always"
       xlink:href="#linearGradient37218"
       id="linearGradient1781"
       x1="2.8346456e-08"
       y1="2.2677165e-07"
       x2="64"
       y2="64"
       gradientUnits="userSpaceOnUse"
       gradientTransform="scale(0.26458333)" />
    <linearGradient
       inkscape:collect="always"
       id="linearGradient37218">
      <stop
         style="stop-color:#ffffff;stop-opacity:1"
         offset="0"
         id="stop37214" />
      <stop
         style="stop-color:#c8c8c8;stop-opacity:0.00392157"
         offset="0.49741825"
         id="stop37220" />
      <stop
         style="stop-color:#000000;stop-opacity:1"
         offset="1"
         id="stop37216" />
    </linearGradient>
    <linearGradient
       inkscape:collect="always"
       xlink:href="#linearGradient5068"
       id="linearGradient1165"
       x1="15.875"
       y1="12.170833"
       x2="2.1166666"
       y2="3.7041662"
       gradientUnits="userSpaceOnUse"
       gradientTransform="scale(3.7795276)" />
    <linearGradient
       inkscape:collect="always"
       id="linearGradient5068">
      <stop
         style="stop-color:#b0b8b8;stop-opacity:1"
         offset="0"
         id="stop5064" />
      <stop
         style="stop-color:#eff1f1;stop-opacity:1"
         offset="1"
         id="stop5066" />
    </linearGradient>
    <linearGradient
       inkscape:collect="always"
       xlink:href="#linearGradient5068"
       id="linearGradient3700"
       x1="0.79375041"
       y1="10.054166"
       x2="13.493751"
       y2="13.229166"
       gradientUnits="userSpaceOnUse" />
    <linearGradient
       inkscape:collect="always"
       xlink:href="#linearGradient5601"
       id="linearGradient5603"
       x1="7.3706098"
       y1="6.5926204"
       x2="13.752131"
       y2="13.471787"
       gradientUnits="userSpaceOnUse" />
    <linearGradient
       inkscape:collect="always"
       id="linearGradient5601">
      <stop
         style="stop-color:#000000;stop-opacity:1;"
         offset="0"
         id="stop5597" />
      <stop
         style="stop-color:#000000;stop-opacity:0;"
         offset="1"
         id="stop5599" />
    </linearGradient>
    <linearGradient
       inkscape:collect="always"
       xlink:href="#linearGradient1889"
       id="linearGradient1891"
       x1="11.391542"
       y1="11.273091"
       x2="5.13167"
       y2="5.3675737"
       gradientUnits="userSpaceOnUse"
       gradientTransform="matrix(1.2282166,0,0,1.2017673,-1.6803753,-1.5324385)" />
    <linearGradient
       inkscape:collect="always"
       id="linearGradient1889">
      <stop
         style="stop-color:#197cf2;stop-opacity:1"
         offset="0"
         id="stop1885" />
      <stop
         style="stop-color:#20bcfa;stop-opacity:1"
         offset="1"
         id="stop1887" />
    </linearGradient>
    <linearGradient
       inkscape:collect="always"
       xlink:href="#linearGradient1769"
       id="linearGradient1740"
       gradientUnits="userSpaceOnUse"
       gradientTransform="matrix(1.2282165,0,0,1.2017673,-1.6803757,-1.5324388)"
       x1="5.6131983"
       y1="4.8754478"
       x2="11.873072"
       y2="10.780965" />
    <linearGradient
       inkscape:collect="always"
       id="linearGradient1769">
      <stop
         style="stop-color:#abf9c7;stop-opacity:1"
         offset="0"
         id="stop1765" />
      <stop
         style="stop-color:#54d883;stop-opacity:1"
         offset="1"
         id="stop1767" />
    </linearGradient>
  </defs>
  <path
     id="path1039"
     style="fill:url(#linearGradient1165);fill-opacity:1;stroke-width:2;stroke-linecap:round;stroke-linejoin:round"
     d="m 12,4 c -4.4319988,0 -8,3.5680012 -8,8 0,13.333333 0,26.666667 0,40 0,4.432003 3.5680012,8 8,8 0,0 26.666667,0 40,0 4.432003,0 8,-3.567997 8,-8 C 60,38.666667 60,25.333333 60,12 60,7.5680012 56.432003,4 52,4 38.666667,4 25.333333,4 12,4 Z"
     transform="scale(0.26458333)"
     sodipodi:nodetypes="ccccccccc" />
  <path
     id="rect1345"
     style="opacity:0.3;fill:url(#linearGradient1781);fill-opacity:1;stroke-width:0.264583"
     d="m 3.1750003,1.0583333 c -1.172633,0 -2.116667,0.944034 -2.116667,2.116667 V 13.758333 c 0,1.172634 0.944034,2.116667 2.116667,2.116667 H 13.758334 c 1.172633,0 2.116666,-0.944033 2.116666,-2.116667 V 3.1750003 c 0,-1.172633 -0.944033,-2.116667 -2.116666,-2.116667 z m 0,0.264584 H 13.758334 c 1.026054,0 1.852083,0.826029 1.852083,1.852083 V 13.758333 c 0,1.026054 -0.826029,1.852084 -1.852083,1.852084 H 3.1750003 c -1.026054,0 -1.852083,-0.82603 -1.852083,-1.852084 V 3.1750003 c 0,-1.026054 0.826029,-1.852083 1.852083,-1.852083 z" />
  <circle
     style="fill:url(#linearGradient3700);fill-opacity:1;stroke-width:0.513824;stroke-linecap:round;stroke-linejoin:round"
     id="path3612"
     cx="8.4666672"
     cy="8.4666672"
     r="5.5562501" />
  <path
     id="rect5300"
     style="opacity:0.2;fill:url(#linearGradient5603);fill-opacity:1;stroke-width:0.515768;stroke-linecap:round;stroke-linejoin:round"
     d="M 11.83442,4.7247763 4.7247765,11.83442 8.7591555,15.868798 A 7.4083332,7.4083332 0 0 0 13.705106,13.705106 7.4083332,7.4083332 0 0 0 15.868798,8.7596721 Z" />
  <circle
     style="fill:url(#linearGradient1891);fill-opacity:1;stroke-width:0.642896;stroke-linecap:round;stroke-linejoin:round"
     id="path1773"
     cx="8.4666672"
     cy="8.4666672"
     r="5.0270824" />
  <path
     id="path1773-7"
     style="fill:url(#linearGradient1740);fill-opacity:1;stroke-width:0.642896;stroke-linecap:round;stroke-linejoin:round"
     d="m 8.4666661,3.4395833 a 5.0270823,5.0270825 0 0 0 -0.958172,0.095298 L 7.4911671,3.5562503 7.0308516,4.4768809 6.336047,3.955922 6.2730929,3.943793 A 5.0270823,5.0270825 0 0 0 3.676383,6.9465277 v 0.014439 L 4.6963543,6.552632 5.474905,7.0712808 5.7342298,6.2933075 9.1060249,4.4774588 8.9021462,3.4586427 A 5.0270823,5.0270825 0 0 0 8.4666661,3.4395833 Z m 3.6888749,1.6125476 -0.210232,0.6306958 0.210232,0.2599019 -0.988206,1.5559465 0.518649,1.8158491 1.692829,0.2119642 A 5.0270823,5.0270825 0 0 0 13.493747,8.4666658 5.0270823,5.0270825 0 0 0 12.895973,6.0888511 l -0.007,-0.00462 -0.425048,-0.1414992 0.154786,-0.3101498 A 5.0270823,5.0270825 0 0 0 12.156118,5.0521309 Z m -8.6171947,2.5377987 -0.020792,0.010974 a 5.0270823,5.0270825 0 0 0 -0.077971,0.8657623 5.0270823,5.0270825 0 0 0 0,0.00115 L 5.251967,9.146454 4.992065,8.3684807 4.4728386,7.5899296 Z M 5.251967,9.146454 6.5485892,12.259502 v 0.851324 a 5.0270823,5.0270825 0 0 0 1.9180769,0.382922 5.0270823,5.0270825 0 0 0 0.5128732,-0.02946 L 10.43961,10.962303 6.2892649,8.6283826 Z" />
  <path
     id="path2833"
     style="opacity:0.2;fill:#172525;fill-opacity:1;stroke:none;stroke-width:0.558565;stroke-linecap:round;stroke-linejoin:round;stroke-opacity:1"
     d="M 13.490649,8.2925172 A 5.0270833,5.0270835 0 0 1 8.466667,13.229167 5.0270833,5.0270835 0 0 1 3.4447513,8.3343751 5.0270833,5.0270835 0 0 0 3.4395837,8.4666668 5.0270833,5.0270835 0 0 0 8.466667,13.49375 5.0270833,5.0270835 0 0 0 13.49375,8.4666668 5.0270833,5.0270835 0 0 0 13.490649,8.2925172 Z" />
</svg>
