<?xml version="1.0" encoding="UTF-8" standalone="no"?>
<!-- Created with Inkscape (http://www.inkscape.org/) -->

<svg
   width="64"
   height="64"
   viewBox="0 0 16.933333 16.933333"
   version="1.1"
   id="svg5"
   inkscape:version="1.1.1 (3bf5ae0d25, 2021-09-20, custom)"
   sodipodi:docname="kopete.svg"
   xmlns:inkscape="http://www.inkscape.org/namespaces/inkscape"
   xmlns:sodipodi="http://sodipodi.sourceforge.net/DTD/sodipodi-0.dtd"
   xmlns:xlink="http://www.w3.org/1999/xlink"
   xmlns="http://www.w3.org/2000/svg"
   xmlns:svg="http://www.w3.org/2000/svg">
  <sodipodi:namedview
     id="namedview7"
     pagecolor="#ffffff"
     bordercolor="#666666"
     borderopacity="1.0"
     inkscape:pageshadow="2"
     inkscape:pageopacity="0.0"
     inkscape:pagecheckerboard="0"
     inkscape:document-units="px"
     showgrid="false"
     units="px"
     height="48px"
     inkscape:zoom="7.9999996"
     inkscape:cx="10.000001"
     inkscape:cy="22.187501"
     inkscape:window-width="1920"
     inkscape:window-height="1011"
     inkscape:window-x="0"
     inkscape:window-y="0"
     inkscape:window-maximized="1"
     inkscape:current-layer="svg5"
     inkscape:lockguides="true" />
  <defs
     id="defs2">
    <linearGradient
       inkscape:collect="always"
       id="linearGradient1261">
      <stop
         style="stop-color:#1d99f3;stop-opacity:1;"
         offset="0"
         id="stop1257" />
      <stop
         style="stop-color:#2bc0ff;stop-opacity:1"
         offset="1"
         id="stop1259" />
    </linearGradient>
    <linearGradient
       inkscape:collect="always"
       xlink:href="#linearGradient37218"
       id="linearGradient1781"
       x1="2.8346456e-08"
       y1="2.2677165e-07"
       x2="64"
       y2="64"
       gradientUnits="userSpaceOnUse"
       gradientTransform="scale(0.26458333)" />
    <linearGradient
       inkscape:collect="always"
       id="linearGradient37218">
      <stop
         style="stop-color:#ffffff;stop-opacity:1"
         offset="0"
         id="stop37214" />
      <stop
         style="stop-color:#717171;stop-opacity:0.00392157"
         offset="0.49741825"
         id="stop37220" />
      <stop
         style="stop-color:#000000;stop-opacity:1"
         offset="1"
         id="stop37216" />
    </linearGradient>
    <linearGradient
       inkscape:collect="always"
       xlink:href="#linearGradient1261"
       id="linearGradient1263"
       x1="10.583333"
       y1="16.933334"
       x2="10.583333"
       y2="6.3308715e-07"
       gradientUnits="userSpaceOnUse" />
    <linearGradient
       inkscape:collect="always"
       xlink:href="#linearGradient9333"
       id="linearGradient9335"
       x1="8.9153872"
       y1="6.8317075"
       x2="8.9153862"
       y2="24.294205"
       gradientUnits="userSpaceOnUse"
       gradientTransform="translate(-0.52916661)" />
    <linearGradient
       inkscape:collect="always"
       id="linearGradient9333">
      <stop
         style="stop-color:#ffffff;stop-opacity:1;"
         offset="0"
         id="stop9329" />
      <stop
         style="stop-color:#ffffff;stop-opacity:0;"
         offset="1"
         id="stop9331" />
    </linearGradient>
    <linearGradient
       inkscape:collect="always"
       xlink:href="#linearGradient8941"
       id="linearGradient8943"
       x1="16"
       y1="53.167645"
       x2="48"
       y2="19.167645"
       gradientUnits="userSpaceOnUse"
       gradientTransform="matrix(0.26458333,0,0,0.26458333,-0.52916661,0.26458358)" />
    <linearGradient
       inkscape:collect="always"
       id="linearGradient8941">
      <stop
         style="stop-color:#000000;stop-opacity:1;"
         offset="0"
         id="stop8937" />
      <stop
         style="stop-color:#000000;stop-opacity:0;"
         offset="1"
         id="stop8939" />
    </linearGradient>
  </defs>
  <path
     id="rect863"
     style="fill:url(#linearGradient1263);stroke-width:0.264583;fill-opacity:1"
     d="M 3.1750003,1.0583333 H 13.758333 c 1.172634,0 2.116667,0.944034 2.116667,2.116667 V 13.758333 c 0,1.172634 -0.944033,2.116667 -2.116667,2.116667 H 3.1750003 c -1.172633,0 -2.116667,-0.944033 -2.116667,-2.116667 V 3.1750003 c 0,-1.172633 0.944034,-2.116667 2.116667,-2.116667 z" />
  <path
     id="rect1345"
     style="opacity:0.3;fill:url(#linearGradient1781);fill-opacity:1;stroke-width:0.264583"
     d="m 3.1750003,1.0583333 c -1.172633,0 -2.116667,0.944034 -2.116667,2.116667 V 13.758333 c 0,1.172634 0.944034,2.116667 2.116667,2.116667 H 13.758334 c 1.172633,0 2.116666,-0.944033 2.116666,-2.116667 V 3.1750003 c 0,-1.172633 -0.944033,-2.116667 -2.116666,-2.116667 z m 0,0.264584 H 13.758334 c 1.026054,0 1.852083,0.826029 1.852083,1.852083 V 13.758333 c 0,1.026054 -0.826029,1.852084 -1.852083,1.852084 H 3.1750003 c -1.026054,0 -1.852083,-0.82603 -1.852083,-1.852084 V 3.1750003 c 0,-1.026054 0.826029,-1.852083 1.852083,-1.852083 z" />
  <path
     id="rect849"
     style="fill:url(#linearGradient9335);fill-opacity:1;stroke-width:0.259094"
     d="m 4.40955,4.4979166 c -0.3908777,0 -0.7053834,0.314506 -0.7053834,0.705384 v 4.9392334 c 0,0.390878 0.3145057,0.705384 0.7053834,0.705384 h 1.2349962 v 1.763199 c -2.91e-4,0.37353 0.5035487,0.49162 0.6686931,0.15658 l 1.4417725,-1.919779 h 4.7687712 c 0.390877,0 0.705383,-0.314506 0.705383,-0.705384 V 5.2033006 c 0,-0.390878 -0.314506,-0.705384 -0.705383,-0.705384 z"
     sodipodi:nodetypes="ssssccccsssss" />
  <path
     id="rect849-9"
     style="opacity:0.3;fill:url(#linearGradient8943);fill-opacity:1;stroke-width:0.259094"
     d="m 3.7041666,10.142534 v 0.264583 c 0,0.390879 0.3145057,0.705384 0.7053834,0.705384 H 5.6445462 V 10.847918 H 4.40955 c -0.3908777,0 -0.7053834,-0.314506 -0.7053834,-0.705384 z m 9.5249994,0 c 0,0.390878 -0.314505,0.705384 -0.705383,0.705384 H 7.7550118 l -1.4417725,1.919779 c -0.1651439,0.33504 -0.668973,0.21695 -0.6686931,-0.15658 v 0.264584 c -2.91e-4,0.37353 0.5035492,0.491619 0.6686931,0.156579 l 1.4417725,-1.919779 h 4.7687712 c 0.390878,0 0.705383,-0.314505 0.705383,-0.705384 z"
     sodipodi:nodetypes="cssccsccsccccccssc" />
</svg>
