<?xml version="1.0" encoding="UTF-8" standalone="no"?>
<!-- Created with Inkscape (http://www.inkscape.org/) -->

<svg
   width="64"
   height="64"
   viewBox="0 0 16.933333 16.933333"
   version="1.1"
   id="svg5"
   inkscape:version="1.1.1 (3bf5ae0d25, 2021-09-20, custom)"
   sodipodi:docname="ksudoku.svg"
   xmlns:inkscape="http://www.inkscape.org/namespaces/inkscape"
   xmlns:sodipodi="http://sodipodi.sourceforge.net/DTD/sodipodi-0.dtd"
   xmlns:xlink="http://www.w3.org/1999/xlink"
   xmlns="http://www.w3.org/2000/svg"
   xmlns:svg="http://www.w3.org/2000/svg">
  <sodipodi:namedview
     id="namedview7"
     pagecolor="#ffffff"
     bordercolor="#666666"
     borderopacity="1.0"
     inkscape:pageshadow="2"
     inkscape:pageopacity="0.0"
     inkscape:pagecheckerboard="0"
     inkscape:document-units="px"
     showgrid="false"
     units="px"
     height="48px"
     inkscape:zoom="7.9999996"
     inkscape:cx="4.5000002"
     inkscape:cy="30.062501"
     inkscape:window-width="1920"
     inkscape:window-height="1011"
     inkscape:window-x="0"
     inkscape:window-y="0"
     inkscape:window-maximized="1"
     inkscape:current-layer="svg5"
     inkscape:lockguides="true" />
  <defs
     id="defs2">
    <linearGradient
       inkscape:collect="always"
       id="linearGradient8247">
      <stop
         style="stop-color:#8fa6b8;stop-opacity:1"
         offset="0"
         id="stop8243" />
      <stop
         style="stop-color:#c4d2df;stop-opacity:1"
         offset="1"
         id="stop8245" />
    </linearGradient>
    <linearGradient
       inkscape:collect="always"
       id="linearGradient7361">
      <stop
         style="stop-color:#ffffff;stop-opacity:1;"
         offset="0"
         id="stop7357" />
      <stop
         style="stop-color:#ffd598;stop-opacity:0.99607843"
         offset="1"
         id="stop7359" />
    </linearGradient>
    <linearGradient
       inkscape:collect="always"
       id="linearGradient3934">
      <stop
         style="stop-color:#edf2f4;stop-opacity:1;"
         offset="0"
         id="stop3930" />
      <stop
         style="stop-color:#eff0f1;stop-opacity:1"
         offset="1"
         id="stop3932" />
    </linearGradient>
    <linearGradient
       inkscape:collect="always"
       id="linearGradient2823">
      <stop
         style="stop-color:#000000;stop-opacity:1;"
         offset="0"
         id="stop2819" />
      <stop
         style="stop-color:#000000;stop-opacity:0;"
         offset="1"
         id="stop2821" />
    </linearGradient>
    <linearGradient
       inkscape:collect="always"
       id="linearGradient2247">
      <stop
         style="stop-color:#fdac00;stop-opacity:1;"
         offset="0"
         id="stop2243" />
      <stop
         style="stop-color:#ff8039;stop-opacity:1"
         offset="1"
         id="stop2245" />
    </linearGradient>
    <linearGradient
       inkscape:collect="always"
       xlink:href="#linearGradient37218"
       id="linearGradient1781"
       x1="2.8346456e-08"
       y1="2.2677165e-07"
       x2="64"
       y2="64"
       gradientUnits="userSpaceOnUse"
       gradientTransform="scale(0.26458333)" />
    <linearGradient
       inkscape:collect="always"
       id="linearGradient37218">
      <stop
         style="stop-color:#808080;stop-opacity:1"
         offset="0"
         id="stop37214" />
      <stop
         style="stop-color:#717171;stop-opacity:0.00392157"
         offset="0.49741825"
         id="stop37220" />
      <stop
         style="stop-color:#808080;stop-opacity:1"
         offset="1"
         id="stop37216" />
    </linearGradient>
    <linearGradient
       inkscape:collect="always"
       xlink:href="#linearGradient2247"
       id="linearGradient2249"
       x1="7.9375"
       y1="4.2333331"
       x2="7.9375"
       y2="12.7"
       gradientUnits="userSpaceOnUse" />
    <linearGradient
       inkscape:collect="always"
       xlink:href="#linearGradient2823"
       id="linearGradient2825"
       x1="16"
       y1="47.5"
       x2="48"
       y2="23.5"
       gradientUnits="userSpaceOnUse" />
    <linearGradient
       inkscape:collect="always"
       xlink:href="#linearGradient3934"
       id="linearGradient3936"
       x1="10.583333"
       y1="16.933334"
       x2="10.583333"
       y2="6.7529299e-07"
       gradientUnits="userSpaceOnUse" />
    <linearGradient
       inkscape:collect="always"
       xlink:href="#linearGradient2823"
       id="linearGradient6971"
       x1="24.5"
       y1="43.349609"
       x2="39.597656"
       y2="19.349609"
       gradientUnits="userSpaceOnUse" />
    <linearGradient
       inkscape:collect="always"
       xlink:href="#linearGradient7361"
       id="linearGradient7363"
       x1="7.045598"
       y1="6.3101687"
       x2="7.0505471"
       y2="10.557946"
       gradientUnits="userSpaceOnUse" />
    <linearGradient
       inkscape:collect="always"
       xlink:href="#linearGradient8247"
       id="linearGradient8249"
       x1="2.8346456e-08"
       y1="64"
       x2="64"
       y2="2.2677165e-07"
       gradientUnits="userSpaceOnUse" />
  </defs>
  <path
     id="rect863"
     style="fill:url(#linearGradient3936);stroke-width:0.264583;fill-opacity:1"
     d="M 3.1750003,1.0583333 H 13.758333 c 1.172634,0 2.116667,0.944034 2.116667,2.116667 V 13.758333 c 0,1.172634 -0.944033,2.116667 -2.116667,2.116667 H 3.1750003 c -1.172633,0 -2.116667,-0.944033 -2.116667,-2.116667 V 3.1750003 c 0,-1.172633 0.944034,-2.116667 2.116667,-2.116667 z" />
  <path
     id="rect1055"
     style="opacity:1;fill:url(#linearGradient8249);fill-opacity:1;stroke-width:9;stroke-linecap:round;stroke-linejoin:round"
     d="M 23 4 L 23 23 L 4 23 L 4 41 L 23 41 L 23 60 L 41 60 L 41 41 L 60 41 L 60 23 L 41 23 L 41 4 L 23 4 z "
     transform="scale(0.26458333)" />
  <path
     id="rect1345"
     style="opacity:0.3;fill:url(#linearGradient1781);fill-opacity:1;stroke-width:0.264583"
     d="m 3.1750003,1.0583333 c -1.172633,0 -2.116667,0.944034 -2.116667,2.116667 V 13.758333 c 0,1.172634 0.944034,2.116667 2.116667,2.116667 H 13.758334 c 1.172633,0 2.116666,-0.944033 2.116666,-2.116667 V 3.1750003 c 0,-1.172633 -0.944033,-2.116667 -2.116666,-2.116667 z m 0,0.264584 H 13.758334 c 1.026054,0 1.852083,0.826029 1.852083,1.852083 V 13.758333 c 0,1.026054 -0.826029,1.852084 -1.852083,1.852084 H 3.1750003 c -1.026054,0 -1.852083,-0.82603 -1.852083,-1.852084 V 3.1750003 c 0,-1.026054 0.826029,-1.852083 1.852083,-1.852083 z" />
  <path
     id="rect849"
     style="opacity:1;fill:url(#linearGradient2249);stroke-width:2.38125;stroke-linecap:round;stroke-linejoin:round;fill-opacity:1"
     d="M 5.8208331,5.2916665 H 11.1125 c 0.293158,0 0.529166,0.2360083 0.529166,0.5291666 V 11.1125 c 0,0.293158 -0.236008,0.529166 -0.529166,0.529166 H 5.8208331 c -0.2931583,0 -0.5291666,-0.236008 -0.5291666,-0.529166 V 5.8208331 c 0,-0.2931583 0.2360083,-0.5291666 0.5291666,-0.5291666 z" />
  <path
     id="rect849-3"
     style="fill:url(#linearGradient2825);stroke-width:9;stroke-linecap:round;stroke-linejoin:round;opacity:0.3;fill-opacity:1"
     d="M 20 42 L 20 43 C 20 44.108 20.892 45 22 45 L 42 45 C 43.108 45 44 44.108 44 43 L 44 42 C 44 43.108 43.108 44 42 44 L 22 44 C 20.892 44 20 43.108 20 42 z "
     transform="scale(0.26458333)" />
  <path
     d="m 8.4339486,6.3499998 q 0.3982972,0 0.7368499,0.1820787 0.3413977,0.1792338 0.5576162,0.6145158 0.2190635,0.435282 0.2190635,1.1550621 0,0.722625 -0.1906137,1.2375665 -0.1877687,0.5120961 -0.5405463,0.7795251 -0.3499326,0.264583 -0.8335793,0.264583 -0.3584675,0 -0.6429655,-0.136559 Q 7.4552753,10.307368 7.2760415,10.059854 7.0968078,9.812341 7.0455981,9.4851682 h 0.5064065 q 0.071125,0.290188 0.2844981,0.4665768 0.2162185,0.176389 0.5462362,0.176389 0.3357077,0 0.5775311,-0.1849239 Q 9.2049383,9.7554414 9.3358074,9.3998188 9.4666765,9.0441963 9.4695215,8.5463247 h -0.0569 Q 9.2333881,8.8052179 8.957425,8.9503119 q -0.2731181,0.142249 -0.5974459,0.142249 -0.3670025,0 -0.6771054,-0.1735438 Q 7.3756159,8.7426283 7.1935371,8.4325255 7.0114584,8.1195776 7.0114584,7.7326603 q 0,-0.3812274 0.1763887,-0.6970202 Q 7.3642359,6.7198472 7.6857187,6.5349235 8.0100465,6.3499998 8.4339486,6.3499998 Z M 7.5121749,7.7269703 q 0,0.2532033 0.1166442,0.4637318 0.1194892,0.2076836 0.3300178,0.3300178 0.2105285,0.1223341 0.4751117,0.1223341 0.2617382,0 0.4808017,-0.1280241 Q 9.1338138,8.3841608 9.2618379,8.1707873 9.389862,7.9545688 9.389862,7.7155904 9.389862,7.479457 9.2675279,7.2689285 9.1451937,7.0583999 8.9289752,6.9303758 8.7156017,6.7995067 8.4510185,6.7995067 q -0.2645832,0 -0.4808017,0.1251791 Q 7.7539983,7.049865 7.6316641,7.2632385 7.5093299,7.476612 7.5121749,7.7269703 Z"
     style="font-size:5.82652px;line-height:1.25;font-family:Pretendard;-inkscape-font-specification:Pretendard;stroke-width:0.145663;fill:url(#linearGradient7363);fill-opacity:1"
     id="path6491" />
  <path
     id="path6491-7"
     style="font-size:5.82652px;line-height:1.25;font-family:Pretendard;-inkscape-font-specification:Pretendard;fill:url(#linearGradient6971);fill-opacity:1;stroke-width:0.550537;opacity:0.3"
     d="M 31.941406 25.699219 C 31.27474 25.699219 30.667849 25.856463 30.123047 26.171875 C 29.578244 26.487287 29.151994 26.913537 28.84375 27.451172 C 28.535506 27.988805 28.38541 28.574252 28.392578 29.205078 C 28.392578 29.371302 28.401924 29.532481 28.421875 29.691406 C 28.479841 29.253898 28.620851 28.839948 28.84375 28.451172 C 29.151994 27.913537 29.578244 27.487287 30.123047 27.171875 C 30.667849 26.856463 31.27474 26.699219 31.941406 26.699219 C 32.608073 26.699219 33.210413 26.863611 33.748047 27.193359 C 34.292849 27.51594 34.7191 27.942189 35.027344 28.472656 C 35.247331 28.851238 35.388185 29.24676 35.451172 29.658203 C 35.476279 29.494675 35.488281 29.330101 35.488281 29.162109 C 35.488281 28.567126 35.335587 28.003121 35.027344 27.472656 C 34.7191 26.942189 34.292849 26.51594 33.748047 26.193359 C 33.210413 25.863611 32.608073 25.699219 31.941406 25.699219 z M 26.521484 29.726562 C 26.507762 29.890256 26.5 30.057778 26.5 30.226562 C 26.5 31.201471 26.728719 32.082563 27.1875 32.871094 C 27.646281 33.652456 28.262916 34.26454 29.037109 34.708984 C 29.818471 35.146258 30.672926 35.365234 31.597656 35.365234 C 32.41486 35.365234 33.167297 35.186548 33.855469 34.828125 C 34.550809 34.462534 35.12456 33.95311 35.576172 33.300781 L 35.746094 33.300781 C 35.772777 32.981096 35.789032 32.647911 35.791016 32.300781 L 35.576172 32.300781 C 35.12456 32.95311 34.550809 33.462534 33.855469 33.828125 C 33.167297 34.186548 32.41486 34.365234 31.597656 34.365234 C 30.672926 34.365234 29.818471 34.146258 29.037109 33.708984 C 28.262916 33.26454 27.646281 32.652456 27.1875 31.871094 C 26.808693 31.220018 26.587517 30.504702 26.521484 29.726562 z M 37.589844 31.896484 C 37.547895 33.495515 37.310803 34.882652 36.876953 36.054688 C 36.403834 37.345008 35.722872 38.326163 34.833984 39 C 33.952264 39.666666 32.902231 40 31.683594 40 C 30.780369 40 29.968798 39.828461 29.251953 39.484375 C 28.535108 39.133126 27.951613 38.645142 27.5 38.021484 C 27.241225 37.664127 27.035674 37.272866 26.882812 36.849609 L 26.628906 36.849609 C 26.757939 37.673979 27.048388 38.397827 27.5 39.021484 C 27.951613 39.645142 28.535108 40.133123 29.251953 40.484375 C 29.968798 40.828461 30.780369 41 31.683594 41 C 32.902231 41 33.952264 40.666666 34.833984 40 C 35.722873 39.326163 36.403835 38.345008 36.876953 37.054688 C 37.35724 35.757198 37.597656 34.197741 37.597656 32.376953 C 37.597656 32.213678 37.594317 32.05395 37.589844 31.896484 z "
     transform="scale(0.26458333)" />
</svg>
