<?xml version="1.0" encoding="UTF-8" standalone="no"?>
<!-- Created with Inkscape (http://www.inkscape.org/) -->

<svg
   width="64"
   height="64"
   viewBox="0 0 16.933333 16.933333"
   version="1.1"
   id="svg5"
   inkscape:version="1.1.1 (3bf5ae0d25, 2021-09-20, custom)"
   sodipodi:docname="kwalletmanager.svg"
   xmlns:inkscape="http://www.inkscape.org/namespaces/inkscape"
   xmlns:sodipodi="http://sodipodi.sourceforge.net/DTD/sodipodi-0.dtd"
   xmlns:xlink="http://www.w3.org/1999/xlink"
   xmlns="http://www.w3.org/2000/svg"
   xmlns:svg="http://www.w3.org/2000/svg">
  <sodipodi:namedview
     id="namedview7"
     pagecolor="#ffffff"
     bordercolor="#666666"
     borderopacity="1.0"
     inkscape:pageshadow="2"
     inkscape:pageopacity="0.0"
     inkscape:pagecheckerboard="0"
     inkscape:document-units="px"
     showgrid="false"
     units="px"
     height="48px"
     inkscape:zoom="7.9999996"
     inkscape:cx="18.375001"
     inkscape:cy="45.937502"
     inkscape:window-width="1920"
     inkscape:window-height="1011"
     inkscape:window-x="0"
     inkscape:window-y="0"
     inkscape:window-maximized="1"
     inkscape:current-layer="svg5"
     inkscape:lockguides="true" />
  <defs
     id="defs2">
    <linearGradient
       inkscape:collect="always"
       id="linearGradient8239">
      <stop
         style="stop-color:#999999;stop-opacity:1"
         offset="0"
         id="stop8235" />
      <stop
         style="stop-color:#4d4d4d;stop-opacity:1"
         offset="1"
         id="stop8237" />
    </linearGradient>
    <linearGradient
       inkscape:collect="always"
       id="linearGradient7495">
      <stop
         style="stop-color:#000000;stop-opacity:1;"
         offset="0"
         id="stop7491" />
      <stop
         style="stop-color:#000000;stop-opacity:0;"
         offset="1"
         id="stop7493" />
    </linearGradient>
    <linearGradient
       inkscape:collect="always"
       id="linearGradient7044">
      <stop
         style="stop-color:#000000;stop-opacity:1;"
         offset="0"
         id="stop7040" />
      <stop
         style="stop-color:#000000;stop-opacity:0;"
         offset="1"
         id="stop7042" />
    </linearGradient>
    <linearGradient
       inkscape:collect="always"
       id="linearGradient6552">
      <stop
         style="stop-color:#e4d09b;stop-opacity:1;"
         offset="0"
         id="stop6548" />
      <stop
         style="stop-color:#f1d793;stop-opacity:0.99607843"
         offset="1"
         id="stop6550" />
    </linearGradient>
    <linearGradient
       inkscape:collect="always"
       id="linearGradient5606">
      <stop
         style="stop-color:#f4e9d3;stop-opacity:1"
         offset="0"
         id="stop5602" />
      <stop
         style="stop-color:#e3ca8e;stop-opacity:1"
         offset="1"
         id="stop5604" />
    </linearGradient>
    <linearGradient
       inkscape:collect="always"
       xlink:href="#linearGradient37218"
       id="linearGradient1781"
       x1="2.8346456e-08"
       y1="2.2677165e-07"
       x2="64"
       y2="64"
       gradientUnits="userSpaceOnUse"
       gradientTransform="scale(0.26458333)" />
    <linearGradient
       inkscape:collect="always"
       id="linearGradient37218">
      <stop
         style="stop-color:#ffffff;stop-opacity:1"
         offset="0"
         id="stop37214" />
      <stop
         style="stop-color:#ffffff;stop-opacity:0.00392157"
         offset="0.49741825"
         id="stop37220" />
      <stop
         style="stop-color:#000000;stop-opacity:1"
         offset="1"
         id="stop37216" />
    </linearGradient>
    <linearGradient
       inkscape:collect="always"
       xlink:href="#linearGradient5606"
       id="linearGradient5608"
       x1="7.9375"
       y1="4.2333341"
       x2="7.9375"
       y2="12.700001"
       gradientUnits="userSpaceOnUse" />
    <linearGradient
       inkscape:collect="always"
       xlink:href="#linearGradient6552"
       id="linearGradient6554"
       x1="26"
       y1="17.580078"
       x2="26"
       y2="51.580078"
       gradientUnits="userSpaceOnUse"
       gradientTransform="matrix(0.26458333,0,0,0.26458333,0,-0.02118736)" />
    <linearGradient
       inkscape:collect="always"
       xlink:href="#linearGradient7044"
       id="linearGradient7046"
       x1="28"
       y1="49"
       x2="52"
       y2="33"
       gradientUnits="userSpaceOnUse" />
    <linearGradient
       inkscape:collect="always"
       xlink:href="#linearGradient7495"
       id="linearGradient7497"
       x1="6"
       y1="45.459961"
       x2="56"
       y2="13.459961"
       gradientUnits="userSpaceOnUse" />
    <linearGradient
       inkscape:collect="always"
       xlink:href="#linearGradient8239"
       id="linearGradient8241"
       x1="9.5249996"
       y1="6.7529299e-07"
       x2="9.5250006"
       y2="16.933334"
       gradientUnits="userSpaceOnUse" />
  </defs>
  <path
     id="rect863"
     style="fill:url(#linearGradient8241);stroke-width:0.264583;fill-opacity:1"
     d="M 3.1750003,1.0583333 H 13.758333 c 1.172634,0 2.116667,0.944034 2.116667,2.116667 V 13.758333 c 0,1.172634 -0.944033,2.116667 -2.116667,2.116667 H 3.1750003 c -1.172633,0 -2.116667,-0.944033 -2.116667,-2.116667 V 3.1750003 c 0,-1.172633 0.944034,-2.116667 2.116667,-2.116667 z" />
  <path
     id="rect1345"
     style="opacity:0.3;fill:url(#linearGradient1781);fill-opacity:1;stroke-width:0.264583"
     d="m 3.1750003,1.0583333 c -1.172633,0 -2.116667,0.944034 -2.116667,2.116667 V 13.758333 c 0,1.172634 0.944034,2.116667 2.116667,2.116667 H 13.758334 c 1.172633,0 2.116666,-0.944033 2.116666,-2.116667 V 3.1750003 c 0,-1.172633 -0.944033,-2.116667 -2.116666,-2.116667 z m 0,0.264584 H 13.758334 c 1.026054,0 1.852083,0.826029 1.852083,1.852083 V 13.758333 c 0,1.026054 -0.826029,1.852084 -1.852083,1.852084 H 3.1750003 c -1.026054,0 -1.852083,-0.82603 -1.852083,-1.852084 V 3.1750003 c 0,-1.026054 0.826029,-1.852083 1.852083,-1.852083 z" />
  <rect
     style="opacity:1;fill:url(#linearGradient5608);stroke-width:2.38125;stroke-linecap:round;stroke-linejoin:round;fill-opacity:1"
     id="rect849"
     width="10.583333"
     height="7.9375"
     x="3.175"
     y="4.4979167"
     ry="0.79374999" />
  <path
     id="rect5268"
     style="opacity:1;fill:#25b1ef;stroke-width:2.38125;stroke-linecap:round;stroke-linejoin:round"
     d="M 4.2333333,5.0270834 H 12.7 c 0.293158,0 0.529166,0.2360083 0.529166,0.5291666 v 3.1749989 c 0,0.2931583 -0.236008,0.5291667 -0.529166,0.5291667 H 4.2333333 c -0.2931583,0 -0.5291666,-0.2360084 -0.5291666,-0.5291667 V 5.55625 c 0,-0.2931583 0.2360083,-0.5291666 0.5291666,-0.5291666 z" />
  <path
     id="rect4606"
     style="opacity:1;fill:#efc225;stroke-width:2.38125;stroke-linecap:round;stroke-linejoin:round"
     d="M 4.2333333,5.8208332 H 12.7 c 0.293158,0 0.529166,0.2360083 0.529166,0.5291666 v 3.1749994 c 0,0.2931583 -0.236008,0.5291668 -0.529166,0.5291668 H 4.2333333 c -0.2931583,0 -0.5291666,-0.2360085 -0.5291666,-0.5291668 V 6.3499998 c 0,-0.2931583 0.2360083,-0.5291666 0.5291666,-0.5291666 z" />
  <path
     id="rect3107"
     style="opacity:1;fill:#55bf5d;stroke-width:2.38125;stroke-linecap:round;stroke-linejoin:round"
     d="M 4.2333333,6.614583 H 12.7 c 0.293158,0 0.529166,0.2360083 0.529166,0.5291667 v 3.1749993 c 0,0.293159 -0.236008,0.529167 -0.529166,0.529167 H 4.2333333 c -0.2931583,0 -0.5291666,-0.236008 -0.5291666,-0.529167 V 7.1437497 c 0,-0.2931584 0.2360083,-0.5291667 0.5291666,-0.5291667 z" />
  <path
     id="rect2181"
     style="opacity:1;fill:#f06767;stroke-width:2.45028;stroke-linecap:round;stroke-linejoin:round"
     d="M 4.2333333,7.4083333 H 12.7 c 0.293158,0 0.529166,0.2360083 0.529166,0.5291666 V 11.1125 c 0,0.293158 -0.236008,0.529166 -0.529166,0.529166 H 4.2333333 c -0.2931583,0 -0.5291666,-0.236008 -0.5291666,-0.529166 V 7.9374999 c 0,-0.2931583 0.2360083,-0.5291666 0.5291666,-0.5291666 z" />
  <path
     id="rect1745"
     style="opacity:1;fill:url(#linearGradient6554);fill-opacity:1;stroke-width:2.38125;stroke-linecap:round;stroke-linejoin:round"
     d="m 3.175,8.4666665 v 3.1749995 c 0,0.439738 0.3540125,0.79375 0.7937499,0.79375 h 8.9958331 c 0.439737,0 0.79375,-0.354012 0.79375,-0.79375 V 8.4666665 H 9.5239664 C 9.5124369,9.0424755 9.0425909,9.5033656 8.4666666,9.5038125 7.8907422,9.5033627 7.4208962,9.0424755 7.4093667,8.4666665 Z"
     sodipodi:nodetypes="cssssccccc" />
  <path
     id="rect1745-7"
     style="opacity:0.3;fill:url(#linearGradient7046);fill-opacity:1;stroke-width:9;stroke-linecap:round;stroke-linejoin:round"
     d="M 12 43 L 12 44 C 12 45.662002 13.338 47 15 47 L 49 47 C 50.661998 47 52 45.662002 52 44 L 52 43 C 52 44.662002 50.661998 46 49 46 L 15 46 C 13.337998 46 12 44.662002 12 43 z "
     transform="scale(0.26458333)" />
  <path
     id="rect1745-7-3-5"
     style="fill:url(#linearGradient7497);fill-opacity:1;stroke-width:9;stroke-linecap:round;stroke-linejoin:round;opacity:0.3"
     d="M 12 31 L 12 32 L 28.003906 32 C 28.04748 34.176286 29.823279 35.918221 32 35.919922 C 34.176721 35.918232 35.952516 34.176286 35.996094 32 L 52 32 L 52 31 L 35.996094 31 C 35.952516 33.176286 34.176721 34.918232 32 34.919922 C 29.823279 34.918221 28.04748 33.176286 28.003906 31 L 12 31 z "
     transform="scale(0.26458333)" />
</svg>
