<?xml version="1.0" encoding="UTF-8" standalone="no"?>
<!-- Created with Inkscape (http://www.inkscape.org/) -->

<svg
   width="64"
   height="64"
   viewBox="0 0 16.933333 16.933333"
   version="1.1"
   id="svg5"
   inkscape:version="1.1.1 (3bf5ae0d25, 2021-09-20, custom)"
   sodipodi:docname="libreoffice-writer.svg"
   xmlns:inkscape="http://www.inkscape.org/namespaces/inkscape"
   xmlns:sodipodi="http://sodipodi.sourceforge.net/DTD/sodipodi-0.dtd"
   xmlns:xlink="http://www.w3.org/1999/xlink"
   xmlns="http://www.w3.org/2000/svg"
   xmlns:svg="http://www.w3.org/2000/svg">
  <sodipodi:namedview
     id="namedview7"
     pagecolor="#ffffff"
     bordercolor="#666666"
     borderopacity="1.0"
     inkscape:pageshadow="2"
     inkscape:pageopacity="0.0"
     inkscape:pagecheckerboard="0"
     inkscape:document-units="px"
     showgrid="false"
     units="px"
     height="48px"
     inkscape:zoom="1"
     inkscape:cx="47"
     inkscape:cy="41"
     inkscape:window-width="1920"
     inkscape:window-height="1011"
     inkscape:window-x="0"
     inkscape:window-y="0"
     inkscape:window-maximized="1"
     inkscape:current-layer="svg5"
     inkscape:lockguides="true" />
  <defs
     id="defs2">
    <linearGradient
       inkscape:collect="always"
       id="linearGradient5933">
      <stop
         style="stop-color:#377cc2;stop-opacity:1;"
         offset="0"
         id="stop5929" />
      <stop
         style="stop-color:#0991f0;stop-opacity:1"
         offset="1"
         id="stop5931" />
    </linearGradient>
    <linearGradient
       inkscape:collect="always"
       id="linearGradient3275">
      <stop
         style="stop-color:#cfe8fa;stop-opacity:1"
         offset="0"
         id="stop3271" />
      <stop
         style="stop-color:#7fc3f2;stop-opacity:1"
         offset="1"
         id="stop3273" />
    </linearGradient>
    <linearGradient
       inkscape:collect="always"
       id="linearGradient1721">
      <stop
         style="stop-color:#2066b6;stop-opacity:1"
         offset="0"
         id="stop1717" />
      <stop
         style="stop-color:#47b2f6;stop-opacity:1"
         offset="1"
         id="stop1719" />
    </linearGradient>
    <linearGradient
       inkscape:collect="always"
       id="linearGradient37218">
      <stop
         style="stop-color:#1a1a1a;stop-opacity:1"
         offset="0"
         id="stop37214" />
      <stop
         style="stop-color:#e6e6e6;stop-opacity:0.00306325"
         offset="0.49741825"
         id="stop37220" />
      <stop
         style="stop-color:#ffffff;stop-opacity:1"
         offset="1"
         id="stop37216" />
    </linearGradient>
    <linearGradient
       inkscape:collect="always"
       xlink:href="#linearGradient37218"
       id="linearGradient881"
       x1="64.208344"
       y1="64.062607"
       x2="0.30528301"
       y2="0.13507102"
       gradientUnits="userSpaceOnUse" />
    <linearGradient
       inkscape:collect="always"
       xlink:href="#linearGradient1721"
       id="linearGradient1723"
       x1="7.4081421e-09"
       y1="16.933332"
       x2="16.933332"
       y2="-2.7838135e-07"
       gradientUnits="userSpaceOnUse" />
    <linearGradient
       inkscape:collect="always"
       xlink:href="#linearGradient3275"
       id="linearGradient3277"
       x1="7.6729164"
       y1="8.7312498"
       x2="7.6729164"
       y2="6.0854168"
       gradientUnits="userSpaceOnUse" />
    <linearGradient
       inkscape:collect="always"
       xlink:href="#linearGradient5933"
       id="linearGradient5935"
       x1="17"
       y1="51"
       x2="46"
       y2="19"
       gradientUnits="userSpaceOnUse" />
  </defs>
  <path
     id="rect846-3"
     style="fill:url(#linearGradient1723);stroke-width:0.337527;fill-opacity:1"
     d="m 3.175,1.5875 h 10.583333 c 0.879475,0 1.5875,0.708025 1.5875,1.5875 v 10.583333 c 0,0.879475 -0.708025,1.5875 -1.5875,1.5875 H 3.175 c -0.879475,0 -1.5875,-0.708025 -1.5875,-1.5875 V 3.175 c 0,-0.879475 0.708025,-1.5875 1.5875,-1.5875 z" />
  <path
     id="rect846"
     style="opacity:0.3;fill:url(#linearGradient881);stroke-width:1.27569;fill-opacity:1"
     d="M 12 6 C 8.6760005 6 6 8.6760005 6 12 L 6 52 C 6 55.324 8.6760005 58 12 58 L 52 58 C 55.324 58 58 55.324 58 52 L 58 12 C 58 8.6760005 55.324 6 52 6 L 12 6 z M 12 7 L 52 7 C 54.77 7 57 9.23 57 12 L 57 52 C 57 54.77 54.77 57 52 57 L 12 57 C 9.23 57 7 54.77 7 52 L 7 12 C 7 9.23 9.23 7 12 7 z "
     transform="scale(0.26458333)" />
  <path
     id="rect849"
     style="fill:#ffffff;stroke-width:1.67303;stroke-linejoin:round"
     d="M 3.1749999,2.6458333 H 11.377083 L 14.2875,5.5562499 v 8.2020831 c 0,0.293158 -0.236009,0.529167 -0.529167,0.529167 H 3.1749999 c -0.2931583,0 -0.5291666,-0.236009 -0.5291666,-0.529167 V 3.1749999 c 0,-0.2931583 0.2360083,-0.5291666 0.5291666,-0.5291666 z"
     sodipodi:nodetypes="sccssssss" />
  <path
     id="path980"
     style="fill:url(#linearGradient5935);fill-opacity:1;stroke-width:6.64573;stroke-linejoin:round"
     d="M 18 22 C 17.446 22 17 22.446 17 23 L 17 33 C 17 33.554 17.446 34 18 34 L 29 34 C 29.554 34 30 33.554 30 33 L 30 23 C 30 22.446 29.554 22 29 22 L 18 22 z M 33 22 L 33 24 L 46 24 L 46 22 L 33 22 z M 18 23 L 29 23 L 29 33 L 18 33 L 18 23 z M 33 27 L 33 29 L 46 29 L 46 27 L 33 27 z M 33 32 L 33 34 L 46 34 L 46 32 L 33 32 z M 17 37 L 17 39 L 46 39 L 46 37 L 17 37 z M 17 42 L 17 44 L 42 44 L 42 42 L 17 42 z "
     transform="scale(0.26458333)" />
  <rect
     style="opacity:1;fill:url(#linearGradient3277);fill-opacity:1;stroke-width:0.529167;stroke-linejoin:round"
     id="rect2455"
     width="2.9104166"
     height="2.6458333"
     x="4.7624998"
     y="6.0854168"
     ry="0" />
  <path
     id="rect4134"
     style="opacity:1;fill:#3b4e5f;stroke-width:0.374178;stroke-linejoin:round"
     d="M 4.7624998,7.9374995 5.5562499,7.1437499 6.8791665,8.2020832 7.6729167,7.4083328 V 8.7312495 H 4.7624998 Z"
     sodipodi:nodetypes="ccccccc" />
</svg>
