<?xml version="1.0" encoding="UTF-8" standalone="no"?>
<!-- Created with Inkscape (http://www.inkscape.org/) -->

<svg
   width="64"
   height="64"
   viewBox="0 0 16.933333 16.933333"
   version="1.1"
   id="svg5"
   inkscape:version="1.1.1 (3bf5ae0d25, 2021-09-20, custom)"
   sodipodi:docname="libreoffice-base.svg"
   xmlns:inkscape="http://www.inkscape.org/namespaces/inkscape"
   xmlns:sodipodi="http://sodipodi.sourceforge.net/DTD/sodipodi-0.dtd"
   xmlns:xlink="http://www.w3.org/1999/xlink"
   xmlns="http://www.w3.org/2000/svg"
   xmlns:svg="http://www.w3.org/2000/svg">
  <sodipodi:namedview
     id="namedview7"
     pagecolor="#ffffff"
     bordercolor="#666666"
     borderopacity="1.0"
     inkscape:pageshadow="2"
     inkscape:pageopacity="0.0"
     inkscape:pagecheckerboard="0"
     inkscape:document-units="px"
     showgrid="false"
     units="px"
     height="48px"
     inkscape:zoom="11.313708"
     inkscape:cx="24.837127"
     inkscape:cy="43.487069"
     inkscape:window-width="1920"
     inkscape:window-height="1019"
     inkscape:window-x="0"
     inkscape:window-y="0"
     inkscape:window-maximized="1"
     inkscape:current-layer="svg5"
     inkscape:lockguides="false" />
  <defs
     id="defs2">
    <linearGradient
       inkscape:collect="always"
       id="linearGradient837">
      <stop
         style="stop-color:#b97fb3;stop-opacity:1"
         offset="0"
         id="stop833" />
      <stop
         style="stop-color:#bd43bc;stop-opacity:1"
         offset="1"
         id="stop835" />
    </linearGradient>
    <linearGradient
       inkscape:collect="always"
       id="linearGradient1721">
      <stop
         style="stop-color:#cb57e3;stop-opacity:1"
         offset="0"
         id="stop1717" />
      <stop
         style="stop-color:#e16aa2;stop-opacity:1"
         offset="1"
         id="stop1719" />
    </linearGradient>
    <linearGradient
       inkscape:collect="always"
       xlink:href="#linearGradient837"
       id="linearGradient839"
       x1="18"
       y1="18"
       x2="18"
       y2="50"
       gradientUnits="userSpaceOnUse" />
    <linearGradient
       inkscape:collect="always"
       xlink:href="#linearGradient37218"
       id="linearGradient1781"
       x1="2.8346456e-08"
       y1="2.2677165e-07"
       x2="64"
       y2="64"
       gradientUnits="userSpaceOnUse"
       gradientTransform="scale(0.26458333)" />
    <linearGradient
       inkscape:collect="always"
       id="linearGradient37218">
      <stop
         style="stop-color:#ffffff;stop-opacity:1"
         offset="0"
         id="stop37214" />
      <stop
         style="stop-color:#717171;stop-opacity:0.00392157"
         offset="0.49741825"
         id="stop37220" />
      <stop
         style="stop-color:#000000;stop-opacity:1"
         offset="1"
         id="stop37216" />
    </linearGradient>
    <linearGradient
       inkscape:collect="always"
       xlink:href="#linearGradient1721"
       id="linearGradient1097"
       x1="0.29711118"
       y1="-0.29664162"
       x2="0.29711181"
       y2="16.636692"
       gradientUnits="userSpaceOnUse"
       gradientTransform="translate(0.23205546,0.29664127)" />
  </defs>
  <path
     id="rect957"
     style="fill:url(#linearGradient1097);stroke-width:0.264583"
     d="M 3.1749998,1.0583333 H 13.758333 c 1.172634,0 2.116667,0.9440333 2.116667,2.1166665 V 13.758333 c 0,1.172634 -0.944033,2.116667 -2.116667,2.116667 H 3.1749998 c -1.1726332,0 -2.1166665,-0.944033 -2.1166665,-2.116667 V 3.1749998 c 0,-1.1726332 0.9440333,-2.1166665 2.1166665,-2.1166665 z" />
  <path
     id="rect849"
     style="fill:#ffffff;stroke-width:1.67303;stroke-linejoin:round"
     d="M 3.1749999,2.6458333 H 11.377083 L 14.2875,5.5562499 v 8.2020831 c 0,0.293158 -0.236009,0.529167 -0.529167,0.529167 H 3.1749999 c -0.2931583,0 -0.5291666,-0.236009 -0.5291666,-0.529167 V 3.1749999 c 0,-0.2931583 0.2360083,-0.5291666 0.5291666,-0.5291666 z"
     sodipodi:nodetypes="sccssssss" />
  <path
     id="path854"
     style="fill:url(#linearGradient839);stroke-width:5.76828;stroke-linejoin:round;fill-opacity:1"
     d="M 32 21 C 24.268013 21 18 23.238576 18 26 L 18 32 L 18 37 L 18 42 C 18 44.761425 24.268013 47 32 47 C 39.731985 47 46 44.761425 46 42 L 46 37 L 46 32 L 46 26 C 46 23.238576 39.731985 21 32 21 z M 19 27.5 C 19 29.985281 24.820298 32 32 32 C 39.179702 32 45 29.985281 45 27.5 L 45 32 C 45 34.485281 39.179702 36 32 36 C 24.820298 36 19 34.485281 19 32 L 19 27.5 z M 19 33.859375 C 21.065779 35.700144 26.107696 37 32 37 C 37.892303 37 42.934221 35.700144 45 33.859375 L 45 36.5 C 45 38.985278 39.179702 41 32 41 C 24.820296 41 19 38.985278 19 36.5 L 19 33.859375 z M 19 38.855469 C 21.063961 40.697603 26.104942 42 32 42 C 37.895056 42 42.936039 40.697603 45 38.855469 L 45 41.5 C 45 43.985281 39.179702 46 32 46 C 24.820298 46 19 43.985281 19 41.5 L 19 38.855469 z "
     transform="scale(0.26458333)" />
  <path
     id="rect1345"
     style="opacity:0.3;fill:url(#linearGradient1781);fill-opacity:1;stroke-width:0.264583"
     d="m 3.1749993,1.0583333 c -1.172633,0 -2.116666,0.944034 -2.116666,2.1166666 V 13.758333 c 0,1.172634 0.944033,2.116667 2.116666,2.116667 H 13.758334 c 1.172632,0 2.116666,-0.944033 2.116666,-2.116667 V 3.1749999 c 0,-1.1726326 -0.944034,-2.1166666 -2.116666,-2.1166666 z m 0,0.264584 H 13.758334 c 1.026054,0 1.852083,0.826029 1.852083,1.8520826 V 13.758333 c 0,1.026054 -0.826029,1.852084 -1.852083,1.852084 H 3.1749993 c -1.026054,0 -1.852083,-0.82603 -1.852083,-1.852084 V 3.1749999 c 0,-1.0260536 0.826029,-1.8520826 1.852083,-1.8520826 z" />
</svg>
