<?xml version="1.0" encoding="UTF-8" standalone="no"?>
<!-- Created with Inkscape (http://www.inkscape.org/) -->

<svg
   width="64"
   height="64"
   viewBox="0 0 16.933333 16.933333"
   version="1.1"
   id="svg5"
   inkscape:version="1.1.1 (3bf5ae0d25, 2021-09-20, custom)"
   sodipodi:docname="libreoffice-base.svg"
   xmlns:inkscape="http://www.inkscape.org/namespaces/inkscape"
   xmlns:sodipodi="http://sodipodi.sourceforge.net/DTD/sodipodi-0.dtd"
   xmlns:xlink="http://www.w3.org/1999/xlink"
   xmlns="http://www.w3.org/2000/svg"
   xmlns:svg="http://www.w3.org/2000/svg">
  <sodipodi:namedview
     id="namedview7"
     pagecolor="#ffffff"
     bordercolor="#666666"
     borderopacity="1.0"
     inkscape:pageshadow="2"
     inkscape:pageopacity="0.0"
     inkscape:pagecheckerboard="0"
     inkscape:document-units="px"
     showgrid="false"
     units="px"
     height="48px"
     inkscape:zoom="11.313708"
     inkscape:cx="24.837127"
     inkscape:cy="29.52171"
     inkscape:window-width="1920"
     inkscape:window-height="1011"
     inkscape:window-x="0"
     inkscape:window-y="0"
     inkscape:window-maximized="1"
     inkscape:current-layer="svg5"
     inkscape:lockguides="true" />
  <defs
     id="defs2">
    <linearGradient
       inkscape:collect="always"
       id="linearGradient1721">
      <stop
         style="stop-color:#cb57e3;stop-opacity:1"
         offset="0"
         id="stop1717" />
      <stop
         style="stop-color:#e16aa2;stop-opacity:1"
         offset="1"
         id="stop1719" />
    </linearGradient>
    <linearGradient
       inkscape:collect="always"
       id="linearGradient37218">
      <stop
         style="stop-color:#1a1a1a;stop-opacity:1"
         offset="0"
         id="stop37214" />
      <stop
         style="stop-color:#e6e6e6;stop-opacity:0.00306325"
         offset="0.49741825"
         id="stop37220" />
      <stop
         style="stop-color:#ffffff;stop-opacity:1"
         offset="1"
         id="stop37216" />
    </linearGradient>
    <linearGradient
       inkscape:collect="always"
       xlink:href="#linearGradient37218"
       id="linearGradient881"
       x1="64.208344"
       y1="64.062607"
       x2="0.30528301"
       y2="0.13507102"
       gradientUnits="userSpaceOnUse" />
    <linearGradient
       inkscape:collect="always"
       xlink:href="#linearGradient1721"
       id="linearGradient1723"
       x1="7.4081421e-09"
       y1="16.933332"
       x2="16.933332"
       y2="-2.7838135e-07"
       gradientUnits="userSpaceOnUse" />
  </defs>
  <path
     id="rect846-3"
     style="fill:url(#linearGradient1723);stroke-width:0.337527;fill-opacity:1"
     d="m 3.175,1.5875 h 10.583333 c 0.879475,0 1.5875,0.708025 1.5875,1.5875 v 10.583333 c 0,0.879475 -0.708025,1.5875 -1.5875,1.5875 H 3.175 c -0.879475,0 -1.5875,-0.708025 -1.5875,-1.5875 V 3.175 c 0,-0.879475 0.708025,-1.5875 1.5875,-1.5875 z" />
  <path
     id="rect846"
     style="opacity:0.3;fill:url(#linearGradient881);stroke-width:1.27569;fill-opacity:1"
     d="M 12 6 C 8.6760005 6 6 8.6760005 6 12 L 6 52 C 6 55.324 8.6760005 58 12 58 L 52 58 C 55.324 58 58 55.324 58 52 L 58 12 C 58 8.6760005 55.324 6 52 6 L 12 6 z M 12 7 L 52 7 C 54.77 7 57 9.23 57 12 L 57 52 C 57 54.77 54.77 57 52 57 L 12 57 C 9.23 57 7 54.77 7 52 L 7 12 C 7 9.23 9.23 7 12 7 z "
     transform="scale(0.26458333)" />
  <path
     id="rect849"
     style="fill:#ffffff;stroke-width:1.67303;stroke-linejoin:round"
     d="M 3.1749999,2.6458333 H 11.377083 L 14.2875,5.5562499 v 8.2020831 c 0,0.293158 -0.236009,0.529167 -0.529167,0.529167 H 3.1749999 c -0.2931583,0 -0.5291666,-0.236009 -0.5291666,-0.529167 V 3.1749999 c 0,-0.2931583 0.2360083,-0.5291666 0.5291666,-0.5291666 z"
     sodipodi:nodetypes="sccssssss" />
  <path
     id="path854"
     style="fill:#794b89;stroke-width:5.76828;stroke-linejoin:round;fill-opacity:1"
     d="M 32 21 C 24.268013 21 18 23.238576 18 26 L 18 32 L 18 37 L 18 42 C 18 44.761425 24.268013 47 32 47 C 39.731985 47 46 44.761425 46 42 L 46 37 L 46 32 L 46 26 C 46 23.238576 39.731985 21 32 21 z M 19 27.5 C 19 29.985281 24.820298 32 32 32 C 39.179702 32 45 29.985281 45 27.5 L 45 32 C 45 34.485281 39.179702 36 32 36 C 24.820298 36 19 34.485281 19 32 L 19 27.5 z M 19 33.859375 C 21.065779 35.700144 26.107696 37 32 37 C 37.892303 37 42.934221 35.700144 45 33.859375 L 45 36.5 C 45 38.985278 39.179702 41 32 41 C 24.820296 41 19 38.985278 19 36.5 L 19 33.859375 z M 19 38.855469 C 21.063961 40.697603 26.104942 42 32 42 C 37.895056 42 42.936039 40.697603 45 38.855469 L 45 41.5 C 45 43.985281 39.179702 46 32 46 C 24.820298 46 19 43.985281 19 41.5 L 19 38.855469 z "
     transform="scale(0.26458333)" />
</svg>
