<?xml version="1.0" encoding="UTF-8" standalone="no"?>
<!-- Created with Inkscape (http://www.inkscape.org/) -->

<svg
   width="64"
   height="64"
   viewBox="0 0 16.933333 16.933333"
   version="1.1"
   id="svg5"
   inkscape:version="1.1.1 (3bf5ae0d25, 2021-09-20, custom)"
   sodipodi:docname="libreoffice-draw.svg"
   xmlns:inkscape="http://www.inkscape.org/namespaces/inkscape"
   xmlns:sodipodi="http://sodipodi.sourceforge.net/DTD/sodipodi-0.dtd"
   xmlns:xlink="http://www.w3.org/1999/xlink"
   xmlns="http://www.w3.org/2000/svg"
   xmlns:svg="http://www.w3.org/2000/svg">
  <sodipodi:namedview
     id="namedview7"
     pagecolor="#ffffff"
     bordercolor="#666666"
     borderopacity="1.0"
     inkscape:pageshadow="2"
     inkscape:pageopacity="0.0"
     inkscape:pagecheckerboard="0"
     inkscape:document-units="px"
     showgrid="false"
     units="px"
     height="48px"
     inkscape:zoom="2.8284271"
     inkscape:cx="-32.880465"
     inkscape:cy="4.5961941"
     inkscape:window-width="1920"
     inkscape:window-height="1011"
     inkscape:window-x="0"
     inkscape:window-y="0"
     inkscape:window-maximized="1"
     inkscape:current-layer="svg5"
     inkscape:lockguides="true"
     showguides="false" />
  <defs
     id="defs2">
    <linearGradient
       inkscape:collect="always"
       id="linearGradient5034">
      <stop
         style="stop-color:#ffbd04;stop-opacity:1"
         offset="0"
         id="stop5030" />
      <stop
         style="stop-color:#ec4a00;stop-opacity:1"
         offset="1"
         id="stop5032" />
    </linearGradient>
    <linearGradient
       inkscape:collect="always"
       id="linearGradient4021">
      <stop
         style="stop-color:#ffb81b;stop-opacity:1;"
         offset="0"
         id="stop4017" />
      <stop
         style="stop-color:#ffda64;stop-opacity:1"
         offset="1"
         id="stop4019" />
    </linearGradient>
    <linearGradient
       inkscape:collect="always"
       id="linearGradient1254">
      <stop
         style="stop-color:#ff7b3d;stop-opacity:1;"
         offset="0"
         id="stop1250" />
      <stop
         style="stop-color:#ff4e4e;stop-opacity:1"
         offset="1"
         id="stop1252" />
    </linearGradient>
    <linearGradient
       inkscape:collect="always"
       id="linearGradient1721">
      <stop
         style="stop-color:#ff790c;stop-opacity:1"
         offset="0"
         id="stop1717" />
      <stop
         style="stop-color:#f6cc47;stop-opacity:1"
         offset="1"
         id="stop1719" />
    </linearGradient>
    <linearGradient
       inkscape:collect="always"
       id="linearGradient37218">
      <stop
         style="stop-color:#1a1a1a;stop-opacity:1"
         offset="0"
         id="stop37214" />
      <stop
         style="stop-color:#e6e6e6;stop-opacity:0.00306325"
         offset="0.49741825"
         id="stop37220" />
      <stop
         style="stop-color:#ffffff;stop-opacity:1"
         offset="1"
         id="stop37216" />
    </linearGradient>
    <linearGradient
       inkscape:collect="always"
       xlink:href="#linearGradient37218"
       id="linearGradient881"
       x1="64.208344"
       y1="64.062607"
       x2="0.30528301"
       y2="0.13507102"
       gradientUnits="userSpaceOnUse" />
    <linearGradient
       inkscape:collect="always"
       xlink:href="#linearGradient1721"
       id="linearGradient1723"
       x1="7.4081421e-09"
       y1="16.933332"
       x2="16.933332"
       y2="-2.7838135e-07"
       gradientUnits="userSpaceOnUse" />
    <linearGradient
       inkscape:collect="always"
       xlink:href="#linearGradient1254"
       id="linearGradient1256"
       x1="5.2916665"
       y1="10.054167"
       x2="5.2916665"
       y2="5.8208332"
       gradientUnits="userSpaceOnUse"
       gradientTransform="matrix(1.1875,0,0,1.1875,-0.7937508,-1.8851571)" />
    <linearGradient
       inkscape:collect="always"
       xlink:href="#linearGradient4021"
       id="linearGradient4023"
       x1="10.476977"
       y1="13.071889"
       x2="10.47876"
       y2="9.771842"
       gradientUnits="userSpaceOnUse"
       gradientTransform="matrix(0.96675723,0,0,1.4486049,-0.69360945,-7.0117896)" />
    <linearGradient
       inkscape:collect="always"
       xlink:href="#linearGradient5034"
       id="linearGradient5036"
       x1="9.8094759"
       y1="7.937499"
       x2="9.8094759"
       y2="12.799301"
       gradientUnits="userSpaceOnUse"
       gradientTransform="matrix(1.1307127,0,0,1.3060999,-0.24378213,-3.7525842)" />
  </defs>
  <path
     id="rect846-3"
     style="fill:url(#linearGradient1723);stroke-width:0.337527;fill-opacity:1"
     d="m 3.175,1.5875 h 10.583333 c 0.879475,0 1.5875,0.708025 1.5875,1.5875 v 10.583333 c 0,0.879475 -0.708025,1.5875 -1.5875,1.5875 H 3.175 c -0.879475,0 -1.5875,-0.708025 -1.5875,-1.5875 V 3.175 c 0,-0.879475 0.708025,-1.5875 1.5875,-1.5875 z" />
  <path
     id="rect846"
     style="opacity:0.3;fill:url(#linearGradient881);stroke-width:1.27569;fill-opacity:1"
     d="M 12 6 C 8.6760005 6 6 8.6760005 6 12 L 6 52 C 6 55.324 8.6760005 58 12 58 L 52 58 C 55.324 58 58 55.324 58 52 L 58 12 C 58 8.6760005 55.324 6 52 6 L 12 6 z M 12 7 L 52 7 C 54.77 7 57 9.23 57 12 L 57 52 C 57 54.77 54.77 57 52 57 L 12 57 C 9.23 57 7 54.77 7 52 L 7 12 C 7 9.23 9.23 7 12 7 z "
     transform="scale(0.26458333)" />
  <path
     id="rect849"
     style="fill:#ffffff;stroke-width:1.67303;stroke-linejoin:round"
     d="M 3.1749999,2.6458333 H 11.377083 L 14.2875,5.5562499 v 8.2020831 c 0,0.293158 -0.236009,0.529167 -0.529167,0.529167 H 3.1749999 c -0.2931583,0 -0.5291666,-0.236009 -0.5291666,-0.529167 V 3.1749999 c 0,-0.2931583 0.2360083,-0.5291666 0.5291666,-0.5291666 z"
     sodipodi:nodetypes="sccssssss" />
  <circle
     style="opacity:1;fill:url(#linearGradient1256);fill-opacity:1;stroke-width:0.553786;stroke-linejoin:round"
     id="path968"
     cx="6.7468748"
     cy="7.5406251"
     r="2.5135417" />
  <rect
     style="opacity:1;fill:url(#linearGradient5036);fill-opacity:1;stroke:none;stroke-width:0.643068;stroke-linejoin:round"
     id="rect5028"
     width="4.2333331"
     height="4.2333331"
     x="8.7312489"
     y="6.614583" />
  <path
     id="rect3795"
     style="opacity:1;fill:url(#linearGradient4023);stroke-width:0.626219;stroke-linejoin:round"
     d="m 7.6729168,7.143749 2.6458332,4.7625 H 5.0270828 Z"
     sodipodi:nodetypes="cccc" />
  <path
     id="rect3074"
     style="opacity:0.75;fill:#18a303;fill-opacity:1;stroke-width:0.351888;stroke-linejoin:round"
     d="M 7.1437498,6.6145827 V 7.6729161 H 8.2020831 V 6.6145827 Z M 7.4083331,6.8791661 H 7.9374998 V 7.4083327 H 7.4083331 Z" />
  <rect
     style="opacity:0.75;fill:#92e285;fill-opacity:1;stroke-width:0.461248;stroke-linejoin:round"
     id="rect3258"
     width="0.52916664"
     height="0.52916664"
     x="7.4083323"
     y="6.8791666" />
  <path
     id="rect3074-3"
     style="opacity:0.75;fill:#18a303;fill-opacity:1;stroke-width:0.351888;stroke-linejoin:round"
     d="m 4.4979165,11.377083 v 1.058334 h 1.0583333 v -1.058334 z m 0.2645833,0.264584 h 0.5291667 v 0.529166 H 4.7624998 Z" />
  <rect
     style="opacity:0.75;fill:#92e285;fill-opacity:1;stroke-width:0.461248;stroke-linejoin:round"
     id="rect3258-6"
     width="0.52916664"
     height="0.52916664"
     x="4.7624989"
     y="11.641666" />
  <path
     id="rect3074-3-7"
     style="opacity:0.75;fill:#18a303;fill-opacity:1;stroke-width:0.351888;stroke-linejoin:round"
     d="m 9.7895836,11.377083 v 1.058334 h 1.0583344 v -1.058334 z m 0.2645834,0.264584 h 0.529167 v 0.529166 h -0.529167 z" />
  <rect
     style="opacity:0.75;fill:#92e285;fill-opacity:1;stroke-width:0.461248;stroke-linejoin:round"
     id="rect3258-6-5"
     width="0.52916664"
     height="0.52916664"
     x="10.054163"
     y="11.641666" />
</svg>
