<?xml version="1.0" encoding="UTF-8" standalone="no"?>
<!-- Created with Inkscape (http://www.inkscape.org/) -->

<svg
   width="64"
   height="64"
   viewBox="0 0 16.933333 16.933333"
   version="1.1"
   id="svg5"
   inkscape:version="1.1.1 (3bf5ae0d25, 2021-09-20, custom)"
   sodipodi:docname="libreoffice-calc.svg"
   xmlns:inkscape="http://www.inkscape.org/namespaces/inkscape"
   xmlns:sodipodi="http://sodipodi.sourceforge.net/DTD/sodipodi-0.dtd"
   xmlns:xlink="http://www.w3.org/1999/xlink"
   xmlns="http://www.w3.org/2000/svg"
   xmlns:svg="http://www.w3.org/2000/svg">
  <sodipodi:namedview
     id="namedview7"
     pagecolor="#ffffff"
     bordercolor="#666666"
     borderopacity="1.0"
     inkscape:pageshadow="2"
     inkscape:pageopacity="0.0"
     inkscape:pagecheckerboard="0"
     inkscape:document-units="px"
     showgrid="false"
     units="px"
     height="48px"
     inkscape:zoom="8.8277862"
     inkscape:cx="24.808032"
     inkscape:cy="38.628031"
     inkscape:window-width="1920"
     inkscape:window-height="1019"
     inkscape:window-x="0"
     inkscape:window-y="0"
     inkscape:window-maximized="1"
     inkscape:current-layer="svg5"
     inkscape:lockguides="true" />
  <defs
     id="defs2">
    <linearGradient
       inkscape:collect="always"
       id="linearGradient4236">
      <stop
         style="stop-color:#5e9e4a;stop-opacity:1;"
         offset="0"
         id="stop4232" />
      <stop
         style="stop-color:#0f9c1e;stop-opacity:1"
         offset="1"
         id="stop4234" />
    </linearGradient>
    <linearGradient
       inkscape:collect="always"
       id="linearGradient3890">
      <stop
         style="stop-color:#b9deac;stop-opacity:1"
         offset="0"
         id="stop3886" />
      <stop
         style="stop-color:#95cd82;stop-opacity:1"
         offset="1"
         id="stop3888" />
    </linearGradient>
    <linearGradient
       inkscape:collect="always"
       id="linearGradient1721">
      <stop
         style="stop-color:#3db731;stop-opacity:1"
         offset="0"
         id="stop1717" />
      <stop
         style="stop-color:#7ede87;stop-opacity:1"
         offset="1"
         id="stop1719" />
    </linearGradient>
    <linearGradient
       inkscape:collect="always"
       xlink:href="#linearGradient3890"
       id="linearGradient3892"
       x1="5.0270834"
       y1="4.8947916"
       x2="5.0270834"
       y2="9.6572914"
       gradientUnits="userSpaceOnUse" />
    <linearGradient
       inkscape:collect="always"
       xlink:href="#linearGradient4236"
       id="linearGradient4238"
       x1="16"
       y1="21.5"
       x2="46"
       y2="47.5"
       gradientUnits="userSpaceOnUse" />
    <linearGradient
       inkscape:collect="always"
       xlink:href="#linearGradient37218"
       id="linearGradient1781"
       x1="2.8346456e-08"
       y1="2.2677165e-07"
       x2="64"
       y2="64"
       gradientUnits="userSpaceOnUse"
       gradientTransform="scale(0.26458333)" />
    <linearGradient
       inkscape:collect="always"
       id="linearGradient37218">
      <stop
         style="stop-color:#ffffff;stop-opacity:1"
         offset="0"
         id="stop37214" />
      <stop
         style="stop-color:#aeaeae;stop-opacity:0.00392157"
         offset="0.49741825"
         id="stop37220" />
      <stop
         style="stop-color:#000000;stop-opacity:1"
         offset="1"
         id="stop37216" />
    </linearGradient>
    <linearGradient
       inkscape:collect="always"
       xlink:href="#linearGradient1721"
       id="linearGradient1110"
       x1="-3.4797669e-08"
       y1="16.933334"
       x2="-6.4117432e-07"
       y2="6.7529299e-07"
       gradientUnits="userSpaceOnUse" />
  </defs>
  <path
     id="rect869"
     style="fill:url(#linearGradient1110);stroke-width:0.264583;fill-opacity:1"
     d="M 3.1749998,1.0583333 H 13.758333 c 1.172633,0 2.116666,0.9440333 2.116666,2.1166666 V 13.758334 c 0,1.172633 -0.944033,2.116666 -2.116666,2.116666 H 3.1749998 c -1.1726332,0 -2.1166665,-0.944033 -2.1166665,-2.116666 V 3.1749999 c 0,-1.1726333 0.9440333,-2.1166666 2.1166665,-2.1166666 z" />
  <path
     id="rect849"
     style="fill:#ffffff;stroke-width:1.67303;stroke-linejoin:round"
     d="M 3.1749999,2.6458333 H 11.377083 L 14.2875,5.5562499 v 8.2020831 c 0,0.293158 -0.236009,0.529167 -0.529167,0.529167 H 3.1749999 c -0.2931583,0 -0.5291666,-0.236009 -0.5291666,-0.529167 V 3.1749999 c 0,-0.2931583 0.2360083,-0.5291666 0.5291666,-0.5291666 z"
     sodipodi:nodetypes="sccssssss" />
  <path
     id="rect854"
     style="fill:url(#linearGradient4238);fill-opacity:1;stroke-width:5.43356;stroke-linejoin:round"
     d="M 18 21 L 18 46 L 46 46 L 46 21 L 18 21 z M 19 22 L 45 22 L 45 27 L 19 27 L 19 22 z M 19 28 L 27 28 L 27 33 L 19 33 L 19 28 z M 28 28 L 36 28 L 36 33 L 28 33 L 28 28 z M 37 28 L 45 28 L 45 33 L 37 33 L 37 28 z M 19 34 L 27 34 L 27 39 L 19 39 L 19 34 z M 28 34 L 36 34 L 36 39 L 28 39 L 28 34 z M 37 34 L 45 34 L 45 39 L 37 39 L 37 34 z M 19 40 L 27 40 L 27 45 L 19 45 L 19 40 z M 28 40 L 36 40 L 36 45 L 28 45 L 28 40 z M 37 40 L 45 40 L 45 45 L 37 45 L 37 40 z "
     transform="scale(0.26458333)" />
  <rect
     style="opacity:1;fill:url(#linearGradient3892);stroke-width:0.529167;stroke-linejoin:round;fill-opacity:1"
     id="rect855"
     width="6.8791666"
     height="1.3229166"
     x="5.0270834"
     y="5.8208332" />
  <rect
     style="fill:#b3b3b3;stroke-width:0.483319;stroke-linejoin:round"
     id="rect864"
     width="3.4395833"
     height="3.175"
     x="8.9958324"
     y="9.5249996"
     ry="0.26458332" />
  <rect
     style="fill:#ffffff;stroke-width:0.474913;stroke-linejoin:round"
     id="rect868"
     width="2.9104166"
     height="2.6458333"
     x="9.260416"
     y="9.7895832" />
  <rect
     style="fill:#40bdff;fill-opacity:1;stroke-width:0.683151;stroke-linejoin:round"
     id="rect1289"
     width="0.52916718"
     height="1.3229166"
     x="9.5249996"
     y="11.1125"
     ry="0" />
  <rect
     style="fill:#ff9640;fill-opacity:1;stroke-width:0.748355;stroke-linejoin:round"
     id="rect2871"
     width="0.79374999"
     height="2.1166666"
     x="10.318749"
     y="10.31875" />
  <rect
     style="fill:#ffd140;fill-opacity:1;stroke-width:0.473301;stroke-linejoin:round"
     id="rect3261"
     width="0.52916718"
     height="1.0583333"
     x="11.377083"
     y="11.377084" />
  <g
     id="g2196">
    <path
       id="rect1345"
       style="opacity:0.3;fill:url(#linearGradient1781);fill-opacity:1;stroke-width:0.264583"
       d="m 3.175,1.0583333 c -1.1726333,0 -2.1166667,0.9440334 -2.1166667,2.1166667 v 10.583333 c 0,1.172634 0.9440334,2.116667 2.1166667,2.116667 h 10.583335 c 1.172632,0 2.116666,-0.944033 2.116666,-2.116667 V 3.175 c 0,-1.1726333 -0.944034,-2.1166667 -2.116666,-2.1166667 z m 0,0.2645834 h 10.583335 c 1.026054,0 1.852083,0.8260291 1.852083,1.8520833 v 10.583333 c 0,1.026054 -0.826029,1.852084 -1.852083,1.852084 H 3.175 c -1.0260542,0 -1.8520834,-0.82603 -1.8520834,-1.852084 V 3.175 c 0,-1.0260542 0.8260292,-1.8520833 1.8520834,-1.8520833 z" />
  </g>
</svg>
