<?xml version="1.0" encoding="UTF-8" standalone="no"?>
<!-- Created with Inkscape (http://www.inkscape.org/) -->

<svg
   width="64"
   height="64"
   viewBox="0 0 16.933333 16.933333"
   version="1.1"
   id="svg5"
   inkscape:version="1.1.1 (3bf5ae0d25, 2021-09-20, custom)"
   sodipodi:docname="lightsoff.svg"
   xmlns:inkscape="http://www.inkscape.org/namespaces/inkscape"
   xmlns:sodipodi="http://sodipodi.sourceforge.net/DTD/sodipodi-0.dtd"
   xmlns:xlink="http://www.w3.org/1999/xlink"
   xmlns="http://www.w3.org/2000/svg"
   xmlns:svg="http://www.w3.org/2000/svg">
  <sodipodi:namedview
     id="namedview7"
     pagecolor="#ffffff"
     bordercolor="#666666"
     borderopacity="1.0"
     inkscape:pageshadow="2"
     inkscape:pageopacity="0.0"
     inkscape:pagecheckerboard="0"
     inkscape:document-units="px"
     showgrid="false"
     units="px"
     height="48px"
     inkscape:zoom="8.7173008"
     inkscape:cx="13.5363"
     inkscape:cy="35.045252"
     inkscape:window-width="1920"
     inkscape:window-height="1011"
     inkscape:window-x="0"
     inkscape:window-y="0"
     inkscape:window-maximized="1"
     inkscape:current-layer="svg5"
     inkscape:lockguides="true" />
  <defs
     id="defs2">
    <linearGradient
       inkscape:collect="always"
       id="linearGradient7252">
      <stop
         style="stop-color:#0082e6;stop-opacity:1;"
         offset="0"
         id="stop7248" />
      <stop
         style="stop-color:#09d3ff;stop-opacity:1"
         offset="1"
         id="stop7250" />
    </linearGradient>
    <linearGradient
       inkscape:collect="always"
       id="linearGradient6822">
      <stop
         style="stop-color:#4d4d4d;stop-opacity:1;"
         offset="0"
         id="stop6818" />
      <stop
         style="stop-color:#808080;stop-opacity:1"
         offset="1"
         id="stop6820" />
    </linearGradient>
    <linearGradient
       inkscape:collect="always"
       id="linearGradient9568">
      <stop
         style="stop-color:#000000;stop-opacity:1;"
         offset="0"
         id="stop9564" />
      <stop
         style="stop-color:#000000;stop-opacity:0;"
         offset="1"
         id="stop9566" />
    </linearGradient>
    <linearGradient
       inkscape:collect="always"
       id="linearGradient3453">
      <stop
         style="stop-color:#ececec;stop-opacity:1"
         offset="0"
         id="stop3449" />
      <stop
         style="stop-color:#f2f2f2;stop-opacity:1"
         offset="1"
         id="stop3451" />
    </linearGradient>
    <linearGradient
       inkscape:collect="always"
       xlink:href="#linearGradient37218"
       id="linearGradient1781"
       x1="2.8346456e-08"
       y1="2.2677165e-07"
       x2="64"
       y2="64"
       gradientUnits="userSpaceOnUse"
       gradientTransform="scale(0.26458333)" />
    <linearGradient
       inkscape:collect="always"
       id="linearGradient37218">
      <stop
         style="stop-color:#ffffff;stop-opacity:1"
         offset="0"
         id="stop37214" />
      <stop
         style="stop-color:#717171;stop-opacity:0.00392157"
         offset="0.49741825"
         id="stop37220" />
      <stop
         style="stop-color:#000000;stop-opacity:1"
         offset="1"
         id="stop37216" />
    </linearGradient>
    <linearGradient
       inkscape:collect="always"
       xlink:href="#linearGradient3453"
       id="linearGradient3455"
       x1="12.170833"
       y1="16.933334"
       x2="12.170834"
       y2="6.7529299e-07"
       gradientUnits="userSpaceOnUse" />
    <linearGradient
       inkscape:collect="always"
       xlink:href="#linearGradient9568"
       id="linearGradient9570"
       x1="11"
       y1="54.735352"
       x2="59"
       y2="18.735352"
       gradientUnits="userSpaceOnUse"
       gradientTransform="matrix(0.26458333,0,0,0.26458333,-0.26458269,0.26458403)" />
    <linearGradient
       inkscape:collect="always"
       xlink:href="#linearGradient6822"
       id="linearGradient6824"
       x1="5.5562506"
       y1="3.1750004"
       x2="5.5562501"
       y2="8.4666672"
       gradientUnits="userSpaceOnUse" />
    <linearGradient
       inkscape:collect="always"
       xlink:href="#linearGradient6822"
       id="linearGradient7118"
       x1="11.90625"
       y1="8.4666672"
       x2="11.90625"
       y2="13.758333"
       gradientUnits="userSpaceOnUse" />
    <linearGradient
       inkscape:collect="always"
       xlink:href="#linearGradient7252"
       id="linearGradient7254"
       x1="11.377083"
       y1="3.175"
       x2="11.377082"
       y2="8.4666662"
       gradientUnits="userSpaceOnUse" />
    <linearGradient
       inkscape:collect="always"
       xlink:href="#linearGradient7252"
       id="linearGradient7390"
       x1="6.0854168"
       y1="8.4666672"
       x2="6.0854158"
       y2="13.758333"
       gradientUnits="userSpaceOnUse" />
  </defs>
  <path
     id="rect863"
     style="fill:url(#linearGradient3455);stroke-width:0.264583;fill-opacity:1"
     d="M 3.1750003,1.0583333 H 13.758333 c 1.172634,0 2.116667,0.944034 2.116667,2.116667 V 13.758333 c 0,1.172634 -0.944033,2.116667 -2.116667,2.116667 H 3.1750003 c -1.172633,0 -2.116667,-0.944033 -2.116667,-2.116667 V 3.1750003 c 0,-1.172633 0.944034,-2.116667 2.116667,-2.116667 z" />
  <path
     id="rect1345"
     style="opacity:0.3;fill:url(#linearGradient1781);fill-opacity:1;stroke-width:0.264583"
     d="m 3.1750003,1.0583333 c -1.172633,0 -2.116667,0.944034 -2.116667,2.116667 V 13.758333 c 0,1.172634 0.944034,2.116667 2.116667,2.116667 H 13.758334 c 1.172633,0 2.116666,-0.944033 2.116666,-2.116667 V 3.1750003 c 0,-1.172633 -0.944033,-2.116667 -2.116666,-2.116667 z m 0,0.264584 H 13.758334 c 1.026054,0 1.852083,0.826029 1.852083,1.852083 V 13.758333 c 0,1.026054 -0.826029,1.852084 -1.852083,1.852084 H 3.1750003 c -1.026054,0 -1.852083,-0.82603 -1.852083,-1.852084 V 3.1750003 c 0,-1.026054 0.826029,-1.852083 1.852083,-1.852083 z" />
  <path
     id="path964-5"
     style="opacity:0.3;fill:url(#linearGradient9570);fill-opacity:1;stroke-width:0.202947"
     d="m 3.4395839,7.4083339 v 0.2645833 c 0,0.4397373 0.3540125,0.79375 0.79375,0.79375 h 3.175 c 0.4397375,0 0.79375,-0.3540127 0.79375,-0.79375 V 7.4083339 c 0,0.4397375 -0.3540125,0.79375 -0.79375,0.79375 h -3.175 c -0.4397375,0 -0.79375,-0.3540125 -0.79375,-0.79375 z m 5.2916666,0 v 0.2645833 c 0,0.4397373 0.3540125,0.79375 0.79375,0.79375 H 12.7 c 0.439738,0 0.79375,-0.3540127 0.79375,-0.79375 V 7.4083339 c 0,0.4397375 -0.354012,0.79375 -0.79375,0.79375 H 9.5250005 c -0.4397375,0 -0.79375,-0.3540125 -0.79375,-0.79375 z M 3.4395839,12.700001 v 0.264583 c 0,0.439737 0.3540125,0.79375 0.79375,0.79375 h 3.175 c 0.4397375,0 0.79375,-0.354013 0.79375,-0.79375 v -0.264583 c 0,0.439736 -0.3540125,0.793749 -0.79375,0.793749 h -3.175 c -0.4397375,0 -0.79375,-0.354013 -0.79375,-0.793749 z m 5.2916666,0 v 0.264583 c 0,0.439737 0.3540125,0.79375 0.79375,0.79375 H 12.7 c 0.439738,0 0.79375,-0.354013 0.79375,-0.79375 v -0.264583 c 0,0.439736 -0.354012,0.793749 -0.79375,0.793749 H 9.5250005 c -0.4397375,0 -0.79375,-0.354013 -0.79375,-0.793749 z"
     sodipodi:nodetypes="csssscssccsssscssccsssscssccsssscssc" />
  <rect
     style="opacity:1;fill:url(#linearGradient6824);stroke-width:1.99231;stroke-linecap:round;stroke-linejoin:round;fill-opacity:1"
     id="rect1204"
     width="4.7624998"
     height="4.7624998"
     x="3.439584"
     y="3.439584"
     ry="0.79374999" />
  <rect
     style="opacity:1;fill:url(#linearGradient7118);stroke-width:1.99231;stroke-linecap:round;stroke-linejoin:round;fill-opacity:1"
     id="rect1484"
     width="4.7624998"
     height="4.7624998"
     x="8.7312498"
     y="8.7312498"
     ry="0.79374999" />
  <rect
     style="opacity:1;fill:url(#linearGradient7390);fill-opacity:1;stroke-width:1.99231;stroke-linecap:round;stroke-linejoin:round"
     id="rect1588"
     width="4.7624998"
     height="4.7624998"
     x="3.4395833"
     y="8.7312498"
     ry="0.79374999" />
  <rect
     style="opacity:1;fill:url(#linearGradient7254);fill-opacity:1;stroke-width:1.99231;stroke-linecap:round;stroke-linejoin:round"
     id="rect2610"
     width="4.7624993"
     height="4.7624998"
     x="8.7312498"
     y="3.4395833"
     ry="0.79374999" />
</svg>
