<?xml version="1.0" encoding="UTF-8" standalone="no"?>
<!-- Created with Inkscape (http://www.inkscape.org/) -->

<svg
   width="64"
   height="64"
   viewBox="0 0 16.933333 16.933333"
   version="1.1"
   id="svg5"
   inkscape:version="1.1.1 (3bf5ae0d25, 2021-09-20, custom)"
   sodipodi:docname="login.svg"
   xmlns:inkscape="http://www.inkscape.org/namespaces/inkscape"
   xmlns:sodipodi="http://sodipodi.sourceforge.net/DTD/sodipodi-0.dtd"
   xmlns:xlink="http://www.w3.org/1999/xlink"
   xmlns="http://www.w3.org/2000/svg"
   xmlns:svg="http://www.w3.org/2000/svg">
  <sodipodi:namedview
     id="namedview7"
     pagecolor="#ffffff"
     bordercolor="#666666"
     borderopacity="1.0"
     inkscape:pageshadow="2"
     inkscape:pageopacity="0.0"
     inkscape:pagecheckerboard="0"
     inkscape:document-units="px"
     showgrid="false"
     units="px"
     height="48px"
     inkscape:zoom="4"
     inkscape:cx="78.75"
     inkscape:cy="99.125"
     inkscape:window-width="1920"
     inkscape:window-height="1011"
     inkscape:window-x="0"
     inkscape:window-y="0"
     inkscape:window-maximized="1"
     inkscape:current-layer="svg5"
     inkscape:lockguides="true"
     showguides="true" />
  <defs
     id="defs2">
    <linearGradient
       inkscape:collect="always"
       id="linearGradient6859">
      <stop
         style="stop-color:#7ddefe;stop-opacity:1"
         offset="0"
         id="stop6855" />
      <stop
         style="stop-color:#0279f3;stop-opacity:1"
         offset="1"
         id="stop6857" />
    </linearGradient>
    <linearGradient
       inkscape:collect="always"
       xlink:href="#linearGradient37218"
       id="linearGradient1781"
       x1="2.8346456e-08"
       y1="2.2677165e-07"
       x2="64"
       y2="64"
       gradientUnits="userSpaceOnUse"
       gradientTransform="scale(0.26458333)" />
    <linearGradient
       inkscape:collect="always"
       id="linearGradient37218">
      <stop
         style="stop-color:#ffffff;stop-opacity:1"
         offset="0"
         id="stop37214" />
      <stop
         style="stop-color:#fefefe;stop-opacity:0.00392157"
         offset="0.49741825"
         id="stop37220" />
      <stop
         style="stop-color:#808080;stop-opacity:1"
         offset="1"
         id="stop37216" />
    </linearGradient>
    <linearGradient
       inkscape:collect="always"
       xlink:href="#linearGradient6859"
       id="linearGradient6861"
       x1="11.641666"
       y1="-1.0583327"
       x2="11.641666"
       y2="16.933334"
       gradientUnits="userSpaceOnUse" />
  </defs>
  <path
     id="rect863"
     style="fill:url(#linearGradient6861);stroke-width:0.264583;fill-opacity:1"
     d="M 3.1750003,1.0583333 H 13.758333 c 1.172634,0 2.116667,0.944034 2.116667,2.116667 V 13.758333 c 0,1.172634 -0.944033,2.116667 -2.116667,2.116667 H 3.1750003 c -1.172633,0 -2.116667,-0.944033 -2.116667,-2.116667 V 3.1750003 c 0,-1.172633 0.944034,-2.116667 2.116667,-2.116667 z" />
  <path
     id="rect1345"
     style="opacity:0.3;fill:url(#linearGradient1781);fill-opacity:1;stroke-width:0.264583"
     d="m 3.1750003,1.0583333 c -1.172633,0 -2.116667,0.944034 -2.116667,2.116667 V 13.758333 c 0,1.172634 0.944034,2.116667 2.116667,2.116667 H 13.758334 c 1.172633,0 2.116666,-0.944033 2.116666,-2.116667 V 3.1750003 c 0,-1.172633 -0.944033,-2.116667 -2.116666,-2.116667 z m 0,0.264584 H 13.758334 c 1.026054,0 1.852083,0.826029 1.852083,1.852083 V 13.758333 c 0,1.026054 -0.826029,1.852084 -1.852083,1.852084 H 3.1750003 c -1.026054,0 -1.852083,-0.82603 -1.852083,-1.852084 V 3.1750003 c 0,-1.026054 0.826029,-1.852083 1.852083,-1.852083 z" />
  <rect
     style="opacity:0.5;fill:#ffffff;fill-opacity:1;stroke-width:2.38125;stroke-linecap:round;stroke-linejoin:round"
     id="rect1059"
     width="11.641666"
     height="11.641666"
     x="2.6458333"
     y="2.6458333"
     ry="1.0583333" />
  <path
     id="rect1283"
     style="opacity:1;fill:#ffffff;stroke-width:2.10766;stroke-linecap:round;stroke-linejoin:round"
     d="M 4.2333332,7.4083331 H 12.7 c 0.146579,0 0.264583,0.118005 0.264583,0.2645837 v 1.5874998 c 0,0.146579 -0.118004,0.2645827 -0.264583,0.2645827 H 4.2333332 c -0.1465791,0 -0.2645833,-0.1180037 -0.2645833,-0.2645827 V 7.6729168 c 0,-0.1465787 0.1180042,-0.2645837 0.2645833,-0.2645837 z"
     sodipodi:nodetypes="sssssssss" />
  <rect
     style="opacity:1;fill:#ffffff;fill-opacity:1;stroke-width:1.34775;stroke-linecap:round;stroke-linejoin:round"
     id="rect1737"
     width="5.0270834"
     height="0.52916664"
     x="3.96875"
     y="5.8208332" />
  <circle
     style="opacity:1;fill:#4d4d4d;fill-opacity:1;stroke-width:1.905;stroke-linecap:round;stroke-linejoin:round"
     id="path1943"
     cx="5.0270834"
     cy="8.4666662"
     r="0.52916664" />
  <circle
     style="fill:#4d4d4d;fill-opacity:1;stroke-width:1.905;stroke-linecap:round;stroke-linejoin:round"
     id="path1943-3"
     cx="6.614583"
     cy="8.4666662"
     r="0.52916664" />
  <circle
     style="fill:#4d4d4d;fill-opacity:1;stroke-width:1.905;stroke-linecap:round;stroke-linejoin:round"
     id="path1943-3-6"
     cx="8.2020836"
     cy="8.4666662"
     r="0.52916664" />
  <circle
     style="fill:#4d4d4d;fill-opacity:1;stroke-width:1.905;stroke-linecap:round;stroke-linejoin:round"
     id="path1943-3-7"
     cx="9.7895832"
     cy="8.4666662"
     r="0.52916664" />
</svg>
