<?xml version="1.0" encoding="UTF-8" standalone="no"?>
<!-- Created with Inkscape (http://www.inkscape.org/) -->

<svg
   width="64"
   height="64"
   viewBox="0 0 16.933333 16.933333"
   version="1.1"
   id="svg5"
   inkscape:version="1.1.1 (3bf5ae0d25, 2021-09-20, custom)"
   sodipodi:docname="lollypop.svg"
   xmlns:inkscape="http://www.inkscape.org/namespaces/inkscape"
   xmlns:sodipodi="http://sodipodi.sourceforge.net/DTD/sodipodi-0.dtd"
   xmlns:xlink="http://www.w3.org/1999/xlink"
   xmlns="http://www.w3.org/2000/svg"
   xmlns:svg="http://www.w3.org/2000/svg">
  <sodipodi:namedview
     id="namedview7"
     pagecolor="#ffffff"
     bordercolor="#666666"
     borderopacity="1.0"
     inkscape:pageshadow="2"
     inkscape:pageopacity="0.0"
     inkscape:pagecheckerboard="0"
     inkscape:document-units="px"
     showgrid="false"
     units="px"
     height="48px"
     inkscape:zoom="7.9999996"
     inkscape:cx="7.8750003"
     inkscape:cy="34.187501"
     inkscape:window-width="1920"
     inkscape:window-height="1019"
     inkscape:window-x="0"
     inkscape:window-y="0"
     inkscape:window-maximized="1"
     inkscape:current-layer="svg5"
     inkscape:lockguides="true" />
  <defs
     id="defs2">
    <linearGradient
       inkscape:collect="always"
       id="linearGradient2151">
      <stop
         style="stop-color:#ffffff;stop-opacity:1;"
         offset="0"
         id="stop2147" />
      <stop
         style="stop-color:#fb8cc7;stop-opacity:1"
         offset="1"
         id="stop2149" />
    </linearGradient>
    <linearGradient
       inkscape:collect="always"
       id="linearGradient1595">
      <stop
         style="stop-color:#fe1574;stop-opacity:1"
         offset="0"
         id="stop1591" />
      <stop
         style="stop-color:#ff7ec3;stop-opacity:1"
         offset="1"
         id="stop1593" />
    </linearGradient>
    <linearGradient
       inkscape:collect="always"
       id="linearGradient37218">
      <stop
         style="stop-color:#1a1a1a;stop-opacity:1"
         offset="0"
         id="stop37214" />
      <stop
         style="stop-color:#e6e6e6;stop-opacity:0.00306325"
         offset="0.49741825"
         id="stop37220" />
      <stop
         style="stop-color:#ffffff;stop-opacity:1"
         offset="1"
         id="stop37216" />
    </linearGradient>
    <linearGradient
       inkscape:collect="always"
       xlink:href="#linearGradient37218"
       id="linearGradient881"
       x1="64.208344"
       y1="64.062607"
       x2="0.30528301"
       y2="0.13507102"
       gradientUnits="userSpaceOnUse" />
    <linearGradient
       inkscape:collect="always"
       xlink:href="#linearGradient1595"
       id="linearGradient1597"
       x1="11.641666"
       y1="16.933332"
       x2="11.641666"
       y2="-2.7838135e-07"
       gradientUnits="userSpaceOnUse" />
    <linearGradient
       inkscape:collect="always"
       xlink:href="#linearGradient4701"
       id="linearGradient4703"
       x1="8.9953117"
       y1="4.4414716"
       x2="8.9726896"
       y2="13.810887"
       gradientUnits="userSpaceOnUse"
       gradientTransform="matrix(0.54537662,0,0,0.54537662,3.9694875,3.8490173)" />
    <linearGradient
       inkscape:collect="always"
       id="linearGradient4701">
      <stop
         style="stop-color:#ffffff;stop-opacity:1;"
         offset="0"
         id="stop4697" />
      <stop
         style="stop-color:#ffffff;stop-opacity:0;"
         offset="1"
         id="stop4699" />
    </linearGradient>
    <linearGradient
       inkscape:collect="always"
       xlink:href="#linearGradient5446"
       id="linearGradient6596"
       gradientUnits="userSpaceOnUse"
       gradientTransform="matrix(0.54537662,0,0,0.54537662,3.9694876,4.1136003)"
       x1="-2.6480181"
       y1="18.995634"
       x2="19.645742"
       y2="2.1675575" />
    <linearGradient
       inkscape:collect="always"
       id="linearGradient5446">
      <stop
         style="stop-color:#000000;stop-opacity:1;"
         offset="0"
         id="stop5442" />
      <stop
         style="stop-color:#000000;stop-opacity:0;"
         offset="1"
         id="stop5444" />
    </linearGradient>
    <linearGradient
       inkscape:collect="always"
       xlink:href="#linearGradient2151"
       id="linearGradient7228"
       gradientUnits="userSpaceOnUse"
       gradientTransform="matrix(0.54537662,0,0,0.54537662,3.9694876,3.8490173)"
       x1="8.9953117"
       y1="4.4414716"
       x2="8.9726896"
       y2="21.573107" />
  </defs>
  <path
     id="rect846-3"
     style="fill:url(#linearGradient1597);stroke-width:0.337527;fill-opacity:1"
     d="m 3.175,1.5875 h 10.583333 c 0.879475,0 1.5875,0.708025 1.5875,1.5875 v 10.583333 c 0,0.879475 -0.708025,1.5875 -1.5875,1.5875 H 3.175 c -0.879475,0 -1.5875,-0.708025 -1.5875,-1.5875 V 3.175 c 0,-0.879475 0.708025,-1.5875 1.5875,-1.5875 z" />
  <path
     id="rect846"
     style="opacity:0.3;fill:url(#linearGradient881);stroke-width:1.27569;fill-opacity:1"
     d="M 12 6 C 8.6760005 6 6 8.6760005 6 12 L 6 52 C 6 55.324 8.6760005 58 12 58 L 52 58 C 55.324 58 58 55.324 58 52 L 58 12 C 58 8.6760005 55.324 6 52 6 L 12 6 z M 12 7 L 52 7 C 54.77 7 57 9.23 57 12 L 57 52 C 57 54.77 54.77 57 52 57 L 12 57 C 9.23 57 7 54.77 7 52 L 7 12 C 7 9.23 9.23 7 12 7 z "
     transform="scale(0.26458333)" />
  <path
     style="color:#000000;fill:url(#linearGradient4703);fill-opacity:1;stroke-width:0.545377;stroke-linecap:round;stroke-linejoin:round;stroke-miterlimit:1;-inkscape-stroke:none"
     d="m 7.646519,6.9210213 c -0.2264634,-0.12324 -0.5023612,0.040428 -0.5027691,0.298253 v 2.721557 c 4.079e-4,0.2578247 0.2763057,0.4214937 0.5027691,0.2982537 l 2.494673,-1.3602467 c 0.236744,-0.128846 0.236744,-0.468725 0,-0.597571 z"
     id="path3846"
     sodipodi:nodetypes="ccccccc" />
  <path
     id="path3846-79"
     style="color:#000000;opacity:0.3;fill:url(#linearGradient6596);fill-opacity:1;stroke-width:0.545378;stroke-linecap:round;stroke-linejoin:round;stroke-miterlimit:1;-inkscape-stroke:none"
     d="m 9.6045814,4.1160273 c -0.435249,0.429197 -0.697752,0.959414 -0.845943,1.509986 -0.03191,0.118874 -0.141572,0.200052 -0.2645832,0.195853 -0.00903,-3.17e-4 -0.01783,-8.2e-4 -0.026872,-0.001 -0.4777256,0.0037 -0.9456507,0.136861 -1.3539224,0.38499 -0.144857,0.08798 -0.3339224,0.019 -0.38809,-0.141594 -0.1684422,-0.498233 -0.276859,-1.046752 -0.2671673,-1.619022 -0.4410514,0.22003 -0.8429386,0.511058 -1.1895915,0.861446 0.018026,0.06927 0.038863,0.137055 0.061495,0.203605 0.3323947,-0.323292 0.7128677,-0.59332 1.1280965,-0.800468 -0.00969,0.57227 0.098725,1.12079 0.2671673,1.619023 0.054168,0.16059 0.243233,0.22957 0.38809,0.141593 0.4082717,-0.248129 0.8761968,-0.381314 1.3539224,-0.384989 0.00904,2.18e-4 0.017838,7.14e-4 0.026872,0.001 0.1230112,0.0042 0.2326732,-0.07698 0.2645832,-0.195854 0.148191,-0.550568 0.410694,-1.080789 0.845943,-1.509985 0.394962,0.103193 0.7733946,0.259603 1.1255126,0.464571 0.07087,-0.04494 0.143195,-0.08856 0.217558,-0.129708 -0.411768,-0.272153 -0.865523,-0.474675 -1.3430706,-0.599447 z m 0.04909,1.939934 c -0.07329,0.124866 -0.03298,0.290712 0.09922,0.364318 0.4279086,0.238184 0.7810456,0.590372 1.0206086,1.017509 0.05904,0.10567 0.182254,0.157808 0.299207,0.126608 0.551279,-0.14713 1.141191,-0.185697 1.730643,-0.02326 0.08901,0.323426 0.140927,0.65543 0.156063,0.990121 0.0014,-0.02156 0.0041,-0.04302 0.0052,-0.0646 -2.91e-4,-0.402126 -0.05453,-0.802397 -0.161231,-1.190108 -0.589451,-0.162443 -1.179365,-0.123875 -1.730643,0.02325 -0.116954,0.0312 -0.240167,-0.02094 -0.299207,-0.126607 -0.239563,-0.427138 -0.592701,-0.779325 -1.0206086,-1.017509 -0.04393,-0.02446 -0.07629,-0.05975 -0.09922,-0.09974 z m -3.4525026,1.065051 c -5.821e-4,10e-4 -9.525e-4,0.0021 -0.00156,0.0031 -0.2432056,0.404219 -0.3730533,0.866266 -0.3777549,1.337902 7.408e-4,0.0073 0.00127,0.0144 0.00206,0.0217 0.019592,0.178031 -0.1396404,0.32369 -0.3152264,0.288355 -0.5102049,-0.102749 -1.0334549,-0.281232 -1.519267,-0.57102 -0.00951,0.08832 -0.016406,0.176894 -0.020671,0.265617 4.763e-4,0.05244 0.0044,0.104755 0.00672,0.157096 0.0038,-0.05274 0.00829,-0.105553 0.013952,-0.158129 0.485812,0.289788 1.0090621,0.46827 1.519287,0.571024 0.1755859,0.03534 0.3348188,-0.110323 0.3152264,-0.288354 -7.938e-4,-0.0073 -0.00132,-0.01439 -0.00206,-0.0217 0.0047,-0.471637 0.1345494,-0.933684 0.3777549,-1.337903 0.050353,-0.08379 0.048522,-0.185998 0.00156,-0.267684 z m 1.2712403,0.02274 c -0.1731547,0.0061 -0.3283563,0.146663 -0.3286622,0.340031 v 2.7217977 c 3.969e-4,0.257824 0.2763483,0.421412 0.5028118,0.298173 L 10.14098,9.1436303 c 0.236743,-0.128846 0.236743,-0.46905 0,-0.597896 L 7.6465617,7.1856073 c -0.056616,-0.03081 -0.1164315,-0.0439 -0.1741496,-0.04186 z m -4.0302449,1.428337 c -0.00164,0.05287 -0.00258,0.105894 -0.00258,0.159163 3e-7,2.7763807 2.2507019,5.0270837 5.0270833,5.0270837 2.7763815,0 5.0270825,-2.250703 5.0270825,-5.0270837 0,-0.05327 -9.26e-4,-0.106292 -0.0026,-0.159163 -0.05626,2.7275707 -2.283436,4.9216627 -5.0244905,4.9216627 -2.7410545,0 -4.9682275,-2.194092 -5.0244994,-4.9216627 z m 7.2899938,1.5048177 c -0.06049,0.103719 -0.04381,0.235324 0.04134,0.320394 0.343655,0.342809 0.616128,0.916959 0.794784,1.3255 0.02714,-0.02574 0.05462,-0.05108 0.08113,-0.07751 -0.171021,-0.399388 -0.475815,-1.113452 -0.875916,-1.512569 -0.01682,-0.01681 -0.02992,-0.03594 -0.04134,-0.05581 z m -3.4437171,1.053682 c -0.00853,0.01472 -0.01773,0.02952 -0.029455,0.04289 -0.3457736,0.393708 -0.7646085,0.760985 -1.2624554,1.038696 0.071422,0.04694 0.14424,0.09112 0.2180746,0.133842 0.4033004,-0.257731 0.7503792,-0.573195 1.0443808,-0.907955 0.078288,-0.08929 0.084129,-0.213246 0.029455,-0.307475 z" />
  <path
     id="path3846-9"
     style="color:#000000;fill:url(#linearGradient7228);fill-opacity:1;stroke-width:0.545378;stroke-linecap:round;stroke-linejoin:round;stroke-miterlimit:1;-inkscape-stroke:none"
     d="m 8.4666666,3.4395833 c -2.7763811,0 -5.0270833,2.250702 -5.0270833,5.027083 0,2.7763817 2.2507022,5.0270827 5.0270833,5.0270827 2.7763814,0 5.0270814,-2.250701 5.0270824,-5.0270827 -10e-7,-2.776381 -2.250701,-5.027083 -5.0270824,-5.027083 z m 1.1379148,0.676444 c 0.4775476,0.124771 0.9313026,0.327294 1.3430706,0.599447 -0.498356,0.275783 -0.917902,0.641197 -1.2645226,1.034045 -0.111649,0.126644 -0.07774,0.324045 0.06976,0.406177 0.4279066,0.238184 0.7810456,0.590371 1.0206086,1.017509 0.05904,0.10567 0.182253,0.157807 0.299207,0.126607 0.551278,-0.147129 1.141191,-0.185697 1.730643,-0.02325 0.106701,0.387711 0.160929,0.787982 0.161231,1.190108 -0.0045,0.09115 -0.0117,0.182142 -0.0217,0.272852 -0.491082,-0.289588 -1.003704,-0.474442 -1.515153,-0.577743 -0.02103,-0.0042 -0.04167,-0.0059 -0.06201,-0.0052 -0.142404,0.005 -0.260951,0.125361 -0.254764,0.275435 4.76e-4,0.01153 7.4e-4,0.02308 0.001,0.03462 -0.0039,0.473275 -0.134254,0.936987 -0.378271,1.342554 -0.0626,0.104174 -0.04619,0.2375957 0.03979,0.3234937 0.400101,0.399118 0.704895,1.113182 0.875915,1.51257 -0.343371,0.342399 -0.739851,0.62702 -1.174088,0.842842 0.0097,-0.57227 -0.09872,-1.120789 -0.267167,-1.619022 -0.02576,-0.07609 -0.0847,-0.136358 -0.160197,-0.163815 -0.02828,-0.01033 -0.05793,-0.01562 -0.08733,-0.01602 -0.049,-6.62e-4 -0.09765,0.01225 -0.14056,0.03824 -0.406905,0.247299 -0.87321,0.379431 -1.349271,0.383956 -0.0041,-4.23e-4 -0.0083,-6.61e-4 -0.012401,-10e-4 -0.129314,-0.01361 -0.2493518,0.06875 -0.2831867,0.194304 -0.1470752,0.547681 -0.4062275,1.074616 -0.8366416,1.50275 -0.476931,-0.123597 -0.9303149,-0.324713 -1.342037,-0.595312 0.4978461,-0.277711 0.9166823,-0.644988 1.2624554,-1.038696 0.1111239,-0.126741 0.077,-0.323688 -0.07028,-0.40566 C 6.7629112,10.530619 6.4110569,10.180552 6.17169,9.7559943 6.11233,9.6507203 5.9891933,9.5990383 5.8724833,9.6304203 c -0.5512128,0.148771 -1.1411075,0.189592 -1.7311603,0.02946 -0.1108191,-0.38819 -0.1688732,-0.78953 -0.1725994,-1.19321 0.0043,-0.08872 0.01116,-0.177301 0.020672,-0.265617 0.4858121,0.289788 1.0090621,0.468271 1.519287,0.571025 0.1755852,0.03534 0.3348183,-0.110324 0.3152264,-0.288355 -7.937e-4,-0.0073 -0.00127,-0.01439 -0.00206,-0.0217 0.0047,-0.471635 0.1345499,-0.933683 0.3777549,-1.337902 0.0626,-0.104175 0.046189,-0.237598 -0.039791,-0.323495 -0.405845,-0.404945 -0.7365424,-0.898939 -0.8913964,-1.493973 0.3466531,-0.350388 0.7485406,-0.641416 1.1895915,-0.861447 -0.0097,0.572271 0.09872,1.12079 0.2671672,1.619023 0.05417,0.160591 0.2432331,0.229571 0.3880901,0.141593 0.4082719,-0.248128 0.8761965,-0.381314 1.3539224,-0.384989 0.009,2.19e-4 0.017841,7.14e-4 0.026872,10e-4 0.1230103,0.0042 0.2326733,-0.07698 0.2645833,-0.195854 0.148191,-0.550571 0.410694,-1.080789 0.845943,-1.509985 z m -2.1321693,2.763139 c -0.1731547,0.0061 -0.3283563,0.146662 -0.3286622,0.340031 v 2.721798 C 7.1441468,10.19882 7.4200982,10.362407 7.6465617,10.239168 L 10.140983,8.8790443 c 0.236743,-0.128846 0.236743,-0.469051 0,-0.597896 L 7.6465617,6.9210243 c -0.056616,-0.03081 -0.1164315,-0.0439 -0.1741496,-0.04186 z" />
</svg>
