<?xml version="1.0" encoding="UTF-8" standalone="no"?>
<!-- Created with Inkscape (http://www.inkscape.org/) -->

<svg
   width="64"
   height="64"
   viewBox="0 0 16.933333 16.933333"
   version="1.1"
   id="svg5"
   inkscape:version="1.1.1 (3bf5ae0d25, 2021-09-20, custom)"
   sodipodi:docname="org.gnome.Lollypop.svg"
   xmlns:inkscape="http://www.inkscape.org/namespaces/inkscape"
   xmlns:sodipodi="http://sodipodi.sourceforge.net/DTD/sodipodi-0.dtd"
   xmlns:xlink="http://www.w3.org/1999/xlink"
   xmlns="http://www.w3.org/2000/svg"
   xmlns:svg="http://www.w3.org/2000/svg">
  <sodipodi:namedview
     id="namedview7"
     pagecolor="#ffffff"
     bordercolor="#666666"
     borderopacity="1.0"
     inkscape:pageshadow="2"
     inkscape:pageopacity="0.0"
     inkscape:pagecheckerboard="0"
     inkscape:document-units="px"
     showgrid="false"
     units="px"
     height="48px"
     inkscape:zoom="11.313708"
     inkscape:cx="22.804195"
     inkscape:cy="28.68202"
     inkscape:window-width="1920"
     inkscape:window-height="1011"
     inkscape:window-x="0"
     inkscape:window-y="0"
     inkscape:window-maximized="1"
     inkscape:current-layer="svg5"
     inkscape:lockguides="true" />
  <defs
     id="defs2">
    <linearGradient
       inkscape:collect="always"
       id="linearGradient2395">
      <stop
         style="stop-color:#000000;stop-opacity:1;"
         offset="0"
         id="stop2391" />
      <stop
         style="stop-color:#000000;stop-opacity:0;"
         offset="1"
         id="stop2393" />
    </linearGradient>
    <linearGradient
       inkscape:collect="always"
       id="linearGradient1595">
      <stop
         style="stop-color:#fb5164;stop-opacity:1"
         offset="0"
         id="stop1591" />
      <stop
         style="stop-color:#ff92cc;stop-opacity:1"
         offset="1"
         id="stop1593" />
    </linearGradient>
    <linearGradient
       inkscape:collect="always"
       xlink:href="#linearGradient4701"
       id="linearGradient4703"
       x1="8.9953117"
       y1="4.4414716"
       x2="8.9726896"
       y2="13.810887"
       gradientUnits="userSpaceOnUse"
       gradientTransform="matrix(0.54537662,0,0,0.54537662,3.9694875,3.8490173)" />
    <linearGradient
       inkscape:collect="always"
       id="linearGradient4701">
      <stop
         style="stop-color:#ffffff;stop-opacity:1;"
         offset="0"
         id="stop4697" />
      <stop
         style="stop-color:#ffffff;stop-opacity:0;"
         offset="1"
         id="stop4699" />
    </linearGradient>
    <linearGradient
       inkscape:collect="always"
       xlink:href="#linearGradient4701"
       id="linearGradient7228"
       gradientUnits="userSpaceOnUse"
       gradientTransform="matrix(0.57408072,0,0,0.57408072,3.7327941,3.6059832)"
       x1="8.9953117"
       y1="4.4414716"
       x2="8.9726896"
       y2="21.573107" />
    <linearGradient
       inkscape:collect="always"
       xlink:href="#linearGradient1595"
       id="linearGradient1041"
       x1="0.52916664"
       y1="16.933332"
       x2="0.529167"
       y2="-2.7838135e-07"
       gradientUnits="userSpaceOnUse" />
    <linearGradient
       inkscape:collect="always"
       xlink:href="#linearGradient37218"
       id="linearGradient1781"
       x1="2.8346456e-08"
       y1="2.2677165e-07"
       x2="64"
       y2="64"
       gradientUnits="userSpaceOnUse"
       gradientTransform="scale(0.26458333)" />
    <linearGradient
       inkscape:collect="always"
       id="linearGradient37218">
      <stop
         style="stop-color:#ffffff;stop-opacity:1"
         offset="0"
         id="stop37214" />
      <stop
         style="stop-color:#717171;stop-opacity:0.00392157"
         offset="0.49741825"
         id="stop37220" />
      <stop
         style="stop-color:#f6f6f6;stop-opacity:1"
         offset="1"
         id="stop37216" />
    </linearGradient>
    <linearGradient
       inkscape:collect="always"
       xlink:href="#linearGradient2395"
       id="linearGradient2397"
       x1="1.5875"
       y1="14.287497"
       x2="15.345832"
       y2="5.8208299"
       gradientUnits="userSpaceOnUse"
       gradientTransform="matrix(3.7795276,0,0,3.7795276,0,1.0000085)" />
  </defs>
  <rect
     style="opacity:1;fill:url(#linearGradient1041);fill-opacity:1;stroke-width:0.264583"
     id="rect865"
     width="14.816667"
     height="14.816667"
     x="1.0583333"
     y="1.0583333"
     ry="2.1166666" />
  <path
     id="path3846-9"
     style="color:#000000;fill:url(#linearGradient7228);fill-opacity:1;stroke-width:0.574082;stroke-linecap:round;stroke-linejoin:round;stroke-miterlimit:1;-inkscape-stroke:none"
     d="m 8.4666669,3.1749999 c -2.9225066,0 -5.291667,2.3691602 -5.291667,5.2916667 0,2.9225074 2.3691604,5.2916664 5.291667,5.2916664 2.9225071,0 5.2916651,-2.369159 5.2916661,-5.2916664 -1e-6,-2.9225065 -2.369159,-5.2916667 -5.2916661,-5.2916667 z m 1.1978052,0.7120464 c 0.5026819,0.1313379 0.9803189,0.34452 1.4137589,0.6309969 -0.524585,0.2902979 -0.966213,0.6749442 -1.3310764,1.0884685 -0.1175257,0.1333094 -0.081832,0.3411 0.07343,0.4275547 0.4504284,0.2507201 0.8221544,0.6214432 1.0743254,1.0710622 0.06215,0.1112316 0.191845,0.1661127 0.314955,0.1332706 0.580293,-0.1548727 1.201254,-0.1954706 1.821729,-0.024474 0.112317,0.4081168 0.169399,0.8294548 0.169717,1.2527453 -0.0047,0.095947 -0.01231,0.1917285 -0.02284,0.2872127 -0.516928,-0.3048295 -1.05653,-0.4994127 -1.594898,-0.6081506 -0.02214,-0.00442 -0.04386,-0.00621 -0.06527,-0.00547 -0.149899,0.00526 -0.274686,0.131959 -0.268173,0.2899316 5.01e-4,0.012137 7.79e-4,0.024295 0.0011,0.036442 -0.0041,0.4981843 -0.14132,0.9863022 -0.39818,1.4132144 -0.06589,0.109657 -0.04862,0.2501014 0.04189,0.3405204 0.421159,0.420124 0.741994,1.171771 0.922016,1.592179 -0.361444,0.36042 -0.778791,0.660021 -1.235883,0.887202 0.01021,-0.602389 -0.103915,-1.179778 -0.281228,-1.704234 -0.02712,-0.08009 -0.08916,-0.143534 -0.168629,-0.172437 -0.02977,-0.01087 -0.06098,-0.01644 -0.09193,-0.01686 -0.05158,-6.97e-4 -0.1027894,0.0129 -0.1479584,0.04025 -0.4283209,0.260315 -0.9191683,0.399401 -1.4202851,0.404164 -0.00432,-4.45e-4 -0.00874,-6.96e-4 -0.013054,-0.0011 -0.13612,-0.01433 -0.2624756,0.07237 -0.2980913,0.20453 -0.1548687,0.576551 -0.4276606,1.13122 -0.8807281,1.581887 C 6.7771364,12.90585 6.2998901,12.694149 5.8664984,12.409308 6.390547,12.116981 6.8314272,11.730373 7.1953989,11.315944 7.3123715,11.182532 7.2764516,10.97522 7.12142,10.888933 6.6732401,10.639249 6.3028671,10.270757 6.0509019,9.8238536 5.9884177,9.7130393 5.8588001,9.6586372 5.7359475,9.6916709 5.1557234,9.8482716 4.5347816,9.8912416 3.9136733,9.7226815 3.7970216,9.3140604 3.735912,8.8915972 3.7319897,8.4666708 c 0.00453,-0.093389 0.011747,-0.1866326 0.02176,-0.2795968 0.5113812,0.30504 1.0621707,0.4929168 1.5992496,0.601079 0.1848266,0.0372 0.3524404,-0.1161306 0.3318173,-0.3035316 -8.355e-4,-0.00768 -0.00134,-0.015147 -0.00217,-0.022842 C 5.6875956,7.9653213 5.8242797,7.478955 6.080285,7.0534612 6.1461797,6.9438033 6.128905,6.8033581 6.0383997,6.7129402 5.6111944,6.2866822 5.2630918,5.7666885 5.1000876,5.1403369 5.4649857,4.7715074 5.8880252,4.4651621 6.3522893,4.2335505 6.3420788,4.8359411 6.4562051,5.4133295 6.633518,5.9377854 6.690539,6.1068285 6.8895528,6.1794391 7.0420339,6.0868306 7.4717938,5.8256433 7.9643461,5.6854475 8.4672155,5.681579 c 0.00947,2.306e-4 0.01878,7.516e-4 0.028286,0.00105 C 8.624986,5.687049 8.7404208,5.601597 8.7740102,5.4764668 8.9300008,4.8969184 9.2063197,4.3387941 9.6644766,3.8870088 Z"
     sodipodi:nodetypes="ssssscccccccccccsccccccccccccccccccccccccccccccccccc" />
  <path
     id="path3846-9-7"
     style="color:#000000;opacity:0.3;fill:url(#linearGradient2397);fill-opacity:1;stroke-width:2.16976;stroke-linecap:round;stroke-linejoin:round;stroke-miterlimit:1;-inkscape-stroke:none"
     d="M 36.527344 14.691406 C 34.795727 16.398941 33.751678 18.5088 33.162109 20.699219 C 33.035155 21.172152 32.598767 21.495221 32.109375 21.478516 C 32.073432 21.477388 32.037859 21.475481 32.001953 21.474609 C 30.101346 21.48923 28.239524 22.018695 26.615234 23.005859 C 26.038928 23.355876 25.287774 23.080309 25.072266 22.441406 C 24.40211 20.459211 23.969224 18.276752 24.007812 16 C 22.253113 16.875382 20.654533 18.033733 19.275391 19.427734 C 19.343656 19.690049 19.422913 19.946711 19.507812 20.199219 C 20.833314 18.90739 22.350414 17.826841 24.007812 17 C 23.969224 19.276752 24.40211 21.459211 25.072266 23.441406 C 25.287774 24.080309 26.038928 24.355876 26.615234 24.005859 C 28.239524 23.018695 30.101346 22.48923 32.001953 22.474609 C 32.037859 22.475481 32.073432 22.477388 32.109375 22.478516 C 32.598767 22.495221 33.035155 22.172152 33.162109 21.699219 C 33.751678 19.5088 34.795727 17.398941 36.527344 15.691406 C 38.114269 16.10603 39.634213 16.737034 41.046875 17.564453 C 41.315656 17.39511 41.589753 17.231862 41.871094 17.076172 C 40.232899 15.993425 38.427241 15.187801 36.527344 14.691406 z M 36.701172 22.386719 C 36.434569 22.879557 36.60242 23.519999 37.117188 23.806641 C 38.819591 24.754244 40.224647 26.154168 41.177734 27.853516 C 41.412632 28.273919 41.901889 28.481549 42.367188 28.357422 C 44.560421 27.772076 46.908804 27.619339 49.253906 28.265625 C 49.613034 29.570556 49.820147 30.911047 49.876953 32.261719 C 49.882514 32.174387 49.890249 32.087414 49.894531 32 C 49.893329 30.40016 49.678411 28.808114 49.253906 27.265625 C 46.908804 26.619339 44.560421 26.772076 42.367188 27.357422 C 41.901889 27.481549 41.412632 27.273919 41.177734 26.853516 C 40.224647 25.154168 38.819589 23.754244 37.117188 22.806641 C 36.93299 22.704073 36.792383 22.556767 36.701172 22.386719 z M 23.001953 26.619141 C 22.994783 26.63231 22.988252 26.645251 22.980469 26.658203 C 22.01289 28.266369 21.497224 30.106045 21.478516 31.982422 C 21.481653 32.011486 21.48317 32.039257 21.486328 32.068359 C 21.564274 32.776647 20.930979 33.355442 20.232422 33.214844 C 18.202517 32.806042 16.120279 32.096266 14.1875 30.943359 C 14.149656 31.294723 14.12259 31.64703 14.105469 32 C 14.107563 32.226896 14.114295 32.453283 14.125 32.679688 C 14.141253 32.433775 14.161105 32.188418 14.1875 31.943359 C 16.120279 33.096266 18.202517 33.806042 20.232422 34.214844 C 20.930979 34.355442 21.564274 33.776647 21.486328 33.068359 C 21.48317 33.039257 21.481653 33.011486 21.478516 32.982422 C 21.497224 31.106045 22.01289 29.266369 22.980469 27.658203 C 23.175399 27.333814 23.174144 26.939644 23.001953 26.619141 z M 12.005859 32.515625 C 12.002023 32.676833 12 32.83787 12 33 C 12 44.045696 20.954307 53 32 53 C 43.045698 53 51.999996 44.045696 52 33 C 52 32.83787 51.997977 32.676833 51.994141 32.515625 C 51.720337 43.322749 42.873107 52 32 52 C 21.126896 52 12.27966 43.322749 12.005859 32.515625 z M 38.900391 32.927734 C 38.794485 33.182058 38.603379 33.408789 38.328125 33.558594 L 28.900391 38.699219 C 28.044466 39.165008 27.001542 38.546722 27 37.572266 L 27 38.572266 C 27.001542 39.546722 28.044466 40.165008 28.900391 39.699219 L 38.328125 34.558594 C 38.948141 34.221156 39.139624 33.500372 38.900391 32.927734 z M 40.998047 38.380859 C 40.775791 38.789116 40.846339 39.297845 41.177734 39.628906 C 42.555257 41.003043 43.647019 43.312 44.357422 44.939453 C 44.459565 44.842305 44.562203 44.746108 44.662109 44.646484 C 43.981711 43.057541 42.769516 40.216777 41.177734 38.628906 C 41.103395 38.554642 41.045857 38.469847 40.998047 38.380859 z M 27.330078 42.574219 C 27.293218 42.642326 27.248969 42.708335 27.195312 42.769531 C 25.819674 44.335877 24.152533 45.795533 22.171875 46.900391 C 22.441607 47.077669 22.717694 47.24606 22.996094 47.408203 C 24.619279 46.37776 26.015033 45.113435 27.195312 43.769531 C 27.498833 43.423357 27.529975 42.945292 27.330078 42.574219 z "
     transform="scale(0.26458333)" />
  <path
     style="color:#000000;fill:url(#linearGradient4703);fill-opacity:1;stroke-width:0.545377;stroke-linecap:round;stroke-linejoin:round;stroke-miterlimit:1;-inkscape-stroke:none"
     d="m 7.646519,6.9210213 c -0.2264634,-0.12324 -0.5023612,0.040428 -0.5027691,0.298253 v 2.721557 c 4.079e-4,0.2578247 0.2763057,0.4214937 0.5027691,0.2982537 l 2.494673,-1.3602467 c 0.236744,-0.128846 0.236744,-0.468725 0,-0.597571 z"
     id="path3846"
     sodipodi:nodetypes="ccccccc" />
  <path
     id="rect1345"
     style="opacity:0.3;fill:url(#linearGradient1781);fill-opacity:1;stroke-width:0.264583"
     d="m 3.175,1.0583333 c -1.1726333,0 -2.1166667,0.9440334 -2.1166667,2.1166667 v 10.583333 c 0,1.172634 0.9440334,2.116667 2.1166667,2.116667 h 10.583335 c 1.172632,0 2.116666,-0.944033 2.116666,-2.116667 V 3.175 c 0,-1.1726333 -0.944034,-2.1166667 -2.116666,-2.1166667 z m 0,0.2645834 h 10.583335 c 1.026054,0 1.852083,0.8260291 1.852083,1.8520833 v 10.583333 c 0,1.026054 -0.826029,1.852084 -1.852083,1.852084 H 3.175 c -1.0260542,0 -1.8520834,-0.82603 -1.8520834,-1.852084 V 3.175 c 0,-1.0260542 0.8260292,-1.8520833 1.8520834,-1.8520833 z" />
</svg>
