<?xml version="1.0" encoding="UTF-8" standalone="no"?>
<!-- Created with Inkscape (http://www.inkscape.org/) -->

<svg
   width="64"
   height="64"
   viewBox="0 0 16.933333 16.933333"
   version="1.1"
   id="svg5"
   inkscape:version="1.1.1 (3bf5ae0d25, 2021-09-20, custom)"
   sodipodi:docname="lollypop.svg"
   xmlns:inkscape="http://www.inkscape.org/namespaces/inkscape"
   xmlns:sodipodi="http://sodipodi.sourceforge.net/DTD/sodipodi-0.dtd"
   xmlns:xlink="http://www.w3.org/1999/xlink"
   xmlns="http://www.w3.org/2000/svg"
   xmlns:svg="http://www.w3.org/2000/svg">
  <sodipodi:namedview
     id="namedview7"
     pagecolor="#ffffff"
     bordercolor="#666666"
     borderopacity="1.0"
     inkscape:pageshadow="2"
     inkscape:pageopacity="0.0"
     inkscape:pagecheckerboard="0"
     inkscape:document-units="px"
     showgrid="false"
     units="px"
     height="48px"
     inkscape:zoom="15.999999"
     inkscape:cx="32.750002"
     inkscape:cy="39.156252"
     inkscape:window-width="1920"
     inkscape:window-height="1019"
     inkscape:window-x="0"
     inkscape:window-y="0"
     inkscape:window-maximized="1"
     inkscape:current-layer="svg5"
     inkscape:lockguides="true" />
  <defs
     id="defs2">
    <linearGradient
       inkscape:collect="always"
       id="linearGradient1595">
      <stop
         style="stop-color:#fe1574;stop-opacity:1"
         offset="0"
         id="stop1591" />
      <stop
         style="stop-color:#ff7ec3;stop-opacity:1"
         offset="1"
         id="stop1593" />
    </linearGradient>
    <linearGradient
       inkscape:collect="always"
       id="linearGradient37218">
      <stop
         style="stop-color:#1a1a1a;stop-opacity:1"
         offset="0"
         id="stop37214" />
      <stop
         style="stop-color:#e6e6e6;stop-opacity:0.00306325"
         offset="0.49741825"
         id="stop37220" />
      <stop
         style="stop-color:#ffffff;stop-opacity:1"
         offset="1"
         id="stop37216" />
    </linearGradient>
    <linearGradient
       inkscape:collect="always"
       xlink:href="#linearGradient37218"
       id="linearGradient881"
       x1="64.208344"
       y1="64.062607"
       x2="0.30528301"
       y2="0.13507102"
       gradientUnits="userSpaceOnUse" />
    <linearGradient
       inkscape:collect="always"
       xlink:href="#linearGradient1595"
       id="linearGradient1597"
       x1="11.641666"
       y1="16.933332"
       x2="11.641666"
       y2="-2.7838135e-07"
       gradientUnits="userSpaceOnUse" />
    <linearGradient
       inkscape:collect="always"
       xlink:href="#linearGradient4701"
       id="linearGradient4703"
       x1="8.9953117"
       y1="4.4414716"
       x2="8.9726896"
       y2="13.810887"
       gradientUnits="userSpaceOnUse"
       gradientTransform="matrix(0.54537662,0,0,0.54537662,3.9694875,3.8490173)" />
    <linearGradient
       inkscape:collect="always"
       id="linearGradient4701">
      <stop
         style="stop-color:#ffffff;stop-opacity:1;"
         offset="0"
         id="stop4697" />
      <stop
         style="stop-color:#ffffff;stop-opacity:0;"
         offset="1"
         id="stop4699" />
    </linearGradient>
    <linearGradient
       inkscape:collect="always"
       xlink:href="#linearGradient5446"
       id="linearGradient6596"
       gradientUnits="userSpaceOnUse"
       gradientTransform="matrix(2.061266,0,0,2.061266,15.002788,15.547466)"
       x1="-2.6480181"
       y1="18.995634"
       x2="19.645742"
       y2="2.1675575" />
    <linearGradient
       inkscape:collect="always"
       id="linearGradient5446">
      <stop
         style="stop-color:#000000;stop-opacity:1;"
         offset="0"
         id="stop5442" />
      <stop
         style="stop-color:#000000;stop-opacity:0;"
         offset="1"
         id="stop5444" />
    </linearGradient>
    <linearGradient
       inkscape:collect="always"
       xlink:href="#linearGradient4701"
       id="linearGradient7228"
       gradientUnits="userSpaceOnUse"
       gradientTransform="matrix(0.54537662,0,0,0.54537662,3.9694876,3.8490173)"
       x1="8.9953117"
       y1="4.4414716"
       x2="8.9726896"
       y2="21.573107" />
  </defs>
  <path
     id="rect846-3"
     style="fill:url(#linearGradient1597);stroke-width:0.337527;fill-opacity:1"
     d="m 3.175,1.5875 h 10.583333 c 0.879475,0 1.5875,0.708025 1.5875,1.5875 v 10.583333 c 0,0.879475 -0.708025,1.5875 -1.5875,1.5875 H 3.175 c -0.879475,0 -1.5875,-0.708025 -1.5875,-1.5875 V 3.175 c 0,-0.879475 0.708025,-1.5875 1.5875,-1.5875 z" />
  <path
     id="rect846"
     style="opacity:0.3;fill:url(#linearGradient881);stroke-width:1.27569;fill-opacity:1"
     d="M 12 6 C 8.6760005 6 6 8.6760005 6 12 L 6 52 C 6 55.324 8.6760005 58 12 58 L 52 58 C 55.324 58 58 55.324 58 52 L 58 12 C 58 8.6760005 55.324 6 52 6 L 12 6 z M 12 7 L 52 7 C 54.77 7 57 9.23 57 12 L 57 52 C 57 54.77 54.77 57 52 57 L 12 57 C 9.23 57 7 54.77 7 52 L 7 12 C 7 9.23 9.23 7 12 7 z "
     transform="scale(0.26458333)" />
  <path
     id="path3846-79"
     style="color:#000000;opacity:0.3;fill:url(#linearGradient6596);fill-opacity:1;stroke-width:2.06127;stroke-linecap:round;stroke-linejoin:round;stroke-miterlimit:1;-inkscape-stroke:none"
     d="M 36.300781 15.556641 C 34.655746 17.178803 33.663608 19.18277 33.103516 21.263672 C 32.982911 21.712959 32.56844 22.019776 32.103516 22.003906 C 32.069386 22.002708 32.036128 22.00068 32.001953 22 C 30.196376 22.013984 28.42784 22.517268 26.884766 23.455078 C 26.337275 23.787601 25.622697 23.526891 25.417969 22.919922 C 24.781337 21.036836 24.371573 18.963692 24.408203 16.800781 C 22.741237 17.632391 21.222294 18.732339 19.912109 20.056641 C 19.980239 20.318449 20.058993 20.574644 20.144531 20.826172 C 21.400826 19.604281 22.838834 18.583703 24.408203 17.800781 C 24.37158 19.963692 24.781336 22.036836 25.417969 23.919922 C 25.622698 24.526876 26.337275 24.78759 26.884766 24.455078 C 28.42784 23.517268 30.196376 23.01389 32.001953 23 C 32.03612 23.000824 32.069371 23.002825 32.103516 23.003906 C 32.56844 23.01978 32.982911 22.712959 33.103516 22.263672 C 33.663608 20.182785 34.655746 18.178799 36.300781 16.556641 C 37.793551 16.946661 39.223848 17.537818 40.554688 18.3125 C 40.822543 18.142648 41.095896 17.977786 41.376953 17.822266 C 39.820665 16.793656 38.105686 16.02822 36.300781 15.556641 z M 36.486328 22.888672 C 36.209327 23.360606 36.361675 23.987429 36.861328 24.265625 C 38.478621 25.165848 39.813315 26.496952 40.71875 28.111328 C 40.941893 28.510711 41.407582 28.707765 41.849609 28.589844 C 43.933184 28.033762 46.162775 27.888018 48.390625 28.501953 C 48.727041 29.724351 48.923262 30.979167 48.980469 32.244141 C 48.98576 32.162654 48.995843 32.081562 49 32 C 48.9989 30.480154 48.793904 28.967318 48.390625 27.501953 C 46.162779 26.887995 43.93318 27.033781 41.849609 27.589844 C 41.407579 27.707765 40.941893 27.510699 40.71875 27.111328 C 39.813315 25.496948 38.478617 24.165848 36.861328 23.265625 C 36.695293 23.173178 36.572993 23.039815 36.486328 22.888672 z M 23.4375 26.914062 C 23.4353 26.917842 23.433937 26.922002 23.431641 26.925781 C 22.512438 28.453538 22.021676 30.199861 22.003906 31.982422 C 22.006706 32.010012 22.008733 32.036863 22.011719 32.064453 C 22.085767 32.737326 21.483945 33.287846 20.820312 33.154297 C 18.891979 32.765954 16.914265 32.091356 15.078125 30.996094 C 15.042182 31.329902 15.01612 31.664669 15 32 C 15.0018 32.198198 15.016622 32.395926 15.025391 32.59375 C 15.039753 32.394418 15.056725 32.194806 15.078125 31.996094 C 16.914265 33.091356 18.891903 33.765935 20.820312 34.154297 C 21.483944 34.287865 22.085769 33.737326 22.011719 33.064453 C 22.008719 33.036863 22.006703 33.01005 22.003906 32.982422 C 22.02167 31.199857 22.512439 29.453538 23.431641 27.925781 C 23.621951 27.609095 23.614994 27.222797 23.4375 26.914062 z M 13.009766 32.398438 C 13.003567 32.598261 13 32.798668 13 33 C 13.000001 43.493408 21.50659 52 32 52 C 42.493411 52 51 43.493408 51 33 C 51 32.798665 50.996561 32.598265 50.990234 32.398438 C 50.777598 42.707366 42.359891 51 32 51 C 21.640109 51 13.222447 42.707366 13.009766 32.398438 z M 38.898438 32.931641 C 38.792201 33.184313 38.601924 33.409581 38.328125 33.558594 L 28.900391 38.699219 C 28.044466 39.165008 27.001542 38.546723 27 37.572266 L 27 38.572266 C 27.0015 39.546719 28.044466 40.165004 28.900391 39.699219 L 38.328125 34.558594 C 38.947043 34.221751 39.135732 33.504148 38.898438 32.931641 z M 40.5625 38.085938 C 40.333876 38.477946 40.396923 38.975351 40.71875 39.296875 C 42.017604 40.592531 43.047421 42.762549 43.722656 44.306641 C 43.825233 44.209356 43.929102 44.113565 44.029297 44.013672 C 43.382918 42.504174 42.230943 39.805349 40.71875 38.296875 C 40.655178 38.233341 40.605662 38.161037 40.5625 38.085938 z M 27.546875 42.068359 C 27.514636 42.123994 27.479862 42.179936 27.435547 42.230469 C 26.128686 43.718499 24.545689 45.106634 22.664062 46.15625 C 22.934004 46.333661 23.209221 46.50064 23.488281 46.662109 C 25.012566 45.688008 26.32436 44.495703 27.435547 43.230469 C 27.731439 42.892995 27.753517 42.4245 27.546875 42.068359 z "
     transform="scale(0.26458333)" />
  <path
     id="path3846-9"
     style="color:#000000;fill:url(#linearGradient7228);fill-opacity:1.0;stroke-width:0.545378;stroke-linecap:round;stroke-linejoin:round;stroke-miterlimit:1;-inkscape-stroke:none"
     d="m 8.4666666,3.4395833 c -2.7763811,0 -5.0270833,2.250702 -5.0270833,5.027083 0,2.7763817 2.2507022,5.0270827 5.0270833,5.0270827 2.7763814,0 5.0270814,-2.250701 5.0270824,-5.0270827 -10e-7,-2.776381 -2.250701,-5.027083 -5.0270824,-5.027083 z m 1.1379148,0.676444 c 0.4775476,0.124771 0.9313026,0.327294 1.3430706,0.599447 -0.498356,0.275783 -0.917902,0.641197 -1.2645226,1.034045 -0.111649,0.126644 -0.07774,0.324045 0.06976,0.406177 0.4279066,0.238184 0.7810456,0.590371 1.0206086,1.017509 0.05904,0.10567 0.182253,0.157807 0.299207,0.126607 0.551278,-0.147129 1.141191,-0.185697 1.730643,-0.02325 0.106701,0.387711 0.160929,0.787982 0.161231,1.190108 -0.0045,0.09115 -0.0117,0.182142 -0.0217,0.272852 -0.491082,-0.289588 -1.003704,-0.474442 -1.515153,-0.577743 -0.02103,-0.0042 -0.04167,-0.0059 -0.06201,-0.0052 -0.142404,0.005 -0.260951,0.125361 -0.254764,0.275435 4.76e-4,0.01153 7.4e-4,0.02308 0.001,0.03462 -0.0039,0.473275 -0.134254,0.936987 -0.378271,1.342554 -0.0626,0.104174 -0.04619,0.2375957 0.03979,0.3234937 0.400101,0.399118 0.704895,1.113182 0.875915,1.51257 -0.343371,0.342399 -0.739851,0.62702 -1.174088,0.842842 0.0097,-0.57227 -0.09872,-1.120789 -0.267167,-1.619022 -0.02576,-0.07609 -0.0847,-0.136358 -0.160197,-0.163815 -0.02828,-0.01033 -0.05793,-0.01562 -0.08733,-0.01602 -0.049,-6.62e-4 -0.09765,0.01225 -0.14056,0.03824 -0.406905,0.247299 -0.87321,0.379431 -1.349271,0.383956 -0.0041,-4.23e-4 -0.0083,-6.61e-4 -0.012401,-10e-4 -0.129314,-0.01361 -0.2493518,0.06875 -0.2831867,0.194304 -0.1470752,0.547681 -0.4062275,1.074616 -0.8366416,1.50275 -0.476931,-0.123597 -0.9303149,-0.324713 -1.342037,-0.595312 0.4978461,-0.277711 0.9166823,-0.644988 1.2624554,-1.038696 0.1111239,-0.126741 0.077,-0.323688 -0.07028,-0.40566 C 6.7629112,10.530619 6.4110569,10.180552 6.17169,9.7559943 6.11233,9.6507203 5.9891933,9.5990383 5.8724833,9.6304203 c -0.5512128,0.148771 -1.1411075,0.189592 -1.7311603,0.02946 -0.1108191,-0.38819 -0.1688732,-0.78953 -0.1725994,-1.19321 0.0043,-0.08872 0.01116,-0.177301 0.020672,-0.265617 0.4858121,0.289788 1.0090621,0.468271 1.519287,0.571025 0.1755852,0.03534 0.3348183,-0.110324 0.3152264,-0.288355 -7.937e-4,-0.0073 -0.00127,-0.01439 -0.00206,-0.0217 0.0047,-0.471635 0.1345499,-0.933683 0.3777549,-1.337902 0.0626,-0.104175 0.046189,-0.237598 -0.039791,-0.323495 -0.405845,-0.404945 -0.7365424,-0.898939 -0.8913964,-1.493973 0.3466531,-0.350388 0.7485406,-0.641416 1.1895915,-0.861447 -0.0097,0.572271 0.09872,1.12079 0.2671672,1.619023 0.05417,0.160591 0.2432331,0.229571 0.3880901,0.141593 0.4082719,-0.248128 0.8761965,-0.381314 1.3539224,-0.384989 0.009,2.19e-4 0.017841,7.14e-4 0.026872,10e-4 0.1230103,0.0042 0.2326733,-0.07698 0.2645833,-0.195854 0.148191,-0.550571 0.410694,-1.080789 0.845943,-1.509985 z"
     sodipodi:nodetypes="ssssscccccccccccsccccccccccccccccccccccccccccccccccc" />
  <path
     style="color:#000000;fill:url(#linearGradient4703);fill-opacity:1;stroke-width:0.545377;stroke-linecap:round;stroke-linejoin:round;stroke-miterlimit:1;-inkscape-stroke:none"
     d="m 7.646519,6.9210213 c -0.2264634,-0.12324 -0.5023612,0.040428 -0.5027691,0.298253 v 2.721557 c 4.079e-4,0.2578247 0.2763057,0.4214937 0.5027691,0.2982537 l 2.494673,-1.3602467 c 0.236744,-0.128846 0.236744,-0.468725 0,-0.597571 z"
     id="path3846"
     sodipodi:nodetypes="ccccccc" />
</svg>
