<?xml version="1.0" encoding="UTF-8" standalone="no"?>
<!-- Created with Inkscape (http://www.inkscape.org/) -->

<svg
   width="64"
   height="64"
   viewBox="0 0 16.933333 16.933333"
   version="1.1"
   id="svg5"
   inkscape:version="1.1.1 (3bf5ae0d25, 2021-09-20, custom)"
   sodipodi:docname="mahjongg.svg"
   xmlns:inkscape="http://www.inkscape.org/namespaces/inkscape"
   xmlns:sodipodi="http://sodipodi.sourceforge.net/DTD/sodipodi-0.dtd"
   xmlns:xlink="http://www.w3.org/1999/xlink"
   xmlns="http://www.w3.org/2000/svg"
   xmlns:svg="http://www.w3.org/2000/svg">
  <sodipodi:namedview
     id="namedview7"
     pagecolor="#ffffff"
     bordercolor="#666666"
     borderopacity="1.0"
     inkscape:pageshadow="2"
     inkscape:pageopacity="0.0"
     inkscape:pagecheckerboard="0"
     inkscape:document-units="px"
     showgrid="false"
     units="px"
     height="48px"
     inkscape:zoom="5.6568542"
     inkscape:cx="6.5407377"
     inkscape:cy="61.076348"
     inkscape:window-width="1920"
     inkscape:window-height="1011"
     inkscape:window-x="0"
     inkscape:window-y="0"
     inkscape:window-maximized="1"
     inkscape:current-layer="svg5"
     inkscape:lockguides="true" />
  <defs
     id="defs2">
    <linearGradient
       inkscape:collect="always"
       id="linearGradient15578">
      <stop
         style="stop-color:#000000;stop-opacity:1;"
         offset="0"
         id="stop15574" />
      <stop
         style="stop-color:#000000;stop-opacity:0;"
         offset="1"
         id="stop15576" />
    </linearGradient>
    <linearGradient
       inkscape:collect="always"
       id="linearGradient14978">
      <stop
         style="stop-color:#c83737;stop-opacity:1;"
         offset="0"
         id="stop14974" />
      <stop
         style="stop-color:#ff2a2a;stop-opacity:1"
         offset="1"
         id="stop14976" />
    </linearGradient>
    <linearGradient
       inkscape:collect="always"
       id="linearGradient3200">
      <stop
         style="stop-color:#f8f1e5;stop-opacity:1;"
         offset="0"
         id="stop3196" />
      <stop
         style="stop-color:#ffffff;stop-opacity:1"
         offset="1"
         id="stop3198" />
    </linearGradient>
    <linearGradient
       inkscape:collect="always"
       id="linearGradient1642">
      <stop
         style="stop-color:#333333;stop-opacity:1"
         offset="0"
         id="stop1638" />
      <stop
         style="stop-color:#666666;stop-opacity:1"
         offset="1"
         id="stop1640" />
    </linearGradient>
    <linearGradient
       inkscape:collect="always"
       xlink:href="#linearGradient37218"
       id="linearGradient1781"
       x1="2.8346456e-08"
       y1="2.2677165e-07"
       x2="64"
       y2="64"
       gradientUnits="userSpaceOnUse"
       gradientTransform="scale(0.26458333)" />
    <linearGradient
       inkscape:collect="always"
       id="linearGradient37218">
      <stop
         style="stop-color:#ffffff;stop-opacity:1"
         offset="0"
         id="stop37214" />
      <stop
         style="stop-color:#808080;stop-opacity:0.00392157"
         offset="0.49741825"
         id="stop37220" />
      <stop
         style="stop-color:#000000;stop-opacity:1"
         offset="1"
         id="stop37216" />
    </linearGradient>
    <linearGradient
       inkscape:collect="always"
       xlink:href="#linearGradient1642"
       id="linearGradient1644"
       x1="6.8791666"
       y1="16.933334"
       x2="6.8791671"
       y2="6.7529299e-07"
       gradientUnits="userSpaceOnUse" />
    <linearGradient
       inkscape:collect="always"
       xlink:href="#linearGradient3200"
       id="linearGradient3202"
       x1="8.7312498"
       y1="14.287499"
       x2="8.7312498"
       y2="2.645833"
       gradientUnits="userSpaceOnUse" />
    <linearGradient
       inkscape:collect="always"
       xlink:href="#linearGradient14978"
       id="linearGradient14980"
       x1="9.260416"
       y1="11.569823"
       x2="9.260416"
       y2="5.2198234"
       gradientUnits="userSpaceOnUse" />
    <linearGradient
       inkscape:collect="always"
       xlink:href="#linearGradient15578"
       id="linearGradient15580"
       x1="15"
       y1="54.5"
       x2="49"
       y2="44.5"
       gradientUnits="userSpaceOnUse" />
  </defs>
  <path
     id="rect863"
     style="fill:url(#linearGradient1644);stroke-width:0.264583;fill-opacity:1"
     d="M 3.1750003,1.0583333 H 13.758333 c 1.172634,0 2.116667,0.944034 2.116667,2.116667 V 13.758333 c 0,1.172634 -0.944033,2.116667 -2.116667,2.116667 H 3.1750003 c -1.172633,0 -2.116667,-0.944033 -2.116667,-2.116667 V 3.1750003 c 0,-1.172633 0.944034,-2.116667 2.116667,-2.116667 z" />
  <path
     id="rect1345"
     style="opacity:0.3;fill:url(#linearGradient1781);fill-opacity:1;stroke-width:0.264583"
     d="m 3.1750003,1.0583333 c -1.172633,0 -2.116667,0.944034 -2.116667,2.116667 V 13.758333 c 0,1.172634 0.944034,2.116667 2.116667,2.116667 H 13.758334 c 1.172633,0 2.116666,-0.944033 2.116666,-2.116667 V 3.1750003 c 0,-1.172633 -0.944033,-2.116667 -2.116666,-2.116667 z m 0,0.264584 H 13.758334 c 1.026054,0 1.852083,0.826029 1.852083,1.852083 V 13.758333 c 0,1.026054 -0.826029,1.852084 -1.852083,1.852084 H 3.1750003 c -1.026054,0 -1.852083,-0.82603 -1.852083,-1.852084 V 3.1750003 c 0,-1.026054 0.826029,-1.852083 1.852083,-1.852083 z" />
  <path
     id="rect2098"
     style="opacity:1;fill:url(#linearGradient3202);stroke-width:2.38125;stroke-linecap:round;stroke-linejoin:round;fill-opacity:1"
     d="m 5.5562497,3.4395833 h 5.8208343 c 0.293158,0 0.529166,0.2360082 0.529166,0.5291665 v 8.9958342 c 0,0.293158 -0.236008,0.529166 -0.529166,0.529166 H 5.5562497 c -0.2931582,0 -0.5291665,-0.236008 -0.5291665,-0.529166 V 3.9687498 c 0,-0.2931583 0.2360083,-0.5291665 0.5291665,-0.5291665 z"
     sodipodi:nodetypes="sssssssss" />
  <path
     id="rect3434"
     style="opacity:0.3;fill:url(#linearGradient15580);fill-opacity:1;stroke-width:9;stroke-linecap:round;stroke-linejoin:round"
     d="M 19 49 L 19 50 C 19 51.108 19.892 52 21 52 L 43 52 C 44.108 52 45 51.108 45 50 L 45 49 C 45 50.108 44.108 51 43 51 L 21 51 C 19.892 51 19 50.108 19 49 z "
     transform="scale(0.26458333)" />
  <path
     d="M 9.7604654,8.5964258 H 8.5552824 V 7.4222585 h 1.205183 z M 8.7192227,6.4076007 8.1830935,6.3500001 V 7.2937647 H 7.0177878 L 6.6145832,7.1209628 v 2.0293155 h 0.062031 c 0.1506479,0 0.3057266,-0.084186 0.3057266,-0.1240629 V 8.7249196 H 8.183093 v 1.7147274 h 0.070893 c 0.1462171,0 0.3012958,-0.09305 0.3012958,-0.141786 V 8.7249196 h 1.205183 v 0.3721889 h 0.062032 c 0.1196321,0 0.3057262,-0.075324 0.3101572,-0.1063397 v -1.502048 c 0.08862,-0.017723 0.15951,-0.05317 0.186095,-0.088616 L 9.9066825,7.0810854 9.7161572,7.2937647 H 8.5552824 V 6.5272329 C 8.6704837,6.5095096 8.7059302,6.4696322 8.7192227,6.4076007 Z M 6.9823413,8.5964258 V 7.4222585 h 1.2007522 v 1.1741673 z"
     style="font-weight:500;font-size:4.43082px;line-height:1.25;font-family:'Noto Serif CJK JP';-inkscape-font-specification:'Noto Serif CJK JP Medium';stroke-width:0.110771;fill:url(#linearGradient14980);fill-opacity:1"
     id="path14835" />
</svg>
