<?xml version="1.0" encoding="UTF-8" standalone="no"?>
<!-- Created with Inkscape (http://www.inkscape.org/) -->

<svg
   width="64"
   height="64"
   viewBox="0 0 16.933333 16.933333"
   version="1.1"
   id="svg5"
   inkscape:version="1.1.1 (3bf5ae0d25, 2021-09-20, custom)"
   sodipodi:docname="manjaro-settings-manager.svg"
   xmlns:inkscape="http://www.inkscape.org/namespaces/inkscape"
   xmlns:sodipodi="http://sodipodi.sourceforge.net/DTD/sodipodi-0.dtd"
   xmlns:xlink="http://www.w3.org/1999/xlink"
   xmlns="http://www.w3.org/2000/svg"
   xmlns:svg="http://www.w3.org/2000/svg">
  <sodipodi:namedview
     id="namedview7"
     pagecolor="#ffffff"
     bordercolor="#666666"
     borderopacity="1.0"
     inkscape:pageshadow="2"
     inkscape:pageopacity="0.0"
     inkscape:pagecheckerboard="0"
     inkscape:document-units="px"
     showgrid="false"
     units="px"
     height="48px"
     inkscape:zoom="5.6568542"
     inkscape:cx="28.461048"
     inkscape:cy="53.563339"
     inkscape:window-width="1920"
     inkscape:window-height="1011"
     inkscape:window-x="0"
     inkscape:window-y="0"
     inkscape:window-maximized="1"
     inkscape:current-layer="svg5" />
  <defs
     id="defs2">
    <linearGradient
       inkscape:collect="always"
       id="linearGradient21541">
      <stop
         style="stop-color:#ffffff;stop-opacity:1;"
         offset="0"
         id="stop21537" />
      <stop
         style="stop-color:#ffffff;stop-opacity:0;"
         offset="1"
         id="stop21539" />
    </linearGradient>
    <linearGradient
       inkscape:collect="always"
       id="linearGradient9902">
      <stop
         style="stop-color:#000000;stop-opacity:1;"
         offset="0"
         id="stop9898" />
      <stop
         style="stop-color:#000000;stop-opacity:0;"
         offset="1"
         id="stop9900" />
    </linearGradient>
    <linearGradient
       inkscape:collect="always"
       id="linearGradient3822">
      <stop
         style="stop-color:#54b075;stop-opacity:1"
         offset="0"
         id="stop3818" />
      <stop
         style="stop-color:#bbd0b4;stop-opacity:1"
         offset="1"
         id="stop3820" />
    </linearGradient>
    <linearGradient
       inkscape:collect="always"
       xlink:href="#linearGradient3822"
       id="linearGradient3824"
       x1="8.4666662"
       y1="18.520832"
       x2="8.4666662"
       y2="-1.5875002"
       gradientUnits="userSpaceOnUse" />
    <linearGradient
       inkscape:collect="always"
       xlink:href="#linearGradient9902"
       id="linearGradient20872"
       x1="8.5656319"
       y1="14.287519"
       x2="10.484444"
       y2="2.6458521"
       gradientUnits="userSpaceOnUse"
       gradientTransform="matrix(2.4052684,-2.4052684,2.4052684,2.4052684,-8.5379337,32.961898)" />
    <linearGradient
       inkscape:collect="always"
       xlink:href="#linearGradient21541"
       id="linearGradient21543"
       x1="7.4481325"
       y1="7.5684052"
       x2="14.327426"
       y2="15.154931"
       gradientUnits="userSpaceOnUse"
       gradientTransform="scale(3.7795276)" />
    <linearGradient
       inkscape:collect="always"
       id="linearGradient37218">
      <stop
         style="stop-color:#1a1a1a;stop-opacity:1"
         offset="0"
         id="stop37214" />
      <stop
         style="stop-color:#e6e6e6;stop-opacity:0.00306325"
         offset="0.49741825"
         id="stop37220" />
      <stop
         style="stop-color:#ffffff;stop-opacity:1"
         offset="1"
         id="stop37216" />
    </linearGradient>
    <linearGradient
       inkscape:collect="always"
       xlink:href="#linearGradient37218"
       id="linearGradient860"
       x1="64"
       y1="64"
       x2="4.1102362e-07"
       y2="2.2677165e-07"
       gradientUnits="userSpaceOnUse" />
  </defs>
  <path
     id="rect846-3"
     style="fill:url(#linearGradient3824);stroke-width:0.337527"
     d="m 3.175,1.5875 h 10.583333 c 0.879475,0 1.5875,0.708025 1.5875,1.5875 v 10.583333 c 0,0.879475 -0.708025,1.5875 -1.5875,1.5875 H 3.175 c -0.879475,0 -1.5875,-0.708025 -1.5875,-1.5875 V 3.175 c 0,-0.879475 0.708025,-1.5875 1.5875,-1.5875 z" />
  <path
     id="rect846"
     style="opacity:0.3;fill:url(#linearGradient860);stroke-width:1.27569;fill-opacity:1"
     d="M 12 6 C 8.6760005 6 6 8.6760005 6 12 L 6 52 C 6 55.324 8.6760005 58 12 58 L 52 58 C 55.324 58 58 55.324 58 52 L 58 12 C 58 8.6760005 55.324 6 52 6 L 12 6 z M 12 7 L 52 7 C 54.77 7 57 9.23 57 12 L 57 52 C 57 54.77 54.77 57 52 57 L 12 57 C 9.23 57 7 54.77 7 52 L 7 12 C 7 9.23 9.23 7 12 7 z "
     transform="scale(0.26458333)" />
  <path
     id="rect15908-7"
     style="opacity:0.3;fill:url(#linearGradient20872);fill-opacity:1;stroke-width:0.940622"
     d="M 41.083984 17.162109 L 40.570312 20.611328 C 40.727236 20.735056 40.881565 20.862036 41.033203 20.992188 L 41.574219 17.365234 L 41.083984 17.162109 z M 25 25 L 25 26 L 29 26 L 34 26 L 34 25 L 29 25 L 25 25 z M 35 25 L 35 26 L 39 26 L 39 25 L 35 25 z M 49.470703 27.644531 L 46.076172 30.160156 C 46.243249 31.408327 46.245887 32.673021 46.083984 33.921875 L 46.53125 34.253906 C 46.62392 33.197827 46.599694 32.134743 46.458984 31.083984 L 49.853516 28.568359 L 49.470703 27.644531 z M 14.730469 28.078125 L 14.527344 28.568359 L 17.474609 30.751953 C 17.489979 30.552349 17.509523 30.353087 17.533203 30.154297 L 14.730469 28.078125 z M 30 30 L 30 31 L 34 31 L 34 30 L 30 30 z M 49.269531 36.921875 L 47.40625 41.419922 L 43.234375 40.800781 C 42.4662 41.798198 41.570544 42.690571 40.570312 43.455078 L 41.191406 47.634766 L 36.203125 49.701172 L 33.685547 46.304688 C 32.438104 46.472242 31.174077 46.47549 29.925781 46.314453 L 27.414062 49.701172 L 22.916016 47.837891 L 22.808594 48.558594 L 27.796875 50.625 L 30.306641 47.238281 C 31.554937 47.399353 32.818964 47.396105 34.066406 47.228516 L 36.585938 50.625 L 41.574219 48.558594 L 40.953125 44.378906 C 41.953356 43.6144 42.849012 42.722026 43.617188 41.724609 L 47.789062 42.34375 L 49.855469 37.355469 L 49.269531 36.921875 z M 14.529297 37.353516 L 14.527344 37.355469 L 16.212891 41.419922 L 14.529297 37.353516 z M 16.212891 41.419922 L 16.595703 42.34375 L 20.777344 41.724609 C 21.421099 42.563773 22.155346 43.329459 22.966797 44.007812 L 23.046875 43.464844 C 22.050147 42.696538 21.158436 41.800887 20.394531 40.800781 L 16.212891 41.419922 z "
     transform="scale(0.26458333)" />
  <path
     id="rect15908"
     style="opacity:1;fill:url(#linearGradient21543);fill-opacity:1;stroke-width:0.94063"
     d="M 27.414062 14.375 L 22.425781 16.441406 L 23.046875 20.621094 C 22.046044 21.385651 21.151449 22.277689 20.382812 23.275391 L 16.210938 22.65625 L 14.144531 27.644531 L 17.533203 30.154297 C 17.371228 31.403286 17.373947 32.667698 17.541016 33.916016 L 14.146484 36.431641 L 16.212891 41.419922 L 20.394531 40.800781 C 21.158441 41.801128 22.050048 42.696345 23.046875 43.464844 L 22.425781 47.634766 L 27.414062 49.701172 L 29.925781 46.314453 C 31.174059 46.475877 32.438029 46.471894 33.685547 46.304688 L 36.203125 49.701172 L 41.191406 47.634766 L 40.570312 43.455078 C 41.571173 42.690559 42.465702 41.798456 43.234375 40.800781 L 47.40625 41.419922 L 49.472656 36.431641 L 46.083984 33.921875 C 46.245937 32.672867 46.243454 31.408484 46.076172 30.160156 L 49.472656 27.644531 L 47.404297 22.65625 L 43.234375 23.275391 C 42.466987 22.274608 41.571003 21.378836 40.570312 20.611328 L 41.191406 16.441406 L 36.203125 14.375 L 33.693359 17.761719 C 32.443054 17.596837 31.176066 17.596682 29.925781 17.761719 L 27.414062 14.375 z M 25 25 L 29 25 L 34 25 L 34 29 L 29 29 L 29 39 L 25 39 L 25 25 z M 35 25 L 39 25 L 39 39 L 35 39 L 35 25 z M 30 30 L 34 30 L 34 39 L 30 39 L 30 30 z "
     transform="scale(0.26458333)" />
</svg>
