<?xml version="1.0" encoding="UTF-8" standalone="no"?>
<!-- Created with Inkscape (http://www.inkscape.org/) -->

<svg
   width="64"
   height="64"
   viewBox="0 0 16.933333 16.933333"
   version="1.1"
   id="svg5"
   inkscape:version="1.1.1 (3bf5ae0d25, 2021-09-20, custom)"
   sodipodi:docname="org.gnome.Maps.svg"
   xmlns:inkscape="http://www.inkscape.org/namespaces/inkscape"
   xmlns:sodipodi="http://sodipodi.sourceforge.net/DTD/sodipodi-0.dtd"
   xmlns:xlink="http://www.w3.org/1999/xlink"
   xmlns="http://www.w3.org/2000/svg"
   xmlns:svg="http://www.w3.org/2000/svg">
  <sodipodi:namedview
     id="namedview7"
     pagecolor="#ffffff"
     bordercolor="#666666"
     borderopacity="1.0"
     inkscape:pageshadow="2"
     inkscape:pageopacity="0.0"
     inkscape:pagecheckerboard="0"
     inkscape:document-units="px"
     showgrid="false"
     units="px"
     height="48px"
     inkscape:zoom="3.9999998"
     inkscape:cx="-9.0000004"
     inkscape:cy="29.500001"
     inkscape:window-width="1920"
     inkscape:window-height="1011"
     inkscape:window-x="0"
     inkscape:window-y="0"
     inkscape:window-maximized="1"
     inkscape:current-layer="svg5"
     inkscape:lockguides="true" />
  <defs
     id="defs2">
    <linearGradient
       inkscape:collect="always"
       id="linearGradient1289">
      <stop
         style="stop-color:#000000;stop-opacity:1;"
         offset="0"
         id="stop1285" />
      <stop
         style="stop-color:#000000;stop-opacity:0;"
         offset="1"
         id="stop1287" />
    </linearGradient>
    <linearGradient
       inkscape:collect="always"
       id="linearGradient37218">
      <stop
         style="stop-color:#1a1a1a;stop-opacity:1"
         offset="0"
         id="stop37214" />
      <stop
         style="stop-color:#e6e6e6;stop-opacity:0.00306325"
         offset="0.49741825"
         id="stop37220" />
      <stop
         style="stop-color:#ffffff;stop-opacity:1"
         offset="1"
         id="stop37216" />
    </linearGradient>
    <linearGradient
       inkscape:collect="always"
       xlink:href="#linearGradient836"
       id="linearGradient838"
       x1="20.444714"
       y1="57.723045"
       x2="64.426826"
       y2="31.280909"
       gradientUnits="userSpaceOnUse"
       gradientTransform="matrix(0.13229166,0,0,0.12992932,5.2916663,2.3907015)" />
    <linearGradient
       inkscape:collect="always"
       id="linearGradient836">
      <stop
         style="stop-color:#e75b00;stop-opacity:1"
         offset="0"
         id="stop832" />
      <stop
         style="stop-color:#ffb501;stop-opacity:1"
         offset="1"
         id="stop834" />
    </linearGradient>
    <linearGradient
       inkscape:collect="always"
       id="linearGradient938">
      <stop
         style="stop-color:#54c5a1;stop-opacity:1"
         offset="0"
         id="stop934" />
      <stop
         style="stop-color:#d9ff98;stop-opacity:1"
         offset="1"
         id="stop936" />
    </linearGradient>
    <linearGradient
       id="linearGradient970"
       inkscape:collect="always">
      <stop
         id="stop966"
         offset="0"
         style="stop-color:#547fc5;stop-opacity:1" />
      <stop
         id="stop968"
         offset="1"
         style="stop-color:#98daff;stop-opacity:1" />
    </linearGradient>
    <linearGradient
       inkscape:collect="always"
       xlink:href="#linearGradient1289"
       id="linearGradient1291"
       x1="6.6145821"
       y1="10.58333"
       x2="14.022915"
       y2="6.8791633"
       gradientUnits="userSpaceOnUse"
       gradientTransform="scale(3.7795276)" />
    <linearGradient
       inkscape:collect="always"
       xlink:href="#linearGradient37218"
       id="linearGradient1162"
       x1="64"
       y1="64"
       x2="4.2519684e-07"
       y2="2.2677165e-07"
       gradientUnits="userSpaceOnUse" />
    <linearGradient
       inkscape:collect="always"
       xlink:href="#linearGradient970"
       id="linearGradient2738"
       x1="16.404165"
       y1="16.801043"
       x2="12.170834"
       y2="7.8052087"
       gradientUnits="userSpaceOnUse" />
    <linearGradient
       inkscape:collect="always"
       xlink:href="#linearGradient938"
       id="linearGradient4342"
       x1="66"
       y1="9"
       x2="2"
       y2="35"
       gradientUnits="userSpaceOnUse" />
  </defs>
  <rect
     style="opacity:1;fill:#f9f9f9;stroke-width:3.175;stroke-linecap:round;stroke-linejoin:round;fill-opacity:1"
     id="rect4446"
     width="14.816667"
     height="14.816667"
     x="1.0583333"
     y="1.0583333"
     ry="2.1166666" />
  <path
     id="rect2114"
     style="opacity:1;fill:url(#linearGradient2738);fill-opacity:1;stroke-width:2.67629;stroke-linecap:round;stroke-linejoin:round"
     d="m 15.875001,8.2020832 -10e-7,5.5562498 c 0,1.164907 -0.944033,2.116667 -2.116666,2.116667 H 3.1749996 c -1.1726331,0 -2.1166677,-0.944034 -2.1166663,-2.116667 l 6e-7,-0.529167 z"
     sodipodi:nodetypes="csssscc" />
  <path
     id="rect3059"
     style="opacity:1;stroke-width:12;stroke-linecap:round;stroke-linejoin:round;fill-opacity:1;fill:url(#linearGradient4342)"
     d="M 12 4 C 7.568 4 4 7.5680004 4 12 L 4 42 L 32.685547 32.728516 L 24 4 L 12 4 z M 32 4 L 40 30.728516 L 60 24 L 60 12 C 60 7.5680004 56.432006 4 52 4 L 32 4 z "
     transform="scale(0.26458333)" />
  <path
     style="fill:#a30000;fill-opacity:1;stroke:none;stroke-width:0.676743;stroke-linecap:round;stroke-linejoin:round;stroke-miterlimit:10"
     d="M 9.4314146,4.4194358 A 1.5364539,1.5090172 0 0 0 9.3227163,4.4233544 1.5364539,1.5090172 0 0 0 9.1703378,4.4413687 1.5364539,1.5090172 0 0 0 9.0202936,4.4744444 1.5364539,1.5090172 0 0 0 8.874584,4.5219278 1.5364539,1.5090172 0 0 0 8.7345425,4.583494 1.5364539,1.5090172 0 0 0 8.6011699,4.6588141 1.5364539,1.5090172 0 0 0 8.4764665,4.7462503 1.5364539,1.5090172 0 0 0 8.3610989,4.8458043 1.5364539,1.5090172 0 0 0 8.2564006,4.956165 1.5364539,1.5090172 0 0 0 8.1633726,5.07635 a 1.5364539,1.5090172 0 0 0 -0.080359,0.1286981 1.5364539,1.5090172 0 0 0 -0.06669,0.1359039 1.5364539,1.5090172 0 0 0 -0.052678,0.1414694 1.5364539,1.5090172 0 0 0 -0.038016,0.1463838 1.5364539,1.5090172 0 0 0 -0.02301,0.1490022 1.5364539,1.5090172 0 0 0 -0.00771,0.1506403 1.5364539,1.5090172 0 0 0 0.00399,0.1067579 1.5364539,1.5090172 0 0 0 0.01833,0.1496579 1.5364539,1.5090172 0 0 0 0.033679,0.1473642 1.5364539,1.5090172 0 0 0 0.048341,0.1431078 1.5364539,1.5090172 0 0 0 0.062688,0.13754 1.5364539,1.5090172 0 0 0 0.076691,0.1309917 1.5364539,1.5090172 0 0 0 0.089022,0.1224767 1.5364539,1.5090172 0 0 0 0.1013629,0.113308 1.5364539,1.5090172 0 0 0 0.1123664,0.1028281 1.5364539,1.5090172 0 0 0 0.122369,0.091362 1.5364539,1.5090172 0 0 0 0.1310381,0.078919 1.5364539,1.5090172 0 0 0 0.1383739,0.065492 1.5364539,1.5090172 0 0 0 0.1440419,0.05174 1.5364539,1.5090172 0 0 0 0.1490431,0.037338 1.5364539,1.5090172 0 0 0 0.1517119,0.022592 1.5364539,1.5090172 0 0 0 0.1533793,0.00752 1.5364539,1.5090172 0 0 0 0.1086985,-0.0039 1.5364539,1.5090172 0 0 0 0.1523786,-0.018014 1.5364539,1.5090172 0 0 0 0.1500442,-0.033076 1.5364539,1.5090172 0 0 0 0.1457099,-0.047487 1.5364539,1.5090172 0 0 0 0.1400407,-0.061564 1.5364539,1.5090172 0 0 0 0.133373,-0.075316 1.5364539,1.5090172 0 0 0 0.124703,-0.087434 1.5364539,1.5090172 0 0 0 0.115368,-0.099554 1.5364539,1.5090172 0 0 0 0.104698,-0.1103607 1.5364539,1.5090172 0 0 0 0.09303,-0.1201832 1.5364539,1.5090172 0 0 0 0.08036,-0.1286981 1.5364539,1.5090172 0 0 0 0.06669,-0.1359039 1.5364539,1.5090172 0 0 0 0.05268,-0.1414697 1.5364539,1.5090172 0 0 0 0.03802,-0.1463837 1.5364539,1.5090172 0 0 0 0.02301,-0.1490023 1.5364539,1.5090172 0 0 0 0.0076,-0.1506384 1.5364539,1.5090172 0 0 0 -0.0039,-0.1067579 A 1.5364539,1.5090172 0 0 0 10.945467,5.6720432 1.5364539,1.5090172 0 0 0 10.911797,5.524677 1.5364539,1.5090172 0 0 0 10.863446,5.3815733 1.5364539,1.5090172 0 0 0 10.800758,5.2440351 1.5364539,1.5090172 0 0 0 10.724068,5.1130434 1.5364539,1.5090172 0 0 0 10.635045,4.9905667 1.5364539,1.5090172 0 0 0 10.533683,4.8772587 1.5364539,1.5090172 0 0 0 10.421342,4.7744324 1.5364539,1.5090172 0 0 0 10.298973,4.6830656 1.5364539,1.5090172 0 0 0 10.167934,4.6041435 1.5364539,1.5090172 0 0 0 10.029559,4.5386477 1.5364539,1.5090172 0 0 0 9.8855177,4.4869068 1.5364539,1.5090172 0 0 0 9.7364726,4.4495745 1.5364539,1.5090172 0 0 0 9.5847617,4.4269786 1.5364539,1.5090172 0 0 0 9.4313831,4.4194479 Z"
     id="path830"
     inkscape:connector-curvature="0" />
  <path
     style="fill:url(#linearGradient838);fill-opacity:1;stroke:none;stroke-width:0.524422;stroke-linecap:round;stroke-linejoin:round;stroke-miterlimit:10"
     d="m 9.5249991,2.9104184 c -1.6139579,0 -2.9104159,1.2733075 -2.9104159,2.8584457 0,2.0788682 2.9104159,4.5498859 2.9104159,4.5498859 0,0 2.9104169,-2.4710177 2.9104169,-4.5498859 -2e-6,-1.5851382 -1.296459,-2.8584457 -2.9104169,-2.8584457 z m 0,1.6890813 c 0.039693,-4e-7 0.079361,0.00195 0.1188551,0.00584 0.039461,0.00391 0.078697,0.00976 0.1175638,0.017519 0.038967,0.00774 0.077514,0.017399 0.1154971,0.02893 0.037864,0.011532 0.075117,0.024914 0.1116212,0.040096 0.036582,0.015151 0.07237,0.03209 0.1072287,0.050753 0.03486,0.018709 0.06875,0.039121 0.101543,0.061158 0.03279,0.022032 0.06444,0.045662 0.09483,0.070802 0.03036,0.025119 0.05942,0.051713 0.08708,0.079684 0.02766,0.027964 0.05387,0.057268 0.07855,0.087804 0.02459,0.03049 0.04762,0.062166 0.06899,0.09491 0.02152,0.03284 0.04136,0.066718 0.05943,0.101507 0.01799,0.034711 0.0342,0.070283 0.04857,0.1065821 0.01436,0.036329 0.02686,0.07334 0.03746,0.1108957 0.01063,0.037614 0.01935,0.075727 0.0261,0.1141963 0.0067,0.038401 0.01145,0.077107 0.01422,0.1159729 0.002,0.027532 0.0031,0.055127 0.0031,0.082731 -1.8e-5,0.038985 -0.002,0.077944 -0.006,0.1167329 -0.004,0.038756 -0.0099,0.077292 -0.01782,0.1154644 -0.0079,0.038271 -0.01772,0.07613 -0.02946,0.1134344 -0.01174,0.037187 -0.02536,0.073775 -0.04082,0.1096274 -0.01542,0.035929 -0.03267,0.071077 -0.05167,0.1053138 -0.01905,0.034243 -0.03983,0.067529 -0.06226,0.099732 -0.02243,0.032206 -0.04649,0.063289 -0.07209,0.093132 -0.02557,0.029818 -0.05265,0.058362 -0.08113,0.085523 -0.02847,0.027163 -0.05831,0.052911 -0.0894,0.077147 -0.03105,0.02415 -0.0633,0.046763 -0.09664,0.067755 -0.03344,0.02114 -0.06793,0.040621 -0.103353,0.058371 -0.03534,0.017669 -0.07156,0.033593 -0.1085194,0.047712 -0.03699,0.014105 -0.074674,0.026385 -0.1129124,0.036794 -0.038298,0.010443 -0.077104,0.018995 -0.1162724,0.025626 -0.039099,0.00658 -0.078508,0.011235 -0.1180798,0.01395 -0.02803,0.002 -0.056123,0.00302 -0.084227,0.00307 -0.03969,-6.9e-6 -0.079354,-0.00196 -0.1188453,-0.00586 -0.039461,-0.00391 -0.078697,-0.00976 -0.1175638,-0.017519 C 9.2496083,6.9071433 9.211061,6.8974891 9.1730778,6.8859591 9.1352144,6.8744277 9.097961,6.8610463 9.0614568,6.8458648 9.0248746,6.8307135 8.989087,6.8137746 8.954228,6.7951115 8.9193624,6.7764005 8.8854722,6.7559873 8.8526847,6.7339483 8.8198919,6.7119153 8.7882425,6.688284 8.7578555,6.663143 8.7274955,6.6380253 8.6984334,6.6114321 8.6707783,6.583463 8.6431218,6.5554985 8.6169065,6.5261931 8.5922305,6.4956567 8.5676404,6.465168 8.5446145,6.4334933 8.5232385,6.4007508 8.5017162,6.367911 8.4818824,6.334033 8.4638119,6.2992439 8.4458229,6.2645332 8.4296109,6.2289615 8.4152364,6.1926618 8.4008742,6.1563328 8.3883702,6.1193213 8.377771,6.081766 8.3671369,6.0441523 8.3584273,6.0060392 8.3516747,5.9675699 c -0.0067,-0.038401 -0.011449,-0.077107 -0.014219,-0.115973 -0.00202,-0.027533 -0.00304,-0.055127 -0.00307,-0.082731 9e-7,-0.038984 0.00199,-0.077944 0.00595,-0.1167329 0.00398,-0.038756 0.00993,-0.077292 0.017826,-0.1154644 0.00788,-0.038271 0.017714,-0.07613 0.029454,-0.1134344 0.011741,-0.037187 0.025366,-0.073775 0.040824,-0.1096274 0.015426,-0.035929 0.032672,-0.071077 0.051674,-0.1053139 0.019048,-0.034243 0.039829,-0.067529 0.062266,-0.099732 0.022433,-0.032206 0.046494,-0.063289 0.072091,-0.093133 0.025575,-0.029817 0.052651,-0.058359 0.081129,-0.085519 0.028472,-0.027163 0.058309,-0.05291 0.089399,-0.077146 0.031044,-0.02415 0.063296,-0.046763 0.096635,-0.067756 0.033437,-0.021139 0.067931,-0.040619 0.1033528,-0.058368 0.035342,-0.017668 0.07156,-0.03359 0.1085201,-0.047708 0.03699,-0.014106 0.074674,-0.026387 0.1129124,-0.036797 0.038298,-0.010444 0.077104,-0.018998 0.1162724,-0.02563 0.039099,-0.00658 0.078508,-0.011235 0.1180798,-0.01395 0.02803,-0.00199 0.056123,-0.00301 0.084227,-0.00305 z"
     id="path4"
     inkscape:connector-curvature="0"
     sodipodi:nodetypes="sscsscccccccscccccccccscccccscccccccccccccccscccccccccccccccscccccccccc" />
  <path
     id="path4-3"
     style="opacity:0.3;fill:url(#linearGradient1291);fill-opacity:1;stroke:none;stroke-width:1.98207;stroke-linecap:round;stroke-linejoin:round;stroke-miterlimit:10"
     d="M 36 17.384766 C 35.893795 17.384917 35.787581 17.38701 35.681641 17.394531 C 35.532085 17.404793 35.382155 17.422396 35.234375 17.447266 C 35.086323 17.472331 34.939678 17.505448 34.794922 17.544922 C 34.650381 17.584267 34.508945 17.63028 34.369141 17.683594 C 34.229449 17.736953 34.092553 17.798458 33.958984 17.865234 C 33.825106 17.932317 33.694747 18.006042 33.568359 18.085938 C 33.44235 18.165281 33.320442 18.250521 33.203125 18.341797 C 33.085619 18.433398 32.972838 18.530149 32.865234 18.632812 C 32.757593 18.735464 32.655236 18.842384 32.558594 18.955078 C 32.461838 19.067874 32.369931 19.18687 32.285156 19.308594 C 32.200344 19.430306 32.122781 19.556121 32.050781 19.685547 C 31.97897 19.814946 31.913787 19.946237 31.855469 20.082031 C 31.797037 20.217536 31.745544 20.357498 31.701172 20.498047 C 31.6568 20.639044 31.619702 20.781135 31.589844 20.925781 C 31.559872 21.070055 31.538556 21.216802 31.523438 21.363281 C 31.508319 21.509881 31.500064 21.655389 31.5 21.802734 C 31.5 21.907064 31.50416 22.01313 31.511719 22.117188 C 31.516254 22.180829 31.523914 22.243271 31.53125 22.306641 C 31.546026 22.179184 31.563823 22.05151 31.589844 21.925781 C 31.619626 21.781135 31.656804 21.639044 31.701172 21.498047 C 31.745544 21.357498 31.797052 21.217536 31.855469 21.082031 C 31.913768 20.946237 31.97897 20.814946 32.050781 20.685547 C 32.122777 20.556121 32.200351 20.430306 32.285156 20.308594 C 32.369942 20.18687 32.461849 20.067874 32.558594 19.955078 C 32.655255 19.842384 32.757601 19.735464 32.865234 19.632812 C 32.972845 19.530149 33.085616 19.433398 33.203125 19.341797 C 33.320453 19.250521 33.442361 19.165281 33.568359 19.085938 C 33.694735 19.006042 33.82511 18.932317 33.958984 18.865234 C 34.09256 18.798458 34.229449 18.736953 34.369141 18.683594 C 34.508945 18.63028 34.6504 18.584267 34.794922 18.544922 C 34.93967 18.505448 35.086335 18.472331 35.234375 18.447266 C 35.382151 18.422396 35.532077 18.404793 35.681641 18.394531 C 35.787585 18.38701 35.89378 18.384917 36 18.384766 C 36.150021 18.384764 36.29995 18.391548 36.449219 18.40625 C 36.598363 18.421028 36.745683 18.443331 36.892578 18.472656 C 37.039855 18.50191 37.18652 18.53845 37.330078 18.582031 C 37.473186 18.625617 37.613985 18.675041 37.751953 18.732422 C 37.890216 18.789685 38.024501 18.855244 38.15625 18.925781 C 38.288004 18.996492 38.417074 19.072961 38.541016 19.15625 C 38.664946 19.239521 38.785531 19.328811 38.900391 19.423828 C 39.015137 19.518766 39.123974 19.618892 39.228516 19.724609 C 39.333057 19.8303 39.432112 19.941229 39.525391 20.056641 C 39.618329 20.171878 39.706341 20.292259 39.787109 20.416016 C 39.868445 20.540135 39.943423 20.667342 40.011719 20.798828 C 40.079712 20.930019 40.141001 21.063978 40.195312 21.201172 C 40.249587 21.338478 40.295875 21.479155 40.335938 21.621094 C 40.376152 21.763257 40.410035 21.907339 40.435547 22.052734 C 40.449899 22.134992 40.459153 22.217882 40.46875 22.300781 C 40.470932 22.281982 40.474619 22.262969 40.476562 22.244141 C 40.491681 22.097541 40.499932 21.950079 40.5 21.802734 C 40.5 21.698404 40.49584 21.594292 40.488281 21.490234 C 40.477812 21.34334 40.46087 21.197872 40.435547 21.052734 C 40.410035 20.907339 40.376152 20.763257 40.335938 20.621094 C 40.295875 20.479155 40.249587 20.338478 40.195312 20.201172 C 40.141001 20.063978 40.079712 19.930019 40.011719 19.798828 C 39.943423 19.667342 39.868445 19.540135 39.787109 19.416016 C 39.706341 19.292259 39.618329 19.171878 39.525391 19.056641 C 39.432112 18.941229 39.333057 18.8303 39.228516 18.724609 C 39.123974 18.618892 39.015137 18.518766 38.900391 18.423828 C 38.785531 18.328811 38.664946 18.239521 38.541016 18.15625 C 38.417074 18.072961 38.288004 17.996492 38.15625 17.925781 C 38.0245 17.855244 37.890208 17.789685 37.751953 17.732422 C 37.613997 17.675041 37.473171 17.625617 37.330078 17.582031 C 37.186505 17.53845 37.039866 17.50191 36.892578 17.472656 C 36.745691 17.443331 36.598359 17.421028 36.449219 17.40625 C 36.299946 17.391548 36.150009 17.384764 36 17.384766 z M 25.013672 22.259766 C 25.004672 22.440085 25 22.620122 25 22.802734 C 25 30.659872 36 40 36 40 C 36 40 47 30.659872 47 22.802734 C 47 22.620122 46.995328 22.440085 46.986328 22.259766 C 46.579087 30.017714 36 39 36 39 C 36 39 25.420914 30.017714 25.013672 22.259766 z "
     transform="scale(0.26458333)" />
  <path
     id="rect870"
     style="opacity:0.3;fill:url(#linearGradient1162);stroke-width:12;stroke-linecap:round;stroke-linejoin:round;fill-opacity:1"
     d="M 12 4 C 7.5680001 4 4 7.5680001 4 12 L 4 52 C 4 56.432 7.5680001 60 12 60 L 52 60 C 56.432 60 60 56.432 60 52 L 60 12 C 60 7.5680001 56.432 4 52 4 L 12 4 z M 12 5 L 52 5 C 55.878 5 59 8.1219999 59 12 L 59 52 C 59 55.878 55.878 59 52 59 L 12 59 C 8.1219999 59 5 55.878 5 52 L 5 12 C 5 8.1219999 8.1219999 5 12 5 z "
     transform="scale(0.26458333)" />
</svg>
