<?xml version="1.0" encoding="UTF-8" standalone="no"?>
<!-- Created with Inkscape (http://www.inkscape.org/) -->

<svg
   width="64"
   height="64"
   viewBox="0 0 16.933333 16.933333"
   version="1.1"
   id="svg5"
   inkscape:version="1.1.1 (3bf5ae0d25, 2021-09-20, custom)"
   sodipodi:docname="goa-account-msn.svg"
   xmlns:inkscape="http://www.inkscape.org/namespaces/inkscape"
   xmlns:sodipodi="http://sodipodi.sourceforge.net/DTD/sodipodi-0.dtd"
   xmlns="http://www.w3.org/2000/svg"
   xmlns:svg="http://www.w3.org/2000/svg">
  <sodipodi:namedview
     id="namedview7"
     pagecolor="#ffffff"
     bordercolor="#666666"
     borderopacity="1.0"
     inkscape:pageshadow="2"
     inkscape:pageopacity="0.0"
     inkscape:pagecheckerboard="0"
     inkscape:document-units="px"
     showgrid="false"
     units="px"
     height="48px"
     inkscape:zoom="7.9999996"
     inkscape:cx="-2.2500001"
     inkscape:cy="20.750001"
     inkscape:window-width="1920"
     inkscape:window-height="1011"
     inkscape:window-x="0"
     inkscape:window-y="0"
     inkscape:window-maximized="1"
     inkscape:current-layer="svg5"
     inkscape:lockguides="true" />
  <defs
     id="defs2" />
  <path
     id="rect846-3"
     style="fill:#ffffff;stroke-width:0.337527;fill-opacity:1"
     d="m 3.175,1.5875 h 10.583333 c 0.879475,0 1.5875,0.708025 1.5875,1.5875 v 10.583333 c 0,0.879475 -0.708025,1.5875 -1.5875,1.5875 H 3.175 c -0.879475,0 -1.5875,-0.708025 -1.5875,-1.5875 V 3.175 c 0,-0.879475 0.708025,-1.5875 1.5875,-1.5875 z" />
  <rect
     style="opacity:1;fill:#f25022;stroke-width:1.37504;stroke-linejoin:round;fill-opacity:1"
     id="rect942"
     width="4.4979167"
     height="4.4979167"
     x="3.7041667"
     y="3.7041667" />
  <rect
     style="opacity:1;fill:#00a4ef;stroke-width:1.5875;stroke-linejoin:round;fill-opacity:1"
     id="rect1090"
     width="4.4979172"
     height="4.4979172"
     x="3.7041667"
     y="8.7312498" />
  <rect
     style="opacity:1;fill:#7fba00;stroke-width:1.5875;stroke-linejoin:round;fill-opacity:1"
     id="rect1274"
     width="4.4979172"
     height="4.4979172"
     x="8.7312498"
     y="3.7041667" />
  <rect
     style="opacity:1;fill:#ffb900;stroke-width:1.5875;stroke-linejoin:round;fill-opacity:1"
     id="rect1408"
     width="4.4979172"
     height="4.4979172"
     x="8.7312498"
     y="8.7312498" />
  <path
     id="rect846"
     style="opacity:0.3;fill:#1a1a1a;fill-opacity:1;stroke-width:0.337526"
     d="M 3.1749999,1.5875 C 2.2955251,1.5875 1.5875,2.2955251 1.5875,3.1749999 V 13.758333 c 0,0.879475 0.7080251,1.5875 1.5874999,1.5875 H 13.758333 c 0.879475,0 1.5875,-0.708025 1.5875,-1.5875 V 3.1749999 c 0,-0.8794748 -0.708025,-1.5874999 -1.5875,-1.5874999 z m 0,0.2645833 H 13.758333 c 0.732896,0 1.322917,0.5900208 1.322917,1.3229166 V 13.758333 c 0,0.732896 -0.590021,1.322917 -1.322917,1.322917 H 3.1749999 c -0.7328958,0 -1.3229166,-0.590021 -1.3229166,-1.322917 V 3.1749999 c 0,-0.7328958 0.5900208,-1.3229166 1.3229166,-1.3229166 z" />
</svg>
