<?xml version="1.0" encoding="UTF-8" standalone="no"?>
<svg
   version="1.1"
   id="Layer_1"
   width="64"
   height="64"
   viewBox="0 0 64 64"
   sodipodi:docname="microsoft-edge.svg"
   inkscape:version="1.1.1 (3bf5ae0d25, 2021-09-20, custom)"
   xmlns:inkscape="http://www.inkscape.org/namespaces/inkscape"
   xmlns:sodipodi="http://sodipodi.sourceforge.net/DTD/sodipodi-0.dtd"
   xmlns:xlink="http://www.w3.org/1999/xlink"
   xmlns="http://www.w3.org/2000/svg"
   xmlns:svg="http://www.w3.org/2000/svg"
   xmlns:rdf="http://www.w3.org/1999/02/22-rdf-syntax-ns#"
   xmlns:cc="http://creativecommons.org/ns#"
   xmlns:dc="http://purl.org/dc/elements/1.1/">
  <sodipodi:namedview
     id="namedview65"
     pagecolor="#ffffff"
     bordercolor="#666666"
     borderopacity="1.0"
     inkscape:pageshadow="2"
     inkscape:pageopacity="0.0"
     inkscape:pagecheckerboard="0"
     showgrid="false"
     inkscape:zoom="1.7401456"
     inkscape:cx="81.602367"
     inkscape:cy="144.2408"
     inkscape:window-width="1920"
     inkscape:window-height="1011"
     inkscape:window-x="0"
     inkscape:window-y="0"
     inkscape:window-maximized="1"
     inkscape:current-layer="Layer_1" />
  <defs
     id="defs48">
    <style
       id="style2">.cls-1{fill:url(#linear-gradient);}.cls-2{opacity:0.35;fill:url(#radial-gradient);}.cls-2,.cls-4{isolation:isolate;}.cls-3{fill:url(#linear-gradient-2);}.cls-4{opacity:0.41;fill:url(#radial-gradient-2);}.cls-5{fill:url(#radial-gradient-3);}.cls-6{fill:url(#radial-gradient-4);}</style>
    <linearGradient
       id="linear-gradient"
       x1="63.330002"
       y1="84.029999"
       x2="241.67"
       y2="84.029999"
       gradientTransform="matrix(0.14061621,0,0,-0.14061621,13.351759,50.712081)"
       gradientUnits="userSpaceOnUse">
      <stop
         offset="0"
         stop-color="#0c59a4"
         id="stop4" />
      <stop
         offset="1"
         stop-color="#114a8b"
         id="stop6" />
    </linearGradient>
    <radialGradient
       id="radial-gradient"
       cx="161.83"
       cy="68.910004"
       r="95.379997"
       gradientTransform="matrix(0.14061621,0,0,-0.1335854,13.351759,48.299106)"
       gradientUnits="userSpaceOnUse">
      <stop
         offset="0.72"
         stop-opacity="0"
         id="stop9" />
      <stop
         offset="0.95"
         stop-opacity="0.53"
         id="stop11" />
      <stop
         offset="1"
         id="stop13" />
    </radialGradient>
    <linearGradient
       id="linear-gradient-2"
       x1="157.35001"
       y1="161.39"
       x2="45.959999"
       y2="40.060001"
       gradientTransform="matrix(0.14061621,0,0,-0.14061621,13.351759,50.712081)"
       gradientUnits="userSpaceOnUse">
      <stop
         offset="0"
         stop-color="#1b9de2"
         id="stop16" />
      <stop
         offset="0.16"
         stop-color="#1595df"
         id="stop18" />
      <stop
         offset="0.67"
         stop-color="#0680d7"
         id="stop20" />
      <stop
         offset="1"
         stop-color="#0078d4"
         id="stop22" />
    </linearGradient>
    <radialGradient
       id="radial-gradient-2"
       cx="-340.29001"
       cy="62.990002"
       r="143.24001"
       gradientTransform="matrix(0.02109243,-0.13921005,-0.11249297,-0.01687395,38.190207,-4.3251044)"
       gradientUnits="userSpaceOnUse">
      <stop
         offset="0.76"
         stop-opacity="0"
         id="stop25" />
      <stop
         offset="0.95"
         stop-opacity="0.5"
         id="stop27" />
      <stop
         offset="1"
         id="stop29" />
    </radialGradient>
    <radialGradient
       id="radial-gradient-3"
       cx="113.37"
       cy="570.21002"
       r="202.42999"
       gradientTransform="matrix(-0.00562465,0.14061621,0.29951253,0.0112493,-152.51069,-1.6941754)"
       gradientUnits="userSpaceOnUse">
      <stop
         offset="0"
         stop-color="#35c1f1"
         id="stop32" />
      <stop
         offset="0.11"
         stop-color="#34c1ed"
         id="stop34" />
      <stop
         offset="0.23"
         stop-color="#2fc2df"
         id="stop36" />
      <stop
         offset="0.31"
         stop-color="#2bc3d2"
         id="stop38" />
      <stop
         offset="0.67"
         stop-color="#36c752"
         id="stop40" />
    </radialGradient>
    <radialGradient
       id="radial-gradient-4"
       cx="376.51999"
       cy="567.96997"
       r="97.339996"
       gradientTransform="matrix(0.03937254,0.13499156,0.10968064,-0.03234173,-29.361821,-7.5733384)"
       gradientUnits="userSpaceOnUse">
      <stop
         offset="0"
         stop-color="#66eb6e"
         id="stop43" />
      <stop
         offset="1"
         stop-color="#66eb6e"
         stop-opacity="0"
         id="stop45" />
    </radialGradient>
    <linearGradient
       inkscape:collect="always"
       xlink:href="#linearGradient37218"
       id="linearGradient881"
       x1="64.208344"
       y1="64.062607"
       x2="0.30528301"
       y2="0.13507102"
       gradientUnits="userSpaceOnUse" />
    <linearGradient
       inkscape:collect="always"
       id="linearGradient37218">
      <stop
         style="stop-color:#1a1a1a;stop-opacity:1"
         offset="0"
         id="stop37214" />
      <stop
         style="stop-color:#afafaf;stop-opacity:0.40000001"
         offset="0.49741825"
         id="stop37220" />
      <stop
         style="stop-color:#4d4d4d;stop-opacity:1"
         offset="1"
         id="stop37216" />
    </linearGradient>
  </defs>
  <title
     id="title50">Edge_Logo_265x265</title>
  <path
     id="rect846-3"
     style="fill:#ffffff;fill-opacity:1;stroke-width:1.27569"
     d="m 12,6 h 39.999998 c 3.324,0 6,2.676 6,6 v 39.999999 c 0,3.324 -2.676,6 -6,6 H 12 c -3.324,0 -6,-2.676 -6,-6 V 12 C 6,8.676 8.676,6 12,6 Z" />
  <path
     id="rect846"
     style="opacity:0.3;fill:url(#linearGradient881);fill-opacity:1;stroke-width:1.27569"
     d="M 12,6 C 8.676,6 6,8.676 6,12 v 40 c 0,3.324 2.676,6 6,6 h 39.999998 c 3.324,0 6,-2.676 6,-6 V 12 c 0,-3.324 -2.676,-6 -6,-6 z m 0,1 h 39.999998 c 2.77,0 5,2.23 5,5 v 40 c 0,2.77 -2.23,5 -5,5 H 12 C 9.23,57 7,54.77 7,52 V 12 C 7,9.23 9.23,7 12,7 Z" />
  <path
     class="cls-1"
     d="m 46.492188,40.793013 a 13.179958,13.179958 0 0 1 -1.482095,0.662303 14.324574,14.324574 0 0 1 -5.048122,0.908381 c -6.653959,0 -12.450159,-4.577058 -12.450159,-10.450597 a 4.4265983,4.4265983 0 0 1 2.310324,-3.840229 c -6.018374,0.253109 -7.565152,6.524592 -7.565152,10.198894 0,10.388726 9.574558,11.441941 11.637398,11.441941 1.112274,0 2.789825,-0.323417 3.796637,-0.64121 l 0.184208,-0.06187 a 18.046685,18.046685 0 0 0 9.365039,-7.424536 0.56246485,0.56246485 0 0 0 -0.748078,-0.793077 z"
     id="path52"
     style="fill:url(#linear-gradient);stroke-width:0.140616" />
  <path
     class="cls-2"
     d="m 46.492188,40.793013 a 13.179958,13.179958 0 0 1 -1.482095,0.662303 14.324574,14.324574 0 0 1 -5.048122,0.908381 c -6.653959,0 -12.450159,-4.577058 -12.450159,-10.450597 a 4.4265983,4.4265983 0 0 1 2.310324,-3.840229 c -6.018374,0.253109 -7.565152,6.524592 -7.565152,10.198894 0,10.388726 9.574558,11.441941 11.637398,11.441941 1.112274,0 2.789825,-0.323417 3.796637,-0.64121 l 0.184208,-0.06187 a 18.046685,18.046685 0 0 0 9.365039,-7.424536 0.56246485,0.56246485 0 0 0 -0.748078,-0.793077 z"
     id="path54"
     style="fill:url(#radial-gradient);stroke-width:0.140616" />
  <path
     class="cls-3"
     d="m 28.867352,47.947566 a 11.136804,11.136804 0 0 1 -3.197613,-3.00075 11.350541,11.350541 0 0 1 4.152397,-16.873945 c 0.438723,-0.206706 1.188207,-0.580745 2.185176,-0.562465 a 4.5489345,4.5489345 0 0 1 3.612431,1.828011 4.4828448,4.4828448 0 0 1 0.894319,2.623898 c 0,-0.02953 3.439472,-11.19305 -11.249297,-11.19305 -6.173052,0 -11.249297,5.858071 -11.249297,10.997594 a 18.3012,18.3012 0 0 0 1.702862,7.874508 17.998875,17.998875 0 0 0 21.989563,9.436754 10.623555,10.623555 0 0 1 -8.827885,-1.12493 z"
     id="path56"
     style="fill:url(#linear-gradient-2);stroke-width:0.140616" />
  <path
     class="cls-4"
     d="m 28.867352,47.947566 a 11.136804,11.136804 0 0 1 -3.197613,-3.00075 11.350541,11.350541 0 0 1 4.152397,-16.873945 c 0.438723,-0.206706 1.188207,-0.580745 2.185176,-0.562465 a 4.5489345,4.5489345 0 0 1 3.612431,1.828011 4.4828448,4.4828448 0 0 1 0.894319,2.623898 c 0,-0.02953 3.439472,-11.19305 -11.249297,-11.19305 -6.173052,0 -11.249297,5.858071 -11.249297,10.997594 a 18.3012,18.3012 0 0 0 1.702862,7.874508 17.998875,17.998875 0 0 0 21.989563,9.436754 10.623555,10.623555 0 0 1 -8.827885,-1.12493 z"
     id="path58"
     style="fill:url(#radial-gradient-2);stroke-width:0.140616" />
  <path
     class="cls-5"
     d="m 35.420068,34.93213 c -0.1139,0.147647 -0.464034,0.35154 -0.464034,0.795888 0,0.367008 0.239048,0.719955 0.663709,1.016655 2.022061,1.406162 5.834166,1.220548 5.844009,1.220548 a 8.3751016,8.3751016 0 0 0 4.256453,-1.174145 8.6310231,8.6310231 0 0 0 4.278951,-7.435785 C 50.035717,26.204081 48.874227,24.1089 48.404569,23.180833 45.424911,17.352291 38.993125,14 31.998875,14 A 17.998875,17.998875 0 0 0 14,31.745766 c 0.0675,-5.138116 5.174677,-9.287701 11.249297,-9.287701 0.492157,0 3.298856,0.04781 5.905881,1.416006 2.297669,1.206487 3.501344,2.663271 4.33801,4.107399 0.869008,1.500375 1.023686,3.395882 1.023686,4.150991 0,0.755109 -0.385288,1.874414 -1.096806,2.799669 z"
     id="path60"
     style="fill:url(#radial-gradient-3);stroke-width:0.140616" />
  <path
     class="cls-6"
     d="m 35.420068,34.93213 c -0.1139,0.147647 -0.464034,0.35154 -0.464034,0.795888 0,0.367008 0.239048,0.719955 0.663709,1.016655 2.022061,1.406162 5.834166,1.220548 5.844009,1.220548 a 8.3751016,8.3751016 0 0 0 4.256453,-1.174145 8.6310231,8.6310231 0 0 0 4.278951,-7.435785 C 50.035717,26.204081 48.874227,24.1089 48.404569,23.180833 45.424911,17.352291 38.993125,14 31.998875,14 A 17.998875,17.998875 0 0 0 14,31.745766 c 0.0675,-5.138116 5.174677,-9.287701 11.249297,-9.287701 0.492157,0 3.298856,0.04781 5.905881,1.416006 2.297669,1.206487 3.501344,2.663271 4.33801,4.107399 0.869008,1.500375 1.023686,3.395882 1.023686,4.150991 0,0.755109 -0.385288,1.874414 -1.096806,2.799669 z"
     id="path62"
     style="fill:url(#radial-gradient-4);stroke-width:0.140616" />
  <metadata
     id="metadata882">
    <rdf:RDF>
      <cc:Work
         rdf:about="">
        <dc:title>Edge_Logo_265x265</dc:title>
      </cc:Work>
    </rdf:RDF>
  </metadata>
</svg>
