<?xml version="1.0" encoding="UTF-8" standalone="no"?>
<!-- Created with Inkscape (http://www.inkscape.org/) -->

<svg
   width="64"
   height="64"
   viewBox="0 0 16.933333 16.933333"
   version="1.1"
   id="svg5"
   inkscape:version="1.1.1 (3bf5ae0d25, 2021-09-20, custom)"
   sodipodi:docname="goa-account-exchange.svg"
   xmlns:inkscape="http://www.inkscape.org/namespaces/inkscape"
   xmlns:sodipodi="http://sodipodi.sourceforge.net/DTD/sodipodi-0.dtd"
   xmlns="http://www.w3.org/2000/svg"
   xmlns:svg="http://www.w3.org/2000/svg">
  <sodipodi:namedview
     id="namedview7"
     pagecolor="#ffffff"
     bordercolor="#666666"
     borderopacity="1.0"
     inkscape:pageshadow="2"
     inkscape:pageopacity="0.0"
     inkscape:pagecheckerboard="0"
     inkscape:document-units="px"
     showgrid="false"
     units="px"
     height="48px"
     inkscape:zoom="11.313708"
     inkscape:cx="11.313709"
     inkscape:cy="31.598836"
     inkscape:window-width="1920"
     inkscape:window-height="1019"
     inkscape:window-x="0"
     inkscape:window-y="0"
     inkscape:window-maximized="1"
     inkscape:current-layer="svg5"
     inkscape:lockguides="true" />
  <defs
     id="defs2" />
  <path
     id="rect846-3"
     style="fill:#ffffff;stroke-width:0.337527;fill-opacity:1"
     d="m 3.175,1.5875 h 10.583333 c 0.879475,0 1.5875,0.708025 1.5875,1.5875 v 10.583333 c 0,0.879475 -0.708025,1.5875 -1.5875,1.5875 H 3.175 c -0.879475,0 -1.5875,-0.708025 -1.5875,-1.5875 V 3.175 c 0,-0.879475 0.708025,-1.5875 1.5875,-1.5875 z" />
  <path
     id="rect846"
     style="opacity:0.3;fill:#1a1a1a;stroke-width:1.27569;fill-opacity:1"
     d="M 12 6 C 8.6760005 6 6 8.6760005 6 12 L 6 52 C 6 55.324 8.6760005 58 12 58 L 52 58 C 55.324 58 58 55.324 58 52 L 58 12 C 58 8.6760005 55.324 6 52 6 L 12 6 z M 12 7 L 52 7 C 54.77 7 57 9.23 57 12 L 57 52 C 57 54.77 54.77 57 52 57 L 12 57 C 9.23 57 7 54.77 7 52 L 7 12 C 7 9.23 9.23 7 12 7 z "
     transform="scale(0.26458333)" />
  <path
     style="fill:#50d9ff;stroke-width:0.057727"
     inkscape:connector-curvature="0"
     id="path8"
     d="M 8.2011206,4.4873333 C 8.1664843,4.4411515 8.1029844,4.3718787 8.0048482,4.319924 7.9009389,4.2621968 7.8085756,4.2448787 7.7508478,4.2391059 c -0.7562267,0 -1.5066814,0 -2.2629085,0 -0.098137,0 -0.2655455,0.017319 -0.3925455,0.1385456 -0.1327727,0.1269996 -0.1616357,0.3059544 -0.1616357,0.4040908 0,0.3001818 0,0.5945909 0,0.8947724 h 3.2846816 c 0.3232722,0 0.5888182,0.2655458 0.5888182,0.5888181 V 7.9740604 C 8.9631213,7.7893325 9.055484,7.552651 9.055484,7.2986513 V 5.399424 C 8.7726207,5.0992423 8.4839848,4.7932878 8.2011206,4.4873333 Z"
     class="st2" />
  <path
     style="fill:#0078d4;stroke-width:0.057727;enable-background:new"
     inkscape:connector-curvature="0"
     id="path10"
     d="M 8.0337118,10.785378 H 4.2352576 c -0.2944091,0 -0.531091,-0.236681 -0.531091,-0.531091 V 6.4558329 c 0,-0.2944089 0.2366819,-0.5310906 0.531091,-0.5310906 h 3.7926815 c 0.2944086,0 0.5310901,0.2366817 0.5310901,0.5310906 v 3.7926811 c 0.00574,0.300183 -0.2309087,0.536864 -0.5253174,0.536864 z"
     class="st3" />
  <path
     class="st4"
     d="M 6.9773029,9.8559683 H 5.2916665 V 6.8599237 H 6.90803 V 7.2813331 H 5.7881211 V 8.1299238 H 6.8156664 V 8.5513332 H 5.7881211 v 0.8889997 h 1.183409 v 0.4156354 z"
     id="path12"
     inkscape:connector-curvature="0"
     style="fill:#ffffff;stroke-width:0.057727" />
  <path
     style="fill:#28a8ea;stroke-width:0.057727"
     inkscape:connector-curvature="0"
     id="path16"
     d="m 12.640347,4.2333333 c -0.65809,0 -1.316181,0 -1.974272,0 -0.282863,0 -0.554182,0.1154537 -0.7562276,0.3117272 C 9.4826662,4.9722423 9.0497113,5.4051967 8.62253,5.8323784 8.7379835,5.942061 8.807257,6.0921513 8.807257,6.2595601 v 4.1736809 c 0,0.323274 -0.2655459,0.588819 -0.5888182,0.588819 H 4.9337574 v 0.912091 c 0,0.323273 0.2655454,0.588818 0.5888182,0.588818 H 7.496848 c 0.2828639,0 0.5541818,-0.115459 0.7562271,-0.311727 1.5759551,-1.575954 3.1519089,-3.1519095 4.7278629,-4.7278637 0.161643,-0.161637 0.248228,-0.3809996 0.248228,-0.6061365 V 4.8221513 c 0,-0.3290454 -0.265546,-0.588818 -0.588819,-0.588818 z"
     class="st5" />
  <path
     style="fill:#0078d4;stroke-width:0.057727;enable-background:new"
     inkscape:connector-curvature="0"
     id="path18"
     d="m 12.039984,8.372378 c 0,-0.00574 0,-0.011549 0,-0.017319 h -1.928091 c -0.583045,0 -1.056409,0.473363 -1.056409,1.0564085 v 1.8934575 c 0.2828642,0.305954 0.5715002,0.606137 0.8543634,0.912091 0.034638,0.04619 0.098138,0.115459 0.1962736,0.167416 0.10391,0.05773 0.196272,0.07505 0.253999,0.08083 0.756228,0 1.506682,0 2.262909,0 0.09814,0 0.265546,-0.01741 0.392547,-0.13855 0.132778,-0.127005 0.161643,-0.305956 0.161643,-0.404091 0,-0.779318 0,-1.56441 0,-2.3437287 C 12.796212,9.174793 12.415211,8.7707026 12.039984,8.3723841 Z"
     class="st3" />
</svg>
