<?xml version="1.0" encoding="UTF-8" standalone="no"?>
<!-- Created with Inkscape (http://www.inkscape.org/) -->

<svg
   width="64"
   height="64"
   viewBox="0 0 16.933333 16.933333"
   version="1.1"
   id="svg5"
   inkscape:version="1.1.1 (3bf5ae0d25, 2021-09-20, custom)"
   sodipodi:docname="ms-onedrive.svg"
   xmlns:inkscape="http://www.inkscape.org/namespaces/inkscape"
   xmlns:sodipodi="http://sodipodi.sourceforge.net/DTD/sodipodi-0.dtd"
   xmlns:xlink="http://www.w3.org/1999/xlink"
   xmlns="http://www.w3.org/2000/svg"
   xmlns:svg="http://www.w3.org/2000/svg">
  <sodipodi:namedview
     id="namedview7"
     pagecolor="#ffffff"
     bordercolor="#666666"
     borderopacity="1.0"
     inkscape:pageshadow="2"
     inkscape:pageopacity="0.0"
     inkscape:pagecheckerboard="0"
     inkscape:document-units="px"
     showgrid="true"
     units="px"
     height="48px"
     inkscape:zoom="12.484375"
     inkscape:cx="31.95995"
     inkscape:cy="32"
     inkscape:window-width="1920"
     inkscape:window-height="1019"
     inkscape:window-x="0"
     inkscape:window-y="0"
     inkscape:window-maximized="1"
     inkscape:current-layer="svg5"
     inkscape:lockguides="true" />
  <defs
     id="defs2">
    <linearGradient
       inkscape:collect="always"
       id="linearGradient37218">
      <stop
         style="stop-color:#1a1a1a;stop-opacity:1"
         offset="0"
         id="stop37214" />
      <stop
         style="stop-color:#afafaf;stop-opacity:0.40000001"
         offset="0.49741825"
         id="stop37220" />
      <stop
         style="stop-color:#4d4d4d;stop-opacity:1"
         offset="1"
         id="stop37216" />
    </linearGradient>
    <linearGradient
       inkscape:collect="always"
       xlink:href="#linearGradient37218"
       id="linearGradient881"
       x1="64.208344"
       y1="64.062607"
       x2="0.30528301"
       y2="0.13507102"
       gradientUnits="userSpaceOnUse" />
  </defs>
  <path
     id="rect846-3"
     style="fill:#ffffff;stroke-width:0.337527;fill-opacity:1"
     d="m 3.175,1.5875 h 10.583333 c 0.879475,0 1.5875,0.708025 1.5875,1.5875 v 10.583333 c 0,0.879475 -0.708025,1.5875 -1.5875,1.5875 H 3.175 c -0.879475,0 -1.5875,-0.708025 -1.5875,-1.5875 V 3.175 c 0,-0.879475 0.708025,-1.5875 1.5875,-1.5875 z" />
  <path
     id="rect846"
     style="opacity:0.3;fill:url(#linearGradient881);stroke-width:1.27569;fill-opacity:1"
     d="M 12 6 C 8.6760005 6 6 8.6760005 6 12 L 6 52 C 6 55.324 8.6760005 58 12 58 L 52 58 C 55.324 58 58 55.324 58 52 L 58 12 C 58 8.6760005 55.324 6 52 6 L 12 6 z M 12 7 L 52 7 C 54.77 7 57 9.23 57 12 L 57 52 C 57 54.77 54.77 57 52 57 L 12 57 C 9.23 57 7 54.77 7 52 L 7 12 C 7 9.23 9.23 7 12 7 z "
     transform="scale(0.26458333)" />
  <circle
     id="circle4"
     r="3.0162511"
     cy="8.5725012"
     cx="8.4666605"
     style="fill:#056ab6;stroke-width:0.3175" />
  <path
     id="path8"
     d="m 11.324161,7.7787514 c -0.26954,0.013354 -0.503469,0.063335 -0.723677,0.1438672 l -6.35e-4,6.351e-4 C 9.8942427,8.2175042 9.1612587,8.5236162 8.5243163,8.7895577 L 4.1611849,10.605867 c 0.3910017,0.537135 1.0007869,0.907183 1.7078035,0.971724 v 0.01116 h 5.4117646 0.04341 c 1.052103,0 1.905001,-0.852898 1.905001,-1.9050009 0,-1.052103 -0.852898,-1.9050007 -1.905002,-1.9050007 z"
     style="fill:#138fe6;stroke-width:0.3175" />
  <path
     id="path10"
     d="m 6.0854093,6.8262511 a 2.3812509,2.3812509 0 0 0 -2.0903594,1.246013 l -0.00422,0.00127 C 3.8079851,8.4106278 3.7041666,8.797061 3.7041666,9.207502 c 5.843e-4,1.230814 0.939056,2.258367 2.1647736,2.370259 v 0.011 H 6.0854093 11.280866 C 12.001002,11.588245 12.662124,11.190519 13,10.554566 L 9.6589766,8.5631437 7.2591225,7.1327863 l -0.00761,0.00212 A 2.3812509,2.3812509 0 0 0 6.0854088,6.8262437 Z"
     style="fill:#1581d9;stroke-width:0.3175" />
  <path
     id="path12"
     d="M 9.4148197,8.4174724 C 9.1158854,8.5422722 8.7976481,8.6754251 8.5243313,8.7895429 L 4.1611849,10.605867 c 0.1456754,0.20012 0.3220118,0.376804 0.522139,0.523379 0.00481,0.0035 0.010044,0.0064 0.014882,0.0099 0.05903,0.04256 0.119946,0.08256 0.1829346,0.119683 0.014038,0.0083 0.028565,0.01559 0.042788,0.02357 0.05334,0.02997 0.1078597,0.05844 0.1637111,0.08434 0.021145,0.0098 0.042388,0.01935 0.063872,0.02852 0.054176,0.02319 0.1093344,0.04404 0.1655713,0.06325 0.020887,0.0071 0.041477,0.01453 0.062632,0.02109 0.059372,0.01843 0.1203274,0.03329 0.1816945,0.04713 0.020328,0.0046 0.04024,0.01021 0.060772,0.01426 0.080825,0.01599 0.1630514,0.02894 0.2468067,0.03659 v 0.01116 h 0.2164212 5.1953437 c 0.720137,-4.94e-4 1.381089,-0.398388 1.718966,-1.034341 L 9.6591459,8.5631999 Z"
     style="fill:#38afec;stroke-width:0.3175" />
</svg>
