<?xml version="1.0" encoding="UTF-8" standalone="no"?>
<!-- Created with Inkscape (http://www.inkscape.org/) -->

<svg
   width="64"
   height="64"
   viewBox="0 0 16.933333 16.933333"
   version="1.1"
   id="svg5"
   inkscape:version="1.1.1 (3bf5ae0d25, 2021-09-20, custom)"
   sodipodi:docname="ms-office.svg"
   xmlns:inkscape="http://www.inkscape.org/namespaces/inkscape"
   xmlns:sodipodi="http://sodipodi.sourceforge.net/DTD/sodipodi-0.dtd"
   xmlns:xlink="http://www.w3.org/1999/xlink"
   xmlns="http://www.w3.org/2000/svg"
   xmlns:svg="http://www.w3.org/2000/svg">
  <sodipodi:namedview
     id="namedview7"
     pagecolor="#ffffff"
     bordercolor="#666666"
     borderopacity="1.0"
     inkscape:pageshadow="2"
     inkscape:pageopacity="0.0"
     inkscape:pagecheckerboard="0"
     inkscape:document-units="px"
     showgrid="true"
     units="px"
     height="48px"
     inkscape:zoom="12.484375"
     inkscape:cx="31.95995"
     inkscape:cy="31.95995"
     inkscape:window-width="1920"
     inkscape:window-height="1011"
     inkscape:window-x="0"
     inkscape:window-y="0"
     inkscape:window-maximized="1"
     inkscape:current-layer="svg5"
     inkscape:lockguides="true" />
  <defs
     id="defs2">
    <linearGradient
       inkscape:collect="always"
       xlink:href="#linear-gradient"
       id="linearGradient1303"
       gradientUnits="userSpaceOnUse"
       x1="45.200001"
       y1="-1.42"
       x2="45.200001"
       y2="57.799999"
       gradientTransform="matrix(0.15746391,0,0,0.15746391,3.5027903,3.4270376)" />
    <linearGradient
       id="linear-gradient"
       x1="45.200001"
       y1="-1.42"
       x2="45.200001"
       y2="57.799999"
       gradientUnits="userSpaceOnUse">
      <stop
         offset="0"
         stop-color="#ffb900"
         id="stop1292" />
      <stop
         offset="0.17"
         stop-color="#ef8400"
         id="stop1294" />
      <stop
         offset="0.31"
         stop-color="#e25c01"
         id="stop1296" />
      <stop
         offset="0.43"
         stop-color="#db4401"
         id="stop1298" />
      <stop
         offset="0.5"
         stop-color="#d83b01"
         id="stop1300" />
    </linearGradient>
    <linearGradient
       id="linear-gradient-2"
       x1="34.52"
       y1="0.67000002"
       x2="3.1600001"
       y2="45.450001"
       gradientUnits="userSpaceOnUse"
       gradientTransform="matrix(0.15746391,0,0,0.15746391,3.5027903,3.4270376)">
      <stop
         offset="0"
         stop-color="#800600"
         id="stop15" />
      <stop
         offset="0.6"
         stop-color="#c72127"
         id="stop17" />
      <stop
         offset="0.73"
         stop-color="#c13959"
         id="stop19" />
      <stop
         offset="0.85"
         stop-color="#bc4b81"
         id="stop21" />
      <stop
         offset="0.94"
         stop-color="#b95799"
         id="stop23" />
      <stop
         offset="1"
         stop-color="#b85ba2"
         id="stop25" />
    </linearGradient>
    <linearGradient
       id="linear-gradient-3"
       x1="18.5"
       y1="55.630001"
       x2="59.439999"
       y2="55.630001"
       gradientUnits="userSpaceOnUse"
       gradientTransform="matrix(0.15746391,0,0,0.15746391,3.5027903,3.4270376)">
      <stop
         offset="0"
         stop-color="#f32b44"
         id="stop28" />
      <stop
         offset="0.6"
         stop-color="#a4070a"
         id="stop30" />
    </linearGradient>
    <linearGradient
       id="linear-gradient-4"
       x1="35.16"
       y1="-0.23999999"
       x2="28.52"
       y2="9.2399998"
       gradientUnits="userSpaceOnUse"
       gradientTransform="matrix(0.15746391,0,0,0.15746391,3.5027903,3.4270376)">
      <stop
         offset="0"
         stop-opacity="0.4"
         id="stop33" />
      <stop
         offset="1"
         stop-opacity="0"
         id="stop35" />
    </linearGradient>
    <linearGradient
       id="linear-gradient-5"
       x1="46.32"
       y1="56.549999"
       x2="27.99"
       y2="54.950001"
       gradientUnits="userSpaceOnUse"
       gradientTransform="matrix(0.15746391,0,0,0.15746391,3.5027903,3.4270376)">
      <stop
         offset="0"
         stop-opacity="0.4"
         id="stop38" />
      <stop
         offset="1"
         stop-opacity="0"
         id="stop40" />
    </linearGradient>
    <linearGradient
       inkscape:collect="always"
       xlink:href="#linearGradient37218-3"
       id="linearGradient1781"
       x1="2.8346456e-08"
       y1="2.2677165e-07"
       x2="64"
       y2="64"
       gradientUnits="userSpaceOnUse"
       gradientTransform="scale(0.26458333)" />
    <linearGradient
       inkscape:collect="always"
       id="linearGradient37218-3">
      <stop
         style="stop-color:#000000;stop-opacity:1"
         offset="0"
         id="stop37214-6" />
      <stop
         style="stop-color:#717171;stop-opacity:0.00392157"
         offset="0.49741825"
         id="stop37220-7" />
      <stop
         style="stop-color:#000000;stop-opacity:1"
         offset="1"
         id="stop37216-5" />
    </linearGradient>
  </defs>
  <path
     id="rect863"
     style="fill:#ffffff;stroke-width:0.264583"
     d="M 3.1750003,1.0583333 H 13.758334 c 1.172634,0 2.116667,0.944034 2.116667,2.116667 V 13.758333 c 0,1.172634 -0.944033,2.116667 -2.116667,2.116667 H 3.1750003 c -1.172633,0 -2.116667,-0.944033 -2.116667,-2.116667 V 3.1750003 c 0,-1.172633 0.944034,-2.116667 2.116667,-2.116667 z" />
  <path
     id="rect1345"
     style="opacity:0.3;fill:url(#linearGradient1781);fill-opacity:1;stroke-width:0.264583"
     d="m 3.1750003,1.0583333 c -1.172633,0 -2.116667,0.944034 -2.116667,2.116667 V 13.758333 c 0,1.172634 0.944034,2.116667 2.116667,2.116667 H 13.758335 c 1.172633,0 2.116666,-0.944033 2.116666,-2.116667 V 3.1750003 c 0,-1.172633 -0.944033,-2.116667 -2.116666,-2.116667 z m 0,0.264584 H 13.758335 c 1.026054,0 1.852083,0.826029 1.852083,1.852083 V 13.758333 c 0,1.026054 -0.826029,1.852084 -1.852083,1.852084 H 3.1750003 c -1.026054,0 -1.852083,-0.82603 -1.852083,-1.852084 V 3.1750003 c 0,-1.026054 0.826029,-1.852083 1.852083,-1.852083 z" />
  <path
     class="cls-6"
     d="m 8.9211229,3.7419654 0.7227594,1.653371 V 11.142769 L 8.9321459,13.1898 11.623203,12.42295 a 0.96367912,0.96367912 0 0 0 0.697565,-0.924313 V 5.4331277 a 0.96210444,0.96210444 0 0 0 -0.69914,-0.9258878 z"
     id="path59"
     style="isolation:isolate;fill:url(#linearGradient1303);fill-opacity:1;stroke-width:0.157464" />
  <path
     class="cls-7"
     d="M 5.5088804,11.081358 6.2962,10.656205 A 0.68654262,0.68654262 0 0 0 6.6520682,10.053119 V 6.9589527 A 0.6881173,0.6881173 0 0 1 7.1039901,6.3133509 L 9.6438823,5.3953364 V 4.6977713 A 0.99517186,0.99517186 0 0 0 8.9211229,3.7419654 0.97312695,0.97312695 0 0 0 8.6487109,3.7041741 v 0 A 1.0093436,1.0093436 0 0 0 8.1542742,3.8348691 L 5.2474904,5.492964 A 0.96052982,0.96052982 0 0 0 4.7625015,6.3275227 v 4.3082123 a 0.50545914,0.50545914 0 0 0 0.7463789,0.445623 z"
     id="path61"
     style="isolation:isolate;fill:url(#linear-gradient-2);stroke-width:0.157464" />
  <path
     class="cls-8"
     d="M 9.6438823,11.142769 H 6.6410459 a 0.50703378,0.50703378 0 0 0 -0.2503676,0.944784 l 1.7887899,1.014067 a 0.97627619,0.97627619 0 0 0 0.4834147,0.127546 v 0 a 0.94478345,0.94478345 0 0 0 0.269263,-0.03937 0.97942549,0.97942549 0 0 0 0.7117364,-0.944783 z"
     id="path63"
     style="isolation:isolate;fill:url(#linear-gradient-3);stroke-width:0.157464" />
  <path
     class="cls-9"
     d="M 5.5088804,11.081358 6.2962,10.656205 A 0.68654262,0.68654262 0 0 0 6.6520682,10.053119 V 6.9589527 A 0.6881173,0.6881173 0 0 1 7.1039901,6.3133509 L 9.6438823,5.3953364 V 4.6977713 A 0.99517186,0.99517186 0 0 0 8.9211229,3.7419654 0.97312695,0.97312695 0 0 0 8.6487109,3.7041741 v 0 A 1.0093436,1.0093436 0 0 0 8.1542742,3.8348691 L 5.2474904,5.492964 A 0.96052982,0.96052982 0 0 0 4.7625015,6.3275227 v 4.3082123 a 0.50545914,0.50545914 0 0 0 0.7463789,0.445623 z"
     id="path65"
     style="isolation:isolate;fill:url(#linear-gradient-4);stroke-width:0.157464" />
  <path
     class="cls-10"
     d="M 9.6438823,11.142769 H 6.6410459 a 0.50703378,0.50703378 0 0 0 -0.2503676,0.944784 l 1.7887899,1.014067 a 0.97627619,0.97627619 0 0 0 0.4834147,0.127546 v 0 a 0.94478345,0.94478345 0 0 0 0.269263,-0.03937 0.97942549,0.97942549 0 0 0 0.7117364,-0.944783 z"
     id="path67"
     style="isolation:isolate;fill:url(#linear-gradient-5);stroke-width:0.157464" />
</svg>
