<?xml version="1.0" encoding="UTF-8" standalone="no"?>
<!-- Created with Inkscape (http://www.inkscape.org/) -->

<svg
   width="64"
   height="64"
   viewBox="0 0 16.933333 16.933333"
   version="1.1"
   id="svg5"
   inkscape:version="1.1.1 (3bf5ae0d25, 2021-09-20, custom)"
   sodipodi:docname="muondiscover.svg"
   xmlns:inkscape="http://www.inkscape.org/namespaces/inkscape"
   xmlns:sodipodi="http://sodipodi.sourceforge.net/DTD/sodipodi-0.dtd"
   xmlns:xlink="http://www.w3.org/1999/xlink"
   xmlns="http://www.w3.org/2000/svg"
   xmlns:svg="http://www.w3.org/2000/svg">
  <sodipodi:namedview
     id="namedview7"
     pagecolor="#ffffff"
     bordercolor="#666666"
     borderopacity="1.0"
     inkscape:pageshadow="2"
     inkscape:pageopacity="0.0"
     inkscape:pagecheckerboard="0"
     inkscape:document-units="px"
     showgrid="false"
     units="px"
     height="48px"
     inkscape:zoom="7.9999996"
     inkscape:cx="45.250002"
     inkscape:cy="44.812502"
     inkscape:window-width="1368"
     inkscape:window-height="817"
     inkscape:window-x="221"
     inkscape:window-y="249"
     inkscape:window-maximized="0"
     inkscape:current-layer="svg5"
     inkscape:lockguides="true"
     showguides="false" />
  <defs
     id="defs2">
    <linearGradient
       inkscape:collect="always"
       id="linearGradient1261">
      <stop
         style="stop-color:#197cf1;stop-opacity:1"
         offset="0"
         id="stop1257" />
      <stop
         style="stop-color:#20bcfa;stop-opacity:1"
         offset="1"
         id="stop1259" />
    </linearGradient>
    <linearGradient
       inkscape:collect="always"
       xlink:href="#linearGradient37218"
       id="linearGradient1781"
       x1="2.8346456e-08"
       y1="2.2677165e-07"
       x2="64"
       y2="64"
       gradientUnits="userSpaceOnUse"
       gradientTransform="scale(0.26458333)" />
    <linearGradient
       inkscape:collect="always"
       id="linearGradient37218">
      <stop
         style="stop-color:#ffffff;stop-opacity:1"
         offset="0"
         id="stop37214" />
      <stop
         style="stop-color:#717171;stop-opacity:0.00392157"
         offset="0.49741825"
         id="stop37220" />
      <stop
         style="stop-color:#000000;stop-opacity:1"
         offset="1"
         id="stop37216" />
    </linearGradient>
    <linearGradient
       inkscape:collect="always"
       xlink:href="#linearGradient1498"
       id="linearGradient1500"
       x1="5.5562501"
       y1="7.1569281"
       x2="5.5562496"
       y2="14.036095"
       gradientUnits="userSpaceOnUse"
       gradientTransform="matrix(1.5454545,0,0,1.5454545,-4.6181818,-5.8448861)" />
    <linearGradient
       inkscape:collect="always"
       id="linearGradient1498">
      <stop
         style="stop-color:#ffffff;stop-opacity:1;"
         offset="0"
         id="stop1494" />
      <stop
         style="stop-color:#6cc1ef;stop-opacity:1"
         offset="1"
         id="stop1496" />
    </linearGradient>
    <linearGradient
       inkscape:collect="always"
       id="linearGradient6263">
      <stop
         style="stop-color:#000000;stop-opacity:1;"
         offset="0"
         id="stop6259" />
      <stop
         style="stop-color:#000000;stop-opacity:0;"
         offset="1"
         id="stop6261" />
    </linearGradient>
    <linearGradient
       inkscape:collect="always"
       xlink:href="#linearGradient1261"
       id="linearGradient1263"
       x1="10.583333"
       y1="15.875001"
       x2="10.583333"
       y2="1.058334"
       gradientUnits="userSpaceOnUse" />
    <linearGradient
       inkscape:collect="always"
       xlink:href="#linearGradient6263"
       id="linearGradient4314"
       x1="14.128906"
       y1="15.838867"
       x2="48"
       y2="49.838867"
       gradientUnits="userSpaceOnUse" />
  </defs>
  <path
     id="rect863"
     style="fill:url(#linearGradient1263);stroke-width:0.264583;fill-opacity:1"
     d="M 3.1750003,1.0583333 H 13.758333 c 1.172634,0 2.116667,0.944034 2.116667,2.116667 V 13.758333 c 0,1.172634 -0.944033,2.116667 -2.116667,2.116667 H 3.1750003 c -1.172633,0 -2.116667,-0.944033 -2.116667,-2.116667 V 3.1750003 c 0,-1.172633 0.944034,-2.116667 2.116667,-2.116667 z" />
  <path
     id="rect1345"
     style="opacity:0.3;fill:url(#linearGradient1781);fill-opacity:1;stroke-width:0.264583"
     d="m 3.1750003,1.0583333 c -1.172633,0 -2.116667,0.944034 -2.116667,2.116667 V 13.758333 c 0,1.172634 0.944034,2.116667 2.116667,2.116667 H 13.758334 c 1.172633,0 2.116666,-0.944033 2.116666,-2.116667 V 3.1750003 c 0,-1.172633 -0.944033,-2.116667 -2.116666,-2.116667 z m 0,0.264584 H 13.758334 c 1.026054,0 1.852083,0.826029 1.852083,1.852083 V 13.758333 c 0,1.026054 -0.826029,1.852084 -1.852083,1.852084 H 3.1750003 c -1.026054,0 -1.852083,-0.82603 -1.852083,-1.852084 V 3.1750003 c 0,-1.026054 0.826029,-1.852083 1.852083,-1.852083 z" />
  <path
     id="rect1530"
     style="opacity:0.2;stroke-width:0.999999;stroke-linecap:round;stroke-linejoin:round;fill-opacity:1;fill:url(#linearGradient4314)"
     d="m 25.140625,15.677734 -3.28125,3.28125 17.849609,17.84961 -3.072265,3.072265 19.166015,19.166016 c 1.300071,-0.700264 2.37771,-1.752568 3.117188,-3.027344 l 0.002,0.002 c 0.04864,-0.08381 0.09497,-0.168191 0.140625,-0.253906 0.03026,-0.05683 0.05897,-0.114227 0.08789,-0.171875 0.0043,-0.0086 0.0094,-0.0168 0.01367,-0.02539 0.0432,-0.08682 0.08489,-0.175078 0.125,-0.263671 0.02725,-0.06027 0.05429,-0.120575 0.08008,-0.181641 0.0033,-0.0078 0.0065,-0.01564 0.0098,-0.02344 0.03757,-0.08959 0.07305,-0.180252 0.107422,-0.271484 0.02267,-0.06029 0.04516,-0.120655 0.06641,-0.18164 0.04964,-0.142084 0.09497,-0.285982 0.136719,-0.431641 0.0017,-0.006 0.0042,-0.01162 0.0059,-0.01758 7.28e-4,-0.0026 0.0012,-0.0052 0.002,-0.0078 0.04331,-0.153023 0.08092,-0.30818 0.115234,-0.464844 0.0069,-0.03137 0.015,-0.06224 0.02148,-0.09375 0.03304,-0.160144 0.06063,-0.322771 0.08398,-0.486328 0.001,-0.0072 0.0029,-0.01426 0.0039,-0.02148 5.42e-4,-0.0039 0.0014,-0.0078 0.002,-0.01172 0.02492,-0.17993 0.04384,-0.361278 0.05664,-0.544922 C 59.993538,52.380885 60,52.190923 60,52 V 50.537109 38.517578 l -11,-11 -6.009766,6.009766 z m -3.542969,12.96875 -5.46875,5.46875 10.81836,10.81836 -2.865235,2.865234 L 36.283203,60 h 13.125 3.542969 z"
     transform="scale(0.26458333)" />
  <path
     id="path8"
     style="isolation:auto;mix-blend-mode:normal;fill:url(#linearGradient1500);fill-opacity:1;stroke-width:0.408901"
     d="m 6.2177083,3.9687499 c -0.3397973,0 -0.6133525,0.273555 -0.6133525,0.6133522 0,0.3397971 0.2735552,0.6133523 0.6133525,0.6133523 0.339797,0 0.6133521,-0.2735552 0.6133521,-0.6133523 0,-0.3397972 -0.2735551,-0.6133522 -0.6133521,-0.6133522 z M 9.6933718,4.0094801 8.4666666,5.2361846 10.511174,7.2806921 8.4666666,9.3252001 9.6933718,10.551905 12.964583,7.2806921 Z M 4.9910035,7.2806926 c -0.5663284,0 -1.0222536,0.4559254 -1.0222536,1.0222536 0,0.5663291 0.4559252,1.0222539 1.0222536,1.0222539 0.5663288,0 1.022254,-0.4559248 1.022254,-1.0222539 0,-0.5663282 -0.4559252,-1.0222536 -1.022254,-1.0222536 z m 2.2489584,3.2712124 c -0.6795943,0 -1.2267044,0.54711 -1.2267044,1.226705 0,0.679594 0.5471101,1.226705 1.2267044,1.226705 0.6795943,0 1.2267047,-0.547111 1.2267047,-1.226705 0,-0.679595 -0.5471104,-1.226705 -1.2267047,-1.226705 z" />
</svg>
