<?xml version="1.0" encoding="UTF-8" standalone="no"?>
<!-- Created with Inkscape (http://www.inkscape.org/) -->

<svg
   width="64"
   height="64"
   viewBox="0 0 16.933333 16.933333"
   version="1.1"
   id="svg5"
   inkscape:version="1.1.1 (3bf5ae0d25, 2021-09-20, custom)"
   sodipodi:docname="office-calendar.svg"
   xmlns:inkscape="http://www.inkscape.org/namespaces/inkscape"
   xmlns:sodipodi="http://sodipodi.sourceforge.net/DTD/sodipodi-0.dtd"
   xmlns:xlink="http://www.w3.org/1999/xlink"
   xmlns="http://www.w3.org/2000/svg"
   xmlns:svg="http://www.w3.org/2000/svg">
  <sodipodi:namedview
     id="namedview7"
     pagecolor="#ffffff"
     bordercolor="#666666"
     borderopacity="1.0"
     inkscape:pageshadow="2"
     inkscape:pageopacity="0.0"
     inkscape:pagecheckerboard="0"
     inkscape:document-units="px"
     showgrid="false"
     units="px"
     height="48px"
     inkscape:zoom="5.6399002"
     inkscape:cx="0.1773081"
     inkscape:cy="31.826804"
     inkscape:window-width="1920"
     inkscape:window-height="1011"
     inkscape:window-x="0"
     inkscape:window-y="0"
     inkscape:window-maximized="1"
     inkscape:current-layer="svg5"
     inkscape:lockguides="true" />
  <defs
     id="defs2">
    <linearGradient
       inkscape:collect="always"
       id="linearGradient3771">
      <stop
         style="stop-color:#333333;stop-opacity:1"
         offset="0"
         id="stop3767" />
      <stop
         style="stop-color:#666666;stop-opacity:1"
         offset="1"
         id="stop3769" />
    </linearGradient>
    <linearGradient
       inkscape:collect="always"
       id="linearGradient3411">
      <stop
         style="stop-color:#000000;stop-opacity:1;"
         offset="0"
         id="stop3407" />
      <stop
         style="stop-color:#000000;stop-opacity:0;"
         offset="1"
         id="stop3409" />
    </linearGradient>
    <linearGradient
       inkscape:collect="always"
       id="linearGradient3379">
      <stop
         style="stop-color:#ff1c1c;stop-opacity:1"
         offset="0"
         id="stop3375" />
      <stop
         style="stop-color:#ff6262;stop-opacity:1"
         offset="1"
         id="stop3377" />
    </linearGradient>
    <linearGradient
       inkscape:collect="always"
       id="linearGradient1137">
      <stop
         style="stop-color:#f2f2f2;stop-opacity:1"
         offset="0"
         id="stop1133" />
      <stop
         style="stop-color:#ffffff;stop-opacity:1"
         offset="1"
         id="stop1135" />
    </linearGradient>
    <linearGradient
       inkscape:collect="always"
       xlink:href="#linearGradient3411"
       id="linearGradient3413"
       x1="9.9212599e-08"
       y1="63.926758"
       x2="56"
       y2="25.926758"
       gradientUnits="userSpaceOnUse"
       gradientTransform="matrix(0.26458333,0,0,0.26458333,0,-0.52916666)" />
    <linearGradient
       inkscape:collect="always"
       xlink:href="#linearGradient3771"
       id="linearGradient3773"
       x1="54"
       y1="58.152344"
       x2="54"
       y2="22.152344"
       gradientUnits="userSpaceOnUse"
       gradientTransform="matrix(0.26458333,0,0,0.26458333,0,-0.52916666)" />
    <linearGradient
       inkscape:collect="always"
       xlink:href="#linearGradient37218"
       id="linearGradient1781"
       x1="2.8346456e-08"
       y1="2.2677165e-07"
       x2="64"
       y2="64"
       gradientUnits="userSpaceOnUse"
       gradientTransform="scale(0.26458333)" />
    <linearGradient
       inkscape:collect="always"
       id="linearGradient37218">
      <stop
         style="stop-color:#ffffff;stop-opacity:1"
         offset="0"
         id="stop37214" />
      <stop
         style="stop-color:#717171;stop-opacity:0.00392157"
         offset="0.49741825"
         id="stop37220" />
      <stop
         style="stop-color:#808080;stop-opacity:1"
         offset="1"
         id="stop37216" />
    </linearGradient>
    <linearGradient
       inkscape:collect="always"
       xlink:href="#linearGradient3379"
       id="linearGradient1160"
       x1="16.933332"
       y1="6.614583"
       x2="16.933332"
       y2="0.79375005"
       gradientUnits="userSpaceOnUse" />
    <linearGradient
       inkscape:collect="always"
       xlink:href="#linearGradient1137"
       id="linearGradient1614"
       x1="0.52916664"
       y1="16.933334"
       x2="16.933332"
       y2="3.1750007"
       gradientUnits="userSpaceOnUse" />
  </defs>
  <path
     id="rect863"
     style="fill:url(#linearGradient1614);stroke-width:0.264583;fill-opacity:1"
     d="M 3.1750003,1.0583333 H 13.758333 c 1.172634,0 2.116667,0.9440333 2.116667,2.1166665 V 13.758333 c 0,1.172634 -0.944033,2.116667 -2.116667,2.116667 H 3.1750003 c -1.172633,0 -2.116667,-0.944033 -2.116667,-2.116667 V 3.1749998 c 0,-1.1726332 0.944034,-2.1166665 2.116667,-2.1166665 z" />
  <path
     id="path3206"
     style="font-size:8.85082px;line-height:1.25;font-family:Pretendard;-inkscape-font-specification:Pretendard;fill:url(#linearGradient3773);fill-opacity:1;stroke-width:0.221271"
     d="m 5.7179971,6.3499999 c -0.3745463,0 -0.7129235,0.077997 -1.0154417,0.2335774 C 4.4000369,6.7391581 4.1622882,6.9562646 3.9894205,7.2357339 3.8194339,7.5152032 3.7359087,7.8364775 3.7387897,8.1994993 h 0.734839 c 0,-0.2333712 0.048803,-0.4376504 0.1467612,-0.6133991 C 4.7212292,7.4103515 4.8638785,7.2732309 5.0482706,7.1752726 5.2326627,7.0744331 5.4472633,7.0243773 5.692159,7.0243773 c 0.2333712,0 0.4436959,0.044527 0.6309693,0.1338421 0.1901542,0.089315 0.340102,0.2143446 0.4495848,0.3756875 0.109483,0.1584621 0.1643311,0.3431325 0.1643311,0.5534546 0,0.1872734 -0.038998,0.3658984 -0.1167887,0.5358847 -0.07779,0.1699863 -0.1917628,0.3473585 -0.3415813,0.5317503 -0.1469374,0.181511 -0.360285,0.4217662 -0.6397543,0.7214031 l -2.1347533,2.2474084 0.00878,0.570508 H 7.775236 V 12.002885 H 4.7929889 v -0.05219 L 6.2280434,10.472746 C 6.60259,10.086674 6.8921645,9.7611244 7.0967245,9.4960611 7.3012844,9.2309973 7.4451868,8.9907426 7.5287393,8.774658 7.6151731,8.5556925 7.6597001,8.3264951 7.6625814,8.0873615 7.6625812,7.7646754 7.5790559,7.4708252 7.4119506,7.2057616 7.2448453,6.9406981 7.0131418,6.7316262 6.7163859,6.5789264 6.4225108,6.4262269 6.0896624,6.3499999 5.7179971,6.3499999 Z m 5.2813319,0 c -0.377428,0 -0.717575,0.071951 -1.0200933,0.2160074 C 9.6795986,6.7100637 9.4448724,6.9088145 9.2748861,7.1623533 9.1048995,7.4130113 9.0196044,7.6952874 9.0196044,8.00933 c 0,0.2247281 0.042021,0.4350528 0.1255737,0.6309694 0.086434,0.1959165 0.2071878,0.3617142 0.3627686,0.4971272 0.1555808,0.1354129 0.3359753,0.2262367 0.5405353,0.2723348 v 0.034623 C 9.8122297,9.4818389 9.5958595,9.5751691 9.399943,9.7249876 9.2069075,9.8748063 9.0544538,10.065005 8.9420897,10.295495 c -0.1094827,0.22761 -0.1643311,0.47391 -0.1643311,0.738973 0,0.334211 0.092077,0.634107 0.276469,0.89917 0.1872731,0.265064 0.4494236,0.472366 0.7865152,0.622185 0.3399732,0.149818 0.7264172,0.224792 1.1585862,0.224792 0.429287,0 0.812191,-0.07497 1.149283,-0.224792 0.337092,-0.149819 0.601012,-0.357121 0.791166,-0.622185 0.190169,-0.265064 0.286522,-0.56496 0.289388,-0.89917 -0.0029,-0.265063 -0.062,-0.511363 -0.17725,-0.738973 C 12.939552,10.065005 12.785329,9.8748063 12.589412,9.7249876 12.396377,9.5751691 12.183546,9.4818392 11.950175,9.4443845 V 9.4097614 C 12.151854,9.3636633 12.330479,9.2728395 12.486059,9.1374266 12.641641,9.0020136 12.762395,8.8362159 12.848828,8.6402994 12.938157,8.4443828 12.984454,8.2340581 12.987321,8.00933 12.98444,7.6952874 12.896639,7.4130113 12.723771,7.1623533 12.550904,6.9088145 12.313154,6.7100637 12.010636,6.5660073 11.710999,6.4219512 11.373875,6.3499999 10.999329,6.3499999 Z m 0,0.6743774 c 0.242014,0 0.454845,0.043274 0.639237,0.1297078 0.187273,0.086434 0.331692,0.2084408 0.432532,0.3669027 0.10372,0.1584621 0.155546,0.3413628 0.155546,0.5488038 0,0.207441 -0.0536,0.3921114 -0.160197,0.5534546 -0.103721,0.1584619 -0.248876,0.2840082 -0.436149,0.3762044 -0.184392,0.089315 -0.394717,0.1338419 -0.630969,0.1338419 -0.236252,0 -0.448347,-0.044527 -0.635621,-0.1338419 C 10.179316,8.9072544 10.034161,8.7817081 9.9275592,8.6232462 9.8238388,8.461903 9.7720133,8.2772326 9.7720133,8.0697916 c 0,-0.207441 0.050056,-0.3903417 0.150895,-0.5488038 C 10.026629,7.3625259 10.171048,7.2405189 10.35544,7.1540851 10.539832,7.0676515 10.754433,7.0243773 10.999329,7.0243773 Z m 0,2.7657226 c 0.276588,0 0.524141,0.051826 0.743106,0.1555462 0.221847,0.1037209 0.394943,0.2476229 0.518832,0.4320149 0.126769,0.181511 0.190169,0.386307 0.190169,0.613916 0,0.218966 -0.05912,0.411671 -0.17725,0.578776 -0.118127,0.164224 -0.286947,0.294046 -0.505912,0.389124 -0.218966,0.0922 -0.47507,0.138492 -0.768945,0.138492 -0.296757,0 -0.554631,-0.0463 -0.773597,-0.138492 -0.218965,-0.09508 -0.3860161,-0.2249 -0.5012612,-0.389124 -0.1152437,-0.167105 -0.1718619,-0.35981 -0.1689819,-0.578776 -0.00288,-0.227609 0.058013,-0.432405 0.181901,-0.613916 0.1238885,-0.184392 0.2952151,-0.328294 0.5141811,-0.4320149 0.221846,-0.1037201 0.47117,-0.1555462 0.747758,-0.1555462 z" />
  <path
     id="path3206-3"
     style="font-size:8.85082px;line-height:1.25;font-family:Pretendard;-inkscape-font-specification:Pretendard;opacity:0.3;fill:url(#linearGradient3413);fill-opacity:1;stroke-width:0.221271"
     d="m 5.692159,7.0243773 c -0.2448957,0 -0.4594963,0.050056 -0.6438884,0.1508953 C 4.8638785,7.2732309 4.7212292,7.4103515 4.6203899,7.5861002 4.5224316,7.7618489 4.4736287,7.9661281 4.4736287,8.1994993 H 3.7527425 c -0.010081,0.085536 -0.014673,0.1738281 -0.013953,0.2645833 h 0.734839 c 0,-0.2333712 0.048803,-0.4376504 0.1467612,-0.6133991 C 4.7212292,7.6749348 4.8638785,7.5378142 5.0482706,7.439856 5.2326627,7.3390164 5.4472633,7.2889607 5.692159,7.2889607 c 0.2333712,0 0.4436959,0.044527 0.6309693,0.1338421 0.1901537,0.089315 0.3401018,0.2143445 0.4495848,0.3756874 0.087271,0.1263134 0.1393634,0.2695779 0.1570963,0.4289145 0.00494,-0.04607 0.00723,-0.092876 0.00723,-0.1400432 0,-0.2103221 -0.054848,-0.3949922 -0.1643311,-0.5534546 C 6.6632301,7.372564 6.513282,7.2475343 6.3231283,7.1582194 6.1358549,7.0689043 5.9255302,7.0243773 5.692159,7.0243773 Z m 5.30717,0 c -0.244896,0 -0.459497,0.043275 -0.643889,0.1297078 -0.184392,0.086434 -0.328809,0.2084408 -0.4325317,0.3669027 -0.1008348,0.1584621 -0.150895,0.3413628 -0.150895,0.5488038 0,0.044527 0.00298,0.087801 0.00775,0.1302247 C 9.7970963,8.0471504 9.8444803,7.9088209 9.9229083,7.7855711 10.02663,7.6271093 10.171048,7.5051022 10.35544,7.4186684 c 0.184392,-0.086433 0.398993,-0.1297077 0.643889,-0.1297077 0.242014,0 0.454845,0.043274 0.639237,0.1297077 0.187273,0.086434 0.331692,0.2084409 0.432532,0.3669027 0.08103,0.1238052 0.13008,0.2628231 0.147794,0.4165121 0.0051,-0.043065 0.0078,-0.087055 0.0078,-0.1322916 0,-0.207441 -0.05183,-0.3903417 -0.155546,-0.5488038 C 11.970258,7.3625259 11.825839,7.2405192 11.638566,7.1540851 11.454174,7.0676515 11.241343,7.0243773 10.999329,7.0243773 Z m 1.980757,1.1131103 c -0.01581,0.1769562 -0.05914,0.3446365 -0.131258,0.5028118 -0.08643,0.1959165 -0.207187,0.361714 -0.362769,0.4971272 -0.15558,0.1354121 -0.334206,0.2262349 -0.535884,0.2723348 v 0.034623 c 0.117225,0.018814 0.229459,0.051613 0.336413,0.098702 0.07006,-0.040039 0.136869,-0.08659 0.199471,-0.1410766 0.155582,-0.1354132 0.276336,-0.3012106 0.362769,-0.4971272 0.08933,-0.1959165 0.135626,-0.4062412 0.138493,-0.6309693 -4.24e-4,-0.046221 -0.0031,-0.09158 -0.0072,-0.1364258 z m -3.9547972,0.00413 c -0.00347,0.043501 -0.00568,0.087498 -0.00568,0.1322917 0,0.2247281 0.04202,0.4350528 0.1255737,0.6309693 0.08643,0.1959166 0.2071875,0.361714 0.3627686,0.4971272 0.062577,0.054465 0.1294244,0.1010476 0.1999877,0.1410766 0.1084336,-0.046987 0.2220359,-0.079916 0.3405472,-0.098702 V 9.4097614 C 9.843921,9.3636633 9.6635267,9.2728387 9.5079467,9.1374266 9.3523656,9.0020134 9.2316082,8.8362159 9.1451781,8.6402994 9.0782451,8.4833557 9.0386656,8.317055 9.0252888,8.1416217 Z m -1.368392,0.069763 C 7.6425255,8.4059809 7.6001083,8.5938491 7.5287393,8.774658 7.4451873,8.9907429 7.3012844,9.2309967 7.0967245,9.4960611 6.8921642,9.7611241 6.6025902,10.086674 6.2280434,10.472746 l -1.4350545,1.477946 v 0.05219 h 0.206189 L 6.2280434,10.737329 C 6.6025902,10.351257 6.8921642,10.025707 7.0967245,9.7606444 7.3012844,9.4955803 7.4451873,9.2553262 7.5287393,9.0392413 7.6151694,8.8202761 7.6597004,8.5910784 7.6625814,8.3519448 c 0,-0.047472 -0.00207,-0.094336 -0.00568,-0.1405599 z m 3.3424322,1.578715 c -0.276588,0 -0.525911,0.051826 -0.747758,0.1555462 -0.218966,0.1037212 -0.3902931,0.2476232 -0.5141811,0.4320152 -0.1238909,0.181511 -0.1848009,0.386307 -0.181901,0.613916 -5.887e-4,0.04477 0.00182,0.08816 0.0062,0.130741 0.018086,-0.174727 0.076609,-0.334896 0.1756997,-0.480074 0.123888,-0.184392 0.2952154,-0.328294 0.5141814,-0.432015 0.221847,-0.10372 0.47117,-0.155546 0.747758,-0.155546 0.276588,0 0.524142,0.05183 0.743106,0.155546 0.221847,0.103721 0.394943,0.247623 0.518832,0.432015 0.101297,0.14504 0.16206,0.305024 0.182418,0.479558 0.0049,-0.04242 0.0078,-0.08563 0.0078,-0.130225 0,-0.227609 -0.0634,-0.432405 -0.190169,-0.613916 -0.123937,-0.184388 -0.297033,-0.32829 -0.51888,-0.4320109 C 11.523471,9.84193 11.275917,9.7900999 10.999329,9.7900999 Z M 8.7829262,11.168827 c -0.00301,0.04291 -0.00517,0.08628 -0.00517,0.130225 0,0.334211 0.092081,0.634107 0.276469,0.89917 0.1872739,0.265064 0.4494233,0.472365 0.7865152,0.622184 0.3399736,0.149818 0.7264186,0.224793 1.1585866,0.224793 0.429287,0 0.812191,-0.07497 1.149283,-0.224793 0.337092,-0.149819 0.601013,-0.35712 0.791166,-0.622184 0.190169,-0.265064 0.286523,-0.56496 0.289388,-0.89917 -4.8e-4,-0.04394 -0.0031,-0.08731 -0.0067,-0.130225 -0.02447,0.280637 -0.118387,0.535829 -0.28267,0.764811 -0.190153,0.265064 -0.454074,0.472366 -0.791166,0.622185 -0.337092,0.149822 -0.719996,0.224792 -1.149283,0.224792 -0.432168,0 -0.818612,-0.07497 -1.1585866,-0.224792 C 9.5036509,12.406004 9.2415015,12.198702 9.0542276,11.933638 8.8949394,11.704657 8.8045863,11.449465 8.7829262,11.168827 Z m -5.0746255,1.21543 -0.00413,0.0041 0.00878,0.570508 H 7.775236 V 12.694316 H 3.7129516 Z" />
  <path
     id="rect970"
     style="fill:url(#linearGradient1160);fill-opacity:1;stroke-width:0.264583"
     d="M 3.1749998,1.0583333 H 13.758333 c 1.172633,0 2.116667,0.9440333 2.116667,2.1166666 v 1.5875 H 1.0583333 v -1.5875 c 0,-1.1726333 0.9440333,-2.1166666 2.1166665,-2.1166666 z"
     sodipodi:nodetypes="sssccss" />
  <path
     id="rect1345"
     style="opacity:0.3;fill:url(#linearGradient1781);fill-opacity:1;stroke-width:0.264583"
     d="m 3.1750003,1.0583333 c -1.172633,0 -2.116667,0.9440334 -2.116667,2.1166667 v 10.583333 c 0,1.172634 0.944034,2.116667 2.116667,2.116667 H 13.758334 c 1.172633,0 2.116666,-0.944033 2.116666,-2.116667 V 3.175 c 0,-1.1726333 -0.944033,-2.1166667 -2.116666,-2.1166667 z m 0,0.2645834 H 13.758334 c 1.026054,0 1.852083,0.8260291 1.852083,1.8520833 v 10.583333 c 0,1.026054 -0.826029,1.852084 -1.852083,1.852084 H 3.1750003 c -1.026054,0 -1.852083,-0.82603 -1.852083,-1.852084 V 3.175 c 0,-1.0260542 0.826029,-1.8520833 1.852083,-1.8520833 z" />
</svg>
