<?xml version="1.0" encoding="UTF-8" standalone="no"?>
<!-- Created with Inkscape (http://www.inkscape.org/) -->

<svg
   width="64"
   height="64"
   viewBox="0 0 16.933333 16.933333"
   version="1.1"
   id="svg5"
   inkscape:version="1.1.1 (3bf5ae0d25, 2021-09-20, custom)"
   sodipodi:docname="podcast.svg"
   xmlns:inkscape="http://www.inkscape.org/namespaces/inkscape"
   xmlns:sodipodi="http://sodipodi.sourceforge.net/DTD/sodipodi-0.dtd"
   xmlns:xlink="http://www.w3.org/1999/xlink"
   xmlns="http://www.w3.org/2000/svg"
   xmlns:svg="http://www.w3.org/2000/svg">
  <sodipodi:namedview
     id="namedview7"
     pagecolor="#ffffff"
     bordercolor="#666666"
     borderopacity="1.0"
     inkscape:pageshadow="2"
     inkscape:pageopacity="0.0"
     inkscape:pagecheckerboard="0"
     inkscape:document-units="px"
     showgrid="false"
     units="px"
     height="48px"
     inkscape:zoom="3.0820313"
     inkscape:cx="-9.409379"
     inkscape:cy="52.400507"
     inkscape:window-width="1920"
     inkscape:window-height="1011"
     inkscape:window-x="0"
     inkscape:window-y="0"
     inkscape:window-maximized="1"
     inkscape:current-layer="svg5"
     inkscape:lockguides="true"
     showguides="false" />
  <defs
     id="defs2">
    <linearGradient
       inkscape:collect="always"
       id="linearGradient5446">
      <stop
         style="stop-color:#000000;stop-opacity:1;"
         offset="0"
         id="stop5442" />
      <stop
         style="stop-color:#000000;stop-opacity:0;"
         offset="1"
         id="stop5444" />
    </linearGradient>
    <linearGradient
       inkscape:collect="always"
       id="linearGradient4701">
      <stop
         style="stop-color:#ffffff;stop-opacity:1;"
         offset="0"
         id="stop4697" />
      <stop
         style="stop-color:#ffffff;stop-opacity:0;"
         offset="1"
         id="stop4699" />
    </linearGradient>
    <linearGradient
       inkscape:collect="always"
       id="linearGradient2174">
      <stop
         style="stop-color:#d058e5;stop-opacity:1"
         offset="0"
         id="stop2170" />
      <stop
         style="stop-color:#a741ad;stop-opacity:1"
         offset="1"
         id="stop2172" />
    </linearGradient>
    <linearGradient
       inkscape:collect="always"
       id="linearGradient37218">
      <stop
         style="stop-color:#1a1a1a;stop-opacity:1"
         offset="0"
         id="stop37214" />
      <stop
         style="stop-color:#e6e6e6;stop-opacity:0.00306325"
         offset="0.49741825"
         id="stop37220" />
      <stop
         style="stop-color:#ffffff;stop-opacity:1"
         offset="1"
         id="stop37216" />
    </linearGradient>
    <linearGradient
       inkscape:collect="always"
       xlink:href="#linearGradient5446"
       id="linearGradient5448"
       x1="9.9523163"
       y1="45.782471"
       x2="59.954128"
       y2="-2.2175329"
       gradientUnits="userSpaceOnUse"
       gradientTransform="translate(-0.98828356,8.4473079)" />
    <linearGradient
       inkscape:collect="always"
       xlink:href="#linearGradient37218"
       id="linearGradient1781"
       x1="64"
       y1="64"
       x2="4.5354329e-07"
       y2="5.0518361e-07"
       gradientUnits="userSpaceOnUse"
       gradientTransform="scale(0.26458333)" />
    <linearGradient
       inkscape:collect="always"
       xlink:href="#linearGradient2174"
       id="linearGradient1538"
       x1="12.7"
       y1="6.7529299e-07"
       x2="12.7"
       y2="16.933334"
       gradientUnits="userSpaceOnUse" />
    <linearGradient
       inkscape:collect="always"
       xlink:href="#linearGradient4701"
       id="linearGradient1354"
       x1="32"
       y1="34"
       x2="32"
       y2="58"
       gradientUnits="userSpaceOnUse" />
  </defs>
  <path
     id="rect863"
     style="fill:url(#linearGradient1538);stroke-width:0.264583;fill-opacity:1"
     d="M 3.1749998,1.0583333 H 13.758333 c 1.172634,0 2.116667,0.944034 2.116667,2.116667 V 13.758333 c 0,1.172634 -0.944033,2.116667 -2.116667,2.116667 H 3.1749998 c -1.1726332,0 -2.1166665,-0.944033 -2.1166665,-2.116667 V 3.1750003 c 0,-1.172633 0.9440333,-2.116667 2.1166665,-2.116667 z" />
  <path
     id="rect1345"
     style="opacity:0.3;fill:url(#linearGradient1781);fill-opacity:1;stroke-width:0.264583"
     d="m 3.1749998,1.0583333 c -1.1726331,0 -2.1166665,0.944034 -2.1166665,2.116667 V 13.758333 c 0,1.172634 0.9440334,2.116667 2.1166665,2.116667 H 13.758335 c 1.172632,0 2.116666,-0.944033 2.116666,-2.116667 V 3.1750003 c 0,-1.172633 -0.944034,-2.116667 -2.116666,-2.116667 z m 0,0.264584 H 13.758335 c 1.026054,0 1.852083,0.826029 1.852083,1.852083 V 13.758333 c 0,1.026054 -0.826029,1.852084 -1.852083,1.852084 H 3.1749998 c -1.026054,0 -1.8520832,-0.82603 -1.8520832,-1.852084 V 3.1750003 c 0,-1.026054 0.8260292,-1.852083 1.8520832,-1.852083 z" />
  <path
     id="path3846-7"
     style="color:#000000;opacity:0.3;fill:url(#linearGradient5448);fill-opacity:1;stroke-width:3.77953;stroke-linecap:round;stroke-linejoin:round;stroke-miterlimit:1;-inkscape-stroke:none"
     d="m 32,14 c -9.941125,0 -18,8.058875 -18,18 0.0042,0.1674 0.01069,0.334734 0.01953,0.501953 C 14.28909,22.763435 22.257754,15.006841 32,15 41.679976,15.000646 49.62606,22.656808 49.986328,32.330078 49.991895,32.220096 49.996452,32.110066 50,32 50,22.058875 41.941125,14 32,14 Z m 0,8 c -5.522847,0 -10,4.477153 -10,10 0.0047,0.172082 0.01379,0.344014 0.02734,0.515625 C 22.285438,27.19336 26.671487,23.008316 32,23 c 5.284418,3.74e-4 9.656386,4.112248 9.980469,9.386719 C 41.989475,32.257951 41.995986,32.12902 42,32 42,26.477153 37.522847,22 32,22 Z M 51.986328,32.335938 C 51.83322,41.323817 45.702487,49.105285 37,51.357422 v 1 C 45.827668,50.078129 51.996583,42.117175 52,33 c -8.81e-4,-0.221414 -0.0054,-0.442799 -0.01367,-0.664062 z M 43.982422,32.375 C 43.841995,36.926488 41.137474,41.006343 37,42.908203 v 1 C 41.265179,41.953261 43.999801,37.69186 44,33 c -4.3e-4,-0.208451 -0.0063,-0.416855 -0.01758,-0.625 z m -8.021484,0.07617 C 35.732047,34.46763 34.029396,35.993131 32,36 29.988609,35.994168 28.294386,34.495625 28.042969,32.5 28.018195,32.665603 28.003844,32.832598 28,33 c 0,2.209139 1.790861,4 4,4 2.209139,0 4,-1.790861 4,-4 -4.08e-4,-0.183622 -0.01346,-0.366999 -0.03906,-0.548828 z m -23.941407,0.05273 C 12.010968,32.669183 12.004458,32.834561 12,33 c 0.0034,9.117175 6.172332,17.078129 15,19.357422 v -1 C 18.358754,49.120035 12.246265,41.427225 12.019531,32.503906 Z m 8.00586,0.0059 C 20.013585,32.672987 20.00512,32.836433 20,33 c 1.99e-4,4.69186 2.734821,8.953261 7,10.908203 v -1 C 22.907771,41.025797 20.214377,37.010219 20.025391,32.509766 Z M 29,53 v 1 c 0,1.661998 1.338,3 3,3 1.662,0 3,-1.338002 3,-3 v -1 c 0,1.661998 -1.338,3 -3,3 -1.662,0 -3,-1.338002 -3,-3 z"
     transform="scale(0.26458333)"
     sodipodi:nodetypes="scccccsscccccsccccccccccccccscccccccccccccssscsc" />
  <path
     id="path863"
     style="opacity:1;fill:url(#linearGradient1354);stroke-width:7.52999;stroke-linecap:round;stroke-linejoin:round;fill-opacity:1"
     d="M 32 12 A 20 20 0 0 0 12 32 A 20 20 0 0 0 27 51.357422 L 27 49.285156 A 18 18 0 0 1 14 32 A 18 18 0 0 1 32 14 A 18 18 0 0 1 50 32 A 18 18 0 0 1 37 49.285156 L 37 51.357422 A 20 20 0 0 0 52 32 A 20 20 0 0 0 32 12 z M 32 20 A 12 12 0 0 0 20 32 A 12 12 0 0 0 27 42.908203 L 27 40.652344 A 10 10 0 0 1 22 32 A 10 10 0 0 1 32 22 A 10 10 0 0 1 42 32 A 10 10 0 0 1 37 40.652344 L 37 42.908203 A 12 12 0 0 0 44 32 A 12 12 0 0 0 32 20 z M 32 28 A 3.9999999 3.9999999 0 0 0 28 32 A 3.9999999 3.9999999 0 0 0 32 36 A 3.9999999 3.9999999 0 0 0 36 32 A 3.9999999 3.9999999 0 0 0 32 28 z M 32 38 C 30.338 38 29 39.338 29 41 L 29 53 C 29 54.662 30.338 56 32 56 C 33.662 56 35 54.662 35 53 L 35 41 C 35 39.338 33.662 38 32 38 z "
     transform="scale(0.26458333)" />
</svg>
