<?xml version="1.0" encoding="UTF-8" standalone="no"?>
<!-- Created with Inkscape (http://www.inkscape.org/) -->

<svg
   width="64"
   height="64"
   viewBox="0 0 16.933333 16.933333"
   version="1.1"
   id="svg5"
   inkscape:version="1.1.1 (3bf5ae0d25, 2021-09-20, custom)"
   sodipodi:docname="org.gnome.Polari.svg"
   xmlns:inkscape="http://www.inkscape.org/namespaces/inkscape"
   xmlns:sodipodi="http://sodipodi.sourceforge.net/DTD/sodipodi-0.dtd"
   xmlns:xlink="http://www.w3.org/1999/xlink"
   xmlns="http://www.w3.org/2000/svg"
   xmlns:svg="http://www.w3.org/2000/svg">
  <sodipodi:namedview
     id="namedview7"
     pagecolor="#ffffff"
     bordercolor="#666666"
     borderopacity="1.0"
     inkscape:pageshadow="2"
     inkscape:pageopacity="0.0"
     inkscape:pagecheckerboard="0"
     inkscape:document-units="px"
     showgrid="false"
     units="px"
     height="48px"
     inkscape:zoom="7.9999996"
     inkscape:cx="4.8750002"
     inkscape:cy="27.750001"
     inkscape:window-width="1920"
     inkscape:window-height="1011"
     inkscape:window-x="0"
     inkscape:window-y="0"
     inkscape:window-maximized="1"
     inkscape:current-layer="svg5"
     inkscape:lockguides="true"
     showguides="false" />
  <defs
     id="defs2">
    <linearGradient
       inkscape:collect="always"
       id="linearGradient6428">
      <stop
         style="stop-color:#000000;stop-opacity:1;"
         offset="0"
         id="stop6424" />
      <stop
         style="stop-color:#000000;stop-opacity:0;"
         offset="1"
         id="stop6426" />
    </linearGradient>
    <linearGradient
       inkscape:collect="always"
       id="linearGradient6036">
      <stop
         style="stop-color:#ffffff;stop-opacity:1;"
         offset="0"
         id="stop6032" />
      <stop
         style="stop-color:#ffffff;stop-opacity:0;"
         offset="1"
         id="stop6034" />
    </linearGradient>
    <linearGradient
       inkscape:collect="always"
       id="linearGradient5550">
      <stop
         style="stop-color:#cbf1d6;stop-opacity:1"
         offset="0"
         id="stop5546" />
      <stop
         style="stop-color:#caf0d5;stop-opacity:0"
         offset="1"
         id="stop5548" />
    </linearGradient>
    <linearGradient
       inkscape:collect="always"
       id="linearGradient4421">
      <stop
         style="stop-color:#61d482;stop-opacity:1;"
         offset="0"
         id="stop4417" />
      <stop
         style="stop-color:#61d4af;stop-opacity:1"
         offset="1"
         id="stop4419" />
    </linearGradient>
    <linearGradient
       inkscape:collect="always"
       xlink:href="#linearGradient5550"
       id="linearGradient5552"
       x1="10.054167"
       y1="3.7042549"
       x2="10.054167"
       y2="13.229255"
       gradientUnits="userSpaceOnUse" />
    <linearGradient
       inkscape:collect="always"
       xlink:href="#linearGradient6036"
       id="linearGradient6038"
       x1="42"
       y1="22.000336"
       x2="42"
       y2="54.000336"
       gradientUnits="userSpaceOnUse" />
    <linearGradient
       inkscape:collect="always"
       xlink:href="#linearGradient6428"
       id="linearGradient6430"
       x1="14"
       y1="54.500336"
       x2="50"
       y2="24.500336"
       gradientUnits="userSpaceOnUse" />
    <linearGradient
       inkscape:collect="always"
       xlink:href="#linearGradient37218"
       id="linearGradient1781"
       x1="2.8346456e-08"
       y1="2.2677165e-07"
       x2="64"
       y2="64"
       gradientUnits="userSpaceOnUse"
       gradientTransform="scale(0.26458333)" />
    <linearGradient
       inkscape:collect="always"
       id="linearGradient37218">
      <stop
         style="stop-color:#ffffff;stop-opacity:1"
         offset="0"
         id="stop37214" />
      <stop
         style="stop-color:#717171;stop-opacity:0.00392157"
         offset="0.49741825"
         id="stop37220" />
      <stop
         style="stop-color:#000000;stop-opacity:1"
         offset="1"
         id="stop37216" />
    </linearGradient>
    <linearGradient
       inkscape:collect="always"
       xlink:href="#linearGradient4421"
       id="linearGradient953"
       x1="7.4083333"
       y1="16.933334"
       x2="7.4083333"
       y2="6.7529299e-07"
       gradientUnits="userSpaceOnUse" />
  </defs>
  <path
     id="rect863"
     style="fill:url(#linearGradient953);stroke-width:0.264583;fill-opacity:1"
     d="M 3.1750003,1.0583333 H 13.758333 c 1.172634,0 2.116667,0.944034 2.116667,2.116667 V 13.758333 c 0,1.172634 -0.944033,2.116667 -2.116667,2.116667 H 3.1750003 c -1.172633,0 -2.116667,-0.944033 -2.116667,-2.116667 V 3.1750003 c 0,-1.172633 0.944034,-2.116667 2.116667,-2.116667 z" />
  <path
     id="rect1345"
     style="opacity:0.3;fill:url(#linearGradient1781);fill-opacity:1;stroke-width:0.264583"
     d="m 3.1750003,1.0583333 c -1.172633,0 -2.116667,0.944034 -2.116667,2.116667 V 13.758333 c 0,1.172634 0.944034,2.116667 2.116667,2.116667 H 13.758334 c 1.172633,0 2.116666,-0.944033 2.116666,-2.116667 V 3.1750003 c 0,-1.172633 -0.944033,-2.116667 -2.116666,-2.116667 z m 0,0.264584 H 13.758334 c 1.026054,0 1.852083,0.826029 1.852083,1.852083 V 13.758333 c 0,1.026054 -0.826029,1.852084 -1.852083,1.852084 H 3.1750003 c -1.026054,0 -1.852083,-0.82603 -1.852083,-1.852084 V 3.1750003 c 0,-1.026054 0.826029,-1.852083 1.852083,-1.852083 z" />
  <path
     id="rect1033-5"
     style="opacity:0.3;fill:url(#linearGradient6430);stroke:none;stroke-width:0.878305"
     d="m 13,32 v 1 c 0,1.107999 0.892001,2 2,2 h 3 v -1 h -3 c -1.107999,0 -2,-0.892001 -2,-2 z m 25,0 c 0,1.107999 -0.892001,2 -2,2 H 23.982422 l -4.085938,5.441406 C 19.42836,40.391126 17.999206,40.056874 18,38.998047 v 1 c -7.94e-4,1.058827 1.42836,1.393079 1.896484,0.443359 L 23.982422,35 H 26 36 c 1.107999,0 2,-0.892001 2,-2 z m -12,8 v 1 c 0,1.108003 0.892001,2 2,2 h 12.023438 l 4.083984,5.441406 c 0.468125,0.949724 1.897282,0.615468 1.896484,-0.443359 v -1 c 7.98e-4,1.058827 -1.428359,1.393083 -1.896484,0.443359 L 40.023438,42 H 28 c -1.107999,0 -2,-0.891997 -2,-2 z m 25,0 c 0,1.108003 -0.892001,2 -2,2 h -2.996094 v 1 H 49 c 1.107999,0 2,-0.891997 2,-2 z"
     transform="scale(0.26458333)"
     sodipodi:nodetypes="cssccsccscccccccssccssccccccsccsccssc" />
  <path
     id="rect1033"
     style="fill:url(#linearGradient6038);fill-opacity:1;stroke:none;stroke-width:0.878305"
     d="m 39,24 v 9 c 0,1.108 -0.892001,2 -2,2 H 26 v 5 c 0,1.107999 0.892,2 2,2 h 12.023438 l 4.083984,5.441406 c 0.468125,0.94972 1.897282,0.615468 1.896484,-0.443359 V 42 H 49 c 1.107999,0 2,-0.892001 2,-2 V 26 c 0,-1.108 -0.892001,-2 -2,-2 z"
     transform="scale(0.26458333)"
     sodipodi:nodetypes="csscssccccssssc" />
  <path
     id="rect849"
     style="fill:url(#linearGradient5552);fill-opacity:1;stroke-width:0.194321"
     d="m 3.9686941,4.2333333 c -0.2931583,0 -0.5291667,0.2360083 -0.5291667,0.5291666 v 3.7041667 c 0,0.2931583 0.2360084,0.5291666 0.5291667,0.5291666 h 0.7961312 v 1.3223998 c -2.103e-4,0.280148 0.3779198,0.368586 0.5017781,0.117306 L 6.3476745,8.9958332 h 3.1773254 c 0.2931583,0 0.5291671,-0.2360083 0.5291671,-0.5291666 V 4.7624999 c 0,-0.2931583 -0.2360088,-0.5291666 -0.5291671,-0.5291666 z"
     sodipodi:nodetypes="ssssccccsssss" />
</svg>
