<?xml version="1.0" encoding="UTF-8" standalone="no"?>
<!-- Created with Inkscape (http://www.inkscape.org/) -->

<svg
   width="64"
   height="64"
   viewBox="0 0 16.933333 16.933333"
   version="1.1"
   id="svg5"
   inkscape:version="1.1.1 (3bf5ae0d25, 2021-09-20, custom)"
   sodipodi:docname="preferences-system-network-ethernet.svg"
   xmlns:inkscape="http://www.inkscape.org/namespaces/inkscape"
   xmlns:sodipodi="http://sodipodi.sourceforge.net/DTD/sodipodi-0.dtd"
   xmlns="http://www.w3.org/2000/svg"
   xmlns:svg="http://www.w3.org/2000/svg">
  <sodipodi:namedview
     id="namedview7"
     pagecolor="#ffffff"
     bordercolor="#666666"
     borderopacity="1.0"
     inkscape:pageshadow="2"
     inkscape:pageopacity="0.0"
     inkscape:pagecheckerboard="0"
     inkscape:document-units="px"
     showgrid="false"
     units="px"
     height="48px"
     inkscape:zoom="1.4142135"
     inkscape:cx="102.53049"
     inkscape:cy="-60.10408"
     inkscape:window-width="1368"
     inkscape:window-height="846"
     inkscape:window-x="290"
     inkscape:window-y="161"
     inkscape:window-maximized="0"
     inkscape:current-layer="svg5"
     inkscape:lockguides="true" />
  <defs
     id="defs2" />
  <rect
     style="opacity:1;fill:#2881dc;fill-opacity:1;stroke-width:3.12539;stroke-linecap:round;stroke-linejoin:round"
     id="rect849"
     width="14.816667"
     height="14.816667"
     x="1.0583333"
     y="1.0583333"
     ry="2.1166666" />
  <path
     id="rect929"
     style="fill:#ffffff;stroke-width:2.38125;stroke-linecap:round;stroke-linejoin:round"
     d="M 3.7041666,4.2333334 C 3.4110083,4.2333334 3.175,4.4693417 3.175,4.7625 v 5.820833 c 0,0.293159 0.2360083,0.529167 0.5291666,0.529167 h 2.38125 v 1.058334 c 0,0.293158 0.2360083,0.529167 0.5291666,0.529167 H 10.31875 c 0.293158,0 0.529167,-0.197638 0.529167,-0.529167 V 11.1125 h 2.38125 c 0.293158,0 0.529166,-0.236008 0.529166,-0.529167 V 4.7625 c 0,-0.2931583 -0.236008,-0.5291666 -0.529166,-0.5291666 z m 0,0.5291666 h 9.5250004 v 5.820833 H 10.31875 v 1.587501 H 6.6145832 V 10.583333 H 3.7041666 Z"
     sodipodi:nodetypes="sssscsssscsssssccccccccc" />
</svg>
