<?xml version="1.0" encoding="UTF-8" standalone="no"?>
<!-- Created with Inkscape (http://www.inkscape.org/) -->

<svg
   width="64"
   height="64"
   viewBox="0 0 16.933333 16.933333"
   version="1.1"
   id="svg5"
   inkscape:version="1.1.1 (3bf5ae0d25, 2021-09-20, custom)"
   sodipodi:docname="preferences-desktop-display.svg"
   xmlns:inkscape="http://www.inkscape.org/namespaces/inkscape"
   xmlns:sodipodi="http://sodipodi.sourceforge.net/DTD/sodipodi-0.dtd"
   xmlns:xlink="http://www.w3.org/1999/xlink"
   xmlns="http://www.w3.org/2000/svg"
   xmlns:svg="http://www.w3.org/2000/svg">
  <sodipodi:namedview
     id="namedview7"
     pagecolor="#ffffff"
     bordercolor="#666666"
     borderopacity="1.0"
     inkscape:pageshadow="2"
     inkscape:pageopacity="0.0"
     inkscape:pagecheckerboard="0"
     inkscape:document-units="px"
     showgrid="false"
     units="px"
     height="48px"
     inkscape:zoom="2.8284271"
     inkscape:cx="-21.566757"
     inkscape:cy="-7.2478445"
     inkscape:window-width="1920"
     inkscape:window-height="1022"
     inkscape:window-x="0"
     inkscape:window-y="24"
     inkscape:window-maximized="1"
     inkscape:current-layer="svg5"
     inkscape:lockguides="true" />
  <defs
     id="defs2">
    <linearGradient
       inkscape:collect="always"
       id="linearGradient3540">
      <stop
         style="stop-color:#ffffff;stop-opacity:1;"
         offset="0"
         id="stop3536" />
      <stop
         style="stop-color:#ffffff;stop-opacity:0;"
         offset="1"
         id="stop3538" />
    </linearGradient>
    <linearGradient
       inkscape:collect="always"
       id="linearGradient1106">
      <stop
         style="stop-color:#333333;stop-opacity:1;"
         offset="0"
         id="stop1102" />
      <stop
         style="stop-color:#4d4d4d;stop-opacity:1"
         offset="1"
         id="stop1104" />
    </linearGradient>
    <linearGradient
       inkscape:collect="always"
       xlink:href="#linearGradient37218-3"
       id="linearGradient1781"
       x1="2.8346456e-08"
       y1="2.2677165e-07"
       x2="64"
       y2="64"
       gradientUnits="userSpaceOnUse"
       gradientTransform="matrix(0.26458333,0,0,0.26458333,1.3125e-6,1.125e-7)" />
    <linearGradient
       inkscape:collect="always"
       id="linearGradient37218-3">
      <stop
         style="stop-color:#ffffff;stop-opacity:1"
         offset="0"
         id="stop37214-6" />
      <stop
         style="stop-color:#717171;stop-opacity:0.00392157"
         offset="0.49741825"
         id="stop37220-7" />
      <stop
         style="stop-color:#181818;stop-opacity:1"
         offset="1"
         id="stop37216-5" />
    </linearGradient>
    <linearGradient
       inkscape:collect="always"
       xlink:href="#linearGradient1106"
       id="linearGradient1001"
       x1="5.2916675"
       y1="16.933334"
       x2="5.2916679"
       y2="6.7529299e-07"
       gradientUnits="userSpaceOnUse" />
    <linearGradient
       inkscape:collect="always"
       xlink:href="#linearGradient1254"
       id="linearGradient1256"
       x1="50"
       y1="64"
       x2="50"
       y2="2.2677165e-07"
       gradientUnits="userSpaceOnUse"
       gradientTransform="scale(0.26458333)" />
    <linearGradient
       inkscape:collect="always"
       id="linearGradient1254">
      <stop
         style="stop-color:#b3b3b3;stop-opacity:1;"
         offset="0"
         id="stop1250" />
      <stop
         style="stop-color:#ececec;stop-opacity:1"
         offset="1"
         id="stop1252" />
    </linearGradient>
    <linearGradient
       inkscape:collect="always"
       xlink:href="#linearGradient1272"
       id="linearGradient1274"
       x1="3"
       y1="6.5"
       x2="61"
       y2="14.5"
       gradientUnits="userSpaceOnUse"
       gradientTransform="scale(0.26458333)" />
    <linearGradient
       inkscape:collect="always"
       id="linearGradient1272">
      <stop
         style="stop-color:#000000;stop-opacity:1;"
         offset="0"
         id="stop1268" />
      <stop
         style="stop-color:#000000;stop-opacity:0;"
         offset="1"
         id="stop1270" />
    </linearGradient>
    <linearGradient
       inkscape:collect="always"
       xlink:href="#linearGradient3540"
       id="linearGradient3542"
       x1="4.7624998"
       y1="12.964582"
       x2="4.7624998"
       y2="10.847916"
       gradientUnits="userSpaceOnUse"
       gradientTransform="matrix(1.3333333,0,0,1.3333333,-1.411111,-4.233333)" />
    <linearGradient
       inkscape:collect="always"
       xlink:href="#linearGradient3540"
       id="linearGradient5498"
       x1="5.0270844"
       y1="6.8791666"
       x2="5.0270844"
       y2="11.641665"
       gradientUnits="userSpaceOnUse" />
    <linearGradient
       inkscape:collect="always"
       xlink:href="#linearGradient3540"
       id="linearGradient5920"
       x1="10.583332"
       y1="11.90625"
       x2="5.8208327"
       y2="11.90625"
       gradientUnits="userSpaceOnUse" />
  </defs>
  <path
     id="rect863"
     style="fill:url(#linearGradient1001);fill-opacity:1;stroke-width:0.264583"
     d="m 3.704166,1.5875 h 9.525 c 1.172634,0 2.116667,0.9440332 2.116667,2.1166662 v 9.5249998 c 0,1.172634 -0.944033,2.116667 -2.116667,2.116667 h -9.525 C 2.531534,15.345833 1.5875,14.4018 1.5875,13.229166 V 3.7041662 C 1.5875,2.5315332 2.531534,1.5875 3.704166,1.5875 Z"
     sodipodi:nodetypes="sssssssss" />
  <path
     id="rect867"
     style="fill:url(#linearGradient1256);fill-opacity:1;stroke-width:2.38125;stroke-linecap:round;stroke-linejoin:round"
     d="m 3.175,1.0583333 c -1.1726333,0 -2.1166667,0.944033 -2.1166667,2.116667 V 13.758333 c 0,1.172633 0.9440334,2.116667 2.1166667,2.116667 h 10.583333 c 1.172633,0 2.116667,-0.944034 2.116667,-2.116667 V 3.1750003 c 0,-1.172634 -0.944034,-2.116667 -2.116667,-2.116667 z m 0.2645833,0.79375 H 13.49375 c 0.879475,0 1.5875,0.708025 1.5875,1.5875 V 13.49375 c 0,0.879475 -0.708025,1.5875 -1.5875,1.5875 H 3.4395833 c -0.879475,0 -1.5875,-0.708025 -1.5875,-1.5875 V 3.4395833 c 0,-0.879475 0.708025,-1.5875 1.5875,-1.5875 z" />
  <path
     id="rect872"
     style="opacity:0.3;fill:url(#linearGradient1274);fill-opacity:1;stroke-width:2.38125;stroke-linecap:round;stroke-linejoin:round"
     d="m 3.4395833,1.8520833 c -0.879475,0 -1.5875,0.708025 -1.5875,1.5875 v 0.264583 c 0,-0.879475 0.708025,-1.5875 1.5875,-1.5875 H 13.49375 c 0.879475,0 1.5875,0.708025 1.5875,1.5875 v -0.264583 c 0,-0.879475 -0.708025,-1.5875 -1.5875,-1.5875 z" />
  <path
     id="rect1345"
     style="opacity:0.3;fill:url(#linearGradient1781);fill-opacity:1;stroke-width:0.264583"
     d="m 3.1750003,1.0583333 c -1.172633,0 -2.116667,0.9440335 -2.116667,2.1166668 V 13.758333 c 0,1.172634 0.944034,2.116667 2.116667,2.116667 H 13.758334 c 1.172633,0 2.116666,-0.944033 2.116666,-2.116667 V 3.1750001 c 0,-1.1726333 -0.944033,-2.1166668 -2.116666,-2.1166668 z m 0,0.2645834 H 13.758334 c 1.026054,0 1.852083,0.8260292 1.852083,1.8520834 V 13.758333 c 0,1.026054 -0.826029,1.852084 -1.852083,1.852084 H 3.1750003 c -1.026055,0 -1.852083,-0.82603 -1.852083,-1.852084 V 3.1750001 c 0,-1.0260542 0.826028,-1.8520834 1.852083,-1.8520834 z" />
  <path
     id="rect889"
     style="opacity:0.4;fill:#000000;fill-opacity:1;stroke-width:0.264583;stroke-linecap:round;stroke-linejoin:round"
     d="M 3.4395832,2.6458333 H 13.49375 c 0.439737,0 0.79375,0.3540124 0.79375,0.7937499 V 13.49375 c 0,0.439737 -0.354013,0.79375 -0.79375,0.79375 H 3.4395832 c -0.4397375,0 -0.7937499,-0.354013 -0.7937499,-0.79375 V 3.4395832 c 0,-0.4397375 0.3540124,-0.7937499 0.7937499,-0.7937499 z"
     sodipodi:nodetypes="sssssssss" />
  <rect
     style="opacity:0.4;fill:url(#linearGradient3542);fill-opacity:1;stroke-width:0.352777;stroke-linecap:round;stroke-linejoin:round"
     id="rect3454"
     width="2.1166666"
     height="2.1166666"
     x="4.2333331"
     y="10.583333" />
  <path
     id="rect3950"
     style="opacity:0.4;fill:#ffffff;fill-opacity:1;stroke-width:0.816495;stroke-linecap:round;stroke-linejoin:round"
     d="M 16 31 L 16 33 L 20 33 L 20 31 L 16 31 z M 16 33 L 14 33 L 14 36 L 16 36 L 16 33 z M 22 31 L 22 33 L 26 33 L 26 31 L 22 31 z M 28 31 L 28 33 L 31 33 L 31 36 L 33 36 L 33 31 L 28 31 z M 14 38 L 14 42 L 16 42 L 16 38 L 14 38 z M 31 38 L 31 42 L 33 42 L 33 38 L 31 38 z M 14 44 L 14 48 L 16 48 L 16 44 L 14 44 z M 16 48 L 16 50 L 20 50 L 20 48 L 16 48 z M 31 44 L 31 48 L 33 48 L 33 44 L 31 44 z M 31 48 L 28 48 L 28 50 L 31 50 L 31 48 z M 22 48 L 22 50 L 26 50 L 26 48 L 22 48 z "
     transform="scale(0.26458333)" />
  <path
     id="rect1481"
     style="opacity:1;fill:url(#linearGradient5920);fill-opacity:1;stroke-width:0.216031;stroke-linecap:round;stroke-linejoin:round"
     d="M 11.641666,11.641667 V 11.1125 l 1.058333,0.79375 -1.058333,0.793751 V 12.170834 L 4.7624996,11.90625 Z"
     sodipodi:nodetypes="ccccccc" />
  <path
     id="rect1481-3"
     style="fill:url(#linearGradient5498);fill-opacity:1;stroke-width:0.216031;stroke-linecap:round;stroke-linejoin:round"
     d="M 5.2916672,5.2916665 5.0270842,12.170832 4.7625002,5.2916667 h -0.529167 l 0.793751,-1.0583335 0.79375,1.0583333 z"
     sodipodi:nodetypes="ccccccc" />
</svg>
