<?xml version="1.0" encoding="UTF-8" standalone="no"?>
<!-- Created with Inkscape (http://www.inkscape.org/) -->

<svg
   width="64"
   height="64"
   viewBox="0 0 16.933333 16.933333"
   version="1.1"
   id="svg5"
   inkscape:version="1.1.1 (3bf5ae0d25, 2021-09-20, custom)"
   sodipodi:docname="preferences-desktop-display-color.svg"
   xmlns:inkscape="http://www.inkscape.org/namespaces/inkscape"
   xmlns:sodipodi="http://sodipodi.sourceforge.net/DTD/sodipodi-0.dtd"
   xmlns:xlink="http://www.w3.org/1999/xlink"
   xmlns="http://www.w3.org/2000/svg"
   xmlns:svg="http://www.w3.org/2000/svg">
  <sodipodi:namedview
     id="namedview7"
     pagecolor="#ffffff"
     bordercolor="#666666"
     borderopacity="1.0"
     inkscape:pageshadow="2"
     inkscape:pageopacity="0.0"
     inkscape:pagecheckerboard="0"
     inkscape:document-units="px"
     showgrid="false"
     units="px"
     height="48px"
     inkscape:zoom="8"
     inkscape:cx="35.75"
     inkscape:cy="46.375"
     inkscape:window-width="1368"
     inkscape:window-height="817"
     inkscape:window-x="258"
     inkscape:window-y="128"
     inkscape:window-maximized="0"
     inkscape:current-layer="svg5"
     inkscape:lockguides="true"
     inkscape:snap-nodes="false" />
  <defs
     id="defs2">
    <linearGradient
       inkscape:collect="always"
       id="linearGradient2415">
      <stop
         style="stop-color:#333333;stop-opacity:0.5"
         offset="0"
         id="stop2411" />
      <stop
         style="stop-color:#010101;stop-opacity:0.00454808"
         offset="1"
         id="stop2413" />
    </linearGradient>
    <linearGradient
       inkscape:collect="always"
       id="linearGradient2043">
      <stop
         style="stop-color:#010101;stop-opacity:1"
         offset="0"
         id="stop2039" />
      <stop
         style="stop-color:#010101;stop-opacity:0.00454808"
         offset="1"
         id="stop2041" />
    </linearGradient>
    <linearGradient
       inkscape:collect="always"
       id="linearGradient15132">
      <stop
         style="stop-color:#f5e224;stop-opacity:1;"
         offset="0"
         id="stop15128" />
      <stop
         style="stop-color:#f5e224;stop-opacity:0;"
         offset="1"
         id="stop15130" />
    </linearGradient>
    <linearGradient
       inkscape:collect="always"
       id="linearGradient12059">
      <stop
         style="stop-color:#47c12a;stop-opacity:1;"
         offset="0"
         id="stop12055" />
      <stop
         style="stop-color:#47c12a;stop-opacity:0;"
         offset="1"
         id="stop12057" />
    </linearGradient>
    <linearGradient
       inkscape:collect="always"
       id="linearGradient10051">
      <stop
         style="stop-color:#aa3ad4;stop-opacity:1"
         offset="0"
         id="stop10047" />
      <stop
         style="stop-color:#aa3ad4;stop-opacity:0"
         offset="1"
         id="stop10049" />
    </linearGradient>
    <linearGradient
       inkscape:collect="always"
       id="linearGradient7221">
      <stop
         style="stop-color:#ff2a2a;stop-opacity:1"
         offset="0"
         id="stop7217" />
      <stop
         style="stop-color:#ff2929;stop-opacity:0.00392157"
         offset="1"
         id="stop7219" />
    </linearGradient>
    <linearGradient
       inkscape:collect="always"
       id="linearGradient5569">
      <stop
         style="stop-color:#f5cc24;stop-opacity:1;"
         offset="0"
         id="stop5565" />
      <stop
         style="stop-color:#f5cc24;stop-opacity:0.00045133"
         offset="1"
         id="stop5567" />
    </linearGradient>
    <linearGradient
       inkscape:collect="always"
       id="linearGradient3954">
      <stop
         style="stop-color:#24c2f5;stop-opacity:1;"
         offset="0"
         id="stop3950" />
      <stop
         style="stop-color:#24c2f5;stop-opacity:0;"
         offset="1"
         id="stop3952" />
    </linearGradient>
    <linearGradient
       inkscape:collect="always"
       id="linearGradient1603">
      <stop
         style="stop-color:#ff910c;stop-opacity:1;"
         offset="0"
         id="stop1599" />
      <stop
         style="stop-color:#ff910c;stop-opacity:0;"
         offset="1"
         id="stop1601" />
    </linearGradient>
    <linearGradient
       inkscape:collect="always"
       xlink:href="#linearGradient37218"
       id="linearGradient1781"
       x1="2.8346456e-08"
       y1="2.2677165e-07"
       x2="64"
       y2="64"
       gradientUnits="userSpaceOnUse"
       gradientTransform="scale(0.26458333)" />
    <linearGradient
       inkscape:collect="always"
       id="linearGradient37218">
      <stop
         style="stop-color:#ffffff;stop-opacity:1"
         offset="0"
         id="stop37214" />
      <stop
         style="stop-color:#717171;stop-opacity:0.00392157"
         offset="0.49741825"
         id="stop37220" />
      <stop
         style="stop-color:#000000;stop-opacity:1"
         offset="1"
         id="stop37216" />
    </linearGradient>
    <radialGradient
       inkscape:collect="always"
       xlink:href="#linearGradient1603"
       id="radialGradient1605"
       cx="0.87842548"
       cy="0.21080241"
       fx="0.87842548"
       fy="0.21080241"
       r="7.4083333"
       gradientUnits="userSpaceOnUse"
       gradientTransform="matrix(-1.0331631,1.0331632,-1.2697597,-1.2697596,3.0084094,1.1932959)" />
    <radialGradient
       inkscape:collect="always"
       xlink:href="#linearGradient3954"
       id="radialGradient3956"
       cx="14.816666"
       cy="15.345833"
       fx="14.816666"
       fy="15.345833"
       r="7.4083333"
       gradientUnits="userSpaceOnUse"
       gradientTransform="matrix(0.99968327,-0.99323827,1.129362,1.1366907,-17.553097,12.373158)" />
    <radialGradient
       inkscape:collect="always"
       xlink:href="#linearGradient5569"
       id="radialGradient5571"
       cx="1.5874997"
       cy="15.345834"
       fx="1.5874997"
       fy="15.345834"
       r="7.4083333"
       gradientUnits="userSpaceOnUse"
       gradientTransform="matrix(1.0061248,-0.97618382,1.1878337,1.2242666,-17.992337,-2.1375535)" />
    <radialGradient
       inkscape:collect="always"
       xlink:href="#linearGradient7221"
       id="radialGradient7223"
       cx="8.4666662"
       cy="2.1573725"
       fx="8.4666662"
       fy="2.1573725"
       r="7.4083333"
       gradientUnits="userSpaceOnUse"
       gradientTransform="matrix(-0.96428588,4.1381786e-6,-3.3669829e-7,-1.1020407,16.630955,3.7003943)" />
    <radialGradient
       inkscape:collect="always"
       xlink:href="#linearGradient10051"
       id="radialGradient10053"
       cx="15.345833"
       cy="1.5874997"
       fx="15.345833"
       fy="1.5874997"
       r="7.4083333"
       gradientUnits="userSpaceOnUse"
       gradientTransform="matrix(-0.80883127,-0.77600636,0.98020846,-1.0216716,25.956267,15.363541)" />
    <radialGradient
       inkscape:collect="always"
       xlink:href="#linearGradient12059"
       id="radialGradient12061"
       cx="8.4666662"
       cy="15.875"
       fx="8.4666662"
       fy="15.875"
       r="7.4083333"
       gradientUnits="userSpaceOnUse"
       gradientTransform="matrix(0.96428569,0,0,0.96428569,0.302381,0.302381)" />
    <radialGradient
       inkscape:collect="always"
       xlink:href="#linearGradient15132"
       id="radialGradient15134"
       cx="20.066483"
       cy="4.0683722"
       fx="20.066483"
       fy="4.0683722"
       r="7.4083328"
       gradientUnits="userSpaceOnUse"
       gradientTransform="matrix(0,0.96428569,-0.96428569,0,5.2459901,-10.883157)" />
    <linearGradient
       inkscape:collect="always"
       xlink:href="#linearGradient1254"
       id="linearGradient1256"
       x1="50"
       y1="64"
       x2="50"
       y2="2.2677165e-07"
       gradientUnits="userSpaceOnUse"
       gradientTransform="scale(0.26458333)" />
    <linearGradient
       inkscape:collect="always"
       id="linearGradient1254">
      <stop
         style="stop-color:#b3b3b3;stop-opacity:1;"
         offset="0"
         id="stop1250" />
      <stop
         style="stop-color:#ececec;stop-opacity:1"
         offset="1"
         id="stop1252" />
    </linearGradient>
    <linearGradient
       inkscape:collect="always"
       xlink:href="#linearGradient2415"
       id="linearGradient5498"
       x1="5.0270844"
       y1="6.8791666"
       x2="5.0270844"
       y2="11.641665"
       gradientUnits="userSpaceOnUse"
       gradientTransform="translate(0.26458262,-0.26458308)" />
    <linearGradient
       inkscape:collect="always"
       xlink:href="#linearGradient2415"
       id="linearGradient5920"
       x1="10.583332"
       y1="11.90625"
       x2="5.8208327"
       y2="11.90625"
       gradientUnits="userSpaceOnUse"
       gradientTransform="translate(0.26458262,-0.26458308)" />
    <linearGradient
       inkscape:collect="always"
       xlink:href="#linearGradient1272"
       id="linearGradient1274"
       x1="3"
       y1="6.5"
       x2="61"
       y2="14.5"
       gradientUnits="userSpaceOnUse"
       gradientTransform="scale(0.26458333)" />
    <linearGradient
       inkscape:collect="always"
       id="linearGradient1272">
      <stop
         style="stop-color:#000000;stop-opacity:1;"
         offset="0"
         id="stop1268" />
      <stop
         style="stop-color:#000000;stop-opacity:0;"
         offset="1"
         id="stop1270" />
    </linearGradient>
    <linearGradient
       inkscape:collect="always"
       xlink:href="#linearGradient2043"
       id="linearGradient1419"
       x1="13"
       y1="54.5"
       x2="49"
       y2="26.5"
       gradientUnits="userSpaceOnUse" />
  </defs>
  <path
     id="rect863"
     style="fill:#ffffff;stroke-width:0.255134"
     d="M 3.3639884,1.3229167 H 13.569344 c 1.130754,0 2.041072,0.9103185 2.041072,2.0410717 V 13.569344 c 0,1.130754 -0.910318,2.041072 -2.041072,2.041072 H 3.3639884 c -1.1307532,0 -2.0410717,-0.910318 -2.0410717,-2.041072 V 3.3639884 c 0,-1.1307532 0.9103185,-2.0410717 2.0410717,-2.0410717 z" />
  <path
     id="rect849"
     style="opacity:1;fill:url(#radialGradient1605);stroke-width:0.171167;stroke-linecap:round;stroke-linejoin:round"
     d="m 3.363988,1.3229167 h 10.205356 c 1.130754,0 2.041072,0.9103178 2.041072,2.0410713 v 10.205356 c 0,1.130754 -0.910318,2.041072 -2.041072,2.041072 H 3.363988 c -1.1307535,0 -2.0410713,-0.910318 -2.0410713,-2.041072 V 3.363988 c 0,-1.1307535 0.9103178,-2.0410713 2.0410713,-2.0410713 z" />
  <rect
     style="opacity:1;fill:url(#radialGradient3956);fill-opacity:1;stroke-width:0.171167;stroke-linecap:round;stroke-linejoin:round"
     id="rect2770"
     width="14.287499"
     height="14.287499"
     x="1.3229166"
     y="1.3229166"
     ry="2.0410712" />
  <rect
     style="opacity:1;fill:url(#radialGradient5571);fill-opacity:1;stroke-width:0.171167;stroke-linecap:round;stroke-linejoin:round"
     id="rect4922"
     width="14.287499"
     height="14.287499"
     x="1.3229166"
     y="1.3229166"
     ry="2.0410712" />
  <rect
     style="opacity:1;fill:url(#radialGradient7223);fill-opacity:1;stroke-width:0.171167;stroke-linecap:round;stroke-linejoin:round"
     id="rect5961"
     width="14.287499"
     height="14.287499"
     x="1.3229166"
     y="1.3229166"
     ry="2.0410712" />
  <rect
     style="opacity:1;fill:url(#radialGradient10053);fill-opacity:1;stroke-width:0.171167;stroke-linecap:round;stroke-linejoin:round"
     id="rect8637"
     width="14.287499"
     height="14.287499"
     x="1.3229166"
     y="1.3229166"
     ry="2.0410712" />
  <rect
     style="opacity:1;fill:url(#radialGradient15134);fill-opacity:1;stroke-width:0.171167;stroke-linecap:round;stroke-linejoin:round"
     id="rect14620"
     width="14.287498"
     height="14.287498"
     x="1.3229166"
     y="1.3229166"
     ry="2.0410712" />
  <rect
     style="opacity:1;fill:url(#radialGradient12061);fill-opacity:1;stroke-width:0.171167;stroke-linecap:round;stroke-linejoin:round"
     id="rect11481"
     width="14.287499"
     height="14.287499"
     x="1.3229166"
     y="1.3229166"
     ry="2.0410712" />
  <path
     id="rect867"
     style="fill:url(#linearGradient1256);fill-opacity:1;stroke-width:2.38125;stroke-linecap:round;stroke-linejoin:round"
     d="m 3.1750003,1.0583333 c -1.172633,0 -2.116667,0.944033 -2.116667,2.116667 V 13.758333 c 0,1.172633 0.944034,2.116667 2.116667,2.116667 H 13.758333 c 1.172633,0 2.116667,-0.944034 2.116667,-2.116667 V 3.1750003 c 0,-1.172634 -0.944034,-2.116667 -2.116667,-2.116667 z m 0.264583,0.79375 H 13.49375 c 0.879475,0 1.5875,0.708025 1.5875,1.5875 V 13.49375 c 0,0.879475 -0.708025,1.5875 -1.5875,1.5875 H 3.4395833 c -0.879475,0 -1.5875,-0.708025 -1.5875,-1.5875 V 3.4395833 c 0,-0.879475 0.708025,-1.5875 1.5875,-1.5875 z" />
  <path
     id="rect872"
     style="opacity:0.3;fill:url(#linearGradient1274);fill-opacity:1;stroke-width:2.38125;stroke-linecap:round;stroke-linejoin:round"
     d="m 3.4395833,1.8520833 c -0.879475,0 -1.5875,0.708025 -1.5875,1.5875 v 0.264583 c 0,-0.879475 0.708025,-1.5875 1.5875,-1.5875 H 13.49375 c 0.879475,0 1.5875,0.708025 1.5875,1.5875 v -0.264583 c 0,-0.879475 -0.708025,-1.5875 -1.5875,-1.5875 z" />
  <path
     id="rect889"
     style="opacity:0.4;fill:#ffffff;fill-opacity:1;stroke-width:0.264583;stroke-linecap:round;stroke-linejoin:round"
     d="M 3.4395833,2.6458333 H 13.49375 c 0.439737,0 0.79375,0.3540124 0.79375,0.7937499 V 13.49375 c 0,0.439737 -0.354013,0.79375 -0.79375,0.79375 H 3.4395833 c -0.439737,0 -0.79375,-0.354013 -0.79375,-0.79375 V 3.4395832 c 0,-0.4397375 0.354013,-0.7937499 0.79375,-0.7937499 z"
     sodipodi:nodetypes="sssssssss" />
  <path
     id="rect3950"
     style="opacity:1;fill:#ffffff;fill-opacity:1;stroke-width:0.216031;stroke-linecap:round;stroke-linejoin:round"
     d="m 4.497916,7.9374999 v 0.529167 H 5.55625 v -0.529167 z m 0,0.529167 H 3.9687499 v 0.79375 H 4.497916 Z m 1.5875,-0.529167 v 0.529167 h 1.0583339 v -0.529167 z m 1.5874999,0 v 0.529167 h 0.79375 v 0.79375 h 0.529167 v -1.322917 z m -3.704166,1.852084 V 10.847917 H 4.497916 V 9.7895839 Z m 4.497916,0 v 1.0583331 h 0.529167 V 9.7895839 Z m -4.497916,1.5875001 v 1.058333 H 4.497916 v -1.058333 z m 0.5291661,1.058333 v 0.529167 H 5.55625 v -0.529167 z m 3.9687499,-1.058333 v 1.058333 h 0.529167 v -1.058333 z m 0,1.058333 h -0.79375 v 0.529167 h 0.79375 z m -2.3812499,0 v 0.529167 h 1.0583339 v -0.529167 z" />
  <path
     id="rect1481"
     style="fill:url(#linearGradient5920);fill-opacity:1;stroke-width:0.216031;stroke-linecap:round;stroke-linejoin:round"
     d="m 11.906249,11.377084 v -0.529167 l 1.058333,0.79375 -1.058333,0.793751 V 11.906251 L 5.027083,11.641667 Z"
     sodipodi:nodetypes="ccccccc" />
  <path
     id="rect1481-3"
     style="fill:url(#linearGradient5498);fill-opacity:1.0;stroke-width:0.216031;stroke-linecap:round;stroke-linejoin:round"
     d="M 5.55625,5.0270839 5.291667,11.906249 5.027083,5.0270839 H 4.497916 l 0.793751,-1.058334 0.79375,1.058334 z"
     sodipodi:nodetypes="ccccccc" />
  <path
     id="rect1345"
     style="opacity:0.3;fill:url(#linearGradient1781);fill-opacity:1;stroke-width:0.264583"
     d="m 3.1750003,1.0583333 c -1.172633,0 -2.116667,0.944034 -2.116667,2.116667 V 13.758333 c 0,1.172634 0.944034,2.116667 2.116667,2.116667 H 13.758334 c 1.172633,0 2.116666,-0.944033 2.116666,-2.116667 V 3.1750003 c 0,-1.172633 -0.944033,-2.116667 -2.116666,-2.116667 z m 0,0.264584 H 13.758334 c 1.026054,0 1.852083,0.826029 1.852083,1.852083 V 13.758333 c 0,1.026054 -0.826029,1.852084 -1.852083,1.852084 H 3.1750003 c -1.026054,0 -1.852083,-0.82603 -1.852083,-1.852084 V 3.1750003 c 0,-1.026054 0.826029,-1.852083 1.852083,-1.852083 z" />
  <path
     id="rect3950-7"
     style="opacity:0.4;fill:url(#linearGradient1419);fill-opacity:1.0;stroke-width:0.816495;stroke-linecap:round;stroke-linejoin:round"
     d="M 17.75 19 L 17 20 L 19 20 L 19.384766 30 L 19.423828 30 L 19 19 L 17.75 19 z M 21 19 L 20.576172 30 L 20.615234 30 L 21 20 L 23 20 L 22.25 19 L 21 19 z M 17 32 L 17 33 L 19.5 33 L 19.921875 43.964844 L 19.960938 43.962891 L 19.5 32 L 17 32 z M 20.5 32 L 20.039062 43.960938 L 20.078125 43.958984 L 20.5 33 L 21 33 L 21 32 L 20.5 32 z M 23 32 L 23 33 L 27 33 L 27 32 L 23 32 z M 29 32 L 29 33 L 32 33 L 32 32 L 29 32 z M 15 35 L 15 36 L 17 36 L 17 35 L 15 35 z M 32 35 L 32 36 L 34 36 L 34 35 L 32 35 z M 15 41 L 15 42 L 17 42 L 17 41 L 15 41 z M 32 41 L 32 42 L 34 42 L 34 41 L 32 41 z M 19.925781 44.035156 L 19.960938 44.962891 L 19 45 L 19.962891 45.037109 L 20 46 L 20.037109 45.039062 L 32 45.5 L 32 44.5 L 20.039062 44.960938 L 20.074219 44.041016 L 20.037109 44.039062 L 20 45 L 19.962891 44.037109 L 19.925781 44.035156 z M 48.333984 44.5 L 45 47 L 45 48 L 49 45 L 48.333984 44.5 z M 34 44.576172 L 34 45.576172 L 45 46 L 45 45 L 34 44.576172 z M 15 47 L 15 48 L 17 48 L 17 47 L 15 47 z M 32 47 L 32 48 L 34 48 L 34 47 L 32 47 z M 17 49 L 17 50 L 21 50 L 21 49 L 17 49 z M 23 49 L 23 50 L 27 50 L 27 49 L 23 49 z M 29 49 L 29 50 L 32 50 L 32 49 L 29 49 z "
     transform="scale(0.26458333)" />
</svg>
