<?xml version="1.0" encoding="UTF-8" standalone="no"?>
<!-- Created with Inkscape (http://www.inkscape.org/) -->

<svg
   width="64"
   height="64"
   viewBox="0 0 16.933333 16.933333"
   version="1.1"
   id="svg5"
   inkscape:version="1.1.1 (3bf5ae0d25, 2021-09-20, custom)"
   sodipodi:docname="qt.svg"
   xmlns:inkscape="http://www.inkscape.org/namespaces/inkscape"
   xmlns:sodipodi="http://sodipodi.sourceforge.net/DTD/sodipodi-0.dtd"
   xmlns:xlink="http://www.w3.org/1999/xlink"
   xmlns="http://www.w3.org/2000/svg"
   xmlns:svg="http://www.w3.org/2000/svg">
  <sodipodi:namedview
     id="namedview7"
     pagecolor="#ffffff"
     bordercolor="#666666"
     borderopacity="1.0"
     inkscape:pageshadow="2"
     inkscape:pageopacity="0.0"
     inkscape:pagecheckerboard="0"
     inkscape:document-units="px"
     showgrid="false"
     units="px"
     height="48px"
     inkscape:zoom="1"
     inkscape:cx="11"
     inkscape:cy="32.5"
     inkscape:window-width="1920"
     inkscape:window-height="1019"
     inkscape:window-x="0"
     inkscape:window-y="0"
     inkscape:window-maximized="1"
     inkscape:current-layer="svg5"
     inkscape:lockguides="true" />
  <defs
     id="defs2">
    <linearGradient
       inkscape:collect="always"
       id="linearGradient37218">
      <stop
         style="stop-color:#1a1a1a;stop-opacity:1"
         offset="0"
         id="stop37214" />
      <stop
         style="stop-color:#e6e6e6;stop-opacity:0.00306325"
         offset="0.49741825"
         id="stop37220" />
      <stop
         style="stop-color:#ffffff;stop-opacity:1"
         offset="1"
         id="stop37216" />
    </linearGradient>
    <linearGradient
       inkscape:collect="always"
       xlink:href="#linearGradient37218"
       id="linearGradient881"
       x1="64.208344"
       y1="64.062607"
       x2="0.30528301"
       y2="0.13507102"
       gradientUnits="userSpaceOnUse" />
  </defs>
  <path
     id="rect846-3"
     style="fill:#00cc5c;fill-opacity:1;stroke-width:0.337526"
     d="m 3.175,1.5875 h 10.583333 c 0.879475,0 1.5875,0.708025 1.5875,1.5875 v 10.583333 c 0,0.879475 -0.708025,1.5875 -1.5875,1.5875 H 3.175 c -0.879475,0 -1.5875,-0.708025 -1.5875,-1.5875 V 3.175 c 0,-0.879475 0.708025,-1.5875 1.5875,-1.5875 z" />
  <path
     id="rect846"
     style="opacity:0.3;fill:url(#linearGradient881);stroke-width:1.27569;fill-opacity:1"
     d="M 12 6 C 8.6760005 6 6 8.6760005 6 12 L 6 52 C 6 55.324 8.6760005 58 12 58 L 52 58 C 55.324 58 58 55.324 58 52 L 58 12 C 58 8.6760005 55.324 6 52 6 L 12 6 z M 12 7 L 52 7 C 54.77 7 57 9.23 57 12 L 57 52 C 57 54.77 54.77 57 52 57 L 12 57 C 9.23 57 7 54.77 7 52 L 7 12 C 7 9.23 9.23 7 12 7 z "
     transform="scale(0.26458333)" />
  <path
     id="path8"
     d="M 10.432143,4.7624999 V 6.236607 H 9.4494047 v 0.9827382 h 0.9827383 v 2.0230587 c 0,1.3873951 0.490976,1.9078941 1.372378,1.9078941 h 1.084467 v -0.982739 h -0.975061 c -0.474066,0 -0.499046,-0.3293467 -0.499046,-1.0230451 V 7.2193452 h 1.474107 V 6.236607 H 11.414881 V 4.7624999 Z m -3.9184763,0.010549 c -1.9509527,1e-7 -2.4693216,1.1022499 -2.4693216,3.1833423 0,2.0810928 0.5092503,3.2073348 2.4693216,3.2073348 H 7.0702955 L 7.8812466,12.550507 8.8207977,12.204054 8.0549528,10.81632 C 8.784281,10.469472 8.9580357,9.3437935 8.9580357,7.9563987 c 0,-2.0810923 -0.4934161,-3.1833421 -2.444369,-3.1833423 z m -0.00864,0.9721816 c 1.1900987,0 1.4702716,0.8633303 1.4702686,2.2869774 0,1.4236463 -0.2711522,2.1353441 -1.4702686,2.1353441 -1.1991154,0 -1.4779457,-0.7116978 -1.4779457,-2.1353441 0,-1.4236471 0.2878481,-2.2869774 1.4779457,-2.2869774 z"
     style="fill:#ffffff;stroke-width:0.491368" />
</svg>
