<?xml version="1.0" encoding="UTF-8" standalone="no"?>
<!-- Created with Inkscape (http://www.inkscape.org/) -->

<svg
   width="64"
   height="64"
   viewBox="0 0 16.933333 16.933333"
   version="1.1"
   id="svg5"
   inkscape:version="1.1.1 (3bf5ae0d25, 2021-09-20, custom)"
   sodipodi:docname="shotwell.svg"
   xmlns:inkscape="http://www.inkscape.org/namespaces/inkscape"
   xmlns:sodipodi="http://sodipodi.sourceforge.net/DTD/sodipodi-0.dtd"
   xmlns:xlink="http://www.w3.org/1999/xlink"
   xmlns="http://www.w3.org/2000/svg"
   xmlns:svg="http://www.w3.org/2000/svg">
  <sodipodi:namedview
     id="namedview7"
     pagecolor="#ffffff"
     bordercolor="#666666"
     borderopacity="1.0"
     inkscape:pageshadow="2"
     inkscape:pageopacity="0.0"
     inkscape:pagecheckerboard="0"
     inkscape:document-units="px"
     showgrid="false"
     units="px"
     height="48px"
     inkscape:zoom="5.656854"
     inkscape:cx="7.0710682"
     inkscape:cy="43.133516"
     inkscape:window-width="1920"
     inkscape:window-height="1011"
     inkscape:window-x="0"
     inkscape:window-y="0"
     inkscape:window-maximized="1"
     inkscape:current-layer="svg5"
     inkscape:lockguides="true" />
  <defs
     id="defs2">
    <linearGradient
       inkscape:collect="always"
       id="linearGradient3028">
      <stop
         style="stop-color:#000000;stop-opacity:1;"
         offset="0"
         id="stop3024" />
      <stop
         style="stop-color:#000000;stop-opacity:0;"
         offset="1"
         id="stop3026" />
    </linearGradient>
    <linearGradient
       inkscape:collect="always"
       id="linearGradient1038">
      <stop
         style="stop-color:#ffffff;stop-opacity:1;"
         offset="0"
         id="stop1034" />
      <stop
         style="stop-color:#ffffff;stop-opacity:0;"
         offset="1"
         id="stop1036" />
    </linearGradient>
    <linearGradient
       inkscape:collect="always"
       id="linearGradient8639">
      <stop
         style="stop-color:#1a1a1a;stop-opacity:1;"
         offset="0"
         id="stop8635" />
      <stop
         style="stop-color:#808080;stop-opacity:1"
         offset="1"
         id="stop8637" />
    </linearGradient>
    <linearGradient
       inkscape:collect="always"
       id="linearGradient2234">
      <stop
         style="stop-color:#cc599e;stop-opacity:1"
         offset="0"
         id="stop2230" />
      <stop
         style="stop-color:#9876e1;stop-opacity:1"
         offset="1"
         id="stop2232" />
    </linearGradient>
    <linearGradient
       inkscape:collect="always"
       id="linearGradient1320">
      <stop
         style="stop-color:#e2e2e2;stop-opacity:1"
         offset="0"
         id="stop1316" />
      <stop
         style="stop-color:#f6f6f6;stop-opacity:1"
         offset="1"
         id="stop1318" />
    </linearGradient>
    <linearGradient
       inkscape:collect="always"
       xlink:href="#linearGradient2234"
       id="linearGradient2236"
       x1="7.9375"
       y1="-2.7838135e-07"
       x2="7.9374995"
       y2="14.816666"
       gradientUnits="userSpaceOnUse" />
    <linearGradient
       inkscape:collect="always"
       xlink:href="#linearGradient8639"
       id="linearGradient8641"
       x1="8.4666662"
       y1="8.0697918"
       x2="14.552083"
       y2="16.536457"
       gradientUnits="userSpaceOnUse"
       gradientTransform="translate(0,0.52916666)" />
    <linearGradient
       inkscape:collect="always"
       xlink:href="#linearGradient1038"
       id="linearGradient1040"
       x1="22.056641"
       y1="30.5"
       x2="27.949219"
       y2="50.5"
       gradientUnits="userSpaceOnUse"
       gradientTransform="matrix(0.26458333,0,0,0.26458333,0,0.52916666)" />
    <linearGradient
       inkscape:collect="always"
       xlink:href="#linearGradient37218"
       id="linearGradient1781"
       x1="2.8346456e-08"
       y1="2.2677165e-07"
       x2="64"
       y2="64"
       gradientUnits="userSpaceOnUse"
       gradientTransform="scale(0.26458333)" />
    <linearGradient
       inkscape:collect="always"
       id="linearGradient37218">
      <stop
         style="stop-color:#ffffff;stop-opacity:1"
         offset="0"
         id="stop37214" />
      <stop
         style="stop-color:#808080;stop-opacity:0.00392157"
         offset="0.49741825"
         id="stop37220" />
      <stop
         style="stop-color:#020202;stop-opacity:1"
         offset="1"
         id="stop37216" />
    </linearGradient>
    <linearGradient
       inkscape:collect="always"
       xlink:href="#linearGradient1320"
       id="linearGradient1659"
       x1="2"
       y1="64"
       x2="2.0000005"
       y2="2.2677165e-07"
       gradientUnits="userSpaceOnUse" />
    <linearGradient
       inkscape:collect="always"
       xlink:href="#linearGradient3028"
       id="linearGradient3030"
       x1="2"
       y1="6.5"
       x2="64"
       y2="32.5"
       gradientUnits="userSpaceOnUse" />
  </defs>
  <path
     id="rect863"
     style="fill:#ffffff;stroke-width:0.264583"
     d="m 3.175,1.0583333 h 10.583333 c 1.172634,0 2.116667,0.944034 2.116667,2.116667 V 13.758333 c 0,1.172634 -0.944033,2.116667 -2.116667,2.116667 H 3.175 c -1.172633,0 -2.1166667,-0.944033 -2.1166667,-2.116667 V 3.1750003 c 0,-1.172633 0.9440337,-2.116667 2.1166667,-2.116667 z" />
  <path
     id="rect846-3"
     style="fill:url(#linearGradient2236);stroke-width:0.337527;fill-opacity:1"
     d="m 3.175,1.5875 h 10.583333 c 0.879475,0 1.5875,0.708025 1.5875,1.5875 v 10.583333 c 0,0.879475 -0.708025,1.5875 -1.5875,1.5875 H 3.175 c -0.879475,0 -1.5875,-0.708025 -1.5875,-1.5875 V 3.175 c 0,-0.879475 0.708025,-1.5875 1.5875,-1.5875 z" />
  <path
     id="path887"
     style="opacity:1;fill:url(#linearGradient1040);fill-opacity:1;stroke-width:0.624853;stroke-linejoin:round"
     d="m 6.3499999,10.054167 a 2.6458333,2.6458333 0 0 0 -2.630847,2.38125 h 5.2632445 a 2.6458333,2.6458333 0 0 0 -2.6323975,-2.38125 z" />
  <path
     id="rect3538"
     style="opacity:1;fill:url(#linearGradient8641);fill-opacity:1;stroke-width:1.55415;stroke-linejoin:round"
     d="M 2.1166666,12.435417 H 7.6729519 V 10.583333 L 6.6146186,8.7312498 5.9424803,8.1575923 4.2756311,8.1857741 5.6792154,7.9250781 4.7625353,7.1437501 6.6632082,8.313395 7.1868026,6.862563 6.5689811,5.8359254 5.9429324,5.8031028 5.018106,5.2208411 6.0283077,5.5831598 6.4388203,5.6321149 5.9690138,4.7624999 6.8350119,5.7869846 7.1461737,5.6998428 7.5040181,5.1710487 7.3318478,5.8231993 6.9801421,5.9827771 7.6299346,6.8957701 7.1703518,8.6254833 8.4666665,10.054166 10.101329,8.3053297 10.589081,7.6822574 9.9427652,7.0969289 10.095556,5.5872223 10.330871,7.0811042 10.872935,7.3196504 11.971474,5.9163349 10.901092,7.808051 11.413041,8.0246584 12.81654,7.822436 11.62105,8.3208756 10.68716,8.1861394 10.418531,8.6608948 11.657521,8.9264686 10.212789,8.8614092 9.2604165,10.31875 v 2.116667 H 14.816666 V 15.08125 H 2.1166666 Z"
     sodipodi:nodetypes="ccccccccccccccccccccccccccccccccccccccccccccc" />
  <path
     id="rect974"
     style="opacity:1;stroke-width:0.670893;stroke-linecap:round;stroke-linejoin:round;fill:url(#linearGradient1659);fill-opacity:1"
     d="M 12 4 C 7.568 4 4 7.5680004 4 12 L 4 52 C 4 56.431999 7.568 60 12 60 L 52 60 C 56.431999 60 60 56.431999 60 52 L 60 12 C 60 7.5680004 56.431999 4 52 4 L 12 4 z M 12 8 L 52 8 C 54.216 8 56 9.7840001 56 12 L 56 52 C 56 54.216 54.216 56 52 56 L 12 56 C 9.7840001 56 8 54.216 8 52 L 8 12 C 8 9.7840001 9.7840001 8 12 8 z "
     transform="scale(0.26458333)" />
  <path
     id="rect1345"
     style="opacity:0.3;fill:url(#linearGradient1781);fill-opacity:1;stroke-width:0.264583"
     d="m 3.175,1.0583333 c -1.172633,0 -2.1166667,0.944034 -2.1166667,2.116667 V 13.758333 c 0,1.172634 0.9440337,2.116667 2.1166667,2.116667 h 10.583334 c 1.172633,0 2.116666,-0.944033 2.116666,-2.116667 V 3.1750003 c 0,-1.172633 -0.944033,-2.116667 -2.116666,-2.116667 z m 0,0.264584 h 10.583334 c 1.026054,0 1.852083,0.826029 1.852083,1.852083 V 13.758333 c 0,1.026054 -0.826029,1.852084 -1.852083,1.852084 H 3.175 c -1.026054,0 -1.8520827,-0.82603 -1.8520827,-1.852084 V 3.1750003 c 0,-1.026054 0.8260287,-1.852083 1.8520827,-1.852083 z" />
  <path
     id="rect2479"
     style="opacity:0.3;fill:url(#linearGradient3030);fill-opacity:1;stroke-width:0.670893;stroke-linecap:round;stroke-linejoin:round"
     d="M 12 8 C 9.7840001 8 8 9.7840001 8 12 L 8 13 C 8 10.784 9.7840001 9 12 9 L 52 9 C 54.216 9 56 10.784 56 13 L 56 12 C 56 9.7840001 54.216 8 52 8 L 12 8 z "
     transform="scale(0.26458333)" />
</svg>
