<?xml version="1.0" encoding="UTF-8" standalone="no"?>
<!-- Created with Inkscape (http://www.inkscape.org/) -->

<svg
   width="64"
   height="64"
   viewBox="0 0 16.933333 16.933333"
   version="1.1"
   id="svg5"
   inkscape:version="1.1.1 (3bf5ae0d25, 2021-09-20, custom)"
   sodipodi:docname="skype.svg"
   xmlns:inkscape="http://www.inkscape.org/namespaces/inkscape"
   xmlns:sodipodi="http://sodipodi.sourceforge.net/DTD/sodipodi-0.dtd"
   xmlns:xlink="http://www.w3.org/1999/xlink"
   xmlns="http://www.w3.org/2000/svg"
   xmlns:svg="http://www.w3.org/2000/svg">
  <sodipodi:namedview
     id="namedview7"
     pagecolor="#ffffff"
     bordercolor="#666666"
     borderopacity="1.0"
     inkscape:pageshadow="2"
     inkscape:pageopacity="0.0"
     inkscape:pagecheckerboard="0"
     inkscape:document-units="px"
     showgrid="false"
     units="px"
     height="48px"
     inkscape:zoom="11.313708"
     inkscape:cx="11.313709"
     inkscape:cy="31.554642"
     inkscape:window-width="1920"
     inkscape:window-height="1011"
     inkscape:window-x="0"
     inkscape:window-y="0"
     inkscape:window-maximized="1"
     inkscape:current-layer="svg5"
     inkscape:lockguides="true" />
  <defs
     id="defs2">
    <linearGradient
       inkscape:collect="always"
       id="linearGradient37218">
      <stop
         style="stop-color:#1a1a1a;stop-opacity:1"
         offset="0"
         id="stop37214" />
      <stop
         style="stop-color:#e6e6e6;stop-opacity:0.00306325"
         offset="0.49741825"
         id="stop37220" />
      <stop
         style="stop-color:#ffffff;stop-opacity:1"
         offset="1"
         id="stop37216" />
    </linearGradient>
    <linearGradient
       inkscape:collect="always"
       xlink:href="#linearGradient37218"
       id="linearGradient881"
       x1="64.208344"
       y1="64.062607"
       x2="0.30528301"
       y2="0.13507102"
       gradientUnits="userSpaceOnUse" />
    <linearGradient
       gradientUnits="userSpaceOnUse"
       y2="18.354"
       x2="11.125"
       y1="1.1059999"
       x1="8.3929996"
       id="a">
      <stop
         id="stop2"
         stop-color="#00b7f0"
         offset=".012" />
      <stop
         id="stop4"
         stop-color="#009de5"
         offset=".339" />
      <stop
         id="stop6"
         stop-color="#0082d9"
         offset=".755" />
      <stop
         id="stop8"
         stop-color="#0078d4"
         offset="1" />
    </linearGradient>
    <linearGradient
       gradientUnits="userSpaceOnUse"
       y2="17.889"
       x2="29.546"
       y1="26.645"
       x1="14.379"
       id="b">
      <stop
         id="stop11"
         stop-color="#0078d4"
         offset="0" />
      <stop
         id="stop13"
         stop-color="#007ad5"
         offset=".37" />
      <stop
         id="stop15"
         stop-color="#0082d9"
         offset=".573" />
      <stop
         id="stop17"
         stop-color="#0090df"
         offset=".735" />
      <stop
         id="stop19"
         stop-color="#00a3e7"
         offset=".875" />
      <stop
         id="stop21"
         stop-color="#00bcf2"
         offset="1" />
    </linearGradient>
    <linearGradient
       gradientUnits="userSpaceOnUse"
       y2="30.662001"
       x2="24.291"
       y1="6.6890001"
       x1="10.45"
       id="c">
      <stop
         id="stop24"
         stop-color="#00b7f0"
         offset="0" />
      <stop
         id="stop26"
         stop-color="#007cc1"
         offset="1" />
    </linearGradient>
  </defs>
  <path
     id="rect846-3"
     style="fill:#fcfcfc;stroke-width:0.337527;fill-opacity:1"
     d="m 3.175,1.5875 h 10.583333 c 0.879475,0 1.5875,0.708025 1.5875,1.5875 v 10.583333 c 0,0.879475 -0.708025,1.5875 -1.5875,1.5875 H 3.175 c -0.879475,0 -1.5875,-0.708025 -1.5875,-1.5875 V 3.175 c 0,-0.879475 0.708025,-1.5875 1.5875,-1.5875 z" />
  <g
     id="g51"
     transform="matrix(0.00961312,0,0,0.00961312,0.0345868,0.46317189)">
    <path
       id="path31"
       style="fill:url(#a)"
       transform="matrix(33.333333,0,0,33.333333,348.39287,303.80952)"
       d="M 18.518,9.7299995 A 8.7589998,8.7299995 0 0 1 9.7589998,18.459999 8.7589998,8.7299995 0 0 1 1,9.7299995 8.7589998,8.7299995 0 0 1 9.7589998,1 8.7589998,8.7299995 0 0 1 18.518,9.7299995" />
    <path
       id="path33"
       style="fill:url(#b)"
       transform="matrix(33.333333,0,0,33.333333,348.39287,303.80952)"
       d="m 30.724999,22.267 a 8.7620001,8.7329998 0 0 1 -8.762,8.733 8.7620001,8.7329998 0 0 1 -8.762,-8.733 8.7620001,8.7329998 0 0 1 8.762,-8.733 8.7620001,8.7329998 0 0 1 8.762,8.733" />
    <path
       id="path35"
       transform="matrix(33.333333,0,0,33.333333,348.39287,303.80952)"
       opacity="0.05"
       fill-rule="evenodd"
       d="m 1.032,10.477 a 8.758,8.758 0 1 0 9.817,-9.41 15.915,15.915 0 0 0 -9.817,9.41 z" />
    <path
       id="path37"
       transform="matrix(33.333333,0,0,33.333333,348.39287,303.80952)"
       opacity="0.05"
       fill-rule="evenodd"
       d="m 30.702,21.64 a 8.761,8.761 0 1 0 -9.533,9.324 15.915,15.915 0 0 0 9.533,-9.325 z" />
    <path
       id="path39"
       transform="matrix(33.333333,0,0,33.333333,348.39287,303.80952)"
       opacity="0.1"
       fill-rule="evenodd"
       d="M 1.442,12.473 A 8.755,8.755 0 1 0 12.84,1.556 14.893,14.893 0 0 0 1.442,12.473 Z" />
    <path
       id="path41"
       opacity="0.1"
       fill-rule="evenodd"
       d="M 30.304,19.588 A 8.758,8.758 0 1 0 19.112,30.527 14.893,14.893 0 0 0 30.304,19.588 Z"
       transform="matrix(33.333333,0,0,33.333333,348.39287,303.80952)" />
    <path
       id="path43"
       transform="matrix(33.333333,0,0,33.333333,348.39287,303.80952)"
       opacity="0.1"
       fill-rule="evenodd"
       d="M 1.764,13.301 A 8.753,8.753 0 1 0 13.658,1.911 14.387,14.387 0 0 0 1.764,13.301 Z" />
    <path
       id="path45"
       transform="matrix(33.333333,0,0,33.333333,348.39287,303.80952)"
       opacity="0.1"
       fill-rule="evenodd"
       d="M 29.981,18.743 A 8.756,8.756 0 1 0 18.268,30.187 14.386,14.386 0 0 0 29.981,18.743 Z" />
    <path
       id="path47"
       style="fill:url(#c)"
       transform="matrix(33.333333,0,0,33.333333,348.39287,303.80952)"
       d="M 29.737,16.065001 A 13.873,13.827 0 0 1 15.864,29.892 13.873,13.827 0 0 1 1.9910002,16.065001 13.873,13.827 0 0 1 15.864,2.2380009 13.873,13.827 0 0 1 29.737,16.065001" />
    <path
       id="path49"
       transform="matrix(33.333333,0,0,33.333333,348.39287,303.80952)"
       fill-rule="evenodd"
       fill="#ffffff"
       d="m 11.963,15.585 a 4.358,4.358 0 0 1 -1.367,-1.442 3.986,3.986 0 0 1 -0.468,-1.993 3.582,3.582 0 0 1 0.844,-2.412 5.08,5.08 0 0 1 2.2,-1.47 8.495,8.495 0 0 1 2.88,-0.485 11.184,11.184 0 0 1 1.916,0.147 6.918,6.918 0 0 1 1.329,0.343 2.576,2.576 0 0 1 1.04,0.664 1.344,1.344 0 0 1 0.321,0.893 1.294,1.294 0 0 1 -0.338,0.931 1.124,1.124 0 0 1 -0.849,0.354 1.529,1.529 0 0 1 -0.631,-0.142 11.434,11.434 0 0 0 -1.503,-0.55 5.455,5.455 0 0 0 -1.448,-0.18 3.305,3.305 0 0 0 -1.814,0.464 1.509,1.509 0 0 0 -0.724,1.355 1.363,1.363 0 0 0 0.376,0.953 3.426,3.426 0 0 0 1.013,0.725 q 0.637,0.316 1.9,0.838 a 1.97,1.97 0 0 1 0.272,0.109 13.497,13.497 0 0 1 2.352,1.209 4.742,4.742 0 0 1 1.448,1.486 3.92,3.92 0 0 1 0.523,2.064 4.151,4.151 0 0 1 -0.724,2.488 4.304,4.304 0 0 1 -2.025,1.503 8.537,8.537 0 0 1 -3.044,0.496 9.59,9.59 0 0 1 -4.149,-0.785 2.258,2.258 0 0 1 -0.854,-0.664 1.493,1.493 0 0 1 -0.278,-0.904 1.181,1.181 0 0 1 0.365,-0.92 1.345,1.345 0 0 1 0.941,-0.332 2.407,2.407 0 0 1 1.1,0.283 q 0.632,0.316 0.997,0.474 a 5.008,5.008 0 0 0 0.86,0.272 4.92,4.92 0 0 0 1.105,0.114 2.95,2.95 0 0 0 1.857,-0.495 1.635,1.635 0 0 0 0.626,-1.356 1.44,1.44 0 0 0 -0.392,-0.99 4.167,4.167 0 0 0 -1.154,-0.84 Q 15.703,17.388 14.32,16.81 a 13.291,13.291 0 0 1 -2.357,-1.225" />
  </g>
  <path
     id="rect846"
     style="opacity:0.3;fill:url(#linearGradient881);stroke-width:1.27569;fill-opacity:1"
     d="M 12 6 C 8.6760005 6 6 8.6760005 6 12 L 6 52 C 6 55.324 8.6760005 58 12 58 L 52 58 C 55.324 58 58 55.324 58 52 L 58 12 C 58 8.6760005 55.324 6 52 6 L 12 6 z M 12 7 L 52 7 C 54.77 7 57 9.23 57 12 L 57 52 C 57 54.77 54.77 57 52 57 L 12 57 C 9.23 57 7 54.77 7 52 L 7 12 C 7 9.23 9.23 7 12 7 z "
     transform="scale(0.26458333)" />
</svg>
