<?xml version="1.0" encoding="UTF-8" standalone="no"?>
<!-- Created with Inkscape (http://www.inkscape.org/) -->

<svg
   width="64"
   height="64"
   viewBox="0 0 16.933333 16.933333"
   version="1.1"
   id="svg5"
   inkscape:version="1.1.1 (3bf5ae0d25, 2021-09-20, custom)"
   sodipodi:docname="steam.svg"
   xmlns:inkscape="http://www.inkscape.org/namespaces/inkscape"
   xmlns:sodipodi="http://sodipodi.sourceforge.net/DTD/sodipodi-0.dtd"
   xmlns:xlink="http://www.w3.org/1999/xlink"
   xmlns="http://www.w3.org/2000/svg"
   xmlns:svg="http://www.w3.org/2000/svg">
  <sodipodi:namedview
     id="namedview7"
     pagecolor="#ffffff"
     bordercolor="#666666"
     borderopacity="1.0"
     inkscape:pageshadow="2"
     inkscape:pageopacity="0.0"
     inkscape:pagecheckerboard="0"
     inkscape:document-units="px"
     showgrid="false"
     units="px"
     height="48px"
     inkscape:zoom="7.9999996"
     inkscape:cx="51.000002"
     inkscape:cy="50.625002"
     inkscape:window-width="1920"
     inkscape:window-height="1011"
     inkscape:window-x="0"
     inkscape:window-y="0"
     inkscape:window-maximized="1"
     inkscape:current-layer="svg5"
     inkscape:lockguides="true" />
  <defs
     id="defs2">
    <linearGradient
       inkscape:collect="always"
       id="linearGradient2277">
      <stop
         style="stop-color:#111d2e;stop-opacity:1;"
         offset="0"
         id="stop2273" />
      <stop
         style="stop-color:#051839;stop-opacity:1"
         offset="0.2"
         id="stop2921" />
      <stop
         style="stop-color:#0a1b48;stop-opacity:1"
         offset="0.40000001"
         id="stop3435" />
      <stop
         style="stop-color:#132e62;stop-opacity:1"
         offset="0.60000002"
         id="stop3693" />
      <stop
         style="stop-color:#144b7e;stop-opacity:1"
         offset="0.69999999"
         id="stop3951" />
      <stop
         style="stop-color:#136497;stop-opacity:1"
         offset="0.87"
         id="stop4145" />
      <stop
         style="stop-color:#1387b8;stop-opacity:1"
         offset="1"
         id="stop2275" />
    </linearGradient>
    <linearGradient
       inkscape:collect="always"
       id="linearGradient37218">
      <stop
         style="stop-color:#ffffff;stop-opacity:1"
         offset="0"
         id="stop37214" />
      <stop
         style="stop-color:#e6e6e6;stop-opacity:0.00306325"
         offset="0.49741825"
         id="stop37220" />
      <stop
         style="stop-color:#ffffff;stop-opacity:1"
         offset="1"
         id="stop37216" />
    </linearGradient>
    <linearGradient
       inkscape:collect="always"
       xlink:href="#linearGradient37218"
       id="linearGradient881"
       x1="64.208344"
       y1="64.062607"
       x2="0.30528301"
       y2="0.13507102"
       gradientUnits="userSpaceOnUse" />
    <linearGradient
       inkscape:collect="always"
       xlink:href="#linearGradient2277"
       id="linearGradient2279"
       x1="5.8208332"
       y1="1.5874997"
       x2="5.8208332"
       y2="15.345833"
       gradientUnits="userSpaceOnUse" />
  </defs>
  <path
     id="rect846-3"
     style="fill:url(#linearGradient2279);stroke-width:0.337527;fill-opacity:1"
     d="m 3.175,1.5875 h 10.583333 c 0.879475,0 1.5875,0.708025 1.5875,1.5875 v 10.583333 c 0,0.879475 -0.708025,1.5875 -1.5875,1.5875 H 3.175 c -0.879475,0 -1.5875,-0.708025 -1.5875,-1.5875 V 3.175 c 0,-0.879475 0.708025,-1.5875 1.5875,-1.5875 z" />
  <path
     fill="#ffffff"
     d="m 8.6352528,6.534887 c 0,0.012525 0,0.025035 6.276e-4,0.036787 L 6.8151652,9.2165433 C 6.5202264,9.2031318 6.2242658,9.2548636 5.9436333,9.3704632 5.8199226,9.4209184 5.7040035,9.4828693 5.5952377,9.5544003 L 1.5875,7.9085426 c 3.13e-5,0 0,2.5531684 0,2.5531684 l 3.1291166,1.269285 c 0.1419129,0.634202 0.5769764,1.190485 1.2188417,1.458089 1.0501685,0.438767 2.2610267,-0.06131 2.6978784,-1.111929 0.1136838,-0.274629 0.1666935,-0.56267 0.1590294,-0.850072 L 11.397509,9.3653541 c 0.02107,6.276e-4 0.04279,0.00128 0.06387,0.00128 1.558999,0 2.826124,-1.2709576 2.826124,-2.8317443 0,-1.5609145 -1.267125,-2.8307223 -2.826124,-2.8307223 -1.5583594,0 -2.8261233,1.2698078 -2.8261233,2.8307223 z M 8.1984012,11.894496 C 7.860288,12.706249 6.9274436,13.091368 6.1165856,12.75351 5.7425155,12.597674 5.4600946,12.312188 5.2971694,11.971775 l 0.9200071,0.381288 c 0.5979887,0.249082 1.2840502,-0.03449 1.5326212,-0.632286 0.2493378,-0.598436 -0.03353,-1.285648 -0.6311995,-1.53473 L 6.1675517,9.7919863 c 0.366981,-0.13923 0.7841615,-0.14434 1.1739431,0.01788 0.3929748,0.1635 0.6978768,0.4713407 0.8594609,0.8647627 0.1615841,0.393422 0.1609454,0.827719 -0.00255,1.219864 M 11.461377,8.4213964 c -1.037843,0 -1.8828055,-0.8462407 -1.8828055,-1.8865094 0,-1.0394388 0.8449625,-1.8859348 1.8828055,-1.8859348 1.03848,0 1.883444,0.846496 1.883444,1.8859348 0,1.0402687 -0.844964,1.8865094 -1.883444,1.8865094 M 10.05055,6.5320129 c 0,-0.7825648 0.633563,-1.4172771 1.41402,-1.4172771 0.781096,0 1.414658,0.6347123 1.414658,1.4172771 0,0.7826286 -0.633562,1.4167661 -1.414658,1.4167661 -0.780457,0 -1.41402,-0.6341375 -1.41402,-1.4167661 z"
     id="path21"
     style="stroke-width:0.0638672"
     sodipodi:nodetypes="ccccccccccccsssccccccccccsccssscsssss" />
  <path
     id="rect846"
     style="opacity:0.3;fill:url(#linearGradient881);stroke-width:1.27569;fill-opacity:1"
     d="M 12 6 C 8.6760005 6 6 8.6760005 6 12 L 6 52 C 6 55.324 8.6760005 58 12 58 L 52 58 C 55.324 58 58 55.324 58 52 L 58 12 C 58 8.6760005 55.324 6 52 6 L 12 6 z M 12 7 L 52 7 C 54.77 7 57 9.23 57 12 L 57 52 C 57 54.77 54.77 57 52 57 L 12 57 C 9.23 57 7 54.77 7 52 L 7 12 C 7 9.23 9.23 7 12 7 z "
     transform="scale(0.26458333)" />
</svg>
