<?xml version="1.0" encoding="UTF-8" standalone="no"?>
<!-- Created with Inkscape (http://www.inkscape.org/) -->

<svg
   width="64"
   height="64"
   viewBox="0 0 16.933333 16.933333"
   version="1.1"
   id="svg5"
   inkscape:version="1.1.1 (3bf5ae0d25, 2021-09-20, custom)"
   sodipodi:docname="supertux.svg"
   xmlns:inkscape="http://www.inkscape.org/namespaces/inkscape"
   xmlns:sodipodi="http://sodipodi.sourceforge.net/DTD/sodipodi-0.dtd"
   xmlns:xlink="http://www.w3.org/1999/xlink"
   xmlns="http://www.w3.org/2000/svg"
   xmlns:svg="http://www.w3.org/2000/svg">
  <sodipodi:namedview
     id="namedview7"
     pagecolor="#ffffff"
     bordercolor="#666666"
     borderopacity="1.0"
     inkscape:pageshadow="2"
     inkscape:pageopacity="0.0"
     inkscape:pagecheckerboard="0"
     inkscape:document-units="px"
     showgrid="false"
     units="px"
     height="48px"
     inkscape:zoom="1"
     inkscape:cx="14"
     inkscape:cy="41.5"
     inkscape:window-width="1920"
     inkscape:window-height="1019"
     inkscape:window-x="0"
     inkscape:window-y="0"
     inkscape:window-maximized="1"
     inkscape:current-layer="svg5"
     inkscape:lockguides="true" />
  <defs
     id="defs2">
    <linearGradient
       inkscape:collect="always"
       id="linearGradient2129">
      <stop
         style="stop-color:#3b90f9;stop-opacity:1;"
         offset="0"
         id="stop2125" />
      <stop
         style="stop-color:#45e1f9;stop-opacity:1"
         offset="1"
         id="stop2127" />
    </linearGradient>
    <linearGradient
       inkscape:collect="always"
       xlink:href="#linearGradient37218"
       id="linearGradient1781"
       x1="2.8346456e-08"
       y1="2.2677165e-07"
       x2="64"
       y2="64"
       gradientUnits="userSpaceOnUse"
       gradientTransform="scale(0.26458333)" />
    <linearGradient
       inkscape:collect="always"
       id="linearGradient37218">
      <stop
         style="stop-color:#ffffff;stop-opacity:1"
         offset="0"
         id="stop37214" />
      <stop
         style="stop-color:#717171;stop-opacity:0.00392157"
         offset="0.49741825"
         id="stop37220" />
      <stop
         style="stop-color:#000000;stop-opacity:1"
         offset="1"
         id="stop37216" />
    </linearGradient>
    <radialGradient
       xlink:href="#linearGradient4417-0"
       id="radialGradient18834"
       gradientUnits="userSpaceOnUse"
       gradientTransform="matrix(-0.05650644,0,0,0.05350268,23.657468,2.2906603)"
       cx="336.22372"
       cy="220.53755"
       fx="336.22372"
       fy="220.53755"
       r="27.391165" />
    <linearGradient
       id="linearGradient4417-0">
      <stop
         id="stop4419-4-4"
         offset="0"
         style="stop-color:#000000" />
      <stop
         id="stop4421-2-0"
         offset="1"
         style="stop-color:#000000;stop-opacity:0.24886878" />
    </linearGradient>
    <radialGradient
       xlink:href="#linearGradient4417-0"
       id="radialGradient18836"
       gradientUnits="userSpaceOnUse"
       gradientTransform="matrix(0.07008857,0,0,0.05350268,-11.968541,2.2906606)"
       cx="312.14502"
       cy="236.36569"
       fx="312.14502"
       fy="236.36569"
       r="27.391165" />
    <radialGradient
       xlink:href="#linearGradient4417-0"
       id="radialGradient18838"
       gradientUnits="userSpaceOnUse"
       gradientTransform="matrix(0.07008857,0,0,0.07494114,-11.968542,-2.2707203)"
       cx="275.55389"
       cy="225.13487"
       fx="275.55389"
       fy="225.13487"
       r="10.84542" />
    <filter
       id="filter15211-9"
       x="-0.43230507"
       width="1.8646101"
       y="-0.28956677"
       height="1.5791335">
      <feGaussianBlur
         stdDeviation="0.85991809"
         id="feGaussianBlur15213-7" />
    </filter>
    <clipPath
       clipPathUnits="userSpaceOnUse"
       id="clipPath820">
      <path
         id="path822"
         d="m -47.29567,161.44377 c -1.0464,1.42368 -1.72773,3.13456 -2.13927,4.9003 -0.41153,1.76572 -0.56228,3.59134 -0.62653,5.41138 -0.12849,3.64009 0.0765,7.35002 -0.81096,10.86307 -0.94874,3.75581 -3.07595,7.0095 -5.15761,10.18119 -3.60485,5.49248 -7.248548,11.12804 -9.027058,17.58991 -1.077103,3.91343 -1.435613,8.0583 -1.04841,12.12101 -4.035298,6.43379 -7.528852,13.26788 -10.4229,20.38928 -4.386197,10.79315 -7.396115,22.28463 -8.454552,34.02546 -1.296051,14.37658 0.397579,29.16259 5.627472,42.44522 3.781309,9.60359 9.417708,18.39505 16.68566,25.23771 3.695408,3.47916 7.799668,6.44816 12.189498,8.79061 15.21252,8.11756 34.01348,8.13263 48.97296,-0.52145 7.81838,-4.52294 14.41789,-11.13683 20.78084,-17.82891 3.83183,-4.03004 7.64353,-8.15595 10.56653,-13.00123 5.62746,-9.32831 7.58747,-20.66609 8.80544,-31.73832 2.12971,-19.36065 2.1984,-39.81082 -5.62137,-57.36383 -2.69219,-6.04314 -6.27896,-11.61528 -10.58065,-16.43732 -1.14547,-8.44732 -3.40638,-16.71541 -6.69212,-24.47292 -2.37045,-5.59655 -5.2683,-10.92368 -7.47079,-16.60053 -0.90422,-2.33059 -1.68995,-4.71701 -2.69346,-6.99919 -1.00352,-2.28218 -2.24145,-4.47829 -3.92446,-6.22665 -1.72343,-1.79035 -3.87096,-3.05963 -6.13593,-3.87177 -2.26498,-0.81213 -4.64917,-1.18007 -7.03147,-1.31016 -4.7646,-0.26019 -9.53872,0.41632 -14.30559,0.21086 -3.79476,-0.16356 -7.57776,-0.88552 -11.36892,-0.64255 -1.89557,0.12148 -3.79087,0.48917 -5.55026,1.26467 -1.7594,0.77551 -3.38173,1.97277 -4.56609,3.58416"
         style="fill:#fdfdfb;stroke-width:1.04195" />
    </clipPath>
    <filter
       id="filter30475-4"
       x="-0.036516685"
       y="-0.074027545"
       width="1.0730334"
       height="1.1480551">
      <feGaussianBlur
         id="feGaussianBlur30477-9"
         stdDeviation="0.93152507" />
    </filter>
    <radialGradient
       xlink:href="#linearGradient28799-3"
       id="radialGradient18806"
       gradientUnits="userSpaceOnUse"
       gradientTransform="matrix(0.05713918,-0.00240487,0.00207542,0.08746974,-6.3220261,-3.0895192)"
       cx="223.19559"
       cy="137.66095"
       fx="223.19559"
       fy="137.66095"
       r="14.572236" />
    <linearGradient
       id="linearGradient28799-3">
      <stop
         id="stop28801-6"
         offset="0"
         style="stop-color:#fefefc" />
      <stop
         style="stop-color:#fefefc"
         offset="0.75733864"
         id="stop28807-7" />
      <stop
         id="stop28803-0"
         offset="1"
         style="stop-color:#d4d4d4" />
    </linearGradient>
    <radialGradient
       xlink:href="#linearGradient28799-3"
       id="radialGradient18808"
       gradientUnits="userSpaceOnUse"
       gradientTransform="matrix(0.07610072,-0.00240487,0.00276414,0.08746974,-8.0815643,-3.0895192)"
       cx="223.19559"
       cy="137.66095"
       fx="223.19559"
       fy="137.66095"
       r="14.572236" />
    <radialGradient
       xlink:href="#linearGradient28853-5"
       id="radialGradient18810"
       gradientUnits="userSpaceOnUse"
       gradientTransform="matrix(0.048911,-0.03554706,0.03226465,0.04439455,-10.71409,12.229932)"
       cx="275.53763"
       cy="150.65126"
       fx="275.53763"
       fy="150.65126"
       r="15.382211" />
    <linearGradient
       id="linearGradient28853-5">
      <stop
         id="stop28855-3"
         offset="0"
         style="stop-color:#020204" />
      <stop
         style="stop-color:#020204"
         offset="0.73448181"
         id="stop28865-0" />
      <stop
         id="stop28857-9"
         offset="1"
         style="stop-color:#5c5c5c" />
    </linearGradient>
    <radialGradient
       xlink:href="#linearGradient28469-0"
       id="radialGradient18822"
       gradientUnits="userSpaceOnUse"
       gradientTransform="matrix(0.06561599,-0.02708251,0.01901725,0.04607533,-14.384864,9.0544149)"
       cx="294.48483"
       cy="193.09949"
       fx="294.48483"
       fy="193.09949"
       r="31.111488" />
    <linearGradient
       id="linearGradient28469-0">
      <stop
         style="stop-color:#d2940a"
         offset="0"
         id="stop28479-4" />
      <stop
         style="stop-color:#d89c08"
         offset="0.75143719"
         id="stop28477-2" />
      <stop
         id="stop28485-7"
         offset="0.86579126"
         style="stop-color:#b67e07" />
      <stop
         id="stop28473-1"
         offset="1"
         style="stop-color:#946106" />
    </linearGradient>
    <filter
       height="1.4414386"
       y="-0.22071932"
       width="1.3104809"
       x="-0.15524045"
       id="filter28502-8">
      <feGaussianBlur
         id="feGaussianBlur28504-3"
         stdDeviation="0.89858666" />
    </filter>
    <linearGradient
       xlink:href="#linearGradient28275-8"
       id="linearGradient18824"
       gradientUnits="userSpaceOnUse"
       gradientTransform="matrix(0.07008857,0,0,0.07008857,-11.968541,-1.2291831)"
       x1="256.85657"
       y1="158.31404"
       x2="313.3367"
       y2="157.8721" />
    <linearGradient
       id="linearGradient28275-8">
      <stop
         id="stop28277-1"
         offset="0"
         style="stop-color:#ad780a" />
      <stop
         style="stop-color:#d89e08"
         offset="0.11972899"
         id="stop28291-9" />
      <stop
         style="stop-color:#edb80b"
         offset="0.25514477"
         id="stop28289-6" />
      <stop
         style="stop-color:#ebc80d"
         offset="0.39194193"
         id="stop28287-6" />
      <stop
         style="stop-color:#f5d838"
         offset="0.52741116"
         id="stop28285-7" />
      <stop
         style="stop-color:#f6d811"
         offset="0.76906693"
         id="stop28283-7" />
      <stop
         id="stop28279-5"
         offset="1"
         style="stop-color:#f5cd31" />
    </linearGradient>
    <radialGradient
       xlink:href="#linearGradient29529-6"
       id="radialGradient18826"
       gradientUnits="userSpaceOnUse"
       gradientTransform="matrix(1.0000004,0,0,0.5833264,59.999805,3.054009)"
       cx="77.67215"
       cy="147.09335"
       fx="77.67215"
       fy="147.09335"
       r="3.2300935" />
    <linearGradient
       id="linearGradient29529-6">
      <stop
         id="stop29531-0"
         offset="0"
         style="stop-color:#3a2903" />
      <stop
         style="stop-color:#735208"
         offset="0.55472803"
         id="stop29539-7" />
      <stop
         id="stop29533-8"
         offset="1"
         style="stop-color:#ac8c04" />
    </linearGradient>
    <filter
       id="filter15177-1"
       x="-0.046765498"
       y="-0.089099448"
       width="1.093531"
       height="1.1781989">
      <feGaussianBlur
         stdDeviation="0.11039302"
         id="feGaussianBlur15179-3" />
    </filter>
    <radialGradient
       xlink:href="#linearGradient29529-6"
       id="radialGradient18828"
       gradientUnits="userSpaceOnUse"
       gradientTransform="matrix(1,0,0,1.0751189,59.99984,-69.456344)"
       cx="63.125401"
       cy="147.44128"
       fx="63.125401"
       fy="147.44128"
       r="1.5350333" />
    <filter
       id="filter15173-0"
       x="-0.11644643"
       width="1.2328929"
       y="-0.10572958"
       height="1.2114592">
      <feGaussianBlur
         stdDeviation="0.11039302"
         id="feGaussianBlur15175-4" />
    </filter>
    <linearGradient
       xlink:href="#linearGradient28572-7"
       id="linearGradient18830"
       gradientUnits="userSpaceOnUse"
       x1="243.03125"
       y1="157.01843"
       x2="243.46875"
       y2="159.76843" />
    <linearGradient
       id="linearGradient28572-7">
      <stop
         id="stop28574-5"
         offset="0"
         style="stop-color:#f5ce2d" />
      <stop
         id="stop28576-0"
         offset="1"
         style="stop-color:#d79b08" />
    </linearGradient>
    <clipPath
       clipPathUnits="userSpaceOnUse"
       id="clipPath697">
      <path
         style="fill:url(#radialGradient701);stroke-width:0.77538"
         d="m 214.63605,148.03815 c -2.51029,-0.0409 -4.99135,0.28921 -7.27146,0.88384 -4.05254,1.05688 -7.57367,2.93934 -10.08468,5.39315 -1.62814,0.85539 -3.05003,1.89919 -4.20722,3.08639 -0.66186,0.67901 -1.24391,1.41694 -1.50131,2.24757 -0.20244,0.65333 -0.19857,1.34469 -0.28524,2.01986 -0.0324,0.25293 -0.0778,0.5073 -0.0362,0.76548 0.0208,0.12909 0.0631,0.25809 0.13756,0.38081 0.0221,0.0364 0.0528,0.0707 0.0806,0.1055 0.0825,0.15031 0.18297,0.29681 0.31473,0.43099 0.28806,0.29334 0.68023,0.53107 1.09417,0.73203 0.41394,0.20097 0.85255,0.36757 1.2815,0.54936 2.28006,0.96628 4.22773,2.32456 5.9925,3.75924 2.3677,1.92485 4.52941,4.06099 7.5099,5.46004 2.10465,0.98794 4.52773,1.552 6.92602,1.72396 2.81637,0.20193 5.58521,-0.12293 8.18167,-0.69344 2.40631,-0.52873 4.69673,-1.27132 6.75202,-2.25401 3.90702,-1.86802 6.98699,-4.60634 11.42445,-5.83442 0.96876,-0.2681 1.99041,-0.45921 2.91317,-0.78993 0.92276,-0.33072 1.76305,-0.8265 2.11948,-1.52711 0.34261,-0.67347 0.2049,-1.45031 0.23569,-2.18968 0.0329,-0.791 0.26357,-1.5559 0.33312,-2.34278 0.0695,-0.78687 -0.0382,-1.6289 -0.62199,-2.35178 -0.12955,-0.16043 -0.28324,-0.31001 -0.45163,-0.45157 -0.0509,-0.29235 -0.22134,-0.58029 -0.46622,-0.83239 -0.50487,-0.51975 -1.29334,-0.87172 -2.09515,-1.11671 -1.09824,-0.33555 -2.25599,-0.50211 -3.39891,-0.69601 -3.51093,-0.59565 -6.96955,-1.47539 -10.29467,-2.60394 -1.65302,-0.56104 -3.27073,-1.18327 -4.90416,-1.77928 -1.67927,-0.61273 -3.38672,-1.20103 -5.16515,-1.57729 -1.49109,-0.31546 -3.00643,-0.47332 -4.51259,-0.49788 z"
         id="path699" />
    </clipPath>
    <filter
       height="1.2722148"
       y="-0.13610738"
       width="1.2429944"
       x="-0.12149719"
       id="filter28584-4">
      <feGaussianBlur
         id="feGaussianBlur28586-3"
         stdDeviation="0.2640625" />
    </filter>
    <linearGradient
       inkscape:collect="always"
       xlink:href="#linearGradient2129"
       id="linearGradient2131"
       x1="8.4666662"
       y1="17.4625"
       x2="8.4666672"
       y2="6.7529299e-07"
       gradientUnits="userSpaceOnUse" />
  </defs>
  <path
     id="rect863"
     style="fill:url(#linearGradient2131);stroke-width:0.264583;fill-opacity:1"
     d="M 3.1750003,1.0583333 H 13.758333 c 1.172634,0 2.116667,0.944034 2.116667,2.116667 V 13.758333 c 0,1.172634 -0.944033,2.116667 -2.116667,2.116667 H 3.1750003 c -1.172633,0 -2.116667,-0.944033 -2.116667,-2.116667 V 3.1750003 c 0,-1.172633 0.944034,-2.116667 2.116667,-2.116667 z" />
  <path
     id="path28712-2"
     style="fill:#020204;stroke-width:0.0700887"
     d="M 8.4139567,4.2333333 C 7.9115654,4.2278696 7.4030994,4.3298432 6.9608156,4.5681966 6.4907576,4.8215182 6.1056293,5.2267082 5.8683759,5.705078 5.631233,6.1832243 5.5383084,6.6939675 5.5242107,7.2564044 c -0.026786,1.0686288 0.023767,2.1892665 0.1043865,3.2049716 0.021405,0.309272 0.059971,0.49031 0.020669,0.807703 -0.1322231,0.674943 -0.7228615,1.129529 -1.0376625,1.722375 -0.3472683,0.653989 -0.4933923,1.393137 -0.7555095,2.085661 -0.1025748,0.271009 -0.2233203,0.53479 -0.3451976,0.797884 H 13.758333 c 0.146579,0 0.289842,-0.01479 0.427881,-0.04289 -0.149579,-0.98373 -0.465326,-1.938012 -0.877466,-2.844272 -0.54653,-1.201204 -1.005965,-1.635451 -1.338937,-2.690275 C 11.609927,9.1574828 11.907067,7.8083062 11.639599,6.7742635 11.544153,6.4226082 11.392001,6.0868022 11.196215,5.7794921 10.966812,5.419414 10.675856,5.0967123 10.330118,4.8462157 9.7784757,4.4465337 9.0951328,4.2407408 8.4139567,4.2333333 Z" />
  <path
     id="path29719-5"
     style="fill:#fdfdfb;stroke-width:0.0700887"
     d="m 7.3525227,9.9378946 c -0.066379,-0.00233 -0.1330417,-0.00238 -0.1994709,0.00156 -0.1328574,0.00784 -0.2658102,0.031583 -0.3891235,0.081649 -0.1233138,0.05007 -0.2368672,0.126964 -0.319877,0.230994 -0.07334,0.09191 -0.1210175,0.202782 -0.1498619,0.316776 -0.028844,0.113994 -0.039421,0.231833 -0.043925,0.349333 -0.00901,0.235001 0.00536,0.47445 -0.056844,0.701249 -0.066496,0.24247 -0.2158344,0.452563 -0.3617349,0.657323 -0.2526586,0.35459 -0.5078661,0.71816 -0.6325195,1.135331 -0.075493,0.252648 -0.1005192,0.520614 -0.073381,0.782898 -0.2828285,0.415359 -0.5278652,0.856448 -0.7307048,1.316199 -0.052924,0.119955 -0.1018278,0.241322 -0.1488282,0.363802 h 8.16901 c -0.07583,-0.346574 -0.185727,-0.684414 -0.341581,-1.006657 -0.188692,-0.39014 -0.440057,-0.74961 -0.741557,-1.060917 C 11.251844,13.262086 11.093195,12.727987 10.862903,12.22717 10.696761,11.865862 10.49379,11.521893 10.33942,11.155401 10.27604,11.00494 10.220619,10.851084 10.150284,10.703749 10.079944,10.556414 9.9933259,10.414579 9.8753658,10.301706 9.754574,10.186124 9.6041668,10.104024 9.4454184,10.051593 9.2866692,9.9991635 9.1193978,9.9757595 8.9524253,9.9673615 c -0.3339438,-0.016799 -0.6684197,0.0267 -1.0025229,0.01343 -0.199477,-0.0079 -0.3982408,-0.035904 -0.5973797,-0.042891 z" />
  <path
     id="path4400-1"
     d="m 5.2674182,13.601073 c 0.071199,0.106806 -0.044284,0.475081 1.6151429,0.239373 0,0 -0.2914162,0.03205 -0.5786877,0.09842 -0.4466903,0.149527 -0.8357506,0.316594 -1.1359011,0.537947 -0.2973634,0.218793 -0.5151185,0.504423 -0.7879786,0.74974 0,0 0.4418733,-0.807329 0.5520299,-1.050446 0.1101559,-0.243118 -0.018442,-0.231993 0.068682,-0.589697 0.087123,-0.357705 0.300432,-0.701376 0.300432,-0.701376 0,0 -0.1741376,0.5054 -0.033719,0.716041 z"
     style="opacity:0.1;fill:url(#radialGradient18834);stroke-width:0.0753021" />
  <path
     id="path4400-2-8"
     d="m 10.603489,13.504701 c -0.338184,0.235595 -0.536346,0.207701 -0.9466753,0.253782 -0.4103294,0.04608 -1.5208085,0.0294 -1.5208085,0.0294 0,0 0.1607629,-0.003 0.5170848,0.06337 0.3563218,0.06637 1.0830835,0.129827 1.492309,0.285589 0.409225,0.155762 0.558497,0.200215 0.807226,0.357491 0.354022,0.223854 0.613847,0.574511 0.952293,0.819829 0,0 0.01638,-0.32547 -0.120249,-0.568588 -0.136635,-0.243117 -0.503963,-0.62624 -0.612028,-0.983945 -0.108065,-0.357704 -0.159402,-1.060579 -0.159402,-1.060579 0,0 -0.07157,0.568057 -0.40975,0.803651 z"
     style="opacity:0.1;fill:url(#radialGradient18836);stroke-width:0.0700886" />
  <path
     id="path4491-9"
     d="m 7.4228568,13.001608 c -0.012572,0.102045 -0.028869,0.203631 -0.048848,0.304487 -0.00985,0.04972 -0.020669,0.09952 -0.039183,0.146699 -0.018513,0.04718 -0.04515,0.09197 -0.082792,0.125907 -0.032991,0.02975 -0.0732,0.05018 -0.1135919,0.06867 -0.157578,0.07213 -0.3262202,0.120034 -0.4981881,0.141508 0.068682,0.005 0.1372726,0.0113 0.2057296,0.0188 0.043128,0.0047 0.086354,0.01 0.1283805,0.02074 0.042026,0.01078 0.083035,0.0273 0.1180446,0.05293 0.038395,0.02811 0.068546,0.06647 0.091067,0.108382 0.044873,0.08352 0.05988,0.179624 0.068177,0.274068 0.010611,0.120788 0.011385,0.242439 0.00231,0.363353 0.00812,-0.0809 0.025074,-0.160916 0.050464,-0.238159 0.045758,-0.139205 0.1194438,-0.269693 0.2186598,-0.377526 0.039369,-0.04279 0.082731,-0.08203 0.1302778,-0.115499 0.1456588,-0.102535 0.3306807,-0.147571 0.5071693,-0.123449 -0.1793545,0.0079 -0.3608832,-0.04842 -0.5042305,-0.156509 -0.073005,-0.05505 -0.1365851,-0.123557 -0.1808116,-0.203581 -0.068392,-0.12375 -0.087619,-0.273819 -0.052634,-0.410813"
     style="opacity:0.1;fill:url(#radialGradient18838);stroke-width:0.0700886" />
  <path
     id="path28767-9-3"
     d="m 351.9604,200.85653 c -1.45162,0.38883 -1.23008,3.99417 -0.29604,5.49789 0.78886,1.26999 3.07235,2.27109 3.75853,1.00504 1.11412,-2.05562 -1.47192,-7.03613 -3.46249,-6.50293 z"
     style="opacity:0.25;fill:#7c7c7c;filter:url(#filter15211-9)"
     transform="matrix(-0.00490054,0.0670754,-0.03956552,-0.00830788,15.125438,-9.7811863)" />
  <path
     clip-path="url(#clipPath820)"
     style="opacity:0.3;fill:#000000;filter:url(#filter30475-4)"
     id="path28461-84-3"
     d="m -54.3809,165.4735 c 3.308481,2.21892 6.276719,4.94413 8.76949,8.0515 2.313244,2.88358 4.281072,6.1543 7.29931,8.28886 2.132561,1.50819 4.694875,2.3578 7.29406,2.61606 3.051509,0.3032 6.139761,-0.18685 9.08171,-1.05205 2.72664,-0.80188 5.363225,-1.92931 7.78216,-3.4214 4.5982326,-2.83636 8.4392136,-6.99279 13.51002,-8.85709 1.1070251,-0.407 2.2592345,-0.69817 3.3265087,-1.20024 1.0672741,-0.50208 2.071356,-1.25404 2.5810913,-2.31768 0.489979,-1.02241 0.4709637,-2.20249 0.63053,-3.32496 0.1707072,-1.20085 0.5537633,-2.36184 0.7638732,-3.55642 0.2101099,-1.19458 0.2351735,-2.47234 -0.2814032,-3.56975 -0.4277722,-0.90876 -1.2053869,-1.6278 -2.0998754,-2.08466 -0.8944886,-0.45686 -1.9010816,-0.6644 -2.9042801,-0.71362 -2.00639693,-0.0985 -3.9875479,0.41519 -5.9880545,0.59766 -2.649555,0.24167 -5.3179008,-0.0991 -7.97725,-0.019 -3.308278,0.0996 -6.568191,0.84884 -9.87428,1.00503 -3.771652,0.17818 -7.534056,-0.41751 -11.30754,-0.55139 -1.632251,-0.0579 -3.2754,-0.0286 -4.884302,0.25254 -1.608902,0.28112 -3.188197,0.82168 -4.548518,1.72563 -1.319979,0.87714 -2.396737,2.06728 -3.606567,3.09101 -0.604916,0.51187 -1.247757,0.98508 -1.953748,1.34495 -0.705991,0.35987 -1.478799,0.60451 -2.270305,0.64257 -0.40728,0.0196 -0.818345,-0.0152 -1.2213,0.0472 -0.676172,0.10463 -1.303709,0.49355 -1.698284,1.05254 -0.394576,0.55899 -0.550896,1.28053 -0.423046,1.9527 v 1e-5"
     transform="matrix(0.07008857,0,0,0.064559,9.7589158,-0.1703195)" />
  <path
     id="path29705-5-0"
     style="fill:#020204;stroke-width:0.0700887"
     d="m 11.908834,11.378633 c -0.06245,3.17e-4 -0.124752,0.0084 -0.185002,0.02532 -0.211769,0.0596 -0.384938,0.226511 -0.476974,0.42633 -0.09204,0.199819 -0.108154,0.428893 -0.07235,0.645956 0.04619,0.280029 0.174454,0.540109 0.318844,0.784448 0.163073,0.275956 0.352124,0.541575 0.598413,0.746724 0.257025,0.214092 0.567725,0.355157 0.828373,0.564824 0.40024,0.321954 0.661105,0.798331 0.761194,1.302762 h 0.077 c 0.478638,0 0.917426,-0.159386 1.27124,-0.425297 -0.06027,-0.178582 -0.124571,-0.355988 -0.193789,-0.531233 -0.180348,-0.456603 -0.411386,-0.89316 -0.686263,-1.298112 -0.269675,-0.397289 -0.652136,-0.70711 -0.934827,-1.09554 -0.09821,-0.134954 -0.216148,-0.275409 -0.312642,-0.411862 -0.208054,-0.294211 -0.161353,-0.239514 -0.290421,-0.429948 -0.09364,-0.138165 -0.241291,-0.185545 -0.396875,-0.24598 -0.09724,-0.03777 -0.201837,-0.05891 -0.305924,-0.05839 z" />
  <path
     id="path14967-1-0"
     style="fill:#020204;stroke-width:0.0700887"
     d="m 5.4963056,11.702644 c -0.098553,0.186833 -0.4159618,0.493858 -0.6102988,0.73794 -0.4957426,0.563291 -1.0058077,1.10874 -1.2857097,1.717724 -0.1385124,0.309322 -0.2042922,0.645128 -0.2992065,0.970484 -0.073475,0.251864 -0.1659235,0.497491 -0.2687175,0.738972 0.047343,0.0031 0.094463,0.0072 0.142627,0.0072 h 0.4330485 c 0.034885,-0.07574 0.070419,-0.15093 0.1059366,-0.226343 0.1514843,-0.321605 0.2948295,-0.649609 0.4940268,-0.944093 0.2479718,-0.366589 0.5792137,-0.67701 0.7813477,-1.070735 0.1706118,-0.332325 0.2399075,-0.705639 0.3059245,-1.07332 0.05165,-0.287667 0.1506402,-0.569936 0.2010214,-0.857829 z" />
  <path
     id="path28795-9-5"
     d="M 6.5511329,7.347007 C 6.4263075,7.353807 6.3069013,7.411418 6.2155592,7.4967654 6.1242172,7.5821134 6.0598665,7.6938377 6.0202798,7.8124141 5.9411068,8.0495679 5.9589188,8.3066627 5.9769158,8.5560349 5.9932118,8.7818337 6.0098858,9.0119842 6.0944392,9.2219871 6.1367162,9.3269889 6.196085,9.4259594 6.2752914,9.5068235 6.3544984,9.5876875 6.4541392,9.6499366 6.563937,9.677452 6.6668859,9.703251 6.7768774,9.697907 6.8781289,9.666091 6.9793809,9.6342762 7.0718482,9.5764566 7.1477064,9.5022301 7.258379,9.3939382 7.332969,9.2522803 7.375736,9.1034633 7.4185029,8.9546455 7.4306965,8.7984694 7.4284706,8.643645 7.4256845,8.4498957 7.4003716,8.2554589 7.3397558,8.0714148 7.27914,7.8873706 7.1823549,7.7137338 7.0472904,7.5747945 6.9818764,7.507503 6.90727,7.4482755 6.8231063,7.4067592 6.7389426,7.3652437 6.6448404,7.3419027 6.5511329,7.3470065"
     style="fill:url(#radialGradient18806);stroke-width:0.0700887" />
  <path
     style="fill:#020204;stroke-width:0.0700887"
     id="path29453-9"
     d="m 6.2502048,8.3807735 c -0.02608,0.1574007 -0.027028,0.3225467 0.027082,0.4726379 0.03573,0.099108 0.094648,0.1890234 0.1662626,0.266291 0.046891,0.050593 0.1001033,0.096567 0.1623084,0.1263824 0.062205,0.029815 0.1342742,0.0425 0.2011786,0.025702 0.061757,-0.015505 0.1157555,-0.055271 0.1556059,-0.1049333 0.039849,-0.049663 0.066416,-0.108844 0.085347,-0.1696381 C 7.1038779,8.8177358 7.0948966,8.6214248 7.0394087,8.4418208 6.9989815,8.3109645 6.9320273,8.18474 6.8272759,8.0965084 6.7772977,8.0544124 6.7187975,8.0214331 6.6552232,8.0063296 6.5916478,7.9912246 6.5228439,7.9947621 6.4633529,8.0217945 c -0.066045,0.03001 -0.1171594,0.087123 -0.1506252,0.1514854 -0.033467,0.064362 -0.050666,0.1359268 -0.062524,0.2074944" />
  <path
     id="path28795-3"
     d="M 8.7601534,7.347007 C 8.5652775,7.4808923 8.401961,7.6676532 8.3221,7.8901934 8.2214506,8.1706621 8.260013,8.4845944 8.357144,8.7663005 c 0.09949,0.2885464 0.2659012,0.5635808 0.5172059,0.736795 0.1256525,0.086606 0.271109,0.1459953 0.4226624,0.1639083 0.151553,0.017912 0.3090397,-0.00665 0.4443809,-0.077163 0.1649267,-0.085925 0.2907138,-0.2363928 0.3688178,-0.4051647 0.0781,-0.1687719 0.111357,-0.355356 0.121802,-0.5410306 0.01331,-0.2365811 -0.0098,-0.4770548 -0.08761,-0.7008854 C 10.059927,7.6996164 9.9067988,7.4752307 9.6907366,7.3353304 9.5827057,7.2653799 9.4600089,7.2173321 9.3325223,7.1996984 9.2050355,7.1820666 9.0728605,7.1952614 8.9528971,7.2418743 8.8845277,7.2684385 8.8206091,7.3054725 8.7601534,7.347007"
     style="fill:url(#radialGradient18808);stroke-width:0.0700887" />
  <path
     style="fill:#020204;stroke-width:0.0700887"
     id="path28879-6"
     d="m 9.2095284,7.9353843 c -0.073276,0.00525 -0.1446888,0.030264 -0.2068558,0.069407 -0.062168,0.039143 -0.1151744,0.092181 -0.1567889,0.1527223 -0.083229,0.1210831 -0.1197771,0.2696133 -0.1256689,0.4164237 -0.00442,0.1102 0.00778,0.2218386 0.044328,0.3258955 0.036549,0.1040572 0.098186,0.2003671 0.1831248,0.270718 0.086917,0.07199 0.1974024,0.1152003 0.3101313,0.1206182 0.1127292,0.00542 0.2270506,-0.0271 0.3196775,-0.091578 C 9.6512704,9.148222 9.7107913,9.0775196 9.753164,8.9982166 9.795536,8.9189126 9.821065,8.8311618 9.832736,8.7420084 9.85335,8.584535 9.830036,8.4200951 9.757256,8.2789367 9.6844753,8.1377778 9.560972,8.0215233 9.4119478,7.9666181 9.3474011,7.9428373 9.2781409,7.9304691 9.2095284,7.9353843" />
  <path
     style="fill:url(#radialGradient18810);stroke-width:0.0700887"
     d="M 7.1376467,8.9940885 C 7.2615188,8.8548492 7.3462436,8.6849608 7.4652506,8.5415412 7.5247536,8.4698312 7.5934021,8.404495 7.6742323,8.3581329 c 0.08083,-0.046362 0.1746591,-0.072969 0.2674942,-0.06493 0.103345,0.00895 0.2000708,0.060436 0.2757337,0.1313963 0.075663,0.07096 0.1317503,0.1605219 0.1765281,0.2540908 0.042876,0.089595 0.076941,0.1850527 0.1387137,0.262832 0.065906,0.082984 0.1583671,0.1396291 0.2418821,0.2048605 0.041758,0.032616 0.081827,0.067924 0.1148331,0.1093732 0.033006,0.04145 0.058847,0.08943 0.069457,0.141342 0.010774,0.052717 0.00541,0.1082911 -0.012978,0.158858 -0.018386,0.050567 -0.049532,0.096143 -0.088286,0.133469 C 8.7801027,9.7640758 8.6744287,9.8043395 8.5678781,9.819415 8.3547763,9.8495642 8.13931,9.7860648 7.9241675,9.7919808 7.7064101,9.7979657 7.4937147,9.874942 7.2760203,9.8669807 7.1671734,9.8629987 7.0567789,9.8364052 6.9673328,9.7742527 6.9226095,9.7431761 6.8836464,9.7034248 6.8554831,9.6568124 6.8273198,9.6101999 6.8101579,9.5566599 6.8083233,9.5022306 6.806577,9.4503006 6.8187002,9.3984377 6.8394478,9.3508008 6.8601964,9.3031637 6.8893985,9.259563 6.922301,9.2193482 6.988106,9.1389196 7.0685754,9.0717297 7.1376477,8.9940885"
     id="path28849-2" />
  <path
     d="m 5.9567287,10.337642 c 0.00431,0.0207 0.012091,0.04068 0.022926,0.05884 0.018621,0.03121 0.045833,0.05651 0.075223,0.0779 0.02939,0.02138 0.061173,0.03921 0.091944,0.05856 0.163562,0.102817 0.2968506,0.247346 0.4152561,0.400002 0.1588588,0.204811 0.2994123,0.43209 0.5115984,0.580954 0.149834,0.10512 0.3291157,0.16506 0.5112302,0.183356 0.2138625,0.02149 0.430335,-0.01303 0.636524,-0.07374 0.1910886,-0.05626 0.3758921,-0.13524 0.5454405,-0.239801 0.3223027,-0.198765 0.5914948,-0.490109 0.946898,-0.620781 0.07759,-0.02853 0.1583454,-0.04894 0.2331495,-0.08412 0.0748,-0.03519 0.1451786,-0.08789 0.1809056,-0.162442 0.03434,-0.07166 0.03301,-0.154369 0.04419,-0.233041 0.01196,-0.08417 0.03881,-0.165539 0.05354,-0.249265 0.01473,-0.083725 0.01648,-0.1732817 -0.01972,-0.2501982 -0.02998,-0.063695 -0.08448,-0.1140944 -0.147174,-0.1461172 -0.06269,-0.032023 -0.1332439,-0.046572 -0.2035574,-0.050023 -0.1406269,-0.0069 -0.2794839,0.0291 -0.4196967,0.041902 -0.185702,0.016957 -0.3727222,-0.00688 -0.559114,-0.00132 -0.2318737,0.00691 -0.46037,0.059202 -0.6920741,0.070441 -0.2643424,0.01281 -0.5280973,-0.027943 -0.7925314,-0.038658 -0.1145294,-0.00464 -0.2298878,-0.00359 -0.3428606,0.015793 -0.1129726,0.019383 -0.2239494,0.057727 -0.3182723,0.1228556 -0.091917,0.063467 -0.1651228,0.1500047 -0.2495286,0.2231649 -0.042203,0.03658 -0.087575,0.07004 -0.1378132,0.09444 -0.050238,0.0244 -0.1056577,0.03953 -0.1614951,0.03834 -0.028708,-6.35e-4 -0.058234,-0.0054 -0.085599,0.0033 -0.017095,0.0054 -0.032274,0.01591 -0.045104,0.02845 -0.01283,0.01254 -0.023466,0.02713 -0.033488,0.042 -0.023307,0.03459 -0.04367,0.07117 -0.060796,0.109203"
     id="path28461-2"
     style="fill:url(#radialGradient18822);stroke-width:0.0700887" />
  <path
     d="m 60.55673,169.09742 c -0.386462,1.59605 -0.151992,3.33408 0.64359,4.77067 0.795582,1.43659 2.144391,2.5575 3.70231,3.07676 1.977755,0.65919 4.206575,0.33635 6.05477,-0.62813 1.071362,-0.55909 2.051171,-1.34588 2.669379,-2.38425 0.309105,-0.51918 0.523981,-1.09707 0.604518,-1.69591 0.08054,-0.59884 0.02471,-1.2185 -0.184887,-1.78522 -0.229715,-0.62112 -0.640261,-1.16849 -1.146053,-1.59596 -0.505791,-0.42748 -1.104668,-0.7378 -1.733436,-0.94568 -1.257537,-0.41575 -2.610936,-0.42405 -3.933891,-0.36051 -2.005209,0.0963 -4.002918,0.34837 -5.9692,0.75318"
     id="path28487-2"
     style="fill:#d9b30d;filter:url(#filter28502-8)"
     transform="matrix(0.07008857,0,0,0.07008857,2.7500588,-1.2291831)" />
  <path
     id="path27476-7-8"
     d="m 6.5394885,9.7522884 c -0.093846,0.055473 -0.1842337,0.1166057 -0.2731702,0.179649 -0.046028,0.032627 -0.09351,0.067912 -0.1177881,0.1188396 -0.017207,0.03609 -0.021151,0.07703 -0.021698,0.117011 -5.467e-4,0.03998 0.00202,0.08018 -0.00324,0.11982 -0.00359,0.02707 -0.010817,0.0537 -0.012023,0.08098 -6.028e-4,0.01364 3.294e-4,0.02744 0.00393,0.04061 0.0036,0.01317 0.00995,0.02572 0.019308,0.03566 0.012094,0.01284 0.028591,0.02074 0.045463,0.02588 0.016872,0.0051 0.034388,0.0078 0.051559,0.01183 0.08233,0.01935 0.1539788,0.06986 0.2168628,0.126416 0.062884,0.05655 0.1193526,0.120192 0.1849543,0.17357 0.1778326,0.144698 0.4128552,0.204569 0.6420875,0.208342 0.2292324,0.0038 0.4558704,-0.0442 0.6795299,-0.09458 0.1756645,-0.03957 0.3514926,-0.08093 0.5204385,-0.143231 0.2595206,-0.0957 0.5004848,-0.24052 0.7091694,-0.422068 0.094617,-0.08231 0.1834372,-0.172673 0.2896417,-0.23937 0.093984,-0.05902 0.1992354,-0.097979 0.2948158,-0.1543802 0.00855,-0.00505 0.017046,-0.010248 0.02468,-0.016586 0.00763,-0.00634 0.01442,-0.013884 0.018848,-0.022765 0.00765,-0.015345 0.00767,-0.033729 0.00273,-0.05015 -0.00494,-0.01642 -0.014465,-0.031111 -0.025236,-0.044453 -0.011914,-0.014759 -0.025467,-0.028146 -0.039877,-0.04048 C 9.6506416,9.6773869 9.515204,9.6463208 9.3842047,9.6359323 9.2532055,9.6255438 9.1206246,9.6328905 8.9910106,9.6112345 8.8691514,9.5908752 8.7531813,9.5454346 8.6355389,9.5076926 8.5120469,9.4680737 8.3858291,9.4367273 8.2578295,9.4158458 7.9568162,9.3667396 7.646845,9.3761469 7.3482565,9.4383183 7.0638592,9.4975347 6.7895604,9.6044674 6.5394856,9.7522884"
     style="fill:#604405;stroke-width:0.0700886" />
  <path
     id="path27476-4"
     d="M 6.5095682,9.4350786 C 6.3743399,9.5260956 6.2526141,9.6371377 6.149592,9.7634596 6.090669,9.8357096 6.037189,9.9142091 6.007516,10.002591 c -0.023339,0.06952 -0.031293,0.143088 -0.046001,0.214928 -0.00551,0.02691 -0.012012,0.05391 -0.011898,0.08138 5.77e-5,0.01373 0.0018,0.02753 0.00606,0.04059 0.00426,0.01306 0.011097,0.02538 0.020611,0.03528 0.015748,0.01639 0.037876,0.0253 0.060143,0.02988 0.022267,0.0046 0.045123,0.0053 0.06771,0.0078 0.1019532,0.01159 0.1958599,0.06112 0.2803776,0.119302 0.084518,0.05819 0.1624028,0.125839 0.2491253,0.180685 0.1916147,0.121182 0.4201496,0.175102 0.6467004,0.183832 0.2265506,0.0087 0.4525867,-0.02568 0.6749169,-0.07007 0.1766851,-0.03527 0.3528191,-0.07714 0.5204371,-0.143225 0.2566932,-0.1012 0.4880623,-0.25701 0.7091693,-0.422068 0.1004377,-0.07498 0.1994707,-0.152316 0.2896418,-0.239371 0.030606,-0.02955 0.060218,-0.06024 0.093047,-0.087296 0.03283,-0.027056 0.069259,-0.050588 0.1097568,-0.063616 0.061732,-0.01986 0.1286561,-0.014161 0.192617,-0.00347 0.048173,0.00805 0.096442,0.018854 0.1452438,0.016912 0.0244,-9.789e-4 0.04882,-0.0052 0.07149,-0.014277 0.02267,-0.00908 0.04356,-0.023148 0.05911,-0.041985 0.02042,-0.024754 0.03084,-0.057084 0.03095,-0.089174 1.4e-4,-0.032091 -0.0097,-0.063847 -0.02601,-0.091499 -0.03256,-0.05527 -0.08889,-0.092701 -0.147534,-0.1187689 C 9.922849,9.4926569 9.8359278,9.4749981 9.7504751,9.4543662 9.4879729,9.3909871 9.2328884,9.2973286 8.9910114,9.1772463 8.8707678,9.11755 8.7538632,9.0513989 8.6355397,8.9879814 8.5138962,8.9227844 8.3899095,8.8601292 8.2578303,8.820094 7.9625246,8.7305818 7.6397523,8.7599376 7.3482574,8.8611722 7.0244545,8.9736273 6.7316568,9.1739859 6.5095663,9.4350799 v 1.3e-6"
     style="fill:url(#linearGradient18824);stroke-width:0.0700887" />
  <g
     id="g681"
     transform="matrix(0.07008857,0,0,0.07008857,-1.4552441,2.8613388)">
    <path
       style="opacity:0.8;fill:url(#radialGradient18826);filter:url(#filter15177-1)"
       d="m 135.25114,88.527667 c 0.23129,0.7424 1.42778,0.61935 2.11906,0.97542 0.60659,0.31244 1.09447,0.99723 1.77651,1.01692 0.65093,0.0188 1.66398,-0.22542 1.74866,-0.87109 0.11187,-0.85303 -1.13379,-1.39511 -1.93536,-1.70762 -1.03148,-0.40216 -2.35301,-0.6062 -3.3206,-0.0682 -0.22173,0.12328 -0.46373,0.41238 -0.38827,0.65458 z"
       id="path28396-7" />
    <path
       style="opacity:0.8;fill:url(#radialGradient18828);filter:url(#filter15173-0)"
       d="m 123.82694,88.107827 c -0.88816,-0.28854 -2.35748,1.27746 -1.87806,2.07886 0.13167,0.22009 0.53491,0.49916 0.80641,0.34992 0.40925,-0.22497 0.74404,-1.02958 1.18746,-1.34496 0.29608,-0.21058 0.22974,-0.97156 -0.11581,-1.08382 z"
       id="path28398-7" />
  </g>
  <path
     transform="matrix(0.0767906,0,-0.01192757,0.10640366,-6.7991098,-6.9846783)"
     style="fill:url(#linearGradient18830);filter:url(#filter28584-4)"
     d="m 245.90496,158.28406 a 2.608083,2.328125 0 0 1 -2.60809,2.32812 2.608083,2.328125 0 0 1 -2.60808,-2.32812 2.608083,2.328125 0 0 1 2.60808,-2.32813 2.608083,2.328125 0 0 1 2.60809,2.32813 z"
     id="path28570-8"
     clip-path="url(#clipPath697)" />
  <path
     id="rect1345"
     style="opacity:0.3;fill:url(#linearGradient1781);fill-opacity:1;stroke-width:0.264583"
     d="m 3.1750003,1.0583333 c -1.172633,0 -2.116667,0.944034 -2.116667,2.116667 V 13.758333 c 0,1.172634 0.944034,2.116667 2.116667,2.116667 H 13.758334 c 1.172633,0 2.116666,-0.944033 2.116666,-2.116667 V 3.1750003 c 0,-1.172633 -0.944033,-2.116667 -2.116666,-2.116667 z m 0,0.264584 H 13.758334 c 1.026054,0 1.852083,0.826029 1.852083,1.852083 V 13.758333 c 0,1.026054 -0.826029,1.852084 -1.852083,1.852084 H 3.1750003 c -1.026054,0 -1.852083,-0.82603 -1.852083,-1.852084 V 3.1750003 c 0,-1.026054 0.826029,-1.852083 1.852083,-1.852083 z" />
</svg>
