<?xml version="1.0" encoding="UTF-8" standalone="no"?>
<!-- Created with Inkscape (http://www.inkscape.org/) -->

<svg
   width="64"
   height="64"
   viewBox="0 0 16.933333 16.933333"
   version="1.1"
   id="svg5"
   inkscape:version="1.1.1 (3bf5ae0d25, 2021-09-20, custom)"
   sodipodi:docname="swell-foop.svg"
   xmlns:inkscape="http://www.inkscape.org/namespaces/inkscape"
   xmlns:sodipodi="http://sodipodi.sourceforge.net/DTD/sodipodi-0.dtd"
   xmlns:xlink="http://www.w3.org/1999/xlink"
   xmlns="http://www.w3.org/2000/svg"
   xmlns:svg="http://www.w3.org/2000/svg">
  <sodipodi:namedview
     id="namedview7"
     pagecolor="#ffffff"
     bordercolor="#666666"
     borderopacity="1.0"
     inkscape:pageshadow="2"
     inkscape:pageopacity="0.0"
     inkscape:pagecheckerboard="0"
     inkscape:document-units="px"
     showgrid="false"
     units="px"
     height="48px"
     inkscape:zoom="8"
     inkscape:cx="30.375"
     inkscape:cy="32.8125"
     inkscape:window-width="1920"
     inkscape:window-height="1019"
     inkscape:window-x="0"
     inkscape:window-y="0"
     inkscape:window-maximized="1"
     inkscape:current-layer="svg5"
     inkscape:lockguides="true" />
  <defs
     id="defs2">
    <linearGradient
       inkscape:collect="always"
       id="linearGradient14730">
      <stop
         style="stop-color:#15cd2d;stop-opacity:1;"
         offset="0"
         id="stop14726" />
      <stop
         style="stop-color:#15cd67;stop-opacity:1"
         offset="1"
         id="stop14728" />
    </linearGradient>
    <linearGradient
       inkscape:collect="always"
       id="linearGradient14372">
      <stop
         style="stop-color:#15c62b;stop-opacity:1"
         offset="0"
         id="stop14368" />
      <stop
         style="stop-color:#008912;stop-opacity:1"
         offset="1"
         id="stop14370" />
    </linearGradient>
    <linearGradient
       inkscape:collect="always"
       id="linearGradient12586">
      <stop
         style="stop-color:#0065c1;stop-opacity:1;"
         offset="0"
         id="stop12582" />
      <stop
         style="stop-color:#00498c;stop-opacity:1"
         offset="1"
         id="stop12584" />
    </linearGradient>
    <linearGradient
       inkscape:collect="always"
       id="linearGradient11972">
      <stop
         style="stop-color:#098aff;stop-opacity:1;"
         offset="0"
         id="stop11968" />
      <stop
         style="stop-color:#006fca;stop-opacity:1"
         offset="1"
         id="stop11970" />
    </linearGradient>
    <linearGradient
       inkscape:collect="always"
       id="linearGradient1647">
      <stop
         style="stop-color:#333333;stop-opacity:1"
         offset="0"
         id="stop1643" />
      <stop
         style="stop-color:#808080;stop-opacity:1"
         offset="1"
         id="stop1645" />
    </linearGradient>
    <linearGradient
       inkscape:collect="always"
       xlink:href="#linearGradient37218"
       id="linearGradient1781"
       x1="2.8346456e-08"
       y1="2.2677165e-07"
       x2="64"
       y2="64"
       gradientUnits="userSpaceOnUse"
       gradientTransform="scale(0.26458333)" />
    <linearGradient
       inkscape:collect="always"
       id="linearGradient37218">
      <stop
         style="stop-color:#ffffff;stop-opacity:1"
         offset="0"
         id="stop37214" />
      <stop
         style="stop-color:#717171;stop-opacity:0.00392157"
         offset="0.49741825"
         id="stop37220" />
      <stop
         style="stop-color:#000000;stop-opacity:1"
         offset="1"
         id="stop37216" />
    </linearGradient>
    <linearGradient
       inkscape:collect="always"
       xlink:href="#linearGradient1647"
       id="linearGradient1649"
       x1="7.9375"
       y1="16.933334"
       x2="7.9375"
       y2="6.7529299e-07"
       gradientUnits="userSpaceOnUse" />
    <linearGradient
       inkscape:collect="always"
       xlink:href="#linearGradient11972"
       id="linearGradient11974"
       x1="11.377083"
       y1="4.6302085"
       x2="15.875"
       y2="8.8635416"
       gradientUnits="userSpaceOnUse" />
    <linearGradient
       inkscape:collect="always"
       xlink:href="#linearGradient12586"
       id="linearGradient12588"
       x1="33"
       y1="29.5"
       x2="56"
       y2="29.5"
       gradientUnits="userSpaceOnUse" />
    <linearGradient
       inkscape:collect="always"
       xlink:href="#linearGradient11972"
       id="linearGradient13108"
       x1="4.7624998"
       y1="4.630208"
       x2="9.260416"
       y2="8.8635416"
       gradientUnits="userSpaceOnUse" />
    <linearGradient
       inkscape:collect="always"
       xlink:href="#linearGradient12586"
       id="linearGradient13116"
       x1="8"
       y1="29.5"
       x2="31"
       y2="29.5"
       gradientUnits="userSpaceOnUse" />
    <linearGradient
       inkscape:collect="always"
       xlink:href="#linearGradient12586"
       id="linearGradient13124"
       x1="33"
       y1="54.5"
       x2="56"
       y2="54.5"
       gradientUnits="userSpaceOnUse" />
    <linearGradient
       inkscape:collect="always"
       xlink:href="#linearGradient11972"
       id="linearGradient13772"
       x1="11.377083"
       y1="11.244791"
       x2="15.875"
       y2="15.478125"
       gradientUnits="userSpaceOnUse" />
    <linearGradient
       inkscape:collect="always"
       xlink:href="#linearGradient14372"
       id="linearGradient14374"
       x1="8"
       y1="54.5"
       x2="31"
       y2="54.5"
       gradientUnits="userSpaceOnUse" />
    <linearGradient
       inkscape:collect="always"
       xlink:href="#linearGradient14730"
       id="linearGradient14732"
       x1="4.2333331"
       y1="10.715625"
       x2="9.260416"
       y2="15.478125"
       gradientUnits="userSpaceOnUse" />
  </defs>
  <path
     id="rect863"
     style="fill:url(#linearGradient1649);stroke-width:0.264583;fill-opacity:1"
     d="M 3.1750003,1.0583333 H 13.758333 c 1.172634,0 2.116667,0.944034 2.116667,2.116667 V 13.758333 c 0,1.172634 -0.944033,2.116667 -2.116667,2.116667 H 3.1750003 c -1.172633,0 -2.116667,-0.944033 -2.116667,-2.116667 V 3.1750003 c 0,-1.172633 0.944034,-2.116667 2.116667,-2.116667 z" />
  <path
     id="rect1345"
     style="opacity:0.3;fill:url(#linearGradient1781);fill-opacity:1;stroke-width:0.264583"
     d="m 3.1750003,1.0583333 c -1.172633,0 -2.116667,0.944034 -2.116667,2.116667 V 13.758333 c 0,1.172634 0.944034,2.116667 2.116667,2.116667 H 13.758334 c 1.172633,0 2.116666,-0.944033 2.116666,-2.116667 V 3.1750003 c 0,-1.172633 -0.944033,-2.116667 -2.116666,-2.116667 z m 0,0.264584 H 13.758334 c 1.026054,0 1.852083,0.826029 1.852083,1.852083 V 13.758333 c 0,1.026054 -0.826029,1.852084 -1.852083,1.852084 H 3.1750003 c -1.026054,0 -1.852083,-0.82603 -1.852083,-1.852084 V 3.1750003 c 0,-1.026054 0.826029,-1.852083 1.852083,-1.852083 z" />
  <rect
     style="opacity:1;fill:url(#linearGradient13108);fill-opacity:1;stroke-width:0.264583"
     id="rect2303"
     width="6.0854163"
     height="6.0854163"
     x="2.1166666"
     y="2.1166666"
     ry="1.0583334" />
  <path
     id="rect2303-7-5-3"
     style="fill:url(#linearGradient13116);fill-opacity:1;stroke-width:0.999999"
     d="m 8,26 v 2 c 0,2.216001 1.7839998,4 4,4 h 15 c 2.216,0 4,-1.783999 4,-4 v -2 c 0,2.216001 -1.784001,4 -4,4 H 12 C 9.7839998,30 8,28.216001 8,26 Z"
     transform="scale(0.26458333)"
     sodipodi:nodetypes="csssscssc" />
  <rect
     style="opacity:1;fill:url(#linearGradient11974);fill-opacity:1;stroke-width:0.264583"
     id="rect2407"
     width="6.0854168"
     height="6.0854168"
     x="8.7312498"
     y="2.1166666"
     ry="1.0583334" />
  <path
     id="rect2407-6"
     style="fill:url(#linearGradient12588);fill-opacity:1;stroke-width:0.999999"
     d="m 33,26 v 2 c 0,2.216 1.784,4 4,4 h 15 c 2.216,0 4,-1.784 4,-4 v -2 c 0,2.216 -1.784,4 -4,4 H 37 c -2.216,0 -4,-1.784 -4,-4 z"
     transform="scale(0.26458333)"
     sodipodi:nodetypes="csssscssc" />
  <path
     id="path2196"
     style="opacity:0.3;fill:#1a1a1a;fill-opacity:1;stroke-width:0.249884"
     d="M 5.1593749,2.7781249 A 2.2489584,2.2489584 0 0 0 2.9104166,5.0270832 2.2489584,2.2489584 0 0 0 5.1593749,7.2760415 2.2489584,2.2489584 0 0 0 7.4083332,5.0270832 2.2489584,2.2489584 0 0 0 5.1593749,2.7781249 Z m 0,0.5291666 A 1.7197917,1.7197917 0 0 1 6.8791666,5.0270832 1.7197917,1.7197917 0 0 1 5.1593749,6.7468748 1.7197917,1.7197917 0 0 1 3.4395833,5.0270832 1.7197917,1.7197917 0 0 1 5.1593749,3.3072915 Z" />
  <path
     id="path5355"
     style="opacity:0.3;fill:#1a1a1a;fill-opacity:1;stroke-width:0.245818"
     d="M 11.773958,2.7781249 A 2.2489584,2.2489584 0 0 0 9.5249999,5.0270832 2.2489584,2.2489584 0 0 0 11.773958,7.2760415 2.2489584,2.2489584 0 0 0 14.022916,5.0270832 2.2489584,2.2489584 0 0 0 11.773958,2.7781249 Z m 0,0.5291666 A 1.7197917,1.7197917 0 0 1 13.49375,5.0270832 1.7197917,1.7197917 0 0 1 11.773958,6.7468748 1.7197917,1.7197917 0 0 1 10.054167,5.0270832 1.7197917,1.7197917 0 0 1 11.773958,3.3072915 Z" />
  <rect
     style="opacity:1;fill:url(#linearGradient13772);fill-opacity:1;stroke-width:0.264583"
     id="rect2530"
     width="6.0854168"
     height="6.0854173"
     x="8.7312498"
     y="8.7312498"
     ry="1.0583334" />
  <path
     id="rect2530-9"
     style="fill:url(#linearGradient13124);fill-opacity:1;stroke-width:0.999999"
     d="m 33,51 v 2 c 0,2.216 1.784,4 4,4 h 15 c 2.216,0 4,-1.784 4,-4 v -2 c 0,2.216 -1.784,4 -4,4 H 37 c -2.216,0 -4,-1.784 -4,-4 z"
     transform="scale(0.26458333)"
     sodipodi:nodetypes="csssscssc" />
  <path
     id="path2572"
     style="opacity:0.3;fill:#1a1a1a;fill-opacity:1;stroke-width:0.249884"
     d="m 11.773958,9.3927081 a 2.2489584,2.2489584 0 0 0 -2.2489581,2.2489579 2.2489584,2.2489584 0 0 0 2.2489581,2.248959 2.2489584,2.2489584 0 0 0 2.248958,-2.248959 2.2489584,2.2489584 0 0 0 -2.248958,-2.2489579 z m 0,0.5291667 a 1.7197917,1.7197917 0 0 1 1.719792,1.7197912 1.7197917,1.7197917 0 0 1 -1.719792,1.719792 1.7197917,1.7197917 0 0 1 -1.719791,-1.719792 1.7197917,1.7197917 0 0 1 1.719791,-1.7197912 z" />
  <rect
     style="opacity:1;fill:url(#linearGradient14732);fill-opacity:1;stroke-width:0.264583"
     id="rect3080"
     width="6.0854163"
     height="6.0854163"
     x="2.1166666"
     y="8.7312498"
     ry="1.0583334" />
  <path
     id="rect3080-2"
     style="fill:url(#linearGradient14374);fill-opacity:1;stroke-width:0.999999"
     d="m 8,51 v 2 c 0,2.216 1.7839998,4 4,4 h 15 c 2.216,0 4,-1.784 4,-4 v -2 c 0,2.216 -1.784,4 -4,4 H 12 C 9.7839998,55 8,53.216 8,51 Z"
     transform="scale(0.26458333)"
     sodipodi:nodetypes="csssscssc" />
  <path
     id="rect3732"
     style="opacity:0.3;fill:#1a1a1a;fill-opacity:1;stroke-width:0.264583"
     d="m 3.4395833,9.3927081 c -0.2931583,0 -0.5291667,0.2360084 -0.5291667,0.5291667 v 3.4395832 c 0,0.293158 0.2360084,0.529167 0.5291667,0.529167 h 3.4395833 c 0.2931583,0 0.5291666,-0.236009 0.5291666,-0.529167 V 9.9218748 c 0,-0.2931583 -0.2360083,-0.5291667 -0.5291666,-0.5291667 z m 0,0.5291667 H 6.8791666 V 13.361458 H 3.4395833 Z" />
</svg>
