<?xml version="1.0" encoding="UTF-8" standalone="no"?>
<!-- Created with Inkscape (http://www.inkscape.org/) -->

<svg
   width="64"
   height="64"
   viewBox="0 0 16.933333 16.933333"
   version="1.1"
   id="svg5"
   inkscape:version="1.1.1 (3bf5ae0d25, 2021-09-20, custom)"
   sodipodi:docname="system-settings.svg"
   xmlns:inkscape="http://www.inkscape.org/namespaces/inkscape"
   xmlns:sodipodi="http://sodipodi.sourceforge.net/DTD/sodipodi-0.dtd"
   xmlns:xlink="http://www.w3.org/1999/xlink"
   xmlns="http://www.w3.org/2000/svg"
   xmlns:svg="http://www.w3.org/2000/svg">
  <sodipodi:namedview
     id="namedview7"
     pagecolor="#ffffff"
     bordercolor="#666666"
     borderopacity="1.0"
     inkscape:pageshadow="2"
     inkscape:pageopacity="0.0"
     inkscape:pagecheckerboard="0"
     inkscape:document-units="px"
     showgrid="false"
     units="px"
     height="48px"
     inkscape:zoom="4"
     inkscape:cx="-7.25"
     inkscape:cy="-12.5"
     inkscape:window-width="1920"
     inkscape:window-height="1011"
     inkscape:window-x="0"
     inkscape:window-y="0"
     inkscape:window-maximized="1"
     inkscape:current-layer="svg5" />
  <defs
     id="defs2">
    <linearGradient
       inkscape:collect="always"
       id="linearGradient21541">
      <stop
         style="stop-color:#ffffff;stop-opacity:1;"
         offset="0"
         id="stop21537" />
      <stop
         style="stop-color:#ffffff;stop-opacity:0;"
         offset="1"
         id="stop21539" />
    </linearGradient>
    <linearGradient
       inkscape:collect="always"
       id="linearGradient9902">
      <stop
         style="stop-color:#000000;stop-opacity:1;"
         offset="0"
         id="stop9898" />
      <stop
         style="stop-color:#000000;stop-opacity:0;"
         offset="1"
         id="stop9900" />
    </linearGradient>
    <linearGradient
       inkscape:collect="always"
       id="linearGradient3822">
      <stop
         style="stop-color:#999999;stop-opacity:1"
         offset="0"
         id="stop3818" />
      <stop
         style="stop-color:#cccccc;stop-opacity:1"
         offset="1"
         id="stop3820" />
    </linearGradient>
    <linearGradient
       inkscape:collect="always"
       xlink:href="#linearGradient3822"
       id="linearGradient3824"
       x1="8.4666662"
       y1="18.520832"
       x2="8.4666662"
       y2="-1.5875002"
       gradientUnits="userSpaceOnUse" />
    <linearGradient
       inkscape:collect="always"
       xlink:href="#linearGradient9902"
       id="linearGradient20872"
       x1="8.5656319"
       y1="14.287519"
       x2="10.484444"
       y2="2.6458521"
       gradientUnits="userSpaceOnUse"
       gradientTransform="matrix(2.4052684,-2.4052684,2.4052684,2.4052684,-8.5379336,32.961898)" />
    <linearGradient
       inkscape:collect="always"
       xlink:href="#linearGradient21541"
       id="linearGradient21543"
       x1="7.4481325"
       y1="7.5684052"
       x2="14.327426"
       y2="15.154931"
       gradientUnits="userSpaceOnUse" />
    <linearGradient
       inkscape:collect="always"
       id="linearGradient37218">
      <stop
         style="stop-color:#1a1a1a;stop-opacity:1"
         offset="0"
         id="stop37214" />
      <stop
         style="stop-color:#e6e6e6;stop-opacity:0.00306325"
         offset="0.49741825"
         id="stop37220" />
      <stop
         style="stop-color:#ffffff;stop-opacity:1"
         offset="1"
         id="stop37216" />
    </linearGradient>
    <linearGradient
       inkscape:collect="always"
       xlink:href="#linearGradient37218"
       id="linearGradient860"
       x1="64"
       y1="64"
       x2="4.1102362e-07"
       y2="2.2677165e-07"
       gradientUnits="userSpaceOnUse" />
  </defs>
  <path
     id="rect846-3"
     style="fill:url(#linearGradient3824);stroke-width:0.337527"
     d="m 3.175,1.5875 h 10.583333 c 0.879475,0 1.5875,0.708025 1.5875,1.5875 v 10.583333 c 0,0.879475 -0.708025,1.5875 -1.5875,1.5875 H 3.175 c -0.879475,0 -1.5875,-0.708025 -1.5875,-1.5875 V 3.175 c 0,-0.879475 0.708025,-1.5875 1.5875,-1.5875 z" />
  <path
     id="rect846"
     style="opacity:0.3;fill:url(#linearGradient860);stroke-width:1.27569;fill-opacity:1"
     d="M 12 6 C 8.6760005 6 6 8.6760005 6 12 L 6 52 C 6 55.324 8.6760005 58 12 58 L 52 58 C 55.324 58 58 55.324 58 52 L 58 12 C 58 8.6760005 55.324 6 52 6 L 12 6 z M 12 7 L 52 7 C 54.77 7 57 9.23 57 12 L 57 52 C 57 54.77 54.77 57 52 57 L 12 57 C 9.23 57 7 54.77 7 52 L 7 12 C 7 9.23 9.23 7 12 7 z "
     transform="scale(0.26458333)" />
  <path
     id="rect15908-7"
     style="opacity:0.3;fill:url(#linearGradient20872);fill-opacity:1;stroke-width:0.940622"
     d="M 41.083984 17.162109 L 40.570312 20.611328 A 14.399999 14.399999 0 0 1 41.033203 20.992188 L 41.574219 17.365234 L 41.083984 17.162109 z M 31.355469 23.951172 A 8.0999998 8.0999998 0 0 0 28.708984 24.554688 A 8.0999998 8.0999998 0 0 0 24.326172 35.138672 A 8.0999998 8.0999998 0 0 0 24.541016 35.587891 A 8.0999722 8.0999722 0 0 1 29.091797 25.478516 A 8.0999722 8.0999722 0 0 1 39.498047 29.496094 A 8.0999998 8.0999998 0 0 0 39.292969 28.9375 A 8.0999998 8.0999998 0 0 0 31.355469 23.951172 z M 49.470703 27.644531 L 46.076172 30.160156 A 14.399999 14.399999 0 0 1 46.083984 33.921875 L 46.53125 34.253906 A 14.39995 14.39995 0 0 0 46.458984 31.083984 L 49.853516 28.568359 L 49.470703 27.644531 z M 14.730469 28.078125 L 14.527344 28.568359 L 17.474609 30.751953 A 14.399999 14.399999 0 0 1 17.533203 30.154297 L 14.730469 28.078125 z M 49.269531 36.921875 L 47.40625 41.419922 L 43.234375 40.800781 A 14.399999 14.399999 0 0 1 40.570312 43.455078 L 41.191406 47.634766 L 36.203125 49.701172 L 33.685547 46.304688 A 14.399999 14.399999 0 0 1 29.925781 46.314453 L 27.414062 49.701172 L 22.916016 47.837891 L 22.808594 48.558594 L 27.796875 50.625 L 30.306641 47.238281 A 14.39995 14.39995 0 0 0 34.066406 47.228516 L 36.585938 50.625 L 41.574219 48.558594 L 40.953125 44.378906 A 14.39995 14.39995 0 0 0 43.617188 41.724609 L 47.789062 42.34375 L 49.855469 37.355469 L 49.269531 36.921875 z M 14.529297 37.353516 L 14.527344 37.355469 L 16.212891 41.419922 L 14.529297 37.353516 z M 16.212891 41.419922 L 16.595703 42.34375 L 20.777344 41.724609 A 14.39995 14.39995 0 0 0 22.966797 44.007812 L 23.046875 43.464844 A 14.399999 14.399999 0 0 1 20.394531 40.800781 L 16.212891 41.419922 z "
     transform="scale(0.26458333)" />
  <path
     id="rect15908"
     style="opacity:1;fill:url(#linearGradient21543);stroke-width:0.248875;fill-opacity:1"
     d="M 5.9335156,4.3501401 6.098062,5.4559292 A 3.8099997,3.8099997 0 0 0 5.3927697,6.1583477 L 4.2892783,5.994224 3.7425778,7.314076 4.638917,7.9783091 a 3.8099997,3.8099997 0 0 0 0.00203,0.9954018 L 3.7426862,9.6392701 4.2894451,10.959263 5.395842,10.794969 a 3.8099997,3.8099997 0 0 0 0.7018088,0.705041 l -0.1641233,1.103492 1.319852,0.546701 0.6642336,-0.896339 a 3.8099997,3.8099997 0 0 0 0.9947938,-0.0023 l 0.6661665,0.898514 1.3199926,-0.546759 -0.164546,-1.105788 a 3.8099997,3.8099997 0 0 0 0.705319,-0.702393 l 1.103493,0.164125 0.546699,-1.3198523 -0.896338,-0.6642341 A 3.8099997,3.8099997 0 0 0 12.191135,7.979763 L 13.089398,7.3142031 12.542639,5.9942102 11.439177,6.158296 A 3.8099997,3.8099997 0 0 0 10.734431,5.4534646 L 10.898555,4.3499728 9.5787026,3.8032729 8.9144698,4.6996116 a 3.8099997,3.8099997 0 0 0 -0.996722,6.19e-5 L 7.2535085,3.8033811 Z M 7.5959035,6.4967474 A 2.1431249,2.1431249 0 0 1 10.396032,7.6565981 2.1431249,2.1431249 0 0 1 9.2361804,10.456726 2.1431249,2.1431249 0 0 1 6.4360526,9.2968752 2.1431249,2.1431249 0 0 1 7.5959035,6.4967474 Z" />
</svg>
