<?xml version="1.0" encoding="UTF-8" standalone="no"?>
<!-- Created with Inkscape (http://www.inkscape.org/) -->

<svg
   width="64"
   height="64"
   viewBox="0 0 16.933333 16.933333"
   version="1.1"
   id="svg5"
   inkscape:version="1.1.1 (3bf5ae0d25, 2021-09-20, custom)"
   sodipodi:docname="system-file-manager.svg"
   xmlns:inkscape="http://www.inkscape.org/namespaces/inkscape"
   xmlns:sodipodi="http://sodipodi.sourceforge.net/DTD/sodipodi-0.dtd"
   xmlns:xlink="http://www.w3.org/1999/xlink"
   xmlns="http://www.w3.org/2000/svg"
   xmlns:svg="http://www.w3.org/2000/svg">
  <sodipodi:namedview
     id="namedview7"
     pagecolor="#ffffff"
     bordercolor="#666666"
     borderopacity="1.0"
     inkscape:pageshadow="2"
     inkscape:pageopacity="0.0"
     inkscape:pagecheckerboard="0"
     inkscape:document-units="px"
     showgrid="false"
     units="px"
     height="48px"
     inkscape:zoom="1.1131408"
     inkscape:cx="-96.124412"
     inkscape:cy="-77.708053"
     inkscape:window-width="1920"
     inkscape:window-height="1019"
     inkscape:window-x="0"
     inkscape:window-y="0"
     inkscape:window-maximized="1"
     inkscape:current-layer="svg5"
     inkscape:lockguides="false"
     showguides="false" />
  <defs
     id="defs2">
    <linearGradient
       inkscape:collect="always"
       id="linearGradient34867">
      <stop
         style="stop-color:#000000;stop-opacity:1;"
         offset="0"
         id="stop34863" />
      <stop
         style="stop-color:#000000;stop-opacity:0;"
         offset="1"
         id="stop34865" />
    </linearGradient>
    <linearGradient
       inkscape:collect="always"
       id="linearGradient34097">
      <stop
         style="stop-color:#ffffff;stop-opacity:1;"
         offset="0"
         id="stop34093" />
      <stop
         style="stop-color:#ffffff;stop-opacity:0;"
         offset="1"
         id="stop34095" />
    </linearGradient>
    <linearGradient
       inkscape:collect="always"
       id="linearGradient28042">
      <stop
         style="stop-color:#92daff;stop-opacity:1"
         offset="0"
         id="stop28038" />
      <stop
         style="stop-color:#41b3ff;stop-opacity:1"
         offset="1"
         id="stop28040" />
    </linearGradient>
    <linearGradient
       inkscape:collect="always"
       xlink:href="#linearGradient34097"
       id="linearGradient34099"
       x1="8"
       y1="21.499905"
       x2="62"
       y2="21.499905"
       gradientUnits="userSpaceOnUse" />
    <linearGradient
       inkscape:collect="always"
       xlink:href="#linearGradient34867"
       id="linearGradient34869"
       x1="15.345832"
       y1="15.081223"
       x2="2.645833"
       y2="4.4978909"
       gradientUnits="userSpaceOnUse"
       gradientTransform="scale(3.7795276)" />
    <linearGradient
       inkscape:collect="always"
       xlink:href="#linearGradient34097"
       id="linearGradient35583"
       x1="14"
       y1="11.999905"
       x2="14"
       y2="55.999905"
       gradientUnits="userSpaceOnUse" />
    <linearGradient
       inkscape:collect="always"
       xlink:href="#linearGradient37218"
       id="linearGradient1781"
       x1="2.8346456e-08"
       y1="2.2677165e-07"
       x2="64"
       y2="64"
       gradientUnits="userSpaceOnUse"
       gradientTransform="scale(0.26458333)" />
    <linearGradient
       inkscape:collect="always"
       id="linearGradient37218">
      <stop
         style="stop-color:#ffffff;stop-opacity:1"
         offset="0"
         id="stop37214" />
      <stop
         style="stop-color:#717171;stop-opacity:0.00392157"
         offset="0.49741825"
         id="stop37220" />
      <stop
         style="stop-color:#ffffff;stop-opacity:1"
         offset="1"
         id="stop37216" />
    </linearGradient>
    <linearGradient
       inkscape:collect="always"
       xlink:href="#linearGradient28042"
       id="linearGradient1201"
       x1="16.933332"
       y1="-2.7838135e-07"
       x2="16.933332"
       y2="16.933332"
       gradientUnits="userSpaceOnUse" />
  </defs>
  <rect
     style="opacity:1;fill:url(#linearGradient1201);stroke-width:0.264583;fill-opacity:1"
     id="rect1113"
     width="14.816667"
     height="14.816667"
     x="1.0583333"
     y="1.0583333"
     ry="2.1166666" />
  <path
     id="rect28818-7"
     style="opacity:0.3;fill:url(#linearGradient34869);fill-opacity:1;stroke-width:4.5123;stroke-linecap:round;stroke-linejoin:round"
     d="M 14 45 L 14 46 C 14 47.108003 14.892 48 16 48 L 48 48 C 49.107999 48 50 47.108003 50 46 L 50 45 C 50 46.108003 49.108003 47 48 47 L 16 47 C 14.892 47 14 46.108003 14 45 z "
     transform="scale(0.26458333)" />
  <path
     id="rect28818"
     style="opacity:1;fill:url(#linearGradient35583);stroke-width:4.5123;stroke-linecap:round;stroke-linejoin:round;fill-opacity:1.0"
     d="M 15.947266,17 C 14.863385,17.027277 14,17.909312 14,19 v 26 c 0,1.108003 0.892,2 2,2 h 32 c 1.107999,0 2,-0.891997 2,-2 V 24 c 0,-1.108 -0.892001,-2 -2,-2 H 32 L 28,18 C 27.548061,17.548061 26.894033,17 26,17 H 16 c -0.01731,0 -0.03553,-4.33e-4 -0.05273,0 z"
     sodipodi:nodetypes="sssssssscsssss"
     transform="scale(0.26458333)" />
  <path
     id="rect28818-2"
     style="fill:url(#linearGradient34099);fill-opacity:1;stroke-width:4.5123;stroke-linecap:round;stroke-linejoin:round;opacity:0.5"
     d="M 15.947266,17 C 14.863385,17.027277 14,17.909312 14,19 v 1 c 0,-1.090688 0.863385,-1.972712 1.947266,-2 0.01721,-4.33e-4 0.03542,0 0.05273,0 h 10 c 0.894033,0 1.600734,0.500917 2,1 l 4,4 h 16 c 1.107999,0 2,0.892 2,2 v -1 c 0,-1.108 -0.892001,-2 -2,-2 H 32 L 28,18 C 27.548061,17.548061 26.894033,17 26,17 H 16 c -0.01731,0 -0.03553,-4.33e-4 -0.05273,0 z"
     sodipodi:nodetypes="sscsssscscsscssss"
     transform="scale(0.26458333)" />
  <path
     id="rect1345"
     style="opacity:0.3;fill:url(#linearGradient1781);fill-opacity:1;stroke-width:0.264583"
     d="m 3.175,1.0583333 c -1.1726333,0 -2.1166667,0.9440334 -2.1166667,2.1166667 v 10.583333 c 0,1.172634 0.9440334,2.116667 2.1166667,2.116667 h 10.583335 c 1.172632,0 2.116666,-0.944033 2.116666,-2.116667 V 3.175 c 0,-1.1726333 -0.944034,-2.1166667 -2.116666,-2.1166667 z m 0,0.2645834 h 10.583335 c 1.026054,0 1.852083,0.8260291 1.852083,1.8520833 v 10.583333 c 0,1.026054 -0.826029,1.852084 -1.852083,1.852084 H 3.175 c -1.0260542,0 -1.8520834,-0.82603 -1.8520834,-1.852084 V 3.175 c 0,-1.0260542 0.8260292,-1.8520833 1.8520834,-1.8520833 z" />
</svg>
