<?xml version="1.0" encoding="UTF-8" standalone="no"?>
<!-- Created with Inkscape (http://www.inkscape.org/) -->

<svg
   width="64"
   height="64"
   viewBox="0 0 16.933333 16.933333"
   version="1.1"
   id="svg5"
   inkscape:version="1.1.1 (3bf5ae0d25, 2021-09-20, custom)"
   sodipodi:docname="system-settings.svg"
   xmlns:inkscape="http://www.inkscape.org/namespaces/inkscape"
   xmlns:sodipodi="http://sodipodi.sourceforge.net/DTD/sodipodi-0.dtd"
   xmlns:xlink="http://www.w3.org/1999/xlink"
   xmlns="http://www.w3.org/2000/svg"
   xmlns:svg="http://www.w3.org/2000/svg">
  <sodipodi:namedview
     id="namedview7"
     pagecolor="#ffffff"
     bordercolor="#666666"
     borderopacity="1.0"
     inkscape:pageshadow="2"
     inkscape:pageopacity="0.0"
     inkscape:pagecheckerboard="0"
     inkscape:document-units="px"
     showgrid="false"
     units="px"
     height="48px"
     inkscape:zoom="8"
     inkscape:cx="19"
     inkscape:cy="27"
     inkscape:window-width="1920"
     inkscape:window-height="1011"
     inkscape:window-x="0"
     inkscape:window-y="0"
     inkscape:window-maximized="1"
     inkscape:current-layer="svg5" />
  <defs
     id="defs2">
    <linearGradient
       inkscape:collect="always"
       id="linearGradient2058">
      <stop
         style="stop-color:#333333;stop-opacity:1"
         offset="0"
         id="stop2054" />
      <stop
         style="stop-color:#666666;stop-opacity:1"
         offset="1"
         id="stop2056" />
    </linearGradient>
    <linearGradient
       inkscape:collect="always"
       id="linearGradient3822">
      <stop
         style="stop-color:#999999;stop-opacity:1"
         offset="0"
         id="stop3818" />
      <stop
         style="stop-color:#cccccc;stop-opacity:1"
         offset="1"
         id="stop3820" />
    </linearGradient>
    <linearGradient
       inkscape:collect="always"
       id="linearGradient37218">
      <stop
         style="stop-color:#1a1a1a;stop-opacity:1"
         offset="0"
         id="stop37214" />
      <stop
         style="stop-color:#e6e6e6;stop-opacity:0.00306325"
         offset="0.49741825"
         id="stop37220" />
      <stop
         style="stop-color:#ffffff;stop-opacity:1"
         offset="1"
         id="stop37216" />
    </linearGradient>
    <linearGradient
       inkscape:collect="always"
       xlink:href="#linearGradient37218"
       id="linearGradient860"
       x1="64"
       y1="64"
       x2="4.1102362e-07"
       y2="2.2677165e-07"
       gradientUnits="userSpaceOnUse" />
    <linearGradient
       inkscape:collect="always"
       xlink:href="#linearGradient3822"
       id="linearGradient6863"
       x1="12.435417"
       y1="17.727047"
       x2="12.43545"
       y2="4.2333245"
       gradientUnits="userSpaceOnUse"
       gradientTransform="matrix(1.2000012,0,0,1.2000012,-1.6933761,-4.5508434)" />
    <linearGradient
       inkscape:collect="always"
       xlink:href="#linearGradient2058"
       id="linearGradient2060"
       x1="13.754716"
       y1="18.536539"
       x2="13.754716"
       y2="-2.1009581"
       gradientUnits="userSpaceOnUse" />
    <linearGradient
       inkscape:collect="always"
       xlink:href="#linearGradient3822"
       id="linearGradient3355"
       x1="16.404167"
       y1="16.933332"
       x2="16.404165"
       y2="-2.7838135e-07"
       gradientUnits="userSpaceOnUse"
       gradientTransform="scale(3.7795276)" />
  </defs>
  <path
     id="rect846-3"
     style="fill:url(#linearGradient2060);fill-opacity:1;stroke-width:0.337527"
     d="m 3.7041667,2.1166667 h 9.5249993 c 0.879475,0 1.5875,0.708025 1.5875,1.5875 v 9.5249993 c 0,0.879475 -0.708025,1.5875 -1.5875,1.5875 H 3.7041667 c -0.879475,0 -1.5875,-0.708025 -1.5875,-1.5875 V 3.7041667 c 0,-0.879475 0.708025,-1.5875 1.5875,-1.5875 z"
     sodipodi:nodetypes="sssssssss" />
  <path
     id="rect1440"
     style="fill:url(#linearGradient3355);fill-opacity:1;stroke-width:1.97981;stroke-linejoin:round"
     d="M 12 6 C 8.676 6 6 8.676 6 12 L 6 52 C 6 55.324 8.676 58 12 58 L 52 58 C 55.324 58 58 55.324 58 52 L 58 12 C 58 8.676 55.324 6 52 6 L 12 6 z M 32 12 A 20 20 0 0 1 52 32 A 20 20 0 0 1 32 52 A 20 20 0 0 1 12 32 A 20 20 0 0 1 32 12 z "
     transform="scale(0.26458333)" />
  <path
     id="rect846"
     style="opacity:0.3;fill:url(#linearGradient860);stroke-width:1.27569;fill-opacity:1"
     d="M 12 6 C 8.6760005 6 6 8.6760005 6 12 L 6 52 C 6 55.324 8.6760005 58 12 58 L 52 58 C 55.324 58 58 55.324 58 52 L 58 12 C 58 8.6760005 55.324 6 52 6 L 12 6 z M 12 7 L 52 7 C 54.77 7 57 9.23 57 12 L 57 52 C 57 54.77 54.77 57 52 57 L 12 57 C 9.23 57 7 54.77 7 52 L 7 12 C 7 9.23 9.23 7 12 7 z "
     transform="scale(0.26458333)" />
  <path
     id="path863-3"
     style="opacity:1;fill:url(#linearGradient6863);fill-opacity:1;stroke-width:0.519609;stroke-linejoin:round"
     d="m 13.229088,8.4666446 c 0,-0.155201 -0.124945,-0.280146 -0.280146,-0.280147 h -0.300391 a 4.202187,4.202187 0 0 0 -0.06894,-0.531839 l 0.2889,-0.0777 c 0.131172,-0.03515 0.215326,-0.15645 0.207379,-0.286707 -0.0012,-0.01861 -0.0042,-0.03762 -0.0094,-0.05635 -0.04018,-0.149909 -0.193157,-0.238237 -0.343069,-0.198067 l -0.288356,0.07715 a 4.202187,4.202187 0 0 0 -0.20349,-0.496826 l 0.256618,-0.14828 c 0.084,-0.04849 0.13371,-0.133121 0.140064,-0.222699 0.0038,-0.05376 -0.0082,-0.109368 -0.03721,-0.159771 -0.0776,-0.134408 -0.248607,-0.179919 -0.383014,-0.102324 l -0.254963,0.147191 a 4.202187,4.202187 0 0 0 -0.325012,-0.428974 l 0.206279,-0.206279 c 0.05488,-0.05488 0.08208,-0.12647 0.08208,-0.19807 1e-6,-0.0716 -0.0272,-0.143201 -0.08208,-0.198072 -0.10974,-0.10974 -0.286401,-0.10974 -0.396143,0 l -0.206283,0.206279 a 4.202187,4.202187 0 0 0 -0.42897,-0.325014 l 0.147186,-0.254976 c 0.0291,-0.0504 0.04092,-0.105936 0.03721,-0.159771 -0.0062,-0.08974 -0.05552,-0.174741 -0.13953,-0.223241 -0.13441,-0.0776 -0.304865,-0.03154 -0.382465,0.102864 l -0.14828,0.256618 A 4.202187,4.202187 0 0 0 9.8202396,4.4980956 l 0.07715,-0.288353 c 0.005,-0.01874 0.0082,-0.03775 0.0094,-0.05636 0.0079,-0.13026 -0.07621,-0.251564 -0.207383,-0.286711 -0.149913,-0.04016 -0.302901,0.04816 -0.34307,0.198071 l -0.0777,0.288901 a 4.202187,4.202187 0 0 0 -0.531839,-0.06894 v -0.300392 c 0,-0.155201 -0.124945,-0.280145 -0.280146,-0.280145 -0.155201,-1e-6 -0.280145,0.124944 -0.280147,0.280145 l -10e-7,0.300392 a 4.202187,4.202187 0 0 0 -0.531839,0.06894 l -0.0777,-0.288901 c -0.04016,-0.149912 -0.193157,-0.238241 -0.34307,-0.198072 -0.149912,0.04016 -0.238241,0.193157 -0.198071,0.34307 l 0.07715,0.288355 a 4.202187,4.202187 0 0 0 -0.496823,0.203544 l -0.148276,-0.256619 c -0.0776,-0.134406 -0.248058,-0.180465 -0.382464,-0.102864 -0.134409,0.0776 -0.17992,0.248603 -0.102324,0.383012 l 0.147191,0.254974 a 4.202187,4.202187 0 0 0 -0.428973,0.325013 l -0.20628,-0.206278 c -0.10974,-0.10974 -0.286403,-0.10974 -0.396147,0 -0.10974,0.10974 -0.10974,0.286401 4e-6,0.396143 l 0.206279,0.20628 a 4.202187,4.202187 0 0 0 -0.325014,0.428973 l -0.254979,-0.147182 c -0.13441,-0.0776 -0.305411,-0.03209 -0.383012,0.102312 -0.0776,0.134408 -0.03154,0.304865 0.102864,0.382462 l 0.256617,0.148287 a 4.202187,4.202187 0 0 0 -0.203541,0.496819 l -0.288355,-0.07715 c -0.149914,-0.04016 -0.3029,0.04816 -0.343069,0.198072 -0.04018,0.149913 0.04816,0.302901 0.198065,0.343072 l 0.288903,0.0777 a 4.202187,4.202187 0 0 0 -0.06894,0.531841 l -0.300388,-9e-6 c -0.155201,4e-6 -0.280145,0.124946 -0.280145,0.280148 -1e-6,0.155199 0.124942,0.280145 0.28014,0.280147 h 0.300394 a 4.202187,4.202187 0 0 0 0.06894,0.53184 l -0.288899,0.0777 c -0.149912,0.04018 -0.238241,0.1931566 -0.198072,0.3430691 0.04016,0.149912 0.193155,0.238241 0.343066,0.198077 l 0.288355,-0.07716 a 4.202187,4.202187 0 0 0 0.203543,0.4968213 l -0.256617,0.14828 c -0.134408,0.0776 -0.180466,0.248056 -0.102865,0.382465 0.07761,0.1344 0.248605,0.179917 0.383012,0.102312 l 0.254977,-0.147185 a 4.202187,4.202187 0 0 0 0.325011,0.428975 l -0.206279,0.206278 c -0.10974,0.10974 -0.10974,0.286402 5e-6,0.396143 0.10974,0.10974 0.286398,0.10974 0.396143,-9e-6 l 0.206279,-0.206273 a 4.202187,4.202187 0 0 0 0.428975,0.325011 l -0.147191,0.254972 c -0.0776,0.134407 -0.03209,0.305409 0.102324,0.383011 0.134409,0.0776 0.304866,0.03155 0.382463,-0.102876 l 0.148281,-0.256618 a 4.202187,4.202187 0 0 0 0.496822,0.203542 l -0.07715,0.288358 c -0.04016,0.149912 0.04816,0.302902 0.198066,0.343073 0.149915,0.04018 0.302901,-0.04816 0.343073,-0.198065 l 0.0777,-0.288906 a 4.202187,4.202187 0 0 0 0.531842,0.06894 l -2e-6,0.300391 c 0,0.155201 0.12494,0.280148 0.28014,0.28015 0.155202,-2e-6 0.280146,-0.124943 0.280144,-0.280151 l -10e-7,-0.290544 a 4.202187,4.202187 0 0 0 0.534574,-0.06949 l 0.07496,0.279599 c 0.04016,0.149911 0.193156,0.238241 0.343067,0.198078 0.131172,-0.03515 0.215328,-0.156451 0.207379,-0.286707 -0.0012,-0.01855 -0.0043,-0.03761 -0.0094,-0.05638 l -0.0755,-0.280699 A 4.202187,4.202187 0 0 0 10.320325,12.23653 l 0.144991,0.251695 c 0.0776,0.134409 0.24806,0.180471 0.382465,0.102876 0.084,-0.0485 0.133321,-0.133507 0.13953,-0.223241 0.0037,-0.05384 -0.0082,-0.109368 -0.0372,-0.15977 l -0.14445,-0.250595 a 4.202187,4.202187 0 0 0 0.426781,-0.328838 l 0.205731,0.205733 c 0.109752,0.10974 0.28641,0.109752 0.396152,6e-6 0.05486,-0.05486 0.08207,-0.126474 0.08207,-0.198076 6e-6,-0.0716 -0.0272,-0.143203 -0.08207,-0.198074 l -0.205727,-0.20573 a 4.202187,4.202187 0 0 0 0.328844,-0.426785 l 0.250601,0.14445 c 0.134407,0.0776 0.305409,0.03209 0.383013,-0.102324 0.0291,-0.05041 0.04103,-0.10602 0.03721,-0.159764 -0.0064,-0.08958 -0.05606,-0.174195 -0.140075,-0.222692 l -0.25169,-0.145005 a 4.202187,4.202187 0 0 0 0.206273,-0.4984653 l 0.280692,0.07552 c 0.149914,0.04018 0.302902,-0.04816 0.343073,-0.198065 0.0049,-0.01878 0.0082,-0.037752 0.0094,-0.056352 0.0079,-0.130265 -0.0762,-0.2515661 -0.207375,-0.2867111 l -0.279599,-0.07496 a 4.202187,4.202187 0 0 0 0.06949,-0.534579 h 0.290542 c 0.155212,-3e-6 0.280157,-0.124946 0.28016,-0.280143 z M 12.02862,9.2271986 A 3.6418954,3.6418954 0 0 1 8.4666086,12.108542 3.6418954,3.6418954 0 0 1 7.3443856,11.930714 l -0.176187,-0.655498 1.144659,-1.9829074 a 0.84043735,0.84043735 0 0 0 0.153747,0.01478 0.84043735,0.84043735 0 0 0 0.792288,-0.56029 l 2.2893194,-7e-6 z m -0.0088,-1.512352 -0.471653,0.471651 H 9.2566346 a 0.84043735,0.84043735 0 0 0 -0.790098,-0.560291 0.84043735,0.84043735 0 0 0 -0.152659,0.01588 l -1.145719,-1.98401 0.176187,-0.655497 a 3.6418954,3.6418954 0 0 1 1.122223,-0.177827 3.6418954,3.6418954 0 0 1 3.5532554,2.890098 z m -3.2731054,0.751798 a 0.28014583,0.28014583 0 0 1 -0.280145,0.280146 0.28014583,0.28014583 0 0 1 -0.280151,-0.280145 0.28014583,0.28014583 0 0 1 0.280145,-0.280144 0.28014583,0.28014583 0 0 1 0.280151,0.280143 z m -0.918682,-0.546063 a 0.84043735,0.84043735 0 0 0 -0.201903,0.546066 0.84043735,0.84043735 0 0 0 0.201909,0.546062 l -1.144659,1.9823584 -0.645102,0.172902 a 3.6418954,3.6418954 0 0 1 -1.213603,-2.7013254 3.6418954,3.6418954 0 0 1 1.213599,-2.701328 l 0.645102,0.172902 z" />
</svg>
