<?xml version="1.0" encoding="UTF-8" standalone="no"?>
<!-- Created with Inkscape (http://www.inkscape.org/) -->

<svg
   width="64"
   height="64"
   viewBox="0 0 16.933333 16.933333"
   version="1.1"
   id="svg5"
   inkscape:version="1.1.1 (3bf5ae0d25, 2021-09-20, custom)"
   sodipodi:docname="twitter.svg"
   xmlns:inkscape="http://www.inkscape.org/namespaces/inkscape"
   xmlns:sodipodi="http://sodipodi.sourceforge.net/DTD/sodipodi-0.dtd"
   xmlns="http://www.w3.org/2000/svg"
   xmlns:svg="http://www.w3.org/2000/svg">
  <sodipodi:namedview
     id="namedview7"
     pagecolor="#ffffff"
     bordercolor="#666666"
     borderopacity="1.0"
     inkscape:pageshadow="2"
     inkscape:pageopacity="0.0"
     inkscape:pagecheckerboard="0"
     inkscape:document-units="px"
     showgrid="false"
     units="px"
     height="48px"
     inkscape:zoom="7.9999996"
     inkscape:cx="-2.2500001"
     inkscape:cy="20.750001"
     inkscape:window-width="1920"
     inkscape:window-height="1011"
     inkscape:window-x="0"
     inkscape:window-y="0"
     inkscape:window-maximized="1"
     inkscape:current-layer="svg5"
     inkscape:lockguides="true" />
  <defs
     id="defs2" />
  <path
     id="rect846-3"
     style="fill:#1da1f2;stroke-width:0.337527;fill-opacity:1"
     d="m 3.175,1.5875 h 10.583333 c 0.879475,0 1.5875,0.708025 1.5875,1.5875 v 10.583333 c 0,0.879475 -0.708025,1.5875 -1.5875,1.5875 H 3.175 c -0.879475,0 -1.5875,-0.708025 -1.5875,-1.5875 V 3.175 c 0,-0.879475 0.708025,-1.5875 1.5875,-1.5875 z" />
  <path
     d="M 9.6690144,4.5925472 C 8.8088111,4.9139983 8.2662015,5.7369133 8.3266344,6.6421198 l 0.021858,0.348453 -0.3445956,-0.042432 C 6.7528094,6.7848441 5.6585898,6.2306623 4.7289529,5.2984539 L 4.275064,4.8355642 4.1580557,5.1788741 C 3.9098954,5.9387846 4.0680493,6.7436984 4.583657,7.2837363 4.8588192,7.582043 4.7971007,7.6244746 4.3213529,7.4470335 4.1567699,7.3904582 4.0114739,7.3480265 3.9973301,7.3698853 c -0.047575,0.050147 0.1182936,0.696906 0.2481602,0.954067 0.1787269,0.3561678 0.5438956,0.704621 0.9424949,0.9103497 l 0.3381666,0.1632972 -0.3985994,0.00772 c -0.3857415,0 -0.3985995,0.00772 -0.3600254,0.1568681 0.1375811,0.4628897 0.6814766,0.9540667 1.2870905,1.1675107 l 0.4268872,0.149149 -0.3715975,0.227587 a 3.8059818,3.8059818 0 0 1 -1.842558,0.52718 c -0.309879,0.0064 -0.5631826,0.03472 -0.5631826,0.05529 0,0.07072 0.8383447,0.468032 1.3269505,0.624901 1.4658172,0.462889 3.2067967,0.26359 4.5157458,-0.525894 C 10.475214,11.226014 11.404851,10.109935 11.838168,9.0285735 12.072183,8.4512471 12.3062,7.399459 12.3062,6.8902803 c 0,-0.3265944 0.02057,-0.3703117 0.406314,-0.7611964 0.227587,-0.2275873 0.441031,-0.4757476 0.482177,-0.5477528 0.06943,-0.1362952 0.06172,-0.1362952 -0.289306,-0.012858 -0.585042,0.2134434 -0.668618,0.1864415 -0.378027,-0.1350096 0.213444,-0.2275876 0.468033,-0.639045 0.468033,-0.7599107 0,-0.020573 -0.102864,0.011568 -0.219872,0.077148 A 3.7031173,3.7031173 0 0 1 12.169904,4.9911466 L 11.797021,5.1120123 11.460141,4.8779959 C 11.274985,4.7494154 11.012681,4.6079768 10.8751,4.5642595 a 2.3080194,2.3080194 0 0 0 -1.2035139,0.028288"
     fill="#ffffff"
     id="path6"
     style="stroke-width:1.2858" />
</svg>
