<?xml version="1.0" encoding="UTF-8" standalone="no"?>
<!-- Created with Inkscape (http://www.inkscape.org/) -->

<svg
   width="64"
   height="64"
   viewBox="0 0 16.933333 16.933333"
   version="1.1"
   id="svg5"
   inkscape:version="1.1.1 (3bf5ae0d25, 2021-09-20, custom)"
   sodipodi:docname="ubuntu-software-center.svg"
   xmlns:inkscape="http://www.inkscape.org/namespaces/inkscape"
   xmlns:sodipodi="http://sodipodi.sourceforge.net/DTD/sodipodi-0.dtd"
   xmlns:xlink="http://www.w3.org/1999/xlink"
   xmlns="http://www.w3.org/2000/svg"
   xmlns:svg="http://www.w3.org/2000/svg">
  <sodipodi:namedview
     id="namedview7"
     pagecolor="#ffffff"
     bordercolor="#666666"
     borderopacity="1.0"
     inkscape:pageshadow="2"
     inkscape:pageopacity="0.0"
     inkscape:pagecheckerboard="0"
     inkscape:document-units="px"
     showgrid="false"
     units="px"
     height="48px"
     inkscape:zoom="7.9999996"
     inkscape:cx="16.875001"
     inkscape:cy="46.250002"
     inkscape:window-width="1920"
     inkscape:window-height="1011"
     inkscape:window-x="0"
     inkscape:window-y="0"
     inkscape:window-maximized="1"
     inkscape:current-layer="svg5"
     inkscape:lockguides="true" />
  <defs
     id="defs2">
    <linearGradient
       inkscape:collect="always"
       id="linearGradient2955">
      <stop
         style="stop-color:#ffffff;stop-opacity:1;"
         offset="0"
         id="stop2951" />
      <stop
         style="stop-color:#ffffff;stop-opacity:0.102"
         offset="0.12"
         id="stop3151" />
      <stop
         style="stop-color:#ffffff;stop-opacity:0.102"
         offset="0.89428574"
         id="stop3503" />
      <stop
         style="stop-color:#ffffff;stop-opacity:0.698"
         offset="1"
         id="stop2953" />
    </linearGradient>
    <linearGradient
       inkscape:collect="always"
       id="linearGradient932">
      <stop
         style="stop-color:#f37e40;stop-opacity:1;"
         offset="0"
         id="stop928" />
      <stop
         style="stop-color:#f34f17;stop-opacity:1"
         offset="1"
         id="stop930" />
    </linearGradient>
    <linearGradient
       inkscape:collect="always"
       xlink:href="#linearGradient932"
       id="linearGradient934"
       x1="18.520832"
       y1="15.345834"
       x2="-4.2333331"
       y2="1.5875006"
       gradientUnits="userSpaceOnUse" />
    <linearGradient
       inkscape:collect="always"
       xlink:href="#linearGradient2955"
       id="linearGradient2957"
       x1="32"
       y1="4"
       x2="32"
       y2="60"
       gradientUnits="userSpaceOnUse" />
  </defs>
  <path
     id="rect863"
     style="fill:url(#linearGradient934);stroke-width:0.264583;fill-opacity:1"
     d="M 3.1750003,1.0583333 H 13.758333 c 1.172634,0 2.116667,0.944034 2.116667,2.116667 V 13.758333 c 0,1.172634 -0.944033,2.116667 -2.116667,2.116667 H 3.1750003 c -1.172633,0 -2.116667,-0.944033 -2.116667,-2.116667 V 3.1750003 c 0,-1.172633 0.944034,-2.116667 2.116667,-2.116667 z" />
  <path
     id="rect1964"
     style="opacity:0.1;fill:#ffffff;fill-opacity:1;stroke-width:0.670893;stroke-linecap:round;stroke-linejoin:round"
     d="M 4 32 L 4 60 L 60 60 L 60 32 L 4 32 z "
     transform="scale(0.26458333)" />
  <path
     id="rect2468"
     style="opacity:0.7;fill:url(#linearGradient2957);fill-opacity:1;stroke-width:0.670893;stroke-linecap:round;stroke-linejoin:round"
     d="M 12 4 C 7.5680001 4 4 7.5680001 4 12 L 4 52 C 4 56.432 7.5680001 60 12 60 L 52 60 C 56.432 60 60 56.432 60 52 L 60 12 C 60 7.5680001 56.432 4 52 4 L 12 4 z M 12 6 L 52 6 C 55.324 6 58 8.6760005 58 12 L 58 52 C 58 55.324 55.324 58 52 58 L 12 58 C 8.6760005 58 6 55.324 6 52 L 6 12 C 6 8.6760005 8.6760005 6 12 6 z "
     transform="scale(0.26458333)" />
  <path
     id="rect1345"
     style="opacity:0.3;fill:#000000;fill-opacity:1;stroke-width:0.264583"
     d="m 3.1750003,1.0583333 c -1.172633,0 -2.116667,0.944034 -2.116667,2.116667 V 13.758333 c 0,1.172634 0.944034,2.116667 2.116667,2.116667 H 13.758334 c 1.172633,0 2.116666,-0.944033 2.116666,-2.116667 V 3.1750003 c 0,-1.172633 -0.944033,-2.116667 -2.116666,-2.116667 z m 0,0.264584 H 13.758334 c 1.026054,0 1.852083,0.826029 1.852083,1.852083 V 13.758333 c 0,1.026054 -0.826029,1.852084 -1.852083,1.852084 H 3.1750003 c -1.026054,0 -1.852083,-0.82603 -1.852083,-1.852084 V 3.1750003 c 0,-1.026054 0.826029,-1.852083 1.852083,-1.852083 z" />
  <path
     id="path29"
     d="M 7.4189183,3.7041666 C 7.0311488,4.5120168 6.7387349,5.090538 6.3832758,5.9199417 6.0278175,6.7385485 5.6669874,7.6003606 5.3007718,8.5051423 5.1636987,8.8540556 5.0239675,9.2188051 4.8837031,9.5837416 4.7972794,9.7811496 4.7000302,10.017006 4.5478614,10.425689 4.2928702,11.103256 4.1216453,11.511199 3.8371265,12.262666 3.7334595,12.524891 3.619564,12.818208 3.4395833,13.313147 h 2.1259571 l 0.8981811,-2.499287 2.0033357,-0.08747 2.0033358,0.08747 0.897399,2.499287 H 13.49375 C 13.313768,12.818208 13.199874,12.52487 13.096207,12.262666 12.811668,11.511199 12.641219,11.103256 12.386251,10.425689 12.23408,10.017006 12.136831,9.7811656 12.050412,9.5837416 11.910151,9.2188178 11.769638,8.8540829 11.632562,8.5051423 11.266338,7.6003606 10.98518,6.9791051 10.629721,6.1604984 10.274271,5.3310947 9.9029256,4.5120168 9.5151963,3.7041666 H 9.4831734 8.4084796 8.3655234 L 7.45094,3.7049663 Z m 1.0481389,1.9861529 c 0.00704,0.016435 0.014011,0.032754 0.021085,0.049205 v 0.012499 c 0.295808,0.6572127 0.5815462,1.3371078 0.8567868,2.0423868 0.3339133,0.8724714 0.3385683,0.7897585 0.672465,1.7268523 L 8.4670572,9.5767106 6.9159369,9.5212539 C 7.2498416,8.5841663 7.2545002,8.6668793 7.5884012,7.7944076 7.8636188,7.0891685 8.1501339,6.4092335 8.4459697,5.7520207 v -0.012499 c 0.00704,-0.016435 0.014041,-0.032796 0.021087,-0.049205 z"
     style="fill:#fff9f2;fill-opacity:1;stroke-width:0.399885" />
  <path
     id="path31"
     d="M 9.5151963,3.7041666 8.4670572,5.6903195 c 0.1743017,0.4126615 0.5994301,1.3824077 0.8786566,2.1040881 0.3339124,0.8724717 0.338571,0.7889779 0.6724642,1.7260709 l -0.5232886,0.01953 0.362397,1.2465195 0.6131066,0.02655 0.898181,2.500069 H 13.49375 C 13.313768,12.818211 13.200654,12.524873 13.096989,12.262667 12.812448,11.511201 12.641219,11.103258 12.386251,10.425691 12.23408,10.017008 12.136829,9.7803866 12.050412,9.5829626 11.910151,9.2180388 11.77042,8.8540856 11.633342,8.505145 11.26712,7.6003628 10.98518,6.9783265 10.629721,6.1597197 10.373427,5.5616901 10.108499,4.9697148 9.835417,4.382882 Z"
     style="fill:#f34f17;fill-opacity:1;stroke-width:0.399885;opacity:0.1"
     sodipodi:nodetypes="cccccccccccccccc" />
  <rect
     style="opacity:1;fill:#ffffff;fill-opacity:1;stroke-width:0.143078;stroke-linecap:round;stroke-linejoin:round"
     id="rect4952"
     width="10.583333"
     height="1.5875"
     x="3.175"
     y="9.5249996"
     ry="0.79374999" />
  <path
     id="path29-7"
     style="opacity:0.2;fill:#000000;fill-opacity:1;stroke-width:1.51138"
     d="m 32.001953,21.505859 c -0.02663,0.06202 -0.05347,0.125384 -0.08008,0.1875 v 0.04687 c -1.11812,2.483954 -2.200041,5.05328 -3.240234,7.71875 -1.261988,3.297531 -1.280967,2.9856 -2.542969,6.527344 l 0.355469,0.01172 c 0.916744,-2.508313 1.057722,-2.592103 2.185547,-5.539063 1.040192,-2.66547 2.122114,-5.234796 3.240234,-7.71875 v -0.04687 c 0.02661,-0.06212 0.05345,-0.125479 0.08008,-0.1875 0.02661,0.06212 0.05334,0.125323 0.08008,0.1875 v 0.04687 c 1.118015,2.483954 2.198003,5.053129 3.238281,7.71875 1.128112,2.947606 1.268614,3.031065 2.185547,5.541016 l 0.357422,-0.01367 c -1.261972,-3.54177 -1.278978,-3.229813 -2.541016,-6.527344 -1.040278,-2.665621 -2.120266,-5.234796 -3.238281,-7.71875 v -0.04687 c -0.02674,-0.06218 -0.05347,-0.125383 -0.08008,-0.1875 z M 12.041016,39.496094 c -0.02744,0.163669 -0.04297,0.332202 -0.04297,0.503906 0,1.661998 1.338,3 3,3 h 0.798828 7.867187 l -2.628906,7.316406 h -7.669922 c -0.116144,0.314051 -0.233254,0.631689 -0.367187,1 h 8.035156 L 24.021484,43 h 15.955078 l 2.986329,8.316406 h 8.035156 c -0.133917,-0.368262 -0.249102,-0.68598 -0.365235,-1 H 42.964844 L 40.337891,43 h 7.865234 l -0.392578,-1 c 0.002,0 -31.621094,0 -31.621094,0 H 15 c -1.493064,0 -2.724039,-1.079426 -2.958984,-2.503906 z M 48.203125,43 h 0.794922 c 1.662002,0 3,-1.338002 3,-3 0,-0.169696 -0.0142,-0.336186 -0.04102,-0.498047 C 51.71958,40.923413 50.490932,42 49,42 h -1.1875 c 0.128228,0.327977 0.261043,0.669484 0.390625,1 z"
     transform="scale(0.26458333)"
     sodipodi:nodetypes="ccccccccccccccccccccssccccccccccccccccsccsscscc" />
  <rect
     style="opacity:0.3;fill:#f34f17;fill-opacity:1;stroke-width:0.0783672;stroke-linecap:round;stroke-linejoin:round"
     id="rect4952-6"
     width="9.5249996"
     height="0.52916664"
     x="3.7041667"
     y="10.054167"
     ry="0.26458332" />
</svg>
