<?xml version="1.0" encoding="UTF-8" standalone="no"?>
<!-- Created with Inkscape (http://www.inkscape.org/) -->

<svg
   width="64"
   height="64"
   viewBox="0 0 16.933333 16.933333"
   version="1.1"
   id="svg5"
   inkscape:version="1.1.1 (3bf5ae0d25, 2021-09-20, custom)"
   sodipodi:docname="unity-tweak-tool.svg"
   xmlns:inkscape="http://www.inkscape.org/namespaces/inkscape"
   xmlns:sodipodi="http://sodipodi.sourceforge.net/DTD/sodipodi-0.dtd"
   xmlns:xlink="http://www.w3.org/1999/xlink"
   xmlns="http://www.w3.org/2000/svg"
   xmlns:svg="http://www.w3.org/2000/svg">
  <sodipodi:namedview
     id="namedview7"
     pagecolor="#ffffff"
     bordercolor="#666666"
     borderopacity="1.0"
     inkscape:pageshadow="2"
     inkscape:pageopacity="0.0"
     inkscape:pagecheckerboard="0"
     inkscape:document-units="px"
     showgrid="false"
     units="px"
     height="48px"
     inkscape:zoom="3.9999998"
     inkscape:cx="74.250003"
     inkscape:cy="52.625002"
     inkscape:window-width="1920"
     inkscape:window-height="1011"
     inkscape:window-x="0"
     inkscape:window-y="0"
     inkscape:window-maximized="1"
     inkscape:current-layer="svg5"
     inkscape:lockguides="true" />
  <defs
     id="defs2">
    <linearGradient
       inkscape:collect="always"
       id="linearGradient5398">
      <stop
         style="stop-color:#000000;stop-opacity:1;"
         offset="0"
         id="stop5394" />
      <stop
         style="stop-color:#000000;stop-opacity:0;"
         offset="1"
         id="stop5396" />
    </linearGradient>
    <linearGradient
       inkscape:collect="always"
       id="linearGradient4126">
      <stop
         style="stop-color:#cbcbcb;stop-opacity:1"
         offset="0"
         id="stop4122" />
      <stop
         style="stop-color:#ffffff;stop-opacity:1"
         offset="1"
         id="stop4124" />
    </linearGradient>
    <linearGradient
       inkscape:collect="always"
       id="linearGradient2772">
      <stop
         style="stop-color:#cc47c0;stop-opacity:1"
         offset="0"
         id="stop2768" />
      <stop
         style="stop-color:#77216f;stop-opacity:1"
         offset="1"
         id="stop2770" />
    </linearGradient>
    <linearGradient
       inkscape:collect="always"
       id="linearGradient2542">
      <stop
         style="stop-color:#666666;stop-opacity:1"
         offset="0"
         id="stop2538" />
      <stop
         style="stop-color:#939393;stop-opacity:1"
         offset="1"
         id="stop2540" />
    </linearGradient>
    <linearGradient
       inkscape:collect="always"
       id="linearGradient948">
      <stop
         style="stop-color:#e6e6e6;stop-opacity:1"
         offset="0"
         id="stop944" />
      <stop
         style="stop-color:#f9f9f9;stop-opacity:1"
         offset="1"
         id="stop946" />
    </linearGradient>
    <linearGradient
       inkscape:collect="always"
       xlink:href="#linearGradient4126"
       id="linearGradient4128"
       x1="3.4395838"
       y1="7.9375"
       x2="3.4395835"
       y2="4.2333331"
       gradientUnits="userSpaceOnUse"
       gradientTransform="matrix(1.1,0,0,1.1,-0.39687557,-0.97895835)" />
    <linearGradient
       inkscape:collect="always"
       xlink:href="#linearGradient4126"
       id="linearGradient4574"
       gradientUnits="userSpaceOnUse"
       x1="3.4395838"
       y1="7.9375"
       x2="3.4395835"
       y2="4.2333331"
       gradientTransform="matrix(1.1,0,0,1.1,5.6885415,5.1064584)" />
    <linearGradient
       inkscape:collect="always"
       xlink:href="#linearGradient5398"
       id="linearGradient5400"
       x1="12"
       y1="53.75"
       x2="52"
       y2="13.75"
       gradientUnits="userSpaceOnUse"
       gradientTransform="translate(0.99999944)" />
    <linearGradient
       inkscape:collect="always"
       xlink:href="#linearGradient37218"
       id="linearGradient1781"
       x1="2.8346456e-08"
       y1="2.2677165e-07"
       x2="64"
       y2="64"
       gradientUnits="userSpaceOnUse"
       gradientTransform="scale(0.26458333)" />
    <linearGradient
       inkscape:collect="always"
       id="linearGradient37218">
      <stop
         style="stop-color:#ffffff;stop-opacity:1"
         offset="0"
         id="stop37214" />
      <stop
         style="stop-color:#717171;stop-opacity:0.00392157"
         offset="0.49741825"
         id="stop37220" />
      <stop
         style="stop-color:#000000;stop-opacity:1"
         offset="1"
         id="stop37216" />
    </linearGradient>
    <linearGradient
       inkscape:collect="always"
       xlink:href="#linearGradient948"
       id="linearGradient960"
       x1="11.641666"
       y1="16.933334"
       x2="11.641666"
       y2="6.7529299e-07"
       gradientUnits="userSpaceOnUse" />
    <linearGradient
       inkscape:collect="always"
       xlink:href="#linearGradient2772"
       id="linearGradient1067"
       x1="7.6729164"
       y1="8.7312498"
       x2="7.6729164"
       y2="14.022916"
       gradientUnits="userSpaceOnUse"
       gradientTransform="matrix(1,0,0,1.0714286,0,-6.7657747)" />
    <linearGradient
       inkscape:collect="always"
       xlink:href="#linearGradient2542"
       id="linearGradient1457"
       x1="7.1437497"
       y1="14.684375"
       x2="7.1437497"
       y2="8.8635416"
       gradientUnits="userSpaceOnUse" />
  </defs>
  <path
     id="rect863"
     style="fill:url(#linearGradient960);stroke-width:0.264583;fill-opacity:1"
     d="M 3.1749999,1.0583333 H 13.758333 c 1.172634,0 2.116667,0.944034 2.116667,2.116667 V 13.758333 c 0,1.172634 -0.944033,2.116667 -2.116667,2.116667 H 3.1749999 c -1.1726326,0 -2.1166666,-0.944033 -2.1166666,-2.116667 V 3.1750003 c 0,-1.172633 0.944034,-2.116667 2.1166666,-2.116667 z" />
  <path
     id="rect1345"
     style="opacity:0.3;fill:url(#linearGradient1781);fill-opacity:1;stroke-width:0.264583"
     d="m 3.1749999,1.0583333 c -1.1726326,0 -2.1166666,0.944034 -2.1166666,2.116667 V 13.758333 c 0,1.172634 0.944034,2.116667 2.1166666,2.116667 H 13.758334 c 1.172633,0 2.116666,-0.944033 2.116666,-2.116667 V 3.1750003 c 0,-1.172633 -0.944033,-2.116667 -2.116666,-2.116667 z m 0,0.264584 H 13.758334 c 1.026054,0 1.852083,0.826029 1.852083,1.852083 V 13.758333 c 0,1.026054 -0.826029,1.852084 -1.852083,1.852084 H 3.1749999 c -1.0260536,0 -1.8520826,-0.82603 -1.8520826,-1.852084 V 3.1750003 c 0,-1.026054 0.826029,-1.852083 1.8520826,-1.852083 z" />
  <path
     id="rect1276-6"
     style="opacity:0.3;fill:url(#linearGradient5400);fill-opacity:1;stroke-width:2.70955;stroke-linecap:round;stroke-linejoin:round"
     d="M 13.017578,21 C 13.006777,21.16542 13,21.331755 13,21.5 c 0,4.155 3.345,7.5 7.5,7.5 h 23 c 4.155,0 7.5,-3.345 7.5,-7.5 0,-0.168245 -0.0068,-0.33458 -0.01758,-0.5 -0.255935,3.919826 -3.495667,7 -7.482422,7 h -23 c -3.986755,0 -7.226487,-3.080174 -7.482422,-7 z m 0,23 C 13.006777,44.16542 13,44.331755 13,44.5 c 0,4.155 3.345,7.5 7.5,7.5 h 23 c 4.155,0 7.5,-3.345 7.5,-7.5 0,-0.168245 -0.0068,-0.33458 -0.01758,-0.5 -0.255935,3.919826 -3.495667,7 -7.482422,7 h -23 c -3.986755,0 -7.226487,-3.080174 -7.482422,-7 z"
     transform="scale(0.26458333)"
     sodipodi:nodetypes="csssscssccsssscssc" />
  <rect
     style="fill:url(#linearGradient1457);fill-opacity:1;stroke-width:2.46483;stroke-linecap:round;stroke-linejoin:round"
     id="rect875"
     width="10.054167"
     height="3.96875"
     x="3.4395833"
     y="9.5249996"
     ry="1.984375" />
  <rect
     style="fill:url(#linearGradient1067);fill-opacity:1;stroke-width:2.46483;stroke-linecap:round;stroke-linejoin:round"
     id="rect979"
     width="10.054167"
     height="3.96875"
     x="3.4395833"
     y="3.4395833"
     ry="1.984375" />
  <circle
     style="fill:url(#linearGradient4574);fill-opacity:1;stroke-width:1.02649;stroke-linecap:round;stroke-linejoin:round"
     id="path3468-5"
     cx="11.509375"
     cy="11.509375"
     r="1.4552083" />
  <circle
     style="opacity:1;fill:url(#linearGradient4128);fill-opacity:1;stroke-width:1.02649;stroke-linecap:round;stroke-linejoin:round"
     id="path3468"
     cx="5.4239583"
     cy="5.4239583"
     r="1.4552083" />
</svg>
