<?xml version="1.0" encoding="UTF-8" standalone="no"?>
<!-- Created with Inkscape (http://www.inkscape.org/) -->

<svg
   width="64"
   height="64"
   viewBox="0 0 16.933333 16.933333"
   version="1.1"
   id="svg5"
   inkscape:version="1.1.1 (3bf5ae0d25, 2021-09-20, custom)"
   sodipodi:docname="usb-creator.svg"
   xmlns:inkscape="http://www.inkscape.org/namespaces/inkscape"
   xmlns:sodipodi="http://sodipodi.sourceforge.net/DTD/sodipodi-0.dtd"
   xmlns:xlink="http://www.w3.org/1999/xlink"
   xmlns="http://www.w3.org/2000/svg"
   xmlns:svg="http://www.w3.org/2000/svg">
  <sodipodi:namedview
     id="namedview7"
     pagecolor="#ffffff"
     bordercolor="#666666"
     borderopacity="1.0"
     inkscape:pageshadow="2"
     inkscape:pageopacity="0.0"
     inkscape:pagecheckerboard="0"
     inkscape:document-units="px"
     showgrid="false"
     units="px"
     height="48px"
     inkscape:zoom="7.9999996"
     inkscape:cx="27.375001"
     inkscape:cy="48.187502"
     inkscape:window-width="1920"
     inkscape:window-height="1011"
     inkscape:window-x="0"
     inkscape:window-y="0"
     inkscape:window-maximized="1"
     inkscape:current-layer="svg5"
     inkscape:lockguides="true" />
  <defs
     id="defs2">
    <linearGradient
       inkscape:collect="always"
       id="linearGradient4405">
      <stop
         style="stop-color:#000000;stop-opacity:1;"
         offset="0"
         id="stop4401" />
      <stop
         style="stop-color:#000000;stop-opacity:0;"
         offset="1"
         id="stop4403" />
    </linearGradient>
    <linearGradient
       inkscape:collect="always"
       id="linearGradient2219">
      <stop
         style="stop-color:#666666;stop-opacity:1"
         offset="0"
         id="stop2215" />
      <stop
         style="stop-color:#333333;stop-opacity:1"
         offset="1"
         id="stop2217" />
    </linearGradient>
    <linearGradient
       inkscape:collect="always"
       xlink:href="#linearGradient37218"
       id="linearGradient1781"
       x1="2.8346456e-08"
       y1="2.2677165e-07"
       x2="64"
       y2="64"
       gradientUnits="userSpaceOnUse"
       gradientTransform="scale(0.26458333)" />
    <linearGradient
       inkscape:collect="always"
       id="linearGradient37218">
      <stop
         style="stop-color:#fefefe;stop-opacity:1"
         offset="0"
         id="stop37214" />
      <stop
         style="stop-color:#717171;stop-opacity:0.00392157"
         offset="0.49741825"
         id="stop37220" />
      <stop
         style="stop-color:#000000;stop-opacity:1"
         offset="1"
         id="stop37216" />
    </linearGradient>
    <linearGradient
       inkscape:collect="always"
       xlink:href="#linearGradient6592"
       id="linearGradient9317"
       x1="7.4263854"
       y1="2.9217856"
       x2="11.617343"
       y2="16.150953"
       gradientUnits="userSpaceOnUse"
       gradientTransform="translate(1.8520846,-1.5874971)" />
    <linearGradient
       inkscape:collect="always"
       id="linearGradient6592">
      <stop
         style="stop-color:#d3dede;stop-opacity:1"
         offset="0"
         id="stop6588" />
      <stop
         style="stop-color:#a0b4ba;stop-opacity:1"
         offset="1"
         id="stop6590" />
    </linearGradient>
    <linearGradient
       inkscape:collect="always"
       xlink:href="#linearGradient6967"
       id="linearGradient6405"
       x1="25.979755"
       y1="15.941854"
       x2="10.609599"
       y2="17.529354"
       gradientUnits="userSpaceOnUse"
       gradientTransform="translate(-11.427671,-9.7667798)" />
    <linearGradient
       inkscape:collect="always"
       id="linearGradient6967">
      <stop
         style="stop-color:#4c6565;stop-opacity:1"
         offset="0"
         id="stop6963" />
      <stop
         style="stop-color:#4c6565;stop-opacity:0"
         offset="0.23112841"
         id="stop7419" />
      <stop
         style="stop-color:#4c6565;stop-opacity:0"
         offset="1"
         id="stop6965" />
    </linearGradient>
    <linearGradient
       inkscape:collect="always"
       xlink:href="#linearGradient6967"
       id="linearGradient5316"
       x1="10.633923"
       y1="15.412689"
       x2="25.955433"
       y2="16.471022"
       gradientUnits="userSpaceOnUse"
       gradientTransform="translate(-8.2526714,-9.7667778)" />
    <linearGradient
       inkscape:collect="always"
       xlink:href="#linearGradient4519"
       id="linearGradient4521"
       x1="0.5291667"
       y1="17.991667"
       x2="16.933332"
       y2="11.641667"
       gradientUnits="userSpaceOnUse"
       gradientTransform="translate(1.8520846,-1.5874971)" />
    <linearGradient
       inkscape:collect="always"
       id="linearGradient4519">
      <stop
         style="stop-color:#333333;stop-opacity:1"
         offset="0"
         id="stop4515" />
      <stop
         style="stop-color:#666666;stop-opacity:1"
         offset="1"
         id="stop4517" />
    </linearGradient>
    <linearGradient
       inkscape:collect="always"
       xlink:href="#linearGradient6592"
       id="linearGradient5805"
       x1="65.147461"
       y1="63.637695"
       x2="31.289062"
       y2="5.6005864"
       gradientUnits="userSpaceOnUse"
       gradientTransform="matrix(0.26458334,0,0,0.26458334,1.8520846,-1.5874971)" />
    <linearGradient
       inkscape:collect="always"
       xlink:href="#linearGradient10984"
       id="linearGradient10986"
       x1="12.170834"
       y1="14.2875"
       x2="14.285242"
       y2="14.306756"
       gradientUnits="userSpaceOnUse"
       gradientTransform="matrix(3.2499998,0,0,1,-34.52813,-1.5874971)" />
    <linearGradient
       inkscape:collect="always"
       id="linearGradient10984">
      <stop
         style="stop-color:#2ed231;stop-opacity:1;"
         offset="0"
         id="stop10980" />
      <stop
         style="stop-color:#93da54;stop-opacity:1"
         offset="1"
         id="stop10982" />
    </linearGradient>
    <linearGradient
       inkscape:collect="always"
       xlink:href="#linearGradient2219"
       id="linearGradient2221"
       x1="10.054167"
       y1="6.7529299e-07"
       x2="10.054167"
       y2="16.933334"
       gradientUnits="userSpaceOnUse" />
    <linearGradient
       inkscape:collect="always"
       xlink:href="#linearGradient4405"
       id="linearGradient4407"
       x1="5"
       y1="41.740234"
       x2="59"
       y2="57.740234"
       gradientUnits="userSpaceOnUse" />
  </defs>
  <path
     id="rect863"
     style="fill:url(#linearGradient2221);stroke-width:0.264583;fill-opacity:1"
     d="M 3.1750003,1.0583333 H 13.758333 c 1.172634,0 2.116667,0.944034 2.116667,2.116667 V 13.758333 c 0,1.172634 -0.944033,2.116667 -2.116667,2.116667 H 3.1750003 c -1.172633,0 -2.116667,-0.944033 -2.116667,-2.116667 V 3.1750003 c 0,-1.172633 0.944034,-2.116667 2.116667,-2.116667 z" />
  <path
     id="rect1345"
     style="opacity:0.3;fill:url(#linearGradient1781);fill-opacity:1;stroke-width:0.264583"
     d="m 3.1750003,1.0583333 c -1.172633,0 -2.116667,0.944034 -2.116667,2.116667 V 13.758333 c 0,1.172634 0.944034,2.116667 2.116667,2.116667 H 13.758334 c 1.172633,0 2.116666,-0.944033 2.116666,-2.116667 V 3.1750003 c 0,-1.172633 -0.944033,-2.116667 -2.116666,-2.116667 z m 0,0.264584 H 13.758334 c 1.026054,0 1.852083,0.826029 1.852083,1.852083 V 13.758333 c 0,1.026054 -0.826029,1.852084 -1.852083,1.852084 H 3.1750003 c -1.026054,0 -1.852083,-0.82603 -1.852083,-1.852084 V 3.1750003 c 0,-1.026054 0.826029,-1.852083 1.852083,-1.852083 z" />
  <path
     id="path1957"
     style="color:#000000;fill:url(#linearGradient9317);fill-opacity:1;stroke:none;stroke-width:1;stroke-linecap:round;stroke-linejoin:round;-inkscape-stroke:none"
     d="m 5.5572496,2.3812533 c -0.671573,-1.51e-4 -1.236922,0.502894 -1.314648,1.1699539 L 2.9284696,12.458158 13.998594,12.422498 12.690665,3.5512042 C 12.612935,2.8841443 12.048107,2.3810993 11.376533,2.3812503 Z"
     sodipodi:nodetypes="ccccccc" />
  <path
     id="path1957-5"
     style="color:#000000;opacity:0.4;fill:url(#linearGradient6405);fill-opacity:1;stroke:none;stroke-width:1;stroke-linecap:round;stroke-linejoin:round;-inkscape-stroke:none"
     d="m 5.5572486,2.38125 c -0.671574,-1.51e-4 -1.236923,0.502894 -1.314648,1.1699539 l -1.314132,8.9069511 c 0.116035,-0.763617 0.772389,-1.345138 1.569413,-1.345138 h 7.9375004 c 0.784557,0 1.432453,0.563514 1.563212,1.309481 L 12.690665,3.5512039 C 12.612935,2.884144 12.048106,2.381099 11.376532,2.38125 Z m -2.639632,10.169922 -0.0072,0.06356 h 0.0026 c 0.0011,-0.02137 0.0027,-0.04242 0.0046,-0.06356 z"
     inkscape:label="path1957-5"
     sodipodi:nodetypes="cccsscccccccc" />
  <path
     id="path1957-3"
     style="color:#000000;opacity:0.4;fill:url(#linearGradient5316);fill-opacity:1;stroke:none;stroke-width:1;stroke-linecap:round;stroke-linejoin:round;-inkscape-stroke:none"
     d="m 5.5572486,2.3812543 c -0.671574,-1.51e-4 -1.236923,0.502893 -1.314648,1.1699539 l -1.314131,8.9069498 c 0.116035,-0.763617 0.772389,-1.345138 1.569412,-1.345138 h 7.9375014 c 0.784555,0 1.432452,0.563515 1.563211,1.309481 L 12.690665,3.5512082 C 12.612935,2.8841473 12.048107,2.3811033 11.376533,2.3812543 Z m -2.639631,10.1699217 -0.0072,0.06356 h 0.0026 c 0.0011,-0.02137 0.0027,-0.04243 0.0046,-0.06356 z"
     sodipodi:nodetypes="cccsscccccccc" />
  <path
     id="rect846"
     style="fill:url(#linearGradient4521);stroke-width:0.237835"
     d="m 4.4979176,11.112503 h 7.9375004 c 0.879474,0 1.587499,0.708025 1.587499,1.5875 0,0.879475 -0.708025,1.5875 -1.587499,1.5875 H 4.4979176 c -0.879475,0 -1.5875,-0.708025 -1.5875,-1.5875 0,-0.879475 0.708025,-1.5875 1.5875,-1.5875 z"
     sodipodi:nodetypes="sssssss" />
  <path
     id="path1957-3-5"
     style="color:#000000;opacity:0.4;fill:url(#linearGradient4407);fill-opacity:1;stroke:none;stroke-width:3.77953;stroke-linecap:round;stroke-linejoin:round;-inkscape-stroke:none"
     d="M 11.021484 48.480469 L 11 48.677734 L 11.007812 48.677734 C 11.002181 48.784771 11 48.89149 11 49 C 11 52.324 13.676 55 17 55 L 47 55 C 50.323996 55 53 52.324 53 49 C 53 48.832742 52.990536 48.667354 52.976562 48.503906 C 52.722132 51.590241 50.154181 54 47 54 L 17 54 C 13.837821 54 11.264777 51.578054 11.021484 48.480469 z "
     transform="scale(0.26458333)" />
  <path
     id="rect5143"
     style="opacity:0.5;fill:url(#linearGradient5805);fill-opacity:1;stroke:none;stroke-width:1.5875;stroke-linecap:round;stroke-linejoin:round;stroke-miterlimit:4;stroke-dasharray:none;stroke-opacity:1"
     d="m 4.4979176,11.112503 c -0.879475,0 -1.5875,0.708025 -1.5875,1.5875 0,0.879475 0.708025,1.5875 1.5875,1.5875 h 7.9375014 c 0.879474,0 1.587499,-0.708025 1.587499,-1.5875 0,-0.879475 -0.708025,-1.5875 -1.587499,-1.5875 z m 0,0.529167 h 7.9375014 c 0.586315,0 1.058332,0.472017 1.058332,1.058333 0,0.586317 -0.472017,1.058334 -1.058332,1.058334 H 4.4979176 c -0.586317,0 -1.058334,-0.472017 -1.058334,-1.058334 0,-0.586316 0.472017,-1.058333 1.058334,-1.058333 z"
     sodipodi:nodetypes="ssssssssssssss" />
  <rect
     style="fill:url(#linearGradient10986);fill-opacity:1;stroke:none;stroke-width:1.96813;stroke-linecap:round;stroke-linejoin:round;stroke-miterlimit:4;stroke-dasharray:none;stroke-opacity:1"
     id="rect10502"
     width="6.8791666"
     height="0.5291667"
     x="5.0270848"
     y="12.43542"
     ry="0.26458335" />
  <path
     id="path72"
     d="m 8.4867998,4.1681851 c -0.031395,5.58e-5 -0.060426,0.014235 -0.074931,0.03669 l -0.5426023,0.840259 c -0.013473,0.020934 -0.012597,0.046451 0.00259,0.066663 0.015232,0.020275 0.04252,0.032514 0.07183,0.032556 L 8.2170581,5.144882 8.2118908,7.5550708 7.3659478,7.0941172 7.366477,6.732382 C 7.4977738,6.6626034 7.5847667,6.5429832 7.5850683,6.4068207 7.5857033,6.1907672 7.3686786,6.0154043 7.1003434,6.0151133 6.8325057,6.0146105 6.6151405,6.1897282 6.6145848,6.4057869 6.6141615,6.5420447 6.7006148,6.6617136 6.831626,6.7318653 l -0.00103,0.4764566 c -2.061e-4,0.071819 0.043885,0.1386925 0.1178224,0.1788007 l 1.2624311,0.687284 -0.00156,0.7431071 C 8.0312484,8.8944228 7.9089,9.044263 7.9085296,9.2185229 7.9082121,9.4710994 8.1614964,9.6758467 8.4749033,9.6763761 8.7886727,9.6767994 9.042815,9.4727422 9.0433442,9.220073 9.043794,9.0458502 8.9218608,8.8960437 8.7441375,8.8185472 l 0.00311,-1.4133504 1.203544,-0.6500895 c 0.014441,-0.00782 0.027707,-0.016655 0.039791,-0.026355 0.049713,-0.03992 0.078452,-0.094692 0.078547,-0.1524453 l 0.0016,-0.569991 h 0.103353 c 0.02825,-1.67e-5 0.05494,-0.00875 0.07493,-0.024805 0.01998,-0.016047 0.03142,-0.037678 0.03152,-0.060461 l 10e-4,-0.5978965 c 1.77e-4,-0.047392 -0.04715,-0.085751 -0.105936,-0.085783 l -0.7415568,-0.00103 c -0.028255,1.67e-5 -0.055471,0.00875 -0.075448,0.024805 -0.019989,0.016055 -0.031414,0.038203 -0.031523,0.060978 l -0.00103,0.5973796 c -2.395e-4,0.047342 0.047695,0.085801 0.1064535,0.085783 l 0.1033529,5.292e-4 -0.00103,0.4552693 -0.7865152,0.4247801 0.00362,-1.740462 0.2733683,5.292e-4 c 0.029326,4.04e-5 0.056635,-0.012425 0.07183,-0.032556 0.015319,-0.020238 0.016547,-0.045125 0.0031,-0.066146 L 8.5612138,4.2048754 c -0.014433,-0.022389 -0.043053,-0.036603 -0.074414,-0.03669 z"
     style="stroke-width:0.264583;fill:#4d4d4d;opacity:0.3" />
</svg>
