<?xml version="1.0" encoding="UTF-8" standalone="no"?>
<!-- Created with Inkscape (http://www.inkscape.org/) -->

<svg
   width="64"
   height="64"
   viewBox="0 0 16.933333 16.933333"
   version="1.1"
   id="svg5"
   inkscape:version="1.1.1 (3bf5ae0d25, 2021-09-20, custom)"
   sodipodi:docname="utilities-terminal.svg"
   xmlns:inkscape="http://www.inkscape.org/namespaces/inkscape"
   xmlns:sodipodi="http://sodipodi.sourceforge.net/DTD/sodipodi-0.dtd"
   xmlns:xlink="http://www.w3.org/1999/xlink"
   xmlns="http://www.w3.org/2000/svg"
   xmlns:svg="http://www.w3.org/2000/svg">
  <sodipodi:namedview
     id="namedview7"
     pagecolor="#ffffff"
     bordercolor="#666666"
     borderopacity="1.0"
     inkscape:pageshadow="2"
     inkscape:pageopacity="0.0"
     inkscape:pagecheckerboard="0"
     inkscape:document-units="px"
     showgrid="false"
     units="px"
     height="48px"
     inkscape:zoom="5.656854"
     inkscape:cx="21.124816"
     inkscape:cy="21.831923"
     inkscape:window-width="1853"
     inkscape:window-height="1019"
     inkscape:window-x="0"
     inkscape:window-y="0"
     inkscape:window-maximized="1"
     inkscape:current-layer="svg5"
     inkscape:lockguides="true" />
  <defs
     id="defs2">
    <linearGradient
       inkscape:collect="always"
       id="linearGradient3187">
      <stop
         style="stop-color:#ffffff;stop-opacity:1"
         offset="0"
         id="stop3183" />
      <stop
         style="stop-color:#ffffff;stop-opacity:0"
         offset="1"
         id="stop3185" />
    </linearGradient>
    <linearGradient
       inkscape:collect="always"
       id="linearGradient1106">
      <stop
         style="stop-color:#333333;stop-opacity:1;"
         offset="0"
         id="stop1102" />
      <stop
         style="stop-color:#4d4d4d;stop-opacity:1"
         offset="1"
         id="stop1104" />
    </linearGradient>
    <linearGradient
       inkscape:collect="always"
       xlink:href="#linearGradient3187"
       id="linearGradient3189"
       x1="17"
       y1="51.75"
       x2="47"
       y2="23.75"
       gradientUnits="userSpaceOnUse" />
    <linearGradient
       inkscape:collect="always"
       xlink:href="#linearGradient37218-3"
       id="linearGradient1781"
       x1="2.8346456e-08"
       y1="2.2677165e-07"
       x2="64"
       y2="64"
       gradientUnits="userSpaceOnUse"
       gradientTransform="matrix(0.26458333,0,0,0.26458333,1.3125e-6,1.125e-7)" />
    <linearGradient
       inkscape:collect="always"
       id="linearGradient37218-3">
      <stop
         style="stop-color:#d1d1d1;stop-opacity:1"
         offset="0"
         id="stop37214-6" />
      <stop
         style="stop-color:#717171;stop-opacity:0.00392157"
         offset="0.49741825"
         id="stop37220-7" />
      <stop
         style="stop-color:#181818;stop-opacity:1"
         offset="1"
         id="stop37216-5" />
    </linearGradient>
    <linearGradient
       inkscape:collect="always"
       xlink:href="#linearGradient1106"
       id="linearGradient1001"
       x1="1.0583344"
       y1="8.4666672"
       x2="15.875001"
       y2="8.4666672"
       gradientUnits="userSpaceOnUse" />
  </defs>
  <path
     id="rect863"
     style="fill:url(#linearGradient1001);fill-opacity:1;stroke-width:0.264583"
     d="M 3.1749993,1.0583333 H 13.758333 c 1.172634,0 2.116667,0.9440332 2.116667,2.1166662 V 13.758333 c 0,1.172634 -0.944033,2.116667 -2.116667,2.116667 H 3.1749993 c -1.172632,0 -2.116666,-0.944033 -2.116666,-2.116667 V 3.1749995 c 0,-1.172633 0.944034,-2.1166662 2.116666,-2.1166662 z" />
  <path
     id="rect1345"
     style="opacity:0.3;fill:url(#linearGradient1781);fill-opacity:1;stroke-width:0.264583"
     d="m 3.1750003,1.0583333 c -1.172633,0 -2.116667,0.9440335 -2.116667,2.1166668 V 13.758333 c 0,1.172634 0.944034,2.116667 2.116667,2.116667 H 13.758334 c 1.172633,0 2.116666,-0.944033 2.116666,-2.116667 V 3.1750001 c 0,-1.1726333 -0.944033,-2.1166668 -2.116666,-2.1166668 z m 0,0.2645834 H 13.758334 c 1.026054,0 1.852083,0.8260292 1.852083,1.8520834 V 13.758333 c 0,1.026054 -0.826029,1.852084 -1.852083,1.852084 H 3.1750003 c -1.026055,0 -1.852083,-0.82603 -1.852083,-1.852084 V 3.1750001 c 0,-1.0260542 0.826028,-1.8520834 1.852083,-1.8520834 z" />
  <path
     id="rect1562-6"
     style="fill:url(#linearGradient3189);stroke-width:1.0323;opacity:0.3;fill-opacity:1"
     d="M 17.5 21.5 L 17 22 L 27.5 32.5 L 28 32 L 17.5 21.5 z M 31.5 32.5 L 19 45 L 17.5 43.5 L 17 44 L 19 46 L 32 33 L 31.5 32.5 z M 32 45 L 32 46 L 47 46 L 47 45 L 32 45 z "
     transform="scale(0.26458333)" />
  <path
     id="rect1562"
     style="opacity:1;fill:#ffffff;stroke-width:1.0323"
     d="M 19 19 L 17 21 L 28 32 L 17 43 L 19 45 L 32 32 L 19 19 z M 32 42 L 32 45 L 47 45 L 47 42 L 32 42 z "
     transform="scale(0.26458333)" />
</svg>
