<?xml version="1.0" encoding="UTF-8" standalone="no"?>
<!-- Created with Inkscape (http://www.inkscape.org/) -->

<svg
   width="64"
   height="64"
   viewBox="0 0 16.933333 16.933333"
   version="1.1"
   id="svg5"
   inkscape:version="1.1.1 (3bf5ae0d25, 2021-09-20, custom)"
   sodipodi:docname="utilities-system-monitor.svg"
   xmlns:inkscape="http://www.inkscape.org/namespaces/inkscape"
   xmlns:sodipodi="http://sodipodi.sourceforge.net/DTD/sodipodi-0.dtd"
   xmlns:xlink="http://www.w3.org/1999/xlink"
   xmlns="http://www.w3.org/2000/svg"
   xmlns:svg="http://www.w3.org/2000/svg">
  <sodipodi:namedview
     id="namedview7"
     pagecolor="#ffffff"
     bordercolor="#666666"
     borderopacity="1.0"
     inkscape:pageshadow="2"
     inkscape:pageopacity="0.0"
     inkscape:pagecheckerboard="0"
     inkscape:document-units="px"
     showgrid="false"
     units="px"
     height="48px"
     inkscape:zoom="5.6568543"
     inkscape:cx="38.006989"
     inkscape:cy="64.611882"
     inkscape:window-width="1920"
     inkscape:window-height="1019"
     inkscape:window-x="0"
     inkscape:window-y="0"
     inkscape:window-maximized="1"
     inkscape:current-layer="svg5"
     inkscape:lockguides="true" />
  <defs
     id="defs2">
    <linearGradient
       inkscape:collect="always"
       id="linearGradient5370">
      <stop
         style="stop-color:#3e8cda;stop-opacity:0"
         offset="0"
         id="stop5366" />
      <stop
         style="stop-color:#3e8cda;stop-opacity:0"
         offset="0.2"
         id="stop6643" />
      <stop
         style="stop-color:#3e8cda;stop-opacity:1"
         offset="0.4956589"
         id="stop5758" />
      <stop
         style="stop-color:#3e8cda;stop-opacity:0"
         offset="0.80000001"
         id="stop12707" />
      <stop
         style="stop-color:#3e8cda;stop-opacity:0"
         offset="1"
         id="stop5368" />
    </linearGradient>
    <linearGradient
       inkscape:collect="always"
       id="linearGradient867">
      <stop
         style="stop-color:#4d4d4d;stop-opacity:1;"
         offset="0"
         id="stop863" />
      <stop
         style="stop-color:#1a1a1a;stop-opacity:1"
         offset="1"
         id="stop865" />
    </linearGradient>
    <linearGradient
       inkscape:collect="always"
       id="linearGradient37218">
      <stop
         style="stop-color:#1a1a1a;stop-opacity:1"
         offset="0"
         id="stop37214" />
      <stop
         style="stop-color:#e6e6e6;stop-opacity:0.00306325"
         offset="0.49741825"
         id="stop37220" />
      <stop
         style="stop-color:#ffffff;stop-opacity:1"
         offset="1"
         id="stop37216" />
    </linearGradient>
    <linearGradient
       inkscape:collect="always"
       xlink:href="#linearGradient37218"
       id="linearGradient881"
       x1="64.208344"
       y1="64.062607"
       x2="0.30528301"
       y2="0.13507102"
       gradientUnits="userSpaceOnUse" />
    <linearGradient
       inkscape:collect="always"
       xlink:href="#linearGradient867"
       id="linearGradient869"
       x1="7.4083333"
       y1="-2.7838135e-07"
       x2="7.4083328"
       y2="16.933332"
       gradientUnits="userSpaceOnUse" />
    <linearGradient
       inkscape:collect="always"
       xlink:href="#linearGradient5370"
       id="linearGradient3786"
       gradientUnits="userSpaceOnUse"
       x1="-1.0583333"
       y1="8.2020836"
       x2="17.991665"
       y2="8.2020836"
       gradientTransform="matrix(3.7795276,0,0,3.7795276,0,0.99999895)" />
  </defs>
  <path
     id="rect846-3"
     style="fill:url(#linearGradient869);stroke-width:0.337527;fill-opacity:1"
     d="m 3.175,1.5875 h 10.583333 c 0.879475,0 1.5875,0.708025 1.5875,1.5875 v 10.583333 c 0,0.879475 -0.708025,1.5875 -1.5875,1.5875 H 3.175 c -0.879475,0 -1.5875,-0.708025 -1.5875,-1.5875 V 3.175 c 0,-0.879475 0.708025,-1.5875 1.5875,-1.5875 z" />
  <path
     id="rect1408"
     style="opacity:0.3;fill:#3e8cda;fill-opacity:1;stroke-width:0.143189"
     d="m 1.5875,8.4666665 4.1010419,-2e-7 1.7197913,-3.7041664 2.2489583,5.8208331 1.0583335,-2.1166667 4.630208,2e-7 v 0.5291666 l -4.233333,-1e-7 -1.4552086,3.175 L 7.4083345,6.0854165 6.0854174,8.9958333 1.5875,8.9958331 Z"
     sodipodi:nodetypes="ccccccccccccc" />
  <path
     id="rect1408-5"
     style="fill:url(#linearGradient3786);fill-opacity:1;stroke-width:0.541187"
     d="M 28,18 21.499998,32 H 6 v 2 H 23 L 28.000005,23 36.5,46 42.000001,34 H 46 c 0.554003,0 1,-0.446 1,-1 0,-0.554 -0.445997,-1 -1,-1 h -5.5 l -4,8 z"
     sodipodi:nodetypes="ccccccccsssccc"
     transform="scale(0.26458333)" />
  <path
     id="rect1747"
     style="opacity:0.3;fill:#206aa4;stroke-width:0.260904;fill-opacity:1"
     d="m 15.345833,8.9958332 v 4.7624998 c 0,0.879475 -0.708025,1.5875 -1.5875,1.5875 H 3.1750001 C 2.295525,15.345833 1.5875,14.637808 1.5875,13.758333 V 8.9958332 l 4.4979174,10e-8 L 7.4083345,6.0854165 9.6572914,12.170833 11.1125,8.9958332 Z"
     sodipodi:nodetypes="csssscccccc" />
  <path
     id="rect846"
     style="opacity:0.3;fill:url(#linearGradient881);stroke-width:1.27569;fill-opacity:1"
     d="M 12 6 C 8.6760005 6 6 8.6760005 6 12 L 6 52 C 6 55.324 8.6760005 58 12 58 L 52 58 C 55.324 58 58 55.324 58 52 L 58 12 C 58 8.6760005 55.324 6 52 6 L 12 6 z M 12 7 L 52 7 C 54.77 7 57 9.23 57 12 L 57 52 C 57 54.77 54.77 57 52 57 L 12 57 C 9.23 57 7 54.77 7 52 L 7 12 C 7 9.23 9.23 7 12 7 z "
     transform="scale(0.26458333)" />
</svg>
