<?xml version="1.0" encoding="UTF-8" standalone="no"?>
<!-- Created with Inkscape (http://www.inkscape.org/) -->

<svg
   width="64"
   height="64"
   viewBox="0 0 16.933333 16.933333"
   version="1.1"
   id="svg5"
   inkscape:version="1.1.1 (3bf5ae0d25, 2021-09-20, custom)"
   sodipodi:docname="utilities-system-monitor.svg"
   xmlns:inkscape="http://www.inkscape.org/namespaces/inkscape"
   xmlns:sodipodi="http://sodipodi.sourceforge.net/DTD/sodipodi-0.dtd"
   xmlns:xlink="http://www.w3.org/1999/xlink"
   xmlns="http://www.w3.org/2000/svg"
   xmlns:svg="http://www.w3.org/2000/svg">
  <sodipodi:namedview
     id="namedview7"
     pagecolor="#ffffff"
     bordercolor="#666666"
     borderopacity="1.0"
     inkscape:pageshadow="2"
     inkscape:pageopacity="0.0"
     inkscape:pagecheckerboard="0"
     inkscape:document-units="px"
     showgrid="false"
     units="px"
     height="48px"
     inkscape:zoom="7.7669884"
     inkscape:cx="45.191261"
     inkscape:cy="42.35876"
     inkscape:window-width="1920"
     inkscape:window-height="1011"
     inkscape:window-x="0"
     inkscape:window-y="0"
     inkscape:window-maximized="1"
     inkscape:current-layer="svg5"
     inkscape:lockguides="true" />
  <defs
     id="defs2">
    <linearGradient
       inkscape:collect="always"
       id="linearGradient6726">
      <stop
         style="stop-color:#2d92d8;stop-opacity:1;"
         offset="0"
         id="stop6722" />
      <stop
         style="stop-color:#2d92d8;stop-opacity:0;"
         offset="1"
         id="stop6724" />
    </linearGradient>
    <linearGradient
       inkscape:collect="always"
       id="linearGradient5370">
      <stop
         style="stop-color:#3e8cda;stop-opacity:0"
         offset="0"
         id="stop5366" />
      <stop
         style="stop-color:#3e8cda;stop-opacity:0"
         offset="0.2"
         id="stop6643" />
      <stop
         style="stop-color:#3e8cda;stop-opacity:1"
         offset="0.4956589"
         id="stop5758" />
      <stop
         style="stop-color:#3e8cda;stop-opacity:0"
         offset="0.80000001"
         id="stop12707" />
      <stop
         style="stop-color:#3e8cda;stop-opacity:0"
         offset="1"
         id="stop5368" />
    </linearGradient>
    <linearGradient
       inkscape:collect="always"
       id="linearGradient867">
      <stop
         style="stop-color:#4d4d4d;stop-opacity:1;"
         offset="0"
         id="stop863" />
      <stop
         style="stop-color:#1a1a1a;stop-opacity:1"
         offset="1"
         id="stop865" />
    </linearGradient>
    <linearGradient
       inkscape:collect="always"
       id="linearGradient37218">
      <stop
         style="stop-color:#1a1a1a;stop-opacity:1"
         offset="0"
         id="stop37214" />
      <stop
         style="stop-color:#e6e6e6;stop-opacity:0.00306325"
         offset="0.49741825"
         id="stop37220" />
      <stop
         style="stop-color:#ffffff;stop-opacity:1"
         offset="1"
         id="stop37216" />
    </linearGradient>
    <linearGradient
       inkscape:collect="always"
       xlink:href="#linearGradient5370"
       id="linearGradient3786"
       gradientUnits="userSpaceOnUse"
       x1="-1.0583333"
       y1="8.2020836"
       x2="17.991665"
       y2="8.2020836"
       gradientTransform="translate(-3e-7,0.264583)" />
    <linearGradient
       inkscape:collect="always"
       xlink:href="#linearGradient37218"
       id="linearGradient1781"
       x1="64"
       y1="64"
       x2="4.5354329e-07"
       y2="4.5354329e-07"
       gradientUnits="userSpaceOnUse"
       gradientTransform="scale(0.26458333)" />
    <linearGradient
       inkscape:collect="always"
       xlink:href="#linearGradient867"
       id="linearGradient1378"
       x1="1.0583333"
       y1="8.4666672"
       x2="15.874999"
       y2="8.4666672"
       gradientUnits="userSpaceOnUse" />
    <linearGradient
       inkscape:collect="always"
       xlink:href="#linearGradient6726"
       id="linearGradient6728"
       x1="15.874999"
       y1="1.9843751"
       x2="15.874999"
       y2="15.742709"
       gradientUnits="userSpaceOnUse" />
  </defs>
  <path
     id="rect863"
     style="fill:url(#linearGradient1378);stroke-width:0.264583;fill-opacity:1.0"
     d="M 3.1750003,1.0583333 H 13.758332 c 1.172634,0 2.116667,0.944034 2.116667,2.116667 V 13.758333 c 0,1.172634 -0.944033,2.116667 -2.116667,2.116667 H 3.1750003 c -1.172633,0 -2.116667,-0.944033 -2.116667,-2.116667 V 3.1750003 c 0,-1.172633 0.944034,-2.116667 2.116667,-2.116667 z" />
  <path
     id="rect1408"
     style="opacity:0.4;fill:#3a9af8;fill-opacity:1;stroke-width:0.143189"
     d="m 1.0583333,8.4666666 4.6302086,-3e-7 1.7197913,-3.7041664 2.2489583,5.8208331 1.0583335,-2.1166667 5.159375,2e-7 v 0.5291666 l -4.7625,-1e-7 -1.4552086,3.175 -2.2489569,-6.0854165 -1.3229171,2.9104168 -5.0270841,-10e-8 z"
     sodipodi:nodetypes="ccccccccccccc" />
  <path
     id="rect1408-5"
     style="fill:url(#linearGradient3786);fill-opacity:1;stroke-width:0.143189"
     d="M 7.4083325,4.7624999 5.6885408,8.4666665 H 1.058333 V 8.9958332 H 6.0854163 L 7.4083345,6.0854165 9.6572915,12.170833 11.1125,8.9958332 h 1.058333 c 0.14658,0 0.264583,-0.1180042 0.264583,-0.2645834 0,-0.1465791 -0.118003,-0.2645833 -0.264583,-0.2645833 H 10.715624 L 9.6572915,10.583333 Z"
     sodipodi:nodetypes="ccccccccsssccc" />
  <path
     id="rect2315"
     style="opacity:0.6;fill:url(#linearGradient6728);fill-opacity:1;stroke-width:0.180213;stroke-linecap:round;stroke-linejoin:round"
     d="m 6.0854161,8.995834 1.3229184,-2.910417 2.248957,6.085416 1.4552075,-3.174999 4.7625,10e-7 v 4.762498 c 0,1.172633 -0.944034,2.116667 -2.116667,2.116667 H 3.175 c -1.1726336,0 -2.1166672,-0.944034 -2.1166672,-2.116667 V 8.995835 Z"
     sodipodi:nodetypes="cccccsssscc" />
  <path
     id="rect1345"
     style="opacity:0.3;fill:url(#linearGradient1781);fill-opacity:1;stroke-width:0.264583"
     d="m 3.1750003,1.0583333 c -1.172633,0 -2.116667,0.944034 -2.116667,2.116667 V 13.758333 c 0,1.172634 0.944034,2.116667 2.116667,2.116667 H 13.758333 c 1.172633,0 2.116666,-0.944033 2.116666,-2.116667 V 3.1750003 c 0,-1.172633 -0.944033,-2.116667 -2.116666,-2.116667 z m 0,0.264584 H 13.758333 c 1.026054,0 1.852083,0.826029 1.852083,1.852083 V 13.758333 c 0,1.026054 -0.826029,1.852084 -1.852083,1.852084 H 3.1750003 c -1.026054,0 -1.852083,-0.82603 -1.852083,-1.852084 V 3.1750003 c 0,-1.026054 0.826029,-1.852083 1.852083,-1.852083 z" />
</svg>
