<?xml version="1.0" encoding="UTF-8" standalone="no"?>
<!-- Created with Inkscape (http://www.inkscape.org/) -->

<svg
   width="64"
   height="64"
   viewBox="0 0 16.933333 16.933333"
   version="1.1"
   id="svg5"
   inkscape:version="1.1.1 (3bf5ae0d25, 2021-09-20, custom)"
   sodipodi:docname="virtualbox.svg"
   xmlns:inkscape="http://www.inkscape.org/namespaces/inkscape"
   xmlns:sodipodi="http://sodipodi.sourceforge.net/DTD/sodipodi-0.dtd"
   xmlns:xlink="http://www.w3.org/1999/xlink"
   xmlns="http://www.w3.org/2000/svg"
   xmlns:svg="http://www.w3.org/2000/svg">
  <sodipodi:namedview
     id="namedview7"
     pagecolor="#ffffff"
     bordercolor="#666666"
     borderopacity="1.0"
     inkscape:pageshadow="2"
     inkscape:pageopacity="0.0"
     inkscape:pagecheckerboard="0"
     inkscape:document-units="px"
     showgrid="false"
     units="px"
     height="48px"
     inkscape:zoom="11.313708"
     inkscape:cx="36.239224"
     inkscape:cy="34.648234"
     inkscape:window-width="1920"
     inkscape:window-height="1011"
     inkscape:window-x="0"
     inkscape:window-y="0"
     inkscape:window-maximized="1"
     inkscape:current-layer="svg5"
     inkscape:lockguides="true" />
  <defs
     id="defs2">
    <linearGradient
       inkscape:collect="always"
       id="linearGradient6770">
      <stop
         style="stop-color:#37a6ff;stop-opacity:1;"
         offset="0"
         id="stop6766" />
      <stop
         style="stop-color:#6ad8ff;stop-opacity:1"
         offset="1"
         id="stop6768" />
    </linearGradient>
    <linearGradient
       inkscape:collect="always"
       xlink:href="#linearGradient37218-3"
       id="linearGradient1781"
       x1="2.8346456e-08"
       y1="2.2677165e-07"
       x2="64"
       y2="64"
       gradientUnits="userSpaceOnUse"
       gradientTransform="scale(0.26458333)" />
    <linearGradient
       inkscape:collect="always"
       id="linearGradient37218-3">
      <stop
         style="stop-color:#feffff;stop-opacity:1"
         offset="0"
         id="stop37214-6" />
      <stop
         style="stop-color:#717171;stop-opacity:0.00392157"
         offset="0.49741825"
         id="stop37220-7" />
      <stop
         style="stop-color:#000000;stop-opacity:1"
         offset="1"
         id="stop37216-5" />
    </linearGradient>
    <linearGradient
       inkscape:collect="always"
       xlink:href="#linearGradient6770"
       id="linearGradient1263"
       x1="12.170833"
       y1="16.933334"
       x2="12.170834"
       y2="6.7529299e-07"
       gradientUnits="userSpaceOnUse" />
  </defs>
  <path
     id="rect863"
     style="fill:url(#linearGradient1263);stroke-width:0.264583;fill-opacity:1"
     d="M 3.1749998,1.0583333 H 13.758333 c 1.172635,0 2.116667,0.9440333 2.116667,2.1166665 V 13.758333 c 0,1.172634 -0.944032,2.116667 -2.116667,2.116667 H 3.1749998 c -1.1726332,0 -2.1166665,-0.944033 -2.1166665,-2.116667 V 3.1749998 c 0,-1.1726332 0.9440333,-2.1166665 2.1166665,-2.1166665 z" />
  <path
     id="rect5926"
     style="opacity:1;fill:#ffffff;fill-opacity:1;stroke-width:0.272477"
     d="M 2.9103872,2.9103872 V 14.022946 H 14.022946 V 2.9103872 Z m 0.587963,0.587963 H 13.434983 V 9.6425923 H 12.141435 L 10.524537,4.3509258 9.3486109,8.4666665 8.172685,4.3509258 6.1148147,10.524537 5.2328702,8.172685 h -1.73452 z m 4.6743348,2.910446 1.1759259,4.1157408 1.1759261,-4.1157408 1.175925,3.8217588 h 1.734521 v 3.204428 H 3.4983502 V 8.760648 H 4.791898 l 1.3229167,3.527777 z"
     sodipodi:nodetypes="ccccccccccccccccccccccccccc" />
  <path
     id="rect1345"
     style="opacity:0.3;fill:url(#linearGradient1781);fill-opacity:1;stroke-width:0.264583"
     d="m 3.175,1.0583333 c -1.1726333,0 -2.1166667,0.9440334 -2.1166667,2.1166667 v 10.583333 c 0,1.172634 0.9440334,2.116667 2.1166667,2.116667 h 10.583334 c 1.172634,0 2.116667,-0.944033 2.116667,-2.116667 V 3.175 c 0,-1.1726333 -0.944033,-2.1166667 -2.116667,-2.1166667 z m 0,0.2645834 h 10.583334 c 1.026055,0 1.852083,0.8260291 1.852083,1.8520833 v 10.583333 c 0,1.026054 -0.826028,1.852084 -1.852083,1.852084 H 3.175 c -1.0260542,0 -1.8520834,-0.82603 -1.8520834,-1.852084 V 3.175 c 0,-1.0260542 0.8260292,-1.8520833 1.8520834,-1.8520833 z" />
</svg>
