<?xml version="1.0" encoding="UTF-8" standalone="no"?>
<!-- Created with Inkscape (http://www.inkscape.org/) -->

<svg
   width="64"
   height="64"
   viewBox="0 0 16.933333 16.933333"
   version="1.1"
   id="svg5"
   inkscape:version="1.1.1 (3bf5ae0d25, 2021-09-20, custom)"
   sodipodi:docname="vlc.svg"
   xmlns:inkscape="http://www.inkscape.org/namespaces/inkscape"
   xmlns:sodipodi="http://sodipodi.sourceforge.net/DTD/sodipodi-0.dtd"
   xmlns:xlink="http://www.w3.org/1999/xlink"
   xmlns="http://www.w3.org/2000/svg"
   xmlns:svg="http://www.w3.org/2000/svg">
  <sodipodi:namedview
     id="namedview7"
     pagecolor="#ffffff"
     bordercolor="#666666"
     borderopacity="1.0"
     inkscape:pageshadow="2"
     inkscape:pageopacity="0.0"
     inkscape:pagecheckerboard="0"
     inkscape:document-units="px"
     showgrid="false"
     units="px"
     height="48px"
     inkscape:zoom="7.9999996"
     inkscape:cx="19.312501"
     inkscape:cy="45.687502"
     inkscape:window-width="1853"
     inkscape:window-height="1019"
     inkscape:window-x="0"
     inkscape:window-y="0"
     inkscape:window-maximized="1"
     inkscape:current-layer="svg5"
     inkscape:lockguides="true" />
  <defs
     id="defs2">
    <linearGradient
       inkscape:collect="always"
       id="linearGradient1992">
      <stop
         style="stop-color:#ffffff;stop-opacity:1;"
         offset="0"
         id="stop1988" />
      <stop
         style="stop-color:#ffa45b;stop-opacity:1"
         offset="1"
         id="stop1990" />
    </linearGradient>
    <linearGradient
       inkscape:collect="always"
       id="linearGradient1698">
      <stop
         style="stop-color:#000000;stop-opacity:1;"
         offset="0"
         id="stop1694" />
      <stop
         style="stop-color:#000000;stop-opacity:0;"
         offset="1"
         id="stop1696" />
    </linearGradient>
    <linearGradient
       inkscape:collect="always"
       id="linearGradient1361">
      <stop
         style="stop-color:#f96600;stop-opacity:1;"
         offset="0"
         id="stop1357" />
      <stop
         style="stop-color:#f9b300;stop-opacity:1"
         offset="1"
         id="stop1359" />
    </linearGradient>
    <linearGradient
       inkscape:collect="always"
       xlink:href="#linearGradient1992"
       id="linearGradient1994"
       x1="2.1166668"
       y1="6.8808227"
       x2="2.1166663"
       y2="15.347489"
       gradientUnits="userSpaceOnUse"
       gradientTransform="matrix(1.0551886,0,0,1.0551886,-0.46901096,-0.46901101)" />
    <linearGradient
       inkscape:collect="always"
       xlink:href="#linearGradient37218"
       id="linearGradient1781"
       x1="2.8346456e-08"
       y1="2.2677165e-07"
       x2="64"
       y2="64"
       gradientUnits="userSpaceOnUse"
       gradientTransform="matrix(0.26458333,0,0,0.26458333,1.0125e-6,1.25e-8)" />
    <linearGradient
       inkscape:collect="always"
       id="linearGradient37218">
      <stop
         style="stop-color:#ffffff;stop-opacity:1"
         offset="0"
         id="stop37214" />
      <stop
         style="stop-color:#717171;stop-opacity:0.00392157"
         offset="0.49741825"
         id="stop37220" />
      <stop
         style="stop-color:#000000;stop-opacity:1"
         offset="1"
         id="stop37216" />
    </linearGradient>
    <linearGradient
       inkscape:collect="always"
       xlink:href="#linearGradient1361"
       id="linearGradient1314"
       x1="10.583334"
       y1="16.933334"
       x2="10.583334"
       y2="6.7529299e-07"
       gradientUnits="userSpaceOnUse" />
    <linearGradient
       inkscape:collect="always"
       xlink:href="#linearGradient1698"
       id="linearGradient1740"
       gradientUnits="userSpaceOnUse"
       gradientTransform="matrix(3.9881145,0,0,3.9881145,-1.77264,-0.77264029)"
       x1="2.1166668"
       y1="13.901684"
       x2="14.653919"
       y2="6.8221574" />
  </defs>
  <path
     id="rect863"
     style="fill:url(#linearGradient1314);stroke-width:0.264583;fill-opacity:1"
     d="M 3.1750005,1.0583333 H 13.758334 c 1.172634,0 2.116667,0.9440333 2.116667,2.1166665 V 13.758333 c 0,1.172634 -0.944033,2.116667 -2.116667,2.116667 H 3.1750005 c -1.1726328,0 -2.1166662,-0.944033 -2.1166662,-2.116667 V 3.1749998 c 0,-1.1726332 0.9440334,-2.1166665 2.1166662,-2.1166665 z" />
  <path
     id="rect1345"
     style="opacity:0.3;fill:url(#linearGradient1781);fill-opacity:1;stroke-width:0.264583"
     d="m 3.1750005,1.0583333 c -1.1726337,0 -2.1166672,0.9440334 -2.1166672,2.1166667 v 10.583333 c 0,1.172634 0.9440335,2.116667 2.1166672,2.116667 H 13.758334 c 1.172633,0 2.116666,-0.944033 2.116666,-2.116667 V 3.175 c 0,-1.1726333 -0.944033,-2.1166667 -2.116666,-2.1166667 z m 0,0.2645834 H 13.758334 c 1.026054,0 1.852083,0.8260291 1.852083,1.8520833 v 10.583333 c 0,1.026054 -0.826029,1.852084 -1.852083,1.852084 H 3.1750005 c -1.026055,0 -1.8520839,-0.82603 -1.8520839,-1.852084 V 3.175 c 0,-1.0260542 0.8260289,-1.8520833 1.8520839,-1.8520833 z" />
  <path
     id="path2-6"
     style="fill:url(#linearGradient1994);fill-opacity:1;fill-rule:evenodd;stroke-width:0.35896"
     d="M 8.4660085,3.4397003 C 8.2377523,3.437189 8.0044953,3.4749292 7.774581,3.5672972 7.6321059,3.6245987 7.5236305,3.7439229 7.4801245,3.8911994 L 7.0177189,5.4539999 c 0.6929002,0.5025078 2.200407,0.5025078 2.8933068,0 L 9.4497113,3.8912002 C 9.4036111,3.7353114 9.2849858,3.611441 9.1312617,3.5585734 8.918312,3.4852598 8.6942712,3.4422522 8.4660085,3.4397003 Z M 6.4233534,7.4639378 5.8093575,9.5414913 c 0.5413113,0.3173203 3.1239793,1.3249187 5.3111195,0 L 10.506481,7.4639378 c -1.3820295,0.5496038 -2.5442318,0.6909257 -4.0831276,0 z m 4.6971236,2.0775535 0.33917,1.1418357 c 0.06442,0.217828 -0.02565,0.452554 -0.219207,0.571463 -0.788742,0.484165 -1.7928876,0.722194 -2.7940622,0.731778 C 7.4452032,11.996156 6.4387656,11.77845 5.6643101,11.238432 5.4869696,11.114663 5.4089019,10.890723 5.4701872,10.683327 L 5.8093575,9.5414913 H 5.1986331 C 4.9958343,9.5415415 4.8131745,9.6629447 4.7351366,9.8501246 L 3.4787894,12.79796 c -0.1379062,0.330965 0.1049459,0.695681 0.4634962,0.695789 h 9.0452634 c 0.358547,-1.12e-4 0.601409,-0.364828 0.463497,-0.695789 L 12.194698,9.8501246 C 12.116656,9.6629454 11.934006,9.5415415 11.731201,9.5414913 Z" />
  <path
     id="path2-6-7"
     style="opacity:0.3;fill:url(#linearGradient1740);fill-opacity:1;fill-rule:evenodd;stroke-width:1.3567"
     d="M 26.769531 20.779297 L 26.523438 21.613281 C 29.142273 23.512523 34.84015 23.512523 37.458984 21.613281 L 37.212891 20.779297 C 34.58279 22.455641 29.399632 22.455641 26.769531 20.779297 z M 22.210938 36.203125 L 21.957031 37.0625 C 24.002932 38.261819 33.76294 42.070064 42.029297 37.0625 L 41.777344 36.210938 C 33.866547 40.816196 24.683595 37.51279 22.210938 36.203125 z M 42.029297 37.0625 L 43.3125 41.376953 C 43.316125 41.389212 43.318899 41.401777 43.322266 41.414062 C 43.412393 41.082213 43.415017 40.7236 43.3125 40.376953 L 42.326172 37.0625 L 42.029297 37.0625 z M 21.957031 37.0625 L 21.660156 37.0625 L 20.673828 40.376953 C 20.571259 40.724059 20.573232 41.084644 20.664062 41.417969 C 20.66774 41.404435 20.669839 41.390452 20.673828 41.376953 L 21.957031 37.0625 z M 13.068359 49.597656 C 12.738695 50.782244 13.627168 51.999616 14.900391 52 L 49.085938 52 C 50.359149 51.999602 51.247647 50.782232 50.917969 49.597656 C 50.703402 50.381573 49.993285 50.999717 49.085938 51 L 14.900391 51 C 13.993035 50.999727 13.282923 50.381577 13.068359 49.597656 z "
     transform="scale(0.26458333)" />
</svg>
