<?xml version="1.0" encoding="UTF-8" standalone="no"?>
<!-- Created with Inkscape (http://www.inkscape.org/) -->

<svg
   width="64"
   height="64"
   viewBox="0 0 16.933333 16.933333"
   version="1.1"
   id="svg5"
   inkscape:version="1.1.1 (3bf5ae0d25, 2021-09-20, custom)"
   sodipodi:docname="vmware-player.svg"
   xmlns:inkscape="http://www.inkscape.org/namespaces/inkscape"
   xmlns:sodipodi="http://sodipodi.sourceforge.net/DTD/sodipodi-0.dtd"
   xmlns:xlink="http://www.w3.org/1999/xlink"
   xmlns="http://www.w3.org/2000/svg"
   xmlns:svg="http://www.w3.org/2000/svg">
  <sodipodi:namedview
     id="namedview7"
     pagecolor="#ffffff"
     bordercolor="#666666"
     borderopacity="1.0"
     inkscape:pageshadow="2"
     inkscape:pageopacity="0.0"
     inkscape:pagecheckerboard="0"
     inkscape:document-units="px"
     showgrid="true"
     units="px"
     height="48px"
     inkscape:zoom="7.9999996"
     inkscape:cx="29.625001"
     inkscape:cy="49.437502"
     inkscape:window-width="1920"
     inkscape:window-height="1019"
     inkscape:window-x="0"
     inkscape:window-y="0"
     inkscape:window-maximized="1"
     inkscape:current-layer="svg5"
     inkscape:lockguides="true" />
  <defs
     id="defs2">
    <linearGradient
       inkscape:collect="always"
       id="linearGradient37218">
      <stop
         style="stop-color:#1a1a1a;stop-opacity:1"
         offset="0"
         id="stop37214" />
      <stop
         style="stop-color:#afafaf;stop-opacity:0.40000001"
         offset="0.49741825"
         id="stop37220" />
      <stop
         style="stop-color:#4d4d4d;stop-opacity:1"
         offset="1"
         id="stop37216" />
    </linearGradient>
    <linearGradient
       inkscape:collect="always"
       xlink:href="#linearGradient37218"
       id="linearGradient881"
       x1="64.208344"
       y1="64.062607"
       x2="0.30528301"
       y2="0.13507102"
       gradientUnits="userSpaceOnUse" />
    <linearGradient
       id="path29_1_"
       gradientUnits="userSpaceOnUse"
       x1="239.3423"
       y1="1021.4185"
       x2="258.2334"
       y2="1054.1401"
       gradientTransform="matrix(0.04277371,0,0,0.04277371,-1.4422934,-34.435687)">
      <stop
         offset="0"
         style="stop-color:#991700;stop-opacity:0"
         id="stop16" />
      <stop
         offset="1"
         style="stop-color:#991700;stop-opacity:0.1"
         id="stop18" />
    </linearGradient>
  </defs>
  <path
     id="rect846-3"
     style="fill:#ffffff;stroke-width:0.337527;fill-opacity:1"
     d="m 3.175,1.5875 h 10.583333 c 0.879475,0 1.5875,0.708025 1.5875,1.5875 v 10.583333 c 0,0.879475 -0.708025,1.5875 -1.5875,1.5875 H 3.175 c -0.879475,0 -1.5875,-0.708025 -1.5875,-1.5875 V 3.175 c 0,-0.879475 0.708025,-1.5875 1.5875,-1.5875 z" />
  <path
     id="rect846"
     style="opacity:0.3;fill:url(#linearGradient881);stroke-width:1.27569;fill-opacity:1"
     d="M 12 6 C 8.6760005 6 6 8.6760005 6 12 L 6 52 C 6 55.324 8.6760005 58 12 58 L 52 58 C 55.324 58 58 55.324 58 52 L 58 12 C 58 8.6760005 55.324 6 52 6 L 12 6 z M 12 7 L 52 7 C 54.77 7 57 9.23 57 12 L 57 52 C 57 54.77 54.77 57 52 57 L 12 57 C 9.23 57 7 54.77 7 52 L 7 12 C 7 9.23 9.23 7 12 7 z "
     transform="scale(0.26458333)" />
  <g
     id="g1709"
     style="fill:#edb200;fill-opacity:1"
     transform="matrix(0.22651486,0,0,0.22651486,28.006905,-4.5712969)">
    <path
       inkscape:connector-curvature="0"
       id="rect1591"
       d="m -104.65073,36.533866 c -1.46219,0 -2.63909,1.176895 -2.63909,2.63909 0,0.0043 0.001,0.0083 0.001,0.01257 -1e-5,0.0039 -0.001,0.0074 -0.001,0.01132 v 13.390331 c 0,1.462195 1.1769,2.63909 2.63909,2.63909 1.4622,0 2.63909,-1.176895 2.63909,-2.63909 v -7.02961 l 5.065698,5.065695 v 4.19438 1.733828 h 4.828063 v -2.414032 c 0,-1.337374 1.076659,-2.414031 2.414031,-2.414031 h 2.414032 V 49.838701 48.62917 46.895343 h -1.907336 -1.067455 -2.943358 l -5.083297,-5.083297 h 7.030867 c 1.462195,0 2.63909,-1.176895 2.63909,-2.63909 0,-1.462195 -1.176895,-2.63909 -2.63909,-2.63909 z"
       style="opacity:1;fill:#edb200;fill-opacity:1;stroke:none;stroke-width:0.0368013;stroke-miterlimit:4;stroke-dasharray:none;stroke-opacity:1" />
    <path
       inkscape:connector-curvature="0"
       id="rect1591-2"
       d="m -67.878689,36.533866 c 1.462194,0 2.639089,1.176895 2.639089,2.63909 0,0.0043 -0.0012,0.0083 -0.0013,0.01257 1.7e-5,0.0039 0.0013,0.0074 0.0013,0.01132 v 13.390331 c 0,1.462195 -1.176895,2.63909 -2.639089,2.63909 -1.462196,0 -2.639091,-1.176895 -2.639091,-2.63909 v -7.02961 l -5.065694,5.065695 v 4.19438 1.733828 h -4.828063 v -2.414032 c 0,-1.337374 -1.076659,-2.414031 -2.414031,-2.414031 H -85.2396 V 49.838701 48.62917 46.895343 h 1.907336 1.067455 2.943358 l 5.083297,-5.083297 h -7.030867 c -1.462195,0 -2.63909,-1.176895 -2.63909,-2.63909 0,-1.462195 1.176895,-2.63909 2.63909,-2.63909 z"
       style="opacity:1;fill:#edb200;fill-opacity:1;stroke:none;stroke-width:0.0368013;stroke-miterlimit:4;stroke-dasharray:none;stroke-opacity:1" />
    <path
       inkscape:connector-curvature="0"
       id="rect1591-2-7"
       d="m -67.878689,78.55147 c 1.462194,0 2.639089,-1.176895 2.639089,-2.63909 0,-0.0043 -0.0012,-0.0083 -0.0013,-0.01257 1.7e-5,-0.0039 0.0013,-0.0074 0.0013,-0.01132 V 62.498159 c 0,-1.462195 -1.176895,-2.63909 -2.639089,-2.63909 -1.462196,0 -2.639091,1.176895 -2.639091,2.63909 v 7.02961 l -5.065694,-5.065695 v -4.19438 -1.733828 h -4.828063 v 2.414032 c 0,1.337374 -1.076659,2.414031 -2.414031,2.414031 H -85.2396 v 1.884706 1.209531 1.733827 h 1.907336 1.067455 2.943358 l 5.083297,5.083297 h -7.030867 c -1.462195,0 -2.63909,1.176895 -2.63909,2.63909 0,1.462195 1.176895,2.63909 2.63909,2.63909 z"
       style="opacity:1;fill:#edb200;fill-opacity:1;stroke:none;stroke-width:0.0368013;stroke-miterlimit:4;stroke-dasharray:none;stroke-opacity:1" />
  </g>
</svg>
