<?xml version="1.0" encoding="UTF-8" standalone="no"?>
<!-- Created with Inkscape (http://www.inkscape.org/) -->

<svg
   width="64"
   height="64"
   viewBox="0 0 16.933333 16.933333"
   version="1.1"
   id="svg5"
   inkscape:version="1.1.1 (3bf5ae0d25, 2021-09-20, custom)"
   sodipodi:docname="wayland.svg"
   xmlns:inkscape="http://www.inkscape.org/namespaces/inkscape"
   xmlns:sodipodi="http://sodipodi.sourceforge.net/DTD/sodipodi-0.dtd"
   xmlns:xlink="http://www.w3.org/1999/xlink"
   xmlns="http://www.w3.org/2000/svg"
   xmlns:svg="http://www.w3.org/2000/svg">
  <sodipodi:namedview
     id="namedview7"
     pagecolor="#ffffff"
     bordercolor="#666666"
     borderopacity="1.0"
     inkscape:pageshadow="2"
     inkscape:pageopacity="0.0"
     inkscape:pagecheckerboard="0"
     inkscape:document-units="px"
     showgrid="false"
     units="px"
     height="48px"
     inkscape:zoom="5.656854"
     inkscape:cx="20.682874"
     inkscape:cy="40.393477"
     inkscape:window-width="1920"
     inkscape:window-height="1011"
     inkscape:window-x="0"
     inkscape:window-y="0"
     inkscape:window-maximized="1"
     inkscape:current-layer="svg5"
     inkscape:lockguides="true" />
  <defs
     id="defs2">
    <linearGradient
       inkscape:collect="always"
       id="linearGradient15431">
      <stop
         style="stop-color:#ffbc02;stop-opacity:1;"
         offset="0"
         id="stop15427" />
      <stop
         style="stop-color:#dba100;stop-opacity:1"
         offset="1"
         id="stop15429" />
    </linearGradient>
    <linearGradient
       inkscape:collect="always"
       id="linearGradient15185">
      <stop
         style="stop-color:#000000;stop-opacity:1;"
         offset="0"
         id="stop15181" />
      <stop
         style="stop-color:#000000;stop-opacity:0;"
         offset="1"
         id="stop15183" />
    </linearGradient>
    <linearGradient
       inkscape:collect="always"
       id="linearGradient13682">
      <stop
         style="stop-color:#ffeba8;stop-opacity:1;"
         offset="0"
         id="stop13678" />
      <stop
         style="stop-color:#ffeba8;stop-opacity:0;"
         offset="1"
         id="stop13680" />
    </linearGradient>
    <linearGradient
       inkscape:collect="always"
       xlink:href="#linearGradient37218"
       id="linearGradient1781"
       x1="2.8346456e-08"
       y1="2.2677165e-07"
       x2="64"
       y2="64"
       gradientUnits="userSpaceOnUse"
       gradientTransform="scale(0.26458333)" />
    <linearGradient
       inkscape:collect="always"
       id="linearGradient37218">
      <stop
         style="stop-color:#ffffff;stop-opacity:1"
         offset="0"
         id="stop37214" />
      <stop
         style="stop-color:#717171;stop-opacity:0.00392157"
         offset="0.49741825"
         id="stop37220" />
      <stop
         style="stop-color:#000000;stop-opacity:1"
         offset="1"
         id="stop37216" />
    </linearGradient>
    <linearGradient
       inkscape:collect="always"
       xlink:href="#linearGradient13682"
       id="linearGradient13684"
       x1="8.4667912"
       y1="2.1166673"
       x2="8.4667912"
       y2="16.933334"
       gradientUnits="userSpaceOnUse" />
    <linearGradient
       inkscape:collect="always"
       xlink:href="#linearGradient15185"
       id="linearGradient15187"
       x1="10"
       y1="54.664062"
       x2="54"
       y2="30.664062"
       gradientUnits="userSpaceOnUse" />
    <linearGradient
       inkscape:collect="always"
       xlink:href="#linearGradient15431"
       id="linearGradient15433"
       x1="9.5249996"
       y1="6.7529299e-07"
       x2="9.5250006"
       y2="16.933334"
       gradientUnits="userSpaceOnUse" />
  </defs>
  <path
     id="rect863"
     style="fill:url(#linearGradient15433);stroke-width:0.264583;fill-opacity:1"
     d="M 3.1750003,1.0583333 H 13.758333 c 1.172634,0 2.116667,0.944034 2.116667,2.116667 V 13.758333 c 0,1.172634 -0.944033,2.116667 -2.116667,2.116667 H 3.1750003 c -1.172633,0 -2.116667,-0.944033 -2.116667,-2.116667 V 3.1750003 c 0,-1.172633 0.944034,-2.116667 2.116667,-2.116667 z" />
  <path
     id="rect1345"
     style="opacity:0.3;fill:url(#linearGradient1781);fill-opacity:1;stroke-width:0.264583"
     d="m 3.1750003,1.0583333 c -1.172633,0 -2.116667,0.944034 -2.116667,2.116667 V 13.758333 c 0,1.172634 0.944034,2.116667 2.116667,2.116667 H 13.758334 c 1.172633,0 2.116666,-0.944033 2.116666,-2.116667 V 3.1750003 c 0,-1.172633 -0.944033,-2.116667 -2.116666,-2.116667 z m 0,0.264584 H 13.758334 c 1.026054,0 1.852083,0.826029 1.852083,1.852083 V 13.758333 c 0,1.026054 -0.826029,1.852084 -1.852083,1.852084 H 3.1750003 c -1.026054,0 -1.852083,-0.82603 -1.852083,-1.852084 V 3.1750003 c 0,-1.026054 0.826029,-1.852083 1.852083,-1.852083 z" />
  <circle
     cx="8.4667912"
     cy="8.4666672"
     r="5.2916665"
     style="fill:url(#linearGradient13684);stroke-width:0.0430567;fill-opacity:1"
     id="circle4" />
  <path
     id="circle4-5"
     style="fill:url(#linearGradient15187);fill-opacity:1;stroke-width:0.162734;opacity:0.3"
     d="M 42.583984 13.201172 L 42.583984 13.466797 L 42.710938 13.466797 L 42.933594 13.201172 L 42.583984 13.201172 z M 16.806641 13.847656 C 16.647379 13.847656 16.428062 13.938623 16.150391 14.115234 L 15.980469 14.365234 L 15.851562 14.365234 L 15.845703 14.324219 C 15.805795 14.353931 15.766383 14.383521 15.724609 14.416016 L 15.851562 15.365234 L 15.980469 15.365234 L 16.806641 14.150391 L 16.806641 13.847656 z M 20.404297 15.367188 C 20.459756 15.444716 20.513058 15.521279 20.566406 15.597656 A 20 20 0 0 1 20.90625 15.367188 L 20.404297 15.367188 z M 48.126953 15.433594 L 47.640625 19.539062 A 20 20 0 0 1 47.744141 19.667969 L 48.189453 15.896484 C 48.176338 15.728454 48.155242 15.575678 48.126953 15.433594 z M 11.513672 15.898438 L 11.324219 16.113281 L 11.324219 16.796875 L 11.070312 16.796875 L 11.070312 16.378906 L 11.197266 16.265625 L 11.197266 16.113281 L 11.064453 15.962891 C 10.847613 16.042694 10.689446 16.196733 10.591797 16.429688 L 11.197266 17.113281 L 11.197266 17.265625 L 11.070312 17.378906 L 11.070312 17.796875 L 11.324219 17.796875 L 11.324219 17.113281 L 12.023438 16.316406 L 12.023438 16.164062 L 11.800781 15.898438 L 11.513672 15.898438 z M 12.023438 20.376953 L 11.927734 20.492188 L 11.927734 20.642578 L 12.023438 20.757812 L 12.277344 20.492188 L 12.277344 20.376953 L 12.023438 20.376953 z M 51.988281 32.328125 A 20 20 0 0 1 32 52 A 20 20 0 0 1 12.019531 32.5 A 20 20 0 0 0 12 33 A 20 20 0 0 0 32 53 A 20 20 0 0 0 52 33 A 20 20 0 0 0 51.988281 32.328125 z "
     transform="scale(0.26458333)" />
  <path
     d="m 11.266978,3.2285303 h 0.09264 l -0.05894,0.070292 h -0.03368 v -0.070292 m -6.8201268,0.170722 v 0.080354 L 4.2279205,3.8010203 H 4.1942378 L 4.160555,3.5499447 C 4.2896643,3.4495145 4.3851067,3.3992994 4.4468821,3.3992994 m 7.9830969,0.110492 c 0.190885,9e-6 0.297523,0.1439688 0.319994,0.4318594 l -0.160017,1.3559963 h 0.05894 l 0.12631,-0.1004303 h 0.03368 v 0.030129 c -0.174051,0.1272304 -0.342465,0.475351 -0.505399,1.0447377 -0.06178,0.4889862 -0.165615,0.9408282 -0.311597,1.3559963 -0.129149,0.4285211 -0.193684,0.8237536 -0.193684,1.1853212 l -0.244223,0.7132616 c -7e-6,0.060277 0.09264,0.1205069 0.27789,0.1807838 -0.03369,0.1406305 -0.08421,0.2109223 -0.15158,0.2109223 v 0.040172 h 0.05894 V 9.98867 c -7e-6,0.073677 -0.09544,0.110492 -0.286327,0.110492 l 0.03368,0.04017 v 0.140631 h -0.05894 c 0.03929,0.14063 0.123511,0.210922 0.25262,0.210922 v 0.07029 h -0.25262 v 0.04017 c 0.08421,2e-6 0.12631,0.06028 0.12631,0.180784 l -0.3537,0.14063 0.03368,0.04017 v 0.03013 c -6e-6,0.04687 -0.0421,0.07029 -0.12631,0.07029 v 0.04017 c 0.106678,2e-6 0.159977,0.02344 0.160017,0.07029 -0.15158,0.06028 -0.350902,0.358229 -0.598043,0.89381 -0.25262,0.475351 -0.471495,0.713262 -0.656782,0.713262 H 9.9454499 C 9.8051051,12.67374 9.6899908,12.318896 9.6001859,11.716409 9.2408874,10.799089 9.0612776,10.260264 9.0612776,10.099463 9.0612736,9.6843419 8.9462027,9.2423266 8.7160136,8.7735582 8.6542382,8.5659741 8.6121347,8.3048837 8.5897032,7.99024 L 8.4381229,7.9500679 C 8.0563535,8.6398205 7.8570323,9.1786456 7.8400806,9.5670134 7.7334028,9.7946741 7.6491959,10.069165 7.5874599,10.390767 c 0.2301892,0.07368 0.345264,0.143969 0.345264,0.210922 v 0.04017 C 7.7530747,10.61508 7.6267644,10.564846 7.5537929,10.491216 7.4751841,10.672 7.3713447,11.174386 7.2421959,11.99767 7.1411555,12.379314 7.0148058,12.570348 6.8632649,12.570348 6.4367113,12.402964 6.0799359,12.128426 5.7937271,11.746594 5.7488246,11.746595 5.6758138,11.555748 5.5747734,11.173916 5.5130375,11.173917 5.4708946,10.98307 5.4484631,10.601238 5.2351468,10.059122 5.0891646,9.4394257 5.0104769,8.7430906 V 7.6983528 h -0.033683 l -0.1515803,0.040172 v -0.040172 c 4e-7,-0.046863 0.05054,-0.070292 0.1515803,-0.070292 L 4.9431114,7.0252916 V 6.5532319 L 4.6988877,5.0467784 V 4.4040437 C 4.8055656,4.0023227 4.9908128,3.8012742 5.2547478,3.8012742 h 1.7685023 v 0.070292 C 6.8829053,3.8782707 6.787463,3.9150951 6.7369231,3.982058 6.6302452,3.908428 6.5264058,3.8715659 6.425326,3.8715659 H 6.080062 L 5.8863783,3.901695 5.8526956,3.8715659 H 5.8274335 L 5.5748128,3.901695 5.4485025,3.8715659 5.3558591,3.901695 5.2548188,3.8715659 c 0.409996,0.5355339 0.651263,0.9878461 0.724195,1.3559963 h 0.286327 v 0.070292 H 6.0463872 v 0.080354 c 0.084207,0.3080143 0.1459822,0.4619979 0.1852472,0.4619979 h 0.067373 l 0.1515803,-0.040172 0.033683,0.040172 0.033683,-0.040172 0.033683,0.040172 v 0.030129 c -0.1122762,0.080353 -0.188086,0.190845 -0.227351,0.3314286 h -0.025262 v 0.070292 h 0.058937 c 0.078609,1.1180857 0.2245517,1.9653482 0.4379862,2.5408473 l 0.1263102,0.10043 h 0.067373 C 7.0738373,8.9133367 7.2506876,8.5216269 7.52026,7.7383557 7.6943112,7.3835116 7.8206215,7.072112 7.899191,6.80411 L 7.8655082,6.6936179 C 8.0395594,6.4324805 8.2192087,6.3019118 8.4044165,6.3019118 h 0.058937 c 0.1178738,6.6e-6 0.2021202,0.073677 0.2526206,0.2209371 0.1571783,0.2209841 0.2834887,0.5524603 0.378931,0.9944286 l 0.4714955,1.0447377 c 0.061736,0.073677 0.092643,0.1573689 0.092643,0.2510756 0.1740118,0.3950444 0.3312295,0.6563699 0.4714954,0.7833182 h 0.101041 c 0.117874,2.9e-6 0.275091,-0.4889861 0.471495,-1.4664883 0.03368,4.3e-6 0.126311,-0.2611374 0.277891,-0.7833182 v -0.040172 l -0.53063,-0.070292 -0.12631,0.040172 h -0.160017 v -0.080354 l 0.319994,-0.030129 h 0.623273 c 0.241385,-0.8637188 0.463217,-1.5332537 0.665455,-2.0086047 0.06737,-0.9775021 0.159978,-1.4664883 0.277891,-1.4664883 L 12.429553,3.5099513 M 10.63582,3.6204433 C 10.60213,3.714197 10.529142,3.7610739 10.416867,3.7610739 V 3.6907821 L 10.63582,3.6204904 M 7.4611102,3.8012742 h 0.8503476 v 0.070292 L 8.1177741,3.901695 7.9325268,3.8715659 7.7725101,3.9418577 7.7135731,3.8715659 H 7.4609525 V 3.8012742 M 3.029841,3.9419047 h 0.092643 l 0.058937,0.070292 v 0.040172 L 2.996174,4.2632909 V 4.4440747 H 2.9288006 V 4.3335826 l 0.033683,-0.030129 V 4.2632815 L 2.8024666,4.0824977 C 2.8417671,3.988744 2.9175415,3.9419141 3.0298173,3.9418671 m 6.1893639,0.4318594 h 0.092643 v 0.030129 c -4.3e-6,0.046877 -0.030884,0.070292 -0.092643,0.070292 l -0.033683,0.040172 v 0.040172 L 9.0928551,4.5143194 V 4.4440277 L 9.2191655,4.3737359 M 8.74767,4.7654421 v 0.040172 c -4e-6,0.053553 -0.1347468,0.1104921 -0.4040827,0.170722 v -0.070292 l 0.1852473,-0.1004303 0.033683,0.030129 h 0.025262 L 8.7477961,4.7654515 M 3.2483295,5.1270191 v 0.030129 l -0.067373,0.070292 -0.025262,-0.030129 v -0.040172 l 0.025262,-0.030129 h 0.067373 m 4.5888023,0 v 0.030129 C 7.7192185,5.2642926 7.5283732,5.3613845 7.2643199,5.4484147 v -0.070292 c 0.044903,7.1e-6 0.067373,-0.03682 0.067373,-0.1104921 l 0.505399,-0.1406305 m 1.6001674,0.3515058 0.033683,0.040172 v 0.030129 l -0.058937,0.080354 h -0.033683 l -0.067373,-0.080354 v -0.030129 l 0.1263103,-0.040172 m 1.1621814,0.040172 h 0.03368 v 0.030129 l -0.05894,0.080354 h -0.03368 v -0.040172 l 0.05894,-0.070292 m -0.53063,0.5021512 0.126311,0.1004302 c -0.02246,0.073677 -0.08421,0.1104921 -0.185248,0.1104921 l -0.067373,-0.110492 c -5.2e-6,-0.033472 0.042103,-0.066953 0.1263099,-0.1004302 m 0.757705,0.4619979 0.02526,0.040172 v 0.030129 l -0.02526,0.040172 h -0.06737 v -0.040172 l 0.06737,-0.070292 m -1.1956908,0.361568 v 0.030129 L 9.4708085,7.0251976 H 9.3781651 V 6.9850255 C 9.3781608,6.9247485 9.462372,6.8779187 9.6307858,6.8443949 M 4.4112203,8.2403564 h 0.033683 v 0.030129 C 4.3606962,8.4914696 4.2877247,8.6253766 4.2259494,8.6722064 H 4.158576 V 8.521561 L 4.4111966,8.240347 m 4.1196722,1.6771285 h 0.033683 v 0.070292 L 8.3119309,10.138413 8.2782481,10.09824 V 10.02795 L 8.5308688,9.9174567 M 5.06995,10.389516 h 0.058937 l 0.1010404,0.391706 h -0.067373 l -0.092643,-0.361567 v -0.03013 m 3.3682755,0.461998 h 0.025262 l 0.1010404,0.110492 -0.033683,0.03013 H 8.497123 l -0.058937,-0.10043 v -0.04017"
     id="path6"
     style="fill:#ffffff;stroke-width:0.0430531" />
</svg>
