<?xml version="1.0" encoding="UTF-8" standalone="no"?>
<!-- Created with Inkscape (http://www.inkscape.org/) -->

<svg
   width="64"
   height="64"
   viewBox="0 0 16.933333 16.933334"
   version="1.1"
   id="svg5"
   inkscape:version="1.1.1 (3bf5ae0d25, 2021-09-20, custom)"
   sodipodi:docname="org.kde.weatherWidget.svg"
   xmlns:inkscape="http://www.inkscape.org/namespaces/inkscape"
   xmlns:sodipodi="http://sodipodi.sourceforge.net/DTD/sodipodi-0.dtd"
   xmlns:xlink="http://www.w3.org/1999/xlink"
   xmlns="http://www.w3.org/2000/svg"
   xmlns:svg="http://www.w3.org/2000/svg">
  <sodipodi:namedview
     id="namedview7"
     pagecolor="#ffffff"
     bordercolor="#666666"
     borderopacity="1.0"
     inkscape:pageshadow="2"
     inkscape:pageopacity="0.0"
     inkscape:pagecheckerboard="0"
     inkscape:document-units="px"
     showgrid="false"
     units="px"
     height="64px"
     inkscape:zoom="8.8277862"
     inkscape:cx="15.745737"
     inkscape:cy="43.442375"
     inkscape:window-width="1920"
     inkscape:window-height="1011"
     inkscape:window-x="0"
     inkscape:window-y="0"
     inkscape:window-maximized="1"
     inkscape:current-layer="svg5" />
  <defs
     id="defs2">
    <linearGradient
       inkscape:collect="always"
       id="linearGradient3004">
      <stop
         style="stop-color:#000000;stop-opacity:1;"
         offset="0"
         id="stop3000" />
      <stop
         style="stop-color:#000000;stop-opacity:0;"
         offset="1"
         id="stop3002" />
    </linearGradient>
    <linearGradient
       inkscape:collect="always"
       id="linearGradient1823">
      <stop
         style="stop-color:#ffc601;stop-opacity:1;"
         offset="0"
         id="stop1819" />
      <stop
         style="stop-color:#ff9001;stop-opacity:1"
         offset="1"
         id="stop1821" />
    </linearGradient>
    <linearGradient
       inkscape:collect="always"
       id="linearGradient1227">
      <stop
         style="stop-color:#2ad3ff;stop-opacity:1"
         offset="0"
         id="stop1223" />
      <stop
         style="stop-color:#00a4fe;stop-opacity:1"
         offset="1"
         id="stop1225" />
    </linearGradient>
    <linearGradient
       inkscape:collect="always"
       xlink:href="#linearGradient1823"
       id="linearGradient1825"
       x1="3.7041667"
       y1="4.2333331"
       x2="8.9958334"
       y2="8.9958334"
       gradientUnits="userSpaceOnUse"
       gradientTransform="translate(0,1.0583333)" />
    <linearGradient
       inkscape:collect="always"
       xlink:href="#linearGradient3004"
       id="linearGradient3006"
       x1="10"
       y1="53.75"
       x2="56"
       y2="21.75"
       gradientUnits="userSpaceOnUse"
       gradientTransform="scale(0.26458334)" />
    <linearGradient
       inkscape:collect="always"
       xlink:href="#linearGradient37218"
       id="linearGradient1781"
       x1="2.8346456e-08"
       y1="2.2677165e-07"
       x2="64"
       y2="64"
       gradientUnits="userSpaceOnUse"
       gradientTransform="scale(0.26458333)" />
    <linearGradient
       inkscape:collect="always"
       id="linearGradient37218">
      <stop
         style="stop-color:#ffffff;stop-opacity:1"
         offset="0"
         id="stop37214" />
      <stop
         style="stop-color:#717171;stop-opacity:0.00392157"
         offset="0.49741825"
         id="stop37220" />
      <stop
         style="stop-color:#000000;stop-opacity:1"
         offset="1"
         id="stop37216" />
    </linearGradient>
    <linearGradient
       inkscape:collect="always"
       xlink:href="#linearGradient1227"
       id="linearGradient1048"
       x1="7.4083333"
       y1="4.2529297e-07"
       x2="7.4083333"
       y2="16.933334"
       gradientUnits="userSpaceOnUse" />
  </defs>
  <path
     id="rect863"
     style="fill:url(#linearGradient1048);stroke-width:0.264583;fill-opacity:1"
     d="M 3.1750003,1.0583333 H 13.758333 c 1.172634,0 2.116667,0.944034 2.116667,2.1166672 V 13.758333 c 0,1.172634 -0.944033,2.116667 -2.116667,2.116667 H 3.1750003 c -1.172633,0 -2.116667,-0.944033 -2.116667,-2.116667 V 3.1750005 c 0,-1.1726332 0.944034,-2.1166672 2.116667,-2.1166672 z" />
  <path
     id="rect1345"
     style="opacity:0.3;fill:url(#linearGradient1781);fill-opacity:1;stroke-width:0.264583"
     d="m 3.1750003,1.0583333 c -1.172633,0 -2.116667,0.944034 -2.116667,2.1166672 V 13.758333 c 0,1.172634 0.944034,2.116667 2.116667,2.116667 H 13.758334 c 1.172633,0 2.116666,-0.944033 2.116666,-2.116667 V 3.1750005 c 0,-1.1726332 -0.944033,-2.1166672 -2.116666,-2.1166672 z m 0,0.264584 H 13.758334 c 1.026054,0 1.852083,0.826029 1.852083,1.8520832 V 13.758333 c 0,1.026054 -0.826029,1.852084 -1.852083,1.852084 H 3.1750003 c -1.026054,0 -1.852083,-0.82603 -1.852083,-1.852084 V 3.1750005 c 0,-1.0260542 0.826029,-1.8520832 1.852083,-1.8520832 z" />
  <circle
     style="fill:url(#linearGradient1825);fill-opacity:1;stroke-width:0.26369"
     id="path1539"
     cx="6.3499999"
     cy="7.4083333"
     r="2.6458333" />
  <path
     id="path2215"
     style="fill:#f9f9f9;fill-opacity:1;stroke-width:0.224412"
     d="M 9.5250002,7.4083335 A 2.1166668,2.1166668 0 0 0 7.4083335,9.5250002 H 7.1437502 c -0.7328959,0 -1.3229167,0.5900208 -1.3229167,1.3229168 0,0.732896 0.5900208,1.322917 1.3229167,1.322917 H 11.90625 c 0.732896,0 1.322917,-0.590021 1.322917,-1.322917 0,-0.732896 -0.590021,-1.3229168 -1.322917,-1.3229168 H 11.641667 A 2.1166668,2.1166668 0 0 0 9.5250002,7.4083335 Z" />
  <path
     id="path1539-5"
     style="opacity:0.3;fill:url(#linearGradient3006);fill-opacity:1;stroke-width:0.26369"
     d="m 3.7108848,7.5406252 a 2.6458333,2.6458333 0 0 0 -0.00672,0.1322917 2.6458333,2.6458333 0 0 0 2.242757,2.6101761 c 0.040734,-0.08648 0.090128,-0.167968 0.1477947,-0.242879 A 2.6458333,2.6458333 0 0 1 3.7108848,7.5406252 Z m 9.5115642,3.4395838 c -0.06609,0.670191 -0.628058,1.190625 -1.316199,1.190625 H 7.1437502 c -0.6879657,0 -1.2498687,-0.520164 -1.3161987,-1.190109 -0.00425,0.04334 -0.00672,0.08728 -0.00672,0.131775 0,0.732896 0.5900208,1.322917 1.3229167,1.322917 H 11.90625 c 0.732896,0 1.322917,-0.590021 1.322917,-1.322917 0,-0.04476 -0.0024,-0.0887 -0.0067,-0.132291 z" />
</svg>
