<?xml version="1.0" encoding="UTF-8" standalone="no"?>
<!-- Created with Inkscape (http://www.inkscape.org/) -->

<svg
   width="64"
   height="64"
   viewBox="0 0 16.933333 16.933333"
   version="1.1"
   id="svg5"
   inkscape:version="1.1.1 (3bf5ae0d25, 2021-09-20, custom)"
   sodipodi:docname="whatsapp.svg"
   xmlns:inkscape="http://www.inkscape.org/namespaces/inkscape"
   xmlns:sodipodi="http://sodipodi.sourceforge.net/DTD/sodipodi-0.dtd"
   xmlns:xlink="http://www.w3.org/1999/xlink"
   xmlns="http://www.w3.org/2000/svg"
   xmlns:svg="http://www.w3.org/2000/svg">
  <sodipodi:namedview
     id="namedview7"
     pagecolor="#ffffff"
     bordercolor="#666666"
     borderopacity="1.0"
     inkscape:pageshadow="2"
     inkscape:pageopacity="0.0"
     inkscape:pagecheckerboard="0"
     inkscape:document-units="px"
     showgrid="true"
     units="px"
     height="48px"
     inkscape:zoom="7.9999996"
     inkscape:cx="18.125001"
     inkscape:cy="41.250002"
     inkscape:window-width="1920"
     inkscape:window-height="1019"
     inkscape:window-x="0"
     inkscape:window-y="0"
     inkscape:window-maximized="1"
     inkscape:current-layer="svg5"
     inkscape:lockguides="true" />
  <defs
     id="defs2">
    <linearGradient
       inkscape:collect="always"
       id="linearGradient37218">
      <stop
         style="stop-color:#ffffff;stop-opacity:1"
         offset="0"
         id="stop37214" />
      <stop
         style="stop-color:#afafaf;stop-opacity:0.40000001"
         offset="0.49741825"
         id="stop37220" />
      <stop
         style="stop-color:#ffffff;stop-opacity:1"
         offset="1"
         id="stop37216" />
    </linearGradient>
    <linearGradient
       inkscape:collect="always"
       xlink:href="#linearGradient37218"
       id="linearGradient881"
       x1="64.208344"
       y1="64.062607"
       x2="0.30528301"
       y2="0.13507102"
       gradientUnits="userSpaceOnUse" />
    <linearGradient
       inkscape:collect="always"
       xlink:href="#linearGradient297"
       id="linearGradient299"
       x1="85.915016"
       y1="32.567062"
       x2="86.535339"
       y2="137.09183"
       gradientUnits="userSpaceOnUse"
       gradientTransform="matrix(0.06445717,0,0,0.06445717,2.8684236,2.8789636)" />
    <linearGradient
       inkscape:collect="always"
       id="linearGradient297">
      <stop
         style="stop-color:#57d163;stop-opacity:1"
         offset="0"
         id="stop293" />
      <stop
         style="stop-color:#23b33a;stop-opacity:1"
         offset="1"
         id="stop295" />
    </linearGradient>
    <linearGradient
       inkscape:collect="always"
       xlink:href="#linearGradient297"
       id="linearGradient1048"
       x1="11.1125"
       y1="5.2916665"
       x2="11.112499"
       y2="11.641666"
       gradientUnits="userSpaceOnUse" />
  </defs>
  <path
     id="rect846-3"
     style="fill:url(#linearGradient1048);stroke-width:0.337527;fill-opacity:1"
     d="m 3.175,1.5875 h 10.583333 c 0.879475,0 1.5875,0.708025 1.5875,1.5875 v 10.583333 c 0,0.879475 -0.708025,1.5875 -1.5875,1.5875 H 3.175 c -0.879475,0 -1.5875,-0.708025 -1.5875,-1.5875 V 3.175 c 0,-0.879475 0.708025,-1.5875 1.5875,-1.5875 z" />
  <path
     id="rect846"
     style="opacity:0.3;fill:url(#linearGradient881);stroke-width:1.27569;fill-opacity:1"
     d="M 12 6 C 8.6760005 6 6 8.6760005 6 12 L 6 52 C 6 55.324 8.6760005 58 12 58 L 52 58 C 55.324 58 58 55.324 58 52 L 58 12 C 58 8.6760005 55.324 6 52 6 L 12 6 z M 12 7 L 52 7 C 54.77 7 57 9.23 57 12 L 57 52 C 57 54.77 54.77 57 52 57 L 12 57 C 9.23 57 7 54.77 7 52 L 7 12 C 7 9.23 9.23 7 12 7 z "
     transform="scale(0.26458333)" />
  <path
     style="fill:#ffffff;fill-opacity:1;fill-rule:nonzero;stroke:none;stroke-width:0.022739"
     d="m 3.7041666,13.271891 0.672845,-2.456706 c -0.414987,-0.718944 -0.633318,-1.5346194 -0.633052,-2.3701914 0.0011,-2.614104 2.128412,-4.740827 4.742604,-4.740827 1.268591,6.19e-4 2.4592814,0.494308 3.3548104,1.390458 0.895262,0.896149 1.388237,2.087285 1.387793,3.354189 -0.0012,2.6139244 -2.128856,4.7410034 -4.7426034,4.7410034 -1.93e-4,0 1.93e-4,0 0,0 h -0.002 c -0.793647,-3.22e-4 -1.573525,-0.199411 -2.266267,-0.577181 z"
     id="path400-6-0"
     sodipodi:nodetypes="ccccccssscc" />
  <path
     id="path15"
     style="fill:url(#linearGradient299);fill-opacity:1;stroke-width:0.0331907;stroke-linecap:round;stroke-linejoin:round;stop-color:#000000"
     d="m 8.4880796,4.5050166 c -2.174333,0 -3.942573,1.767596 -3.943372,3.940242 -3.22e-4,0.744526 0.208038,1.469689 0.602596,2.0971444 l 0.0938,0.149059 -0.398311,1.454044 1.491917,-0.391183 0.144063,0.08537 c 0.605072,0.359118 1.298791,0.549014 2.006277,0.549369 h 0.0015 c 2.1726474,0 3.9408854,-1.767783 3.9417744,-3.9406074 3.86e-4,-1.052925 -0.409203,-2.043051 -1.153463,-2.787844 -0.744258,-0.744793 -1.7338544,-1.15515 -2.7867794,-1.155595 z" />
  <path
     style="fill:#ffffff;fill-opacity:1;fill-rule:evenodd;stroke:none;stroke-width:0.022739"
     d="m 7.3012906,6.4629656 c -0.08882,-0.19728 -0.182267,-0.201277 -0.26665,-0.204741 -0.06911,-0.0029 -0.14816,-0.0028 -0.227125,-0.0028 -0.07905,0 -0.207405,0.02967 -0.315948,0.148247 -0.108632,0.118581 -0.41481,0.405218 -0.41481,0.988261 0,0.583044 0.424669,1.146369 0.483826,1.225511 0.05925,0.07905 0.819761,1.313713 2.024309,1.7886584 1.000963,0.394736 1.204637,0.316215 1.4219914,0.296496 0.217264,-0.01972 0.701091,-0.286636 0.799775,-0.563325 0.09877,-0.2766884 0.09877,-0.5137614 0.06919,-0.5633244 -0.02967,-0.04948 -0.108632,-0.07905 -0.227213,-0.1383 -0.118492,-0.05925 -0.7010914,-0.345971 -0.8097234,-0.385498 -0.108633,-0.03953 -0.187598,-0.05925 -0.266651,0.05934 -0.07897,0.11858 -0.305912,0.385409 -0.375106,0.464463 -0.06911,0.07914 -0.13821,0.089 -0.256792,0.02976 -0.118491,-0.05942 -0.50017,-0.184399 -0.952908,-0.588107 -0.352278,-0.314083 -0.590061,-0.701979 -0.659255,-0.82056 -0.06911,-0.118581 -0.0074,-0.182712 0.05205,-0.24178 0.05321,-0.05312 0.118492,-0.138389 0.177827,-0.207583 0.05907,-0.06919 0.07888,-0.11858 0.118314,-0.197545 0.03953,-0.07914 0.01981,-0.148337 -0.0099,-0.207583 -0.02958,-0.05925 -0.259901,-0.64531 -0.365247,-0.879628"
     id="path418-6" />
</svg>
