<?xml version="1.0" encoding="UTF-8" standalone="no"?>
<!-- Created with Inkscape (http://www.inkscape.org/) -->

<svg
   width="64"
   height="64"
   viewBox="0 0 16.933333 16.933333"
   version="1.1"
   id="svg5"
   inkscape:version="1.1.1 (3bf5ae0d25, 2021-09-20, custom)"
   sodipodi:docname="windows.svg"
   xmlns:inkscape="http://www.inkscape.org/namespaces/inkscape"
   xmlns:sodipodi="http://sodipodi.sourceforge.net/DTD/sodipodi-0.dtd"
   xmlns:xlink="http://www.w3.org/1999/xlink"
   xmlns="http://www.w3.org/2000/svg"
   xmlns:svg="http://www.w3.org/2000/svg">
  <sodipodi:namedview
     id="namedview7"
     pagecolor="#ffffff"
     bordercolor="#666666"
     borderopacity="1.0"
     inkscape:pageshadow="2"
     inkscape:pageopacity="0.0"
     inkscape:pagecheckerboard="0"
     inkscape:document-units="px"
     showgrid="false"
     units="px"
     height="48px"
     inkscape:zoom="4"
     inkscape:cx="-9.25"
     inkscape:cy="56.125"
     inkscape:window-width="1920"
     inkscape:window-height="1019"
     inkscape:window-x="0"
     inkscape:window-y="0"
     inkscape:window-maximized="1"
     inkscape:current-layer="svg5"
     inkscape:lockguides="true" />
  <defs
     id="defs2">
    <linearGradient
       inkscape:collect="always"
       id="linearGradient4568">
      <stop
         style="stop-color:#ffffff;stop-opacity:1;"
         offset="0"
         id="stop4564" />
      <stop
         style="stop-color:#a3d8ff;stop-opacity:1"
         offset="1"
         id="stop4566" />
    </linearGradient>
    <linearGradient
       inkscape:collect="always"
       id="linearGradient4194">
      <stop
         style="stop-color:#000000;stop-opacity:1;"
         offset="0"
         id="stop4190" />
      <stop
         style="stop-color:#000000;stop-opacity:0;"
         offset="1"
         id="stop4192" />
    </linearGradient>
    <linearGradient
       inkscape:collect="always"
       id="linearGradient2922">
      <stop
         style="stop-color:#00adef;stop-opacity:1;"
         offset="0"
         id="stop2918" />
      <stop
         style="stop-color:#0078d7;stop-opacity:1"
         offset="1"
         id="stop2920" />
    </linearGradient>
    <linearGradient
       inkscape:collect="always"
       id="linearGradient2216">
      <stop
         style="stop-color:#ffffff;stop-opacity:1"
         offset="0"
         id="stop2210" />
      <stop
         style="stop-color:#ffffff;stop-opacity:0.00392157"
         offset="0.49741825"
         id="stop2212" />
      <stop
         style="stop-color:#ffffff;stop-opacity:1"
         offset="1"
         id="stop2214" />
    </linearGradient>
    <linearGradient
       inkscape:collect="always"
       xlink:href="#linearGradient2216"
       id="linearGradient881"
       x1="64.208344"
       y1="64.062607"
       x2="0.30528301"
       y2="0.13507102"
       gradientUnits="userSpaceOnUse" />
    <linearGradient
       inkscape:collect="always"
       xlink:href="#linearGradient2922"
       id="linearGradient2924"
       x1="16.404167"
       y1="1.5874997"
       x2="16.404165"
       y2="16.933332"
       gradientUnits="userSpaceOnUse" />
    <linearGradient
       inkscape:collect="always"
       xlink:href="#linearGradient4194"
       id="linearGradient4196"
       x1="11"
       y1="52.5"
       x2="53"
       y2="16.5"
       gradientUnits="userSpaceOnUse" />
    <linearGradient
       inkscape:collect="always"
       xlink:href="#linearGradient4568"
       id="linearGradient4570"
       x1="25"
       y1="12"
       x2="25"
       y2="52"
       gradientUnits="userSpaceOnUse" />
  </defs>
  <path
     id="rect846-3"
     style="mix-blend-mode:multiply;fill:url(#linearGradient2924);fill-opacity:1;stroke-width:0.337527"
     d="m 3.175,1.5875 h 10.583333 c 0.879475,0 1.5875,0.708025 1.5875,1.5875 v 10.583333 c 0,0.879475 -0.708025,1.5875 -1.5875,1.5875 H 3.175 c -0.879475,0 -1.5875,-0.708025 -1.5875,-1.5875 V 3.175 c 0,-0.879475 0.708025,-1.5875 1.5875,-1.5875 z" />
  <path
     id="rect846"
     style="opacity:0.3;fill:url(#linearGradient881);stroke-width:1.27569;fill-opacity:1.0"
     d="M 12 6 C 8.6760005 6 6 8.6760005 6 12 L 6 52 C 6 55.324 8.6760005 58 12 58 L 52 58 C 55.324 58 58 55.324 58 52 L 58 12 C 58 8.6760005 55.324 6 52 6 L 12 6 z M 12 7 L 52 7 C 54.77 7 57 9.23 57 12 L 57 52 C 57 54.77 54.77 57 52 57 L 12 57 C 9.23 57 7 54.77 7 52 L 7 12 C 7 9.23 9.23 7 12 7 z "
     transform="scale(0.26458333)" />
  <path
     id="rect3474"
     style="opacity:1;fill:url(#linearGradient4570);stroke-width:1.1764;fill-opacity:1"
     d="M 49 15 L 31 17.117188 L 31 31 L 49 31 L 49 15 z M 29 17.353516 L 15 19 L 15 31 L 29 31 L 29 17.353516 z M 15 33 L 15 45 L 29 46.646484 L 29 33 L 15 33 z M 31 33 L 31 46.882812 L 49 49 L 49 33 L 31 33 z "
     transform="scale(0.26458333)" />
  <path
     id="rect3474-9"
     style="fill:url(#linearGradient4196);stroke-width:1.1764;opacity:0.3;fill-opacity:1"
     d="M 15 31 L 15 32 L 29 32 L 29 31 L 15 31 z M 31 31 L 31 32 L 49 32 L 49 31 L 31 31 z M 15 45 L 15 46 L 29 47.646484 L 29 46.646484 L 15 45 z M 31 46.882812 L 31 47.882812 L 49 50 L 49 49 L 31 46.882812 z "
     transform="scale(0.26458333)" />
</svg>
