<?xml version="1.0" encoding="UTF-8" standalone="no"?>
<!-- Created with Inkscape (http://www.inkscape.org/) -->

<svg
   width="64"
   height="64"
   viewBox="0 0 16.933333 16.933333"
   version="1.1"
   id="svg5"
   inkscape:version="1.1.2 (0a00cf5339, 2022-02-04, custom)"
   sodipodi:docname="wine-help.svg"
   xmlns:inkscape="http://www.inkscape.org/namespaces/inkscape"
   xmlns:sodipodi="http://sodipodi.sourceforge.net/DTD/sodipodi-0.dtd"
   xmlns:xlink="http://www.w3.org/1999/xlink"
   xmlns="http://www.w3.org/2000/svg"
   xmlns:svg="http://www.w3.org/2000/svg">
  <sodipodi:namedview
     id="namedview7"
     pagecolor="#ffffff"
     bordercolor="#666666"
     borderopacity="1.0"
     inkscape:pageshadow="2"
     inkscape:pageopacity="0.0"
     inkscape:pagecheckerboard="0"
     inkscape:document-units="px"
     showgrid="false"
     units="px"
     height="48px"
     inkscape:zoom="3.2070313"
     inkscape:cx="41.939099"
     inkscape:cy="77.485993"
     inkscape:window-width="1920"
     inkscape:window-height="1011"
     inkscape:window-x="0"
     inkscape:window-y="32"
     inkscape:window-maximized="1"
     inkscape:current-layer="svg5"
     inkscape:lockguides="true" />
  <defs
     id="defs2">
    <linearGradient
       inkscape:collect="always"
       id="linearGradient2578">
      <stop
         style="stop-color:#76d8a8;stop-opacity:1;"
         offset="0"
         id="stop2574" />
      <stop
         style="stop-color:#3dc8a7;stop-opacity:1"
         offset="1"
         id="stop2576" />
    </linearGradient>
    <linearGradient
       inkscape:collect="always"
       id="linearGradient1321">
      <stop
         style="stop-color:#ffffff;stop-opacity:1;"
         offset="0"
         id="stop1317" />
      <stop
         style="stop-color:#bbfee9;stop-opacity:1"
         offset="1"
         id="stop1319" />
    </linearGradient>
    <linearGradient
       inkscape:collect="always"
       id="linearGradient1355">
      <stop
         style="stop-color:#0078d7;stop-opacity:1;"
         offset="0"
         id="stop1351" />
      <stop
         style="stop-color:#00adef;stop-opacity:1"
         offset="1"
         id="stop1353" />
    </linearGradient>
    <linearGradient
       inkscape:collect="always"
       id="linearGradient4568">
      <stop
         style="stop-color:#ffffff;stop-opacity:1;"
         offset="0"
         id="stop4564" />
      <stop
         style="stop-color:#a3d8ff;stop-opacity:1"
         offset="1"
         id="stop4566" />
    </linearGradient>
    <linearGradient
       inkscape:collect="always"
       id="linearGradient4194">
      <stop
         style="stop-color:#000000;stop-opacity:1;"
         offset="0"
         id="stop4190" />
      <stop
         style="stop-color:#000000;stop-opacity:0;"
         offset="1"
         id="stop4192" />
    </linearGradient>
    <linearGradient
       inkscape:collect="always"
       xlink:href="#linearGradient4194"
       id="linearGradient4196"
       x1="11"
       y1="52.5"
       x2="53"
       y2="16.5"
       gradientUnits="userSpaceOnUse" />
    <linearGradient
       inkscape:collect="always"
       xlink:href="#linearGradient4568"
       id="linearGradient4570"
       x1="25"
       y1="12"
       x2="25"
       y2="52"
       gradientUnits="userSpaceOnUse" />
    <linearGradient
       inkscape:collect="always"
       xlink:href="#linearGradient37218"
       id="linearGradient1781"
       x1="2.8346456e-08"
       y1="2.2677165e-07"
       x2="64"
       y2="64"
       gradientUnits="userSpaceOnUse"
       gradientTransform="scale(0.26458333)" />
    <linearGradient
       inkscape:collect="always"
       id="linearGradient37218">
      <stop
         style="stop-color:#ffffff;stop-opacity:1"
         offset="0"
         id="stop37214" />
      <stop
         style="stop-color:#e6e6e6;stop-opacity:0.00306325"
         offset="0.49741825"
         id="stop37220" />
      <stop
         style="stop-color:#ffffff;stop-opacity:1"
         offset="1"
         id="stop37216" />
    </linearGradient>
    <linearGradient
       inkscape:collect="always"
       xlink:href="#linearGradient1355"
       id="linearGradient1357"
       x1="-3.1750002"
       y1="10.384895"
       x2="-3.175"
       y2="-6.5484376"
       gradientUnits="userSpaceOnUse"
       gradientTransform="translate(3.1750001,6.5484376)" />
    <linearGradient
       inkscape:collect="always"
       xlink:href="#linearGradient2216"
       id="linearGradient1449"
       gradientUnits="userSpaceOnUse"
       x1="9.5249996"
       y1="9.5249996"
       x2="15.874999"
       y2="15.875001"
       gradientTransform="matrix(1.1666668,0,0,1.1666668,-2.116666,-2.1166674)" />
    <linearGradient
       inkscape:collect="always"
       id="linearGradient2216">
      <stop
         style="stop-color:#ffffff;stop-opacity:1"
         offset="0"
         id="stop2210" />
      <stop
         style="stop-color:#ffffff;stop-opacity:0.00392157"
         offset="0.49741825"
         id="stop2212" />
      <stop
         style="stop-color:#ffffff;stop-opacity:1"
         offset="1"
         id="stop2214" />
    </linearGradient>
    <linearGradient
       inkscape:collect="always"
       xlink:href="#linearGradient2578"
       id="linearGradient1087"
       x1="12.700001"
       y1="8.4666691"
       x2="12.700001"
       y2="16.933336"
       gradientUnits="userSpaceOnUse" />
    <linearGradient
       inkscape:collect="always"
       xlink:href="#linearGradient1321"
       id="linearGradient1806"
       x1="12.964583"
       y1="12.170834"
       x2="12.964583"
       y2="16.404167"
       gradientUnits="userSpaceOnUse"
       gradientTransform="matrix(3.4359342,0,0,3.4359342,4.363637,4.363637)" />
    <linearGradient
       inkscape:collect="always"
       xlink:href="#linearGradient4194"
       id="linearGradient3064"
       gradientUnits="userSpaceOnUse"
       gradientTransform="matrix(0.90909091,0,0,0.90909091,11.208712,11.473296)"
       x1="-1.5874996"
       y1="3.4395838"
       x2="5.3975"
       y2="-0.47624913" />
  </defs>
  <path
     id="rect863"
     style="fill:url(#linearGradient1357);fill-opacity:1;stroke-width:0.264583"
     d="M 3.1749997,1.0583333 H 13.758333 c 1.172634,0 2.116667,0.9440333 2.116667,2.1166667 v 10.583333 c 0,1.172634 -0.944033,2.116667 -2.116667,2.116667 H 3.1749997 c -1.1726331,0 -2.1166664,-0.944033 -2.1166664,-2.116667 V 3.175 c 0,-1.1726334 0.9440333,-2.1166667 2.1166664,-2.1166667 z" />
  <path
     id="rect1345"
     style="opacity:0.3;fill:url(#linearGradient1781);fill-opacity:1;stroke-width:0.264583"
     d="m 3.175,1.0583333 c -1.1726334,0 -2.1166667,0.9440333 -2.1166667,2.1166667 v 10.583333 c 0,1.172634 0.9440333,2.116667 2.1166667,2.116667 h 10.583333 c 1.172634,0 2.116667,-0.944033 2.116667,-2.116667 V 3.175 c 0,-1.1726334 -0.944033,-2.1166667 -2.116667,-2.1166667 z m 0,0.2645834 h 10.583333 c 1.026054,0 1.852084,0.8260291 1.852084,1.8520833 v 10.583333 c 0,1.026054 -0.82603,1.852084 -1.852084,1.852084 H 3.175 c -1.0260542,0 -1.8520833,-0.82603 -1.8520833,-1.852084 V 3.175 c 0,-1.0260542 0.8260291,-1.8520833 1.8520833,-1.8520833 z" />
  <path
     id="rect3474"
     style="opacity:1;fill:url(#linearGradient4570);stroke-width:1.1764;fill-opacity:1"
     d="M 49 15 L 31 17.117188 L 31 31 L 49 31 L 49 15 z M 29 17.353516 L 15 19 L 15 31 L 29 31 L 29 17.353516 z M 15 33 L 15 45 L 29 46.646484 L 29 33 L 15 33 z M 31 33 L 31 46.882812 L 49 49 L 49 33 L 31 33 z "
     transform="scale(0.26458333)" />
  <path
     id="rect3474-9"
     style="fill:url(#linearGradient4196);stroke-width:1.1764;opacity:0.3;fill-opacity:1"
     d="M 15 31 L 15 32 L 29 32 L 29 31 L 15 31 z M 31 31 L 31 32 L 49 32 L 49 31 L 31 31 z M 15 45 L 15 46 L 29 47.646484 L 29 46.646484 L 15 45 z M 31 46.882812 L 31 47.882812 L 49 50 L 49 49 L 31 46.882812 z "
     transform="scale(0.26458333)" />
  <circle
     style="fill:url(#linearGradient1087);fill-opacity:1;stroke-width:0.303379"
     id="path876-3"
     cx="12.700001"
     cy="12.700003"
     r="3.7041667" />
  <path
     d="m 12.7,10.31875 c -1.461253,0 -2.645833,1.184581 -2.645833,2.645834 0,1.461253 1.18458,2.645833 2.645833,2.645833 1.461253,0 2.645833,-1.18458 2.645833,-2.645833 0,-1.461253 -1.18458,-2.645834 -2.645833,-2.645834 z m 0,0.264584 c 0.401991,2.91e-4 0.797368,0.102325 1.149284,0.296623 l -0.806669,0.806669 c -0.224302,-0.0601 -0.460928,-0.0601 -0.68523,0 L 11.5533,10.88254 c 0.350911,-0.194775 0.74536,-0.297698 1.1467,-0.299206 z m 2.084627,1.231966 c 0.194298,0.351917 0.296342,0.747293 0.296623,1.149284 -2.91e-4,0.401991 -0.102325,0.797368 -0.296623,1.149284 l -0.806669,-0.806669 c 0.0601,-0.224302 0.0601,-0.460928 0,-0.68523 z m -4.166671,0.0026 0.804086,0.804085 c -0.0601,0.224302 -0.0601,0.460928 0,0.68523 l -0.804086,0.804088 c -0.194775,-0.35092 -0.297698,-0.745369 -0.299206,-1.146709 0.0015,-0.40134 0.104431,-0.795789 0.299206,-1.1467 z M 12.7,11.90626 c 0.584501,0 1.058333,0.473832 1.058333,1.058333 0,0.584501 -0.473832,1.058333 -1.058333,1.058333 -0.584501,0 -1.058333,-0.473832 -1.058333,-1.058333 0,-0.584501 0.473832,-1.058333 1.058333,-1.058333 z m -0.342615,2.336291 c 0.224302,0.0601 0.460928,0.0601 0.68523,0 l 0.806669,0.806669 c -0.351916,0.194298 -0.747293,0.296342 -1.149284,0.296623 -0.40134,-0.0015 -0.795789,-0.10443 -1.1467,-0.299207 z"
     style="opacity:0.1;fill:url(#linearGradient3064);fill-opacity:1;stroke-width:0.440973;stroke-linejoin:round"
     id="path2969" />
  <path
     id="path1493"
     style="opacity:1;fill:url(#linearGradient1806);fill-opacity:1;stroke-width:1.66667;stroke-linejoin:round"
     d="m 48,38 c -5.522847,0 -10,4.477153 -10,10 0,5.522847 4.477153,10 10,10 5.522847,0 10,-4.477153 10,-10 0,-5.522847 -4.477153,-10 -10,-10 z m 0,1 c 1.519335,0.0011 3.013673,0.386741 4.34375,1.121094 l -3.048828,3.048828 c -0.847756,-0.22715 -1.742088,-0.22715 -2.589844,0 L 43.666016,40.130859 C 44.992294,39.394698 46.483123,39.005698 48,39 Z m 7.878906,4.65625 C 56.613259,44.986327 56.998938,46.480665 57,48 c -0.0011,1.519335 -0.386741,3.013673 -1.121094,4.34375 l -3.048828,-3.048828 c 0.22715,-0.847756 0.22715,-1.742088 0,-2.589844 z m -15.748047,0.0098 3.039063,3.039062 c -0.22715,0.847756 -0.22715,1.742088 0,2.589844 l -3.039063,3.039062 C 39.394698,51.007706 39.005698,49.516877 39,48 c 0.0057,-1.516877 0.394698,-3.007706 1.130859,-4.333984 z M 48,44 c 2.209139,0 4,1.790861 4,4 0,2.209139 -1.790861,4 -4,4 -2.209139,0 -4,-1.790861 -4,-4 0,-2.209139 1.790861,-4 4,-4 z m -1.294922,8.830078 c 0.847756,0.22715 1.742088,0.22715 2.589844,0 l 3.048828,3.048828 C 51.013673,56.613259 49.519335,56.998938 48,57 c -1.516877,-0.0057 -3.007706,-0.394698 -4.333984,-1.130859 z"
     transform="scale(0.26458333)"
     sodipodi:nodetypes="sssssccccccccccccccccccssssscccccc" />
  <path
     id="path876-5"
     style="opacity:0.4;fill:url(#linearGradient1449);fill-opacity:1;stroke-width:0.303379"
     d="m 12.7,8.9958332 c -2.045755,3e-7 -3.7041668,1.6584118 -3.7041668,3.7041668 0,2.045755 1.6584118,3.704167 3.7041668,3.704167 2.045755,0 3.704167,-1.658412 3.704167,-3.704167 C 16.404168,10.654244 14.745756,8.9958332 12.7,8.9958332 Z m 0,0.2645834 C 14.599632,9.2604145 16.139585,10.80037 16.139583,12.7 16.139584,14.599631 14.599631,16.139586 12.7,16.139583 10.800371,16.139583 9.2604152,14.59963 9.2604172,12.7 9.2604152,10.80037 10.800371,9.2604155 12.7,9.2604166 Z" />
</svg>
