<?xml version="1.0" encoding="UTF-8" standalone="no"?>
<!-- Created with Inkscape (http://www.inkscape.org/) -->

<svg
   width="64"
   height="64"
   viewBox="0 0 16.933333 16.933333"
   version="1.1"
   id="svg5"
   inkscape:version="1.1.2 (0a00cf5339, 2022-02-04, custom)"
   sodipodi:docname="wine-winecfg.svg"
   xmlns:inkscape="http://www.inkscape.org/namespaces/inkscape"
   xmlns:sodipodi="http://sodipodi.sourceforge.net/DTD/sodipodi-0.dtd"
   xmlns:xlink="http://www.w3.org/1999/xlink"
   xmlns="http://www.w3.org/2000/svg"
   xmlns:svg="http://www.w3.org/2000/svg">
  <sodipodi:namedview
     id="namedview7"
     pagecolor="#ffffff"
     bordercolor="#666666"
     borderopacity="1.0"
     inkscape:pageshadow="2"
     inkscape:pageopacity="0.0"
     inkscape:pagecheckerboard="0"
     inkscape:document-units="px"
     showgrid="false"
     units="px"
     height="48px"
     inkscape:zoom="4"
     inkscape:cx="-9.125"
     inkscape:cy="55.625"
     inkscape:window-width="1920"
     inkscape:window-height="1011"
     inkscape:window-x="0"
     inkscape:window-y="32"
     inkscape:window-maximized="1"
     inkscape:current-layer="svg5"
     inkscape:lockguides="true" />
  <defs
     id="defs2">
    <linearGradient
       inkscape:collect="always"
       id="linearGradient1355">
      <stop
         style="stop-color:#0078d7;stop-opacity:1;"
         offset="0"
         id="stop1351" />
      <stop
         style="stop-color:#00adef;stop-opacity:1"
         offset="1"
         id="stop1353" />
    </linearGradient>
    <linearGradient
       inkscape:collect="always"
       id="linearGradient4568">
      <stop
         style="stop-color:#ffffff;stop-opacity:1;"
         offset="0"
         id="stop4564" />
      <stop
         style="stop-color:#a3d8ff;stop-opacity:1"
         offset="1"
         id="stop4566" />
    </linearGradient>
    <linearGradient
       inkscape:collect="always"
       id="linearGradient4194">
      <stop
         style="stop-color:#000000;stop-opacity:1;"
         offset="0"
         id="stop4190" />
      <stop
         style="stop-color:#000000;stop-opacity:0;"
         offset="1"
         id="stop4192" />
    </linearGradient>
    <linearGradient
       inkscape:collect="always"
       xlink:href="#linearGradient4194"
       id="linearGradient4196"
       x1="11"
       y1="52.5"
       x2="53"
       y2="16.5"
       gradientUnits="userSpaceOnUse" />
    <linearGradient
       inkscape:collect="always"
       xlink:href="#linearGradient4568"
       id="linearGradient4570"
       x1="25"
       y1="12"
       x2="25"
       y2="52"
       gradientUnits="userSpaceOnUse" />
    <linearGradient
       inkscape:collect="always"
       xlink:href="#linearGradient37218"
       id="linearGradient1781"
       x1="2.8346456e-08"
       y1="2.2677165e-07"
       x2="64"
       y2="64"
       gradientUnits="userSpaceOnUse"
       gradientTransform="scale(0.26458333)" />
    <linearGradient
       inkscape:collect="always"
       id="linearGradient37218">
      <stop
         style="stop-color:#ffffff;stop-opacity:1"
         offset="0"
         id="stop37214" />
      <stop
         style="stop-color:#e6e6e6;stop-opacity:0.00306325"
         offset="0.49741825"
         id="stop37220" />
      <stop
         style="stop-color:#ffffff;stop-opacity:1"
         offset="1"
         id="stop37216" />
    </linearGradient>
    <linearGradient
       inkscape:collect="always"
       xlink:href="#linearGradient1355"
       id="linearGradient1357"
       x1="-3.1750002"
       y1="10.384895"
       x2="-3.175"
       y2="-6.5484376"
       gradientUnits="userSpaceOnUse"
       gradientTransform="translate(3.1750001,6.5484376)" />
    <linearGradient
       inkscape:collect="always"
       xlink:href="#linearGradient1016"
       id="linearGradient1018"
       x1="8.4666662"
       y1="8.4666662"
       x2="16.933332"
       y2="16.404167"
       gradientUnits="userSpaceOnUse"
       gradientTransform="matrix(1.1666667,0,0,1.1666667,-2.1166658,-2.1166657)" />
    <linearGradient
       inkscape:collect="always"
       id="linearGradient1016">
      <stop
         style="stop-color:#cccccc;stop-opacity:1;"
         offset="0"
         id="stop1012" />
      <stop
         style="stop-color:#999999;stop-opacity:1"
         offset="1"
         id="stop1014" />
    </linearGradient>
    <linearGradient
       inkscape:collect="always"
       xlink:href="#linearGradient2058"
       id="linearGradient2060"
       x1="13.754716"
       y1="18.536539"
       x2="13.754716"
       y2="-2.1009581"
       gradientUnits="userSpaceOnUse"
       gradientTransform="matrix(0.5999994,0,0,0.5999994,7.6200041,7.6200047)" />
    <linearGradient
       inkscape:collect="always"
       id="linearGradient2058">
      <stop
         style="stop-color:#333333;stop-opacity:1"
         offset="0"
         id="stop2054" />
      <stop
         style="stop-color:#666666;stop-opacity:1"
         offset="1"
         id="stop2056" />
    </linearGradient>
    <linearGradient
       inkscape:collect="always"
       xlink:href="#linearGradient3822"
       id="linearGradient6863"
       x1="12.435417"
       y1="17.727047"
       x2="12.43545"
       y2="4.2333245"
       gradientUnits="userSpaceOnUse"
       gradientTransform="matrix(0.70000009,0,0,0.70000009,6.7733118,5.1064578)" />
    <linearGradient
       inkscape:collect="always"
       id="linearGradient3822">
      <stop
         style="stop-color:#999999;stop-opacity:1"
         offset="0"
         id="stop3818" />
      <stop
         style="stop-color:#cccccc;stop-opacity:1"
         offset="1"
         id="stop3820" />
    </linearGradient>
    <linearGradient
       inkscape:collect="always"
       xlink:href="#linearGradient2216"
       id="linearGradient1449"
       gradientUnits="userSpaceOnUse"
       x1="9.5249996"
       y1="9.5249996"
       x2="15.874999"
       y2="15.875001"
       gradientTransform="matrix(1.1666668,0,0,1.1666668,-2.1166663,-2.1166674)" />
    <linearGradient
       inkscape:collect="always"
       id="linearGradient2216">
      <stop
         style="stop-color:#ffffff;stop-opacity:1"
         offset="0"
         id="stop2210" />
      <stop
         style="stop-color:#ffffff;stop-opacity:0.00392157"
         offset="0.49741825"
         id="stop2212" />
      <stop
         style="stop-color:#ffffff;stop-opacity:1"
         offset="1"
         id="stop2214" />
    </linearGradient>
  </defs>
  <path
     id="rect863"
     style="fill:url(#linearGradient1357);fill-opacity:1;stroke-width:0.264583"
     d="M 3.1749997,1.0583333 H 13.758333 c 1.172634,0 2.116667,0.9440333 2.116667,2.1166667 v 10.583333 c 0,1.172634 -0.944033,2.116667 -2.116667,2.116667 H 3.1749997 c -1.1726331,0 -2.1166664,-0.944033 -2.1166664,-2.116667 V 3.175 c 0,-1.1726334 0.9440333,-2.1166667 2.1166664,-2.1166667 z" />
  <path
     id="rect1345"
     style="opacity:0.3;fill:url(#linearGradient1781);fill-opacity:1;stroke-width:0.264583"
     d="m 3.175,1.0583333 c -1.1726334,0 -2.1166667,0.9440333 -2.1166667,2.1166667 v 10.583333 c 0,1.172634 0.9440333,2.116667 2.1166667,2.116667 h 10.583333 c 1.172634,0 2.116667,-0.944033 2.116667,-2.116667 V 3.175 c 0,-1.1726334 -0.944033,-2.1166667 -2.116667,-2.1166667 z m 0,0.2645834 h 10.583333 c 1.026054,0 1.852084,0.8260291 1.852084,1.8520833 v 10.583333 c 0,1.026054 -0.82603,1.852084 -1.852084,1.852084 H 3.175 c -1.0260542,0 -1.8520833,-0.82603 -1.8520833,-1.852084 V 3.175 c 0,-1.0260542 0.8260291,-1.8520833 1.8520833,-1.8520833 z" />
  <path
     id="rect3474"
     style="opacity:1;fill:url(#linearGradient4570);stroke-width:1.1764;fill-opacity:1"
     d="M 49 15 L 31 17.117188 L 31 31 L 49 31 L 49 15 z M 29 17.353516 L 15 19 L 15 31 L 29 31 L 29 17.353516 z M 15 33 L 15 45 L 29 46.646484 L 29 33 L 15 33 z M 31 33 L 31 46.882812 L 49 49 L 49 33 L 31 33 z "
     transform="scale(0.26458333)" />
  <path
     id="rect3474-9"
     style="fill:url(#linearGradient4196);stroke-width:1.1764;opacity:0.3;fill-opacity:1"
     d="M 15 31 L 15 32 L 29 32 L 29 31 L 15 31 z M 31 31 L 31 32 L 49 32 L 49 31 L 31 31 z M 15 45 L 15 46 L 29 47.646484 L 29 46.646484 L 15 45 z M 31 46.882812 L 31 47.882812 L 49 50 L 49 49 L 31 46.882812 z "
     transform="scale(0.26458333)" />
  <circle
     style="fill:url(#linearGradient1018);fill-opacity:1;stroke-width:0.303379"
     id="path876"
     cx="12.700001"
     cy="12.700003"
     r="3.7041667" />
  <path
     id="rect846-3-3"
     style="fill:url(#linearGradient2060);fill-opacity:1;stroke-width:0.202517"
     d="M 12.699998,9.5249998 A 3.1749969,3.1749969 0 0 0 9.5249997,12.699997 3.1749969,3.1749969 0 0 0 12.699998,15.874996 3.1749969,3.1749969 0 0 0 15.874999,12.699997 3.1749969,3.1749969 0 0 0 12.699998,9.5249998 Z" />
  <path
     id="path863-3"
     style="fill:url(#linearGradient6863);fill-opacity:1;stroke-width:0.303104;stroke-linejoin:round"
     d="m 15.478077,12.699986 c 0,-0.09053 -0.07288,-0.163418 -0.163419,-0.163418 h -0.175227 a 2.4512737,2.4512737 0 0 0 -0.04021,-0.31024 l 0.168525,-0.04533 c 0.07651,-0.0205 0.125607,-0.09127 0.120972,-0.167244 -7e-4,-0.01085 -0.0024,-0.02195 -0.0053,-0.03286 -0.02344,-0.08744 -0.112676,-0.138971 -0.200124,-0.115535 l -0.168208,0.045 a 2.4512737,2.4512737 0 0 0 -0.118784,-0.289825 l 0.149694,-0.08649 c 0.049,-0.02829 0.07801,-0.07766 0.08172,-0.129907 0.0022,-0.03136 -0.0048,-0.0638 -0.02171,-0.09319 -0.04526,-0.0784 -0.145022,-0.104953 -0.223424,-0.05968 l -0.148729,0.08586 a 2.4512737,2.4512737 0 0 0 -0.189631,-0.250244 l 0.12033,-0.12033 c 0.03202,-0.03203 0.04789,-0.07378 0.04789,-0.115547 0,-0.04176 -0.01586,-0.08354 -0.04789,-0.115546 -0.06401,-0.06401 -0.167068,-0.06401 -0.231084,0 l -0.120333,0.120321 A 2.4512737,2.4512737 0 0 0 14.06286,10.666194 l 0.08585,-0.148738 c 0.01698,-0.0294 0.02387,-0.06178 0.02171,-0.09319 -0.0036,-0.05235 -0.03238,-0.101931 -0.08138,-0.130226 -0.07841,-0.04526 -0.177838,-0.01838 -0.223105,0.06002 l -0.08649,0.149692 a 2.4512737,2.4512737 0 0 0 -0.28983,-0.11873 l 0.045,-0.168207 c 0.0029,-0.01096 0.0048,-0.02201 0.0053,-0.03287 0.0046,-0.07599 -0.04446,-0.146745 -0.120974,-0.167247 -0.08744,-0.023424 -0.176692,0.0281 -0.200123,0.115547 l -0.04533,0.168525 a 2.4512737,2.4512737 0 0 0 -0.31015,-0.04021 v -0.175229 c 0,-0.090534 -0.07288,-0.163417 -0.163419,-0.163417 -0.09053,-9e-7 -0.163418,0.072879 -0.163418,0.163417 l -2e-6,0.175228 a 2.4512737,2.4512737 0 0 0 -0.31024,0.04021 l -0.04533,-0.168525 c -0.02342,-0.08746 -0.112677,-0.1389732 -0.200123,-0.115547 -0.08746,0.02342 -0.138973,0.112677 -0.115547,0.200125 l 0.045,0.168207 a 2.4512737,2.4512737 0 0 0 -0.289772,0.118734 l -0.08651,-0.149695 c -0.04526,-0.07841 -0.1447,-0.10528 -0.223104,-0.06002 -0.0784,0.04526 -0.104953,0.145019 -0.05968,0.223424 l 0.08586,0.148734 a 2.4512737,2.4512737 0 0 0 -0.250233,0.189597 l -0.12033,-0.120329 c -0.06401,-0.06401 -0.167068,-0.06401 -0.231086,0 -0.06401,0.06401 -0.06401,0.167068 4e-6,0.231083 l 0.120328,0.12033 a 2.4512737,2.4512737 0 0 0 -0.189574,0.250241 l -0.148738,-0.08586 c -0.07841,-0.04526 -0.178155,-0.01872 -0.223422,0.05968 -0.04526,0.07841 -0.01838,0.177838 0.06002,0.223104 l 0.149693,0.08651 a 2.4512737,2.4512737 0 0 0 -0.118732,0.289811 l -0.168205,-0.045 c -0.08744,-0.02342 -0.176693,0.0281 -0.200124,0.115547 -0.023441,0.08746 0.0281,0.176692 0.115535,0.200127 l 0.168526,0.04533 a 2.4512737,2.4512737 0 0 0 -0.04021,0.310238 l -0.175226,-4e-6 c -0.090533,2e-6 -0.1634195,0.07288 -0.1634195,0.163419 -9e-7,0.09053 0.072879,0.163418 0.1634155,0.163418 h 0.17523 a 2.4512737,2.4512737 0 0 0 0.04021,0.31024 l -0.168524,0.04533 c -0.08744,0.02344 -0.1389759,0.112678 -0.115547,0.200123 0.02342,0.08744 0.112677,0.138974 0.200122,0.115546 l 0.168206,-0.04501 a 2.4512737,2.4512737 0 0 0 0.118734,0.289803 l -0.149693,0.08649 c -0.07841,0.04526 -0.105278,0.144699 -0.06002,0.223106 0.04528,0.0784 0.14502,0.104941 0.223423,0.05968 l 0.148737,-0.08585 a 2.4512737,2.4512737 0 0 0 0.18959,0.250236 l -0.12033,0.120328 c -0.06401,0.06401 -0.06401,0.167068 4e-6,0.231084 0.06401,0.06401 0.167065,0.06401 0.231083,-7e-6 l 0.120328,-0.120327 a 2.4512737,2.4512737 0 0 0 0.250236,0.189588 l -0.08586,0.148735 c -0.04526,0.0784 -0.01872,0.178155 0.05968,0.223423 0.0784,0.04526 0.177838,0.0184 0.223103,-0.06002 l 0.08651,-0.149694 a 2.4512737,2.4512737 0 0 0 0.289813,0.118733 l -0.045,0.168209 c -0.02342,0.08744 0.0281,0.176693 0.115535,0.200126 0.08744,0.02344 0.176693,-0.0281 0.200127,-0.115536 l 0.04533,-0.168527 a 2.4512737,2.4512737 0 0 0 0.310241,0.04021 l -10e-7,0.175228 c 0,0.09053 0.07287,0.163419 0.163415,0.16342 0.09053,-1e-6 0.163418,-0.07287 0.163417,-0.16342 v -0.169479 a 2.4512737,2.4512737 0 0 0 0.311835,-0.04054 l 0.04372,0.1631 c 0.02342,0.08746 0.112678,0.138974 0.200123,0.115547 0.07651,-0.0205 0.125608,-0.09127 0.120973,-0.167245 -7e-4,-0.01085 -0.0025,-0.02195 -0.0053,-0.03289 l -0.04404,-0.16374 a 2.4512737,2.4512737 0 0 0 0.290767,-0.120334 l 0.08457,0.146822 c 0.04526,0.0784 0.144702,0.10528 0.223104,0.06003 0.049,-0.02831 0.07777,-0.07788 0.08138,-0.130225 0.0021,-0.0314 -0.0048,-0.0638 -0.0217,-0.09319 l -0.0843,-0.146189 a 2.4512737,2.4512737 0 0 0 0.248955,-0.191823 l 0.12001,0.120011 c 0.06401,0.06401 0.167074,0.06401 0.231089,4e-6 0.03202,-0.03202 0.04788,-0.07378 0.04788,-0.115546 6e-6,-0.04176 -0.01586,-0.08354 -0.04788,-0.115547 l -0.12002,-0.12002 a 2.4512737,2.4512737 0 0 0 0.191826,-0.248959 l 0.146183,0.08427 c 0.0784,0.04526 0.178157,0.01872 0.223424,-0.05968 0.01698,-0.02941 0.02394,-0.06184 0.02171,-0.09319 -0.0038,-0.05226 -0.03272,-0.101616 -0.08172,-0.129903 l -0.146818,-0.08459 a 2.4512737,2.4512737 0 0 0 0.120326,-0.290771 l 0.163735,0.04404 c 0.08746,0.02344 0.176693,-0.0281 0.200128,-0.115535 0.0029,-0.01096 0.0048,-0.02201 0.0053,-0.03286 0.0046,-0.07599 -0.04445,-0.146748 -0.120968,-0.167248 l -0.163099,-0.04372 a 2.4512737,2.4512737 0 0 0 0.04053,-0.311837 h 0.169481 c 0.09055,-3e-6 0.163425,-0.07288 0.163427,-0.163418 z m -0.700273,0.443656 a 2.1244372,2.1244372 0 0 1 -2.07784,1.680782 2.1244372,2.1244372 0 0 1 -0.65463,-0.103728 l -0.102771,-0.382373 0.667717,-1.156695 a 0.49025471,0.49025471 0 0 0 0.08968,0.0088 0.49025471,0.49025471 0 0 0 0.462168,-0.326834 l 1.335436,-6e-6 z m -0.0053,-0.882205 -0.275131,0.275131 h -1.336709 a 0.49025471,0.49025471 0 0 0 -0.460889,-0.326837 0.49025471,0.49025471 0 0 0 -0.08905,0.0092 l -0.668292,-1.157297 0.102772,-0.382373 a 2.1244372,2.1244372 0 0 1 0.654629,-0.103729 2.1244372,2.1244372 0 0 1 2.072732,1.68589 z m -1.909313,0.438549 a 0.16341826,0.16341826 0 0 1 -0.163416,0.163419 0.16341826,0.16341826 0 0 1 -0.163423,-0.163419 0.16341826,0.16341826 0 0 1 0.163418,-0.163416 0.16341826,0.16341826 0 0 1 0.163421,0.163416 z M 12.327313,12.38145 a 0.49025471,0.49025471 0 0 0 -0.117777,0.318537 0.49025471,0.49025471 0 0 0 0.117782,0.318537 l -0.667718,1.156373 -0.376309,0.10087 a 2.1244372,2.1244372 0 0 1 -0.70789,-1.575775 2.1244372,2.1244372 0 0 1 0.707931,-1.575773 l 0.376311,0.100857 z" />
  <path
     id="path876-5"
     style="opacity:0.4;fill:url(#linearGradient1449);fill-opacity:1;stroke-width:0.303379"
     d="m 12.699999,8.9958332 c -2.045754,3e-7 -3.7041666,1.6584118 -3.7041658,3.7041668 0,2.045755 1.6584118,3.704166 3.7041658,3.704166 2.045755,0 3.704167,-1.658411 3.704167,-3.704166 1e-6,-2.045756 -1.658411,-3.7041668 -3.704167,-3.7041668 z m 0,0.2645834 c 1.899632,-2.2e-6 3.439586,1.5399534 3.439584,3.4395834 1e-6,1.899631 -1.539953,3.439585 -3.439584,3.439583 -1.899629,0 -3.4395838,-1.539953 -3.4395825,-3.439583 -1.9e-6,-1.89963 1.5399535,-3.4395845 3.4395825,-3.4395834 z" />
</svg>
