<?xml version="1.0" encoding="UTF-8" standalone="no"?>
<!-- Created with Inkscape (http://www.inkscape.org/) -->

<svg
   width="64"
   height="64"
   viewBox="0 0 16.933333 16.933333"
   version="1.1"
   id="svg5"
   inkscape:version="1.1.1 (3bf5ae0d25, 2021-09-20, custom)"
   sodipodi:docname="wine-winecfg.svg"
   xmlns:inkscape="http://www.inkscape.org/namespaces/inkscape"
   xmlns:sodipodi="http://sodipodi.sourceforge.net/DTD/sodipodi-0.dtd"
   xmlns:xlink="http://www.w3.org/1999/xlink"
   xmlns="http://www.w3.org/2000/svg"
   xmlns:svg="http://www.w3.org/2000/svg">
  <sodipodi:namedview
     id="namedview7"
     pagecolor="#ffffff"
     bordercolor="#666666"
     borderopacity="1.0"
     inkscape:pageshadow="2"
     inkscape:pageopacity="0.0"
     inkscape:pagecheckerboard="0"
     inkscape:document-units="px"
     showgrid="false"
     units="px"
     height="48px"
     inkscape:zoom="4"
     inkscape:cx="-9.25"
     inkscape:cy="56.125"
     inkscape:window-width="1920"
     inkscape:window-height="1019"
     inkscape:window-x="0"
     inkscape:window-y="0"
     inkscape:window-maximized="1"
     inkscape:current-layer="svg5"
     inkscape:lockguides="true" />
  <defs
     id="defs2">
    <linearGradient
       inkscape:collect="always"
       id="linearGradient4568">
      <stop
         style="stop-color:#ffffff;stop-opacity:1;"
         offset="0"
         id="stop4564" />
      <stop
         style="stop-color:#a3d8ff;stop-opacity:1"
         offset="1"
         id="stop4566" />
    </linearGradient>
    <linearGradient
       inkscape:collect="always"
       id="linearGradient4194">
      <stop
         style="stop-color:#000000;stop-opacity:1;"
         offset="0"
         id="stop4190" />
      <stop
         style="stop-color:#000000;stop-opacity:0;"
         offset="1"
         id="stop4192" />
    </linearGradient>
    <linearGradient
       inkscape:collect="always"
       id="linearGradient2922">
      <stop
         style="stop-color:#00adef;stop-opacity:1;"
         offset="0"
         id="stop2918" />
      <stop
         style="stop-color:#0078d7;stop-opacity:1"
         offset="1"
         id="stop2920" />
    </linearGradient>
    <linearGradient
       inkscape:collect="always"
       id="linearGradient2216">
      <stop
         style="stop-color:#ffffff;stop-opacity:1"
         offset="0"
         id="stop2210" />
      <stop
         style="stop-color:#ffffff;stop-opacity:0.00392157"
         offset="0.49741825"
         id="stop2212" />
      <stop
         style="stop-color:#ffffff;stop-opacity:1"
         offset="1"
         id="stop2214" />
    </linearGradient>
    <linearGradient
       inkscape:collect="always"
       id="linearGradient1016">
      <stop
         style="stop-color:#cccccc;stop-opacity:1;"
         offset="0"
         id="stop1012" />
      <stop
         style="stop-color:#999999;stop-opacity:1"
         offset="1"
         id="stop1014" />
    </linearGradient>
    <linearGradient
       inkscape:collect="always"
       xlink:href="#linearGradient2216"
       id="linearGradient881"
       x1="64.208344"
       y1="64.062607"
       x2="0.30528301"
       y2="0.13507102"
       gradientUnits="userSpaceOnUse" />
    <linearGradient
       inkscape:collect="always"
       xlink:href="#linearGradient2058"
       id="linearGradient2060"
       x1="13.754716"
       y1="18.536539"
       x2="13.754716"
       y2="-2.1009581"
       gradientUnits="userSpaceOnUse"
       gradientTransform="matrix(0.49999956,0,0,0.49999956,8.7312523,8.7312522)" />
    <linearGradient
       inkscape:collect="always"
       id="linearGradient2058">
      <stop
         style="stop-color:#333333;stop-opacity:1"
         offset="0"
         id="stop2054" />
      <stop
         style="stop-color:#666666;stop-opacity:1"
         offset="1"
         id="stop2056" />
    </linearGradient>
    <linearGradient
       inkscape:collect="always"
       xlink:href="#linearGradient3822"
       id="linearGradient6863"
       x1="12.435417"
       y1="17.727047"
       x2="12.43545"
       y2="4.2333245"
       gradientUnits="userSpaceOnUse"
       gradientTransform="matrix(0.60000007,0,0,0.60000007,7.8845649,6.4558325)" />
    <linearGradient
       inkscape:collect="always"
       id="linearGradient3822">
      <stop
         style="stop-color:#999999;stop-opacity:1"
         offset="0"
         id="stop3818" />
      <stop
         style="stop-color:#cccccc;stop-opacity:1"
         offset="1"
         id="stop3820" />
    </linearGradient>
    <linearGradient
       inkscape:collect="always"
       xlink:href="#linearGradient1016"
       id="linearGradient1018"
       x1="8.4666662"
       y1="8.4666662"
       x2="16.933332"
       y2="16.404167"
       gradientUnits="userSpaceOnUse"
       gradientTransform="translate(0.26458384,0.26458384)" />
    <linearGradient
       inkscape:collect="always"
       xlink:href="#linearGradient2216"
       id="linearGradient1449"
       gradientUnits="userSpaceOnUse"
       x1="9.5249996"
       y1="9.5249996"
       x2="15.874999"
       y2="15.875001"
       gradientTransform="translate(0.26458384,0.26458384)" />
    <linearGradient
       inkscape:collect="always"
       xlink:href="#linearGradient2922"
       id="linearGradient2924"
       x1="16.404167"
       y1="1.5874997"
       x2="16.404165"
       y2="16.933332"
       gradientUnits="userSpaceOnUse" />
    <linearGradient
       inkscape:collect="always"
       xlink:href="#linearGradient4194"
       id="linearGradient4196"
       x1="11"
       y1="52.5"
       x2="53"
       y2="16.5"
       gradientUnits="userSpaceOnUse" />
    <linearGradient
       inkscape:collect="always"
       xlink:href="#linearGradient4568"
       id="linearGradient4570"
       x1="25"
       y1="12"
       x2="25"
       y2="52"
       gradientUnits="userSpaceOnUse" />
  </defs>
  <path
     id="rect846-3"
     style="mix-blend-mode:multiply;fill:url(#linearGradient2924);fill-opacity:1;stroke-width:0.337527"
     d="m 3.175,1.5875 h 10.583333 c 0.879475,0 1.5875,0.708025 1.5875,1.5875 v 10.583333 c 0,0.879475 -0.708025,1.5875 -1.5875,1.5875 H 3.175 c -0.879475,0 -1.5875,-0.708025 -1.5875,-1.5875 V 3.175 c 0,-0.879475 0.708025,-1.5875 1.5875,-1.5875 z" />
  <path
     id="rect846"
     style="opacity:0.3;fill:url(#linearGradient881);stroke-width:1.27569;fill-opacity:1.0"
     d="M 12 6 C 8.6760005 6 6 8.6760005 6 12 L 6 52 C 6 55.324 8.6760005 58 12 58 L 52 58 C 55.324 58 58 55.324 58 52 L 58 12 C 58 8.6760005 55.324 6 52 6 L 12 6 z M 12 7 L 52 7 C 54.77 7 57 9.23 57 12 L 57 52 C 57 54.77 54.77 57 52 57 L 12 57 C 9.23 57 7 54.77 7 52 L 7 12 C 7 9.23 9.23 7 12 7 z "
     transform="scale(0.26458333)" />
  <path
     id="rect3474"
     style="opacity:1;fill:url(#linearGradient4570);stroke-width:1.1764;fill-opacity:1"
     d="M 49 15 L 31 17.117188 L 31 31 L 49 31 L 49 15 z M 29 17.353516 L 15 19 L 15 31 L 29 31 L 29 17.353516 z M 15 33 L 15 45 L 29 46.646484 L 29 33 L 15 33 z M 31 33 L 31 46.882812 L 49 49 L 49 33 L 31 33 z "
     transform="scale(0.26458333)" />
  <path
     id="rect3474-9"
     style="fill:url(#linearGradient4196);stroke-width:1.1764;opacity:0.3;fill-opacity:1"
     d="M 15 31 L 15 32 L 29 32 L 29 31 L 15 31 z M 31 31 L 31 32 L 49 32 L 49 31 L 31 31 z M 15 45 L 15 46 L 29 47.646484 L 29 46.646484 L 15 45 z M 31 46.882812 L 31 47.882812 L 49 50 L 49 49 L 31 46.882812 z "
     transform="scale(0.26458333)" />
  <circle
     style="fill:url(#linearGradient1018);fill-opacity:1;stroke-width:0.260039"
     id="path876"
     cx="12.964583"
     cy="12.964583"
     r="3.175" />
  <path
     id="rect846-3-3"
     style="fill:url(#linearGradient2060);fill-opacity:1;stroke-width:0.168764"
     d="m 12.964583,10.31875 a 2.645831,2.645831 0 0 0 -2.645833,2.645832 2.645831,2.645831 0 0 0 2.645833,2.645832 2.645831,2.645831 0 0 0 2.645834,-2.645832 2.645831,2.645831 0 0 0 -2.645834,-2.645832 z" />
  <path
     id="path863-3"
     style="fill:url(#linearGradient6863);fill-opacity:1;stroke-width:0.259804;stroke-linejoin:round"
     d="m 15.345793,12.964572 c 0,-0.0776 -0.06247,-0.140073 -0.140073,-0.140073 h -0.150195 a 2.1010917,2.1010917 0 0 0 -0.03446,-0.26592 l 0.14445,-0.03885 c 0.06558,-0.01757 0.107663,-0.07823 0.10369,-0.143352 -6e-4,-0.0093 -0.0021,-0.01881 -0.0046,-0.02817 -0.02009,-0.07495 -0.09658,-0.119118 -0.171535,-0.09903 l -0.144178,0.03857 a 2.1010917,2.1010917 0 0 0 -0.101785,-0.248422 l 0.128309,-0.07414 c 0.042,-0.02425 0.06686,-0.06656 0.07004,-0.111349 0.0019,-0.02688 -0.0041,-0.05468 -0.01861,-0.07988 -0.0388,-0.0672 -0.124304,-0.08996 -0.191506,-0.05116 l -0.127482,0.0736 a 2.1010917,2.1010917 0 0 0 -0.162541,-0.214495 l 0.10314,-0.10314 c 0.02745,-0.02745 0.04105,-0.06324 0.04105,-0.09904 0,-0.0358 -0.0136,-0.0716 -0.04105,-0.09904 -0.05486,-0.05486 -0.143201,-0.05486 -0.198072,0 l -0.103141,0.103139 a 2.1010917,2.1010917 0 0 0 -0.214521,-0.162503 l 0.07359,-0.127489 c 0.01455,-0.0252 0.02046,-0.05296 0.01861,-0.07988 -0.0031,-0.04487 -0.02775,-0.08737 -0.06976,-0.111623 -0.06721,-0.0388 -0.152433,-0.01576 -0.191233,0.05144 l -0.07414,0.128308 a 2.1010917,2.1010917 0 0 0 -0.248423,-0.101769 l 0.03857,-0.144178 c 0.0025,-0.0094 0.0041,-0.01887 0.0046,-0.02818 0.0039,-0.06514 -0.03811,-0.125781 -0.103692,-0.143354 -0.07495,-0.02008 -0.15145,0.02408 -0.171534,0.09904 l -0.03885,0.14445 a 2.1010917,2.1010917 0 0 0 -0.265881,-0.03447 v -0.150197 c 0,-0.0776 -0.06247,-0.140071 -0.140073,-0.140071 -0.0776,-1e-6 -0.140072,0.06247 -0.140073,0.140071 l -10e-7,0.150196 a 2.1010917,2.1010917 0 0 0 -0.26592,0.03446 l -0.03885,-0.14445 c -0.02008,-0.07496 -0.09658,-0.11912 -0.171534,-0.09904 -0.07496,0.02008 -0.11912,0.09658 -0.09904,0.171535 l 0.03857,0.144178 a 2.1010917,2.1010917 0 0 0 -0.248376,0.101772 l -0.07415,-0.12831 c -0.0388,-0.06721 -0.124029,-0.09024 -0.191232,-0.05144 -0.0672,0.0388 -0.08996,0.124302 -0.05115,0.191506 l 0.0736,0.127487 a 2.1010917,2.1010917 0 0 0 -0.214486,0.162511 l -0.10314,-0.103139 c -0.05486,-0.05486 -0.143201,-0.05486 -0.198074,0 -0.05486,0.05486 -0.05486,0.143201 3e-6,0.198071 l 0.103139,0.10314 a 2.1010917,2.1010917 0 0 0 -0.1625,0.214493 l -0.12749,-0.07359 c -0.06721,-0.0388 -0.152704,-0.01605 -0.191505,0.05115 -0.0388,0.06721 -0.01576,0.152432 0.05144,0.191231 l 0.128308,0.07415 a 2.1010917,2.1010917 0 0 0 -0.10177,0.24841 l -0.144177,-0.03857 c -0.07495,-0.02008 -0.151451,0.02408 -0.171535,0.09904 -0.02009,0.07496 0.02408,0.151451 0.09903,0.171537 l 0.144451,0.03885 a 2.1010917,2.1010917 0 0 0 -0.03446,0.265919 l -0.150193,-4e-6 c -0.0776,2e-6 -0.140074,0.06247 -0.140074,0.140074 -1e-6,0.0776 0.06247,0.140072 0.140071,0.140073 h 0.150196 a 2.1010917,2.1010917 0 0 0 0.03446,0.26592 l -0.144449,0.03885 c -0.07495,0.02009 -0.119122,0.09658 -0.09904,0.171533 0.02008,0.07495 0.09658,0.119121 0.171533,0.09904 l 0.144178,-0.03858 a 2.1010917,2.1010917 0 0 0 0.101771,0.248411 l -0.128308,0.07414 c -0.06721,0.0388 -0.09024,0.124028 -0.05144,0.191233 0.03881,0.0672 0.124303,0.08995 0.191506,0.05115 l 0.127488,-0.07359 a 2.1010917,2.1010917 0 0 0 0.162506,0.214488 l -0.10314,0.103139 c -0.05486,0.05486 -0.05486,0.143201 3e-6,0.198072 0.05486,0.05486 0.143199,0.05486 0.198071,-6e-6 l 0.103139,-0.103137 a 2.1010917,2.1010917 0 0 0 0.214488,0.162504 l -0.07359,0.127487 c -0.0388,0.0672 -0.01605,0.152704 0.05115,0.191505 0.0672,0.0388 0.152433,0.01577 0.191231,-0.05144 l 0.07415,-0.128309 a 2.1010917,2.1010917 0 0 0 0.248411,0.101771 l -0.03857,0.144179 c -0.02008,0.07495 0.02408,0.151451 0.09903,0.171536 0.07495,0.02009 0.151451,-0.02408 0.171537,-0.09903 l 0.03885,-0.144452 a 2.1010917,2.1010917 0 0 0 0.265921,0.03446 l -1e-6,0.150195 c 0,0.0776 0.06246,0.140074 0.14007,0.140075 0.0776,-10e-7 0.140073,-0.06246 0.140072,-0.140075 v -0.145267 a 2.1010917,2.1010917 0 0 0 0.267287,-0.03475 l 0.03748,0.1398 c 0.02008,0.07496 0.09658,0.11912 0.171534,0.09904 0.06558,-0.01757 0.107663,-0.07823 0.10369,-0.143353 -6e-4,-0.0093 -0.0022,-0.01881 -0.0046,-0.02819 l -0.03775,-0.140349 a 2.1010917,2.1010917 0 0 0 0.249229,-0.103143 l 0.07249,0.125847 c 0.0388,0.0672 0.124031,0.09024 0.191232,0.05145 0.042,-0.02426 0.06666,-0.06676 0.06976,-0.111621 0.0018,-0.02692 -0.0041,-0.05468 -0.0186,-0.07988 l -0.07223,-0.125298 a 2.1010917,2.1010917 0 0 0 0.21339,-0.164419 l 0.102865,0.102867 c 0.05487,0.05486 0.143206,0.05487 0.198077,3e-6 0.02744,-0.02744 0.04104,-0.06324 0.04104,-0.09904 4e-6,-0.0358 -0.0136,-0.0716 -0.04104,-0.09904 l -0.102875,-0.102874 a 2.1010917,2.1010917 0 0 0 0.164423,-0.213393 l 0.125299,0.07223 c 0.0672,0.0388 0.152706,0.01604 0.191507,-0.05116 0.01455,-0.02521 0.02052,-0.05301 0.01861,-0.07988 -0.0032,-0.04479 -0.02804,-0.0871 -0.07004,-0.111346 l -0.125844,-0.0725 a 2.1010917,2.1010917 0 0 0 0.103136,-0.249232 l 0.140345,0.03775 c 0.07496,0.02009 0.151451,-0.02408 0.171538,-0.09903 0.0025,-0.0094 0.0041,-0.01887 0.0046,-0.02817 0.0039,-0.06514 -0.0381,-0.125784 -0.103687,-0.143356 l -0.139799,-0.03748 a 2.1010917,2.1010917 0 0 0 0.03474,-0.267289 h 0.14527 c 0.07761,-2e-6 0.140078,-0.06247 0.14008,-0.140072 z m -0.600234,0.380276 a 1.8209461,1.8209461 0 0 1 -1.781005,1.440671 1.8209461,1.8209461 0 0 1 -0.561111,-0.08891 l -0.08809,-0.327748 0.572329,-0.991453 a 0.42021831,0.42021831 0 0 0 0.07687,0.0075 0.42021831,0.42021831 0 0 0 0.396144,-0.280144 l 1.144659,-4e-6 z m -0.0045,-0.756175 -0.235826,0.235826 h -1.14575 a 0.42021831,0.42021831 0 0 0 -0.395048,-0.280146 0.42021831,0.42021831 0 0 0 -0.07633,0.0079 l -0.572863,-0.99198 0.08809,-0.327749 a 1.8209461,1.8209461 0 0 1 0.561111,-0.08891 1.8209461,1.8209461 0 0 1 1.776627,1.445048 z m -1.636553,0.375899 a 0.14007279,0.14007279 0 0 1 -0.140071,0.140073 0.14007279,0.14007279 0 0 1 -0.140077,-0.140073 0.14007279,0.14007279 0 0 1 0.140073,-0.140071 0.14007279,0.14007279 0 0 1 0.140075,0.140071 z m -0.459324,-0.273031 a 0.42021831,0.42021831 0 0 0 -0.100952,0.273032 0.42021831,0.42021831 0 0 0 0.100956,0.273031 l -0.57233,0.991178 -0.32255,0.08646 a 1.8209461,1.8209461 0 0 1 -0.606764,-1.350665 1.8209461,1.8209461 0 0 1 0.606799,-1.350663 l 0.322552,0.08645 z" />
  <path
     id="path876-5"
     style="opacity:0.4;fill:url(#linearGradient1449);fill-opacity:1;stroke-width:0.260039"
     d="m 12.964583,9.7895831 a 3.175,3.175 0 0 0 -3.1749999,3.1750019 3.175,3.175 0 0 0 3.1749999,3.175 3.175,3.175 0 0 0 3.175,-3.175 3.175,3.175 0 0 0 -3.175,-3.1750019 z m 0,0.2645839 a 2.9104145,2.9104145 0 0 1 2.910417,2.910418 2.9104145,2.9104145 0 0 1 -2.910417,2.910416 2.9104145,2.9104145 0 0 1 -2.910416,-2.910416 2.9104145,2.9104145 0 0 1 2.910416,-2.910418 z" />
</svg>
