<?xml version="1.0" encoding="UTF-8" standalone="no"?>
<!-- Created with Inkscape (http://www.inkscape.org/) -->

<svg
   width="64"
   height="64"
   viewBox="0 0 16.933333 16.933333"
   version="1.1"
   id="svg5"
   inkscape:version="1.1.1 (3bf5ae0d25, 2021-09-20, custom)"
   sodipodi:docname="xmind.svg"
   xmlns:inkscape="http://www.inkscape.org/namespaces/inkscape"
   xmlns:sodipodi="http://sodipodi.sourceforge.net/DTD/sodipodi-0.dtd"
   xmlns:xlink="http://www.w3.org/1999/xlink"
   xmlns="http://www.w3.org/2000/svg"
   xmlns:svg="http://www.w3.org/2000/svg">
  <sodipodi:namedview
     id="namedview7"
     pagecolor="#ffffff"
     bordercolor="#666666"
     borderopacity="1.0"
     inkscape:pageshadow="2"
     inkscape:pageopacity="0.0"
     inkscape:pagecheckerboard="0"
     inkscape:document-units="px"
     showgrid="false"
     units="px"
     height="48px"
     inkscape:zoom="5.656854"
     inkscape:cx="-2.2980971"
     inkscape:cy="15.821515"
     inkscape:window-width="1920"
     inkscape:window-height="1011"
     inkscape:window-x="0"
     inkscape:window-y="0"
     inkscape:window-maximized="1"
     inkscape:current-layer="svg5"
     inkscape:lockguides="true" />
  <defs
     id="defs2">
    <linearGradient
       inkscape:collect="always"
       id="linearGradient2086">
      <stop
         style="stop-color:#000000;stop-opacity:1;"
         offset="0"
         id="stop2082" />
      <stop
         style="stop-color:#000000;stop-opacity:0;"
         offset="1"
         id="stop2084" />
    </linearGradient>
    <linearGradient
       inkscape:collect="always"
       id="linearGradient1305">
      <stop
         style="stop-color:#fcfcfc;stop-opacity:1;"
         offset="0"
         id="stop1301" />
      <stop
         style="stop-color:#ffacac;stop-opacity:0.99607843"
         offset="1"
         id="stop1303" />
    </linearGradient>
    <linearGradient
       inkscape:collect="always"
       id="linearGradient947">
      <stop
         style="stop-color:#b81e31;stop-opacity:1;"
         offset="0"
         id="stop943" />
      <stop
         style="stop-color:#f67272;stop-opacity:1"
         offset="1"
         id="stop945" />
    </linearGradient>
    <linearGradient
       inkscape:collect="always"
       xlink:href="#linearGradient37218"
       id="linearGradient1781"
       x1="2.8346456e-08"
       y1="2.2677165e-07"
       x2="64"
       y2="64"
       gradientUnits="userSpaceOnUse"
       gradientTransform="scale(0.26458333)" />
    <linearGradient
       inkscape:collect="always"
       id="linearGradient37218">
      <stop
         style="stop-color:#ffffff;stop-opacity:1"
         offset="0"
         id="stop37214" />
      <stop
         style="stop-color:#717171;stop-opacity:0.00392157"
         offset="0.49741825"
         id="stop37220" />
      <stop
         style="stop-color:#000000;stop-opacity:1"
         offset="1"
         id="stop37216" />
    </linearGradient>
    <linearGradient
       inkscape:collect="always"
       xlink:href="#linearGradient947"
       id="linearGradient949"
       x1="8.9958334"
       y1="16.933334"
       x2="8.9958334"
       y2="6.7529299e-07"
       gradientUnits="userSpaceOnUse" />
    <linearGradient
       inkscape:collect="always"
       xlink:href="#linearGradient1305"
       id="linearGradient1307"
       x1="9.260416"
       y1="4.1105399"
       x2="9.2604761"
       y2="13.63554"
       gradientUnits="userSpaceOnUse" />
    <linearGradient
       inkscape:collect="always"
       xlink:href="#linearGradient2086"
       id="linearGradient2088"
       x1="1.3229173"
       y1="11.783457"
       x2="14.552146"
       y2="4.9042902"
       gradientUnits="userSpaceOnUse"
       gradientTransform="scale(3.7795276)" />
  </defs>
  <path
     id="rect863"
     style="fill:url(#linearGradient949);stroke-width:0.264583;fill-opacity:1"
     d="M 3.1750003,1.0583333 H 13.758333 c 1.172634,0 2.116667,0.944034 2.116667,2.116667 V 13.758333 c 0,1.172634 -0.944033,2.116667 -2.116667,2.116667 H 3.1750003 c -1.172633,0 -2.116667,-0.944033 -2.116667,-2.116667 V 3.1750003 c 0,-1.172633 0.944034,-2.116667 2.116667,-2.116667 z" />
  <path
     id="rect1345"
     style="opacity:0.3;fill:url(#linearGradient1781);fill-opacity:1;stroke-width:0.264583"
     d="m 3.1750003,1.0583333 c -1.172633,0 -2.116667,0.944034 -2.116667,2.116667 V 13.758333 c 0,1.172634 0.944034,2.116667 2.116667,2.116667 H 13.758334 c 1.172633,0 2.116666,-0.944033 2.116666,-2.116667 V 3.1750003 c 0,-1.172633 -0.944033,-2.116667 -2.116666,-2.116667 z m 0,0.264584 H 13.758334 c 1.026054,0 1.852083,0.826029 1.852083,1.852083 V 13.758333 c 0,1.026054 -0.826029,1.852084 -1.852083,1.852084 H 3.1750003 c -1.026054,0 -1.852083,-0.82603 -1.852083,-1.852084 V 3.1750003 c 0,-1.026054 0.826029,-1.852083 1.852083,-1.852083 z" />
  <path
     id="path46"
     style="fill:url(#linearGradient1307);fill-opacity:1;stroke-width:0.264583"
     d="m 6.0576808,4.7626088 c -0.026194,3.969e-4 -0.055475,0.00243 -0.0894,0.00465 C 5.8397039,4.7754688 3.4133491,5.229901 3.2588853,5.2747214 3.0956321,5.3220714 2.9559541,5.4221806 2.9219551,5.517084 2.8639531,5.6783634 3.0323364,6.2023077 3.2542345,6.55423 4.1395038,7.6055252 5.12245,7.8728602 6.0855862,8.4393862 6.1961397,8.5689815 6.2396036,8.6313126 5.3915717,9.0067934 4.0661679,9.5936921 3.6372667,10.09301 3.3834255,10.831488 c -0.074967,0.21821 -0.1096997,0.795282 -0.056844,0.940511 0.068601,0.18823 0.1099923,0.225869 1.3906127,-0.01705 1.2864306,-0.244039 1.1799713,-0.258026 1.2872598,-0.359668 0.087384,-0.08279 0.092061,-0.102844 0.1302247,-0.494544 0.021987,-0.224461 0.067458,-0.662611 0.100769,-0.778764 0.07724,-0.2696365 0.2716138,-0.5512812 0.4831746,-0.7002152 0.8024023,-0.5647531 2.3126903,-0.2831893 3.1300413,0.5834272 0.3079494,0.326522 0.5014694,0.792733 0.6557744,1.299145 0.08905,0.292206 0.179444,0.419062 0.319877,0.447002 0.129186,0.02566 0.132061,-0.01476 1.768884,-0.325562 0.910511,-0.172884 1.289493,-0.256991 1.343071,-0.29869 0.115094,-0.08964 0.115786,-0.309341 10e-4,-0.671793 C 13.740507,9.8324553 13.3991,9.418643 12.766799,8.9396146 12.453982,8.7026432 12.058926,8.4785186 11.390139,8.1582672 10.754029,7.8536776 10.451179,7.77123 10.451179,7.6766414 c 0,-0.078216 0.249874,-0.1130927 0.754476,-0.2640665 1.105615,-0.330888 1.638143,-0.794743 1.638143,-1.6541626 0,-0.3771635 -0.07121,-0.6815717 -0.181901,-0.7803142 -0.147203,-0.1313418 -0.405564,-0.1355603 -1.02371,-0.02377 -1.9813064,0.3582722 -1.8446784,0.344338 -1.9368324,0.49351 -0.04876,0.078878 -0.04676,0.097302 0.04289,0.4557861 0.05134,0.2055283 0.09281,0.4628115 0.0925,0.5224486 -7.94e-4,0.1268624 -0.165884,0.3389067 -0.246497,0.4144452 -0.197252,0.1847956 -0.644264,0.3100586 -1.102258,0.3100586 -0.553958,0 -0.971386,-0.1900023 -1.385962,-0.6314861 C 6.8025003,6.2000837 6.6498439,5.8913068 6.4457708,5.3232993 6.2665526,4.8244274 6.2418704,4.759382 6.0576808,4.7626099 Z" />
  <path
     id="path46-7"
     style="opacity:0.3;fill:url(#linearGradient2088);fill-opacity:1;stroke-width:0.999999"
     d="M 36.65625 21.605469 C 36.482855 21.88971 36.495845 21.98381 36.828125 23.3125 C 36.938235 23.753301 37.031655 24.244136 37.095703 24.638672 C 37.145548 24.512364 37.177081 24.391532 37.177734 24.287109 C 37.178906 24.061709 37.022166 23.0893 36.828125 22.3125 C 36.753133 22.012628 36.700299 21.795836 36.65625 21.605469 z M 11.072266 21.785156 C 11.06119 21.807675 11.051 21.829144 11.042969 21.851562 C 10.823756 22.461122 11.460159 24.441384 12.298828 25.771484 C 15.591709 29.681919 19.241432 30.725817 22.826172 32.798828 C 23.400245 32.389869 23.247028 32.18606 23 31.896484 C 19.359801 29.755284 15.644731 28.744884 12.298828 24.771484 C 11.72678 23.864236 11.248771 22.656074 11.072266 21.785156 z M 48.529297 22.207031 C 48.350301 25.173338 46.335724 26.823247 42.351562 28.015625 C 40.444405 28.586235 39.5 28.718052 39.5 29.013672 C 39.5 29.184238 39.769146 29.347908 40.302734 29.59375 C 40.775812 29.456652 41.452477 29.284626 42.351562 29.015625 C 46.530265 27.765025 48.542969 26.011872 48.542969 22.763672 C 48.542969 22.57202 48.538735 22.387522 48.529297 22.207031 z M 29.253906 34.501953 C 27.79418 34.519859 26.435069 34.875641 25.392578 35.609375 C 24.592976 36.172275 23.858337 37.236761 23.566406 38.255859 C 23.440514 38.694863 23.268659 40.350862 23.185547 41.199219 C 23.041301 42.67966 23.023614 42.755452 22.693359 43.068359 C 22.287858 43.452518 22.690227 43.505382 17.828125 44.427734 C 12.987986 45.345853 12.831541 45.203608 12.572266 44.492188 C 12.533055 44.384457 12.507247 44.212833 12.492188 44.001953 C 12.462492 44.648182 12.481102 45.241717 12.572266 45.492188 C 12.831541 46.203608 12.987986 46.345853 17.828125 45.427734 C 22.690227 44.505382 22.287858 44.452518 22.693359 44.068359 C 23.023614 43.755452 23.041301 43.67966 23.185547 42.199219 C 23.268659 41.350862 23.440514 39.694863 23.566406 39.255859 C 23.858337 38.236763 24.592976 37.172275 25.392578 36.609375 C 28.42528 34.474875 34.133456 35.539054 37.222656 38.814453 C 38.386559 40.048552 39.117972 41.810611 39.701172 43.724609 C 40.037739 44.82901 40.379386 45.308462 40.910156 45.414062 C 41.398418 45.511045 41.409285 45.358278 47.595703 44.183594 C 51.037005 43.530174 52.469375 43.21229 52.671875 43.054688 C 52.975939 42.81787 53.069067 42.340977 52.949219 41.607422 C 52.897037 41.802889 52.804238 41.951598 52.671875 42.054688 C 52.469375 42.21229 51.037005 42.530174 47.595703 43.183594 C 41.409285 44.358278 41.398418 44.511045 40.910156 44.414062 C 40.379386 44.308462 40.037739 43.82901 39.701172 42.724609 C 39.117972 40.810611 38.386559 39.048552 37.222656 37.814453 C 35.195368 35.664971 32.040656 34.467769 29.253906 34.501953 z "
     transform="scale(0.26458333)" />
</svg>
