<?xml version="1.0" encoding="UTF-8" standalone="no"?>
<!-- Created with Inkscape (http://www.inkscape.org/) -->

<svg
   width="16"
   height="16"
   viewBox="0 0 4.2333332 4.2333335"
   version="1.1"
   id="svg5"
   inkscape:version="1.1.1 (3bf5ae0d25, 2021-09-20, custom)"
   sodipodi:docname="network-cellular-acquiring-symbolic.svg"
   xmlns:inkscape="http://www.inkscape.org/namespaces/inkscape"
   xmlns:sodipodi="http://sodipodi.sourceforge.net/DTD/sodipodi-0.dtd"
   xmlns="http://www.w3.org/2000/svg"
   xmlns:svg="http://www.w3.org/2000/svg">
  <sodipodi:namedview
     id="namedview7"
     pagecolor="#ffffff"
     bordercolor="#666666"
     borderopacity="1.0"
     inkscape:pageshadow="2"
     inkscape:pageopacity="0.0"
     inkscape:pagecheckerboard="0"
     inkscape:document-units="px"
     showgrid="false"
     units="px"
     height="16px"
     showguides="false"
     inkscape:zoom="22.627418"
     inkscape:cx="3.2924658"
     inkscape:cy="10.717087"
     inkscape:window-width="1920"
     inkscape:window-height="1019"
     inkscape:window-x="0"
     inkscape:window-y="0"
     inkscape:window-maximized="1"
     inkscape:current-layer="svg5" />
  <defs
     id="defs2" />
  <path
     id="rect31"
     style="fill:#363636;fill-rule:evenodd;stroke-width:1.20871"
     d="M 15,1 0,16 H 9.0000001 V 15 H 2.4140625 L 14,3.4140625 v 5.5859376 h 1 z"
     transform="scale(0.26458333)"
     sodipodi:nodetypes="ccccccccc" />
  <path
     style="marker:none"
     d="M 3.4394949,2.6459583 V 2.8672368 C 3.1944634,2.8639863 2.9444313,3.0557609 2.8842986,3.2932914 2.8176651,3.5290716 2.9381805,3.820109 3.1520829,3.9396242 3.36261,4.0651403 3.6749,4.0240101 3.8457969,3.8483625 4.0214445,3.6774656 4.0625748,3.3651756 3.9370586,3.1546486 4.0633249,3.3646755 4.0239448,3.6778407 3.8480472,3.8506129 3.6767753,4.0280106 3.362735,4.0710161 3.1489575,3.94525 2.933305,3.8254847 2.8101641,3.5349473 2.8739223,3.2951666 2.8081638,3.5344473 2.9286793,3.8274848 3.1458321,3.9505007 3.3612348,4.0795172 3.6795257,4.0392621 3.8567984,3.859364 4.0381967,3.6835914 4.0818272,3.3645505 3.9533108,3.1452724 4.0837025,3.3634254 4.0430722,3.6840915 3.8611739,3.8637395 3.6830261,4.047138 3.3614848,4.0911437 3.1397064,3.961252 2.9165528,3.836611 2.7905366,3.5390729 2.856045,3.290541 2.7885364,3.5385728 2.9120522,3.8384863 3.136581,3.9665027 3.3601097,4.0995198 3.6857765,4.0583895 3.869925,3.8724906 4.0571991,3.6898422 4.1018298,3.3633004 3.9693128,3.1361462 4.103705,3.3624252 4.0620747,3.6904673 3.8743006,3.8768663 3.6892769,4.0661405 3.3604847,4.1111463 3.1304552,3.9772541 2.8998007,3.8476125 2.7709091,3.5433234 2.8382927,3.2859154 2.7689088,3.5428234 2.8953001,3.8494877 3.1273298,3.9825047 3.3589845,4.1195223 3.6920273,4.0773919 3.8829268,3.8854923 4.0762015,3.696093 4.1218324,3.3621752 3.9853148,3.126895 4.1237076,3.3611751 4.0810772,3.6967181 3.8873023,3.8898679 3.6956527,4.0851429 3.3592345,4.1311488 3.121204,3.9931312 2.8831735,3.8586139 2.7514066,3.5474489 2.8204154,3.2814149 2.7494063,3.5469489 2.878673,3.8604891 3.1182036,3.9985069 3.3578594,4.1395249 3.6982781,4.0963944 3.8959284,3.898494 4.0952039,3.7023438 4.141835,3.3610501 4.0011918,3.1176438 4.1437101,3.36005 4.1002046,3.7029689 3.9003039,3.9028695 3.7019035,4.1041453 3.3581094,4.1511514 3.1119528,4.0091332 2.8664214,3.8696153 2.7319041,3.5515745 2.8025382,3.2767892 2.7297788,3.5510744 2.8619208,3.8714906 3.1088274,4.0143839 3.3567343,4.1595274 3.7046538,4.1153968 3.90893,3.9116207 4.1143314,3.7087196 4.1618375,3.3599249 4.017194,3.1083926 4.1635877,3.3589248 4.119207,3.7093447 3.9134307,3.9159962 3.7081543,4.1232729 3.3569843,4.1710289 3.1027016,4.0251352 2.8497942,3.8806167 2.7122766,3.5557 2.7846609,3.2721637 2.7102763,3.5552 2.8451687,3.8824919 3.0997012,4.0303859 3.3556091,4.17953 3.7109046,4.1343992 3.9220567,3.9246223 4.1333338,3.7149704 4.1818401,3.3587997 4.033196,3.0992665 4.1835903,3.3577996 4.1382094,3.7155956 3.9264323,3.9289979 3.7144051,4.1422753 3.3558591,4.1911565 3.0935755,4.0411373 2.8330421,3.8916181 2.692649,3.5598255 2.7669086,3.267538 2.6906488,3.5594505 2.8285415,3.8934934 3.0904501,4.0463879 3.354484,4.1995326 3.7171554,4.1534017 3.9350584,3.937624 4.1523363,3.7212212 4.2018426,3.3575496 4.049198,3.0900153 4.2035929,3.3566745 4.1572119,3.7218464 3.939434,3.9419996 3.7206559,4.1612777 3.354734,4.211159 3.0843243,4.0570143 2.8162899,3.9026195 2.6730215,3.5640761 2.7490313,3.2629125 2.6711463,3.5635761 2.8117894,3.9044948 3.0811989,4.06239 3.3532338,4.2195351 3.7234062,4.1724042 3.9480601,3.9507507 4.1713387,3.727472 4.2218452,3.3565495 4.065075,3.0806391 4.2235955,3.3554243 4.1763393,3.7282222 3.9525606,3.9550012 3.7270317,4.1802801 3.3534838,4.2311617 3.0750731,4.0730164 2.7996628,3.913746 2.6535191,3.5682016 2.731279,3.2582868 2.6515188,3.5677016 2.7950372,3.9156212 3.0720727,4.0783921 3.3521086,4.2395378 3.729657,4.1915316 3.9611867,3.9637523 4.1903412,3.7337228 4.2418478,3.3554243 4.0810772,3.0715129 4.243598,3.3542992 4.1952168,3.734473 3.9655623,3.968128 3.7332825,4.1992825 3.3523587,4.2510392 3.0658219,4.0890184 2.7829106,3.9247473 2.6338915,3.5723271 2.7132767,3.2536613 2.6320163,3.5718271 2.7784101,3.9266226 3.0628215,4.0942691 3.3509835,4.2595403 3.7360329,4.210534 3.9741885,3.976754 4.2093436,3.7400987 4.2617253,3.3541742 4.0970792,3.0622618 4.2636006,3.353174 4.2142192,3.7407238 3.978564,3.9811296 3.7395333,4.218285 3.3512335,4.2711668 3.0566957,4.1048954 2.7662835,3.9357488 2.614389,3.5765777 2.6953994,3.2490357 2.6123888,3.5760777 2.7616579,3.937624 3.0535703,4.1102711 3.3498583,4.2795429 3.7424087,4.2295364 3.9871901,3.9898807 4.228471,3.7463495 4.2818529,3.353049 4.1130812,3.0531356 4.2836031,3.3520489 4.2333467,3.7469746 3.9915656,3.9941312 3.7457842,4.2372875 3.3502335,4.2910444 3.0474446,4.1208975 2.7495313,3.9467501 2.5947615,3.5807032 2.6776471,3.2445351 2.5927613,3.5802032 2.7450308,3.9486254 3.0443192,4.1262732 3.3487332,4.2995454 3.7485344,4.2485389 4.0003168,4.0028824 4.2474734,3.7526003 4.3018554,3.3519239 4.1290833,3.0438844 4.3028556,3.3514238 4.2498488,3.7529753 4.0024421,4.0050077 3.7502847,4.2524144 3.3488582,4.3052961 3.0413188,4.1315239 2.7371548,3.9520008 2.5822599,3.5779528 2.6703962,3.235909 2.7650333,2.8957404 3.0863246,2.6492087 3.4393698,2.6458333 Z"
     color="#000000"
     overflow="visible"
     fill="#363636"
     stroke-width="0.894214"
     enable-background="accumulate"
     id="path7" />
</svg>
