<?xml version="1.0" encoding="UTF-8" standalone="no"?>
<svg
   width="16"
   height="16"
   version="1.1"
   id="svg8"
   sodipodi:docname="numlock-enabled-symbolic.svg"
   inkscape:version="1.1.1 (3bf5ae0d25, 2021-09-20, custom)"
   xmlns:inkscape="http://www.inkscape.org/namespaces/inkscape"
   xmlns:sodipodi="http://sodipodi.sourceforge.net/DTD/sodipodi-0.dtd"
   xmlns="http://www.w3.org/2000/svg"
   xmlns:svg="http://www.w3.org/2000/svg">
  <defs
     id="defs12" />
  <sodipodi:namedview
     id="namedview10"
     pagecolor="#ffffff"
     bordercolor="#666666"
     borderopacity="1.0"
     inkscape:pageshadow="2"
     inkscape:pageopacity="0.0"
     inkscape:pagecheckerboard="0"
     showgrid="false"
     inkscape:zoom="45.4375"
     inkscape:cx="9.3314993"
     inkscape:cy="8.3081155"
     inkscape:window-width="1920"
     inkscape:window-height="1019"
     inkscape:window-x="0"
     inkscape:window-y="0"
     inkscape:window-maximized="1"
     inkscape:current-layer="svg8" />
  <path
     d="m3 1c-1.108 0-2 0.892-2 2v7c0 1.108 0.892 2 2 2h10c1.108 0 2-0.892 2-2v-7c0-1.108-0.892-2-2-2h-10zm0 1h10c0.554 0 1 0.446 1 1v7c0 0.554-0.446 1-1 1h-10c-0.554 0-1-0.446-1-1v-7c0-0.554 0.446-1 1-1zm-2 9v2c0 1.108 0.892 2 2 2h10c1.108 0 2-0.892 2-2v-2c0 1.108-0.892 2-2 2h-10c-1.108 0-2-0.892-2-2z"
     fill="#363636"
     fill-opacity="0.35"
     stroke-linecap="square"
     stroke-width="2"
     id="path2" />
  <path
     d="M 8.5746403,9.9999981 H 7.6846884 V 4.1004785 L 5.9,4.7559807 V 3.9521532 L 8.4358844,3.0000004 h 0.1387559 z"
     style="font-size:9.79904px;line-height:1.25;font-family:Roboto;-inkscape-font-specification:Roboto;stroke-width:0.918657;fill:#363636;fill-opacity:0.35"
     id="path9569" />
</svg>
