<?xml version="1.0" encoding="UTF-8" standalone="no"?>
<!-- Created with Inkscape (http://www.inkscape.org/) -->

<svg
   width="32"
   height="32"
   viewBox="0 0 8.4666667 8.4666667"
   version="1.1"
   id="svg5"
   inkscape:version="1.1.1 (3bf5ae0d25, 2021-09-20, custom)"
   sodipodi:docname="applications-other.svg"
   xmlns:inkscape="http://www.inkscape.org/namespaces/inkscape"
   xmlns:sodipodi="http://sodipodi.sourceforge.net/DTD/sodipodi-0.dtd"
   xmlns="http://www.w3.org/2000/svg"
   xmlns:svg="http://www.w3.org/2000/svg">
  <sodipodi:namedview
     id="namedview7"
     pagecolor="#ffffff"
     bordercolor="#666666"
     borderopacity="1.0"
     inkscape:pageshadow="2"
     inkscape:pageopacity="0.0"
     inkscape:pagecheckerboard="0"
     inkscape:document-units="px"
     showgrid="false"
     units="px"
     height="48px"
     inkscape:zoom="11.313708"
     inkscape:cx="20.373515"
     inkscape:cy="18.915107"
     inkscape:window-width="1365"
     inkscape:window-height="835"
     inkscape:window-x="-39"
     inkscape:window-y="216"
     inkscape:window-maximized="0"
     inkscape:current-layer="svg5"
     inkscape:lockguides="true" />
  <defs
     id="defs2" />
  <rect
     style="opacity:1;fill:#b3b3b3;fill-opacity:1;stroke-width:2.08359;stroke-linecap:round;stroke-linejoin:round"
     id="rect849"
     width="7.4083333"
     height="7.4083333"
     x="0.52916664"
     y="0.52916664"
     ry="1.0583333" />
  <path
     id="path1026"
     style="fill:#ffffff;stroke-width:4.7625;stroke-linecap:round;stroke-linejoin:round"
     d="m 2.1166666,3.7041667 c -0.2922506,0 -0.5291666,0.236916 -0.5291666,0.5291667 0,0.2922507 0.236916,0.5291667 0.5291666,0.5291667 0.2922507,0 0.5291667,-0.236916 0.5291667,-0.5291667 0,-0.2922507 -0.236916,-0.5291667 -0.5291667,-0.5291667 z m 2.1166667,0 c -0.2922508,0 -0.5291667,0.236916 -0.5291667,0.5291667 0,0.2922507 0.2369159,0.5291667 0.5291667,0.5291667 0.2922508,0 0.5291666,-0.236916 0.5291666,-0.5291667 0,-0.2922507 -0.2369158,-0.5291667 -0.5291666,-0.5291667 z m 2.1166666,0 c -0.2922508,0 -0.5291666,0.236916 -0.5291666,0.5291667 0,0.2922507 0.2369158,0.5291667 0.5291666,0.5291667 0.2922508,0 0.5291667,-0.236916 0.5291667,-0.5291667 0,-0.2922507 -0.2369159,-0.5291667 -0.5291667,-0.5291667 z"
     sodipodi:nodetypes="sssssssssssssss" />
</svg>
