<?xml version="1.0" encoding="UTF-8" standalone="no"?>
<!-- Created with Inkscape (http://www.inkscape.org/) -->

<svg
   width="32"
   height="32"
   viewBox="0 0 8.4666667 8.4666667"
   version="1.1"
   id="svg5"
   inkscape:version="1.1.1 (3bf5ae0d25, 2021-09-20, custom)"
   sodipodi:docname="preferences-fonts.svg"
   xmlns:inkscape="http://www.inkscape.org/namespaces/inkscape"
   xmlns:sodipodi="http://sodipodi.sourceforge.net/DTD/sodipodi-0.dtd"
   xmlns="http://www.w3.org/2000/svg"
   xmlns:svg="http://www.w3.org/2000/svg">
  <sodipodi:namedview
     id="namedview7"
     pagecolor="#ffffff"
     bordercolor="#666666"
     borderopacity="1.0"
     inkscape:pageshadow="2"
     inkscape:pageopacity="0.0"
     inkscape:pagecheckerboard="0"
     inkscape:document-units="px"
     showgrid="false"
     units="px"
     height="48px"
     inkscape:zoom="7.9999995"
     inkscape:cx="11.375001"
     inkscape:cy="29.437502"
     inkscape:window-width="1920"
     inkscape:window-height="1011"
     inkscape:window-x="0"
     inkscape:window-y="0"
     inkscape:window-maximized="1"
     inkscape:current-layer="svg5"
     inkscape:lockguides="true" />
  <defs
     id="defs2" />
  <rect
     style="opacity:1;fill:#818f9b;fill-opacity:1;stroke-width:3.12539;stroke-linecap:round;stroke-linejoin:round"
     id="rect849"
     width="7.4083333"
     height="7.4083333"
     x="0.52916664"
     y="0.52916664"
     ry="1.0583333" />
  <path
     id="path15486"
     style="font-size:8.21007px;line-height:1.25;font-family:Pretendard;-inkscape-font-specification:Pretendard;fill:#ffffff;stroke-width:0.13281"
     d="M 2.6975354,2.1166667 1.3229167,5.8727094 H 1.8104365 L 2.1866093,4.8144101 H 3.6963157 L 4.0724885,5.8727094 H 4.5653583 L 3.1904052,2.1166667 Z M 2.925914,2.7235587 H 2.957011 L 3.5535373,4.4044654 H 2.3293877 Z m 3.1595163,0.2959226 c -0.2040561,0 -0.3884404,0.032593 -0.5527229,0.098306 C 5.370154,3.1817713 5.2397229,3.2717664 5.1411533,3.3876288 5.0425838,3.5034913 4.9839595,3.6367596 4.9649374,3.7872078 H 5.4317258 C 5.4645823,3.6748039 5.5354435,3.5838632 5.6443889,3.5146917 5.7533341,3.4437908 5.8934993,3.4083602 6.0646992,3.4083602 c 0.209244,0 0.3672631,0.049225 0.4744791,0.147794 0.1089452,0.09684 0.1635097,0.2360598 0.1635097,0.4176353 v 0.2283787 c -0.060525,0.00173 -0.1727684,0.00707 -0.3370507,0.015716 -0.1642826,0.00865 -0.3063393,0.017101 -0.4256603,0.025747 -0.3060844,0.022481 -0.5594385,0.094288 -0.7600361,0.2153381 -0.1988684,0.1193208 -0.2982632,0.3243961 -0.2982632,0.614917 0,0.1781169 0.042328,0.3326874 0.1270628,0.4641135 0.084735,0.1296967 0.1998154,0.2290916 0.3450758,0.298263 0.1452603,0.067442 0.308008,0.1022616 0.4878542,0.1039909 C 6.0630197,5.9385237 6.243621,5.8924137 6.3836936,5.802491 6.5254956,5.710838 6.6248903,5.6064383 6.6819567,5.4888466 h 0.020731 V 5.8727094 H 7.1437296 V 4.0155865 C 7.1454589,3.6264962 7.0372759,3.3634081 6.8193852,3.2267941 6.6014947,3.0884509 6.356929,3.0194813 6.0854303,3.0194813 Z M 6.702688,4.5679752 v 0.2825475 c 0,0.1210503 -0.031037,0.2345735 -0.093291,0.3400601 C 6.548872,5.2960695 6.4598226,5.3807247 6.3422307,5.4447084 6.224639,5.5086924 6.0854194,5.5406744 5.9245954,5.5406744 5.7447493,5.5406744 5.6001899,5.5027414 5.4912445,5.4266522 5.3840292,5.3505633 5.3297991,5.2398774 5.3280693,5.094617 5.3297986,4.9458979 5.3874772,4.832375 5.5016103,4.7545569 5.6174728,4.6767388 5.7811662,4.6309627 5.9921397,4.6171285 L 6.3602873,4.5913815 C 6.5487811,4.5775475 6.6629156,4.5697055 6.702688,4.5679752 Z" />
</svg>
