<?xml version="1.0" encoding="UTF-8" standalone="no"?>
<!-- Created with Inkscape (http://www.inkscape.org/) -->

<svg
   width="32"
   height="32"
   viewBox="0 0 8.4666665 8.4666665"
   version="1.1"
   id="svg5"
   inkscape:version="1.1.1 (3bf5ae0d25, 2021-09-20, custom)"
   sodipodi:docname="lastfm.svg"
   xmlns:inkscape="http://www.inkscape.org/namespaces/inkscape"
   xmlns:sodipodi="http://sodipodi.sourceforge.net/DTD/sodipodi-0.dtd"
   xmlns="http://www.w3.org/2000/svg"
   xmlns:svg="http://www.w3.org/2000/svg">
  <sodipodi:namedview
     id="namedview7"
     pagecolor="#ffffff"
     bordercolor="#666666"
     borderopacity="1.0"
     inkscape:pageshadow="2"
     inkscape:pageopacity="0.0"
     inkscape:pagecheckerboard="0"
     inkscape:document-units="px"
     showgrid="false"
     units="px"
     height="48px"
     inkscape:zoom="17.124877"
     inkscape:cx="5.5474851"
     inkscape:cy="20.14613"
     inkscape:window-width="1920"
     inkscape:window-height="1011"
     inkscape:window-x="0"
     inkscape:window-y="0"
     inkscape:window-maximized="1"
     inkscape:current-layer="svg5"
     inkscape:lockguides="true"
     showguides="false" />
  <defs
     id="defs2" />
  <rect
     style="fill:#c0342a;stroke-width:2.38125;stroke-linecap:round;stroke-linejoin:round;fill-opacity:1"
     id="rect867"
     width="7.4083333"
     height="7.4083333"
     x="0.52916664"
     y="0.52916664"
     ry="0.79374999" />
  <path
     id="rect1149"
     style="opacity:0.2;fill:#020202;fill-opacity:1;stroke-width:9;stroke-linecap:round;stroke-linejoin:round"
     d="M 5 2 C 3.338 2 2 3.338 2 5 L 2 27 C 2 28.662 3.338 30 5 30 L 27 30 C 28.662 30 30 28.662 30 27 L 30 5 C 30 3.338 28.662 2 27 2 L 5 2 z M 5 3 L 27 3 C 28.108 3 29 3.892 29 5 L 29 27 C 29 28.108 28.108 29 27 29 L 5 29 C 3.892 29 3 28.108 3 27 L 3 5 C 3 3.892 3.892 3 5 3 z "
     transform="scale(0.26458333)" />
  <path
     id="path10"
     d="M 2.6671495,6.3312172 C 2.5401007,6.3137572 2.3141024,6.2391412 2.1633536,6.165442 1.1811716,5.6874455 0.7795029,4.4835673 1.2632648,3.4695121 1.8159248,2.3100453 3.3238915,2.0144925 4.2313106,2.8878152 c 0.262404,0.2521337 0.3789456,0.4672793 0.7740179,1.4212853 0.4124181,0.997663 0.4886469,1.1545078 0.6222933,1.2875014 0.1431739,0.1414848 0.2758423,0.1891104 0.5296939,0.1891104 0.4170611,0 0.7148915,-0.2618184 0.7148915,-0.6271415 0,-0.3092051 -0.107016,-0.4082243 -0.6528336,-0.6050351 C 5.3881834,4.2490141 5.1189395,3.9738217 5.1179615,3.4211341 c 0,-0.2948381 0.073536,-0.4914101 0.2604491,-0.6951245 0.2682679,-0.2908704 0.7310179,-0.3869135 1.1405046,-0.2424912 0.1746924,0.06306 0.5402004,0.3916356 0.5402004,0.4856952 0,0.045636 -0.2118288,0.1851413 -0.3293496,0.2181221 -0.062052,0.016272 -0.11556,-0.0048 -0.1871508,-0.074688 C 6.397486,2.9712013 6.2992684,2.9275057 6.1255541,2.9275057 c -0.2997864,0 -0.4857156,0.1831584 -0.4857156,0.4789879 0,0.2948376 0.118248,0.394572 0.7090271,0.5970972 0.8140865,0.2792016 1.0545017,0.531336 1.0593881,1.1147808 0.00492,0.5040704 -0.21867,0.8676483 -0.6633389,1.0827939 -0.2022996,0.097032 -0.2709552,0.109464 -0.6012815,0.109464 -0.4715448,0 -0.6833743,-0.0891 -0.947733,-0.3916368 C 5.0182777,5.7155159 4.8379669,5.3335643 4.260629,3.9393037 4.0211918,3.3615733 3.7138327,3.078404 3.2012419,2.9669624 2.9415247,2.9106464 2.5799251,2.9630024 2.344154,3.0890804 2.1142448,3.2111977 1.8574604,3.4866685 1.7362748,3.7385653 c -0.100176,0.2044692 -0.109704,0.2618184 -0.109704,0.6174564 0,0.3392484 0.01344,0.4196556 0.097236,0.60579 0.1270476,0.2841622 0.376992,0.5466946 0.6518556,0.6881794 0.1986359,0.10176 0.2604491,0.11442 0.5773379,0.11442 0.3044268,0 0.3826116,-0.014688 0.5641428,-0.102756 0.2071867,-0.102756 0.4857163,-0.3548856 0.5993263,-0.5437582 l 0.059124,-0.098028 0.116544,0.2705086 c 0.064992,0.1493832 0.117276,0.289878 0.117276,0.3151584 0,0.074736 -0.263382,0.3189281 -0.504774,0.4710509 -0.3664843,0.22983 -0.7874551,0.315912 -1.2370111,0.2538804 m -9.6e-4,0"
     style="fill:#ffffff;stroke-width:0.396875"
     inkscape:connector-curvature="0" />
</svg>
