<?xml version="1.0" encoding="UTF-8" standalone="no"?>
<!-- Created with Inkscape (http://www.inkscape.org/) -->

<svg
   width="32"
   height="32"
   viewBox="0 0 8.4666665 8.4666665"
   version="1.1"
   id="svg5"
   inkscape:version="1.1.1 (3bf5ae0d25, 2021-09-20, custom)"
   sodipodi:docname="nextcloud.svg"
   xmlns:inkscape="http://www.inkscape.org/namespaces/inkscape"
   xmlns:sodipodi="http://sodipodi.sourceforge.net/DTD/sodipodi-0.dtd"
   xmlns="http://www.w3.org/2000/svg"
   xmlns:svg="http://www.w3.org/2000/svg">
  <sodipodi:namedview
     id="namedview7"
     pagecolor="#ffffff"
     bordercolor="#666666"
     borderopacity="1.0"
     inkscape:pageshadow="2"
     inkscape:pageopacity="0.0"
     inkscape:pagecheckerboard="0"
     inkscape:document-units="px"
     showgrid="false"
     units="px"
     height="48px"
     inkscape:zoom="5.656854"
     inkscape:cx="11.313709"
     inkscape:cy="46.492273"
     inkscape:window-width="1920"
     inkscape:window-height="1011"
     inkscape:window-x="0"
     inkscape:window-y="0"
     inkscape:window-maximized="1"
     inkscape:current-layer="svg5"
     inkscape:lockguides="true" />
  <defs
     id="defs2" />
  <rect
     style="fill:#177ab3;fill-opacity:1;stroke-width:2.38125;stroke-linecap:round;stroke-linejoin:round"
     id="rect852"
     width="7.4083333"
     height="7.4083333"
     x="0.52916664"
     y="0.52916664"
     ry="0.79374999" />
  <path
     id="path8"
     d="M 4.2333331,3.1749999 A 1.0583332,1.0583332 0 0 0 3.1749998,4.233333 1.0583332,1.0583332 0 0 0 4.2333331,5.2916662 1.0583332,1.0583332 0 0 0 5.2916668,4.233333 1.0583332,1.0583332 0 0 0 4.2333331,3.1749999 Z m 0,0.5291665 A 0.5291666,0.5291666 0 0 1 4.7624996,4.233333 0.5291666,0.5291666 0 0 1 4.2333331,4.7624999 0.5291666,0.5291666 0 0 1 3.7041665,4.233333 0.5291666,0.5291666 0 0 1 4.2333331,3.7041664 Z"
     style="fill:#ffffff;stroke-width:0.264584" />
  <path
     id="path12"
     d="M 2.3812499,3.4395833 A 0.79374992,0.79374992 0 0 0 1.5875,4.233333 0.79374992,0.79374992 0 0 0 2.3812499,5.0270829 0.79374992,0.79374992 0 0 0 3.1749998,4.233333 0.79374992,0.79374992 0 0 0 2.3812499,3.4395833 Z m 0,0.5291667 A 0.26458331,0.26458331 0 0 1 2.6458333,4.233333 0.26458331,0.26458331 0 0 1 2.3812499,4.4979163 0.26458331,0.26458331 0 0 1 2.1166665,4.233333 0.26458331,0.26458331 0 0 1 2.3812499,3.96875 Z"
     style="fill:#ffffff;stroke-width:0.264584" />
  <path
     id="path16"
     d="M 6.0854167,3.4395833 A 0.79374992,0.79374992 0 0 0 5.2916668,4.233333 0.79374992,0.79374992 0 0 0 6.0854167,5.0270829 0.79374992,0.79374992 0 0 0 6.8791666,4.233333 0.79374992,0.79374992 0 0 0 6.0854167,3.4395833 Z m 0,0.5291667 A 0.26458331,0.26458331 0 0 1 6.3500002,4.233333 0.26458331,0.26458331 0 0 1 6.0854167,4.4979163 0.26458331,0.26458331 0 0 1 5.8208337,4.233333 0.26458331,0.26458331 0 0 1 6.0854167,3.96875 Z"
     style="fill:#ffffff;stroke-width:0.264584" />
</svg>
