<?xml version="1.0" encoding="UTF-8" standalone="no"?>
<!-- Created with Inkscape (http://www.inkscape.org/) -->

<svg
   width="32"
   height="32"
   viewBox="0 0 8.4666667 8.4666667"
   version="1.1"
   id="svg5"
   inkscape:version="1.1.1 (3bf5ae0d25, 2021-09-20, custom)"
   sodipodi:docname="preferences-desktop-icons.svg"
   xmlns:inkscape="http://www.inkscape.org/namespaces/inkscape"
   xmlns:sodipodi="http://sodipodi.sourceforge.net/DTD/sodipodi-0.dtd"
   xmlns="http://www.w3.org/2000/svg"
   xmlns:svg="http://www.w3.org/2000/svg">
  <sodipodi:namedview
     id="namedview7"
     pagecolor="#ffffff"
     bordercolor="#666666"
     borderopacity="1.0"
     inkscape:pageshadow="2"
     inkscape:pageopacity="0.0"
     inkscape:pagecheckerboard="0"
     inkscape:document-units="px"
     showgrid="false"
     units="px"
     height="48px"
     inkscape:zoom="8"
     inkscape:cx="15.0625"
     inkscape:cy="35.8125"
     inkscape:window-width="1365"
     inkscape:window-height="835"
     inkscape:window-x="45"
     inkscape:window-y="29"
     inkscape:window-maximized="0"
     inkscape:current-layer="svg5"
     inkscape:lockguides="true" />
  <defs
     id="defs2" />
  <rect
     style="opacity:1;fill:#57b5ff;fill-opacity:1;stroke-width:2.08359;stroke-linecap:round;stroke-linejoin:round"
     id="rect849"
     width="7.4083333"
     height="7.4083333"
     x="0.52916664"
     y="0.52916664"
     ry="1.0583333" />
  <path
     id="rect925"
     style="fill:#ffffff;stroke-width:0.999999"
     d="M 7 6 C 6.446 6 6 6.446 6 7 L 6 9 C 6 9.554 6.446 10 7 10 L 9 10 C 9.554 10 10 9.554 10 9 L 10 7 C 10 6.446 9.554 6 9 6 L 7 6 z M 7 12 C 6.446 12 6 12.446 6 13 L 6 15 C 6 15.554 6.446 16 7 16 L 9 16 C 9.554 16 10 15.554 10 15 L 10 13 C 10 12.446 9.554 12 9 12 L 7 12 z M 7 18 C 6.446 18 6 18.446 6 19 L 6 21 C 6 21.554 6.446 22 7 22 L 9 22 C 9.554 22 10 21.554 10 21 L 10 19 C 10 18.446 9.554 18 9 18 L 7 18 z M 7 23 C 6.446 23 6 23.446 6 24 L 6 25 C 6 25.554 6.446 26 7 26 L 25 26 C 25.554 26 26 25.554 26 25 L 26 24 C 26 23.446 25.554 23 25 23 L 7 23 z "
     transform="scale(0.26458333)" />
</svg>
