<?xml version="1.0" encoding="UTF-8" standalone="no"?>
<!-- Created with Inkscape (http://www.inkscape.org/) -->

<svg
   width="32"
   height="32"
   viewBox="0 0 8.4666667 8.4666667"
   version="1.1"
   id="svg5"
   inkscape:version="1.1.1 (3bf5ae0d25, 2021-09-20, custom)"
   sodipodi:docname="preferences-system-sound.svg"
   xmlns:inkscape="http://www.inkscape.org/namespaces/inkscape"
   xmlns:sodipodi="http://sodipodi.sourceforge.net/DTD/sodipodi-0.dtd"
   xmlns="http://www.w3.org/2000/svg"
   xmlns:svg="http://www.w3.org/2000/svg">
  <sodipodi:namedview
     id="namedview7"
     pagecolor="#ffffff"
     bordercolor="#666666"
     borderopacity="1.0"
     inkscape:pageshadow="2"
     inkscape:pageopacity="0.0"
     inkscape:pagecheckerboard="0"
     inkscape:document-units="px"
     showgrid="false"
     units="px"
     height="48px"
     inkscape:zoom="6.1208931"
     inkscape:cx="12.253114"
     inkscape:cy="27.9371"
     inkscape:window-width="1368"
     inkscape:window-height="846"
     inkscape:window-x="544"
     inkscape:window-y="95"
     inkscape:window-maximized="0"
     inkscape:current-layer="svg5"
     inkscape:lockguides="true"
     showguides="false" />
  <defs
     id="defs2">
    <style
       id="current-color-scheme"
       type="text/css">
   .ColorScheme-Text { color:#ffffff; } .ColorScheme-Highlight { color:#5294e2; }
  </style>
  </defs>
  <rect
     style="opacity:1;fill:#e95883;fill-opacity:1;stroke-width:3.12539;stroke-linecap:round;stroke-linejoin:round"
     id="rect849"
     width="7.4083333"
     height="7.4083333"
     x="0.5291667"
     y="0.5291667"
     ry="1.0583333" />
  <path
     id="path3588"
     style="fill:#ffffff;stroke-linecap:round;stroke-linejoin:round;paint-order:stroke fill markers"
     class="ColorScheme-Text"
     d="M 22.484375 7.515625 L 21.775391 8.2246094 A 11 11 0 0 1 25 16 A 11 11 0 0 1 21.748047 23.748047 L 22.484375 24.484375 A 12 12 0 0 0 26 16 A 12 12 0 0 0 22.484375 7.515625 z M 15 8.0703125 L 10.291016 12.072266 L 6 12.072266 L 6 20.076172 L 10.291016 20.076172 L 15 24.076172 L 15 8.0703125 z M 20.363281 9.6367188 L 19.65625 10.34375 A 8.0000002 8.0000002 0 0 1 22 16 A 8.0000002 8.0000002 0 0 1 19.65625 21.65625 L 20.363281 22.363281 A 8.9999994 8.9999994 0 0 0 23 16 A 8.9999994 8.9999994 0 0 0 20.363281 9.6367188 z M 18 12 L 17.279297 12.720703 A 4 4 0 0 1 19 16 A 4 4 0 0 1 17.279297 19.279297 L 18 20 A 4.9999996 4.9999996 0 0 0 20 16 A 4.9999996 4.9999996 0 0 0 18 12 z "
     transform="scale(0.26458333)" />
</svg>
