<?xml version="1.0" encoding="UTF-8" standalone="no"?>
<!-- Created with Inkscape (http://www.inkscape.org/) -->

<svg
   width="32"
   height="32"
   viewBox="0 0 8.4666665 8.4666665"
   version="1.1"
   id="svg5"
   inkscape:version="1.1.1 (3bf5ae0d25, 2021-09-20, custom)"
   sodipodi:docname="preferences-desktop-baloo.svg"
   xmlns:inkscape="http://www.inkscape.org/namespaces/inkscape"
   xmlns:sodipodi="http://sodipodi.sourceforge.net/DTD/sodipodi-0.dtd"
   xmlns:xlink="http://www.w3.org/1999/xlink"
   xmlns="http://www.w3.org/2000/svg"
   xmlns:svg="http://www.w3.org/2000/svg">
  <sodipodi:namedview
     id="namedview7"
     pagecolor="#ffffff"
     bordercolor="#666666"
     borderopacity="1.0"
     inkscape:pageshadow="2"
     inkscape:pageopacity="0.0"
     inkscape:pagecheckerboard="0"
     inkscape:document-units="px"
     showgrid="false"
     units="px"
     height="48px"
     inkscape:zoom="22.627416"
     inkscape:cx="18.782525"
     inkscape:cy="17.788156"
     inkscape:window-width="1920"
     inkscape:window-height="1019"
     inkscape:window-x="0"
     inkscape:window-y="0"
     inkscape:window-maximized="1"
     inkscape:current-layer="svg5"
     inkscape:lockguides="true" />
  <defs
     id="defs2">
    <linearGradient
       inkscape:collect="always"
       id="linearGradient1261">
      <stop
         style="stop-color:#1d99f3;stop-opacity:1;"
         offset="0"
         id="stop1257" />
      <stop
         style="stop-color:#2bc0ff;stop-opacity:1"
         offset="1"
         id="stop1259" />
    </linearGradient>
    <linearGradient
       inkscape:collect="always"
       xlink:href="#linearGradient1261"
       id="linearGradient1263"
       x1="10.583333"
       y1="16.933334"
       x2="10.583333"
       y2="6.3308715e-07"
       gradientUnits="userSpaceOnUse"
       gradientTransform="scale(0.49999999)" />
  </defs>
  <path
     id="rect863"
     style="fill:url(#linearGradient1263);fill-opacity:1;stroke-width:0.132291"
     d="m 1.5875002,0.52916666 h 5.2916662 c 0.586317,0 1.0583335,0.47201704 1.0583335,1.05833354 v 5.2916662 c 0,0.586317 -0.4720165,1.0583335 -1.0583335,1.0583335 H 1.5875002 c -0.5863165,0 -1.05833354,-0.4720165 -1.05833354,-1.0583335 V 1.5875002 c 0,-0.5863165 0.47201704,-1.05833354 1.05833354,-1.05833354 z" />
  <path
     id="path1005"
     style="fill:#fefefe;fill-opacity:1;stroke-width:9;stroke-linecap:round;stroke-linejoin:round"
     d="M 14 6 A 7.9999998 7.9999998 0 0 0 6 14 A 7.9999998 7.9999998 0 0 0 14 22 A 7.9999998 7.9999998 0 0 0 19.287109 19.996094 L 20.931641 21.640625 C 20.842281 21.973968 20.928843 22.344887 21.191406 22.607422 L 23.019531 24.435547 C 23.411298 24.827254 24.041853 24.827284 24.433594 24.435547 C 24.82533 24.04381 24.82536 23.413192 24.433594 23.021484 L 22.605469 21.193359 C 22.342914 20.930844 21.972017 20.844235 21.638672 20.933594 L 19.994141 19.289062 A 7.9999998 7.9999998 0 0 0 22 14 A 7.9999998 7.9999998 0 0 0 14 6 z M 14 7 A 7.0000001 7.0000001 0 0 1 21 14 A 7.0000001 7.0000001 0 0 1 14 21 A 7.0000001 7.0000001 0 0 1 7 14 A 7.0000001 7.0000001 0 0 1 14 7 z "
     transform="scale(0.26458333)" />
  <path
     id="path6"
     d="M 3.7355171,2.1165784 C 3.6515415,2.3860761 3.6357844,2.3731879 3.6098935,2.6612463 3.4761463,2.7809032 3.4582228,2.9170058 3.4640804,3.0493336 c 0.00634,0.143687 0.10545,0.2374759 0.221636,0.2440685 C 3.8298559,3.2929427 3.9137927,3.1511464 3.9270931,3.0134411 3.9426744,2.8519928 3.9148954,2.7470318 3.7992264,2.6639383 3.7961872,2.4454825 3.7871114,2.393358 3.7355171,2.1165784 Z M 3.1836705,2.26957 C 3.099695,2.5390677 3.0839378,2.5261795 3.058047,2.814238 2.9242996,2.9338948 2.9063764,3.0699974 2.9122341,3.2023253 2.9185841,3.3460121 3.0172353,3.4402499 3.1334212,3.4468425 V 3.4463831 C 3.2775607,3.4459237 3.3614975,3.3041272 3.3747978,3.1664219 3.3903791,3.0049736 3.363048,2.9000126 3.2473798,2.8169191 3.2443407,2.5984633 3.2352648,2.5463388 3.1836705,2.2695592 Z M 4.2348708,2.338213 C 4.183277,2.614994 4.1742008,2.6666697 4.171162,2.8851254 4.0554933,2.9682191 4.0281625,3.0736286 4.043744,3.235077 4.057044,3.3727822 4.1409815,3.5145787 4.2851207,3.5150382 4.4013069,3.5084507 4.4999656,3.4142082 4.5063081,3.2705209 4.5121653,3.1381931 4.4946911,3.0025391 4.3609432,2.8828823 4.3350523,2.5948237 4.3188467,2.6077121 4.2348708,2.338213 Z M 2.6533596,2.6980361 C 2.5693839,2.9675338 2.5536267,2.9546456 2.5277361,3.2427041 2.3939886,3.362361 2.3760653,3.498015 2.3819229,3.6303427 2.3882653,3.7740297 2.4869243,3.8682672 2.6031101,3.87486 2.7472497,3.8744005 2.8311866,3.7321555 2.844487,3.5944502 2.8600684,3.4330019 2.8327372,3.3280411 2.7170687,3.2449475 2.7140296,3.0264916 2.7049529,2.9748156 2.6533596,2.6980361 Z m 2.100606,0.012563 c -0.051594,0.2767792 -0.06067,0.3289035 -0.063708,0.5473594 -0.1156688,0.083093 -0.1429998,0.1880546 -0.1274184,0.349503 0.0133,0.1377052 0.097238,0.2795017 0.241377,0.279961 C 4.9204017,3.8808345 5.0195089,3.7870408 5.0258511,3.6433533 5.0317084,3.5110261 5.0137864,3.3749232 4.8800379,3.2552666 4.8541469,2.9672081 4.8379414,2.9800963 4.7539656,2.7105991 Z M 3.6700135,3.4105014 c -0.17813,0.00309 -0.2926349,0.099534 -0.582804,0.3342484 C 2.6865395,3.9898981 2.5662076,4.125245 2.5604879,4.4845831 2.5541462,4.881851 3.068247,5.0097342 3.4820266,4.8336372 3.6081614,4.7799514 3.88004,4.7756489 4.0253488,4.8394705 4.3272818,4.937189 4.8629909,4.873871 4.8715132,4.4388199 4.8886727,4.0742674 4.6561915,3.9713534 4.3035152,3.7447495 4.0926398,3.5396906 3.9877406,3.4246407 3.7068032,3.4109499 c -0.01251,-6.203e-4 -0.024915,-6.663e-4 -0.03679,-4.595e-4 z"
     style="opacity:0.6;fill:#ffffff;stroke-width:0.229711" />
</svg>
