<?xml version="1.0" encoding="UTF-8" standalone="no"?>
<!-- Created with Inkscape (http://www.inkscape.org/) -->

<svg
   width="32"
   height="32"
   viewBox="0 0 8.4666667 8.4666667"
   version="1.1"
   id="svg5"
   inkscape:version="1.1.1 (3bf5ae0d25, 2021-09-20, custom)"
   sodipodi:docname="preferences-desktop-display.svg"
   xmlns:inkscape="http://www.inkscape.org/namespaces/inkscape"
   xmlns:sodipodi="http://sodipodi.sourceforge.net/DTD/sodipodi-0.dtd"
   xmlns="http://www.w3.org/2000/svg"
   xmlns:svg="http://www.w3.org/2000/svg">
  <sodipodi:namedview
     id="namedview7"
     pagecolor="#ffffff"
     bordercolor="#666666"
     borderopacity="1.0"
     inkscape:pageshadow="2"
     inkscape:pageopacity="0.0"
     inkscape:pagecheckerboard="0"
     inkscape:document-units="px"
     showgrid="false"
     units="px"
     height="48px"
     inkscape:zoom="15.999999"
     inkscape:cx="7.1875005"
     inkscape:cy="21.968751"
     inkscape:window-width="1920"
     inkscape:window-height="1011"
     inkscape:window-x="0"
     inkscape:window-y="0"
     inkscape:window-maximized="1"
     inkscape:current-layer="svg5"
     inkscape:lockguides="true" />
  <defs
     id="defs2" />
  <rect
     style="opacity:1;fill:#666666;fill-opacity:1;stroke-width:3.12539;stroke-linecap:round;stroke-linejoin:round"
     id="rect849"
     width="7.4083333"
     height="7.4083333"
     x="0.52916664"
     y="0.52916664"
     ry="1.0583333" />
  <path
     id="rect849-3"
     style="fill:#cccccc;fill-opacity:1;stroke-width:11.8125;stroke-linecap:round;stroke-linejoin:round"
     d="M 6 2 C 3.7840001 2 2 3.7840001 2 6 L 2 26 C 2 28.216 3.7840001 30 6 30 L 26 30 C 28.216 30 30 28.216 30 26 L 30 6 C 30 3.7840001 28.216 2 26 2 L 6 2 z M 6 3 L 26 3 C 27.662 3 29 4.338 29 6 L 29 26 C 29 27.662 27.662 29 26 29 L 6 29 C 4.338 29 3 27.662 3 26 L 3 6 C 3 4.338 4.338 3 6 3 z "
     transform="scale(0.26458333)" />
  <path
     id="rect1449"
     style="fill:#ffffff;stroke-width:1.94428;stroke-linecap:round;stroke-linejoin:round"
     d="M 2.38125,2.1166667 2.778125,1.5875 3.175,2.1166667 H 2.9104166 V 6.35 H 3.175 L 2.778125,6.8791665 2.38125,6.35 H 2.6458334 V 2.1166667 Z"
     sodipodi:nodetypes="ccccccccccc" />
  <path
     id="rect1449-7"
     style="fill:#ffffff;stroke-width:1.94428;stroke-linecap:round;stroke-linejoin:round"
     d="m 6.6145833,5.0270834 0.5291666,0.396875 -0.5291666,0.396875 V 5.55625 H 1.8520832 V 5.8208334 L 1.3229167,5.4239584 1.8520832,5.0270834 v 0.2645834 h 4.7625001 z"
     sodipodi:nodetypes="ccccccccccc" />
</svg>
