<?xml version="1.0" encoding="UTF-8" standalone="no"?>
<!-- Created with Inkscape (http://www.inkscape.org/) -->

<svg
   width="32"
   height="32"
   viewBox="0 0 8.4666667 8.4666667"
   version="1.1"
   id="svg5"
   inkscape:version="1.1.1 (3bf5ae0d25, 2021-09-20, custom)"
   sodipodi:docname="preferences-system-network.svg"
   xmlns:inkscape="http://www.inkscape.org/namespaces/inkscape"
   xmlns:sodipodi="http://sodipodi.sourceforge.net/DTD/sodipodi-0.dtd"
   xmlns:xlink="http://www.w3.org/1999/xlink"
   xmlns="http://www.w3.org/2000/svg"
   xmlns:svg="http://www.w3.org/2000/svg">
  <sodipodi:namedview
     id="namedview7"
     pagecolor="#ffffff"
     bordercolor="#666666"
     borderopacity="1.0"
     inkscape:pageshadow="2"
     inkscape:pageopacity="0.0"
     inkscape:pagecheckerboard="0"
     inkscape:document-units="px"
     showgrid="false"
     units="px"
     height="48px"
     inkscape:zoom="4.328125"
     inkscape:cx="20.101083"
     inkscape:cy="27.379061"
     inkscape:window-width="1368"
     inkscape:window-height="846"
     inkscape:window-x="347"
     inkscape:window-y="51"
     inkscape:window-maximized="0"
     inkscape:current-layer="svg5"
     inkscape:lockguides="true"
     showguides="false" />
  <defs
     id="defs2">
    <linearGradient
       inkscape:collect="always"
       id="linearGradient2414">
      <stop
         style="stop-color:#ffffff;stop-opacity:1;"
         offset="0"
         id="stop2410" />
      <stop
         style="stop-color:#ffffff;stop-opacity:0;"
         offset="1"
         id="stop2412" />
    </linearGradient>
    <linearGradient
       inkscape:collect="always"
       id="linearGradient2278">
      <stop
         style="stop-color:#000000;stop-opacity:0.81825072"
         offset="0"
         id="stop2274" />
      <stop
         style="stop-color:#000000;stop-opacity:0"
         offset="1"
         id="stop2276" />
    </linearGradient>
    <linearGradient
       inkscape:collect="always"
       id="linearGradient1176">
      <stop
         style="stop-color:#c99aef;stop-opacity:1"
         offset="0"
         id="stop1172" />
      <stop
         style="stop-color:#655ae4;stop-opacity:1"
         offset="1"
         id="stop1174" />
    </linearGradient>
    <linearGradient
       inkscape:collect="always"
       xlink:href="#linearGradient1176"
       id="linearGradient1178"
       x1="4.7625003"
       y1="-2.3919068e-07"
       x2="4.7624998"
       y2="8.4666662"
       gradientUnits="userSpaceOnUse" />
    <linearGradient
       inkscape:collect="always"
       xlink:href="#linearGradient2414"
       id="linearGradient2106"
       x1="6.7381701"
       y1="1.8265808"
       x2="1.7916619"
       y2="5.7219892"
       gradientUnits="userSpaceOnUse" />
    <linearGradient
       inkscape:collect="always"
       xlink:href="#linearGradient2414"
       id="linearGradient2272"
       x1="1.0583334"
       y1="3.6786497"
       x2="7.1712751"
       y2="3.6786497"
       gradientUnits="userSpaceOnUse" />
    <linearGradient
       inkscape:collect="always"
       xlink:href="#linearGradient2414"
       id="linearGradient2280"
       x1="5.8732753"
       y1="1.0689007"
       x2="6.6874967"
       y2="7.4285488"
       gradientUnits="userSpaceOnUse" />
    <linearGradient
       inkscape:collect="always"
       xlink:href="#linearGradient2414"
       id="linearGradient2416"
       x1="6.7261014"
       y1="6.970808"
       x2="1.8283238"
       y2="1.6188054"
       gradientUnits="userSpaceOnUse" />
    <linearGradient
       inkscape:collect="always"
       xlink:href="#linearGradient2278"
       id="linearGradient3525"
       gradientUnits="userSpaceOnUse"
       x1="-0.027315143"
       y1="8.3931742"
       x2="8.6431398"
       y2="4.7321548"
       gradientTransform="matrix(3.7795275,0,0,3.7795275,9.6751589e-4,0.99924393)" />
  </defs>
  <path
     id="rect849"
     style="opacity:1;fill:url(#linearGradient1178);stroke-width:3.12539;stroke-linecap:round;stroke-linejoin:round"
     d="M 1.5875,0.5291667 H 6.8791667 C 7.4654834,0.5291667 7.9375,1.0011833 7.9375,1.5875 V 6.8791667 C 7.9375,7.4654834 7.4654834,7.9375 6.8791667,7.9375 H 1.5875 C 1.0011833,7.9375 0.5291667,7.4654834 0.5291667,6.8791667 V 1.5875 c 0,-0.5863167 0.4720166,-1.0583333 1.0583333,-1.0583333 z" />
  <path
     id="path105"
     style="color:#000000;opacity:0.8;fill:url(#linearGradient2280);fill-opacity:1.0;stroke:none;stroke-width:0.264583;stroke-linecap:round;stroke-linejoin:round;-inkscape-stroke:none"
     d="m 4.3469315,1.0583445 c -0.063056,3.271e-4 -0.1139317,0.051665 -0.1136882,0.1147217 3.272e-4,0.063056 0.051665,0.1139316 0.1147217,0.1136881 0.3172317,-0.00162 0.5939554,0.2425135 0.8170042,0.6779948 0.2230491,0.4354813 0.3769617,1.0469723 0.4418335,1.7037719 0.1297438,1.3135993 -0.1473537,2.562358 -0.7819399,3.2342639 -0.043458,0.04592 -0.041375,0.1183998 0.00465,0.1617472 0.04592,0.043458 0.1183998,0.041375 0.1617472,-0.00465 C 5.7183194,6.2900647 5.9686181,5.0016876 5.8346958,3.6457835 5.7677342,2.9678316 5.6108519,2.3349117 5.3680576,1.8608795 5.1252635,1.3868472 4.7813411,1.0561212 4.3469315,1.0583445 Z"
     sodipodi:nodetypes="cccsscccssc" />
  <path
     id="path109"
     style="color:#000000;opacity:0.8;fill:url(#linearGradient2416);fill-opacity:1;stroke:none;stroke-width:0.264583;stroke-linecap:round;stroke-linejoin:round;-inkscape-stroke:none"
     d="M 1.9057368,2.4923655 A 0.11428187,0.11428187 0 0 0 1.7832636,2.5977854 c -0.037133,0.5189428 0.1831757,1.095509 0.5389852,1.6577798 0.3558096,0.5622711 0.8510943,1.1112244 1.3864786,1.565796 0.5353844,0.4545716 1.1095527,0.8147026 1.6329753,0.9942547 0.5234225,0.179552 1.0186154,0.1794203 1.3363524,-0.1379763 a 0.11428187,0.11428187 0 0 0 5.292e-4,-0.1617472 0.11428187,0.11428187 0 0 0 -0.1617475,0 C 6.2836119,6.7488676 5.8987593,6.7651672 5.4161289,6.5996082 4.9334739,6.4340494 4.3756134,6.0879495 3.8565221,5.6472116 3.3374308,5.2064738 2.8559394,4.6710449 2.5155187,4.1330923 2.1750978,3.5951393 1.979607,3.055233 2.0111567,2.6143219 A 0.11428187,0.11428187 0 0 0 1.9057368,2.4923655 Z" />
  <path
     id="path113"
     style="color:#000000;opacity:0.8;fill:url(#linearGradient2106);fill-opacity:1.0;stroke:none;stroke-width:0.264583;stroke-linecap:round;stroke-linejoin:round;-inkscape-stroke:none"
     d="M 6.0021275,1.7823313 C 5.8693742,1.7793072 5.7286799,1.7955685 5.584582,1.8283233 5.1234683,1.9331389 4.603747,2.2002922 4.0947503,2.5678131 3.0767567,3.3028547 2.0998085,4.4385106 1.8173701,5.5448922 a 0.11428187,0.11428187 0 0 0 0.082682,0.1390097 0.11428187,0.11428187 0 0 0 0.1390096,-0.082682 C 2.2990518,4.5827749 3.2457685,3.4624619 4.2285924,2.7528147 4.7200044,2.397991 5.2205412,2.1453103 5.6352248,2.0510487 6.0499087,1.9567872 6.3557924,2.0141481 6.5349116,2.250003 a 0.11428187,0.11428187 0 0 0 0.160197,0.021704 0.11428187,0.11428187 0 0 0 0.02222,-0.160197 C 6.5943672,1.9495982 6.4263763,1.852661 6.2315708,1.809203 6.1585188,1.7929063 6.0817796,1.7841457 6.0021275,1.7823313 Z" />
  <path
     id="path117"
     style="color:#000000;fill:url(#linearGradient2272);fill-opacity:1.0;stroke:none;stroke-width:0.264583;stroke-linecap:round;stroke-linejoin:round;-inkscape-stroke:none;opacity:0.8"
     d="M 4.400158,2.8272288 C 4.0608162,2.8274934 3.7225882,2.8513032 3.3986689,2.8954416 2.7508305,2.9837203 2.160852,3.1557598 1.7310705,3.4070383 1.3012889,3.6583168 1.0185826,4.0088495 1.0628942,4.4276479 A 0.11428187,0.11428187 0 0 0 1.1884679,4.5294505 0.11428187,0.11428187 0 0 0 1.2902705,4.4038766 C 1.2579303,4.0982228 1.4566229,3.8322782 1.8463089,3.6044423 2.2359949,3.3766062 2.8032071,3.2071509 3.4296748,3.1217844 4.6826097,2.9510514 6.1742938,3.1209907 6.9906977,3.7072785 A 0.11428187,0.11428187 0 0 0 7.1498612,3.6809233 0.11428187,0.11428187 0 0 0 7.124022,3.52176 C 6.4461143,3.034937 5.4181837,2.8264271 4.4001572,2.8272288 Z" />
  <circle
     style="fill:#ffffff;fill-opacity:1;stroke-width:0.396874;stroke-linecap:round;stroke-linejoin:round"
     id="path1585"
     cx="1.984375"
     cy="5.6885419"
     r="0.39687499" />
  <circle
     style="fill:#ffffff;fill-opacity:1;stroke-width:0.264583;stroke-linecap:round;stroke-linejoin:round"
     id="path1711"
     cx="1.984375"
     cy="2.2489583"
     r="0.39687499" />
  <circle
     style="fill:#ffffff;fill-opacity:1;stroke-width:0.264583;stroke-linecap:round;stroke-linejoin:round"
     id="path1815"
     cx="7.0114584"
     cy="3.5718751"
     r="0.39687499" />
  <circle
     style="fill:#ffffff;fill-opacity:1;stroke-width:0.264583;stroke-linecap:round;stroke-linejoin:round"
     id="path1919"
     cx="4.8947916"
     cy="7.0114584"
     r="0.39687499" />
  <path
     id="path105-2"
     style="color:#000000;opacity:0.3;fill:url(#linearGradient3525);fill-opacity:1;stroke:none;stroke-width:0.999999;stroke-linecap:round;stroke-linejoin:round;-inkscape-stroke:none"
     d="M 16.429688 5 C 16.191366 5.0012359 15.99908 5.1952692 16 5.4335938 C 16.001237 5.6719156 16.195269 5.8642012 16.433594 5.8632812 C 17.416964 5.8582474 18.296883 6.4801563 19.046875 7.6113281 C 19.204167 7.5418455 19.360224 7.4759951 19.515625 7.4140625 C 19.032577 6.4740358 18.48356 5.7711418 17.876953 5.34375 C 17.873837 5.342189 17.870307 5.3413949 17.867188 5.3398438 C 17.422129 5.118564 16.94277 4.9973741 16.429688 5 z M 22.496094 7.7363281 C 22.050736 7.7421349 21.583966 7.8018326 21.107422 7.9101562 C 20.982657 7.9385164 20.855403 7.9693734 20.728516 8.0039062 C 20.835284 8.2665136 20.935836 8.5384661 21.03125 8.8183594 C 21.121345 8.7946147 21.210539 8.772021 21.298828 8.7519531 C 22.866137 8.3956911 24.022233 8.612485 24.699219 9.5039062 A 0.43193148 0.43193148 0 0 0 25.304688 9.5859375 A 0.43193148 0.43193148 0 0 0 25.388672 8.9804688 C 25.301534 8.865728 25.208026 8.7598697 25.109375 8.6621094 A 0.43193148 0.43193148 0 0 1 24.699219 8.5039062 C 24.577493 8.3436234 24.43942 8.2051422 24.287109 8.0878906 C 24.056508 7.9784587 23.81132 7.8955769 23.552734 7.8378906 C 23.276632 7.7762968 22.986594 7.7431857 22.685547 7.7363281 C 22.622829 7.7349014 22.559716 7.7354986 22.496094 7.7363281 z M 19.878906 8.2011719 C 19.750205 8.2520979 19.619298 8.3064514 19.488281 8.3632812 C 19.497279 8.3805387 19.506673 8.396642 19.515625 8.4140625 C 18.899669 8.6595428 18.267276 8.9666397 17.628906 9.3242188 C 17.082991 9.6477403 16.531638 10.007733 15.982422 10.404297 C 15.846627 10.502349 15.711479 10.602974 15.576172 10.705078 C 15.927194 10.691585 16.278165 10.685822 16.630859 10.685547 C 16.765727 10.685441 16.900237 10.687616 17.035156 10.689453 C 18.009432 10.066466 18.974674 9.5589692 19.878906 9.2011719 C 20.103974 9.7410483 20.306159 10.333142 20.482422 10.962891 C 20.569086 10.975932 20.656006 10.987948 20.742188 11.001953 C 20.515196 9.977522 20.224162 9.0293465 19.878906 8.2011719 z M 8.9101562 8.9882812 A 1.5 1.5 0 0 1 7.5957031 9.9941406 C 7.5804831 10.312315 7.597166 10.644678 7.640625 10.986328 A 1.5 1.5 0 0 0 9.0019531 9.5 A 1.5 1.5 0 0 0 8.9101562 8.9882812 z M 6.09375 8.9941406 A 1.5 1.5 0 0 0 6.0019531 9.5 A 1.5 1.5 0 0 0 6.7460938 10.794922 A 0.43193148 0.43193148 0 0 0 6.7402344 10.818359 C 6.6968601 11.42452 6.7496237 12.051872 6.8789062 12.691406 C 6.9525408 12.652162 7.0263467 12.612151 7.1015625 12.574219 C 6.8123984 11.627764 6.677052 10.701341 6.7402344 9.8183594 A 0.43193148 0.43193148 0 0 1 6.7460938 9.7949219 A 1.5 1.5 0 0 1 6.09375 8.9941406 z M 15.753906 11.574219 C 15.301744 11.587361 14.851741 11.609369 14.40625 11.644531 C 12.775579 13.032748 11.242634 14.678325 10.033203 16.40625 C 10.150289 16.573473 10.2711 16.739946 10.394531 16.90625 C 11.541462 15.361692 12.933621 13.898204 14.40625 12.644531 C 15.139106 12.586688 15.884567 12.558088 16.630859 12.560547 C 18.088969 12.565347 19.550159 12.687683 20.927734 12.933594 C 21.038856 13.559235 21.126315 14.206211 21.191406 14.865234 C 21.253244 15.491311 21.291363 16.114176 21.304688 16.728516 C 21.324678 15.792888 21.287095 14.834041 21.191406 13.865234 C 21.126315 13.206211 21.038856 12.559235 20.927734 11.933594 C 20.858689 11.921268 20.788205 11.910143 20.71875 11.898438 C 20.726602 11.933031 20.734483 11.967182 20.742188 12.001953 C 19.409668 11.785409 18.017303 11.684455 16.630859 11.685547 C 16.278165 11.685822 15.927194 11.691585 15.576172 11.705078 C 15.635252 11.660496 15.69482 11.618146 15.753906 11.574219 z M 12.757812 11.955078 C 11.095098 12.187345 9.5369338 12.567894 8.203125 13.087891 C 8.3057733 13.349853 8.4211352 13.614246 8.546875 13.880859 C 9.4819903 13.520087 10.552368 13.225567 11.701172 13.005859 C 12.044553 12.645746 12.396926 12.294546 12.757812 11.955078 z M 21.851562 12.212891 C 21.900801 12.522408 21.943627 12.835418 21.982422 13.152344 C 23.090012 13.411637 24.12441 13.75639 25.033203 14.195312 A 1.5 1.5 0 0 0 25.001953 14.5 A 1.5 1.5 0 0 0 26.501953 16 A 1.5 1.5 0 0 0 28.001953 14.5 A 1.5 1.5 0 0 0 27.910156 14 A 1.5 1.5 0 0 1 26.501953 15 A 1.5 1.5 0 0 1 25.001953 13.5 A 1.5 1.5 0 0 1 25.029297 13.234375 C 24.057255 12.797966 22.983591 12.459877 21.851562 12.212891 z M 7.390625 13.398438 C 7.2904394 13.450214 7.1916629 13.503087 7.0957031 13.556641 C 7.0975102 13.562594 7.0997432 13.568264 7.1015625 13.574219 C 7.0054605 13.622684 6.9097604 13.672109 6.8164062 13.722656 C 6.8151778 13.723412 6.8137274 13.723854 6.8125 13.724609 C 5.4507485 14.56309 4.7594601 15.534074 4.8769531 16.644531 A 0.43193148 0.43193148 0 0 1 4.4921875 17.119141 A 0.43193148 0.43193148 0 0 1 4.0527344 16.851562 C 3.9986122 17.135553 3.9854307 17.430543 4.0175781 17.734375 A 0.43193148 0.43193148 0 0 0 4.4921875 18.119141 A 0.43193148 0.43193148 0 0 0 4.8769531 17.644531 C 4.7547232 16.489304 5.5056867 15.484159 6.9785156 14.623047 C 7.1096426 14.546383 7.2491788 14.471537 7.390625 14.398438 C 7.7159294 15.226637 8.1476158 16.065984 8.6601562 16.896484 C 8.763688 16.728372 8.8709336 16.561104 8.9804688 16.394531 C 8.9121916 16.290829 8.8431415 16.187963 8.7773438 16.083984 C 8.2129295 15.192064 7.7405412 14.289297 7.390625 13.398438 z M 22.177734 16.878906 C 22.115522 19.887747 21.490663 22.67226 20.222656 24.851562 C 20.306229 24.882592 20.39021 24.915013 20.472656 24.943359 C 20.537888 24.965736 20.601738 24.985247 20.666016 25.005859 C 21.757831 22.716404 22.237296 19.885965 22.177734 16.878906 z M 9.5195312 17.175781 C 8.9055485 18.143335 8.4012037 19.127821 8.0429688 20.099609 A 1.5 1.5 0 0 1 8.3789062 20.28125 C 8.6936827 19.57814 9.0774788 18.872396 9.5195312 18.175781 C 10.773721 19.91279 12.342786 21.579959 14.017578 23.001953 C 15.131557 23.947784 16.289048 24.782602 17.435547 25.457031 A 1.5 1.5 0 0 1 18.392578 25.007812 C 18.175618 24.889294 17.957762 24.762587 17.738281 24.630859 C 16.493768 23.92848 15.229522 23.030962 14.017578 22.001953 C 12.342786 20.579959 10.773721 18.91279 9.5195312 17.175781 z M 8.9121094 21.990234 A 1.5 1.5 0 0 1 7.5019531 23 A 1.5 1.5 0 0 1 6.09375 22 A 1.5 1.5 0 0 0 6.0019531 22.5 A 1.5 1.5 0 0 0 7.5019531 24 A 1.5 1.5 0 0 0 9.0019531 22.5 A 1.5 1.5 0 0 0 8.9121094 21.990234 z M 24.941406 25.5 C 24.759555 25.641277 24.56601 25.761748 24.361328 25.859375 C 24.360899 25.859689 24.359804 25.859061 24.359375 25.859375 C 23.464747 26.512506 22.120126 26.508485 20.472656 25.943359 C 20.39021 25.915013 20.306229 25.882592 20.222656 25.851562 C 20.235865 25.828861 20.24865 25.806035 20.261719 25.783203 C 20.237535 25.775101 20.21367 25.768073 20.189453 25.759766 C 20.043379 25.709649 19.896076 25.653114 19.748047 25.595703 C 19.740034 25.607042 19.73266 25.619521 19.724609 25.630859 A 1.5 1.5 0 0 1 20.001953 26.5 A 1.5 1.5 0 0 1 19.984375 26.685547 C 20.052701 26.71104 20.121607 26.736488 20.189453 26.759766 C 22.167748 27.438384 24.039339 27.437888 25.240234 26.238281 A 0.43193148 0.43193148 0 0 0 25.244141 25.626953 A 0.43193148 0.43193148 0 0 0 24.941406 25.5 z M 19.912109 26.988281 A 1.5 1.5 0 0 1 18.501953 28 A 1.5 1.5 0 0 1 17.09375 27.005859 A 1.5 1.5 0 0 0 17.001953 27.5 A 1.5 1.5 0 0 0 18.501953 29 A 1.5 1.5 0 0 0 20.001953 27.5 A 1.5 1.5 0 0 0 19.912109 26.988281 z "
     transform="scale(0.26458333)" />
</svg>
