<?xml version="1.0" encoding="UTF-8" standalone="no"?>
<!-- Created with Inkscape (http://www.inkscape.org/) -->

<svg
   width="64"
   height="64"
   viewBox="0 0 16.933333 16.933334"
   version="1.1"
   id="svg5"
   inkscape:version="1.1.1 (3bf5ae0d25, 2021-09-20, custom)"
   sodipodi:docname="application-vnd.appimage.svg"
   xmlns:inkscape="http://www.inkscape.org/namespaces/inkscape"
   xmlns:sodipodi="http://sodipodi.sourceforge.net/DTD/sodipodi-0.dtd"
   xmlns:xlink="http://www.w3.org/1999/xlink"
   xmlns="http://www.w3.org/2000/svg"
   xmlns:svg="http://www.w3.org/2000/svg">
  <sodipodi:namedview
     id="namedview7"
     pagecolor="#ffffff"
     bordercolor="#666666"
     borderopacity="1.0"
     inkscape:pageshadow="2"
     inkscape:pageopacity="0.0"
     inkscape:pagecheckerboard="0"
     inkscape:document-units="px"
     showgrid="false"
     units="px"
     height="64px"
     inkscape:zoom="2.8284271"
     inkscape:cx="-21.92031"
     inkscape:cy="35.708893"
     inkscape:window-width="1920"
     inkscape:window-height="1011"
     inkscape:window-x="0"
     inkscape:window-y="0"
     inkscape:window-maximized="1"
     inkscape:current-layer="svg5" />
  <defs
     id="defs2">
    <linearGradient
       inkscape:collect="always"
       id="linearGradient2677">
      <stop
         style="stop-color:#ffffff;stop-opacity:1;"
         offset="0"
         id="stop2673" />
      <stop
         style="stop-color:#82dfff;stop-opacity:1"
         offset="1"
         id="stop2675" />
    </linearGradient>
    <linearGradient
       inkscape:collect="always"
       id="linearGradient2349">
      <stop
         style="stop-color:#1a1a1a;stop-opacity:1;"
         offset="0"
         id="stop2345" />
      <stop
         style="stop-color:#1a1a1a;stop-opacity:0;"
         offset="1"
         id="stop2347" />
    </linearGradient>
    <linearGradient
       inkscape:collect="always"
       id="linearGradient1974">
      <stop
         style="stop-color:#0094fa;stop-opacity:1"
         offset="0"
         id="stop1970" />
      <stop
         style="stop-color:#39eaff;stop-opacity:1"
         offset="1"
         id="stop1972" />
    </linearGradient>
    <linearGradient
       inkscape:collect="always"
       id="linearGradient10453">
      <stop
         style="stop-color:#666666;stop-opacity:1"
         offset="0"
         id="stop10449" />
      <stop
         style="stop-color:#666666;stop-opacity:0"
         offset="1"
         id="stop10451" />
    </linearGradient>
    <linearGradient
       inkscape:collect="always"
       id="linearGradient6263">
      <stop
         style="stop-color:#000000;stop-opacity:1;"
         offset="0"
         id="stop6259" />
      <stop
         style="stop-color:#000000;stop-opacity:0;"
         offset="1"
         id="stop6261" />
    </linearGradient>
    <linearGradient
       inkscape:collect="always"
       id="linearGradient3378">
      <stop
         style="stop-color:#b0b0b0;stop-opacity:1"
         offset="0"
         id="stop3374" />
      <stop
         style="stop-color:#fcfcfc;stop-opacity:1"
         offset="1"
         id="stop3376" />
    </linearGradient>
    <linearGradient
       inkscape:collect="always"
       xlink:href="#linearGradient3378"
       id="linearGradient3380"
       x1="14.942825"
       y1="1.1138821"
       x2="11.503234"
       y2="4.3115072"
       gradientUnits="userSpaceOnUse"
       gradientTransform="translate(-0.5291663,-0.52916667)" />
    <linearGradient
       inkscape:collect="always"
       xlink:href="#linearGradient6263"
       id="linearGradient6265"
       x1="11.90625"
       y1="2.3812501"
       x2="12.170834"
       y2="7.1437502"
       gradientUnits="userSpaceOnUse"
       gradientTransform="translate(-0.52916663,0.52916673)" />
    <linearGradient
       inkscape:collect="always"
       xlink:href="#linearGradient10453"
       id="linearGradient10455"
       x1="10"
       y1="72.5"
       x2="58"
       y2="32.5"
       gradientUnits="userSpaceOnUse" />
    <linearGradient
       inkscape:collect="always"
       xlink:href="#linearGradient1974"
       id="linearGradient1976"
       x1="1.0583333"
       y1="16.933334"
       x2="1.0583346"
       y2="4.2529297e-07"
       gradientUnits="userSpaceOnUse" />
    <linearGradient
       inkscape:collect="always"
       xlink:href="#linearGradient2349"
       id="linearGradient2351"
       x1="11"
       y1="64.459961"
       x2="57"
       y2="26.459961"
       gradientUnits="userSpaceOnUse" />
    <linearGradient
       inkscape:collect="always"
       xlink:href="#linearGradient2677"
       id="linearGradient2679"
       x1="8.2020836"
       y1="8.2020626"
       x2="8.202116"
       y2="16.66873"
       gradientUnits="userSpaceOnUse" />
  </defs>
  <path
     id="rect1068"
     style="fill:url(#linearGradient1976);fill-opacity:1;stroke-width:0.529167;stroke-linejoin:round"
     d="m 3.175,0.5291667 7.143751,3e-8 3.968749,3.96874997 1e-6,11.3770833 c 0,0.293158 -0.236009,0.529167 -0.529167,0.529167 H 3.175 c -0.2931584,0 -0.5291667,-0.236009 -0.5291667,-0.529167 V 1.0583334 c 0,-0.29315835 0.2360083,-0.5291667 0.5291667,-0.5291667 z"
     sodipodi:nodetypes="cccsssssc" />
  <path
     id="rect9905"
     style="opacity:0.3;fill:url(#linearGradient10455);fill-opacity:1;stroke-width:2;stroke-linejoin:round"
     d="M 10 59 L 10 60 C 10 61.108 10.892 62 12 62 L 52 62 C 53.108 62 54 61.108 54 60 L 54 59 C 54 60.108 53.108 61 52 61 L 12 61 C 10.892 61 10 60.108 10 59 z "
     transform="scale(0.26458334)" />
  <path
     id="rect5598"
     style="opacity:0.2;fill:url(#linearGradient6265);fill-opacity:1;stroke-width:0.529167;stroke-linejoin:round"
     d="M 10.444901,4.3115072 10.31875,3.4395834 14.2875,4.4979167 v 3.7041668 z"
     sodipodi:nodetypes="ccccc" />
  <path
     id="rect2607"
     style="fill:url(#linearGradient3380);fill-opacity:1;stroke-width:0.529167;stroke-linejoin:round"
     d="m 14.2875,4.4979167 -3.439583,-1e-7 c -0.293158,0 -0.529166,-0.2360083 -0.529166,-0.5291667 V 0.52916673 Z"
     sodipodi:nodetypes="csscc" />
  <path
     id="path863-3"
     style="fill:url(#linearGradient2679);stroke-width:0.433007;stroke-linejoin:round;fill-opacity:1;opacity:1"
     d="m 12.435375,10.847895 c -1e-6,-0.129334 -0.104121,-0.233454 -0.233456,-0.233455 h -0.250325 a 3.501819,3.501819 0 0 0 -0.05745,-0.443199 l 0.240751,-0.06475 c 0.109309,-0.02929 0.179438,-0.1303755 0.172816,-0.2389219 -9.7e-4,-0.015506 -0.0035,-0.031346 -0.0078,-0.046964 C 12.266431,9.6956807 12.138947,9.6220738 12.01402,9.6555488 l -0.240296,0.06429 A 3.501819,3.501819 0 0 0 11.604149,9.305818 l 0.213848,-0.1235671 c 0.07,-0.040415 0.111425,-0.1109341 0.11672,-0.1855815 0.0032,-0.044797 -0.0068,-0.09114 -0.03101,-0.1331424 C 11.839037,8.7515199 11.696536,8.7135943 11.584529,8.778261 L 11.372061,8.9009201 A 3.501819,3.501819 0 0 0 11.101218,8.5434425 l 0.171899,-0.1718992 c 0.04573,-0.045726 0.0684,-0.1053927 0.0684,-0.1650587 2e-6,-0.059666 -0.02267,-0.1193331 -0.0684,-0.1650593 -0.09145,-0.091453 -0.238667,-0.091454 -0.330119,10e-8 l -0.171902,0.1718981 a 3.501819,3.501819 0 0 0 -0.357475,-0.270844 l 0.122655,-0.2124803 c 0.02425,-0.042002 0.0341,-0.088275 0.03101,-0.1331419 -0.0052,-0.074778 -0.04627,-0.1456171 -0.116275,-0.1860344 -0.112008,-0.064666 -0.254054,-0.026285 -0.31872,0.085722 L 10.008723,7.7103926 A 3.501819,3.501819 0 0 0 9.5947056,7.5407732 l 0.064291,-0.2402939 c 0.00418,-0.015616 0.0068,-0.031458 0.00776,-0.046965 C 9.6733766,7.144964 9.6032506,7.0438783 9.4939376,7.0145888 9.3690107,6.9811144 9.2415209,7.0547216 9.2080468,7.1796484 L 9.1432994,7.4203982 A 3.501819,3.501819 0 0 0 8.7001004,7.3629466 V 7.1126213 c 2e-7,-0.129334 -0.1041208,-0.2334546 -0.2334545,-0.2334548 -0.129334,-3e-7 -0.2334545,0.1041209 -0.233455,0.2334547 L 8.233189,7.362947 A 3.501819,3.501819 0 0 0 7.78999,7.420399 L 7.7252427,7.1796488 C 7.6917687,7.0547218 7.5642786,6.9811152 7.4393519,7.014589 7.3144242,7.0480634 7.240818,7.1755528 7.2742924,7.3004798 l 0.064288,0.2402961 A 3.501819,3.501819 0 0 0 6.9245619,7.7103963 L 6.8009981,7.4965473 C 6.7363288,7.3845415 6.5942839,7.3461587 6.4822783,7.4108255 6.3702711,7.4754925 6.3323453,7.6179951 6.3970124,7.7300018 L 6.5196718,7.9424799 A 3.501819,3.501819 0 0 0 6.1621945,8.2133242 L 5.9902944,8.0414255 c -0.091455,-0.091453 -0.2386689,-0.091453 -0.3301223,6e-7 -0.091453,0.091454 -0.091453,0.2386664 3.1e-6,0.3301185 l 0.1718991,0.1719 A 3.501819,3.501819 0 0 0 5.5612305,8.9009216 L 5.3487473,8.7782698 C 5.2367395,8.7136042 5.0942382,8.7515287 5.0295716,8.863535 4.9649047,8.9755422 5.0032865,9.1175888 5.1152959,9.1822534 L 5.3291424,9.3058259 A 3.501819,3.501819 0 0 0 5.1595258,9.719841 L 4.9192297,9.6555534 C 4.7943013,9.6220807 4.666813,9.6956857 4.6333396,9.8206126 4.5998638,9.9455397 4.6734694,10.07303 4.7983935,10.106506 l 0.2407518,0.06475 a 3.501819,3.501819 0 0 0 -0.057451,0.4432 l -0.2503229,-7e-6 c -0.129334,3e-6 -0.2334539,0.104121 -0.2334543,0.233456 -4e-7,0.129333 0.1041181,0.233454 0.2334506,0.233456 H 4.981695 a 3.501819,3.501819 0 0 0 0.057451,0.443199 l -0.2407489,0.06475 c -0.1249269,0.03348 -0.1985339,0.160964 -0.1650596,0.285891 0.033474,0.124927 0.1609619,0.198534 0.285888,0.165064 l 0.2402961,-0.0643 a 3.501819,3.501819 0 0 0 0.1696189,0.414017 l -0.2138482,0.123567 c -0.1120062,0.06467 -0.1503882,0.206713 -0.085722,0.31872 0.064674,0.112 0.2071706,0.149931 0.3191764,0.08526 l 0.212481,-0.122654 a 3.501819,3.501819 0 0 0 0.2708421,0.357479 l -0.1718989,0.171898 c -0.091453,0.09145 -0.091454,0.238668 3.3e-6,0.330119 0.091454,0.09145 0.2386654,0.09145 0.3301192,-7e-6 L 6.1621928,13.48247 a 3.501819,3.501819 0 0 0 0.3574789,0.270842 l -0.1226558,0.212481 c -0.064666,0.112006 -0.02674,0.254508 0.085266,0.319176 0.1120068,0.06467 0.2540542,0.02629 0.3187188,-0.08573 l 0.1235665,-0.213848 a 3.501819,3.501819 0 0 0 0.4140187,0.169618 l -0.064293,0.240298 c -0.033474,0.124927 0.040132,0.252418 0.1650549,0.285894 0.1249286,0.03348 0.2524163,-0.04013 0.2858938,-0.165054 l 0.064749,-0.240755 a 3.501819,3.501819 0 0 0 0.4432004,0.05745 l -1.9e-6,0.250326 c 3e-7,0.129334 0.1041179,0.233456 0.2334508,0.233458 0.1293342,-2e-6 0.2334545,-0.104119 0.2334529,-0.233459 l -1.5e-6,-0.24212 a 3.501819,3.501819 0 0 0 0.4454783,-0.05791 l 0.062468,0.232999 c 0.033475,0.124926 0.1609625,0.198534 0.2858887,0.165065 0.10931,-0.02929 0.1794401,-0.130376 0.1728166,-0.238922 -9.706e-4,-0.01546 -0.00356,-0.03134 -0.00775,-0.04698 l -0.062918,-0.233916 a 3.501819,3.501819 0 0 0 0.4153821,-0.171904 l 0.120826,0.209746 c 0.06467,0.112007 0.206715,0.150392 0.31872,0.08573 0.07,-0.04042 0.111101,-0.111256 0.116275,-0.186034 0.0031,-0.04487 -0.0068,-0.09114 -0.031,-0.133142 L 10.415903,13.75695 a 3.501819,3.501819 0 0 0 0.35565,-0.274031 l 0.171443,0.171444 c 0.09146,0.09145 0.238674,0.09146 0.330126,5e-6 0.04572,-0.04572 0.06839,-0.105395 0.06839,-0.165063 4e-6,-0.05967 -0.02267,-0.119336 -0.06839,-0.165062 l -0.17144,-0.171441 a 3.501819,3.501819 0 0 0 0.274038,-0.355654 l 0.208833,0.120375 c 0.112006,0.06467 0.254508,0.02674 0.319177,-0.08527 0.02425,-0.04201 0.03419,-0.08835 0.03101,-0.133137 -0.0053,-0.07465 -0.04672,-0.145162 -0.116729,-0.185576 L 11.60827,12.392702 a 3.501819,3.501819 0 0 0 0.171894,-0.415387 l 0.23391,0.06293 c 0.124928,0.03348 0.252418,-0.04013 0.285894,-0.165054 0.0041,-0.01565 0.0068,-0.03146 0.0078,-0.04696 0.0066,-0.108554 -0.0635,-0.209638 -0.172811,-0.238926 l -0.233,-0.06247 a 3.501819,3.501819 0 0 0 0.05791,-0.445482 h 0.242117 c 0.129344,-2e-6 0.233465,-0.104121 0.233466,-0.233452 z m -1.00039,0.633795 a 3.0349098,3.0349098 0 0 1 -2.9683391,2.401117 3.0349098,3.0349098 0 0 1 -0.9351854,-0.14819 l -0.1468224,-0.546248 0.953881,-1.652421 a 0.70036377,0.70036377 0 0 0 0.1281234,0.01232 0.70036377,0.70036377 0 0 0 0.6602393,-0.466908 l 1.9077642,-6e-6 z m -0.0073,-1.260292 -0.393043,0.393042 H 9.1250333 a 0.70036377,0.70036377 0 0 0 -0.658415,-0.466909 0.70036377,0.70036377 0 0 0 -0.1272151,0.01323 L 7.3846387,8.507421 7.53146,7.9611739 a 3.0349098,3.0349098 0 0 1 0.9351858,-0.148189 3.0349098,3.0349098 0 0 1 2.9610432,2.4084131 z m -2.7275845,0.626497 a 0.23345463,0.23345463 0 0 1 -0.2334543,0.233455 0.23345463,0.23345463 0 0 1 -0.2334587,-0.233454 0.23345463,0.23345463 0 0 1 0.233454,-0.233453 0.23345463,0.23345463 0 0 1 0.233459,0.233452 z m -0.765568,-0.455052 a 0.70036377,0.70036377 0 0 0 -0.168252,0.455055 0.70036377,0.70036377 0 0 0 0.168257,0.455051 L 6.9806561,12.954913 6.4430716,13.098998 A 3.0349098,3.0349098 0 0 1 5.4317364,10.847895 3.0349098,3.0349098 0 0 1 6.4430684,8.5967909 l 0.5375839,0.1440848 z" />
  <path
     id="path863-3-3"
     style="fill:url(#linearGradient2351);fill-opacity:1;stroke-width:1.63656;stroke-linejoin:round;opacity:0.3"
     d="M 27.582031 27.919922 C 27.468522 28.115138 27.431332 28.353428 27.494141 28.589844 A 13.235221 13.235221 0 0 1 27.736328 28.5 L 27.582031 27.919922 z M 36.417969 27.919922 L 36.263672 28.5 A 13.235221 13.235221 0 0 1 36.505859 28.589844 C 36.521439 28.53143 36.531417 28.472051 36.535156 28.414062 C 36.545888 28.23755 36.503279 28.066626 36.417969 27.919922 z M 24.212891 29.275391 C 24.026835 29.546907 24.001678 29.909906 24.177734 30.214844 L 24.232422 30.308594 A 13.235221 13.235221 0 0 1 24.640625 30.019531 L 24.212891 29.275391 z M 39.787109 29.277344 L 39.359375 30.019531 A 13.235221 13.235221 0 0 1 39.767578 30.308594 L 39.822266 30.214844 C 39.913919 30.0561 39.951132 29.882464 39.939453 29.712891 C 39.928654 29.557593 39.875426 29.407045 39.787109 29.277344 z M 32 29.529297 A 11.470525 11.470525 0 0 0 28.464844 30.089844 L 27.910156 32.154297 L 28.09375 32.472656 L 28.464844 31.089844 A 11.470525 11.470525 0 0 1 32 30.529297 A 11.470525 11.470525 0 0 1 42.988281 38.835938 L 43.191406 38.632812 A 11.470525 11.470525 0 0 0 32 29.529297 z M 21.291016 31.517578 C 21.053029 31.861713 21.085708 32.333769 21.392578 32.640625 L 21.595703 32.84375 A 13.235221 13.235221 0 0 1 22.042969 32.291016 L 21.392578 31.640625 C 21.354088 31.602135 21.320934 31.560713 21.291016 31.517578 z M 42.708984 31.517578 C 42.679121 31.560713 42.645915 31.602132 42.607422 31.640625 L 41.957031 32.291016 A 13.235221 13.235221 0 0 1 42.404297 32.84375 L 42.607422 32.640625 C 42.78026 32.467787 42.865234 32.243087 42.865234 32.017578 C 42.865243 31.842671 42.812748 31.667893 42.708984 31.517578 z M 24.351562 32.492188 A 11.470525 11.470525 0 0 0 20.529297 41 A 11.470525 11.470525 0 0 0 20.550781 41.5 A 11.470525 11.470525 0 0 1 24.351562 33.492188 L 26.382812 34.037109 L 29.677734 39.742188 A 2.6470441 2.6470441 0 0 1 29.988281 39.279297 L 26.382812 33.037109 L 24.351562 32.492188 z M 19.048828 34.441406 C 19.035596 34.460658 19.021653 34.479412 19.009766 34.5 C 18.765355 34.923337 18.910643 35.460675 19.333984 35.705078 L 19.787109 35.966797 A 13.235221 13.235221 0 0 1 20.142578 35.171875 L 19.333984 34.705078 C 19.216437 34.63721 19.121086 34.545684 19.048828 34.441406 z M 44.953125 34.441406 C 44.880657 34.545927 44.783868 34.637044 44.666016 34.705078 L 43.857422 35.171875 A 13.235221 13.235221 0 0 1 44.212891 35.966797 L 44.666016 35.705078 C 44.930583 35.552347 45.087409 35.286037 45.107422 35.003906 C 45.119516 34.834583 45.081737 34.658751 44.990234 34.5 C 44.978524 34.479719 44.96614 34.460391 44.953125 34.441406 z M 17.636719 37.845703 C 17.581544 37.926278 17.538503 38.017222 17.511719 38.117188 C 17.385195 38.589353 17.662612 39.070742 18.134766 39.197266 L 18.898438 39.404297 A 13.235221 13.235221 0 0 1 19.044922 38.443359 L 18.134766 38.197266 C 17.923218 38.140577 17.751437 38.012223 17.636719 37.845703 z M 46.363281 37.847656 C 46.248453 38.013938 46.074782 38.140593 45.863281 38.197266 L 44.955078 38.443359 A 13.235221 13.235221 0 0 1 45.101562 39.404297 L 45.863281 39.197266 C 46.276418 39.086563 46.542606 38.705178 46.517578 38.294922 C 46.513912 38.236301 46.504533 38.176186 46.488281 38.117188 C 46.461702 38.018013 46.417829 37.927763 46.363281 37.847656 z M 32 40.117188 A 0.8823482 0.8823482 0 0 0 31.117188 41 A 0.8823482 0.8823482 0 0 0 31.275391 41.5 A 0.8823482 0.8823482 0 0 1 32 41.117188 A 0.8823482 0.8823482 0 0 1 32.724609 41.501953 A 0.8823482 0.8823482 0 0 0 32.882812 41 A 0.8823482 0.8823482 0 0 0 32 40.117188 z M 17.154297 41.5 C 17.056935 41.641901 17.000001 41.814167 17 42 C 16.999998 42.488818 17.393997 42.882805 17.882812 42.882812 L 18.828125 42.882812 A 13.235221 13.235221 0 0 0 18.898438 43.595703 L 19.044922 43.556641 A 13.235221 13.235221 0 0 1 18.828125 41.882812 L 17.882812 41.882812 C 17.579826 41.882808 17.313038 41.731364 17.154297 41.5 z M 29.404297 41.5 A 2.6470441 2.6470441 0 0 0 29.353516 42 A 2.6470441 2.6470441 0 0 0 29.677734 43.257812 L 29.988281 42.720703 A 2.6470441 2.6470441 0 0 1 29.404297 41.5 z M 46.845703 41.5 C 46.686954 41.73136 46.420201 41.882808 46.117188 41.882812 L 45.203125 41.882812 A 13.235221 13.235221 0 0 1 44.984375 43.566406 L 45.132812 43.605469 A 13.235221 13.235221 0 0 0 45.203125 42.882812 L 46.117188 42.882812 C 46.606047 42.882805 47 42.48881 47 42 C 46.999999 41.814169 46.943065 41.641901 46.845703 41.5 z M 34.496094 41.882812 A 2.6470441 2.6470441 0 0 1 32 43.646484 A 2.6470441 2.6470441 0 0 1 31.515625 43.599609 L 27.910156 49.845703 L 28.09375 50.527344 L 31.515625 44.599609 A 2.6470441 2.6470441 0 0 0 32 44.646484 A 2.6470441 2.6470441 0 0 0 34.496094 42.882812 L 41.705078 42.882812 L 43.013672 44.189453 A 11.470525 11.470525 0 0 0 43.21875 43.394531 L 41.705078 41.882812 L 34.496094 41.882812 z M 46.363281 45.152344 C 46.158041 45.453217 45.780946 45.605752 45.408203 45.505859 L 44.523438 45.269531 A 13.235221 13.235221 0 0 1 43.873047 46.837891 L 44.232422 47.044922 A 13.235221 13.235221 0 0 0 44.523438 46.269531 L 45.408203 46.505859 C 45.880372 46.632398 46.361758 46.354966 46.488281 45.882812 C 46.503777 45.823663 46.513799 45.763661 46.517578 45.705078 C 46.529757 45.504768 46.472811 45.310901 46.363281 45.152344 z M 17.636719 45.154297 C 17.495394 45.35943 17.441887 45.6222 17.511719 45.882812 C 17.638235 46.354978 18.119635 46.63236 18.591797 46.505859 L 19.5 46.263672 A 13.235221 13.235221 0 0 0 19.787109 47.033203 L 20.142578 46.828125 A 13.235221 13.235221 0 0 1 19.5 45.263672 L 18.591797 45.505859 C 18.219598 45.605578 17.842155 45.45431 17.636719 45.154297 z M 21.019531 48.359375 L 20.214844 48.822266 C 19.812103 49.054803 19.307663 48.935163 19.048828 48.558594 C 18.860872 48.829843 18.833227 49.194221 19.009766 49.5 C 19.254203 49.923307 19.791515 50.066691 20.214844 49.822266 L 21.019531 49.359375 A 13.235221 13.235221 0 0 0 21.595703 50.15625 L 22.042969 49.708984 A 13.235221 13.235221 0 0 1 21.019531 48.359375 z M 42.994141 48.367188 A 13.235221 13.235221 0 0 1 41.958984 49.710938 L 42.410156 50.162109 A 13.235221 13.235221 0 0 0 42.994141 49.367188 L 43.785156 49.822266 C 44.208486 50.066688 44.745816 49.923345 44.990234 49.5 C 45.081888 49.341222 45.119441 49.165367 45.107422 48.996094 C 45.096313 48.839633 45.043342 48.688703 44.953125 48.558594 C 44.694475 48.935879 44.188205 49.054978 43.785156 48.822266 L 42.994141 48.367188 z M 23.291016 50.957031 L 22.640625 51.607422 C 22.294972 51.953086 21.738216 51.95306 21.392578 51.607422 C 21.353788 51.568633 21.321099 51.525924 21.291016 51.482422 C 21.052264 51.826641 21.085405 52.30027 21.392578 52.607422 C 21.738231 52.95306 22.294973 52.953086 22.640625 52.607422 L 23.291016 51.957031 A 13.235221 13.235221 0 0 0 24.230469 52.689453 L 24.640625 51.980469 A 13.235221 13.235221 0 0 1 23.291016 50.957031 z M 40.710938 50.958984 A 13.235221 13.235221 0 0 1 39.367188 51.994141 L 39.775391 52.701172 A 13.235221 13.235221 0 0 0 40.710938 51.958984 L 41.359375 52.607422 C 41.705051 52.95306 42.261777 52.953079 42.607422 52.607422 C 42.780222 52.434622 42.865234 52.207939 42.865234 51.982422 C 42.865249 51.807124 42.813197 51.632965 42.708984 51.482422 C 42.678961 51.525923 42.646206 51.568638 42.607422 51.607422 C 42.261777 51.953079 41.705051 51.95306 41.359375 51.607422 L 40.710938 50.958984 z M 26.171875 52.857422 L 25.705078 53.666016 C 25.460679 54.089398 24.923334 54.234656 24.5 53.990234 C 24.381106 53.921592 24.28523 53.828634 24.212891 53.722656 L 24.177734 53.783203 C 23.933327 54.206533 24.07667 54.74582 24.5 54.990234 C 24.923333 55.234656 25.460676 55.089398 25.705078 54.666016 L 26.171875 53.857422 A 13.235221 13.235221 0 0 0 27.494141 54.408203 L 27.736328 53.5 A 13.235221 13.235221 0 0 1 26.171875 52.857422 z M 37.837891 52.873047 A 13.235221 13.235221 0 0 1 36.269531 53.523438 L 36.505859 54.408203 C 36.507938 54.416131 36.509842 54.423686 36.511719 54.431641 A 13.235221 13.235221 0 0 0 37.837891 53.873047 L 38.294922 54.666016 C 38.539344 55.089349 39.076674 55.234626 39.5 54.990234 C 39.764567 54.837466 39.919894 54.569735 39.939453 54.287109 C 39.95117 54.117522 39.91373 53.941951 39.822266 53.783203 L 39.787109 53.722656 C 39.714725 53.828764 39.618986 53.921529 39.5 53.990234 C 39.076674 54.234626 38.539344 54.089349 38.294922 53.666016 L 37.837891 52.873047 z M 29.443359 53.955078 L 29.197266 54.863281 C 29.070738 55.335435 28.58936 55.61482 28.117188 55.488281 C 27.882055 55.425273 27.694927 55.27425 27.582031 55.080078 L 27.494141 55.408203 C 27.367625 55.880368 27.645038 56.361758 28.117188 56.488281 C 28.589359 56.61482 29.070736 56.335435 29.197266 55.863281 L 29.443359 54.955078 A 13.235221 13.235221 0 0 0 31.117188 55.171875 L 31.117188 56.117188 C 31.117189 56.606009 31.511183 56.999992 32 57 C 32.488824 56.999992 32.88282 56.606032 32.882812 56.117188 L 32.882812 55.203125 A 13.235221 13.235221 0 0 0 34.566406 54.984375 L 34.802734 55.863281 C 34.929273 56.335443 35.410651 56.614778 35.882812 56.488281 C 36.295953 56.377579 36.560192 55.99619 36.535156 55.585938 C 36.53149 55.527506 36.521355 55.467315 36.505859 55.408203 L 36.417969 55.078125 C 36.304998 55.272486 36.118274 55.425189 35.882812 55.488281 C 35.410651 55.614778 34.929273 55.335443 34.802734 54.863281 L 34.566406 53.984375 A 13.235221 13.235221 0 0 1 32.882812 54.203125 L 32.882812 55.117188 C 32.88282 55.606032 32.488825 55.999992 32 56 C 31.511186 55.999992 31.117188 55.606009 31.117188 55.117188 L 31.117188 54.171875 A 13.235221 13.235221 0 0 1 29.443359 53.955078 z "
     transform="scale(0.26458334)" />
</svg>
