<?xml version="1.0" encoding="UTF-8" standalone="no"?>
<!-- Created with Inkscape (http://www.inkscape.org/) -->

<svg
   width="64"
   height="64"
   viewBox="0 0 16.933333 16.933334"
   version="1.1"
   id="svg5"
   inkscape:version="1.1.1 (3bf5ae0d25, 2021-09-20, custom)"
   sodipodi:docname="application-picom.svg"
   xmlns:inkscape="http://www.inkscape.org/namespaces/inkscape"
   xmlns:sodipodi="http://sodipodi.sourceforge.net/DTD/sodipodi-0.dtd"
   xmlns:xlink="http://www.w3.org/1999/xlink"
   xmlns="http://www.w3.org/2000/svg"
   xmlns:svg="http://www.w3.org/2000/svg">
  <sodipodi:namedview
     id="namedview7"
     pagecolor="#ffffff"
     bordercolor="#666666"
     borderopacity="1.0"
     inkscape:pageshadow="2"
     inkscape:pageopacity="0.0"
     inkscape:pagecheckerboard="0"
     inkscape:document-units="px"
     showgrid="false"
     units="px"
     height="64px"
     inkscape:zoom="12.328125"
     inkscape:cx="31.959442"
     inkscape:cy="32"
     inkscape:window-width="1920"
     inkscape:window-height="1011"
     inkscape:window-x="0"
     inkscape:window-y="0"
     inkscape:window-maximized="1"
     inkscape:current-layer="svg5" />
  <defs
     id="defs2">
    <linearGradient
       inkscape:collect="always"
       id="linearGradient1737">
      <stop
         style="stop-color:#ffffff;stop-opacity:1;"
         offset="0"
         id="stop1733" />
      <stop
         style="stop-color:#b3b3b3;stop-opacity:1"
         offset="1"
         id="stop1735" />
    </linearGradient>
    <linearGradient
       inkscape:collect="always"
       id="linearGradient987">
      <stop
         style="stop-color:#666666;stop-opacity:1;"
         offset="0"
         id="stop983" />
      <stop
         style="stop-color:#333333;stop-opacity:1"
         offset="1"
         id="stop985" />
    </linearGradient>
    <linearGradient
       inkscape:collect="always"
       id="linearGradient10453">
      <stop
         style="stop-color:#666666;stop-opacity:1"
         offset="0"
         id="stop10449" />
      <stop
         style="stop-color:#666666;stop-opacity:0"
         offset="1"
         id="stop10451" />
    </linearGradient>
    <linearGradient
       inkscape:collect="always"
       id="linearGradient6263">
      <stop
         style="stop-color:#000000;stop-opacity:1;"
         offset="0"
         id="stop6259" />
      <stop
         style="stop-color:#000000;stop-opacity:0;"
         offset="1"
         id="stop6261" />
    </linearGradient>
    <linearGradient
       inkscape:collect="always"
       id="linearGradient3378">
      <stop
         style="stop-color:#b0b0b0;stop-opacity:1"
         offset="0"
         id="stop3374" />
      <stop
         style="stop-color:#fcfcfc;stop-opacity:1"
         offset="1"
         id="stop3376" />
    </linearGradient>
    <linearGradient
       inkscape:collect="always"
       xlink:href="#linearGradient3378"
       id="linearGradient3380"
       x1="14.942825"
       y1="1.1138821"
       x2="11.503234"
       y2="4.3115072"
       gradientUnits="userSpaceOnUse"
       gradientTransform="translate(-0.5291663,-0.52916667)" />
    <linearGradient
       inkscape:collect="always"
       xlink:href="#linearGradient6263"
       id="linearGradient6265"
       x1="11.90625"
       y1="2.3812501"
       x2="12.170834"
       y2="7.1437502"
       gradientUnits="userSpaceOnUse"
       gradientTransform="translate(-0.52916663,0.52916673)" />
    <linearGradient
       inkscape:collect="always"
       xlink:href="#linearGradient10453"
       id="linearGradient10455"
       x1="10"
       y1="72.5"
       x2="58"
       y2="32.5"
       gradientUnits="userSpaceOnUse" />
    <linearGradient
       inkscape:collect="always"
       xlink:href="#linearGradient987"
       id="linearGradient989"
       x1="1.5874999"
       y1="2.116667"
       x2="9.5250015"
       y2="16.933334"
       gradientUnits="userSpaceOnUse" />
    <linearGradient
       inkscape:collect="always"
       xlink:href="#linearGradient6263"
       id="linearGradient1509"
       x1="14"
       y1="47.488281"
       x2="48"
       y2="23.488281"
       gradientUnits="userSpaceOnUse" />
    <linearGradient
       inkscape:collect="always"
       xlink:href="#linearGradient1737"
       id="linearGradient1739"
       x1="8.9958334"
       y1="5.8735437"
       x2="8.9958372"
       y2="14.340211"
       gradientUnits="userSpaceOnUse" />
  </defs>
  <path
     id="rect1068"
     style="fill:url(#linearGradient989);fill-opacity:1;stroke-width:0.529167;stroke-linejoin:round"
     d="m 3.175,0.5291667 7.143751,3e-8 3.968749,3.96874997 1e-6,11.3770833 c 0,0.293158 -0.236009,0.529167 -0.529167,0.529167 H 3.175 c -0.2931584,0 -0.5291667,-0.236009 -0.5291667,-0.529167 V 1.0583334 c 0,-0.29315835 0.2360083,-0.5291667 0.5291667,-0.5291667 z"
     sodipodi:nodetypes="cccsssssc" />
  <path
     id="rect9905"
     style="opacity:0.3;fill:url(#linearGradient10455);fill-opacity:1;stroke-width:2;stroke-linejoin:round"
     d="M 10 59 L 10 60 C 10 61.108 10.892 62 12 62 L 52 62 C 53.108 62 54 61.108 54 60 L 54 59 C 54 60.108 53.108 61 52 61 L 12 61 C 10.892 61 10 60.108 10 59 z "
     transform="scale(0.26458334)" />
  <path
     id="rect5598"
     style="opacity:0.2;fill:url(#linearGradient6265);fill-opacity:1;stroke-width:0.529167;stroke-linejoin:round"
     d="M 10.444901,4.3115072 10.31875,3.4395834 14.2875,4.4979167 v 3.7041668 z"
     sodipodi:nodetypes="ccccc" />
  <path
     id="rect2607"
     style="fill:url(#linearGradient3380);fill-opacity:1;stroke-width:0.529167;stroke-linejoin:round"
     d="m 14.2875,4.4979167 -3.439583,-1e-7 c -0.293158,0 -0.529166,-0.2360083 -0.529166,-0.5291667 V 0.52916673 Z"
     sodipodi:nodetypes="csscc" />
  <path
     id="path123"
     style="isolation:auto;mix-blend-mode:normal;stroke-width:0.264583;fill:url(#linearGradient1739);fill-opacity:1"
     d="m 8.9937671,6.6145834 c -0.2227924,0 -0.4041098,0.1775063 -0.4041098,0.3953248 v 1.0495481 c 0.1113896,-0.086193 0.2516383,-0.137976 0.4041098,-0.137976 0.068456,0 0.1240234,0.05402 0.1240234,0.1209228 0,0.0669 -0.055568,0.1209228 -0.1240234,0.1209228 -0.2227924,0 -0.4041098,0.1775066 -0.4041098,0.3953248 v 3.9956223 c 0,0.0112 -0.00206,0.02177 -0.00517,0.03204 0.0031,0.0333 0.00517,0.06737 0.00517,0.101286 0,0.502523 0.417667,0.911572 0.931726,0.911572 0.3469481,0 0.6634637,-0.187432 0.8252727,-0.488343 0.01618,-0.02956 0.04422,-0.05123 0.07752,-0.05995 0.406056,-0.10705 0.689881,-0.468277 0.689881,-0.879016 0,-0.0613 -0.0067,-0.123396 -0.01912,-0.183451 -0.01151,-0.0557 0.01842,-0.111332 0.07131,-0.134359 0.289073,-0.125703 0.475423,-0.406313 0.475423,-0.714685 0,-0.140324 -0.03758,-0.274391 -0.108521,-0.393258 -0.184838,0.159319 -0.426318,0.256316 -0.69143,0.256316 -0.06846,0 -0.124024,-0.05402 -0.124024,-0.120923 0,-0.0669 0.05556,-0.120923 0.124024,-0.120923 0.441219,0 0.799951,-0.351627 0.799951,-0.7828982 0,-0.2321189 -0.104666,-0.4506034 -0.287321,-0.5999633 -0.04107,-0.033605 -0.05537,-0.089123 -0.03514,-0.137976 0.0389,-0.094282 0.05891,-0.1932194 0.05891,-0.2940389 0,-0.4312973 -0.359222,-0.7818644 -0.800468,-0.7818644 -0.441245,0 -0.7994342,0.3505936 -0.7994342,0.7818644 0,0.0669 -0.055565,0.1209228 -0.1240234,0.1209228 -0.068459,0 -0.1240235,-0.05402 -0.1240235,-0.1209228 0,-0.5426604 0.4333677,-0.9877261 0.9797851,-1.021643 0.04947,-0.080899 0.07596,-0.1731897 0.07596,-0.2687175 0,-0.2156354 -0.133782,-0.4008279 -0.324528,-0.4811078 -0.0071,-0.00217 -0.01486,-0.00536 -0.0217,-0.00878 -0.05881,-0.022093 -0.122753,-0.034106 -0.189653,-0.034106 -0.2069305,0 -0.3921068,0.1127268 -0.4826578,0.2950723 -0.029871,0.060058 -0.1037535,0.08506 -0.1653646,0.055811 C 9.3407096,7.4529856 9.3152936,7.3810603 9.3451646,7.3210051 9.4484844,7.1131538 9.6443957,6.9635922 9.8696804,6.9106943 9.5538481,6.7224345 9.2425939,6.6151042 8.9942824,6.6151042 Z m -1.055233,5.167e-4 c -0.2495548,0 -0.5590487,0.1073327 -0.8748819,0.2955893 0.2252927,0.05289 0.4212067,0.2021393 0.5245159,0.4103108 0.029871,0.060367 0.00425,0.1319808 -0.057361,0.1612305 -0.061301,0.02925 -0.1349764,0.00424 -0.1648479,-0.055811 C 7.2753922,7.2443838 7.0905388,7.1313474 6.8833013,7.1313474 c -0.0669,0 -0.1310482,0.012015 -0.1901693,0.034106 -0.00684,0.00374 -0.013719,0.00661 -0.021188,0.00878 -0.1907355,0.080275 -0.3245279,0.2654696 -0.3245279,0.4811077 0,0.095522 0.025971,0.1878132 0.075448,0.2687175 0.5464175,0.03392 0.9808187,0.4789561 0.9808187,1.021643 0,0.0669 -0.055568,0.1209228 -0.1240235,0.1209228 -0.068456,0 -0.1240234,-0.05402 -0.1240234,-0.1209228 0,-0.4312973 -0.3587054,-0.7818644 -0.7999511,-0.7818644 -0.4412456,0 -0.7999513,0.3505936 -0.7999513,0.7818644 0,0.1008169 0.019706,0.2000668 0.058911,0.2940389 0.020225,0.048541 0.00625,0.1043686 -0.03514,0.137976 -0.1826577,0.1490398 -0.2878378,0.3678311 -0.2878378,0.5999633 0,0.4312712 0.3587057,0.7828982 0.7999513,0.7828982 0.068458,0 0.1240235,0.05402 0.1240235,0.120923 0,0.0669 -0.055565,0.120923 -0.1240235,0.120923 -0.2651125,0 -0.507115,-0.097 -0.6919476,-0.256316 -0.070948,0.118851 -0.1080037,0.25292 -0.1080037,0.393258 0,0.308663 0.1868562,0.588974 0.4759399,0.714685 0.052898,0.02303 0.082309,0.07866 0.070797,0.134359 -0.012446,0.06006 -0.018603,0.12215 -0.018603,0.183451 0,0.410739 0.2832812,0.772286 0.6893637,0.879016 0.033295,0.0087 0.061852,0.03007 0.078032,0.05995 0.1618191,0.300887 0.4772909,0.488343 0.824239,0.488343 0.5137415,0 0.9322427,-0.409049 0.9322427,-0.911572 3e-7,-0.411057 -0.2835066,-0.772286 -0.6898801,-0.879017 -0.065969,-0.01743 -0.1050708,-0.0839 -0.087333,-0.148311 0.017738,-0.06472 0.085443,-0.103208 0.151412,-0.08578 0.2548467,0.0672 0.4720839,0.213557 0.6258015,0.407727 V 9.0743816 c 0,-0.2178156 -0.1813144,-0.3948081 -0.4041095,-0.3948081 -0.068456,0 -0.1240234,-0.05454 -0.1240234,-0.1214395 0,-0.0669 0.055568,-0.1209228 0.1240234,-0.1209228 0.152781,0 0.2930218,0.052299 0.4041095,0.1384927 v -1.565279 c 0,-0.2178156 -0.1813144,-0.3953248 -0.4041095,-0.3953248 z M 10.8412,8.6950765 h 5.29e-4 c 0.06821,2.911e-4 0.123507,0.054193 0.123507,0.1209228 0,0.5196417 -0.398149,0.9497857 -0.911573,1.015442 0.05257,0.2352467 0.26708,0.4118617 0.523482,0.4118617 0.06846,0 0.124024,0.05454 0.124024,0.121439 0,0.0669 -0.05557,0.120923 -0.124024,0.120923 -0.392059,0 -0.7176859,-0.283008 -0.7746295,-0.651123 C 9.5622738,9.809036 9.3404152,9.7038947 9.1689625,9.5327516 c -0.047908,-0.047609 -0.046786,-0.1238573 0.00206,-0.1705324 0.048853,-0.046664 0.1272643,-0.046059 0.175183,0.00156 0.1518443,0.1515401 0.3551737,0.2346111 0.572058,0.2346111 0.4412455,0 0.7994345,-0.3511106 0.7994345,-0.7823814 0,-0.066731 0.05529,-0.1206503 0.123507,-0.1209228 z M 6.3541347,8.8247843 c 0.068456,0 0.1235067,0.053506 0.1235067,0.1204063 0,0.4312708 0.3592224,0.7823811 0.8004681,0.7823811 0.2168789,0 0.4196916,-0.083074 0.5715413,-0.234611 0.047919,-0.047932 0.1258136,-0.048742 0.1746662,-0.00206 0.048866,0.046675 0.049986,0.1239565 0.00206,0.1715656 -0.1717675,0.1714659 -0.3933325,0.2752405 -0.6335533,0.3007569 -0.056621,0.3681148 -0.38257,0.6511228 -0.7746296,0.6511228 -0.068458,0 -0.1240235,-0.05402 -0.1240235,-0.120923 0,-0.0669 0.055565,-0.120922 0.1240235,-0.120922 0.2564077,0 0.4708938,-0.176618 0.5234823,-0.4118617 C 6.6282525,9.8952873 6.230104,9.4648392 6.230104,8.9451976 c 0,-0.066903 0.055565,-0.1204064 0.1240235,-0.1204064 z m 2.6396324,1.8060917 c 0.57785,0 1.0479979,0.459447 1.0479979,1.024227 0,0.0056 -0.001,0.01166 -0.001,0.01757 0.04574,-0.0062 0.09347,-0.0098 0.141077,-0.0098 0.06846,0 0.123506,0.05402 0.123506,0.120922 0,0.0669 -0.05505,0.120923 -0.123506,0.120923 -0.4412195,0 -0.8004681,0.351627 -0.8004681,0.782898 -3e-7,0.0669 -0.055565,0.120923 -0.1240235,0.120923 -0.068456,0 -0.1235067,-0.05402 -0.1235067,-0.120923 0,-0.429101 0.2712673,-0.797651 0.6552571,-0.949813 0.0031,-0.02738 0.00465,-0.05499 0.00465,-0.08268 0,-0.431271 -0.3587054,-0.782381 -0.799951,-0.782381 -0.068456,0 -0.1240235,-0.05402 -0.1240235,-0.120923 0,-0.0669 0.055568,-0.120923 0.1240235,-0.120923 z m -1.451591,0.257865 c 0.068456,0 0.1240234,0.05402 0.1240234,0.120923 0,0.0669 -0.055565,0.120923 -0.1240234,0.120923 -0.4412192,0 -0.8004681,0.351627 -0.8004681,0.782898 0,0.02769 0.00238,0.05478 0.00517,0.08217 0.3839898,0.15187 0.6552573,0.520711 0.6552573,0.949812 0,0.0669 -0.055048,0.120923 -0.1235067,0.120923 -0.068458,0 -0.1240234,-0.05402 -0.1240234,-0.120923 0,-0.431271 -0.3592224,-0.782381 -0.8004681,-0.782381 -0.068458,0 -0.1240234,-0.05454 -0.1240234,-0.121439 0,-0.0669 0.055565,-0.120924 0.1240234,-0.120924 0.047609,0 0.094507,0.0039 0.1405599,0.0098 0,-0.0059 -5.291e-4,-0.01114 -5.291e-4,-0.01705 0,-0.56478 0.4704657,-1.024744 1.0479982,-1.024744 z" />
  <path
     id="path123-3"
     style="opacity:0.3;isolation:auto;mix-blend-mode:normal;fill:url(#linearGradient1509);stroke-width:0.999999;fill-opacity:1"
     d="M 27.730469 26.578125 C 27.409024 26.723163 27.081819 26.893735 26.751953 27.087891 C 26.850681 27.125132 26.946115 27.169035 27.037109 27.220703 C 27.602964 27.425725 28.098398 27.796147 28.447266 28.285156 C 28.452513 28.28288 28.457688 28.281779 28.462891 28.279297 C 28.695558 28.168747 28.792582 27.898081 28.679688 27.669922 C 28.460054 27.227353 28.129058 26.854585 27.730469 26.578125 z M 36.269531 26.580078 C 35.870946 26.85674 35.539969 27.228033 35.320312 27.669922 C 35.207418 27.896902 35.303471 28.168761 35.535156 28.279297 C 35.540739 28.281947 35.547101 28.282741 35.552734 28.285156 C 35.901252 27.797145 36.39594 27.425999 36.960938 27.220703 C 37.052483 27.168605 37.148694 27.125369 37.248047 27.087891 C 36.919481 26.894529 36.592307 26.724731 36.271484 26.580078 C 36.270946 26.579835 36.27007 26.580321 36.269531 26.580078 z M 39.943359 29.431641 C 39.895035 29.613385 39.821798 29.78709 39.722656 29.949219 C 37.657457 30.077409 36.019531 31.759547 36.019531 33.810547 C 36.019531 33.901336 36.047069 33.985602 36.09375 34.056641 C 36.361808 32.731937 37.323289 31.649674 38.591797 31.185547 C 38.949263 31.004246 39.34861 30.891478 39.771484 30.863281 C 39.926734 30.578629 40.009766 30.261526 40.009766 29.933594 C 40.009766 29.760275 39.986301 29.591845 39.943359 29.431641 z M 24.056641 29.435547 C 24.014324 29.594658 23.990234 29.761586 23.990234 29.933594 C 23.990234 30.261506 24.07159 30.578614 24.226562 30.863281 C 24.65352 30.891297 25.055586 31.005564 25.416016 31.189453 C 26.680436 31.655575 27.640261 32.735361 27.908203 34.056641 C 27.954886 33.985602 27.982422 33.901332 27.982422 33.810547 C 27.982422 31.759447 26.340592 30.07742 24.275391 29.949219 C 24.176958 29.788273 24.104484 29.615843 24.056641 29.435547 z M 33.992188 29.939453 C 33.415919 29.939453 32.885842 30.135169 32.464844 30.460938 L 32.464844 31.460938 C 32.687352 31.288761 32.940682 31.154278 33.214844 31.064453 C 33.442968 30.931611 33.708067 30.853516 33.992188 30.853516 C 34.250911 30.853516 34.460938 30.649335 34.460938 30.396484 C 34.460938 30.143623 34.250934 29.939453 33.992188 29.939453 z M 30.007812 31.888672 C 29.749093 31.888672 29.539062 32.092853 29.539062 32.345703 C 29.539062 32.598552 29.749066 32.804688 30.007812 32.804688 C 30.290603 32.804688 30.553841 32.882274 30.78125 33.013672 C 31.056977 33.104 31.312178 33.239099 31.535156 33.412109 L 31.535156 32.412109 C 31.115296 32.086338 30.585252 31.888672 30.007812 31.888672 z M 40.974609 32.863281 C 40.716781 32.864313 40.507812 33.068105 40.507812 33.320312 C 40.507813 34.950313 39.154027 36.277344 37.486328 36.277344 C 36.666605 36.277344 35.898117 35.963375 35.324219 35.390625 C 35.143108 35.210493 34.846739 35.208413 34.662109 35.384766 C 34.477328 35.561175 34.47322 35.849354 34.654297 36.029297 C 34.735949 36.110802 34.820743 36.188239 34.908203 36.261719 C 35.054921 36.236569 35.212002 36.27911 35.324219 36.390625 C 35.553652 36.619598 35.815183 36.80649 36.097656 36.949219 C 36.40188 37.060204 36.720754 37.135085 37.048828 37.169922 C 37.052899 37.196241 37.057707 37.221963 37.0625 37.248047 C 37.201676 37.266879 37.34327 37.277344 37.486328 37.277344 C 37.66775 37.277344 37.844925 37.260559 38.017578 37.230469 C 38.011197 37.206358 38.003512 37.182658 37.998047 37.158203 C 38.306932 37.118703 38.604224 37.044571 38.886719 36.939453 C 39.849646 36.444368 40.507812 35.456188 40.507812 34.320312 C 40.507812 34.068101 40.716781 33.864311 40.974609 33.863281 L 40.976562 33.863281 C 41.140843 33.863982 41.283995 33.946892 41.367188 34.072266 C 41.416429 33.828936 41.443359 33.577588 41.443359 33.320312 C 41.443359 33.068093 41.234364 32.864381 40.976562 32.863281 L 40.974609 32.863281 z M 24.015625 33.353516 C 23.756863 33.353516 23.546875 33.555743 23.546875 33.808594 C 23.546875 34.065869 23.573805 34.317185 23.623047 34.560547 C 23.706616 34.435539 23.850746 34.353516 24.015625 34.353516 C 24.274356 34.353516 24.482422 34.555742 24.482422 34.808594 C 24.482422 35.947519 25.144977 36.937887 26.113281 37.431641 C 26.115205 37.43235 26.117216 37.432887 26.119141 37.433594 C 26.396992 37.535586 26.688984 37.607892 26.992188 37.646484 C 26.986721 37.670939 26.97904 37.69464 26.972656 37.71875 C 27.146273 37.74916 27.325408 37.765625 27.507812 37.765625 C 27.648904 37.765625 27.788551 37.754651 27.925781 37.736328 C 27.93071 37.709505 27.937242 37.683322 27.941406 37.65625 C 28.273502 37.620974 28.596828 37.54606 28.904297 37.433594 C 29.183386 37.291362 29.44065 37.105757 29.667969 36.878906 C 29.781163 36.765681 29.93869 36.721791 30.085938 36.748047 C 30.171994 36.675637 30.255444 36.599884 30.335938 36.519531 C 30.516939 36.339592 30.512831 36.047484 30.328125 35.871094 C 30.143488 35.694817 29.849084 35.697753 29.667969 35.878906 C 29.094047 36.45166 28.327513 36.765625 27.507812 36.765625 C 25.840111 36.765625 24.482422 35.438594 24.482422 33.808594 C 24.482422 33.555758 24.274371 33.353516 24.015625 33.353516 z M 21.042969 34.308594 C 21.014271 34.471872 20.998047 34.63936 20.998047 34.810547 C 20.998047 35.029176 21.023375 35.244951 21.072266 35.457031 C 21.077623 35.452598 21.082497 35.44776 21.087891 35.443359 C 21.244136 35.316341 21.297125 35.105333 21.220703 34.921875 C 21.137766 34.723055 21.079593 34.517456 21.042969 34.308594 z M 42.958984 34.310547 C 42.922142 34.518555 42.863302 34.72301 42.78125 34.921875 C 42.70479 35.106528 42.758837 35.316367 42.914062 35.443359 C 42.919408 35.447731 42.924377 35.452629 42.929688 35.457031 C 42.978683 35.24506 43.003906 35.029181 43.003906 34.810547 C 43.003906 34.640048 42.987492 34.473203 42.958984 34.310547 z M 38.478516 38.066406 C 38.321865 38.106243 38.16152 38.137298 37.998047 38.158203 C 38.123502 38.719602 38.492921 39.19239 38.992188 39.464844 C 39.300419 39.571447 39.63143 39.630859 39.976562 39.630859 C 40.235286 39.630859 40.445312 39.426679 40.445312 39.173828 C 40.445312 38.920982 40.235309 38.714844 39.976562 38.714844 C 39.383406 38.714844 38.84899 38.464318 38.478516 38.066406 z M 20.044922 38.208984 C 20.015842 38.373622 20 38.540965 20 38.710938 C 20 39.851629 20.664586 40.844342 21.634766 41.337891 C 22.066906 41.49704 22.534834 41.583984 23.023438 41.583984 C 23.282199 41.583984 23.492188 41.379804 23.492188 41.126953 C 23.492188 40.874091 23.282184 40.669922 23.023438 40.669922 C 21.5295 40.669922 20.287849 39.602964 20.044922 38.208984 z M 43.957031 38.210938 C 43.71339 39.604103 42.469818 40.669922 40.976562 40.669922 C 40.717801 40.669922 40.507812 40.874103 40.507812 41.126953 C 40.507812 41.379815 40.717816 41.583984 40.976562 41.583984 C 41.467233 41.583984 41.935957 41.49637 42.369141 41.335938 C 43.337174 40.841707 44 39.850086 44 38.710938 C 44 38.541754 43.985731 38.374784 43.957031 38.210938 z M 26.511719 38.554688 C 26.141252 38.9526 25.606843 39.203125 25.013672 39.203125 C 24.754952 39.203125 24.544922 39.407306 24.544922 39.660156 C 24.544922 39.913018 24.754925 40.117188 25.013672 40.117188 C 25.362181 40.117188 25.696939 40.05587 26.007812 39.947266 C 26.00977 39.946582 26.011717 39.946 26.013672 39.945312 C 26.505235 39.671602 26.867963 39.202176 26.992188 38.646484 C 26.828714 38.625676 26.668369 38.594458 26.511719 38.554688 z M 33.992188 40.179688 C 33.733468 40.179688 33.523438 40.383868 33.523438 40.636719 C 33.523438 40.88958 33.733441 41.09375 33.992188 41.09375 C 34.490874 41.09375 34.961965 41.213892 35.376953 41.423828 C 36.877387 41.972586 37.948909 43.386349 37.953125 45.041016 C 38.12521 45.011117 38.301729 44.994141 38.482422 44.994141 C 38.741153 44.994141 38.949219 44.78996 38.949219 44.537109 C 38.949219 44.284251 38.741168 44.080078 38.482422 44.080078 C 38.30249 44.080078 38.122094 44.093754 37.949219 44.117188 C 37.949219 44.09485 37.953125 44.071947 37.953125 44.050781 C 37.953125 41.91618 36.176187 40.179688 33.992188 40.179688 z M 28.505859 41.154297 C 26.323061 41.154297 24.544922 42.892742 24.544922 45.027344 C 24.544922 45.049681 24.546875 45.069498 24.546875 45.091797 C 24.372828 45.069498 24.195568 45.054688 24.015625 45.054688 C 23.756867 45.054688 23.546875 45.258868 23.546875 45.511719 C 23.546875 45.764565 23.756879 45.970703 24.015625 45.970703 C 24.195974 45.970703 24.373149 45.987835 24.544922 46.017578 C 24.549119 44.371496 25.611636 42.963561 27.099609 42.408203 C 27.519934 42.191339 27.998776 42.068359 28.505859 42.068359 C 28.764621 42.068359 28.974609 41.864179 28.974609 41.611328 C 28.974609 41.358466 28.764606 41.154297 28.505859 41.154297 z M 20.044922 42.595703 C 20.01593 42.761415 20 42.929727 20 43.101562 C 20 44.268163 20.706228 45.327606 21.798828 45.802734 C 21.882671 45.839237 21.948334 45.897978 21.996094 45.96875 C 21.998326 45.74851 22.021729 45.526074 22.066406 45.310547 C 22.109909 45.100031 21.998765 44.889777 21.798828 44.802734 C 20.863044 44.3958 20.212907 43.560102 20.044922 42.595703 z M 43.955078 42.597656 C 43.786815 43.56056 43.138074 44.396173 42.203125 44.802734 C 42.003226 44.889766 41.890091 45.100027 41.933594 45.310547 C 41.9779 45.524781 42.003186 45.745881 42.005859 45.964844 C 42.053879 45.895693 42.120716 45.838613 42.203125 45.802734 C 43.295684 45.327636 44 44.267063 44 43.101562 C 44 42.930447 43.984114 42.762713 43.955078 42.597656 z M 29.076172 43.730469 C 28.859239 43.717529 28.656324 43.856278 28.597656 44.070312 C 28.530604 44.313756 28.678399 44.564982 28.927734 44.630859 C 29.171506 44.694884 29.403146 44.783185 29.621094 44.892578 C 30.389195 45.183866 31.047464 45.671076 31.535156 46.287109 L 31.535156 45.287109 C 30.954175 44.553239 30.133123 44.000078 29.169922 43.746094 C 29.138754 43.73786 29.107162 43.732317 29.076172 43.730469 z M 36.939453 44.388672 C 35.519545 44.977837 34.521484 46.353464 34.521484 47.953125 C 34.521484 48.043914 34.549345 48.12818 34.595703 48.199219 C 34.857359 46.909349 35.777738 45.846848 36.998047 45.363281 C 37.009763 45.259798 37.015625 45.155436 37.015625 45.050781 C 37.015625 44.823369 36.989397 44.601508 36.939453 44.388672 z M 25.558594 45.363281 C 25.508266 45.576817 25.480469 45.799195 25.480469 46.027344 C 25.480469 46.131999 25.489455 46.234369 25.5 46.337891 C 26.720848 46.820742 27.641153 47.882961 27.902344 49.173828 C 27.948703 49.10279 27.976562 49.018519 27.976562 48.927734 C 27.976562 47.328073 26.978502 45.951416 25.558594 45.363281 z M 22.033203 46.498047 C 22.008377 46.66566 21.996094 46.835347 21.996094 47.003906 C 21.996094 48.556306 23.066763 49.922783 24.601562 50.326172 C 24.727402 50.359054 24.835332 50.439802 24.896484 50.552734 C 25.508084 51.689945 26.700419 52.398438 28.011719 52.398438 C 29.953419 52.398438 31.535156 50.852425 31.535156 48.953125 C 31.535156 48.783909 31.522686 48.616873 31.498047 48.453125 C 31.249236 50.116236 29.779691 51.398438 28.011719 51.398438 C 26.700419 51.398438 25.508084 50.689945 24.896484 49.552734 C 24.835332 49.439802 24.727383 49.359054 24.601562 49.326172 C 23.231976 48.966206 22.232625 47.839582 22.033203 46.498047 z M 41.96875 46.505859 C 41.766315 47.84383 40.765329 48.965813 39.398438 49.326172 C 39.272579 49.359129 39.166622 49.441012 39.105469 49.552734 C 38.493907 50.690036 37.297628 51.398438 35.986328 51.398438 C 34.043428 51.398438 32.464844 49.852425 32.464844 47.953125 L 32.464844 48.449219 C 32.464844 48.491549 32.457067 48.531497 32.445312 48.570312 C 32.457029 48.696171 32.464844 48.824939 32.464844 48.953125 C 32.464844 50.852425 34.043428 52.398438 35.986328 52.398438 C 37.297628 52.398438 38.493907 51.690036 39.105469 50.552734 C 39.166622 50.441012 39.272579 50.359129 39.398438 50.326172 C 40.933137 49.921573 42.005859 48.556302 42.005859 47.003906 C 42.005859 46.837985 41.993364 46.67093 41.96875 46.505859 z "
     transform="scale(0.26458334)" />
</svg>
