<?xml version="1.0" encoding="UTF-8" standalone="no"?>
<!-- Created with Inkscape (http://www.inkscape.org/) -->

<svg
   width="64"
   height="64"
   viewBox="0 0 16.933333 16.933334"
   version="1.1"
   id="svg5"
   inkscape:version="1.1.1 (3bf5ae0d25, 2021-09-20, custom)"
   sodipodi:docname="application-vnd.ms-word.svg"
   xmlns:inkscape="http://www.inkscape.org/namespaces/inkscape"
   xmlns:sodipodi="http://sodipodi.sourceforge.net/DTD/sodipodi-0.dtd"
   xmlns:xlink="http://www.w3.org/1999/xlink"
   xmlns="http://www.w3.org/2000/svg"
   xmlns:svg="http://www.w3.org/2000/svg">
  <sodipodi:namedview
     id="namedview7"
     pagecolor="#ffffff"
     bordercolor="#666666"
     borderopacity="1.0"
     inkscape:pageshadow="2"
     inkscape:pageopacity="0.0"
     inkscape:pagecheckerboard="0"
     inkscape:document-units="px"
     showgrid="false"
     units="px"
     height="64px"
     inkscape:zoom="8.905126"
     inkscape:cx="8.9835899"
     inkscape:cy="33.52002"
     inkscape:window-width="1920"
     inkscape:window-height="1019"
     inkscape:window-x="0"
     inkscape:window-y="0"
     inkscape:window-maximized="1"
     inkscape:current-layer="svg5" />
  <defs
     id="defs2">
    <linearGradient
       inkscape:collect="always"
       id="linearGradient2401">
      <stop
         style="stop-color:#0a6ce1;stop-opacity:1"
         offset="0"
         id="stop2397" />
      <stop
         style="stop-color:#348cf5;stop-opacity:1"
         offset="1"
         id="stop2399" />
    </linearGradient>
    <linearGradient
       inkscape:collect="always"
       id="linearGradient10453">
      <stop
         style="stop-color:#666666;stop-opacity:1"
         offset="0"
         id="stop10449" />
      <stop
         style="stop-color:#666666;stop-opacity:0"
         offset="1"
         id="stop10451" />
    </linearGradient>
    <linearGradient
       inkscape:collect="always"
       id="linearGradient6263">
      <stop
         style="stop-color:#000000;stop-opacity:1;"
         offset="0"
         id="stop6259" />
      <stop
         style="stop-color:#000000;stop-opacity:0;"
         offset="1"
         id="stop6261" />
    </linearGradient>
    <linearGradient
       inkscape:collect="always"
       id="linearGradient3378">
      <stop
         style="stop-color:#b0b0b0;stop-opacity:1"
         offset="0"
         id="stop3374" />
      <stop
         style="stop-color:#fcfcfc;stop-opacity:1"
         offset="1"
         id="stop3376" />
    </linearGradient>
    <linearGradient
       inkscape:collect="always"
       xlink:href="#linearGradient3378"
       id="linearGradient3380"
       x1="14.942825"
       y1="1.1138821"
       x2="11.503234"
       y2="4.3115072"
       gradientUnits="userSpaceOnUse"
       gradientTransform="translate(-0.5291663,-0.52916667)" />
    <linearGradient
       inkscape:collect="always"
       xlink:href="#linearGradient6263"
       id="linearGradient6265"
       x1="11.90625"
       y1="2.3812501"
       x2="12.170834"
       y2="7.1437502"
       gradientUnits="userSpaceOnUse"
       gradientTransform="translate(-0.52916663,0.52916673)" />
    <linearGradient
       inkscape:collect="always"
       xlink:href="#linearGradient10453"
       id="linearGradient10455"
       x1="10"
       y1="72.5"
       x2="58"
       y2="32.5"
       gradientUnits="userSpaceOnUse" />
    <linearGradient
       inkscape:collect="always"
       xlink:href="#linearGradient2401"
       id="linearGradient2403"
       x1="15.875"
       y1="16.933334"
       x2="1.0583346"
       y2="1.0583338"
       gradientUnits="userSpaceOnUse" />
  </defs>
  <path
     id="rect1068"
     style="fill:url(#linearGradient2403);fill-opacity:1;stroke-width:0.529167;stroke-linejoin:round"
     d="m 3.175,0.5291667 7.143751,3e-8 3.968749,3.96874997 1e-6,11.3770833 c 0,0.293158 -0.236009,0.529167 -0.529167,0.529167 H 3.175 c -0.2931584,0 -0.5291667,-0.236009 -0.5291667,-0.529167 V 1.0583334 c 0,-0.29315835 0.2360083,-0.5291667 0.5291667,-0.5291667 z"
     sodipodi:nodetypes="cccsssssc" />
  <path
     id="rect9905"
     style="opacity:0.3;fill:url(#linearGradient10455);fill-opacity:1;stroke-width:2;stroke-linejoin:round"
     d="M 10 59 L 10 60 C 10 61.108 10.892 62 12 62 L 52 62 C 53.108 62 54 61.108 54 60 L 54 59 C 54 60.108 53.108 61 52 61 L 12 61 C 10.892 61 10 60.108 10 59 z "
     transform="scale(0.26458334)" />
  <path
     id="rect5598"
     style="opacity:0.2;fill:url(#linearGradient6265);fill-opacity:1;stroke-width:0.529167;stroke-linejoin:round"
     d="M 10.444901,4.3115072 10.31875,3.4395834 14.2875,4.4979167 v 3.7041668 z"
     sodipodi:nodetypes="ccccc" />
  <path
     id="rect2607"
     style="fill:url(#linearGradient3380);fill-opacity:1;stroke-width:0.529167;stroke-linejoin:round"
     d="m 14.2875,4.4979167 -3.439583,-1e-7 c -0.293158,0 -0.529166,-0.2360083 -0.529166,-0.5291667 V 0.52916673 Z"
     sodipodi:nodetypes="csscc" />
  <path
     d="M 9.0071836,6.3500001 C 7.7169588,6.5797645 6.317686,6.8846204 5.0274612,7.1101747 c 0,1.9626377 -8.5e-4,3.9261753 0,5.8897133 1.2835247,0.224715 2.6760974,0.52448 3.957022,0.758455 z M 8.4861206,8.7496462 7.8917092,11.244795 7.4038198,11.206325 C 7.2918877,10.649173 7.1614852,10.095402 7.0613333,9.5356913 6.9628613,10.079382 6.8348289,10.618012 6.7220467,11.158323 6.5604536,11.149923 6.3981205,11.139803 6.2356874,11.128863 6.0959747,10.388229 5.9318016,9.6526345 5.8013591,8.9103203 c 0.1439227,-0.0067 0.2886855,-0.01258 0.4326083,-0.01763 0.086682,0.5361203 0.1851235,1.0697206 0.260875,1.6066307 C 6.6135147,9.9489006 6.734787,9.3985 6.8526193,8.8480895 c 0.159913,-0.0093 0.3197961,-0.01599 0.4796992,-0.024411 0.1119321,0.5681009 0.2263443,1.1352218 0.3475366,1.7008325 0.095102,-0.5840911 0.2003339,-1.1664222 0.3021758,-1.7496334 0.1683233,-0.0059 0.3366265,-0.01517 0.5041097,-0.02527 z"
     enable-background="new"
     id="path10"
     sodipodi:nodetypes="cccccccccccccccccccc"
     style="fill:#ffffff;fill-opacity:1;stroke-width:1.00002" />
  <path
     d="M 9.2605075,7.4083204 H 11.906359 V 12.700023 H 9.2605075 v -0.52917 H 11.377148 V 11.906267 H 9.2605075 v -0.52917 H 11.377148 V 11.112512 H 9.2605075 v -0.52917 H 11.377148 V 10.318756 H 9.2605075 V 9.7895861 H 11.377148 V 9.5250011 H 9.2605075 V 8.9967609 H 11.377148 V 8.7312558 H 9.2605075 V 8.2020857 H 11.377148 V 7.9375006 H 9.2605075 Z"
     enable-background="new"
     id="path12"
     style="fill:#ffffff;fill-opacity:1;stroke-width:1.00002" />
</svg>
