<?xml version="1.0" encoding="UTF-8" standalone="no"?>
<!-- Created with Inkscape (http://www.inkscape.org/) -->

<svg
   width="64"
   height="64"
   viewBox="0 0 16.933333 16.933334"
   version="1.1"
   id="svg5"
   inkscape:version="1.1.1 (3bf5ae0d25, 2021-09-20, custom)"
   sodipodi:docname="application-x-deb.svg"
   xmlns:inkscape="http://www.inkscape.org/namespaces/inkscape"
   xmlns:sodipodi="http://sodipodi.sourceforge.net/DTD/sodipodi-0.dtd"
   xmlns:xlink="http://www.w3.org/1999/xlink"
   xmlns="http://www.w3.org/2000/svg"
   xmlns:svg="http://www.w3.org/2000/svg">
  <sodipodi:namedview
     id="namedview7"
     pagecolor="#ffffff"
     bordercolor="#666666"
     borderopacity="1.0"
     inkscape:pageshadow="2"
     inkscape:pageopacity="0.0"
     inkscape:pagecheckerboard="0"
     inkscape:document-units="px"
     showgrid="false"
     units="px"
     height="64px"
     inkscape:zoom="2.8284271"
     inkscape:cx="-35.708892"
     inkscape:cy="16.263456"
     inkscape:window-width="1920"
     inkscape:window-height="1011"
     inkscape:window-x="0"
     inkscape:window-y="0"
     inkscape:window-maximized="1"
     inkscape:current-layer="svg5" />
  <defs
     id="defs2">
    <linearGradient
       inkscape:collect="always"
       id="linearGradient12875">
      <stop
         style="stop-color:#e75480;stop-opacity:1"
         offset="0"
         id="stop12871" />
      <stop
         style="stop-color:#ff95bd;stop-opacity:1"
         offset="1"
         id="stop12873" />
    </linearGradient>
    <linearGradient
       inkscape:collect="always"
       id="linearGradient10453">
      <stop
         style="stop-color:#666666;stop-opacity:1"
         offset="0"
         id="stop10449" />
      <stop
         style="stop-color:#666666;stop-opacity:0"
         offset="1"
         id="stop10451" />
    </linearGradient>
    <linearGradient
       inkscape:collect="always"
       id="linearGradient6263">
      <stop
         style="stop-color:#000000;stop-opacity:1;"
         offset="0"
         id="stop6259" />
      <stop
         style="stop-color:#000000;stop-opacity:0;"
         offset="1"
         id="stop6261" />
    </linearGradient>
    <linearGradient
       inkscape:collect="always"
       id="linearGradient3378">
      <stop
         style="stop-color:#b0b0b0;stop-opacity:1"
         offset="0"
         id="stop3374" />
      <stop
         style="stop-color:#fcfcfc;stop-opacity:1"
         offset="1"
         id="stop3376" />
    </linearGradient>
    <linearGradient
       inkscape:collect="always"
       xlink:href="#linearGradient3378"
       id="linearGradient3380"
       x1="13.884492"
       y1="2.1722155"
       x2="10.974068"
       y2="4.8406739"
       gradientUnits="userSpaceOnUse"
       gradientTransform="translate(-0.5291663,-0.52916667)" />
    <linearGradient
       inkscape:collect="always"
       xlink:href="#linearGradient6263"
       id="linearGradient6265"
       x1="11.90625"
       y1="2.3812501"
       x2="12.170834"
       y2="7.1437502"
       gradientUnits="userSpaceOnUse"
       gradientTransform="translate(-0.52916663,0.52916673)" />
    <linearGradient
       inkscape:collect="always"
       xlink:href="#linearGradient10453"
       id="linearGradient10455"
       x1="10"
       y1="72.5"
       x2="58"
       y2="32.5"
       gradientUnits="userSpaceOnUse" />
    <linearGradient
       inkscape:collect="always"
       xlink:href="#linearGradient12875"
       id="linearGradient12877"
       x1="13.229167"
       y1="15.875001"
       x2="4.2333345"
       y2="1.5875003"
       gradientUnits="userSpaceOnUse" />
  </defs>
  <path
     id="rect1068"
     style="fill:url(#linearGradient12877);fill-opacity:1;stroke-width:0.529167;stroke-linejoin:round"
     d="m 3.175,0.5291667 7.143751,3e-8 3.968749,3.96874997 1e-6,11.3770833 c 0,0.293158 -0.236009,0.529167 -0.529167,0.529167 H 3.175 c -0.2931584,0 -0.5291667,-0.236009 -0.5291667,-0.529167 V 1.0583334 c 0,-0.29315835 0.2360083,-0.5291667 0.5291667,-0.5291667 z"
     sodipodi:nodetypes="cccsssssc" />
  <path
     id="path13465"
     style="stroke-width:3.66401;fill:#ffffff;opacity:0.4"
     d="M 19.685547 34.453125 C 19.392434 34.453125 17.812722 35.075477 17.765625 35.207031 L 17.765625 35.210938 C 17.703308 35.390544 17.911698 35.36522 18.703125 35.097656 C 19.413959 34.855674 20.029949 34.453125 19.685547 34.453125 z M 33.007812 34.808594 C 32.923521 34.824748 32.851182 35.184795 32.839844 35.800781 L 32.835938 35.796875 C 32.824882 36.507528 32.854819 36.722087 32.953125 36.644531 C 33.135612 36.50159 33.257667 35.649909 33.162109 35.169922 C 33.112669 34.911621 33.058387 34.798901 33.007812 34.808594 z M 27.164062 35.027344 C 26.85673 35.041094 26.511702 35.12295 26.246094 35.269531 C 25.806481 35.514188 25.806351 35.514955 24.619141 35.328125 C 23.966957 35.22562 22.802445 35.108668 22.029297 35.068359 C 20.809192 35.00546 20.625 35.019491 20.625 35.166016 C 20.625 35.283291 20.438919 35.374744 20.046875 35.455078 C 19.728088 35.521114 19.258428 35.678067 19.001953 35.802734 C 18.745346 35.927308 18.50812 36.006545 18.470703 35.96875 C 18.43747 35.938363 18.481117 35.902344 18.568359 35.902344 C 18.700201 35.898205 18.701509 35.878704 18.558594 35.783203 C 18.41527 35.691844 18.426639 35.657227 18.617188 35.693359 C 18.895679 35.719015 19.246094 35.583019 19.246094 35.447266 C 19.246094 35.322862 18.630156 35.307686 18.234375 35.410156 C 18.07624 35.450495 17.993278 35.534406 18.029297 35.623047 C 18.069599 35.721492 17.953487 35.790809 17.664062 35.837891 C 17.429471 35.874363 17.055846 35.949241 16.835938 36 C 16.447493 36.090973 16.444228 36.086776 16.693359 35.921875 C 16.832121 35.826434 16.949219 35.709402 16.949219 35.654297 C 16.949219 35.471082 16.593381 35.558804 15.791016 35.947266 C 15.347597 36.159297 14.896512 36.313627 14.787109 36.277344 C 14.46415 36.178663 11.554004 38.51826 10 40.035156 L 10 46.597656 C 10.473915 46.019056 10.925575 45.593993 11.279297 45.429688 C 11.722717 45.22444 12.019531 44.871664 12.019531 44.556641 C 12.019531 44.469069 11.938168 44.469576 11.839844 44.505859 C 11.700126 44.560814 11.710842 44.50967 11.886719 44.271484 C 12.33374 43.677925 12.893127 43.264105 13.757812 42.886719 C 14.270751 42.663145 14.693119 42.398763 14.773438 42.255859 C 14.897519 42.032376 14.8871 42.014439 14.65625 42.072266 C 14.51708 42.109305 14.421174 42.145658 14.443359 42.109375 L 15.380859 41.289062 C 16.197934 40.567294 17.467045 39.757765 17.085938 40.201172 C 17.001529 40.299931 16.982605 40.398508 17.044922 40.435547 C 17.103641 40.468845 17.213467 40.42516 17.291016 40.337891 C 17.459563 40.143744 18.455764 39.688216 19.470703 39.34375 C 21.548204 38.640304 24.461257 38.468937 26.179688 38.945312 C 28.198556 39.5059 30.33481 40.77258 32.03125 42.414062 C 33.211064 43.553575 33.965467 44.603254 34.396484 45.691406 A 2.4695477 2.4695477 0 0 0 34.726562 46.335938 C 34.902435 46.442199 35.658772 49.45391 35.736328 50.351562 C 35.79132 51.029398 35.850864 51.234375 35.982422 51.234375 C 36.125054 51.234375 36.148494 51.394821 36.115234 52.167969 C 36.078533 53.036391 36.048949 53.132647 35.726562 53.455078 C 35.393121 53.788553 35.381687 53.83127 35.455078 54.498047 L 35.533203 55.195312 L 34.835938 56.253906 C 34.213043 57.199234 33.0105 58.672996 33.523438 57.863281 C 33.677143 57.614286 33.684292 57.558594 33.552734 57.558594 C 33.461062 57.558594 33.167811 57.881368 32.900391 58.273438 C 32.416712 58.980602 32.002726 59.349646 31.335938 59.675781 C 31.145523 59.767363 30.707519 59.994819 30.359375 60.181641 C 29.491006 60.643355 28.544101 60.859375 27.378906 60.859375 C 25.132858 60.859375 22.762491 59.782862 21.296875 58.09375 C 20.688646 57.390255 19.810547 55.822054 19.810547 55.433594 C 19.810547 55.320321 19.754818 55.24692 19.652344 55.283203 C 19.531452 55.327242 19.462734 55.144381 19.367188 54.521484 A 5.4080896 5.4080896 0 0 1 19.421875 52.041016 C 19.744318 50.410535 20.648818 49.142108 22.279297 48.042969 C 23.429796 47.266287 24.218156 47.052734 25.833984 47.052734 C 26.984497 47.060104 27.310812 47.10121 27.816406 47.302734 A 3.7043216 3.7043216 0 0 0 28.560547 47.541016 C 28.882977 47.533672 27.819227 46.859541 26.976562 46.537109 C 26.232689 46.251252 25.853028 46.177009 24.958984 46.136719 C 23.108664 46.056105 21.682785 46.602523 20.3125 47.917969 C 19.535737 48.661776 18.777344 49.816026 18.777344 50.251953 A 1.487591 1.487591 0 0 1 18.542969 50.798828 C 18.033417 51.590254 17.737142 54.107133 18.015625 55.253906 C 18.774079 58.386639 20.300817 60.028431 23.964844 61.669922 C 24.244425 61.794234 24.47388 61.904759 24.652344 62 L 29.890625 62 A 11.981337 11.981337 0 0 0 30.886719 61.683594 A 10.706259 10.706259 0 0 0 36.5 56.953125 C 36.976374 56.13231 37.130859 55.992696 37.130859 56.384766 C 37.130859 56.696637 37.403858 56.593398 37.455078 56.263672 C 37.477245 56.120806 37.434715 55.827164 37.361328 55.607422 A 1.260422 1.260422 0 0 1 37.357422 54.740234 C 37.478321 54.307516 37.507732 54.28284 37.683594 54.425781 C 38.116212 54.777542 38.162991 54.758314 38.09375 54.263672 A 5.4374018 5.4374018 0 0 1 38.210938 52.871094 A 12.333082 12.333082 0 0 0 38.412109 51.273438 L 38.431641 50.599609 L 38.498047 51.234375 C 38.567741 51.886646 38.763596 52.099192 38.830078 51.589844 C 38.866664 51.318738 38.738842 50.625492 38.570312 50.160156 C 38.489204 49.9513 38.49207 49.9513 38.667969 50.160156 C 38.947011 50.486299 38.987401 50.314987 38.796875 49.615234 C 38.672075 49.153565 38.648006 48.716206 38.699219 48.056641 C 38.772466 47.162745 38.71358 46.990967 38.427734 47.265625 C 38.244537 47.437903 37.911602 46.775255 37.896484 46.210938 C 37.889145 45.903235 37.815505 45.708633 37.654297 45.583984 A 2.3596273 2.3596273 0 0 1 37.201172 45.037109 L 36.976562 44.671875 L 37.302734 44.917969 C 37.482213 45.053616 37.652576 45.147612 37.681641 45.111328 C 37.710864 45.08568 37.581334 44.798994 37.394531 44.476562 C 37.207718 44.154203 36.988769 43.718496 36.904297 43.505859 C 36.647826 42.853131 36.087269 42.396122 35.966797 42.744141 C 35.944766 42.806461 35.813009 42.644948 35.673828 42.384766 L 35.419922 41.908203 L 35.675781 41.871094 A 0.67784326 0.67784326 0 0 0 36.060547 41.677734 C 36.166764 41.545727 36.303633 41.651729 36.820312 42.263672 A 27.033121 27.033121 0 0 1 38.230469 44.162109 C 38.659071 44.795913 39.028231 45.258656 39.054688 45.189453 C 39.109665 45.028234 38.87634 44.587098 38.041016 43.275391 C 37.670991 42.696378 37.365234 42.16328 37.365234 42.089844 A 1.6488078 1.6488078 0 0 0 37.179688 41.605469 L 36.992188 41.253906 L 37.238281 41.462891 C 37.66704 41.829172 37.64186 41.557721 37.1875 40.953125 A 15.132392 15.132392 0 0 0 29.541016 35.582031 C 28.562774 35.259093 28.309619 35.251759 28.5625 35.544922 C 28.694341 35.702555 28.672472 35.702555 28.357422 35.544922 A 1.9089531 1.9089531 0 0 1 27.855469 35.197266 C 27.741891 35.069102 27.471395 35.013594 27.164062 35.027344 z M 21.40625 35.472656 C 21.446026 35.473178 21.481291 35.483887 21.5 35.501953 L 21.5 35.509766 C 21.536559 35.53146 21.470089 35.568359 21.349609 35.568359 C 21.213905 35.564277 21.187893 35.539106 21.279297 35.501953 C 21.321391 35.481799 21.366474 35.472134 21.40625 35.472656 z M 22.533203 35.570312 A 3.8288984 3.8288984 0 0 1 22.990234 35.597656 L 22.994141 35.597656 C 23.228729 35.605525 23.009511 35.640625 22.503906 35.640625 C 21.997614 35.640625 21.803072 35.633789 22.074219 35.597656 A 3.8288984 3.8288984 0 0 1 22.533203 35.570312 z M 23.931641 35.683594 A 0.75112357 0.75112357 0 0 1 24.134766 35.710938 C 24.244723 35.726086 24.151409 35.761719 23.931641 35.761719 C 23.712084 35.761719 23.62107 35.74809 23.730469 35.710938 A 0.75112357 0.75112357 0 0 1 23.931641 35.683594 z M 21.037109 35.736328 C 21.109489 35.731637 21.146155 35.753593 21.119141 35.794922 C 21.082449 35.846108 20.980076 35.892578 20.888672 35.892578 C 20.654628 35.892578 20.687665 35.819222 20.955078 35.75 C 20.986277 35.742637 21.012983 35.737892 21.037109 35.736328 z M 24.726562 35.802734 C 24.766495 35.803261 24.80035 35.813984 24.818359 35.832031 L 24.818359 35.839844 C 24.854919 35.860631 24.788449 35.898438 24.667969 35.898438 C 24.532261 35.894356 24.508205 35.869071 24.599609 35.832031 C 24.64164 35.811877 24.68663 35.802208 24.726562 35.802734 z M 20.261719 35.923828 L 20.664062 35.923828 L 20.207031 36.003906 L 20.203125 36.011719 C 19.950395 36.05575 19.640259 36.125966 19.515625 36.169922 C 19.36856 36.224196 19.385451 36.18942 19.572266 36.080078 A 1.6304877 1.6304877 0 0 1 20.261719 35.923828 z M 17.337891 36.365234 C 17.351234 36.365563 17.359988 36.368511 17.363281 36.373047 C 17.389038 36.395006 17.044986 36.530722 16.601562 36.669922 C 16.048325 36.849903 15.754147 36.890056 15.673828 36.8125 C 15.593231 36.738761 15.377367 36.758126 15 36.882812 L 15 36.878906 C 14.695756 36.977779 14.296798 37.145584 14.117188 37.248047 L 13.787109 37.439453 L 14.095703 37.201172 C 14.542766 36.853115 15.587863 36.518971 15.697266 36.6875 C 15.759583 36.786599 15.971922 36.761041 16.550781 36.574219 C 16.919508 36.458471 17.244484 36.362934 17.337891 36.365234 z M 18.841797 36.382812 C 18.853504 36.383226 18.861773 36.385466 18.865234 36.388672 C 18.890848 36.414297 18.638151 36.507969 18.304688 36.603516 C 17.637851 36.790791 17.626953 36.795186 17.626953 36.728516 C 17.626953 36.666579 18.666191 36.376616 18.841797 36.382812 z M 13.707031 37.435547 C 13.739985 37.435547 13.6702 37.535796 13.556641 37.65625 C 13.443085 37.777648 13.326266 37.875 13.292969 37.875 C 13.260015 37.875 13.3298 37.776704 13.443359 37.65625 C 13.556915 37.534814 13.673734 37.435547 13.707031 37.435547 z M 12.353516 38.537109 C 12.359517 38.543057 12.323411 38.587768 12.251953 38.673828 L 12.251953 38.669922 C 12.101974 38.860864 12.005859 38.912849 12.005859 38.824219 A 0.76211561 0.76211561 0 0 1 12.208984 38.632812 C 12.30071 38.56325 12.347514 38.531161 12.353516 38.537109 z M 30.751953 50.207031 C 30.662477 50.211353 30.585848 50.299499 30.541016 50.472656 C 30.489765 50.666807 30.545146 50.849262 30.724609 51.080078 C 31.156794 51.644252 31.426683 51.306222 31.115234 50.591797 C 31.001896 50.332342 30.866993 50.201475 30.751953 50.207031 z M 38.318359 50.240234 C 38.328628 50.241863 38.342004 50.260243 38.355469 50.292969 L 38.351562 50.289062 C 38.388677 50.370133 38.379656 50.46567 38.34375 50.501953 C 38.307882 50.542205 38.281471 50.477069 38.285156 50.359375 C 38.289479 50.278588 38.301246 50.23752 38.318359 50.240234 z M 31.039062 53.125 C 30.986255 53.154403 30.919602 53.377505 30.880859 53.666016 A 1.7843764 1.7843764 0 0 1 30.574219 54.521484 L 30.34375 54.769531 L 30.394531 54.494141 A 14.729349 14.729349 0 0 1 30.529297 53.861328 C 30.657531 53.315398 30.430541 53.431884 30.207031 54.025391 C 29.946951 54.717936 29.961685 54.920524 30.269531 55.041016 L 30.273438 55.037109 C 30.779028 55.234884 30.899464 55.173411 31.035156 54.664062 C 31.190276 54.081539 31.20347 53.209548 31.060547 53.125 C 31.053677 53.120876 31.046606 53.1208 31.039062 53.125 z M 28.845703 56.533203 A 1.7587283 1.7587283 0 0 0 28.287109 56.712891 C 28.005019 56.83376 27.529026 56.982333 27.228516 57.044922 C 26.705048 57.151142 26.50738 57.383164 26.826172 57.507812 L 26.830078 57.503906 C 26.907074 57.530212 27.255508 57.566406 27.603516 57.566406 C 28.230013 57.573735 28.236376 57.57247 28.5625 57.074219 C 28.742103 56.799489 28.872046 56.570998 28.845703 56.533203 z M 19.560547 59.013672 C 19.315153 59.013672 19.508972 59.328068 20.117188 59.917969 L 20.113281 59.917969 C 20.475973 60.269756 20.784668 60.556641 20.802734 60.556641 C 20.820801 60.556641 20.835938 60.493572 20.835938 60.416016 C 20.835938 60.254755 19.70706 59.013672 19.560547 59.013672 z M 19.208984 60.113281 C 19.16188 60.113281 19.121094 60.251393 19.121094 60.419922 C 19.121094 60.734983 19.553863 61.152715 20.722656 61.955078 L 20.71875 61.958984 C 20.742496 61.974399 20.762332 61.985692 20.785156 62 L 21.154297 62 C 20.737492 61.485659 19.347675 60.113281 19.208984 60.113281 z M 20.386719 60.601562 C 20.370652 60.599873 20.358485 60.600933 20.351562 60.605469 C 20.139365 60.732786 21.089016 61.43506 22.119141 62 L 23.869141 62 C 23.236318 61.768795 22.598969 61.486411 22.341797 61.310547 C 21.946143 61.03861 21.873047 61.027989 21.873047 61.244141 C 21.873047 61.35787 21.660372 61.280663 21.162109 60.976562 C 20.822343 60.771556 20.499186 60.613389 20.386719 60.601562 z M 21.9375 61.416016 L 22.251953 61.599609 C 22.424088 61.701997 22.566406 61.789888 22.566406 61.826172 C 22.566406 61.914159 22.470842 61.86232 22.207031 61.642578 L 21.9375 61.416016 z "
     transform="scale(0.26458334)" />
  <path
     id="rect5598"
     style="opacity:0.3;fill:url(#linearGradient6265);fill-opacity:1;stroke-width:0.529167;stroke-linejoin:round"
     d="M 10.444901,4.3115072 10.31875,3.4395834 14.2875,4.4979167 v 3.7041668 z"
     sodipodi:nodetypes="ccccc" />
  <path
     id="rect2607"
     style="fill:url(#linearGradient3380);fill-opacity:1;stroke-width:0.529167;stroke-linejoin:round"
     d="m 14.2875,4.4979167 -3.439583,-1e-7 c -0.293158,0 -0.529166,-0.2360083 -0.529166,-0.5291667 V 0.52916673 Z"
     sodipodi:nodetypes="csscc" />
  <path
     id="rect11027"
     style="opacity:0.6;fill:#fefefe;fill-opacity:1;stroke-width:0.703438;stroke-linejoin:round"
     d="m 24,2 v 2 h 2 V 2 Z m 0,2 h -2 v 2 h 2 z m 0,2 v 2 h 2 V 6 Z m 0,2 h -2 v 2 h 2 z m 0,2 v 2 h 2 v -2 z m 0,2 h -2 v 2 h 2 z m 0,2 v 2 h 2 v -2 z m 0,2 h -2 v 2 h 2 z m 0,2 v 2 h 2 v -2 z m 0,2 h -2 v 2 h 2 z m 0,2 v 2 h 2 v -2 z m -2,3 v 5 c 0,0.554 0.446,1 1,1 h 2 c 0.554,0 1,-0.446 1,-1 v -5 z m 1,3 h 2 v 2 h -2 z"
     transform="scale(0.26458334)" />
  <path
     id="rect9905"
     style="opacity:0.3;fill:url(#linearGradient10455);fill-opacity:1;stroke-width:2;stroke-linejoin:round"
     d="M 10 59 L 10 60 C 10 61.108 10.892 62 12 62 L 52 62 C 53.108 62 54 61.108 54 60 L 54 59 C 54 60.108 53.108 61 52 61 L 12 61 C 10.892 61 10 60.108 10 59 z "
     transform="scale(0.26458334)" />
</svg>
