<?xml version="1.0" encoding="UTF-8" standalone="no"?>
<!-- Created with Inkscape (http://www.inkscape.org/) -->

<svg
   width="64"
   height="64"
   viewBox="0 0 16.933333 16.933334"
   version="1.1"
   id="svg5"
   inkscape:version="1.1.1 (3bf5ae0d25, 2021-09-20, custom)"
   sodipodi:docname="application-pdf.svg"
   xmlns:inkscape="http://www.inkscape.org/namespaces/inkscape"
   xmlns:sodipodi="http://sodipodi.sourceforge.net/DTD/sodipodi-0.dtd"
   xmlns:xlink="http://www.w3.org/1999/xlink"
   xmlns="http://www.w3.org/2000/svg"
   xmlns:svg="http://www.w3.org/2000/svg">
  <sodipodi:namedview
     id="namedview7"
     pagecolor="#ffffff"
     bordercolor="#666666"
     borderopacity="1.0"
     inkscape:pageshadow="2"
     inkscape:pageopacity="0.0"
     inkscape:pagecheckerboard="0"
     inkscape:document-units="px"
     showgrid="false"
     units="px"
     height="64px"
     inkscape:zoom="6.296875"
     inkscape:cx="6.8287841"
     inkscape:cy="61.459057"
     inkscape:window-width="1920"
     inkscape:window-height="1011"
     inkscape:window-x="0"
     inkscape:window-y="0"
     inkscape:window-maximized="1"
     inkscape:current-layer="svg5" />
  <defs
     id="defs2">
    <linearGradient
       inkscape:collect="always"
       id="linearGradient2507">
      <stop
         style="stop-color:#c32900;stop-opacity:1;"
         offset="0"
         id="stop2503" />
      <stop
         style="stop-color:#f53c00;stop-opacity:1"
         offset="1"
         id="stop2505" />
    </linearGradient>
    <linearGradient
       inkscape:collect="always"
       id="linearGradient2163">
      <stop
         style="stop-color:#ffffff;stop-opacity:1;"
         offset="0"
         id="stop2159" />
      <stop
         style="stop-color:#ffb5a4;stop-opacity:1"
         offset="1"
         id="stop2161" />
    </linearGradient>
    <linearGradient
       inkscape:collect="always"
       id="linearGradient10453">
      <stop
         style="stop-color:#666666;stop-opacity:1"
         offset="0"
         id="stop10449" />
      <stop
         style="stop-color:#666666;stop-opacity:0"
         offset="1"
         id="stop10451" />
    </linearGradient>
    <linearGradient
       inkscape:collect="always"
       id="linearGradient6263">
      <stop
         style="stop-color:#000000;stop-opacity:1;"
         offset="0"
         id="stop6259" />
      <stop
         style="stop-color:#000000;stop-opacity:0;"
         offset="1"
         id="stop6261" />
    </linearGradient>
    <linearGradient
       inkscape:collect="always"
       id="linearGradient3378">
      <stop
         style="stop-color:#b0b0b0;stop-opacity:1"
         offset="0"
         id="stop3374" />
      <stop
         style="stop-color:#fcfcfc;stop-opacity:1"
         offset="1"
         id="stop3376" />
    </linearGradient>
    <linearGradient
       inkscape:collect="always"
       xlink:href="#linearGradient3378"
       id="linearGradient3380"
       x1="14.942825"
       y1="1.1138821"
       x2="11.503234"
       y2="4.3115072"
       gradientUnits="userSpaceOnUse"
       gradientTransform="translate(-0.5291663,-0.52916667)" />
    <linearGradient
       inkscape:collect="always"
       xlink:href="#linearGradient6263"
       id="linearGradient6265"
       x1="11.90625"
       y1="2.3812501"
       x2="12.170834"
       y2="7.1437502"
       gradientUnits="userSpaceOnUse"
       gradientTransform="translate(-0.52916663,0.52916673)" />
    <linearGradient
       inkscape:collect="always"
       xlink:href="#linearGradient10453"
       id="linearGradient10455"
       x1="10"
       y1="72.5"
       x2="58"
       y2="32.5"
       gradientUnits="userSpaceOnUse" />
    <linearGradient
       inkscape:collect="always"
       xlink:href="#linearGradient6263"
       id="linearGradient1725"
       x1="13.999271"
       y1="60.684574"
       x2="52.000584"
       y2="22.684574"
       gradientUnits="userSpaceOnUse" />
    <linearGradient
       inkscape:collect="always"
       xlink:href="#linearGradient2163"
       id="linearGradient2165"
       x1="8.4666662"
       y1="5.7374763"
       x2="8.4666662"
       y2="12.087477"
       gradientUnits="userSpaceOnUse" />
    <linearGradient
       inkscape:collect="always"
       xlink:href="#linearGradient2507"
       id="linearGradient2509"
       x1="14.2875"
       y1="16.404167"
       x2="3.7041678"
       y2="2.116667"
       gradientUnits="userSpaceOnUse" />
  </defs>
  <path
     id="rect1068"
     style="fill:url(#linearGradient2509);fill-opacity:1;stroke-width:0.529167;stroke-linejoin:round"
     d="m 3.175,0.5291667 7.143751,3e-8 3.968749,3.96874997 1e-6,11.3770833 c 0,0.293158 -0.236009,0.529167 -0.529167,0.529167 H 3.175 c -0.2931584,0 -0.5291667,-0.236009 -0.5291667,-0.529167 V 1.0583334 c 0,-0.29315835 0.2360083,-0.5291667 0.5291667,-0.5291667 z"
     sodipodi:nodetypes="cccsssssc" />
  <path
     id="rect9905"
     style="opacity:0.3;fill:url(#linearGradient10455);fill-opacity:1;stroke-width:2;stroke-linejoin:round"
     d="M 10 59 L 10 60 C 10 61.108 10.892 62 12 62 L 52 62 C 53.108 62 54 61.108 54 60 L 54 59 C 54 60.108 53.108 61 52 61 L 12 61 C 10.892 61 10 60.108 10 59 z "
     transform="scale(0.26458334)" />
  <path
     id="rect5598"
     style="opacity:0.2;fill:url(#linearGradient6265);fill-opacity:1;stroke-width:0.529167;stroke-linejoin:round"
     d="M 10.444901,4.3115072 10.31875,3.4395834 14.2875,4.4979167 v 3.7041668 z"
     sodipodi:nodetypes="ccccc" />
  <path
     id="rect2607"
     style="fill:url(#linearGradient3380);fill-opacity:1;stroke-width:0.529167;stroke-linejoin:round"
     d="m 14.2875,4.4979167 -3.439583,-1e-7 c -0.293158,0 -0.529166,-0.2360083 -0.529166,-0.5291667 V 0.52916673 Z"
     sodipodi:nodetypes="csscc" />
  <path
     id="path22-3"
     style="stroke-width:0.855315;fill:url(#linearGradient1725);fill-opacity:1;opacity:0.3"
     d="M 30.292969 25 C 30.243355 25 30.193453 25.002166 30.144531 25.005859 C 30.049193 25.577758 30.019531 26.260384 30.019531 26.623047 C 30.019531 26.79252 30.022918 26.968107 30.03125 27.150391 C 30.048682 26.769149 30.086258 26.306075 30.160156 25.90625 C 30.212816 25.485637 30.367312 25.265738 30.525391 25.160156 C 30.838483 25.236193 31.187111 25.714659 31.552734 26.517578 C 31.741252 26.934185 31.809154 27.390813 31.833984 27.796875 C 31.835422 27.791219 31.857422 27.705078 31.857422 27.705078 C 31.857422 27.705078 31.846663 27.89014 31.841797 27.984375 C 31.848296 28.181014 31.847656 28.364118 31.847656 28.515625 C 31.847656 28.515625 32.185431 27.280912 32.107422 26.552734 C 32.101792 26.500655 32.090499 26.43956 32.074219 26.371094 C 31.998094 26.957499 31.847656 27.515625 31.847656 27.515625 C 31.847656 27.017971 31.866738 26.211488 31.552734 25.517578 C 31.50981 25.423316 31.466255 25.33521 31.423828 25.25 C 31.241091 25.101121 31.022443 25.001825 30.759766 25.005859 L 30.6875 25.005859 L 30.292969 25 z M 28.707031 27.101562 C 28.608477 28.918371 29.086113 31.323826 29.816406 34.171875 L 29.976562 33.785156 C 29.290016 31.172583 28.789001 28.911539 28.707031 27.101562 z M 31.857422 28.705078 C 31.857422 28.705078 31.795083 28.945602 31.78125 29 C 31.708907 30.136911 31.589508 31.706466 31.443359 32.363281 C 31.391769 32.591901 31.336607 32.817408 31.277344 33.048828 C 31.324608 33.18089 31.373455 33.312912 31.423828 33.443359 C 31.43001 33.416567 31.437303 33.39012 31.443359 33.363281 C 31.6841 32.281279 31.857422 28.705078 31.857422 28.705078 z M 30.59375 35.169922 C 30.013661 36.732696 29.32312 38.393588 28.185547 40.544922 C 27.597864 41.651753 27.024473 42.678842 26.494141 43.621094 C 26.732775 43.521113 26.973458 43.424317 27.214844 43.330078 C 27.531657 42.758753 27.854786 42.167871 28.185547 41.544922 C 29.32312 39.393588 30.013663 37.732696 30.59375 36.169922 C 31.508554 38.00955 32.770676 39.758885 34.425781 41.160156 C 34.462263 41.191026 34.500199 41.221433 34.537109 41.251953 C 34.88976 41.180565 35.240679 41.111781 35.589844 41.046875 C 35.185911 40.767957 34.794777 40.472383 34.425781 40.160156 C 32.770677 38.758885 31.508554 37.00955 30.59375 35.169922 z M 41.5625 41.388672 C 40.779828 41.398964 39.916136 41.45295 38.998047 41.546875 C 39.620017 41.847861 40.235788 42.113947 40.830078 42.34375 C 42.433963 42.259103 43.742381 42.324175 44.542969 42.580078 C 45.070081 42.748325 45.397602 42.916892 45.601562 43.068359 C 45.768048 42.92268 45.917969 42.716797 45.917969 42.716797 C 45.917969 42.716797 45.856826 42.98412 45.785156 43.232422 C 45.936835 43.403462 45.932814 43.533399 45.923828 43.578125 C 45.942348 43.501023 46.007408 43.195187 46 43.064453 C 45.967874 42.728378 45.863201 42.4279 45.609375 42.179688 C 45.091054 41.668998 43.810571 41.411629 42.066406 41.388672 C 41.902102 41.386877 41.734698 41.386407 41.5625 41.388672 z M 36.759766 41.773438 C 36.340872 41.83513 35.916993 41.903129 35.490234 41.976562 C 35.52347 41.999845 35.556431 42.023804 35.589844 42.046875 C 32.584029 42.605625 29.427734 43.391999 26.494141 44.621094 C 26.588469 44.453499 26.690174 44.2686 26.787109 44.095703 C 26.593256 44.157002 26.401357 44.219437 26.212891 44.28125 C 23.727969 48.636167 21.743044 51.079016 20.082031 51.345703 C 19.688781 51.621778 19.325427 51.786496 18.992188 51.833984 L 18.984375 51.757812 C 18.977778 51.615313 19.01563 51.435513 19.09375 51.226562 C 19.053531 51.209695 19.012483 51.193765 18.972656 51.173828 L 18.285156 50.828125 C 18.212493 50.786557 18.15635 50.729302 18.113281 50.662109 C 18.07536 50.766456 18.045016 50.864923 18.025391 50.960938 C 17.960647 51.27838 18.005207 51.667975 18.285156 51.828125 L 18.972656 52.173828 C 20.84603 53.111635 23.149729 50.649555 26.212891 45.28125 C 29.330233 44.258824 33.21893 43.294914 36.759766 42.773438 C 39.929155 44.58436 43.566268 45.444874 44.962891 45.072266 C 45.228554 45.002042 45.507536 44.793914 45.650391 44.601562 C 45.762302 44.424529 45.917969 43.716797 45.917969 43.716797 C 45.917969 43.716797 45.655687 44.076286 45.439453 44.181641 C 45.028896 44.375396 44.205109 44.325455 43.15625 44.080078 C 41.409609 43.837505 38.971154 43.036978 36.759766 41.773438 z M 23.775391 45.863281 C 23.636478 45.936907 22.549524 46.513031 22.277344 46.677734 C 21.802528 46.961238 21.372499 47.24474 20.980469 47.525391 C 19.749641 48.854757 18.956148 50.148055 18.984375 50.757812 L 18.992188 50.833984 C 19.096782 50.819079 19.203893 50.791448 19.314453 50.753906 C 19.88191 49.691002 21.131693 48.190753 22.677734 46.923828 C 22.870886 46.767214 23.520043 46.142831 23.71875 45.951172 C 23.737208 45.92212 23.756869 45.892586 23.775391 45.863281 z "
     transform="scale(0.26458334)" />
  <path
     id="path22"
     d="m 8.0150321,6.3500001 c -0.1708525,0 -0.3304232,0.083908 -0.369067,0.2218824 -0.1435418,0.529194 0.017138,1.3476915 0.2850876,2.3673329 L 7.8497255,9.136346 C 7.6445827,9.6363733 7.3883799,10.134343 7.1628629,10.576371 v 4.53e-4 C 6.2319192,12.398339 5.5077952,13.380989 5.024926,13.449801 l -0.00222,-0.01989 C 5.012189,13.202724 5.4319708,12.616576 6.0004073,12.150763 6.0596303,12.102743 6.312457,11.85816 6.312457,11.85816 c 0,0 -0.3414739,0.180801 -0.4181287,0.227187 -0.7121668,0.425221 -1.0670862,0.850973 -1.1248812,1.133721 -0.01713,0.08399 -0.00556,0.187023 0.06851,0.229396 l 0.182102,0.0915 c 0.4956634,0.248128 1.1051496,-0.403759 1.9156111,-1.824123 0.8247969,-0.270517 1.8534783,-0.525463 2.7903239,-0.663437 0.8385679,0.47914 1.8006809,0.707215 2.1702039,0.608629 0.07029,-0.01858 0.144304,-0.07375 0.182101,-0.124643 0.02961,-0.04684 0.07072,-0.234258 0.07072,-0.234258 0,0 -0.0692,0.095 -0.126412,0.122875 -0.234019,0.110441 -0.972565,-0.07388 -1.730416,-0.444648 0.655184,-0.06974 1.201302,-0.07248 1.493064,0.02078 0.37047,0.118249 0.370492,0.239619 0.365531,0.264313 0.0049,-0.0204 0.02185,-0.101545 0.01989,-0.136135 -0.0085,-0.08892 -0.03582,-0.168144 -0.102978,-0.233817 -0.137139,-0.13512 -0.476,-0.203436 -0.937477,-0.20951 -0.347778,-0.0038 -0.764429,0.02679 -1.217259,0.09149 C 9.7056066,10.658332 9.4862035,10.527217 9.3127336,10.365097 8.8727508,9.9542808 8.5042547,9.3838278 8.2753679,8.7442958 8.2910459,8.6830628 8.3059169,8.6231242 8.3195679,8.5626353 8.3832639,8.2763555 8.428741,7.3303492 8.428741,7.3303492 c 0,-3e-7 -0.180599,0.7104776 -0.2090643,0.8176934 -0.018321,0.068034 -0.041444,0.1405676 -0.067626,0.2161362 C 8.0132474,7.8760835 7.9425446,7.4026532 7.9425446,7.0439352 c 0,-0.1015278 0.00873,-0.2983339 0.03757,-0.4543722 0.013933,-0.1112873 0.05453,-0.1691954 0.096355,-0.1971305 0.082839,0.020118 0.1750898,0.1469042 0.2718276,0.3593432 0.083079,0.1835969 0.078234,0.3965158 0.078234,0.5281858 0,0 0.089148,-0.3262402 0.068508,-0.5189039 C 8.4825346,6.6453738 8.3722566,6.3481764 8.138349,6.351769 H 8.119344 Z m 0.07956,2.9556305 c 0.242042,0.4867353 0.5760269,0.9494914 1.0139401,1.3202444 0.097627,0.08261 0.2011975,0.16046 0.3080714,0.234257 C 8.6213151,11.007968 7.786112,11.216052 7.0099321,11.54125 7.1502495,11.291946 7.3021838,11.020383 7.4576746,10.727534 7.7586575,10.158327 7.9411107,9.7191152 8.0945921,9.3056306 Z"
     style="stroke-width:0.226302;fill:url(#linearGradient2165);fill-opacity:1" />
</svg>
