<?xml version="1.0" encoding="UTF-8" standalone="no"?>
<!-- Created with Inkscape (http://www.inkscape.org/) -->

<svg
   width="64"
   height="64"
   viewBox="0 0 16.933333 16.933334"
   version="1.1"
   id="svg5"
   inkscape:version="1.1.1 (3bf5ae0d25, 2021-09-20, custom)"
   sodipodi:docname="application-pgp-signature.svg"
   xmlns:inkscape="http://www.inkscape.org/namespaces/inkscape"
   xmlns:sodipodi="http://sodipodi.sourceforge.net/DTD/sodipodi-0.dtd"
   xmlns:xlink="http://www.w3.org/1999/xlink"
   xmlns="http://www.w3.org/2000/svg"
   xmlns:svg="http://www.w3.org/2000/svg">
  <sodipodi:namedview
     id="namedview7"
     pagecolor="#ffffff"
     bordercolor="#666666"
     borderopacity="1.0"
     inkscape:pageshadow="2"
     inkscape:pageopacity="0.0"
     inkscape:pagecheckerboard="0"
     inkscape:document-units="px"
     showgrid="false"
     units="px"
     height="64px"
     inkscape:zoom="12.59375"
     inkscape:cx="30.808933"
     inkscape:cy="38.987593"
     inkscape:window-width="1920"
     inkscape:window-height="1011"
     inkscape:window-x="0"
     inkscape:window-y="0"
     inkscape:window-maximized="1"
     inkscape:current-layer="svg5" />
  <defs
     id="defs2">
    <linearGradient
       inkscape:collect="always"
       id="linearGradient10453">
      <stop
         style="stop-color:#666666;stop-opacity:1"
         offset="0"
         id="stop10449" />
      <stop
         style="stop-color:#666666;stop-opacity:0"
         offset="1"
         id="stop10451" />
    </linearGradient>
    <linearGradient
       inkscape:collect="always"
       id="linearGradient8423">
      <stop
         style="stop-color:#fcfcfc;stop-opacity:1"
         offset="0"
         id="stop8419" />
      <stop
         style="stop-color:#ffffff;stop-opacity:0;"
         offset="1"
         id="stop8421" />
    </linearGradient>
    <linearGradient
       inkscape:collect="always"
       id="linearGradient6263">
      <stop
         style="stop-color:#000000;stop-opacity:1;"
         offset="0"
         id="stop6259" />
      <stop
         style="stop-color:#000000;stop-opacity:0;"
         offset="1"
         id="stop6261" />
    </linearGradient>
    <linearGradient
       inkscape:collect="always"
       id="linearGradient3378">
      <stop
         style="stop-color:#b0b0b0;stop-opacity:1"
         offset="0"
         id="stop3374" />
      <stop
         style="stop-color:#fcfcfc;stop-opacity:1"
         offset="1"
         id="stop3376" />
    </linearGradient>
    <linearGradient
       inkscape:collect="always"
       xlink:href="#linearGradient3378"
       id="linearGradient3380"
       x1="14.942825"
       y1="1.1138821"
       x2="11.503234"
       y2="4.3115072"
       gradientUnits="userSpaceOnUse"
       gradientTransform="translate(-0.5291663,-0.52916667)" />
    <linearGradient
       inkscape:collect="always"
       xlink:href="#linearGradient6263"
       id="linearGradient6265"
       x1="11.90625"
       y1="2.3812501"
       x2="12.170834"
       y2="7.1437502"
       gradientUnits="userSpaceOnUse"
       gradientTransform="translate(-0.52916663,0.52916673)" />
    <linearGradient
       inkscape:collect="always"
       xlink:href="#linearGradient8423"
       id="linearGradient8425"
       x1="13.692527"
       y1="11.622045"
       x2="1.6077259"
       y2="-0.71580184"
       gradientUnits="userSpaceOnUse" />
    <linearGradient
       inkscape:collect="always"
       xlink:href="#linearGradient10453"
       id="linearGradient10455"
       x1="10"
       y1="72.5"
       x2="58"
       y2="32.5"
       gradientUnits="userSpaceOnUse" />
  </defs>
  <path
     id="rect1068"
     style="fill:#e5e5e5;fill-opacity:1;stroke-width:0.529167;stroke-linejoin:round"
     d="m 3.175,0.5291667 7.143751,3e-8 3.968749,3.96874997 1e-6,11.3770833 c 0,0.293158 -0.236009,0.529167 -0.529167,0.529167 H 3.175 c -0.2931584,0 -0.5291667,-0.236009 -0.5291667,-0.529167 V 1.0583334 c 0,-0.29315835 0.2360083,-0.5291667 0.5291667,-0.5291667 z"
     sodipodi:nodetypes="cccsssssc" />
  <path
     id="rect8140"
     style="opacity:1;fill:url(#linearGradient8425);fill-opacity:1;stroke-width:0.518136;stroke-linejoin:round"
     d="m 3.175,0.5291668 h 7.143751 l -1e-6,2.9104166 0.79375,1.0583333 3.175,0 V 15.875 c 0,0.295111 -0.236009,0.529167 -0.529167,0.529167 H 3.175 c -0.293159,0 -0.529167,-0.236009 -0.529167,-0.529167 V 1.0583337 c 0,-0.2931589 0.236008,-0.5291669 0.529167,-0.5291669 z"
     sodipodi:nodetypes="sccccssssss" />
  <path
     id="rect9905"
     style="opacity:0.3;fill:url(#linearGradient10455);fill-opacity:1;stroke-width:2;stroke-linejoin:round"
     d="M 10 59 L 10 60 C 10 61.108 10.892 62 12 62 L 52 62 C 53.108 62 54 61.108 54 60 L 54 59 C 54 60.108 53.108 61 52 61 L 12 61 C 10.892 61 10 60.108 10 59 z "
     transform="scale(0.26458334)" />
  <path
     id="rect5598"
     style="opacity:0.2;fill:url(#linearGradient6265);fill-opacity:1;stroke-width:0.529167;stroke-linejoin:round"
     d="M 10.444901,4.3115072 10.31875,3.4395834 14.2875,4.4979167 v 3.7041668 z"
     sodipodi:nodetypes="ccccc" />
  <path
     id="rect2607"
     style="fill:url(#linearGradient3380);fill-opacity:1;stroke-width:0.529167;stroke-linejoin:round"
     d="m 14.2875,4.4979167 -3.439583,-1e-7 c -0.293158,0 -0.529166,-0.2360083 -0.529166,-0.5291667 V 0.52916673 Z"
     sodipodi:nodetypes="csscc" />
  <path
     id="path37"
     style="color:#000000;clip-rule:nonzero;display:inline;overflow:visible;visibility:visible;opacity:0.4;isolation:auto;mix-blend-mode:normal;color-interpolation:sRGB;color-interpolation-filters:linearRGB;solid-color:#000000;solid-opacity:1;fill:#000000;fill-opacity:1;fill-rule:nonzero;stroke-width:0.529952;stroke-linecap:square;stroke-linejoin:miter;stroke-miterlimit:4;stroke-dasharray:none;stroke-dashoffset:0;stroke-opacity:1;color-rendering:auto;image-rendering:auto;shape-rendering:auto;text-rendering:auto;enable-background:accumulate"
     d="m 10.908534,5.8731682 c -0.037,-3.976e-4 -0.07496,0.0098 -0.110751,0.032604 -0.01911,0.013252 -0.102141,0.1127724 -0.183724,0.2215036 L 10.465527,6.327043 10.411707,6.290298 C 10.336377,6.240623 10.263694,6.229636 10.195897,6.260281 10.149037,6.281381 10.03922,6.423157 9.3186816,7.3812531 8.863955,7.9852618 8.4941925,8.4841656 8.4952895,8.4918751 8.4962169,8.4983151 8.6808376,8.6424868 8.904139,8.8101567 L 9.3124679,9.1170532 9.8496653,8.4013077 C 10.145329,8.0075434 10.391317,7.6888976 10.397213,7.6933252 c 0.01913,0.014309 0.05395,0.3234254 0.0471,0.4228228 -0.0028,0.05422 -0.02303,0.1516521 -0.04399,0.2163279 -0.03739,0.1155741 -0.04146,0.1223475 -0.7074687,1.0122909 -0.3683448,0.4919955 -0.6750381,0.9098642 -0.6805536,0.9263802 -0.015816,0.04555 0.00172,0.130735 0.036227,0.179584 0.057614,0.08236 0.2001155,0.108388 0.2810194,0.04968 0.055889,-0.04078 1.3750529,-1.816545 1.4169999,-1.9091718 0.12253,-0.26414 0.147902,-0.6023805 0.07038,-0.9351782 -0.03063,-0.1320924 -0.07068,-0.2590657 -0.109716,-0.3493337 -0.01137,-0.024646 0.0075,-0.056181 0.130935,-0.2220208 0.116592,-0.1583071 0.143326,-0.2027623 0.145426,-0.2437571 0.0046,-0.087247 -0.02205,-0.13581 -0.107646,-0.2023546 l -0.0797,-0.062104 0.158364,-0.2127051 c 0.129818,-0.17592 0.157884,-0.2219207 0.159918,-0.2629059 0.0059,-0.1306691 -0.09497,-0.2265267 -0.205978,-0.2277136 z M 8.2406612,8.8230955 c -0.00389,5.564e-4 -0.4884145,0.6443612 -1.0774997,1.4289035 -0.9474725,1.263357 -1.0822344,1.450357 -1.1696202,1.611076 -0.1736121,0.319969 -0.3625375,0.807784 -0.4880318,1.25346 -0.081345,0.285844 -0.085432,0.259976 0.027947,0.199249 0.3497138,-0.18888 0.8065354,-0.495491 1.0723246,-0.72092 0.2598962,-0.220694 0.3041485,-0.276806 1.4050965,-1.743046 L 9.0697461,9.4399925 8.6583088,9.1310264 C 8.4320207,8.9611146 8.2445495,8.8225422 8.2406612,8.8230955 Z m 0.042438,3.2687265 c -0.024224,8.93e-4 -0.046301,0.0033 -0.063656,0.0067 v 5.29e-4 c -0.16455,0.03472 -0.3477766,0.177286 -0.4362788,0.341571 -0.023848,0.04265 -0.06181,0.13932 -0.085393,0.212188 -0.022258,0.07418 -0.042918,0.136074 -0.044509,0.137664 -0.012718,0.01589 -0.3274024,0.09138 -0.5123556,0.123172 -0.4348253,0.07605 -0.5535346,0.104391 -0.5961957,0.143874 -0.083732,0.07738 -0.018826,0.155297 0.099883,0.120584 0.031531,-0.0095 0.165937,-0.03622 0.2955101,-0.05848 0.1298383,-0.02226 0.3272991,-0.06332 0.4393838,-0.0885 0.1123498,-0.02676 0.2074185,-0.04463 0.212188,-0.03985 0.00478,0.0047 -0.014049,0.09481 -0.043991,0.200801 l -0.053823,0.189934 -0.1190322,0.05227 c -0.064919,0.02835 -0.1579918,0.07737 -0.2070125,0.110752 -0.1486514,0.09805 -0.1773722,0.221206 -0.072972,0.300168 0.05697,0.04266 0.2150651,0.04112 0.3131062,-0.0015 0.086912,-0.03949 0.1358086,-0.0947 0.2039072,-0.238582 0.036302,-0.07446 0.064952,-0.113744 0.086946,-0.118513 0.017488,-0.0048 0.1744743,-0.03641 0.3482986,-0.07296 0.1740891,-0.03471 0.3320354,-0.0682 0.3524386,-0.07297 0.033122,-0.0078 0.036452,-0.0048 0.026912,0.02536 -0.00635,0.01908 -0.035001,0.07467 -0.065208,0.123689 -0.029943,0.04903 -0.053824,0.107353 -0.053824,0.130935 0,0.04903 0.041402,0.09812 0.074525,0.08539 0.012718,-0.0048 0.029831,-0.0092 0.037781,-0.0092 0.00795,0 0.042918,-0.02539 0.077629,-0.05692 0.064919,-0.05856 0.2215032,-0.345078 0.2215032,-0.405228 0,-0.02995 0.023737,-0.03757 0.037781,-0.01396 0.00478,0.0078 0.040735,0.02229 0.080217,0.03158 0.055379,0.01431 0.071419,0.02503 0.071419,0.05022 0,0.04903 0.080876,0.120516 0.1521539,0.13456 0.055379,0.0095 0.1265714,-0.0015 0.2023546,-0.03312 0.026762,-0.01113 0.028422,-0.0078 0.01915,0.03312 -0.00635,0.02543 -0.052416,0.10616 -0.1014362,0.180618 -0.1044006,0.155011 -0.2308187,0.401634 -0.2639408,0.510802 -0.026762,0.09327 -0.015899,0.163022 0.033122,0.196145 0.044252,0.02835 0.1168501,0.01545 0.1547417,-0.02588 0.033122,-0.0363 0.2137404,-0.417198 0.2799845,-0.591022 0.04743,-0.121889 0.069414,-0.155176 0.1769955,-0.269117 0.0885,-0.09326 0.117409,-0.115483 0.09833,-0.07918 -0.03153,0.0681 -0.03006,0.120105 0.0047,0.151637 0.07419,0.0681 0.18179,0.0017 0.275326,-0.169233 0.05538,-0.10122 0.09662,-0.130996 0.3022387,-0.227712 l 0.107129,-0.04916 -0.01087,0.05849 c -0.0063,0.03153 -0.04284,0.121876 -0.08074,0.19925 -0.07446,0.156598 -0.08824,0.256246 -0.04399,0.34157 0.02994,0.05856 0.06154,0.06044 0.207012,0.0098 0.202442,-0.0681 0.466499,-0.225084 0.535128,-0.315176 0.09327,-0.126659 0.121914,-0.248228 0.06521,-0.289299 -0.05856,-0.04265 -0.09167,-0.02534 -0.166128,0.08385 -0.09963,0.148652 -0.222861,0.264379 -0.341571,0.32294 -0.05538,0.02835 -0.104429,0.04722 -0.109198,0.04243 -0.0063,-0.0063 0.120029,-0.346367 0.187864,-0.506147 0.01431,-0.03311 0.02588,-0.07438 0.02588,-0.09161 0,-0.04426 -0.05556,-0.09471 -0.102989,-0.09471 -0.02226,0 -0.126936,0.04247 -0.231337,0.09626 -0.21675,0.10758 -0.202359,0.117049 -0.146978,-0.08539 0.03312,-0.124804 0.02222,-0.158179 -0.05382,-0.166128 -0.07287,-0.0078 -0.1011717,0.01611 -0.1676807,0.134558 -0.04266,0.08055 -0.0994,0.147195 -0.208565,0.248414 -0.143882,0.132754 -0.150336,0.137441 -0.183724,0.113859 -0.05061,-0.0363 -0.07914,-0.03146 -0.2023542,0.03001 -0.1202989,0.06016 -0.1599916,0.06814 -0.1899339,0.03158 -0.025438,-0.02995 0.014513,-0.04584 0.2344417,-0.0885 0.2135704,-0.04106 0.2401344,-0.05253 0.2401344,-0.09678 0,-0.07127 -0.05862,-0.138918 -0.1630224,-0.184759 -0.180448,-0.08055 -0.2005037,-0.08561 -0.2794667,-0.06521 -0.085322,0.02225 -0.2120426,0.143902 -0.2292662,0.219951 -0.017487,0.07923 -0.071419,0.05534 -0.071419,-0.03158 0,-0.03631 -0.044428,-0.127975 -0.069866,-0.143874 -0.05379,-0.03631 -0.1405038,0.04291 -0.2070125,0.188382 l -0.052271,0.112304 -0.1169619,0.02537 c -0.1518353,0.03312 -0.5930161,0.121611 -0.6515759,0.133005 -0.037891,0.0063 -0.044176,0.0032 -0.036228,-0.01915 0.00635,-0.0159 0.025178,-0.08502 0.04399,-0.156294 0.049021,-0.196083 0.063545,-0.22169 0.1345583,-0.246862 0.085323,-0.02993 0.373471,-0.153595 0.4476644,-0.191487 0.034711,-0.01749 0.1056466,-0.07109 0.1578468,-0.118514 0.1597805,-0.148652 0.1848414,-0.286412 0.070903,-0.387632 -0.031528,-0.02674 -0.072787,-0.05516 -0.091599,-0.06311 -0.02915,-0.01113 -0.079454,-0.01878 -0.1314551,-0.02174 -0.026002,-0.0014 -0.052371,-0.002 -0.076594,-10e-4 z m -0.082805,0.185794 c 0.021963,-0.0011 0.047944,-4.23e-4 0.080736,0.0015 0.083732,0.0048 0.1171855,0.01261 0.1407684,0.03778 0.031531,0.03153 0.031458,0.03301 0.0031,0.09316 -0.019079,0.03789 -0.063134,0.08242 -0.1185148,0.120583 -0.09645,0.06651 -0.3987926,0.188121 -0.4083318,0.166128 -0.012718,-0.0363 0.084206,-0.253251 0.1459436,-0.322939 0.061607,-0.06996 0.090402,-0.09255 0.1562946,-0.09626 z m -0.8120058,1.324362 c 0.012055,7.95e-4 0.012272,0.01132 0.00206,0.03106 -0.020669,0.03949 -0.074598,0.06806 -0.1045412,0.05692 -0.034711,-0.01431 -0.025364,-0.03297 0.030017,-0.06158 0.036434,-0.01815 0.060398,-0.02719 0.072455,-0.0264 z" />
</svg>
