<?xml version="1.0" encoding="UTF-8" standalone="no"?>
<!-- Created with Inkscape (http://www.inkscape.org/) -->

<svg
   width="64"
   height="64"
   viewBox="0 0 16.933333 16.933334"
   version="1.1"
   id="svg5"
   inkscape:version="1.1.1 (3bf5ae0d25, 2021-09-20, custom)"
   sodipodi:docname="application-x-firmware.svg"
   xmlns:inkscape="http://www.inkscape.org/namespaces/inkscape"
   xmlns:sodipodi="http://sodipodi.sourceforge.net/DTD/sodipodi-0.dtd"
   xmlns:xlink="http://www.w3.org/1999/xlink"
   xmlns="http://www.w3.org/2000/svg"
   xmlns:svg="http://www.w3.org/2000/svg">
  <sodipodi:namedview
     id="namedview7"
     pagecolor="#ffffff"
     bordercolor="#666666"
     borderopacity="1.0"
     inkscape:pageshadow="2"
     inkscape:pageopacity="0.0"
     inkscape:pagecheckerboard="0"
     inkscape:document-units="px"
     showgrid="false"
     units="px"
     height="64px"
     inkscape:zoom="6.296875"
     inkscape:cx="-12.704715"
     inkscape:cy="41.210918"
     inkscape:window-width="1920"
     inkscape:window-height="1011"
     inkscape:window-x="0"
     inkscape:window-y="0"
     inkscape:window-maximized="1"
     inkscape:current-layer="svg5" />
  <defs
     id="defs2">
    <linearGradient
       inkscape:collect="always"
       id="linearGradient3104">
      <stop
         style="stop-color:#808080;stop-opacity:1;"
         offset="0"
         id="stop3100" />
      <stop
         style="stop-color:#4d4d4d;stop-opacity:1"
         offset="1"
         id="stop3102" />
    </linearGradient>
    <linearGradient
       inkscape:collect="always"
       id="linearGradient2948">
      <stop
         style="stop-color:#838383;stop-opacity:1"
         offset="0"
         id="stop2944" />
      <stop
         style="stop-color:#ffffff;stop-opacity:1"
         offset="1"
         id="stop2946" />
    </linearGradient>
    <linearGradient
       inkscape:collect="always"
       id="linearGradient2492">
      <stop
         style="stop-color:#565656;stop-opacity:1"
         offset="0"
         id="stop2488" />
      <stop
         style="stop-color:#c6c6c6;stop-opacity:1"
         offset="1"
         id="stop2490" />
    </linearGradient>
    <linearGradient
       inkscape:collect="always"
       id="linearGradient10453">
      <stop
         style="stop-color:#666666;stop-opacity:1"
         offset="0"
         id="stop10449" />
      <stop
         style="stop-color:#666666;stop-opacity:0"
         offset="1"
         id="stop10451" />
    </linearGradient>
    <linearGradient
       inkscape:collect="always"
       id="linearGradient6263">
      <stop
         style="stop-color:#000000;stop-opacity:1;"
         offset="0"
         id="stop6259" />
      <stop
         style="stop-color:#000000;stop-opacity:0;"
         offset="1"
         id="stop6261" />
    </linearGradient>
    <linearGradient
       inkscape:collect="always"
       id="linearGradient3378">
      <stop
         style="stop-color:#b0b0b0;stop-opacity:1"
         offset="0"
         id="stop3374" />
      <stop
         style="stop-color:#fcfcfc;stop-opacity:1"
         offset="1"
         id="stop3376" />
    </linearGradient>
    <linearGradient
       inkscape:collect="always"
       xlink:href="#linearGradient3378"
       id="linearGradient3380"
       x1="14.942825"
       y1="1.1138821"
       x2="11.503234"
       y2="4.3115072"
       gradientUnits="userSpaceOnUse"
       gradientTransform="translate(-0.5291663,-0.52916667)" />
    <linearGradient
       inkscape:collect="always"
       xlink:href="#linearGradient6263"
       id="linearGradient6265"
       x1="11.90625"
       y1="2.3812501"
       x2="12.170834"
       y2="7.1437502"
       gradientUnits="userSpaceOnUse"
       gradientTransform="translate(-0.52916663,0.52916673)" />
    <linearGradient
       inkscape:collect="always"
       xlink:href="#linearGradient10453"
       id="linearGradient10455"
       x1="10"
       y1="72.5"
       x2="58"
       y2="32.5"
       gradientUnits="userSpaceOnUse" />
    <linearGradient
       inkscape:collect="always"
       xlink:href="#linearGradient2492"
       id="linearGradient2136"
       x1="6.0854168"
       y1="11.90625"
       x2="6.0854168"
       y2="7.1437497"
       gradientUnits="userSpaceOnUse" />
    <linearGradient
       inkscape:collect="always"
       xlink:href="#linearGradient2948"
       id="linearGradient2494"
       x1="10.847917"
       y1="12.964584"
       x2="10.847917"
       y2="7.6729174"
       gradientUnits="userSpaceOnUse" />
    <linearGradient
       inkscape:collect="always"
       xlink:href="#linearGradient3104"
       id="linearGradient3106"
       x1="2.1166666"
       y1="4.2529297e-07"
       x2="14.816668"
       y2="16.933334"
       gradientUnits="userSpaceOnUse" />
    <linearGradient
       inkscape:collect="always"
       xlink:href="#linearGradient6263"
       id="linearGradient4266"
       x1="23"
       y1="43.5"
       x2="43"
       y2="33.5"
       gradientUnits="userSpaceOnUse" />
  </defs>
  <path
     id="rect1068"
     style="fill:url(#linearGradient3106);fill-opacity:1;stroke-width:0.529167;stroke-linejoin:round"
     d="m 3.175,0.5291667 7.143751,3e-8 3.968749,3.96874997 1e-6,11.3770833 c 0,0.293158 -0.236009,0.529167 -0.529167,0.529167 H 3.175 c -0.2931584,0 -0.5291667,-0.236009 -0.5291667,-0.529167 V 1.0583334 c 0,-0.29315835 0.2360083,-0.5291667 0.5291667,-0.5291667 z"
     sodipodi:nodetypes="cccsssssc" />
  <path
     id="rect9905"
     style="opacity:0.3;fill:url(#linearGradient10455);fill-opacity:1;stroke-width:2;stroke-linejoin:round"
     d="M 10 59 L 10 60 C 10 61.108 10.892 62 12 62 L 52 62 C 53.108 62 54 61.108 54 60 L 54 59 C 54 60.108 53.108 61 52 61 L 12 61 C 10.892 61 10 60.108 10 59 z "
     transform="scale(0.26458334)" />
  <path
     id="rect5598"
     style="opacity:0.2;fill:url(#linearGradient6265);fill-opacity:1;stroke-width:0.529167;stroke-linejoin:round"
     d="M 10.444901,4.3115072 10.31875,3.4395834 14.2875,4.4979167 v 3.7041668 z"
     sodipodi:nodetypes="ccccc" />
  <path
     id="rect2607"
     style="fill:url(#linearGradient3380);fill-opacity:1;stroke-width:0.529167;stroke-linejoin:round"
     d="m 14.2875,4.4979167 -3.439583,-1e-7 c -0.293158,0 -0.529166,-0.2360083 -0.529166,-0.5291667 V 0.52916673 Z"
     sodipodi:nodetypes="csscc" />
  <path
     id="rect863-7"
     style="opacity:0.3;fill:url(#linearGradient4266);fill-opacity:1;stroke-width:9;stroke-linecap:round;stroke-linejoin:round"
     d="m 23,34 v 1 h 2 v -1 z m 16,0 v 1 h 2 v -1 z m -16,4 v 1 h 2 v -1 z m 16,0 v 1 h 2 v -1 z m -16,4 v 1 h 2 c 0,1.107999 0.892,2 2,2 h 10 c 1.107998,0 2,-0.892001 2,-2 h 2 v -1 h -2 c 0,1.107999 -0.892002,2 -2,2 H 27 c -1.108,0 -2,-0.892001 -2,-2 z m 4,3.999998 v 1 h 2 v -1 z m 4,0 v 1 h 2 v -1 z m 4,0 v 1 h 2 v -1 z"
     transform="scale(0.26458334)"
     sodipodi:nodetypes="cccccccccccccccccccccccssccccssccccccccccccccccc" />
  <path
     id="rect1006"
     style="opacity:1;fill:url(#linearGradient2494);fill-opacity:1;stroke-width:2.31774;stroke-linecap:round;stroke-linejoin:round"
     d="M 7.1437501,7.4083334 V 8.4666668 H 6.0854167 V 8.9958335 H 7.1437501 V 9.5249999 H 6.0854167 v 0.5291671 h 1.0583334 v 0.529167 H 6.0854167 V 11.1125 h 1.0583334 v 1.058333 H 7.6729168 V 11.1125 h 0.5291666 v 1.058333 H 8.7312501 V 11.1125 h 0.5291667 v 1.058333 H 9.7895835 V 11.1125 H 10.847917 V 10.583334 H 9.7895835 V 10.054167 H 10.847917 V 9.5249999 H 9.7895835 V 8.9958335 H 10.847917 V 8.4666668 H 9.7895835 V 7.4083334 H 9.2604168 V 8.4666668 H 8.7312501 V 7.4083334 H 8.2020834 V 8.4666668 H 7.6729168 V 7.4083334 Z M 7.6729168,8.9958335 H 8.2020834 V 9.5249999 H 7.6729168 Z m 1.0583333,0 H 9.2604168 V 9.5249999 H 8.7312501 Z M 7.6729168,10.054167 h 0.5291666 v 0.529167 H 7.6729168 Z m 1.0583333,0 h 0.5291667 v 0.529167 H 8.7312501 Z"
     sodipodi:nodetypes="ccccccccccccccccccccccccccccccccccccccccccccccccccccccccccccccccc" />
  <path
     id="rect863"
     style="opacity:1;fill:url(#linearGradient2136);stroke-width:2.38125;stroke-linecap:round;stroke-linejoin:round;fill-opacity:1"
     d="m 7.14375,7.9375 h 2.6458332 c 0.2931578,0 0.5291668,0.2360084 0.5291668,0.5291667 V 11.1125 c 0,0.293158 -0.236009,0.529167 -0.5291668,0.529167 H 7.14375 c -0.2931583,0 -0.5291667,-0.236009 -0.5291667,-0.529167 V 8.4666667 C 6.6145833,8.1735084 6.8505917,7.9375 7.14375,7.9375 Z"
     sodipodi:nodetypes="sssssssss" />
</svg>
