<?xml version="1.0" encoding="UTF-8" standalone="no"?>
<!-- Created with Inkscape (http://www.inkscape.org/) -->

<svg
   width="64"
   height="64"
   viewBox="0 0 16.933333 16.933334"
   version="1.1"
   id="svg5"
   inkscape:version="1.1.1 (3bf5ae0d25, 2021-09-20, custom)"
   sodipodi:docname="application-x-sharedlib.svg"
   xmlns:inkscape="http://www.inkscape.org/namespaces/inkscape"
   xmlns:sodipodi="http://sodipodi.sourceforge.net/DTD/sodipodi-0.dtd"
   xmlns:xlink="http://www.w3.org/1999/xlink"
   xmlns="http://www.w3.org/2000/svg"
   xmlns:svg="http://www.w3.org/2000/svg">
  <sodipodi:namedview
     id="namedview7"
     pagecolor="#ffffff"
     bordercolor="#666666"
     borderopacity="1.0"
     inkscape:pageshadow="2"
     inkscape:pageopacity="0.0"
     inkscape:pagecheckerboard="0"
     inkscape:document-units="px"
     showgrid="false"
     units="px"
     height="64px"
     inkscape:zoom="2"
     inkscape:cx="-100"
     inkscape:cy="-20.5"
     inkscape:window-width="1920"
     inkscape:window-height="1011"
     inkscape:window-x="0"
     inkscape:window-y="0"
     inkscape:window-maximized="1"
     inkscape:current-layer="svg5" />
  <defs
     id="defs2">
    <linearGradient
       inkscape:collect="always"
       id="linearGradient6861">
      <stop
         style="stop-color:#999999;stop-opacity:1;"
         offset="0"
         id="stop6857" />
      <stop
         style="stop-color:#666666;stop-opacity:1"
         offset="1"
         id="stop6859" />
    </linearGradient>
    <linearGradient
       inkscape:collect="always"
       id="linearGradient10453">
      <stop
         style="stop-color:#666666;stop-opacity:1"
         offset="0"
         id="stop10449" />
      <stop
         style="stop-color:#666666;stop-opacity:0"
         offset="1"
         id="stop10451" />
    </linearGradient>
    <linearGradient
       inkscape:collect="always"
       id="linearGradient8423">
      <stop
         style="stop-color:#fcfcfc;stop-opacity:1"
         offset="0"
         id="stop8419" />
      <stop
         style="stop-color:#ffffff;stop-opacity:0;"
         offset="1"
         id="stop8421" />
    </linearGradient>
    <linearGradient
       inkscape:collect="always"
       id="linearGradient6263">
      <stop
         style="stop-color:#000000;stop-opacity:1;"
         offset="0"
         id="stop6259" />
      <stop
         style="stop-color:#000000;stop-opacity:0;"
         offset="1"
         id="stop6261" />
    </linearGradient>
    <linearGradient
       inkscape:collect="always"
       id="linearGradient3378">
      <stop
         style="stop-color:#b0b0b0;stop-opacity:1"
         offset="0"
         id="stop3374" />
      <stop
         style="stop-color:#fcfcfc;stop-opacity:1"
         offset="1"
         id="stop3376" />
    </linearGradient>
    <linearGradient
       inkscape:collect="always"
       xlink:href="#linearGradient3378"
       id="linearGradient3380"
       x1="14.942825"
       y1="1.1138821"
       x2="11.503234"
       y2="4.3115072"
       gradientUnits="userSpaceOnUse"
       gradientTransform="translate(-0.5291663,-0.52916667)" />
    <linearGradient
       inkscape:collect="always"
       xlink:href="#linearGradient6263"
       id="linearGradient6265"
       x1="11.90625"
       y1="2.3812501"
       x2="12.170834"
       y2="7.1437502"
       gradientUnits="userSpaceOnUse"
       gradientTransform="translate(-0.52916663,0.52916673)" />
    <linearGradient
       inkscape:collect="always"
       xlink:href="#linearGradient8423"
       id="linearGradient8425"
       x1="13.692527"
       y1="11.622045"
       x2="1.6077259"
       y2="-0.71580184"
       gradientUnits="userSpaceOnUse" />
    <linearGradient
       inkscape:collect="always"
       xlink:href="#linearGradient10453"
       id="linearGradient10455"
       x1="10"
       y1="72.5"
       x2="58"
       y2="32.5"
       gradientUnits="userSpaceOnUse" />
    <linearGradient
       inkscape:collect="always"
       xlink:href="#linearGradient6861"
       id="linearGradient6863"
       x1="12.435417"
       y1="1.8520622"
       x2="12.43545"
       y2="16.139563"
       gradientUnits="userSpaceOnUse"
       gradientTransform="matrix(4.7874108,0,0,4.7874108,5.4666248,1.066603)" />
  </defs>
  <path
     id="rect1068"
     style="fill:#e5e5e5;fill-opacity:1;stroke-width:0.529167;stroke-linejoin:round"
     d="m 3.175,0.5291667 7.143751,3e-8 3.968749,3.96874997 1e-6,11.3770833 c 0,0.293158 -0.236009,0.529167 -0.529167,0.529167 H 3.175 c -0.2931584,0 -0.5291667,-0.236009 -0.5291667,-0.529167 V 1.0583334 c 0,-0.29315835 0.2360083,-0.5291667 0.5291667,-0.5291667 z"
     sodipodi:nodetypes="cccsssssc" />
  <path
     id="rect8140"
     style="opacity:1;fill:url(#linearGradient8425);fill-opacity:1;stroke-width:0.518136;stroke-linejoin:round"
     d="m 3.175,0.5291668 h 7.143751 l -1e-6,2.9104166 0.79375,1.0583333 3.175,0 V 15.875 c 0,0.295111 -0.236009,0.529167 -0.529167,0.529167 H 3.175 c -0.293159,0 -0.529167,-0.236009 -0.529167,-0.529167 V 1.0583337 c 0,-0.2931589 0.236008,-0.5291669 0.529167,-0.5291669 z"
     sodipodi:nodetypes="sccccssssss" />
  <path
     id="rect5598"
     style="opacity:0.2;fill:url(#linearGradient6265);fill-opacity:1;stroke-width:0.529167;stroke-linejoin:round"
     d="M 10.444901,4.3115072 10.31875,3.4395834 14.2875,4.4979167 v 3.7041668 z"
     sodipodi:nodetypes="ccccc" />
  <path
     id="rect2607"
     style="fill:url(#linearGradient3380);fill-opacity:1;stroke-width:0.529167;stroke-linejoin:round"
     d="m 14.2875,4.4979167 -3.439583,-1e-7 c -0.293158,0 -0.529166,-0.2360083 -0.529166,-0.5291667 V 0.52916673 Z"
     sodipodi:nodetypes="csscc" />
  <path
     id="path863-3"
     style="opacity:0.4;fill:url(#linearGradient6863);fill-opacity:1;stroke-width:2.07298;stroke-linejoin:round"
     d="M 25 16 C 24.641531 15.999999 24.353518 16.288015 24.353516 16.646484 L 24.353516 17.341797 A 9.7058811 9.7058811 0 0 0 23.125 17.5 L 22.945312 16.832031 C 22.852535 16.485775 22.498599 16.282222 22.152344 16.375 C 21.806086 16.467778 21.602535 16.821713 21.695312 17.167969 L 21.873047 17.833984 A 9.7058811 9.7058811 0 0 0 20.726562 18.304688 L 20.382812 17.710938 C 20.203581 17.400495 19.810444 17.29342 19.5 17.472656 C 19.189553 17.651887 19.084427 18.046978 19.263672 18.357422 L 19.603516 18.947266 A 9.7058811 9.7058811 0 0 0 18.613281 19.697266 L 18.136719 19.220703 C 17.883237 18.967225 17.474181 18.967225 17.220703 19.220703 C 16.967229 19.474185 16.96722 19.883245 17.220703 20.136719 L 17.697266 20.613281 A 9.7058811 9.7058811 0 0 0 16.947266 21.603516 L 16.357422 21.263672 C 16.046971 21.084439 15.65189 21.189546 15.472656 21.5 C 15.293423 21.810447 15.400472 22.203583 15.710938 22.382812 L 16.304688 22.726562 A 9.7058811 9.7058811 0 0 0 15.833984 23.873047 L 15.167969 23.695312 C 14.821711 23.602555 14.467777 23.806077 14.375 24.152344 C 14.282213 24.498601 14.48578 24.852526 14.832031 24.945312 L 15.5 25.125 A 9.7058811 9.7058811 0 0 0 15.341797 26.353516 L 14.646484 26.353516 C 14.288015 26.353527 14.000001 26.641526 14 27 C 13.999999 27.358469 14.288018 27.64648 14.646484 27.646484 L 15.341797 27.646484 A 9.7058811 9.7058811 0 0 0 15.5 28.875 L 14.832031 29.054688 C 14.485774 29.147464 14.282221 29.501399 14.375 29.847656 C 14.46778 30.193914 14.821715 30.397456 15.167969 30.304688 L 15.833984 30.126953 A 9.7058811 9.7058811 0 0 0 16.304688 31.273438 L 15.710938 31.617188 C 15.400491 31.79642 15.293423 32.189553 15.472656 32.5 C 15.651912 32.810428 16.046979 32.915568 16.357422 32.736328 L 16.947266 32.396484 A 9.7058811 9.7058811 0 0 0 17.697266 33.386719 L 17.220703 33.863281 C 16.967225 34.116748 16.967213 34.525826 17.220703 34.779297 C 17.474185 35.032767 17.883239 35.032787 18.136719 34.779297 L 18.613281 34.302734 A 9.7058811 9.7058811 0 0 0 19.603516 35.052734 L 19.263672 35.642578 C 19.084439 35.953025 19.189569 36.348105 19.5 36.527344 C 19.810447 36.706565 20.203583 36.599562 20.382812 36.289062 L 20.726562 35.695312 A 9.7058811 9.7058811 0 0 0 21.873047 36.166016 L 21.695312 36.832031 C 21.602533 37.178289 21.806088 37.532218 22.152344 37.625 C 22.498605 37.717776 22.852524 37.514214 22.945312 37.167969 L 23.125 36.5 A 9.7058811 9.7058811 0 0 0 24.353516 36.658203 L 24.353516 37.353516 C 24.353516 37.711985 24.64153 37.999992 25 38 C 25.358473 37.999992 25.646486 37.711992 25.646484 37.353516 L 25.646484 36.681641 A 9.7058811 9.7058811 0 0 0 26.880859 36.521484 L 27.054688 37.167969 C 27.147467 37.514219 27.501402 37.717763 27.847656 37.625 C 28.150627 37.543801 28.34453 37.263747 28.326172 36.962891 C 28.323546 36.920038 28.316291 36.875364 28.304688 36.832031 L 28.130859 36.183594 A 9.7058811 9.7058811 0 0 0 29.28125 35.707031 L 29.617188 36.289062 C 29.79642 36.599498 30.189558 36.706567 30.5 36.527344 C 30.693999 36.415315 30.807926 36.218989 30.822266 36.011719 C 30.830807 35.887365 30.803411 35.758995 30.736328 35.642578 L 30.402344 35.0625 A 9.7058811 9.7058811 0 0 0 31.388672 34.302734 L 31.863281 34.779297 C 32.116778 35.032767 32.525822 35.03278 32.779297 34.779297 C 32.906036 34.652581 32.96875 34.485694 32.96875 34.320312 C 32.968763 34.154909 32.90604 33.990019 32.779297 33.863281 L 32.302734 33.388672 A 9.7058811 9.7058811 0 0 0 33.0625 32.402344 L 33.642578 32.736328 C 33.953013 32.915561 34.348102 32.810477 34.527344 32.5 C 34.594536 32.383568 34.622106 32.25499 34.613281 32.130859 C 34.598579 31.923968 34.483107 31.729204 34.289062 31.617188 L 33.707031 31.28125 A 9.7058811 9.7058811 0 0 0 34.183594 30.130859 L 34.832031 30.304688 C 35.178293 30.397467 35.532214 30.19391 35.625 29.847656 C 35.636187 29.804263 35.643914 29.759774 35.646484 29.716797 C 35.664702 29.41592 35.470925 29.135864 35.167969 29.054688 L 34.521484 28.880859 A 9.7058811 9.7058811 0 0 0 34.681641 27.646484 L 35.353516 27.646484 C 35.712011 27.646478 35.999996 27.358463 36 27 C 35.999996 26.641531 35.711986 26.353518 35.353516 26.353516 L 34.658203 26.353516 A 9.7058811 9.7058811 0 0 0 34.5 25.125 L 35.167969 24.945312 C 35.470953 24.864133 35.664838 24.584057 35.646484 24.283203 C 35.643859 24.240228 35.636513 24.195626 35.625 24.152344 C 35.532224 23.806095 35.178289 23.602533 34.832031 23.695312 L 34.166016 23.873047 A 9.7058811 9.7058811 0 0 0 33.695312 22.726562 L 34.289062 22.382812 C 34.483058 22.270799 34.598609 22.076036 34.613281 21.869141 C 34.621899 21.744987 34.594415 21.616417 34.527344 21.5 C 34.348125 21.189556 33.953024 21.084426 33.642578 21.263672 L 33.052734 21.603516 A 9.7058811 9.7058811 0 0 0 32.302734 20.613281 L 32.779297 20.136719 C 32.90607 20.00998 32.96875 19.84506 32.96875 19.679688 C 32.968753 19.514329 32.90607 19.34744 32.779297 19.220703 C 32.525819 18.967229 32.116758 18.967223 31.863281 19.220703 L 31.386719 19.697266 A 9.7058811 9.7058811 0 0 0 30.396484 18.947266 L 30.736328 18.357422 C 30.803524 18.241012 30.830868 18.112639 30.822266 17.988281 C 30.807828 17.78102 30.69403 17.584681 30.5 17.472656 C 30.18955 17.293423 29.796419 17.400483 29.617188 17.710938 L 29.273438 18.304688 A 9.7058811 9.7058811 0 0 0 28.126953 17.833984 L 28.304688 17.167969 C 28.316291 17.124686 28.323526 17.080083 28.326172 17.037109 C 28.34454 16.736244 28.150639 16.45618 27.847656 16.375 C 27.501402 16.28222 27.147465 16.485776 27.054688 16.832031 L 26.875 17.5 A 9.7058811 9.7058811 0 0 0 25.646484 17.341797 L 25.646484 16.646484 C 25.646484 16.288015 25.358473 16 25 16 z M 25 18.587891 A 8.4117633 8.4117633 0 0 1 33.207031 25.263672 L 32.117188 26.353516 L 26.824219 26.353516 A 1.9411761 1.9411761 0 0 0 25 25.058594 A 1.9411761 1.9411761 0 0 0 24.646484 25.095703 L 22.001953 20.513672 L 22.408203 18.998047 A 8.4117633 8.4117633 0 0 1 25 18.587891 z M 19.390625 20.759766 L 20.880859 21.160156 L 23.525391 25.738281 A 1.9411761 1.9411761 0 0 0 23.058594 27 A 1.9411761 1.9411761 0 0 0 23.525391 28.261719 L 20.880859 32.839844 L 19.390625 33.240234 A 8.4117633 8.4117633 0 0 1 16.587891 27 A 8.4117633 8.4117633 0 0 1 19.390625 20.759766 z M 25 26.353516 A 0.64705882 0.64705882 0 0 1 25.646484 27 A 0.64705882 0.64705882 0 0 1 25 27.646484 A 0.64705882 0.64705882 0 0 1 24.353516 27 A 0.64705882 0.64705882 0 0 1 25 26.353516 z M 26.830078 27.646484 L 32.117188 27.646484 L 33.226562 28.755859 A 8.4117633 8.4117633 0 0 1 25 35.412109 A 8.4117633 8.4117633 0 0 1 22.408203 35.001953 L 22.001953 33.486328 L 24.644531 28.90625 A 1.9411761 1.9411761 0 0 0 25 28.941406 A 1.9411761 1.9411761 0 0 0 26.830078 27.646484 z M 46 34 C 45.380826 33.999999 44.882817 34.498012 44.882812 35.117188 L 44.882812 36.316406 A 16.764647 16.764647 0 0 0 42.759766 36.591797 L 42.451172 35.439453 C 42.29092 34.841376 41.680107 34.488184 41.082031 34.648438 C 40.483951 34.808689 40.130764 35.419503 40.291016 36.017578 L 40.599609 37.167969 A 16.764647 16.764647 0 0 0 38.617188 37.978516 L 38.025391 36.955078 C 37.71581 36.418861 37.03622 36.235333 36.5 36.544922 C 35.963776 36.854503 35.782192 37.537999 36.091797 38.074219 L 36.679688 39.089844 A 16.764647 16.764647 0 0 0 34.966797 40.386719 L 34.144531 39.564453 C 33.706699 39.126629 33.002278 39.126629 32.564453 39.564453 C 32.12663 40.002285 32.126615 40.706715 32.564453 41.144531 L 33.386719 41.966797 A 16.764647 16.764647 0 0 0 32.089844 43.679688 L 31.074219 43.091797 C 30.537991 42.782216 29.854507 42.963764 29.544922 43.5 C 29.235333 44.03622 29.418841 44.715813 29.955078 45.025391 L 30.978516 45.617188 A 16.764647 16.764647 0 0 0 30.167969 47.599609 L 29.017578 47.291016 C 28.419495 47.130801 27.808689 47.483936 27.648438 48.082031 C 27.488173 48.680107 27.841389 49.290905 28.439453 49.451172 L 29.591797 49.759766 A 16.764647 16.764647 0 0 0 29.316406 51.882812 L 28.117188 51.882812 C 27.498011 51.882832 27.000002 52.380819 27 53 C 26.999998 53.61917 27.498019 54.117179 28.117188 54.117188 L 29.316406 54.117188 A 16.764647 16.764647 0 0 0 29.591797 56.240234 L 28.439453 56.548828 C 27.841377 56.70908 27.488182 57.319889 27.648438 57.917969 C 27.808693 58.516045 28.419506 58.869221 29.017578 58.708984 L 30.167969 58.400391 A 16.764647 16.764647 0 0 0 30.978516 60.382812 L 29.955078 60.974609 C 29.577307 61.192712 29.375116 61.593984 29.396484 62 L 34.634766 62 A 14.52936 14.52936 0 0 1 31.470703 53 A 14.52936 14.52936 0 0 1 36.3125 42.222656 L 38.886719 42.912109 L 43.453125 50.822266 A 3.3529292 3.3529292 0 0 0 42.646484 53 A 3.3529292 3.3529292 0 0 0 43.453125 55.177734 L 39.515625 62 L 42.09375 62 L 45.386719 56.292969 A 3.3529292 3.3529292 0 0 0 46 56.353516 A 3.3529292 3.3529292 0 0 0 49.160156 54.117188 L 54 54.117188 L 54 51.882812 L 49.152344 51.882812 A 3.3529292 3.3529292 0 0 0 46 49.646484 A 3.3529292 3.3529292 0 0 0 45.390625 49.710938 L 40.820312 41.794922 L 41.523438 39.179688 A 14.52936 14.52936 0 0 1 46 38.470703 A 14.52936 14.52936 0 0 1 54 40.90625 L 54 36.916016 C 53.991641 36.929216 53.982496 36.941418 53.974609 36.955078 L 53.382812 37.978516 A 16.764647 16.764647 0 0 0 51.400391 37.167969 L 51.708984 36.017578 C 51.729016 35.942819 51.741558 35.867195 51.746094 35.792969 C 51.777842 35.273294 51.441301 34.788658 50.917969 34.648438 C 50.319896 34.488185 49.70908 34.841377 49.548828 35.439453 L 49.240234 36.591797 A 16.764647 16.764647 0 0 0 47.117188 36.316406 L 47.117188 35.117188 C 47.117188 34.498011 46.619177 34.000001 46 34 z M 46 51.882812 A 1.1176432 1.1176432 0 0 1 47.117188 53 A 1.1176432 1.1176432 0 0 1 46 54.117188 A 1.1176432 1.1176432 0 0 1 44.882812 53 A 1.1176432 1.1176432 0 0 1 46 51.882812 z "
     transform="scale(0.26458334)" />
  <path
     id="rect9905"
     style="opacity:0.3;fill:url(#linearGradient10455);fill-opacity:1;stroke-width:2;stroke-linejoin:round"
     d="M 10 59 L 10 60 C 10 61.108 10.892 62 12 62 L 52 62 C 53.108 62 54 61.108 54 60 L 54 59 C 54 60.108 53.108 61 52 61 L 12 61 C 10.892 61 10 60.108 10 59 z "
     transform="scale(0.26458334)" />
</svg>
