<?xml version="1.0" encoding="UTF-8" standalone="no"?>
<!-- Created with Inkscape (http://www.inkscape.org/) -->

<svg
   width="64"
   height="64"
   viewBox="0 0 16.933333 16.933334"
   version="1.1"
   id="svg5"
   inkscape:version="1.1.1 (3bf5ae0d25, 2021-09-20, custom)"
   sodipodi:docname="application-ogg.svg"
   xmlns:inkscape="http://www.inkscape.org/namespaces/inkscape"
   xmlns:sodipodi="http://sodipodi.sourceforge.net/DTD/sodipodi-0.dtd"
   xmlns:xlink="http://www.w3.org/1999/xlink"
   xmlns="http://www.w3.org/2000/svg"
   xmlns:svg="http://www.w3.org/2000/svg">
  <sodipodi:namedview
     id="namedview7"
     pagecolor="#ffffff"
     bordercolor="#666666"
     borderopacity="1.0"
     inkscape:pageshadow="2"
     inkscape:pageopacity="0.0"
     inkscape:pagecheckerboard="0"
     inkscape:document-units="px"
     showgrid="false"
     units="px"
     height="64px"
     inkscape:zoom="11.313708"
     inkscape:cx="25.721009"
     inkscape:cy="27.709747"
     inkscape:window-width="1920"
     inkscape:window-height="1011"
     inkscape:window-x="0"
     inkscape:window-y="0"
     inkscape:window-maximized="1"
     inkscape:current-layer="svg5" />
  <defs
     id="defs2">
    <linearGradient
       inkscape:collect="always"
       id="linearGradient1775">
      <stop
         style="stop-color:#ffffff;stop-opacity:1;"
         offset="0"
         id="stop1771" />
      <stop
         style="stop-color:#fee19c;stop-opacity:1"
         offset="1"
         id="stop1773" />
    </linearGradient>
    <linearGradient
       inkscape:collect="always"
       id="linearGradient1256">
      <stop
         style="stop-color:#f7ca55;stop-opacity:1;"
         offset="0"
         id="stop1252" />
      <stop
         style="stop-color:#f4911e;stop-opacity:1"
         offset="1"
         id="stop1254" />
    </linearGradient>
    <linearGradient
       inkscape:collect="always"
       id="linearGradient10453">
      <stop
         style="stop-color:#666666;stop-opacity:1"
         offset="0"
         id="stop10449" />
      <stop
         style="stop-color:#666666;stop-opacity:0"
         offset="1"
         id="stop10451" />
    </linearGradient>
    <linearGradient
       inkscape:collect="always"
       id="linearGradient6263">
      <stop
         style="stop-color:#000000;stop-opacity:1;"
         offset="0"
         id="stop6259" />
      <stop
         style="stop-color:#000000;stop-opacity:0;"
         offset="1"
         id="stop6261" />
    </linearGradient>
    <linearGradient
       inkscape:collect="always"
       id="linearGradient3378">
      <stop
         style="stop-color:#b0b0b0;stop-opacity:1"
         offset="0"
         id="stop3374" />
      <stop
         style="stop-color:#fcfcfc;stop-opacity:1"
         offset="1"
         id="stop3376" />
    </linearGradient>
    <linearGradient
       inkscape:collect="always"
       xlink:href="#linearGradient3378"
       id="linearGradient3380"
       x1="14.942825"
       y1="1.1138821"
       x2="11.503234"
       y2="4.3115072"
       gradientUnits="userSpaceOnUse"
       gradientTransform="translate(-0.5291663,-0.52916667)" />
    <linearGradient
       inkscape:collect="always"
       xlink:href="#linearGradient6263"
       id="linearGradient6265"
       x1="11.90625"
       y1="2.3812501"
       x2="12.170834"
       y2="7.1437502"
       gradientUnits="userSpaceOnUse"
       gradientTransform="translate(-0.52916663,0.52916673)" />
    <linearGradient
       inkscape:collect="always"
       xlink:href="#linearGradient10453"
       id="linearGradient10455"
       x1="10"
       y1="72.5"
       x2="58"
       y2="32.5"
       gradientUnits="userSpaceOnUse" />
    <linearGradient
       inkscape:collect="always"
       xlink:href="#linearGradient6263"
       id="linearGradient2050"
       gradientUnits="userSpaceOnUse"
       x1="6.4097042"
       y1="14.02153"
       x2="12.974157"
       y2="6.8965893"
       gradientTransform="translate(0,0.26458326)" />
    <linearGradient
       inkscape:collect="always"
       xlink:href="#linearGradient1256"
       id="linearGradient1712"
       x1="2.1166666"
       y1="4.2529297e-07"
       x2="14.816668"
       y2="16.933334"
       gradientUnits="userSpaceOnUse" />
    <linearGradient
       inkscape:collect="always"
       xlink:href="#linearGradient1775"
       id="linearGradient1777"
       x1="8.7312498"
       y1="7.8053131"
       x2="8.7312584"
       y2="13.09698"
       gradientUnits="userSpaceOnUse" />
  </defs>
  <path
     id="rect1068"
     style="fill:url(#linearGradient1712);fill-opacity:1;stroke-width:0.529167;stroke-linejoin:round"
     d="m 3.175,0.5291667 7.143751,3e-8 3.968749,3.96874997 1e-6,11.3770833 c 0,0.293158 -0.236009,0.529167 -0.529167,0.529167 H 3.175 c -0.2931584,0 -0.5291667,-0.236009 -0.5291667,-0.529167 V 1.0583334 c 0,-0.29315835 0.2360083,-0.5291667 0.5291667,-0.5291667 z"
     sodipodi:nodetypes="cccsssssc" />
  <path
     id="rect9905"
     style="opacity:0.3;fill:url(#linearGradient10455);fill-opacity:1;stroke-width:2;stroke-linejoin:round"
     d="M 10 59 L 10 60 C 10 61.108 10.892 62 12 62 L 52 62 C 53.108 62 54 61.108 54 60 L 54 59 C 54 60.108 53.108 61 52 61 L 12 61 C 10.892 61 10 60.108 10 59 z "
     transform="scale(0.26458334)" />
  <path
     id="rect5598"
     style="opacity:0.2;fill:url(#linearGradient6265);fill-opacity:1;stroke-width:0.529167;stroke-linejoin:round"
     d="M 10.444901,4.3115072 10.31875,3.4395834 14.2875,4.4979167 v 3.7041668 z"
     sodipodi:nodetypes="ccccc" />
  <path
     id="rect2607"
     style="fill:url(#linearGradient3380);fill-opacity:1;stroke-width:0.529167;stroke-linejoin:round"
     d="m 14.2875,4.4979167 -3.439583,-1e-7 c -0.293158,0 -0.529166,-0.2360083 -0.529166,-0.5291667 V 0.52916673 Z"
     sodipodi:nodetypes="csscc" />
  <path
     id="path7876"
     style="fill:url(#linearGradient1777);fill-opacity:1;stroke-width:0.185858"
     d="m 10.5823,6.6145835 c -0.03562,-1.614e-4 -0.07288,0.00522 -0.112138,0.01602 L 7.4460573,7.4625938 C 7.2366589,7.5202063 7.0683027,7.7353363 7.0683027,7.944735 v 3.546554 c 0,0 -0.017148,0.210433 -0.2309937,0.198437 -0.1066679,-0.01368 -0.2203001,-0.01107 -0.3358968,0.0093 -0.5218038,0.09201 -0.945061,0.504964 -0.9451621,0.922424 -1.013e-4,0.417575 0.4232151,0.681662 0.9451621,0.589629 0.454423,-0.09497 0.869922,-0.447301 0.9446451,-0.835091 V 8.4826866 L 10.470162,7.6506961 v 2.9047329 c 0,0 -0.01766,0.209916 -0.23151,0.19792 -0.106667,-0.01369 -0.2203,-0.01059 -0.3358971,0.0098 -0.5218039,0.09201 -0.9445432,0.504963 -0.9446451,0.922424 -1.011e-4,0.417575 0.4226981,0.681661 0.9446451,0.589628 0.4544231,-0.09497 0.8704381,-0.4473 0.9451621,-0.835091 V 6.9044883 C 10.849013,6.717171 10.736659,6.6152828 10.5823,6.6145835 Z" />
  <path
     id="path7876-7"
     style="opacity:0.2;fill:url(#linearGradient2050);fill-opacity:1;stroke-width:0.185858"
     d="M 10.469933,7.6508869 7.4458279,8.4828774 V 8.7474607 L 10.469933,7.9154702 Z m 0.377984,3.7892421 C 10.773197,11.82792 10.357179,12.18025 9.9027549,12.27522 9.437284,12.35729 9.0507732,12.155931 8.9725791,11.8153 c -0.00948,0.04461 -0.01446,0.08976 -0.01447,0.134876 -1.021e-4,0.417575 0.4226991,0.681661 0.9446451,0.589628 0.4544248,-0.09497 0.8704388,-0.4473 0.9451628,-0.835092 z M 7.4460573,12.37599 c -0.074723,0.38779 -0.4902221,0.740121 -0.9446451,0.835091 -0.4654719,0.08207 -0.8524984,-0.11929 -0.9306925,-0.459921 -0.00952,0.0447 -0.01446,0.08967 -0.01447,0.134876 -1.013e-4,0.417575 0.4232151,0.681661 0.9451621,0.589628 0.4544229,-0.09497 0.869922,-0.4473 0.9446451,-0.835091 z"
     sodipodi:nodetypes="ccccccccsccccccsccc" />
</svg>
