<?xml version="1.0" encoding="UTF-8" standalone="no"?>
<!-- Created with Inkscape (http://www.inkscape.org/) -->

<svg
   width="64"
   height="64"
   viewBox="0 0 16.933333 16.933334"
   version="1.1"
   id="svg5"
   inkscape:version="1.1.1 (3bf5ae0d25, 2021-09-20, custom)"
   sodipodi:docname="application-x-java-archive.svg"
   xmlns:inkscape="http://www.inkscape.org/namespaces/inkscape"
   xmlns:sodipodi="http://sodipodi.sourceforge.net/DTD/sodipodi-0.dtd"
   xmlns:xlink="http://www.w3.org/1999/xlink"
   xmlns="http://www.w3.org/2000/svg"
   xmlns:svg="http://www.w3.org/2000/svg">
  <sodipodi:namedview
     id="namedview7"
     pagecolor="#ffffff"
     bordercolor="#666666"
     borderopacity="1.0"
     inkscape:pageshadow="2"
     inkscape:pageopacity="0.0"
     inkscape:pagecheckerboard="0"
     inkscape:document-units="px"
     showgrid="false"
     units="px"
     height="64px"
     inkscape:zoom="4"
     inkscape:cx="21.25"
     inkscape:cy="1"
     inkscape:window-width="1920"
     inkscape:window-height="1011"
     inkscape:window-x="0"
     inkscape:window-y="0"
     inkscape:window-maximized="1"
     inkscape:current-layer="svg5" />
  <defs
     id="defs2">
    <linearGradient
       inkscape:collect="always"
       id="linearGradient12875">
      <stop
         style="stop-color:#f9aa61;stop-opacity:1"
         offset="0"
         id="stop12871" />
      <stop
         style="stop-color:#f66b2f;stop-opacity:1"
         offset="1"
         id="stop12873" />
    </linearGradient>
    <linearGradient
       inkscape:collect="always"
       id="linearGradient10453">
      <stop
         style="stop-color:#666666;stop-opacity:1"
         offset="0"
         id="stop10449" />
      <stop
         style="stop-color:#666666;stop-opacity:0"
         offset="1"
         id="stop10451" />
    </linearGradient>
    <linearGradient
       inkscape:collect="always"
       id="linearGradient6263">
      <stop
         style="stop-color:#000000;stop-opacity:1;"
         offset="0"
         id="stop6259" />
      <stop
         style="stop-color:#000000;stop-opacity:0;"
         offset="1"
         id="stop6261" />
    </linearGradient>
    <linearGradient
       inkscape:collect="always"
       id="linearGradient3378">
      <stop
         style="stop-color:#b0b0b0;stop-opacity:1"
         offset="0"
         id="stop3374" />
      <stop
         style="stop-color:#fcfcfc;stop-opacity:1"
         offset="1"
         id="stop3376" />
    </linearGradient>
    <linearGradient
       inkscape:collect="always"
       xlink:href="#linearGradient3378"
       id="linearGradient3380"
       x1="13.884492"
       y1="2.1722155"
       x2="10.974068"
       y2="4.8406739"
       gradientUnits="userSpaceOnUse"
       gradientTransform="translate(-0.5291663,-0.52916667)" />
    <linearGradient
       inkscape:collect="always"
       xlink:href="#linearGradient6263"
       id="linearGradient6265"
       x1="11.90625"
       y1="2.3812501"
       x2="12.170834"
       y2="7.1437502"
       gradientUnits="userSpaceOnUse"
       gradientTransform="translate(-0.52916663,0.52916673)" />
    <linearGradient
       inkscape:collect="always"
       xlink:href="#linearGradient10453"
       id="linearGradient10455"
       x1="10"
       y1="72.5"
       x2="58"
       y2="32.5"
       gradientUnits="userSpaceOnUse" />
    <linearGradient
       inkscape:collect="always"
       xlink:href="#linearGradient12875"
       id="linearGradient12877"
       x1="5.2916708"
       y1="2.6458337"
       x2="12.170835"
       y2="15.345834"
       gradientUnits="userSpaceOnUse" />
  </defs>
  <path
     id="rect1068"
     style="fill:url(#linearGradient12877);fill-opacity:1;stroke-width:0.529167;stroke-linejoin:round"
     d="m 3.175,0.5291667 7.143751,3e-8 3.968749,3.96874997 1e-6,11.3770833 c 0,0.293158 -0.236009,0.529167 -0.529167,0.529167 H 3.175 c -0.2931584,0 -0.5291667,-0.236009 -0.5291667,-0.529167 V 1.0583334 c 0,-0.29315835 0.2360083,-0.5291667 0.5291667,-0.5291667 z"
     sodipodi:nodetypes="cccsssssc" />
  <path
     id="rect5598"
     style="opacity:0.3;fill:url(#linearGradient6265);fill-opacity:1;stroke-width:0.529167;stroke-linejoin:round"
     d="M 10.444901,4.3115072 10.31875,3.4395834 14.2875,4.4979167 v 3.7041668 z"
     sodipodi:nodetypes="ccccc" />
  <path
     id="rect2607"
     style="fill:url(#linearGradient3380);fill-opacity:1;stroke-width:0.529167;stroke-linejoin:round"
     d="m 14.2875,4.4979167 -3.439583,-1e-7 c -0.293158,0 -0.529166,-0.2360083 -0.529166,-0.5291667 V 0.52916673 Z"
     sodipodi:nodetypes="csscc" />
  <path
     id="path22"
     style="opacity:0.4;fill:#ffffff;stroke-width:0.944591"
     d="M 21.056641 27.894531 C 22.640031 34.132328 15.469995 36.01558 12.882812 39.900391 C 11.121008 42.547269 13.749015 45.392284 17.330078 48.623047 C 15.933623 45.466257 11.19801 42.704329 17.332031 37.859375 C 24.981236 31.821511 21.056641 27.894531 21.056641 27.894531 z M 25.789062 35.611328 C 25.789147 35.611328 12.855864 38.84083 19.033203 45.958984 C 20.856799 48.058145 18.552734 49.947266 18.552734 49.947266 C 18.552734 49.947266 23.181415 47.557057 21.056641 44.564453 C 19.071391 41.775056 17.549117 40.389731 25.789062 35.611328 z M 28.080078 48.326172 C 27.625628 48.327718 27.143501 48.40806 26.648438 48.582031 C 26.251538 48.722554 26.042969 49.048828 26.042969 49.048828 C 26.042969 49.048828 26.294036 48.946866 26.853516 48.830078 C 29.141467 48.35334 32.419243 51.895289 25.330078 55.578125 C 25.297234 55.665923 25.189359 55.761719 25.189453 55.761719 C 33.620287 53.545408 31.780965 48.319032 28.080078 48.326172 z M 12.597656 48.6875 C 12.097328 48.697317 11.171632 48.761882 10 49.044922 L 10 49.638672 C 11.159017 49.132525 13.011719 48.691406 13.011719 48.691406 C 13.011719 48.691406 12.968163 48.688634 12.888672 48.6875 C 12.819253 48.685894 12.722052 48.68504 12.597656 48.6875 z M 25.359375 50.068359 C 25.359375 50.068359 22.506203 50.579822 19.664062 50.818359 C 16.185198 51.110177 12.453227 51.166674 10.580078 50.916016 C 10.356991 50.886191 10.168209 50.853093 10 50.818359 L 10 51.835938 C 13.791637 52.202702 19.726088 52.019731 23.632812 50.992188 C 24.35789 50.497357 25.359375 50.068359 25.359375 50.068359 z M 11.412109 52.978516 C 10.792938 53.18401 10.328514 53.391626 10 53.597656 L 10 55.105469 C 11.94526 56.176803 18.142291 56.583431 23.916016 54.894531 C 22.965922 54.559658 22.363281 53.949219 22.363281 53.949219 C 17.991208 54.79064 15.4645 54.761858 12.265625 54.431641 C 9.7925955 54.17602 11.412109 52.978516 11.412109 52.978516 z M 12.316406 57.113281 C 6.5070306 58.736517 15.850802 62.08923 23.248047 58.919922 C 22.036523 58.449155 21.167969 57.90625 21.167969 57.90625 C 17.869328 58.529747 16.339882 58.580105 13.345703 58.238281 C 10.874531 57.954851 12.316406 57.113281 12.316406 57.113281 z M 28.814453 60.173828 C 28.814453 60.173828 29.881542 61.055284 27.636719 61.736328 C 27.330622 61.82904 26.974124 61.916926 26.580078 62 L 28.365234 62 C 29.700325 61.369129 29.967923 60.694262 28.814453 60.173828 z "
     transform="scale(0.26458334)" />
  <path
     id="rect11027"
     style="opacity:0.6;fill:#fefefe;fill-opacity:1;stroke-width:0.703438;stroke-linejoin:round"
     d="m 24,2 v 2 h 2 V 2 Z m 0,2 h -2 v 2 h 2 z m 0,2 v 2 h 2 V 6 Z m 0,2 h -2 v 2 h 2 z m 0,2 v 2 h 2 v -2 z m 0,2 h -2 v 2 h 2 z m 0,2 v 2 h 2 v -2 z m 0,2 h -2 v 2 h 2 z m 0,2 v 2 h 2 v -2 z m 0,2 h -2 v 2 h 2 z m 0,2 v 2 h 2 v -2 z m -2,3 v 5 c 0,0.554 0.446,1 1,1 h 2 c 0.554,0 1,-0.446 1,-1 v -5 z m 1,3 h 2 v 2 h -2 z"
     transform="scale(0.26458334)" />
  <path
     id="rect9905"
     style="opacity:0.3;fill:url(#linearGradient10455);fill-opacity:1;stroke-width:2;stroke-linejoin:round"
     d="M 10 59 L 10 60 C 10 61.108 10.892 62 12 62 L 52 62 C 53.108 62 54 61.108 54 60 L 54 59 C 54 60.108 53.108 61 52 61 L 12 61 C 10.892 61 10 60.108 10 59 z "
     transform="scale(0.26458334)" />
</svg>
