<?xml version="1.0" encoding="UTF-8" standalone="no"?>
<!-- Created with Inkscape (http://www.inkscape.org/) -->

<svg
   width="64"
   height="64"
   viewBox="0 0 16.933333 16.933334"
   version="1.1"
   id="svg5"
   inkscape:version="1.1.1 (3bf5ae0d25, 2021-09-20, custom)"
   sodipodi:docname="application-x-bzip.svg"
   xmlns:inkscape="http://www.inkscape.org/namespaces/inkscape"
   xmlns:sodipodi="http://sodipodi.sourceforge.net/DTD/sodipodi-0.dtd"
   xmlns:xlink="http://www.w3.org/1999/xlink"
   xmlns="http://www.w3.org/2000/svg"
   xmlns:svg="http://www.w3.org/2000/svg">
  <sodipodi:namedview
     id="namedview7"
     pagecolor="#ffffff"
     bordercolor="#666666"
     borderopacity="1.0"
     inkscape:pageshadow="2"
     inkscape:pageopacity="0.0"
     inkscape:pagecheckerboard="0"
     inkscape:document-units="px"
     showgrid="false"
     units="px"
     height="64px"
     inkscape:zoom="8"
     inkscape:cx="31.5"
     inkscape:cy="37.25"
     inkscape:window-width="1920"
     inkscape:window-height="1011"
     inkscape:window-x="0"
     inkscape:window-y="0"
     inkscape:window-maximized="1"
     inkscape:current-layer="svg5" />
  <defs
     id="defs2">
    <linearGradient
       inkscape:collect="always"
       id="linearGradient12875">
      <stop
         style="stop-color:#a26dc8;stop-opacity:1"
         offset="0"
         id="stop12871" />
      <stop
         style="stop-color:#832dbe;stop-opacity:1"
         offset="1"
         id="stop12873" />
    </linearGradient>
    <linearGradient
       inkscape:collect="always"
       id="linearGradient10453">
      <stop
         style="stop-color:#666666;stop-opacity:1"
         offset="0"
         id="stop10449" />
      <stop
         style="stop-color:#666666;stop-opacity:0"
         offset="1"
         id="stop10451" />
    </linearGradient>
    <linearGradient
       inkscape:collect="always"
       id="linearGradient6263">
      <stop
         style="stop-color:#000000;stop-opacity:1;"
         offset="0"
         id="stop6259" />
      <stop
         style="stop-color:#000000;stop-opacity:0;"
         offset="1"
         id="stop6261" />
    </linearGradient>
    <linearGradient
       inkscape:collect="always"
       id="linearGradient3378">
      <stop
         style="stop-color:#b0b0b0;stop-opacity:1"
         offset="0"
         id="stop3374" />
      <stop
         style="stop-color:#fcfcfc;stop-opacity:1"
         offset="1"
         id="stop3376" />
    </linearGradient>
    <linearGradient
       inkscape:collect="always"
       xlink:href="#linearGradient3378"
       id="linearGradient3380"
       x1="13.884492"
       y1="2.1722155"
       x2="10.974068"
       y2="4.8406739"
       gradientUnits="userSpaceOnUse"
       gradientTransform="translate(-0.5291663,-0.52916667)" />
    <linearGradient
       inkscape:collect="always"
       xlink:href="#linearGradient6263"
       id="linearGradient6265"
       x1="11.90625"
       y1="2.3812501"
       x2="12.170834"
       y2="7.1437502"
       gradientUnits="userSpaceOnUse"
       gradientTransform="translate(-0.52916663,0.52916673)" />
    <linearGradient
       inkscape:collect="always"
       xlink:href="#linearGradient10453"
       id="linearGradient10455"
       x1="10"
       y1="72.5"
       x2="58"
       y2="32.5"
       gradientUnits="userSpaceOnUse" />
    <linearGradient
       inkscape:collect="always"
       xlink:href="#linearGradient12875"
       id="linearGradient12877"
       x1="5.2916708"
       y1="2.6458337"
       x2="12.170835"
       y2="15.345834"
       gradientUnits="userSpaceOnUse" />
  </defs>
  <path
     id="rect1068"
     style="fill:url(#linearGradient12877);fill-opacity:1;stroke-width:0.529167;stroke-linejoin:round"
     d="m 3.175,0.5291667 7.143751,3e-8 3.968749,3.96874997 1e-6,11.3770833 c 0,0.293158 -0.236009,0.529167 -0.529167,0.529167 H 3.175 c -0.2931584,0 -0.5291667,-0.236009 -0.5291667,-0.529167 V 1.0583334 c 0,-0.29315835 0.2360083,-0.5291667 0.5291667,-0.5291667 z"
     sodipodi:nodetypes="cccsssssc" />
  <path
     id="rect5598"
     style="opacity:0.3;fill:url(#linearGradient6265);fill-opacity:1;stroke-width:0.529167;stroke-linejoin:round"
     d="M 10.444901,4.3115072 10.31875,3.4395834 14.2875,4.4979167 v 3.7041668 z"
     sodipodi:nodetypes="ccccc" />
  <path
     id="rect2607"
     style="fill:url(#linearGradient3380);fill-opacity:1;stroke-width:0.529167;stroke-linejoin:round"
     d="m 14.2875,4.4979167 -3.439583,-1e-7 c -0.293158,0 -0.529166,-0.2360083 -0.529166,-0.5291667 V 0.52916673 Z"
     sodipodi:nodetypes="csscc" />
  <path
     id="rect11027"
     style="opacity:0.6;fill:#fefefe;fill-opacity:1;stroke-width:0.703438;stroke-linejoin:round"
     d="m 24,2 v 2 h 2 V 2 Z m 0,2 h -2 v 2 h 2 z m 0,2 v 2 h 2 V 6 Z m 0,2 h -2 v 2 h 2 z m 0,2 v 2 h 2 v -2 z m 0,2 h -2 v 2 h 2 z m 0,2 v 2 h 2 v -2 z m 0,2 h -2 v 2 h 2 z m 0,2 v 2 h 2 v -2 z m 0,2 h -2 v 2 h 2 z m 0,2 v 2 h 2 v -2 z m -2,3 v 5 c 0,0.554 0.446,1 1,1 h 2 c 0.554,0 1,-0.446 1,-1 v -5 z m 1,3 h 2 v 2 h -2 z"
     transform="scale(0.26458334)" />
  <path
     id="rect9905"
     style="opacity:0.3;fill:url(#linearGradient10455);fill-opacity:1;stroke-width:2;stroke-linejoin:round"
     d="M 10 59 L 10 60 C 10 61.108 10.892 62 12 62 L 52 62 C 53.108 62 54 61.108 54 60 L 54 59 C 54 60.108 53.108 61 52 61 L 12 61 C 10.892 61 10 60.108 10 59 z "
     transform="scale(0.26458334)" />
  <path
     id="path40910"
     style="font-size:2.42598px;line-height:1.25;font-family:'Google Sans';-inkscape-font-specification:'Google Sans';opacity:0.6;stroke-width:0.229227;fill:#ffffff"
     d="m 45.416016,50.074219 c -0.140755,0.0064 -0.26403,0.0609 -0.367188,0.164062 -0.110035,0.103915 -0.164062,0.231947 -0.164062,0.384766 0,0.152811 0.05403,0.284496 0.164062,0.394531 0.110027,0.110035 0.241712,0.166016 0.394531,0.166016 0.158937,0 0.29062,-0.05598 0.394532,-0.166016 0.110034,-0.110027 0.164062,-0.241712 0.164062,-0.394531 0,-0.152822 -0.05403,-0.280854 -0.164062,-0.384766 -0.11003,-0.110034 -0.241713,-0.164062 -0.394532,-0.164062 -0.0096,0 -0.01796,-4.3e-4 -0.02734,0 z M 35,50.15625 v 6.564453 h 0.742188 v -0.6875 h 0.03711 c 0.140592,0.232285 0.351628,0.430664 0.632812,0.595703 0.287297,0.158942 0.608354,0.238281 0.962891,0.238282 0.415663,0 0.794407,-0.106367 1.136719,-0.320313 0.342314,-0.213944 0.611037,-0.507984 0.80664,-0.880859 0.195604,-0.378986 0.292969,-0.806411 0.292969,-1.283204 0,-0.470677 -0.09737,-0.896402 -0.292969,-1.27539 -0.195605,-0.378986 -0.464328,-0.674726 -0.80664,-0.888672 -0.342312,-0.213946 -0.721056,-0.320313 -1.136719,-0.320312 -0.354537,0 -0.675594,0.08301 -0.962891,0.248046 -0.281183,0.15894 -0.492219,0.357316 -0.632812,0.595704 h -0.03711 l 0.03711,-0.652344 V 50.15625 Z m 14.330078,1.742188 c -0.328439,0.0097 -0.627143,0.09332 -0.896484,0.248046 -0.281177,0.15894 -0.492214,0.357316 -0.632813,0.595704 h -0.03711 v -0.697266 h -0.742188 v 6.65625 h 0.779297 v -2.025391 l -0.03711,-0.642578 h 0.03711 c 0.140591,0.232285 0.351629,0.430664 0.632813,0.595703 0.287297,0.158942 0.6064,0.238281 0.960937,0.238282 0.415665,0 0.79636,-0.106367 1.138672,-0.320313 0.342314,-0.213944 0.611038,-0.507984 0.806641,-0.880859 0.195603,-0.378986 0.292968,-0.806411 0.292968,-1.283204 0,-0.470677 -0.09737,-0.896402 -0.292968,-1.27539 -0.195606,-0.378986 -0.464329,-0.674726 -0.806641,-0.888672 -0.342312,-0.213946 -0.723007,-0.320313 -1.138672,-0.320312 -0.02216,0 -0.04256,-6.45e-4 -0.06445,0 z m -9.058594,0.146484 V 52.75 h 2.677735 l -2.759766,3.300781 v 0.669922 h 3.787109 v -0.705078 h -2.841796 l 2.767578,-3.300781 v -0.669922 z m 4.78711,0 v 4.675781 h 0.769531 v -4.675781 z m -7.775391,0.558594 c 0.26896,0 0.523324,0.07401 0.761719,0.220703 0.23839,0.146703 0.427761,0.357741 0.568359,0.632812 0.146696,0.268959 0.21875,0.577357 0.21875,0.925781 0,0.348425 -0.07205,0.660476 -0.21875,0.935547 -0.140601,0.268969 -0.329972,0.476351 -0.568359,0.623047 -0.238396,0.146696 -0.49276,0.220703 -0.761719,0.220703 -0.26896,0 -0.523324,-0.07401 -0.761719,-0.220703 -0.238396,-0.146706 -0.427768,-0.354088 -0.568359,-0.623047 -0.140593,-0.268958 -0.210937,-0.581009 -0.210937,-0.935547 0,-0.354537 0.07034,-0.666588 0.210937,-0.935546 0.140593,-0.268967 0.329964,-0.476351 0.568359,-0.623047 0.238396,-0.146696 0.49276,-0.220703 0.761719,-0.220703 z m 12.021485,0 c 0.268968,0 0.521378,0.07401 0.759765,0.220703 0.23839,0.146703 0.427761,0.357741 0.568359,0.632812 0.146697,0.268959 0.220704,0.577357 0.220704,0.925781 0,0.348425 -0.07401,0.660476 -0.220704,0.935547 -0.1406,0.268969 -0.329971,0.476351 -0.568359,0.623047 -0.238395,0.146696 -0.490804,0.220703 -0.759765,0.220703 -0.268967,0 -0.523332,-0.07401 -0.761719,-0.220703 -0.23839,-0.146706 -0.427761,-0.354088 -0.56836,-0.623047 -0.140598,-0.268958 -0.210937,-0.581009 -0.210937,-0.935547 0,-0.354537 0.07034,-0.666588 0.210937,-0.935546 0.140601,-0.268967 0.329972,-0.476351 0.56836,-0.623047 0.238395,-0.146696 0.49276,-0.220703 0.761719,-0.220703 z"
     transform="scale(0.26458334)" />
</svg>
