<?xml version="1.0" encoding="UTF-8" standalone="no"?>
<!-- Created with Inkscape (http://www.inkscape.org/) -->

<svg
   width="64"
   height="64"
   viewBox="0 0 16.933333 16.933334"
   version="1.1"
   id="svg5"
   inkscape:version="1.1.1 (3bf5ae0d25, 2021-09-20, custom)"
   sodipodi:docname="application-x-msi.svg"
   xmlns:inkscape="http://www.inkscape.org/namespaces/inkscape"
   xmlns:sodipodi="http://sodipodi.sourceforge.net/DTD/sodipodi-0.dtd"
   xmlns:xlink="http://www.w3.org/1999/xlink"
   xmlns="http://www.w3.org/2000/svg"
   xmlns:svg="http://www.w3.org/2000/svg">
  <sodipodi:namedview
     id="namedview7"
     pagecolor="#ffffff"
     bordercolor="#666666"
     borderopacity="1.0"
     inkscape:pageshadow="2"
     inkscape:pageopacity="0.0"
     inkscape:pagecheckerboard="0"
     inkscape:document-units="px"
     showgrid="false"
     units="px"
     height="64px"
     inkscape:zoom="4.7081526"
     inkscape:cx="4.8851433"
     inkscape:cy="43.010501"
     inkscape:window-width="1920"
     inkscape:window-height="1019"
     inkscape:window-x="0"
     inkscape:window-y="0"
     inkscape:window-maximized="1"
     inkscape:current-layer="svg5" />
  <defs
     id="defs2">
    <linearGradient
       inkscape:collect="always"
       id="linearGradient4180">
      <stop
         style="stop-color:#36a7ff;stop-opacity:1;"
         offset="0"
         id="stop4176" />
      <stop
         style="stop-color:#36e4ff;stop-opacity:1"
         offset="1"
         id="stop4178" />
    </linearGradient>
    <linearGradient
       inkscape:collect="always"
       id="linearGradient10453">
      <stop
         style="stop-color:#666666;stop-opacity:1"
         offset="0"
         id="stop10449" />
      <stop
         style="stop-color:#666666;stop-opacity:0"
         offset="1"
         id="stop10451" />
    </linearGradient>
    <linearGradient
       inkscape:collect="always"
       id="linearGradient6263">
      <stop
         style="stop-color:#000000;stop-opacity:1;"
         offset="0"
         id="stop6259" />
      <stop
         style="stop-color:#000000;stop-opacity:0;"
         offset="1"
         id="stop6261" />
    </linearGradient>
    <linearGradient
       inkscape:collect="always"
       id="linearGradient3378">
      <stop
         style="stop-color:#b0b0b0;stop-opacity:1"
         offset="0"
         id="stop3374" />
      <stop
         style="stop-color:#fcfcfc;stop-opacity:1"
         offset="1"
         id="stop3376" />
    </linearGradient>
    <linearGradient
       inkscape:collect="always"
       xlink:href="#linearGradient3378"
       id="linearGradient3380"
       x1="14.942825"
       y1="1.1138821"
       x2="11.503234"
       y2="4.3115072"
       gradientUnits="userSpaceOnUse"
       gradientTransform="translate(-0.5291663,-0.52916667)" />
    <linearGradient
       inkscape:collect="always"
       xlink:href="#linearGradient6263"
       id="linearGradient6265"
       x1="11.90625"
       y1="2.3812501"
       x2="12.170834"
       y2="7.1437502"
       gradientUnits="userSpaceOnUse"
       gradientTransform="translate(-0.52916663,0.52916673)" />
    <linearGradient
       inkscape:collect="always"
       xlink:href="#linearGradient10453"
       id="linearGradient10455"
       x1="10"
       y1="72.5"
       x2="58"
       y2="32.5"
       gradientUnits="userSpaceOnUse" />
    <linearGradient
       inkscape:collect="always"
       xlink:href="#linearGradient4180"
       id="linearGradient4182"
       x1="14.816667"
       y1="16.404167"
       x2="2.116668"
       y2="4.2529297e-07"
       gradientUnits="userSpaceOnUse" />
  </defs>
  <path
     id="rect1068"
     style="fill:url(#linearGradient4182);fill-opacity:1;stroke-width:0.529167;stroke-linejoin:round"
     d="m 3.175,0.5291667 7.143751,3e-8 3.968749,3.96874997 1e-6,11.3770833 c 0,0.293158 -0.236009,0.529167 -0.529167,0.529167 H 3.175 c -0.2931584,0 -0.5291667,-0.236009 -0.5291667,-0.529167 V 1.0583334 c 0,-0.29315835 0.2360083,-0.5291667 0.5291667,-0.5291667 z"
     sodipodi:nodetypes="cccsssssc" />
  <path
     id="rect9905"
     style="opacity:0.3;fill:url(#linearGradient10455);fill-opacity:1;stroke-width:2;stroke-linejoin:round"
     d="M 10 59 L 10 60 C 10 61.108 10.892 62 12 62 L 52 62 C 53.108 62 54 61.108 54 60 L 54 59 C 54 60.108 53.108 61 52 61 L 12 61 C 10.892 61 10 60.108 10 59 z "
     transform="scale(0.26458334)" />
  <path
     id="rect5598"
     style="opacity:0.2;fill:url(#linearGradient6265);fill-opacity:1;stroke-width:0.529167;stroke-linejoin:round"
     d="M 10.444901,4.3115072 10.31875,3.4395834 14.2875,4.4979167 v 3.7041668 z"
     sodipodi:nodetypes="ccccc" />
  <path
     id="rect2607"
     style="fill:url(#linearGradient3380);fill-opacity:1;stroke-width:0.529167;stroke-linejoin:round"
     d="m 14.2875,4.4979167 -3.439583,-1e-7 c -0.293158,0 -0.529166,-0.2360083 -0.529166,-0.5291667 V 0.52916673 Z"
     sodipodi:nodetypes="csscc" />
  <path
     id="rect863-3"
     style="fill:#ffffff;fill-opacity:1;stroke-width:0.177991;opacity:0.6"
     d="m 13.229167,12.170833 h -1.322916 v 1.322919 h 1.322916 z m -1.5875,0 -1.322917,10e-7 v 1.322918 h 1.322917 z m -1.322917,1.587503 v 1.322917 l 1.322917,-2e-6 v -1.322915 z m 1.587501,0 v 1.322915 h 1.322916 v -1.322915 z"
     sodipodi:nodetypes="cccccccccccccccccccc" />
  <path
     id="rect11027"
     style="opacity:0.6;fill:#fefefe;fill-opacity:1;stroke-width:0.186118;stroke-linejoin:round"
     d="M 6.3500007,0.52916667 V 1.0583327 h 0.529166 V 0.52916667 Z m 0,0.52916603 h -0.529167 v 0.529167 h 0.529167 z m 0,0.529167 v 0.529167 h 0.529166 v -0.529167 z m 0,0.529167 h -0.529167 v 0.529166 h 0.529167 z m 0,0.529166 v 0.529167 h 0.529166 v -0.529167 z m 0,0.529167 h -0.529167 v 0.529167 h 0.529167 z m 0,0.529167 v 0.529166 h 0.529166 v -0.529166 z m 0,0.529166 h -0.529167 v 0.529167 h 0.529167 z m 0,0.529167 v 0.529167 h 0.529166 v -0.529167 z m 0,0.529167 h -0.529167 v 0.529166 h 0.529167 z m 0,0.529166 v 0.529167 h 0.529166 v -0.529167 z m -0.529167,0.79375 v 1.322917 c 0,0.146579 0.118004,0.264584 0.264583,0.264584 h 0.529167 c 0.146579,0 0.264583,-0.118005 0.264583,-0.264584 v -1.322917 z m 0.264583,0.793751 h 0.529167 v 0.529166 h -0.529167 z" />
  <path
     id="rect1614"
     style="opacity:0.3;fill:#ffffff;fill-opacity:1;stroke-width:0.273862;stroke-linejoin:round"
     d="m 3.7041667,12.7 v 0.264584 h 3.175 V 12.7 Z m 0,0.529167 v 0.264583 h 2.645834 v -0.264583 z m 0,0.529167 v 0.264583 h 3.175 v -0.264583 z m 0,0.529166 v 0.264584 h 2.116667 V 14.2875 Z" />
</svg>
