<?xml version="1.0" encoding="UTF-8" standalone="no"?>
<!-- Created with Inkscape (http://www.inkscape.org/) -->

<svg
   width="64"
   height="64"
   viewBox="0 0 16.933333 16.933334"
   version="1.1"
   id="svg5"
   inkscape:version="1.1.1 (3bf5ae0d25, 2021-09-20, custom)"
   sodipodi:docname="application-msonenote.svg"
   xmlns:inkscape="http://www.inkscape.org/namespaces/inkscape"
   xmlns:sodipodi="http://sodipodi.sourceforge.net/DTD/sodipodi-0.dtd"
   xmlns:xlink="http://www.w3.org/1999/xlink"
   xmlns="http://www.w3.org/2000/svg"
   xmlns:svg="http://www.w3.org/2000/svg">
  <sodipodi:namedview
     id="namedview7"
     pagecolor="#ffffff"
     bordercolor="#666666"
     borderopacity="1.0"
     inkscape:pageshadow="2"
     inkscape:pageopacity="0.0"
     inkscape:pagecheckerboard="0"
     inkscape:document-units="px"
     showgrid="false"
     units="px"
     height="64px"
     inkscape:zoom="35.620504"
     inkscape:cx="20.128856"
     inkscape:cy="42.222872"
     inkscape:window-width="1920"
     inkscape:window-height="1011"
     inkscape:window-x="0"
     inkscape:window-y="0"
     inkscape:window-maximized="1"
     inkscape:current-layer="svg5"
     showguides="false" />
  <defs
     id="defs2">
    <linearGradient
       inkscape:collect="always"
       id="linearGradient2401">
      <stop
         style="stop-color:#80397b;stop-opacity:1"
         offset="0"
         id="stop2397" />
      <stop
         style="stop-color:#7d39df;stop-opacity:1"
         offset="1"
         id="stop2399" />
    </linearGradient>
    <linearGradient
       inkscape:collect="always"
       id="linearGradient10453">
      <stop
         style="stop-color:#666666;stop-opacity:1"
         offset="0"
         id="stop10449" />
      <stop
         style="stop-color:#666666;stop-opacity:0"
         offset="1"
         id="stop10451" />
    </linearGradient>
    <linearGradient
       inkscape:collect="always"
       id="linearGradient6263">
      <stop
         style="stop-color:#000000;stop-opacity:1;"
         offset="0"
         id="stop6259" />
      <stop
         style="stop-color:#000000;stop-opacity:0;"
         offset="1"
         id="stop6261" />
    </linearGradient>
    <linearGradient
       inkscape:collect="always"
       id="linearGradient3378">
      <stop
         style="stop-color:#b0b0b0;stop-opacity:1"
         offset="0"
         id="stop3374" />
      <stop
         style="stop-color:#fcfcfc;stop-opacity:1"
         offset="1"
         id="stop3376" />
    </linearGradient>
    <linearGradient
       inkscape:collect="always"
       xlink:href="#linearGradient3378"
       id="linearGradient3380"
       x1="14.942825"
       y1="1.1138821"
       x2="11.503234"
       y2="4.3115072"
       gradientUnits="userSpaceOnUse"
       gradientTransform="translate(-0.5291663,-0.52916667)" />
    <linearGradient
       inkscape:collect="always"
       xlink:href="#linearGradient6263"
       id="linearGradient6265"
       x1="11.90625"
       y1="2.3812501"
       x2="12.170834"
       y2="7.1437502"
       gradientUnits="userSpaceOnUse"
       gradientTransform="translate(-0.52916663,0.52916673)" />
    <linearGradient
       inkscape:collect="always"
       xlink:href="#linearGradient10453"
       id="linearGradient10455"
       x1="10"
       y1="72.5"
       x2="58"
       y2="32.5"
       gradientUnits="userSpaceOnUse" />
    <linearGradient
       inkscape:collect="always"
       xlink:href="#linearGradient2401"
       id="linearGradient2403"
       x1="15.875"
       y1="16.933334"
       x2="1.0583346"
       y2="1.0583338"
       gradientUnits="userSpaceOnUse" />
  </defs>
  <path
     id="rect1068"
     style="fill:url(#linearGradient2403);fill-opacity:1;stroke-width:0.529167;stroke-linejoin:round"
     d="m 3.175,0.5291667 7.143751,3e-8 3.968749,3.96874997 1e-6,11.3770833 c 0,0.293158 -0.236009,0.529167 -0.529167,0.529167 H 3.175 c -0.2931584,0 -0.5291667,-0.236009 -0.5291667,-0.529167 V 1.0583334 c 0,-0.29315835 0.2360083,-0.5291667 0.5291667,-0.5291667 z"
     sodipodi:nodetypes="cccsssssc" />
  <path
     id="rect9905"
     style="opacity:0.3;fill:url(#linearGradient10455);fill-opacity:1;stroke-width:2;stroke-linejoin:round"
     d="M 10 59 L 10 60 C 10 61.108 10.892 62 12 62 L 52 62 C 53.108 62 54 61.108 54 60 L 54 59 C 54 60.108 53.108 61 52 61 L 12 61 C 10.892 61 10 60.108 10 59 z "
     transform="scale(0.26458334)" />
  <path
     id="rect5598"
     style="opacity:0.2;fill:url(#linearGradient6265);fill-opacity:1;stroke-width:0.529167;stroke-linejoin:round"
     d="M 10.444901,4.3115072 10.31875,3.4395834 14.2875,4.4979167 v 3.7041668 z"
     sodipodi:nodetypes="ccccc" />
  <path
     id="rect2607"
     style="fill:url(#linearGradient3380);fill-opacity:1;stroke-width:0.529167;stroke-linejoin:round"
     d="m 14.2875,4.4979167 -3.439583,-1e-7 c -0.293158,0 -0.529166,-0.2360083 -0.529166,-0.5291667 V 0.52916673 Z"
     sodipodi:nodetypes="csscc" />
  <path
     d="M 8.7426002,6.3500001 C 7.4523754,6.5797645 6.0531026,6.8846204 4.7628778,7.1101747 c 0,1.9626377 -8.5e-4,3.9261753 0,5.8897133 1.2835247,0.224715 2.6760974,0.52448 3.957022,0.758455 z M 7.6532848,11.237884 7.1653954,11.199414 6.2338097,9.7895834 V 11.120073 L 5.8012015,11.102443 5.8013064,8.9103173 6.2339147,8.8926873 7.173691,10.31875 V 8.7992876 l 0.4796992,-0.024411 z"
     enable-background="new"
     id="path10"
     sodipodi:nodetypes="cccccccccccccccc"
     style="fill:#ffffff;fill-opacity:1;stroke-width:1.00002" />
  <path
     id="rect4352"
     style="opacity:1;fill:#ffffff;fill-opacity:0.998358;stroke-width:0.177507;stroke-linecap:round;stroke-linejoin:round"
     d="M 8.9958335,7.4083335 V 7.9375002 H 10.847917 V 8.2020835 H 8.9958335 V 8.7322837 H 10.847917 V 8.996867 H 8.9958335 V 9.5250002 H 10.847917 V 9.7895836 H 8.9958335 v 0.5302004 h 1.8520835 v 0.264583 H 8.9958335 V 11.1125 h 1.8520835 v 0.264584 H 8.9958335 v 0.5302 h 1.8520835 v 0.264583 H 8.9958335 V 12.7 H 11.377084 V 12.435417 H 11.90625 V 7.6729169 H 11.377084 V 7.4083335 Z m 2.3812495,0.5291667 h 0.264584 v 1.5875 h -0.264584 z m 10e-7,1.8520834 h 0.264583 v 1.0583334 h -0.264583 z m 0,1.3229164 h 0.264583 v 1.058334 h -0.264583 z"
     sodipodi:nodetypes="cccccccccccccccccccccccccccccccccccccccccccccccc" />
</svg>
