<?xml version="1.0" encoding="UTF-8" standalone="no"?>
<!-- Created with Inkscape (http://www.inkscape.org/) -->

<svg
   width="64"
   height="64"
   viewBox="0 0 16.933333 16.933334"
   version="1.1"
   id="svg5"
   inkscape:version="1.1.1 (3bf5ae0d25, 2021-09-20, custom)"
   sodipodi:docname="application-apk.svg"
   xmlns:inkscape="http://www.inkscape.org/namespaces/inkscape"
   xmlns:sodipodi="http://sodipodi.sourceforge.net/DTD/sodipodi-0.dtd"
   xmlns:xlink="http://www.w3.org/1999/xlink"
   xmlns="http://www.w3.org/2000/svg"
   xmlns:svg="http://www.w3.org/2000/svg">
  <sodipodi:namedview
     id="namedview7"
     pagecolor="#ffffff"
     bordercolor="#666666"
     borderopacity="1.0"
     inkscape:pageshadow="2"
     inkscape:pageopacity="0.0"
     inkscape:pagecheckerboard="0"
     inkscape:document-units="px"
     showgrid="false"
     units="px"
     height="64px"
     inkscape:zoom="6.296875"
     inkscape:cx="26.362283"
     inkscape:cy="53.359801"
     inkscape:window-width="1920"
     inkscape:window-height="1011"
     inkscape:window-x="0"
     inkscape:window-y="0"
     inkscape:window-maximized="1"
     inkscape:current-layer="svg5"
     showguides="false" />
  <defs
     id="defs2">
    <linearGradient
       inkscape:collect="always"
       id="linearGradient2770">
      <stop
         style="stop-color:#32de84;stop-opacity:1;"
         offset="0"
         id="stop2766" />
      <stop
         style="stop-color:#32debd;stop-opacity:1"
         offset="1"
         id="stop2768" />
    </linearGradient>
    <linearGradient
       inkscape:collect="always"
       id="linearGradient10453">
      <stop
         style="stop-color:#666666;stop-opacity:1"
         offset="0"
         id="stop10449" />
      <stop
         style="stop-color:#666666;stop-opacity:0"
         offset="1"
         id="stop10451" />
    </linearGradient>
    <linearGradient
       inkscape:collect="always"
       id="linearGradient6263">
      <stop
         style="stop-color:#000000;stop-opacity:1;"
         offset="0"
         id="stop6259" />
      <stop
         style="stop-color:#000000;stop-opacity:0;"
         offset="1"
         id="stop6261" />
    </linearGradient>
    <linearGradient
       inkscape:collect="always"
       id="linearGradient3378">
      <stop
         style="stop-color:#b0b0b0;stop-opacity:1"
         offset="0"
         id="stop3374" />
      <stop
         style="stop-color:#fcfcfc;stop-opacity:1"
         offset="1"
         id="stop3376" />
    </linearGradient>
    <linearGradient
       inkscape:collect="always"
       xlink:href="#linearGradient3378"
       id="linearGradient3380"
       x1="13.884492"
       y1="2.1722155"
       x2="10.974068"
       y2="4.8406739"
       gradientUnits="userSpaceOnUse"
       gradientTransform="translate(-0.5291663,-0.52916667)" />
    <linearGradient
       inkscape:collect="always"
       xlink:href="#linearGradient6263"
       id="linearGradient6265"
       x1="11.90625"
       y1="2.3812501"
       x2="12.170834"
       y2="7.1437502"
       gradientUnits="userSpaceOnUse"
       gradientTransform="translate(-0.52916663,0.52916673)" />
    <linearGradient
       inkscape:collect="always"
       xlink:href="#linearGradient10453"
       id="linearGradient10455"
       x1="10"
       y1="72.5"
       x2="58"
       y2="32.5"
       gradientUnits="userSpaceOnUse" />
    <linearGradient
       inkscape:collect="always"
       xlink:href="#linearGradient2770"
       id="linearGradient2772"
       x1="15.345834"
       y1="16.404167"
       x2="1.587501"
       y2="0.52916712"
       gradientUnits="userSpaceOnUse" />
  </defs>
  <path
     id="rect1068"
     style="fill:url(#linearGradient2772);fill-opacity:1;stroke-width:0.529167;stroke-linejoin:round"
     d="m 3.175,0.5291667 7.143751,3e-8 3.968749,3.96874997 1e-6,11.3770833 c 0,0.293158 -0.236009,0.529167 -0.529167,0.529167 H 3.175 c -0.2931584,0 -0.5291667,-0.236009 -0.5291667,-0.529167 V 1.0583334 c 0,-0.29315835 0.2360083,-0.5291667 0.5291667,-0.5291667 z"
     sodipodi:nodetypes="cccsssssc" />
  <path
     id="rect5598"
     style="opacity:0.3;fill:url(#linearGradient6265);fill-opacity:1;stroke-width:0.529167;stroke-linejoin:round"
     d="M 10.444901,4.3115072 10.31875,3.4395834 14.2875,4.4979167 v 3.7041668 z"
     sodipodi:nodetypes="ccccc" />
  <path
     id="rect2607"
     style="fill:url(#linearGradient3380);fill-opacity:1;stroke-width:0.529167;stroke-linejoin:round"
     d="m 14.2875,4.4979167 -3.439583,-1e-7 c -0.293158,0 -0.529166,-0.2360083 -0.529166,-0.5291667 V 0.52916673 Z"
     sodipodi:nodetypes="csscc" />
  <path
     id="rect11027"
     style="opacity:0.6;fill:#fefefe;fill-opacity:1;stroke-width:0.703438;stroke-linejoin:round"
     d="m 24,2 v 2 h 2 V 2 Z m 0,2 h -2 v 2 h 2 z m 0,2 v 2 h 2 V 6 Z m 0,2 h -2 v 2 h 2 z m 0,2 v 2 h 2 v -2 z m 0,2 h -2 v 2 h 2 z m 0,2 v 2 h 2 v -2 z m 0,2 h -2 v 2 h 2 z m 0,2 v 2 h 2 v -2 z m 0,2 h -2 v 2 h 2 z m 0,2 v 2 h 2 v -2 z m -2,3 v 5 c 0,0.554 0.446,1 1,1 h 2 c 0.554,0 1,-0.446 1,-1 v -5 z m 1,3 h 2 v 2 h -2 z"
     transform="scale(0.26458334)" />
  <path
     id="path904"
     style="opacity:0.6;fill:#073042;stroke-width:0.242512;stroke-linecap:round;stroke-linejoin:round;fill-opacity:1"
     d="m 6.1701659,10.054252 c -0.04977,0.0024 -0.09906,0.02273 -0.137238,0.0609 -0.081439,0.08144 -0.081437,0.212534 0,0.293965 l 0.6634517,0.663452 a 2.9104169,2.9104169 0 0 0 -1.1401295,2.307869 h 5.8208319 a 2.9104169,2.9104169 0 0 0 -1.138506,-2.308681 l 0.661828,-0.66264 c 0.08143,-0.08143 0.08145,-0.212518 0,-0.293965 -0.03817,-0.03817 -0.08747,-0.05855 -0.137238,-0.0609 -0.05641,-0.0027 -0.113466,0.01764 -0.156728,0.0609 L 9.8820818,10.839508 A 2.9104169,2.9104169 0 0 0 8.4666657,10.470022 2.9104169,2.9104169 0 0 0 7.0512486,10.839508 L 6.3268939,10.115152 c -0.04326,-0.04326 -0.100318,-0.06361 -0.156728,-0.0609 z m 1.0491784,1.663095 A 0.41577386,0.41577386 0 0 1 7.635118,12.133121 0.41577386,0.41577386 0 0 1 7.2193443,12.548895 0.41577386,0.41577386 0 0 1 6.8035716,12.133121 0.41577386,0.41577386 0 0 1 7.2193443,11.717347 Z m 2.4946418,0 a 0.41577386,0.41577386 0 0 1 0.4157739,0.415774 0.41577386,0.41577386 0 0 1 -0.4157739,0.415774 0.41577386,0.41577386 0 0 1 -0.415773,-0.415774 0.41577386,0.41577386 0 0 1 0.415773,-0.415774 z" />
  <path
     id="rect9905"
     style="opacity:0.3;fill:url(#linearGradient10455);fill-opacity:1;stroke-width:2;stroke-linejoin:round"
     d="M 10 59 L 10 60 C 10 61.108 10.892 62 12 62 L 52 62 C 53.108 62 54 61.108 54 60 L 54 59 C 54 60.108 53.108 61 52 61 L 12 61 C 10.892 61 10 60.108 10 59 z "
     transform="scale(0.26458334)" />
</svg>
