<?xml version="1.0" encoding="UTF-8" standalone="no"?>
<!-- Created with Inkscape (http://www.inkscape.org/) -->

<svg
   width="64"
   height="64"
   viewBox="0 0 16.933333 16.933334"
   version="1.1"
   id="svg5"
   inkscape:version="1.1.1 (3bf5ae0d25, 2021-09-20, custom)"
   sodipodi:docname="application-x-perl.svg"
   xmlns:inkscape="http://www.inkscape.org/namespaces/inkscape"
   xmlns:sodipodi="http://sodipodi.sourceforge.net/DTD/sodipodi-0.dtd"
   xmlns:xlink="http://www.w3.org/1999/xlink"
   xmlns="http://www.w3.org/2000/svg"
   xmlns:svg="http://www.w3.org/2000/svg">
  <sodipodi:namedview
     id="namedview7"
     pagecolor="#ffffff"
     bordercolor="#666666"
     borderopacity="1.0"
     inkscape:pageshadow="2"
     inkscape:pageopacity="0.0"
     inkscape:pagecheckerboard="0"
     inkscape:document-units="px"
     showgrid="false"
     units="px"
     height="64px"
     inkscape:zoom="8.905126"
     inkscape:cx="-0.22458975"
     inkscape:cy="44.637212"
     inkscape:window-width="1920"
     inkscape:window-height="1019"
     inkscape:window-x="0"
     inkscape:window-y="0"
     inkscape:window-maximized="1"
     inkscape:current-layer="svg5" />
  <defs
     id="defs2">
    <linearGradient
       inkscape:collect="always"
       id="linearGradient2016">
      <stop
         style="stop-color:#2095f2;stop-opacity:1;"
         offset="0"
         id="stop2012" />
      <stop
         style="stop-color:#4dbdf5;stop-opacity:1"
         offset="1"
         id="stop2014" />
    </linearGradient>
    <linearGradient
       inkscape:collect="always"
       id="linearGradient1402">
      <stop
         style="stop-color:#ffffff;stop-opacity:1;"
         offset="0"
         id="stop1398" />
      <stop
         style="stop-color:#a3e2ff;stop-opacity:1"
         offset="1"
         id="stop1400" />
    </linearGradient>
    <linearGradient
       inkscape:collect="always"
       id="linearGradient10453">
      <stop
         style="stop-color:#666666;stop-opacity:1"
         offset="0"
         id="stop10449" />
      <stop
         style="stop-color:#666666;stop-opacity:0"
         offset="1"
         id="stop10451" />
    </linearGradient>
    <linearGradient
       inkscape:collect="always"
       id="linearGradient6263">
      <stop
         style="stop-color:#000000;stop-opacity:1;"
         offset="0"
         id="stop6259" />
      <stop
         style="stop-color:#000000;stop-opacity:0;"
         offset="1"
         id="stop6261" />
    </linearGradient>
    <linearGradient
       inkscape:collect="always"
       id="linearGradient3378">
      <stop
         style="stop-color:#b0b0b0;stop-opacity:1"
         offset="0"
         id="stop3374" />
      <stop
         style="stop-color:#fcfcfc;stop-opacity:1"
         offset="1"
         id="stop3376" />
    </linearGradient>
    <linearGradient
       inkscape:collect="always"
       xlink:href="#linearGradient3378"
       id="linearGradient3380"
       x1="14.942825"
       y1="1.1138821"
       x2="11.503234"
       y2="4.3115072"
       gradientUnits="userSpaceOnUse"
       gradientTransform="translate(-0.5291663,-0.52916667)" />
    <linearGradient
       inkscape:collect="always"
       xlink:href="#linearGradient6263"
       id="linearGradient6265"
       x1="11.90625"
       y1="2.3812501"
       x2="12.170834"
       y2="7.1437502"
       gradientUnits="userSpaceOnUse"
       gradientTransform="translate(-0.52916663,0.52916673)" />
    <linearGradient
       inkscape:collect="always"
       xlink:href="#linearGradient10453"
       id="linearGradient10455"
       x1="10"
       y1="72.5"
       x2="58"
       y2="32.5"
       gradientUnits="userSpaceOnUse" />
    <linearGradient
       inkscape:collect="always"
       xlink:href="#linearGradient1402"
       id="linearGradient1404"
       x1="5.0270834"
       y1="7.4083338"
       x2="5.0000272"
       y2="12.501809"
       gradientUnits="userSpaceOnUse" />
    <linearGradient
       inkscape:collect="always"
       xlink:href="#linearGradient2016"
       id="linearGradient2018"
       x1="15.345834"
       y1="16.933334"
       x2="1.5875012"
       y2="4.2529297e-07"
       gradientUnits="userSpaceOnUse" />
  </defs>
  <path
     id="rect1068"
     style="fill:url(#linearGradient2018);fill-opacity:1;stroke-width:0.529167;stroke-linejoin:round"
     d="m 3.175,0.5291667 7.143751,3e-8 3.968749,3.96874997 1e-6,11.3770833 c 0,0.293158 -0.236009,0.529167 -0.529167,0.529167 H 3.175 c -0.2931584,0 -0.5291667,-0.236009 -0.5291667,-0.529167 V 1.0583334 c 0,-0.29315835 0.2360083,-0.5291667 0.5291667,-0.5291667 z"
     sodipodi:nodetypes="cccsssssc" />
  <path
     id="rect9905"
     style="opacity:0.3;fill:url(#linearGradient10455);fill-opacity:1;stroke-width:2;stroke-linejoin:round"
     d="M 10 59 L 10 60 C 10 61.108 10.892 62 12 62 L 52 62 C 53.108 62 54 61.108 54 60 L 54 59 C 54 60.108 53.108 61 52 61 L 12 61 C 10.892 61 10 60.108 10 59 z "
     transform="scale(0.26458334)" />
  <path
     id="rect5598"
     style="opacity:0.2;fill:url(#linearGradient6265);fill-opacity:1;stroke-width:0.529167;stroke-linejoin:round"
     d="M 10.444901,4.3115072 10.31875,3.4395834 14.2875,4.4979167 v 3.7041668 z"
     sodipodi:nodetypes="ccccc" />
  <path
     id="rect2607"
     style="fill:url(#linearGradient3380);fill-opacity:1;stroke-width:0.529167;stroke-linejoin:round"
     d="m 14.2875,4.4979167 -3.439583,-1e-7 c -0.293158,0 -0.529166,-0.2360083 -0.529166,-0.5291667 V 0.52916673 Z"
     sodipodi:nodetypes="csscc" />
  <path
     id="path10"
     style="stroke-width:1.0001;fill:url(#linearGradient1404);fill-opacity:1"
     d="m 9.4440825,6.3500623 c -0.184019,0.00101 -0.677882,0.1594131 -0.857901,0.2744251 -0.05901,0.038004 -0.196972,0.211004 -0.306984,0.3850221 -0.110011,0.1740182 -0.313226,0.3836358 -0.453241,0.4656442 -0.154016,0.09101 -0.340865,0.3284356 -0.472879,0.598464 -0.237026,0.4830504 -0.354035,0.4329819 -0.185017,-0.079072 0.149015,-0.4520472 0.05879,-0.983408 -0.207241,-1.2124319 -0.251026,-0.2150225 -0.473121,-0.2380354 -0.619136,-0.062017 -0.05701,0.068007 -0.20516,0.1240341 -0.328173,0.1240341 -0.304032,0 -0.560046,0.279189 -0.41603,0.4522073 a 0.39604143,0.39604143 0 0 0 0.268222,0.1250675 c 0.139015,0 0.154917,0.035859 0.104913,0.2268788 -0.033,0.1250131 -0.07775,0.4424156 -0.09975,0.705443 -0.035,0.4270447 -0.01625,0.5079358 0.192769,0.7829646 0.422045,0.5560582 0.792434,0.7620982 1.090466,0.6020812 0.137014,-0.07301 0.154689,-0.0062 0.236698,0.8718557 0.10201,1.100116 0.04223,1.434034 -0.316804,1.770069 -0.208458,0.194495 -0.221057,0.231157 -0.09613,0.264089 h 0.001 c 0.459056,0.119705 0.485297,0.09364 0.591229,-0.581926 0.214022,-1.356143 0.239714,-1.48932 0.329723,-1.655338 0.05,-0.09301 0.08993,-0.24605 0.08993,-0.340059 0,-0.1180127 0.05415,-0.1700307 0.174164,-0.1700307 0.185019,0 0.185857,0.02037 0.02584,0.8134567 -0.051,0.250026 -0.02379,0.307099 0.284244,0.588128 0.395041,0.362038 0.4242,0.519692 0.128169,0.713712 -0.165017,0.109012 -0.18717,0.154168 -0.09716,0.205173 0.169019,0.09301 0.474948,-0.0092 0.474948,-0.16021 0,-0.100011 0.03701,-0.08778 0.170029,0.05323 0.09301,0.10101 0.20403,0.160856 0.247034,0.133853 0.119013,-0.07301 0.09202,-0.335128 -0.04599,-0.45014 -0.176018,-0.147016 -0.155995,-0.261004 0.124035,-0.647044 0.198021,-0.273029 0.248068,-0.42564 0.248068,-0.758675 0,-0.4250447 0.196091,-0.9451453 0.3261055,-0.8651367 0.04,0.024 0.09713,0.188881 0.127134,0.3659 0.029,0.1770187 0.104956,0.3899047 0.167963,0.4739137 0.138014,0.181018 0.162807,1.327103 0.03979,1.757148 -0.08201,0.28603 0.0062,0.451097 0.206206,0.38709 0.07801,-0.025 0.125747,-0.959848 0.09975,-1.950952 -0.02,-0.7640807 0.02618,-1.5222791 0.0982,-1.5922864 0.100011,-0.1020106 0.182935,0.6751307 0.08993,0.8501497 a 0.40404226,0.40404226 0 0 0 -0.02791,0.2930297 c 0.09503,0.244026 0.35107,-0.3632797 0.355071,-0.8403301 0.003,-0.3470362 -0.04091,-0.475807 -0.243934,-0.7328339 -0.137017,-0.1710174 -0.24807,-0.3542054 -0.24807,-0.4062107 0,-0.052005 -0.128262,-0.2929046 -0.285278,-0.5359302 C 10.272068,7.3494438 10.121163,7.0454641 10.092159,6.9154505 10.032153,6.6424218 9.6951085,6.3450618 9.4440825,6.3500623 Z m -0.28011,3.463132 c 0.04575,0.0025 0.07304,0.170913 0.104912,0.5173247 0.046,0.490051 0.03004,0.667418 -0.07597,0.87444 -0.161017,0.311033 -0.211981,0.317728 -0.446005,0.0677 -0.219024,-0.232025 -0.222862,-0.307677 -0.025842,-0.559704 a 2.1302228,2.1302228 0 0 0 0.264089,-0.526111 c 0.08392,-0.2484627 0.138446,-0.3758267 0.178816,-0.3736517 z" />
  <path
     id="path10-3"
     style="opacity:0.3;fill:#000000;fill-opacity:1;stroke-width:3.77991"
     d="M 21.195312 27.611328 C 20.967427 27.928542 20.918663 28.290739 21.15625 28.576172 A 1.4968495 1.4968495 0 0 0 22.169922 29.048828 C 22.327004 29.048828 22.441806 29.063332 22.521484 29.099609 C 22.536749 29.027763 22.552112 28.9604 22.566406 28.90625 C 22.755398 28.184285 22.695333 28.048828 22.169922 28.048828 A 1.4968495 1.4968495 0 0 1 21.195312 27.611328 z M 27.339844 29.003906 C 27.303177 29.411955 27.22163 29.820985 27.091797 30.214844 C 26.733606 31.300012 26.714814 31.835571 26.925781 31.775391 C 26.970251 31.60801 27.023112 31.422931 27.091797 31.214844 C 27.329177 30.494734 27.405772 29.722518 27.339844 29.003906 z M 22.160156 32.994141 C 22.080171 34.242906 22.203873 34.593591 22.917969 35.533203 C 24.513099 37.634842 25.912642 38.413382 27.039062 37.808594 C 27.556911 37.53265 27.623638 37.784883 27.933594 41.103516 C 28.02054 42.041178 28.073005 42.825531 28.091797 43.501953 C 28.12659 42.635911 28.06715 41.543839 27.933594 40.103516 C 27.623638 36.784884 27.556911 36.53265 27.039062 36.808594 C 25.912642 37.413382 24.513099 36.634842 22.917969 34.533203 C 22.438783 33.902687 22.225322 33.540455 22.160156 32.994141 z M 40.84375 33.847656 C 40.820776 33.847161 40.799015 33.858716 40.775391 33.882812 C 40.53109 34.120286 40.365412 36.452177 40.388672 39.015625 C 40.410219 36.873052 40.563442 35.088838 40.775391 34.882812 C 40.994855 34.65896 41.191576 35.553996 41.25 36.474609 C 41.332335 35.481192 41.115454 33.853515 40.84375 33.847656 z M 42.335938 35.382812 C 42.216143 37.059024 41.399566 38.940793 41.042969 38.275391 A 1.5270888 1.5270888 0 0 0 41.009766 39.203125 C 41.368934 40.125428 42.336441 37.83037 42.351562 36.027344 C 42.353634 35.787704 42.348289 35.575366 42.335938 35.382812 z M 37.886719 35.964844 C 37.4004 35.937522 36.748047 37.759565 36.748047 39.265625 C 36.748047 40.52434 36.558973 41.100892 35.810547 42.132812 C 34.932827 43.342808 34.734221 43.845504 35.070312 44.298828 C 35.213101 43.996727 35.45428 43.62395 35.810547 43.132812 C 36.558973 42.100892 36.748047 41.52434 36.748047 40.265625 C 36.748047 38.65916 37.489075 36.693698 37.980469 36.996094 C 38.13165 37.086802 38.347537 37.709858 38.460938 38.378906 C 38.570544 39.047951 38.85952 39.852408 39.097656 40.169922 C 39.35847 40.512003 39.510504 41.765113 39.541016 43.136719 C 39.577958 41.421905 39.421223 39.594309 39.097656 39.169922 C 38.85952 38.852408 38.570544 38.04795 38.460938 37.378906 C 38.347537 36.709858 38.13165 36.086802 37.980469 35.996094 C 37.949757 35.977194 37.91914 35.966665 37.886719 35.964844 z M 34.634766 37.089844 C 34.482186 37.081623 34.276162 37.562885 33.958984 38.501953 A 8.0512357 8.0512357 0 0 1 32.960938 40.490234 C 32.405353 41.200935 32.273827 41.540381 32.585938 42.03125 C 32.675594 41.873618 32.798188 41.698422 32.960938 41.490234 A 8.0512357 8.0512357 0 0 0 33.958984 39.501953 C 34.276162 38.562884 34.482186 38.081623 34.634766 38.089844 C 34.807679 38.099293 34.910789 38.735652 35.03125 40.044922 C 35.066849 40.424169 35.092371 40.751711 35.107422 41.042969 C 35.144435 40.554305 35.115106 39.938261 35.03125 39.044922 C 34.910789 37.735653 34.807679 37.099293 34.634766 37.089844 z M 30.855469 37.408203 C 30.401873 37.408203 30.197266 37.604753 30.197266 38.050781 C 30.197266 38.406091 30.046398 38.984404 29.857422 39.335938 C 29.51723 39.963407 29.42023 40.466217 28.611328 45.591797 C 28.234218 47.996764 28.123429 48.223067 26.662109 47.863281 C 25.952219 48.532487 25.917553 48.670943 26.373047 48.791016 L 26.376953 48.791016 C 28.111968 49.243444 28.210955 49.145117 28.611328 46.591797 C 29.42023 41.466217 29.51723 40.963407 29.857422 40.335938 C 30.046398 39.984404 30.197266 39.406091 30.197266 39.050781 C 30.197266 38.604752 30.401873 38.408203 30.855469 38.408203 C 31.086814 38.408203 31.24206 38.417295 31.324219 38.537109 C 31.495457 37.451794 31.350404 37.408203 30.855469 37.408203 z M 30.953125 41.482422 C 30.760369 42.427402 30.863121 42.642921 32.027344 43.705078 C 32.549918 44.183995 32.903383 44.567811 33.09375 44.896484 C 33.502101 44.346281 33.170045 43.752314 32.027344 42.705078 C 31.40242 42.134941 31.084861 41.80849 30.953125 41.482422 z M 40.427734 42.619141 C 40.404622 45.197609 40.248474 47.202571 40.027344 47.273438 C 39.618318 47.404336 39.333656 47.282045 39.207031 46.970703 C 38.974176 47.951947 39.309741 48.503089 40.027344 48.273438 C 40.276303 48.193653 40.440823 45.660279 40.427734 42.619141 z M 34.039062 45.324219 C 33.966841 45.32196 33.939453 45.406893 33.939453 45.572266 C 33.939453 46.012061 33.253804 46.341025 32.646484 46.308594 C 32.602897 46.339716 32.559871 46.370785 32.511719 46.402344 C 31.888032 46.814358 31.804336 46.98496 32.144531 47.177734 C 32.783343 47.529268 33.939453 47.143012 33.939453 46.572266 C 33.939453 46.194271 34.079282 46.240486 34.582031 46.773438 C 34.933565 47.155208 35.35309 47.381355 35.515625 47.279297 C 35.830275 47.086271 35.875443 46.543482 35.695312 46.085938 C 35.650389 46.165753 35.590594 46.233306 35.515625 46.279297 C 35.35309 46.381355 34.933565 46.155208 34.582031 45.773438 C 34.299235 45.473652 34.131918 45.327123 34.039062 45.324219 z "
     transform="scale(0.26458334)" />
</svg>
