<?xml version="1.0" encoding="UTF-8" standalone="no"?>
<!-- Created with Inkscape (http://www.inkscape.org/) -->

<svg
   width="64"
   height="64"
   viewBox="0 0 16.933333 16.933334"
   version="1.1"
   id="svg5"
   inkscape:version="1.1.1 (3bf5ae0d25, 2021-09-20, custom)"
   sodipodi:docname="application-zip.svg"
   xmlns:inkscape="http://www.inkscape.org/namespaces/inkscape"
   xmlns:sodipodi="http://sodipodi.sourceforge.net/DTD/sodipodi-0.dtd"
   xmlns:xlink="http://www.w3.org/1999/xlink"
   xmlns="http://www.w3.org/2000/svg"
   xmlns:svg="http://www.w3.org/2000/svg">
  <sodipodi:namedview
     id="namedview7"
     pagecolor="#ffffff"
     bordercolor="#666666"
     borderopacity="1.0"
     inkscape:pageshadow="2"
     inkscape:pageopacity="0.0"
     inkscape:pagecheckerboard="0"
     inkscape:document-units="px"
     showgrid="false"
     units="px"
     height="64px"
     inkscape:zoom="16"
     inkscape:cx="39.4375"
     inkscape:cy="38.1875"
     inkscape:window-width="1920"
     inkscape:window-height="1011"
     inkscape:window-x="0"
     inkscape:window-y="0"
     inkscape:window-maximized="1"
     inkscape:current-layer="svg5" />
  <defs
     id="defs2">
    <linearGradient
       inkscape:collect="always"
       id="linearGradient12875">
      <stop
         style="stop-color:#faca80;stop-opacity:1"
         offset="0"
         id="stop12871" />
      <stop
         style="stop-color:#ff8109;stop-opacity:1"
         offset="1"
         id="stop12873" />
    </linearGradient>
    <linearGradient
       inkscape:collect="always"
       id="linearGradient10453">
      <stop
         style="stop-color:#666666;stop-opacity:1"
         offset="0"
         id="stop10449" />
      <stop
         style="stop-color:#666666;stop-opacity:0"
         offset="1"
         id="stop10451" />
    </linearGradient>
    <linearGradient
       inkscape:collect="always"
       id="linearGradient6263">
      <stop
         style="stop-color:#000000;stop-opacity:1;"
         offset="0"
         id="stop6259" />
      <stop
         style="stop-color:#000000;stop-opacity:0;"
         offset="1"
         id="stop6261" />
    </linearGradient>
    <linearGradient
       inkscape:collect="always"
       id="linearGradient3378">
      <stop
         style="stop-color:#b0b0b0;stop-opacity:1"
         offset="0"
         id="stop3374" />
      <stop
         style="stop-color:#fcfcfc;stop-opacity:1"
         offset="1"
         id="stop3376" />
    </linearGradient>
    <linearGradient
       inkscape:collect="always"
       xlink:href="#linearGradient3378"
       id="linearGradient3380"
       x1="13.884492"
       y1="2.1722155"
       x2="10.974068"
       y2="4.8406739"
       gradientUnits="userSpaceOnUse"
       gradientTransform="translate(-0.5291663,-0.52916667)" />
    <linearGradient
       inkscape:collect="always"
       xlink:href="#linearGradient6263"
       id="linearGradient6265"
       x1="11.90625"
       y1="2.3812501"
       x2="12.170834"
       y2="7.1437502"
       gradientUnits="userSpaceOnUse"
       gradientTransform="translate(-0.52916663,0.52916673)" />
    <linearGradient
       inkscape:collect="always"
       xlink:href="#linearGradient10453"
       id="linearGradient10455"
       x1="10"
       y1="72.5"
       x2="58"
       y2="32.5"
       gradientUnits="userSpaceOnUse" />
    <linearGradient
       inkscape:collect="always"
       xlink:href="#linearGradient12875"
       id="linearGradient12877"
       x1="5.2916708"
       y1="2.6458337"
       x2="12.170835"
       y2="15.345834"
       gradientUnits="userSpaceOnUse" />
  </defs>
  <path
     id="rect1068"
     style="fill:url(#linearGradient12877);fill-opacity:1;stroke-width:0.529167;stroke-linejoin:round"
     d="m 3.175,0.5291667 7.143751,3e-8 3.968749,3.96874997 1e-6,11.3770833 c 0,0.293158 -0.236009,0.529167 -0.529167,0.529167 H 3.175 c -0.2931584,0 -0.5291667,-0.236009 -0.5291667,-0.529167 V 1.0583334 c 0,-0.29315835 0.2360083,-0.5291667 0.5291667,-0.5291667 z"
     sodipodi:nodetypes="cccsssssc" />
  <path
     id="rect5598"
     style="opacity:0.3;fill:url(#linearGradient6265);fill-opacity:1;stroke-width:0.529167;stroke-linejoin:round"
     d="M 10.444901,4.3115072 10.31875,3.4395834 14.2875,4.4979167 v 3.7041668 z"
     sodipodi:nodetypes="ccccc" />
  <path
     id="rect2607"
     style="fill:url(#linearGradient3380);fill-opacity:1;stroke-width:0.529167;stroke-linejoin:round"
     d="m 14.2875,4.4979167 -3.439583,-1e-7 c -0.293158,0 -0.529166,-0.2360083 -0.529166,-0.5291667 V 0.52916673 Z"
     sodipodi:nodetypes="csscc" />
  <path
     id="rect11027"
     style="opacity:0.6;fill:#fefefe;fill-opacity:1;stroke-width:0.703438;stroke-linejoin:round"
     d="m 24,2 v 2 h 2 V 2 Z m 0,2 h -2 v 2 h 2 z m 0,2 v 2 h 2 V 6 Z m 0,2 h -2 v 2 h 2 z m 0,2 v 2 h 2 v -2 z m 0,2 h -2 v 2 h 2 z m 0,2 v 2 h 2 v -2 z m 0,2 h -2 v 2 h 2 z m 0,2 v 2 h 2 v -2 z m 0,2 h -2 v 2 h 2 z m 0,2 v 2 h 2 v -2 z m -2,3 v 5 c 0,0.554 0.446,1 1,1 h 2 c 0.554,0 1,-0.446 1,-1 v -5 z m 1,3 h 2 v 2 h -2 z"
     transform="scale(0.26458334)" />
  <path
     id="rect9905"
     style="opacity:0.3;fill:url(#linearGradient10455);fill-opacity:1;stroke-width:2;stroke-linejoin:round"
     d="M 10 59 L 10 60 C 10 61.108 10.892 62 12 62 L 52 62 C 53.108 62 54 61.108 54 60 L 54 59 C 54 60.108 53.108 61 52 61 L 12 61 C 10.892 61 10 60.108 10 59 z "
     transform="scale(0.26458334)" />
  <path
     id="path871"
     style="font-size:2.42598px;line-height:1.25;font-family:'Google Sans';-inkscape-font-specification:'Google Sans';opacity:0.6;stroke-width:0.229227;fill:#ffffff"
     d="M 45.224609 50 C 45.083855 50.006447 44.962532 50.060905 44.859375 50.164062 C 44.74934 50.267977 44.695312 50.397962 44.695312 50.550781 C 44.695312 50.703593 44.74934 50.835278 44.859375 50.945312 C 44.969402 51.055347 45.101087 51.109375 45.253906 51.109375 C 45.41284 51.109375 45.544526 51.055347 45.648438 50.945312 C 45.758472 50.835285 45.8125 50.7036 45.8125 50.550781 C 45.8125 50.39796 45.758472 50.267974 45.648438 50.164062 C 45.53841 50.054028 45.406725 50 45.253906 50 C 45.244356 50 45.233993 49.99957 45.224609 50 z M 49.205078 51.824219 C 48.850541 51.824219 48.529485 51.907226 48.242188 52.072266 C 47.961008 52.231202 47.749973 52.429581 47.609375 52.667969 L 47.574219 52.667969 L 47.574219 51.970703 L 46.830078 51.970703 L 46.830078 58.628906 L 47.609375 58.628906 L 47.609375 56.601562 L 47.574219 55.958984 L 47.609375 55.958984 C 47.749968 56.191272 47.961003 56.391601 48.242188 56.556641 C 48.529485 56.715582 48.850541 56.794922 49.205078 56.794922 C 49.620743 56.794922 49.999488 56.686603 50.341797 56.472656 C 50.684114 56.258712 50.954787 55.966626 51.150391 55.59375 C 51.345994 55.214762 51.443359 54.785384 51.443359 54.308594 C 51.443359 53.837914 51.345994 53.414142 51.150391 53.035156 C 50.954782 52.65617 50.684109 52.360431 50.341797 52.146484 C 49.999488 51.932538 49.620743 51.824219 49.205078 51.824219 z M 40.082031 51.970703 L 40.082031 52.677734 L 42.759766 52.677734 L 40 55.978516 L 40 56.648438 L 43.787109 56.648438 L 43.787109 55.941406 L 40.945312 55.941406 L 43.712891 52.640625 L 43.712891 51.970703 L 40.082031 51.970703 z M 44.869141 51.970703 L 44.869141 56.648438 L 45.638672 56.648438 L 45.638672 51.970703 L 44.869141 51.970703 z M 49.064453 52.53125 C 49.081144 52.530677 49.096471 52.53125 49.113281 52.53125 C 49.382248 52.53125 49.636613 52.603304 49.875 52.75 C 50.11339 52.896706 50.302761 53.107741 50.443359 53.382812 C 50.590055 53.651771 50.664062 53.960169 50.664062 54.308594 C 50.664063 54.657018 50.590055 54.969069 50.443359 55.244141 C 50.302758 55.513107 50.113387 55.722445 49.875 55.869141 C 49.636605 56.015837 49.38224 56.087891 49.113281 56.087891 C 48.844315 56.087891 48.591903 56.015837 48.353516 55.869141 C 48.115126 55.722437 47.925755 55.513099 47.785156 55.244141 C 47.644558 54.975182 47.574219 54.663131 47.574219 54.308594 C 47.574219 53.954056 47.644558 53.643959 47.785156 53.375 C 47.925757 53.106031 48.115128 52.896696 48.353516 52.75 C 48.577011 52.612472 48.814095 52.539845 49.064453 52.53125 z "
     transform="scale(0.26458334)" />
</svg>
