<?xml version="1.0" encoding="UTF-8" standalone="no"?>
<!-- Created with Inkscape (http://www.inkscape.org/) -->

<svg
   width="64"
   height="64"
   viewBox="0 0 16.933333 16.933334"
   version="1.1"
   id="svg5"
   inkscape:version="1.1.1 (3bf5ae0d25, 2021-09-20, custom)"
   sodipodi:docname="application-x-java.svg"
   xmlns:inkscape="http://www.inkscape.org/namespaces/inkscape"
   xmlns:sodipodi="http://sodipodi.sourceforge.net/DTD/sodipodi-0.dtd"
   xmlns:xlink="http://www.w3.org/1999/xlink"
   xmlns="http://www.w3.org/2000/svg"
   xmlns:svg="http://www.w3.org/2000/svg">
  <sodipodi:namedview
     id="namedview7"
     pagecolor="#ffffff"
     bordercolor="#666666"
     borderopacity="1.0"
     inkscape:pageshadow="2"
     inkscape:pageopacity="0.0"
     inkscape:pagecheckerboard="0"
     inkscape:document-units="px"
     showgrid="false"
     units="px"
     height="64px"
     inkscape:zoom="12.328125"
     inkscape:cx="31.959442"
     inkscape:cy="38.489227"
     inkscape:window-width="1920"
     inkscape:window-height="1011"
     inkscape:window-x="0"
     inkscape:window-y="0"
     inkscape:window-maximized="1"
     inkscape:current-layer="svg5" />
  <defs
     id="defs2">
    <linearGradient
       inkscape:collect="always"
       id="linearGradient1382">
      <stop
         style="stop-color:#ff8602;stop-opacity:1"
         offset="0"
         id="stop1378" />
      <stop
         style="stop-color:#eec00c;stop-opacity:1"
         offset="1"
         id="stop1380" />
    </linearGradient>
    <linearGradient
       inkscape:collect="always"
       id="linearGradient10453">
      <stop
         style="stop-color:#666666;stop-opacity:1"
         offset="0"
         id="stop10449" />
      <stop
         style="stop-color:#666666;stop-opacity:0"
         offset="1"
         id="stop10451" />
    </linearGradient>
    <linearGradient
       inkscape:collect="always"
       id="linearGradient6263">
      <stop
         style="stop-color:#000000;stop-opacity:1;"
         offset="0"
         id="stop6259" />
      <stop
         style="stop-color:#000000;stop-opacity:0;"
         offset="1"
         id="stop6261" />
    </linearGradient>
    <linearGradient
       inkscape:collect="always"
       id="linearGradient3378">
      <stop
         style="stop-color:#b0b0b0;stop-opacity:1"
         offset="0"
         id="stop3374" />
      <stop
         style="stop-color:#fcfcfc;stop-opacity:1"
         offset="1"
         id="stop3376" />
    </linearGradient>
    <linearGradient
       inkscape:collect="always"
       xlink:href="#linearGradient3378"
       id="linearGradient3380"
       x1="14.942825"
       y1="1.1138821"
       x2="11.503234"
       y2="4.3115072"
       gradientUnits="userSpaceOnUse"
       gradientTransform="translate(-0.5291663,-0.52916667)" />
    <linearGradient
       inkscape:collect="always"
       xlink:href="#linearGradient6263"
       id="linearGradient6265"
       x1="11.90625"
       y1="2.3812501"
       x2="12.170834"
       y2="7.1437502"
       gradientUnits="userSpaceOnUse"
       gradientTransform="translate(-0.52916663,0.52916673)" />
    <linearGradient
       inkscape:collect="always"
       xlink:href="#linearGradient10453"
       id="linearGradient10455"
       x1="10"
       y1="72.5"
       x2="58"
       y2="32.5"
       gradientUnits="userSpaceOnUse" />
    <linearGradient
       inkscape:collect="always"
       xlink:href="#linearGradient1730"
       id="linearGradient1732"
       x1="3.1749997"
       y1="8.7442722"
       x2="3.175575"
       y2="15.094272"
       gradientUnits="userSpaceOnUse"
       gradientTransform="matrix(0.6249937,0,0,0.6249937,3.1750268,4.0018413)" />
    <linearGradient
       inkscape:collect="always"
       id="linearGradient1730">
      <stop
         style="stop-color:#ffffff;stop-opacity:1"
         offset="0"
         id="stop1726" />
      <stop
         style="stop-color:#aec7d6;stop-opacity:1"
         offset="1"
         id="stop1728" />
    </linearGradient>
    <linearGradient
       inkscape:collect="always"
       xlink:href="#linearGradient1594"
       id="linearGradient1596"
       x1="6.3205614"
       y1="13.400826"
       x2="6.2901239"
       y2="1.3611735"
       gradientUnits="userSpaceOnUse"
       gradientTransform="matrix(0.6249937,0,0,0.6249937,3.1750268,4.0018413)" />
    <linearGradient
       inkscape:collect="always"
       id="linearGradient1594">
      <stop
         style="stop-color:#fbd5ae;stop-opacity:1"
         offset="0"
         id="stop1590" />
      <stop
         style="stop-color:#ffffff;stop-opacity:1"
         offset="1"
         id="stop1592" />
    </linearGradient>
    <linearGradient
       inkscape:collect="always"
       xlink:href="#linearGradient1382"
       id="linearGradient962"
       x1="14.816667"
       y1="16.933334"
       x2="2.116668"
       y2="4.2529297e-07"
       gradientUnits="userSpaceOnUse" />
    <linearGradient
       inkscape:collect="always"
       xlink:href="#linearGradient6263"
       id="linearGradient2710"
       x1="14.001673"
       y1="54.000027"
       x2="46.001953"
       y2="30.000027"
       gradientUnits="userSpaceOnUse" />
  </defs>
  <path
     id="rect1068"
     style="fill:url(#linearGradient962);fill-opacity:1;stroke-width:0.529167;stroke-linejoin:round"
     d="m 3.175,0.5291667 7.143751,3e-8 3.968749,3.96874997 1e-6,11.3770833 c 0,0.293158 -0.236009,0.529167 -0.529167,0.529167 H 3.175 c -0.2931584,0 -0.5291667,-0.236009 -0.5291667,-0.529167 V 1.0583334 c 0,-0.29315835 0.2360083,-0.5291667 0.5291667,-0.5291667 z"
     sodipodi:nodetypes="cccsssssc" />
  <path
     id="rect9905"
     style="opacity:0.3;fill:url(#linearGradient10455);fill-opacity:1;stroke-width:2;stroke-linejoin:round"
     d="M 10 59 L 10 60 C 10 61.108 10.892 62 12 62 L 52 62 C 53.108 62 54 61.108 54 60 L 54 59 C 54 60.108 53.108 61 52 61 L 12 61 C 10.892 61 10 60.108 10 59 z "
     transform="scale(0.26458334)" />
  <path
     id="rect5598"
     style="opacity:0.2;fill:url(#linearGradient6265);fill-opacity:1;stroke-width:0.529167;stroke-linejoin:round"
     d="M 10.444901,4.3115072 10.31875,3.4395834 14.2875,4.4979167 v 3.7041668 z"
     sodipodi:nodetypes="ccccc" />
  <path
     id="rect2607"
     style="fill:url(#linearGradient3380);fill-opacity:1;stroke-width:0.529167;stroke-linejoin:round"
     d="m 14.2875,4.4979167 -3.439583,-1e-7 c -0.293158,0 -0.529166,-0.2360083 -0.529166,-0.5291667 V 0.52916673 Z"
     sodipodi:nodetypes="csscc" />
  <path
     id="path8"
     style="fill:url(#linearGradient1596);fill-opacity:1;fill-rule:evenodd;stroke-width:0.625031"
     d="m 9.184002,5.8208334 -3.306e-4,0.001 C 9.4845423,6.9576726 8.1232196,7.2994779 7.6324251,8.0064326 7.2976952,8.4890265 7.7971239,9.0070756 8.4760344,9.5941743 8.2114575,9.0205048 7.3124082,8.5172706 8.4760344,7.6356576 9.9290813,6.5361068 9.1839939,5.8208652 9.1839939,5.8208652 Z m 0.898839,1.4036471 c 0,0 -2.4566653,0.587984 -1.2838244,1.8839097 l 9.751e-4,0.00325 c 0.3463376,0.3812601 -0.093017,0.7257231 -0.093017,0.7257231 0,0 0.8795846,-0.4361719 0.4776788,-0.9799045 C 8.8052442,8.3489148 8.5170586,8.097878 10.082848,7.2244799 Z" />
  <path
     id="path10"
     style="fill:url(#linearGradient1732);fill-opacity:1;fill-rule:evenodd;stroke-width:0.625031"
     d="m 10.517887,9.5411753 c -0.08639,1.42e-4 -0.178099,0.01485 -0.272267,0.04651 -0.0754,0.02567 -0.113687,0.08462 -0.113687,0.08462 0,0 0.04769,-0.01771 0.154059,-0.0394 0.433942,-0.08679 1.055926,0.5572387 -0.2897087,1.2279507 l -6.25e-4,-3.31e-4 c -0.0063,0.01668 -0.02713,0.03424 -0.02713,0.03424 C 11.569248,10.49161 11.221396,9.5400303 10.517908,9.5411783 Z m -2.911938,0.06556 c -0.1432314,5e-5 -0.5724769,0.02212 -1.0787347,0.256442 -0.7346775,0.3410447 1.8231747,0.4969957 3.146095,0.1631027 0.137313,-0.08995 0.3284637,-0.1685927 0.3284637,-0.1685927 0,0 -0.5414313,0.09323 -1.0819641,0.136617 -0.6614595,0.05265 -1.3686769,0.06295 -1.7253293,0.01744 C 6.358999,9.9041573 7.6321129,9.6124963 7.6531032,9.6077033 c -0.00348,-1.98e-4 -0.01777,-0.001 -0.047154,-0.001 z m 0.047154,10e-4 c 4.299e-4,2.6e-5 0.00388,0 0.00388,0 l -3.307e-4,-10e-4 c 0,0 -0.00338,9.42e-4 -0.00355,10e-4 z M 7.8071623,10.79725 c -0.116054,4.2e-5 -0.4640935,0.01813 -0.874292,0.207996 -0.5953852,0.276327 1.4773297,0.402638 2.549238,0.132097 0.111262,-0.0729 0.266131,-0.136625 0.266131,-0.136625 0,0 -0.4389056,0.07562 -0.8768762,0.11078 -0.5358824,0.04265 -1.1085324,0.05109 -1.3975103,0.01421 -0.6756547,-0.087 0.349439,-0.322693 0.3704517,-0.327496 -0.00344,-1.98e-4 -0.014113,-10e-4 -0.037142,-10e-4 z m 0.037142,10e-4 c 5.622e-4,3.2e-5 0.00388,0 0.00388,0 l -3.307e-4,-10e-4 c 0,0 -0.00333,9.17e-4 -0.00355,10e-4 z m -1.05871,0.840056 c -0.4851278,-0.0012 -1.5076403,0.440355 -0.6052541,0.57974 2.8637778,0.445549 5.2200368,-0.200558 4.4770728,-0.520958 l -3.31e-4,3.3e-4 c 0,0 0.203853,0.160134 -0.223176,0.284218 -0.8111807,0.234683 -3.3746336,0.305731 -4.0865957,0.0081 -0.2553192,-0.106362 0.2244821,-0.253178 0.3752963,-0.285186 0.1582217,-0.03308 0.2470755,-0.0268 0.2470755,-0.0268 -0.039811,-0.02716 -0.104711,-0.03922 -0.1840955,-0.0394 z m 4.3272127,0.410501 c 0,0 -0.09116,0.221167 -1.069046,0.397905 -1.1027669,0.198437 -2.4628272,0.175766 -3.2697937,0.04877 0,0 0.1652457,0.130151 1.0147858,0.182804 1.2919183,0.07964 3.2764089,-0.04449 3.3240539,-0.629477 z" />
  <path
     id="path8-3"
     style="opacity:0.3;fill:url(#linearGradient2710);fill-opacity:1;fill-rule:evenodd;stroke-width:2.36232"
     d="M 34.710938 23 L 34.708984 23.003906 C 34.770431 23.235879 34.811611 23.458695 34.837891 23.673828 C 34.858398 23.518055 34.87061 23.358794 34.871094 23.193359 C 34.77906 23.07121 34.710938 23 34.710938 23 z M 35.392578 24.423828 C 35.212375 25.571867 34.382944 27.082755 32.035156 28.859375 C 30.091989 30.331602 29.671205 31.523786 29.892578 32.583984 C 30.064858 31.778542 30.67862 30.887144 32.035156 29.859375 C 35.145016 27.506079 35.590862 25.618568 35.392578 24.423828 z M 38.107422 28.304688 C 38.107422 28.304688 36.162807 28.771676 34.478516 29.746094 C 33.598487 30.585407 33.454114 31.225245 33.671875 31.855469 C 33.990231 30.976134 35.206899 29.9226 38.107422 28.304688 z M 28.505859 31.994141 C 28.096393 33.609052 29.809723 35.337241 32.035156 37.261719 C 31.644713 36.41514 30.889808 35.608585 30.375 34.742188 C 29.411708 33.782217 28.709875 32.869939 28.505859 31.994141 z M 32.109375 32.394531 C 31.928145 33.259337 32.208086 34.268049 33.255859 35.425781 L 33.259766 35.4375 C 33.466171 35.664718 33.598892 35.887802 33.675781 36.103516 C 33.834778 35.631687 33.813962 35.047578 33.259766 34.4375 L 33.255859 34.425781 C 32.588475 33.688357 32.233397 33.012232 32.109375 32.394531 z M 35.029297 35.076172 C 34.822771 35.726436 34.256168 36.267043 33.759766 36.638672 C 33.746874 37.119108 33.500648 37.528496 33.275391 37.804688 C 33.369762 37.797922 33.464545 37.792377 33.558594 37.785156 C 34.316115 37.263571 35.416779 36.269567 35.029297 35.076172 z M 39.751953 37.060547 C 39.42544 37.061084 39.078567 37.116668 38.722656 37.236328 C 38.43768 37.333349 38.292969 37.556641 38.292969 37.556641 C 38.292969 37.556641 38.474913 37.490181 38.876953 37.408203 C 39.619328 37.259725 40.505348 37.677606 40.783203 38.414062 C 40.936037 37.957234 40.880318 37.550907 40.697266 37.224609 C 40.412784 37.11833 40.093579 37.05999 39.751953 37.060547 z M 28.746094 37.308594 C 28.374377 37.308724 27.492484 37.346963 26.357422 37.658203 C 26.516337 37.722363 26.766077 37.779543 27.117188 37.828125 C 27.909512 37.545722 28.890324 37.320596 28.925781 37.3125 C 28.912628 37.311751 28.857151 37.308594 28.746094 37.308594 z M 28.925781 37.3125 C 28.927406 37.312598 28.939453 37.3125 28.939453 37.3125 L 28.939453 37.308594 C 28.939453 37.308594 28.926424 37.312294 28.925781 37.3125 z M 24.902344 38.175781 C 24.825253 38.209311 24.74804 38.241187 24.669922 38.277344 C 21.893188 39.566329 31.560533 40.156489 36.560547 38.894531 C 37.079525 38.554563 37.802734 38.257813 37.802734 38.257812 C 37.802734 38.257812 35.755849 38.609463 33.712891 38.773438 C 31.212886 38.97243 28.539384 39.01185 27.191406 38.839844 C 26.352636 38.731833 26.075167 38.575197 26.123047 38.402344 C 25.639107 38.339919 25.221718 38.265028 24.902344 38.175781 z M 41.90625 38.410156 C 41.734553 38.970792 41.270022 39.559227 40.419922 40.087891 C 39.967497 40.700233 39.14078 41.371191 37.78125 42.048828 L 37.779297 42.046875 C 37.755486 42.109918 37.675781 42.175781 37.675781 42.175781 C 41.316417 41.258847 42.287504 39.591734 41.90625 38.410156 z M 29.507812 41.808594 C 29.248972 41.808687 28.682989 41.833281 27.945312 42 C 28.035224 42.016965 28.132958 42.034009 28.248047 42.048828 C 28.361251 42.063275 28.488169 42.075105 28.623047 42.085938 C 29.13633 41.930118 29.620931 41.818787 29.648438 41.8125 C 29.635436 41.811752 29.594851 41.808594 29.507812 41.808594 z M 29.648438 41.8125 C 29.650563 41.812621 29.662109 41.8125 29.662109 41.8125 L 29.662109 41.808594 C 29.662109 41.808594 29.649269 41.812315 29.648438 41.8125 z M 26.681641 42.390625 C 26.524823 42.452295 26.365856 42.518426 26.203125 42.59375 C 23.95285 43.638136 31.786584 44.116267 35.837891 43.09375 C 36.258408 42.818222 36.84375 42.576172 36.84375 42.576172 C 36.84375 42.576172 35.184619 42.86319 33.529297 42.996094 C 31.503915 43.157291 29.340247 43.188217 28.248047 43.048828 C 27.302138 42.927029 27.238606 42.728243 27.537109 42.525391 C 27.213364 42.487603 26.92664 42.442546 26.681641 42.390625 z M 25.646484 44.986328 C 25.158402 44.985121 24.526116 45.102289 23.925781 45.285156 C 23.946199 45.295211 23.966521 45.304575 23.990234 45.314453 C 24.146727 45.379863 24.328149 45.439948 24.529297 45.496094 C 24.859568 45.373393 25.209627 45.278473 25.408203 45.236328 C 26.006206 45.111301 26.341797 45.136719 26.341797 45.136719 C 26.19133 45.034067 25.94652 44.987008 25.646484 44.986328 z M 40.365234 45.248047 C 40.355501 45.254169 40.345984 45.259506 40.335938 45.265625 C 40.47945 45.42441 40.759505 45.900447 39.435547 46.285156 C 36.369667 47.172147 26.681115 47.439172 23.990234 46.314453 C 23.941985 46.294353 23.90205 46.274699 23.867188 46.253906 C 23.866718 46.253626 23.865701 46.254186 23.865234 46.253906 C 23.697088 46.229588 23.528496 46.204046 23.359375 46.177734 C 22.956071 46.115439 22.656649 46.036852 22.441406 45.947266 C 21.76282 46.41369 21.728441 46.925816 23.359375 47.177734 C 24.472312 47.350886 25.563297 47.480531 26.625 47.572266 C 25.816607 47.39376 25.601562 47.226562 25.601562 47.226562 C 28.651515 47.706532 33.792995 47.792967 37.960938 47.042969 C 38.218287 46.996457 38.455769 46.950145 38.681641 46.902344 C 40.601174 46.382887 41.353515 45.726731 40.365234 45.248047 z M 42.001953 46.539062 C 42.001953 46.539062 41.656885 47.374983 37.960938 48.042969 C 33.792999 48.792967 28.651515 48.706532 25.601562 48.226562 C 25.601562 48.226562 26.22664 48.718969 29.4375 48.917969 C 34.320341 49.21897 41.821878 48.750041 42.001953 46.539062 z "
     transform="scale(0.26458334)" />
</svg>
