<?xml version="1.0" encoding="UTF-8" standalone="no"?>
<!-- Created with Inkscape (http://www.inkscape.org/) -->

<svg
   width="64"
   height="64"
   viewBox="0 0 16.933333 16.933334"
   version="1.1"
   id="svg5"
   inkscape:version="1.1.1 (3bf5ae0d25, 2021-09-20, custom)"
   sodipodi:docname="application-x-egg.svg"
   xmlns:inkscape="http://www.inkscape.org/namespaces/inkscape"
   xmlns:sodipodi="http://sodipodi.sourceforge.net/DTD/sodipodi-0.dtd"
   xmlns:xlink="http://www.w3.org/1999/xlink"
   xmlns="http://www.w3.org/2000/svg"
   xmlns:svg="http://www.w3.org/2000/svg">
  <sodipodi:namedview
     id="namedview7"
     pagecolor="#ffffff"
     bordercolor="#666666"
     borderopacity="1.0"
     inkscape:pageshadow="2"
     inkscape:pageopacity="0.0"
     inkscape:pagecheckerboard="0"
     inkscape:document-units="px"
     showgrid="false"
     units="px"
     height="64px"
     inkscape:zoom="8"
     inkscape:cx="31.5"
     inkscape:cy="37.25"
     inkscape:window-width="1920"
     inkscape:window-height="1011"
     inkscape:window-x="0"
     inkscape:window-y="0"
     inkscape:window-maximized="1"
     inkscape:current-layer="svg5" />
  <defs
     id="defs2">
    <linearGradient
       inkscape:collect="always"
       id="linearGradient12875">
      <stop
         style="stop-color:#f4d376;stop-opacity:1"
         offset="0"
         id="stop12871" />
      <stop
         style="stop-color:#e9990d;stop-opacity:1"
         offset="1"
         id="stop12873" />
    </linearGradient>
    <linearGradient
       inkscape:collect="always"
       id="linearGradient10453">
      <stop
         style="stop-color:#666666;stop-opacity:1"
         offset="0"
         id="stop10449" />
      <stop
         style="stop-color:#666666;stop-opacity:0"
         offset="1"
         id="stop10451" />
    </linearGradient>
    <linearGradient
       inkscape:collect="always"
       id="linearGradient6263">
      <stop
         style="stop-color:#000000;stop-opacity:1;"
         offset="0"
         id="stop6259" />
      <stop
         style="stop-color:#000000;stop-opacity:0;"
         offset="1"
         id="stop6261" />
    </linearGradient>
    <linearGradient
       inkscape:collect="always"
       id="linearGradient3378">
      <stop
         style="stop-color:#b0b0b0;stop-opacity:1"
         offset="0"
         id="stop3374" />
      <stop
         style="stop-color:#fcfcfc;stop-opacity:1"
         offset="1"
         id="stop3376" />
    </linearGradient>
    <linearGradient
       inkscape:collect="always"
       xlink:href="#linearGradient3378"
       id="linearGradient3380"
       x1="13.884492"
       y1="2.1722155"
       x2="10.974068"
       y2="4.8406739"
       gradientUnits="userSpaceOnUse"
       gradientTransform="translate(-0.5291663,-0.52916667)" />
    <linearGradient
       inkscape:collect="always"
       xlink:href="#linearGradient6263"
       id="linearGradient6265"
       x1="11.90625"
       y1="2.3812501"
       x2="12.170834"
       y2="7.1437502"
       gradientUnits="userSpaceOnUse"
       gradientTransform="translate(-0.52916663,0.52916673)" />
    <linearGradient
       inkscape:collect="always"
       xlink:href="#linearGradient10453"
       id="linearGradient10455"
       x1="10"
       y1="72.5"
       x2="58"
       y2="32.5"
       gradientUnits="userSpaceOnUse" />
    <linearGradient
       inkscape:collect="always"
       xlink:href="#linearGradient12875"
       id="linearGradient12877"
       x1="5.2916708"
       y1="2.6458337"
       x2="12.170835"
       y2="15.345834"
       gradientUnits="userSpaceOnUse" />
  </defs>
  <path
     id="rect1068"
     style="fill:url(#linearGradient12877);fill-opacity:1;stroke-width:0.529167;stroke-linejoin:round"
     d="m 3.175,0.5291667 7.143751,3e-8 3.968749,3.96874997 1e-6,11.3770833 c 0,0.293158 -0.236009,0.529167 -0.529167,0.529167 H 3.175 c -0.2931584,0 -0.5291667,-0.236009 -0.5291667,-0.529167 V 1.0583334 c 0,-0.29315835 0.2360083,-0.5291667 0.5291667,-0.5291667 z"
     sodipodi:nodetypes="cccsssssc" />
  <path
     id="rect5598"
     style="opacity:0.3;fill:url(#linearGradient6265);fill-opacity:1;stroke-width:0.529167;stroke-linejoin:round"
     d="M 10.444901,4.3115072 10.31875,3.4395834 14.2875,4.4979167 v 3.7041668 z"
     sodipodi:nodetypes="ccccc" />
  <path
     id="rect2607"
     style="fill:url(#linearGradient3380);fill-opacity:1;stroke-width:0.529167;stroke-linejoin:round"
     d="m 14.2875,4.4979167 -3.439583,-1e-7 c -0.293158,0 -0.529166,-0.2360083 -0.529166,-0.5291667 V 0.52916673 Z"
     sodipodi:nodetypes="csscc" />
  <path
     id="rect11027"
     style="opacity:0.6;fill:#fefefe;fill-opacity:1;stroke-width:0.703438;stroke-linejoin:round"
     d="m 24,2 v 2 h 2 V 2 Z m 0,2 h -2 v 2 h 2 z m 0,2 v 2 h 2 V 6 Z m 0,2 h -2 v 2 h 2 z m 0,2 v 2 h 2 v -2 z m 0,2 h -2 v 2 h 2 z m 0,2 v 2 h 2 v -2 z m 0,2 h -2 v 2 h 2 z m 0,2 v 2 h 2 v -2 z m 0,2 h -2 v 2 h 2 z m 0,2 v 2 h 2 v -2 z m -2,3 v 5 c 0,0.554 0.446,1 1,1 h 2 c 0.554,0 1,-0.446 1,-1 v -5 z m 1,3 h 2 v 2 h -2 z"
     transform="scale(0.26458334)" />
  <path
     id="rect9905"
     style="opacity:0.3;fill:url(#linearGradient10455);fill-opacity:1;stroke-width:2;stroke-linejoin:round"
     d="M 10 59 L 10 60 C 10 61.108 10.892 62 12 62 L 52 62 C 53.108 62 54 61.108 54 60 L 54 59 C 54 60.108 53.108 61 52 61 L 12 61 C 10.892 61 10 60.108 10 59 z "
     transform="scale(0.26458334)" />
  <path
     id="path898"
     style="font-size:2.42598px;line-height:1.25;font-family:'Google Sans';-inkscape-font-specification:'Google Sans';opacity:0.6;fill:#ffffff;stroke-width:0.229227"
     d="M 38.179688 51.898438 C 37.762066 51.911689 37.393183 52.024297 37.072266 52.236328 C 36.729953 52.462498 36.464884 52.765543 36.275391 53.144531 C 36.09201 53.52352 36 53.940239 36 54.392578 C 36 54.863258 36.097363 55.28703 36.292969 55.666016 C 36.494688 56.038889 36.772416 56.332929 37.126953 56.546875 C 37.48149 56.760821 37.881898 56.867187 38.328125 56.867188 C 38.817143 56.867187 39.23386 56.757179 39.576172 56.537109 C 39.924589 56.317053 40.198665 56.01766 40.400391 55.638672 L 39.740234 55.318359 C 39.416261 55.880728 38.956467 56.162109 38.357422 56.162109 C 38.100687 56.162109 37.851676 56.100771 37.613281 55.978516 C 37.380997 55.856263 37.187973 55.672245 37.035156 55.427734 C 36.882345 55.183227 36.79764 54.883834 36.779297 54.529297 L 40.474609 54.529297 C 40.493003 54.462046 40.501953 54.382707 40.501953 54.291016 C 40.501953 53.826451 40.409945 53.413384 40.226562 53.052734 C 40.049295 52.692092 39.79323 52.41071 39.457031 52.208984 C 39.120832 52.001161 38.724079 51.898437 38.265625 51.898438 C 38.237354 51.898438 38.207529 51.897554 38.179688 51.898438 z M 43.324219 51.898438 C 42.949934 51.910615 42.604249 52.01415 42.289062 52.208984 C 41.958974 52.416816 41.697556 52.710855 41.501953 53.089844 C 41.30635 53.462719 41.208984 53.884792 41.208984 54.355469 C 41.208984 54.832261 41.30635 55.256033 41.501953 55.628906 C 41.697559 56.001792 41.958976 56.292176 42.289062 56.5 C 42.625262 56.707824 42.996951 56.8125 43.400391 56.8125 C 43.754925 56.8125 44.068679 56.738493 44.34375 56.591797 C 44.624934 56.438973 44.841322 56.244247 44.994141 56.005859 L 45.03125 56.005859 L 45.03125 56.529297 C 45.03125 57.042766 44.897865 57.439519 44.628906 57.720703 C 44.36606 58.001887 43.992671 58.142578 43.509766 58.142578 C 43.179682 58.142578 42.892948 58.055928 42.648438 57.884766 C 42.410038 57.719721 42.238677 57.503334 42.134766 57.234375 L 41.427734 57.537109 C 41.549987 57.897759 41.788041 58.206157 42.142578 58.462891 C 42.503228 58.719624 42.959623 58.847656 43.509766 58.847656 C 44.188276 58.847656 44.734726 58.649277 45.150391 58.251953 C 45.566053 57.860739 45.773438 57.288973 45.773438 56.537109 L 45.773438 52.044922 L 45.03125 52.044922 L 45.03125 52.714844 L 44.994141 52.714844 C 44.841324 52.470326 44.624937 52.273649 44.34375 52.126953 C 44.068679 51.974134 43.754925 51.898437 43.400391 51.898438 C 43.375176 51.898438 43.349171 51.897626 43.324219 51.898438 z M 48.751953 51.898438 C 48.377669 51.910615 48.033937 52.01415 47.71875 52.208984 C 47.388661 52.416816 47.125291 52.710855 46.929688 53.089844 C 46.734084 53.462719 46.636719 53.884792 46.636719 54.355469 C 46.636719 54.832261 46.734084 55.256033 46.929688 55.628906 C 47.125293 56.001792 47.388664 56.292176 47.71875 56.5 C 48.054949 56.707824 48.424686 56.8125 48.828125 56.8125 C 49.182662 56.8125 49.496413 56.738493 49.771484 56.591797 C 50.052669 56.438973 50.271009 56.244247 50.423828 56.005859 L 50.458984 56.005859 L 50.458984 56.529297 C 50.458984 57.042766 50.325599 57.439519 50.056641 57.720703 C 49.793795 58.001887 49.420403 58.142578 48.9375 58.142578 C 48.607416 58.142578 48.320682 58.055928 48.076172 57.884766 C 47.837772 57.719721 47.666412 57.503334 47.5625 57.234375 L 46.855469 57.537109 C 46.977724 57.897759 47.217728 58.206157 47.572266 58.462891 C 47.932916 58.719624 48.387357 58.847656 48.9375 58.847656 C 49.616011 58.847656 50.162463 58.649277 50.578125 58.251953 C 50.99379 57.860739 51.203125 57.288973 51.203125 56.537109 L 51.203125 52.044922 L 50.458984 52.044922 L 50.458984 52.714844 L 50.423828 52.714844 C 50.271009 52.470326 50.052669 52.273649 49.771484 52.126953 C 49.496413 51.974134 49.182662 51.898437 48.828125 51.898438 C 48.80291 51.898438 48.776905 51.897626 48.751953 51.898438 z M 38.255859 52.603516 C 38.57373 52.603516 38.837098 52.672165 39.044922 52.806641 C 39.258856 52.941121 39.413905 53.105178 39.511719 53.300781 C 39.609407 53.496392 39.665388 53.691116 39.677734 53.886719 L 36.826172 53.886719 C 36.905637 53.501625 37.069692 53.193227 37.320312 52.960938 C 37.577046 52.72255 37.889098 52.603516 38.255859 52.603516 z M 43.509766 52.603516 C 43.790955 52.603516 44.043364 52.673855 44.269531 52.814453 C 44.501816 52.948931 44.685837 53.14731 44.820312 53.410156 C 44.960911 53.673002 45.03125 53.988706 45.03125 54.355469 C 45.03125 54.716119 44.960911 55.02817 44.820312 55.291016 C 44.685842 55.553857 44.501821 55.755886 44.269531 55.896484 C 44.043359 56.037083 43.79095 56.107422 43.509766 56.107422 C 43.228589 56.107422 42.970571 56.038772 42.738281 55.904297 C 42.506004 55.763703 42.320286 55.561674 42.179688 55.298828 C 42.045212 55.029869 41.978516 54.716119 41.978516 54.355469 C 41.978516 53.994819 42.045212 53.682768 42.179688 53.419922 C 42.320273 53.157083 42.505991 52.955052 42.738281 52.814453 C 42.970563 52.673855 43.228581 52.603516 43.509766 52.603516 z M 48.9375 52.603516 C 49.218687 52.603516 49.473052 52.673855 49.699219 52.814453 C 49.931506 52.948931 50.113571 53.14731 50.248047 53.410156 C 50.388645 53.673002 50.458984 53.988706 50.458984 54.355469 C 50.458984 54.716119 50.388645 55.02817 50.248047 55.291016 C 50.113574 55.553857 49.931509 55.755886 49.699219 55.896484 C 49.473049 56.037083 49.218684 56.107422 48.9375 56.107422 C 48.656321 56.107422 48.400259 56.038772 48.167969 55.904297 C 47.935694 55.763703 47.74802 55.561674 47.607422 55.298828 C 47.472946 55.029869 47.40625 54.716119 47.40625 54.355469 C 47.40625 53.994819 47.472946 53.682768 47.607422 53.419922 C 47.748005 53.157083 47.935679 52.955052 48.167969 52.814453 C 48.400253 52.673855 48.656316 52.603516 48.9375 52.603516 z "
     transform="scale(0.26458334)" />
</svg>
