<?xml version="1.0" encoding="UTF-8" standalone="no"?>
<!-- Created with Inkscape (http://www.inkscape.org/) -->

<svg
   width="64"
   height="64"
   viewBox="0 0 16.933333 16.933334"
   version="1.1"
   id="svg5"
   inkscape:version="1.1.1 (3bf5ae0d25, 2021-09-20, custom)"
   sodipodi:docname="application-x-class-file.svg"
   xmlns:inkscape="http://www.inkscape.org/namespaces/inkscape"
   xmlns:sodipodi="http://sodipodi.sourceforge.net/DTD/sodipodi-0.dtd"
   xmlns:xlink="http://www.w3.org/1999/xlink"
   xmlns="http://www.w3.org/2000/svg"
   xmlns:svg="http://www.w3.org/2000/svg">
  <sodipodi:namedview
     id="namedview7"
     pagecolor="#ffffff"
     bordercolor="#666666"
     borderopacity="1.0"
     inkscape:pageshadow="2"
     inkscape:pageopacity="0.0"
     inkscape:pagecheckerboard="0"
     inkscape:document-units="px"
     showgrid="false"
     units="px"
     height="64px"
     inkscape:zoom="8.8277862"
     inkscape:cx="4.9842621"
     inkscape:cy="46.161063"
     inkscape:window-width="1920"
     inkscape:window-height="1019"
     inkscape:window-x="0"
     inkscape:window-y="0"
     inkscape:window-maximized="1"
     inkscape:current-layer="svg5" />
  <defs
     id="defs2">
    <linearGradient
       inkscape:collect="always"
       id="linearGradient1348">
      <stop
         style="stop-color:#3c5173;stop-opacity:1"
         offset="0"
         id="stop1344" />
      <stop
         style="stop-color:#5d97b7;stop-opacity:1"
         offset="1"
         id="stop1346" />
    </linearGradient>
    <linearGradient
       inkscape:collect="always"
       id="linearGradient12355">
      <stop
         style="stop-color:#ea452a;stop-opacity:1"
         offset="0"
         id="stop12351" />
      <stop
         style="stop-color:#fe9216;stop-opacity:1"
         offset="1"
         id="stop12353" />
    </linearGradient>
    <linearGradient
       inkscape:collect="always"
       id="linearGradient10453">
      <stop
         style="stop-color:#666666;stop-opacity:1"
         offset="0"
         id="stop10449" />
      <stop
         style="stop-color:#666666;stop-opacity:0"
         offset="1"
         id="stop10451" />
    </linearGradient>
    <linearGradient
       inkscape:collect="always"
       id="linearGradient8423">
      <stop
         style="stop-color:#fcfcfc;stop-opacity:1"
         offset="0"
         id="stop8419" />
      <stop
         style="stop-color:#ffffff;stop-opacity:0;"
         offset="1"
         id="stop8421" />
    </linearGradient>
    <linearGradient
       inkscape:collect="always"
       id="linearGradient6263">
      <stop
         style="stop-color:#000000;stop-opacity:1;"
         offset="0"
         id="stop6259" />
      <stop
         style="stop-color:#000000;stop-opacity:0;"
         offset="1"
         id="stop6261" />
    </linearGradient>
    <linearGradient
       inkscape:collect="always"
       id="linearGradient3378">
      <stop
         style="stop-color:#b0b0b0;stop-opacity:1"
         offset="0"
         id="stop3374" />
      <stop
         style="stop-color:#fcfcfc;stop-opacity:1"
         offset="1"
         id="stop3376" />
    </linearGradient>
    <linearGradient
       inkscape:collect="always"
       xlink:href="#linearGradient3378"
       id="linearGradient3380"
       x1="14.942825"
       y1="1.1138821"
       x2="11.503234"
       y2="4.3115072"
       gradientUnits="userSpaceOnUse"
       gradientTransform="translate(-0.5291663,-0.52916667)" />
    <linearGradient
       inkscape:collect="always"
       xlink:href="#linearGradient6263"
       id="linearGradient6265"
       x1="11.90625"
       y1="2.3812501"
       x2="12.170834"
       y2="7.1437502"
       gradientUnits="userSpaceOnUse"
       gradientTransform="translate(-0.52916663,0.52916673)" />
    <linearGradient
       inkscape:collect="always"
       xlink:href="#linearGradient8423"
       id="linearGradient8425"
       x1="13.692527"
       y1="11.622045"
       x2="1.6077259"
       y2="-0.71580184"
       gradientUnits="userSpaceOnUse" />
    <linearGradient
       inkscape:collect="always"
       xlink:href="#linearGradient10453"
       id="linearGradient10455"
       x1="10"
       y1="72.5"
       x2="58"
       y2="32.5"
       gradientUnits="userSpaceOnUse" />
    <linearGradient
       inkscape:collect="always"
       xlink:href="#linearGradient12355"
       id="linearGradient12357"
       x1="10.847917"
       y1="14.287501"
       x2="10.768474"
       y2="4.7625012"
       gradientUnits="userSpaceOnUse"
       gradientTransform="matrix(1.3559519,0,0,1.3559519,-3.2244489,-2.4127454)" />
    <linearGradient
       inkscape:collect="always"
       xlink:href="#linearGradient1348"
       id="linearGradient1047"
       gradientUnits="userSpaceOnUse"
       x1="10.847917"
       y1="14.287501"
       x2="10.768474"
       y2="0.7625013"
       gradientTransform="matrix(0.35876228,0,0,0.35876228,5.0270837,9.4184952)" />
  </defs>
  <path
     id="rect1068"
     style="fill:#e5e5e5;fill-opacity:1;stroke-width:0.529167;stroke-linejoin:round"
     d="m 3.175,0.5291667 7.143751,3e-8 3.968749,3.96874997 1e-6,11.3770833 c 0,0.293158 -0.236009,0.529167 -0.529167,0.529167 H 3.175 c -0.2931584,0 -0.5291667,-0.236009 -0.5291667,-0.529167 V 1.0583334 c 0,-0.29315835 0.2360083,-0.5291667 0.5291667,-0.5291667 z"
     sodipodi:nodetypes="cccsssssc" />
  <path
     id="rect8140"
     style="opacity:1;fill:url(#linearGradient8425);fill-opacity:1;stroke-width:0.518136;stroke-linejoin:round"
     d="m 3.175,0.5291668 h 7.143751 l -1e-6,2.9104166 0.79375,1.0583333 3.175,0 V 15.875 c 0,0.295111 -0.236009,0.529167 -0.529167,0.529167 H 3.175 c -0.293159,0 -0.529167,-0.236009 -0.529167,-0.529167 V 1.0583337 c 0,-0.2931589 0.236008,-0.5291669 0.529167,-0.5291669 z"
     sodipodi:nodetypes="sccccssssss" />
  <path
     id="rect9905"
     style="opacity:0.3;fill:url(#linearGradient10455);fill-opacity:1;stroke-width:2;stroke-linejoin:round"
     d="M 10 59 L 10 60 C 10 61.108 10.892 62 12 62 L 52 62 C 53.108 62 54 61.108 54 60 L 54 59 C 54 60.108 53.108 61 52 61 L 12 61 C 10.892 61 10 60.108 10 59 z "
     transform="scale(0.26458334)" />
  <path
     id="rect5598"
     style="opacity:0.2;fill:url(#linearGradient6265);fill-opacity:1;stroke-width:0.529167;stroke-linejoin:round"
     d="M 10.444901,4.3115072 10.31875,3.4395834 14.2875,4.4979167 v 3.7041668 z"
     sodipodi:nodetypes="ccccc" />
  <path
     id="rect2607"
     style="fill:url(#linearGradient3380);fill-opacity:1;stroke-width:0.529167;stroke-linejoin:round"
     d="m 14.2875,4.4979167 -3.439583,-1e-7 c -0.293158,0 -0.529166,-0.2360083 -0.529166,-0.5291667 V 0.52916673 Z"
     sodipodi:nodetypes="csscc" />
  <path
     id="path10"
     d="M 9.0636556,4.7625001 C 9.4244836,6.1839808 7.7910521,6.6133074 7.2014799,7.4985872 6.7999965,8.1017619 7.3983496,8.7500961 8.2144105,9.4863283 7.8961825,8.7669533 6.8171377,8.137401 8.2149844,7.0333234 9.9580853,5.6574028 9.0636556,4.7625001 9.0636556,4.7625001 Z m 1.0785154,1.7584727 c 2e-5,0 -2.9475586,0.7361726 -1.5398548,2.3582705 0.4155644,0.4783614 -0.1087487,0.908666 -0.1087487,0.908666 0,0 1.0542848,-0.5445414 0.5700881,-1.2265027 C 8.6112535,7.9257538 8.2644369,7.6098853 10.142171,6.5209728 Z"
     style="fill:url(#linearGradient12357);fill-opacity:1;stroke-width:0.287006"
     sodipodi:nodetypes="cccccccccc" />
  <path
     d="m 10.664052,9.4185009 c -0.103568,3.444e-4 -0.21343,0.018659 -0.326247,0.058299 -0.09044,0.03202 -0.137897,0.106506 -0.137897,0.106506 0,0 0.05692,-0.02328 0.184424,-0.04989 0.521384,-0.1086412 1.268507,0.6977991 -0.346986,1.5370511 -0.0075,0.02 -0.03197,0.0426 -0.03196,0.0426 1.921236,-0.505063 1.502023,-1.696203 0.658659,-1.694576 z m -3.5281569,0.082402 c -0.1984339,0.0039 -0.6886302,0.04447 -1.2606968,0.3212 -0.8838696,0.4273767 2.1860689,0.6220587 3.775363,0.2040437 0.165232,-0.1127627 0.3935117,-0.2107707 0.3935117,-0.2107707 0,0 -0.6500204,0.116612 -1.2976928,0.170971 -0.7927702,0.06651 -1.6432868,0.07955 -2.0701436,0.02242 -1.0106785,-0.1351187 0.5538318,-0.5067447 0.5538318,-0.5067447 0,0 -0.00944,-7.89e-4 -0.027466,-0.0011 -0.015814,-3.59e-4 -0.038357,-5.74e-4 -0.066701,0 z M 6.8657062,10.478518 C 5.407668,10.962421 7.6773194,11.511812 9.7150243,10.915753 9.4985163,10.839423 9.3613126,10.699377 9.3613126,10.699377 8.3649963,10.891121 7.7891843,10.885057 7.06022,10.809806 6.496661,10.751566 6.8657062,10.478515 6.8657062,10.478518 Z m 0.2062855,0.942298 C 5.7481398,11.790723 7.8774165,12.555055 9.5631143,11.832828 9.2870296,11.725543 9.0888816,11.601877 9.0888816,11.601877 8.3371801,11.74396 7.9886249,11.754889 7.3063046,11.676991 6.7431687,11.612404 7.0719917,11.420816 7.0719917,11.420816 Z m -0.919877,0.625025 c -0.5946818,0.01864 -1.756391,0.552861 -0.6934114,0.725364 3.4365464,0.55704 6.2643087,-0.250885 5.3729547,-0.653052 0,0 0.243609,0.200758 -0.267947,0.355956 -0.9727337,0.294633 -4.0497472,0.383478 -4.9043279,0.0118 -0.3069785,-0.133711 0.2689182,-0.31906 0.4501283,-0.358198 0.1889458,-0.04087 0.2970971,-0.03307 0.2970971,-0.03307 -0.053293,-0.03752 -0.1440989,-0.0521 -0.2539338,-0.04877 z m 5.2249683,0.51123 c 0,0 -0.108436,0.277663 -1.281439,0.498337 -1.3234164,0.24915 -2.9559708,0.220349 -3.9239103,0.06054 0,0 0.1985781,0.164245 1.2175334,0.22983 1.5503522,0.09911 3.9314069,-0.05504 3.9878159,-0.788707 z"
     style="fill:url(#linearGradient1047);fill-opacity:1;stroke-width:0.0759371"
     id="path952" />
</svg>
