<?xml version="1.0" encoding="UTF-8" standalone="no"?>
<!-- Created with Inkscape (http://www.inkscape.org/) -->

<svg
   width="64"
   height="64"
   viewBox="0 0 16.933333 16.933334"
   version="1.1"
   id="svg5"
   inkscape:version="1.1.1 (3bf5ae0d25, 2021-09-20, custom)"
   sodipodi:docname="application-octet-stream.svg"
   xmlns:inkscape="http://www.inkscape.org/namespaces/inkscape"
   xmlns:sodipodi="http://sodipodi.sourceforge.net/DTD/sodipodi-0.dtd"
   xmlns:xlink="http://www.w3.org/1999/xlink"
   xmlns="http://www.w3.org/2000/svg"
   xmlns:svg="http://www.w3.org/2000/svg">
  <sodipodi:namedview
     id="namedview7"
     pagecolor="#ffffff"
     bordercolor="#666666"
     borderopacity="1.0"
     inkscape:pageshadow="2"
     inkscape:pageopacity="0.0"
     inkscape:pagecheckerboard="0"
     inkscape:document-units="px"
     showgrid="false"
     units="px"
     height="64px"
     inkscape:zoom="6.296875"
     inkscape:cx="10.163772"
     inkscape:cy="80.198511"
     inkscape:window-width="1920"
     inkscape:window-height="1011"
     inkscape:window-x="0"
     inkscape:window-y="0"
     inkscape:window-maximized="1"
     inkscape:current-layer="svg5" />
  <defs
     id="defs2">
    <linearGradient
       inkscape:collect="always"
       id="linearGradient29383">
      <stop
         style="stop-color:#808080;stop-opacity:1;"
         offset="0"
         id="stop29379" />
      <stop
         style="stop-color:#cccccc;stop-opacity:1"
         offset="1"
         id="stop29381" />
    </linearGradient>
    <linearGradient
       inkscape:collect="always"
       id="linearGradient10453">
      <stop
         style="stop-color:#666666;stop-opacity:1"
         offset="0"
         id="stop10449" />
      <stop
         style="stop-color:#666666;stop-opacity:0"
         offset="1"
         id="stop10451" />
    </linearGradient>
    <linearGradient
       inkscape:collect="always"
       id="linearGradient8423">
      <stop
         style="stop-color:#fcfcfc;stop-opacity:1"
         offset="0"
         id="stop8419" />
      <stop
         style="stop-color:#ffffff;stop-opacity:0;"
         offset="1"
         id="stop8421" />
    </linearGradient>
    <linearGradient
       inkscape:collect="always"
       id="linearGradient6263">
      <stop
         style="stop-color:#000000;stop-opacity:1;"
         offset="0"
         id="stop6259" />
      <stop
         style="stop-color:#000000;stop-opacity:0;"
         offset="1"
         id="stop6261" />
    </linearGradient>
    <linearGradient
       inkscape:collect="always"
       id="linearGradient3378">
      <stop
         style="stop-color:#b0b0b0;stop-opacity:1"
         offset="0"
         id="stop3374" />
      <stop
         style="stop-color:#fcfcfc;stop-opacity:1"
         offset="1"
         id="stop3376" />
    </linearGradient>
    <linearGradient
       inkscape:collect="always"
       xlink:href="#linearGradient3378"
       id="linearGradient3380"
       x1="14.942825"
       y1="1.1138821"
       x2="11.503234"
       y2="4.3115072"
       gradientUnits="userSpaceOnUse"
       gradientTransform="translate(-0.5291663,-0.52916667)" />
    <linearGradient
       inkscape:collect="always"
       xlink:href="#linearGradient6263"
       id="linearGradient6265"
       x1="11.90625"
       y1="2.3812501"
       x2="12.170834"
       y2="7.1437502"
       gradientUnits="userSpaceOnUse"
       gradientTransform="translate(-0.52916663,0.52916673)" />
    <linearGradient
       inkscape:collect="always"
       xlink:href="#linearGradient8423"
       id="linearGradient8425"
       x1="13.692527"
       y1="11.622045"
       x2="1.6077259"
       y2="-0.71580184"
       gradientUnits="userSpaceOnUse" />
    <linearGradient
       inkscape:collect="always"
       xlink:href="#linearGradient10453"
       id="linearGradient10455"
       x1="10"
       y1="72.5"
       x2="58"
       y2="32.5"
       gradientUnits="userSpaceOnUse"
       gradientTransform="scale(0.26458334)" />
    <linearGradient
       inkscape:collect="always"
       xlink:href="#linearGradient6263"
       id="linearGradient28993"
       x1="16.330078"
       y1="63.975586"
       x2="51"
       y2="17.975586"
       gradientUnits="userSpaceOnUse" />
    <linearGradient
       inkscape:collect="always"
       xlink:href="#linearGradient29383"
       id="linearGradient29385"
       x1="14.330078"
       y1="58.975586"
       x2="13.000001"
       y2="22.975586"
       gradientUnits="userSpaceOnUse" />
  </defs>
  <path
     id="rect1068"
     style="fill:#e5e5e5;fill-opacity:1;stroke-width:0.529167;stroke-linejoin:round"
     d="m 3.175,0.5291667 7.143751,3e-8 3.968749,3.96874997 1e-6,11.3770833 c 0,0.293158 -0.236009,0.529167 -0.529167,0.529167 H 3.175 c -0.2931584,0 -0.5291667,-0.236009 -0.5291667,-0.529167 V 1.0583334 c 0,-0.29315835 0.2360083,-0.5291667 0.5291667,-0.5291667 z"
     sodipodi:nodetypes="cccsssssc" />
  <path
     id="rect8140"
     style="opacity:1;fill:url(#linearGradient8425);fill-opacity:1;stroke-width:0.518136;stroke-linejoin:round"
     d="m 3.175,0.5291668 h 7.143751 l -1e-6,2.9104166 0.79375,1.0583333 3.175,0 V 15.875 c 0,0.295111 -0.236009,0.529167 -0.529167,0.529167 H 3.175 c -0.293159,0 -0.529167,-0.236009 -0.529167,-0.529167 V 1.0583337 c 0,-0.2931589 0.236008,-0.5291669 0.529167,-0.5291669 z"
     sodipodi:nodetypes="sccccssssss" />
  <path
     id="rect9905"
     style="opacity:0.3;fill:url(#linearGradient10455);fill-opacity:1;stroke-width:0.529167;stroke-linejoin:round"
     d="m 2.6458334,15.610417 v 0.264584 c 0,0.293158 0.2360083,0.529166 0.5291667,0.529166 H 13.758334 c 0.293158,0 0.529166,-0.236008 0.529166,-0.529166 v -0.264584 c 0,0.293159 -0.236008,0.529167 -0.529166,0.529167 H 3.1750001 c -0.2931584,0 -0.5291667,-0.236008 -0.5291667,-0.529167 z" />
  <path
     id="rect5598"
     style="opacity:0.2;fill:url(#linearGradient6265);fill-opacity:1;stroke-width:0.529167;stroke-linejoin:round"
     d="M 10.444901,4.3115072 10.31875,3.4395834 14.2875,4.4979167 v 3.7041668 z"
     sodipodi:nodetypes="ccccc" />
  <path
     id="rect2607"
     style="fill:url(#linearGradient3380);fill-opacity:1;stroke-width:0.529167;stroke-linejoin:round"
     d="m 14.2875,4.4979167 -3.439583,-1e-7 c -0.293158,0 -0.529166,-0.2360083 -0.529166,-0.5291667 V 0.52916673 Z"
     sodipodi:nodetypes="csscc" />
  <path
     id="path28477"
     style="font-size:3.54352px;line-height:1.25;font-family:'나눔스퀘어';-inkscape-font-specification:'나눔스퀘어';stroke-width:0.334821;fill:url(#linearGradient29385);fill-opacity:1"
     d="M 27.634766 24 C 26.509768 24 25.683035 24.365515 25.15625 25.097656 C 24.629466 25.829798 24.365234 26.870538 24.365234 28.21875 L 24.365234 29.71875 C 24.365234 31.07589 24.624722 32.121374 25.142578 32.853516 C 25.660434 33.585657 26.491911 33.951172 27.634766 33.951172 C 28.795478 33.951172 29.634488 33.588447 30.152344 32.865234 C 30.6702 32.133093 30.927734 31.084819 30.927734 29.71875 L 30.927734 28.21875 C 30.927734 26.86161 30.665456 25.820869 30.138672 25.097656 C 29.611887 24.365515 28.777621 24 27.634766 24 z M 35.669922 24 C 34.544924 24 33.718191 24.365515 33.191406 25.097656 C 32.664622 25.829798 32.402344 26.870538 32.402344 28.21875 L 32.402344 29.71875 C 32.402344 31.07589 32.659878 32.121374 33.177734 32.853516 C 33.695591 33.585657 34.527067 33.951172 35.669922 33.951172 C 36.830634 33.951172 37.669645 33.588447 38.1875 32.865234 C 38.705358 32.133093 38.964844 31.084819 38.964844 29.71875 L 38.964844 28.21875 C 38.964844 26.86161 38.700614 25.820869 38.173828 25.097656 C 37.647043 24.365515 36.812777 24 35.669922 24 z M 43.705078 24 C 42.580082 24 41.755301 24.365515 41.228516 25.097656 C 40.70173 25.829798 40.4375 26.870538 40.4375 28.21875 L 40.4375 29.71875 C 40.4375 31.07589 40.696988 32.121374 41.214844 32.853516 C 41.732699 33.585657 42.562222 33.951172 43.705078 33.951172 C 44.865791 33.951172 45.704801 33.588447 46.222656 32.865234 C 46.740512 32.133093 47 31.084819 47 29.71875 L 47 28.21875 C 47 26.86161 46.73577 25.820869 46.208984 25.097656 C 45.682201 24.365515 44.847934 24 43.705078 24 z M 19.986328 24.146484 L 17 25.996094 L 17.427734 26.746094 L 19.759766 25.326172 L 19.759766 33.802734 L 20.697266 33.802734 L 20.697266 24.146484 L 19.986328 24.146484 z M 27.634766 24.84375 C 28.41155 24.84375 28.991072 25.107981 29.375 25.634766 C 29.767856 26.152622 29.964844 27.008652 29.964844 28.205078 L 29.964844 29.732422 C 29.964844 30.937777 29.767856 31.803293 29.375 32.330078 C 28.982144 32.847934 28.402621 33.107422 27.634766 33.107422 C 26.893696 33.107422 26.321707 32.843191 25.919922 32.316406 C 25.527065 31.789621 25.330078 30.928848 25.330078 29.732422 L 25.330078 28.205078 C 25.330078 27.017581 25.527065 26.16155 25.919922 25.634766 C 26.321707 25.107981 26.893696 24.84375 27.634766 24.84375 z M 35.669922 24.84375 C 36.446706 24.84375 37.026229 25.107981 37.410156 25.634766 C 37.803012 26.152622 38 27.008652 38 28.205078 L 38 29.732422 C 38 30.937777 37.803012 31.803293 37.410156 32.330078 C 37.0173 32.847934 36.437778 33.107422 35.669922 33.107422 C 34.928852 33.107422 34.356863 32.843191 33.955078 32.316406 C 33.562222 31.789621 33.365234 30.928848 33.365234 29.732422 L 33.365234 28.205078 C 33.365234 27.017581 33.562222 26.16155 33.955078 25.634766 C 34.356863 25.107981 34.928852 24.84375 35.669922 24.84375 z M 43.705078 24.84375 C 44.481862 24.84375 45.063336 25.107981 45.447266 25.634766 C 45.840122 26.152622 46.035156 27.008652 46.035156 28.205078 L 46.035156 29.732422 C 46.035156 30.937777 45.840122 31.803293 45.447266 32.330078 C 45.054409 32.847934 44.472934 33.107422 43.705078 33.107422 C 42.964009 33.107422 42.392021 32.843191 41.990234 32.316406 C 41.59738 31.789621 41.402344 30.928848 41.402344 29.732422 L 41.402344 28.205078 C 41.402344 27.017581 41.59738 26.16155 41.990234 25.634766 C 42.392021 25.107981 42.964009 24.84375 43.705078 24.84375 z M 19.597656 36 C 18.472658 36 17.647879 36.365515 17.121094 37.097656 C 16.594309 37.829798 16.330078 38.870537 16.330078 40.21875 L 16.330078 41.71875 C 16.330078 43.07589 16.589566 44.121373 17.107422 44.853516 C 17.625278 45.585655 18.454801 45.951172 19.597656 45.951172 C 20.758368 45.951172 21.597378 45.588447 22.115234 44.865234 C 22.63309 44.133092 22.892578 43.084817 22.892578 41.71875 L 22.892578 40.21875 C 22.892578 38.86161 22.6303 37.82087 22.103516 37.097656 C 21.576731 36.365515 20.740511 36 19.597656 36 z M 35.669922 36 C 34.544924 36 33.718191 36.365515 33.191406 37.097656 C 32.664622 37.829798 32.402344 38.870537 32.402344 40.21875 L 32.402344 41.71875 C 32.402344 43.07589 32.659878 44.121373 33.177734 44.853516 C 33.695591 45.585655 34.527067 45.951172 35.669922 45.951172 C 36.830634 45.951172 37.669645 45.588447 38.1875 44.865234 C 38.705358 44.133092 38.964844 43.084817 38.964844 41.71875 L 38.964844 40.21875 C 38.964844 38.86161 38.700614 37.82087 38.173828 37.097656 C 37.647043 36.365515 36.812777 36 35.669922 36 z M 43.705078 36 C 42.580082 36 41.755301 36.365515 41.228516 37.097656 C 40.70173 37.829798 40.4375 38.870537 40.4375 40.21875 L 40.4375 41.71875 C 40.4375 43.07589 40.696988 44.121373 41.214844 44.853516 C 41.732699 45.585655 42.562222 45.951172 43.705078 45.951172 C 44.865791 45.951172 45.704801 45.588447 46.222656 44.865234 C 46.740512 44.133092 47 43.084817 47 41.71875 L 47 40.21875 C 47 38.86161 46.73577 37.82087 46.208984 37.097656 C 45.682201 36.365515 44.847934 36 43.705078 36 z M 28.021484 36.146484 L 25.035156 37.996094 L 25.464844 38.746094 L 27.794922 37.326172 L 27.794922 45.802734 L 28.732422 45.802734 L 28.732422 36.146484 L 28.021484 36.146484 z M 19.597656 36.84375 C 20.37444 36.84375 20.955916 37.107981 21.339844 37.634766 C 21.7327 38.152621 21.927734 39.008651 21.927734 40.205078 L 21.927734 41.732422 C 21.927734 42.937779 21.7327 43.803295 21.339844 44.330078 C 20.946987 44.847934 20.365512 45.107422 19.597656 45.107422 C 18.856586 45.107422 18.286551 44.843189 17.884766 44.316406 C 17.491909 43.789621 17.294922 42.928849 17.294922 41.732422 L 17.294922 40.205078 C 17.294922 39.017581 17.491909 38.161551 17.884766 37.634766 C 18.286551 37.107981 18.856586 36.84375 19.597656 36.84375 z M 35.669922 36.84375 C 36.446706 36.84375 37.026229 37.107981 37.410156 37.634766 C 37.803012 38.152621 38 39.008651 38 40.205078 L 38 41.732422 C 38 42.937779 37.803012 43.803295 37.410156 44.330078 C 37.0173 44.847934 36.437778 45.107422 35.669922 45.107422 C 34.928852 45.107422 34.356863 44.843189 33.955078 44.316406 C 33.562222 43.789621 33.365234 42.928849 33.365234 41.732422 L 33.365234 40.205078 C 33.365234 39.017581 33.562222 38.161551 33.955078 37.634766 C 34.356863 37.107981 34.928852 36.84375 35.669922 36.84375 z M 43.705078 36.84375 C 44.481862 36.84375 45.063336 37.107981 45.447266 37.634766 C 45.840122 38.152621 46.035156 39.008651 46.035156 40.205078 L 46.035156 41.732422 C 46.035156 42.937779 45.840122 43.803295 45.447266 44.330078 C 45.054409 44.847934 44.472934 45.107422 43.705078 45.107422 C 42.964009 45.107422 42.392021 44.843189 41.990234 44.316406 C 41.59738 43.789621 41.402344 42.928849 41.402344 41.732422 L 41.402344 40.205078 C 41.402344 39.017581 41.59738 38.161551 41.990234 37.634766 C 42.392021 37.107981 42.964009 36.84375 43.705078 36.84375 z M 19.597656 48 C 18.472658 48 17.647879 48.365514 17.121094 49.097656 C 16.594309 49.829796 16.330078 50.870537 16.330078 52.21875 L 16.330078 53.71875 C 16.330078 55.07589 16.589566 56.121373 17.107422 56.853516 C 17.625278 57.585655 18.454801 57.951172 19.597656 57.951172 C 20.758368 57.951172 21.597378 57.588447 22.115234 56.865234 C 22.63309 56.133095 22.892578 55.08482 22.892578 53.71875 L 22.892578 52.21875 C 22.892578 50.86161 22.6303 49.820869 22.103516 49.097656 C 21.576731 48.365514 20.740511 48 19.597656 48 z M 27.634766 48 C 26.509768 48 25.683035 48.365514 25.15625 49.097656 C 24.629466 49.829796 24.365234 50.870537 24.365234 52.21875 L 24.365234 53.71875 C 24.365234 55.07589 24.624722 56.121373 25.142578 56.853516 C 25.660434 57.585655 26.491911 57.951172 27.634766 57.951172 C 28.795478 57.951172 29.634488 57.588447 30.152344 56.865234 C 30.6702 56.133095 30.927734 55.08482 30.927734 53.71875 L 30.927734 52.21875 C 30.927734 50.86161 30.665456 49.820869 30.138672 49.097656 C 29.611887 48.365514 28.777621 48 27.634766 48 z M 43.705078 48 C 42.580082 48 41.755301 48.365514 41.228516 49.097656 C 40.70173 49.829796 40.4375 50.870537 40.4375 52.21875 L 40.4375 53.71875 C 40.4375 55.07589 40.696988 56.121373 41.214844 56.853516 C 41.732699 57.585655 42.562222 57.951172 43.705078 57.951172 C 44.865791 57.951172 45.704801 57.588447 46.222656 56.865234 C 46.740512 56.133095 47 55.08482 47 53.71875 L 47 52.21875 C 47 50.86161 46.73577 49.820869 46.208984 49.097656 C 45.682201 48.365514 44.847934 48 43.705078 48 z M 36.058594 48.146484 L 33.072266 49.996094 L 33.5 50.746094 L 35.830078 49.326172 L 35.830078 57.802734 L 36.767578 57.802734 L 36.767578 48.146484 L 36.058594 48.146484 z M 19.597656 48.84375 C 20.37444 48.84375 20.955916 49.10798 21.339844 49.634766 C 21.7327 50.152621 21.927734 51.008654 21.927734 52.205078 L 21.927734 53.732422 C 21.927734 54.937776 21.7327 55.803293 21.339844 56.330078 C 20.946987 56.847934 20.365512 57.107422 19.597656 57.107422 C 18.856586 57.107422 18.286551 56.843192 17.884766 56.316406 C 17.491909 55.789621 17.294922 54.928846 17.294922 53.732422 L 17.294922 52.205078 C 17.294922 51.017581 17.491909 50.161549 17.884766 49.634766 C 18.286551 49.10798 18.856586 48.84375 19.597656 48.84375 z M 27.634766 48.84375 C 28.41155 48.84375 28.991072 49.10798 29.375 49.634766 C 29.767856 50.152621 29.964844 51.008654 29.964844 52.205078 L 29.964844 53.732422 C 29.964844 54.937776 29.767856 55.803293 29.375 56.330078 C 28.982144 56.847934 28.402621 57.107422 27.634766 57.107422 C 26.893696 57.107422 26.321707 56.843192 25.919922 56.316406 C 25.527065 55.789621 25.330078 54.928846 25.330078 53.732422 L 25.330078 52.205078 C 25.330078 51.017581 25.527065 50.161549 25.919922 49.634766 C 26.321707 49.10798 26.893696 48.84375 27.634766 48.84375 z M 43.705078 48.84375 C 44.481862 48.84375 45.063336 49.10798 45.447266 49.634766 C 45.840122 50.152621 46.035156 51.008654 46.035156 52.205078 L 46.035156 53.732422 C 46.035156 54.937776 45.840122 55.803293 45.447266 56.330078 C 45.054409 56.847934 44.472934 57.107422 43.705078 57.107422 C 42.964009 57.107422 42.392021 56.843192 41.990234 56.316406 C 41.59738 55.789621 41.402344 54.928846 41.402344 53.732422 L 41.402344 52.205078 C 41.402344 51.017581 41.59738 50.161549 41.990234 49.634766 C 42.392021 49.10798 42.964009 48.84375 43.705078 48.84375 z "
     transform="scale(0.26458334)" />
  <path
     id="path28477-3"
     style="font-size:3.54352px;line-height:1.25;font-family:'나눔스퀘어';-inkscape-font-specification:'나눔스퀘어';fill:url(#linearGradient28993);fill-opacity:1;stroke-width:0.334821;opacity:0.3"
     d="m 27.634766,25 c -0.468664,0 -0.884985,0.06446 -1.25,0.191406 -0.174481,0.117953 -0.329149,0.265447 -0.464844,0.44336 -0.392856,0.526784 -0.589844,1.382815 -0.589844,2.570312 v 1 c 0,-1.187497 0.196985,-2.043528 0.589844,-2.570312 0.401785,-0.526785 0.973773,-0.791016 1.714844,-0.791016 0.776783,0 1.356306,0.26423 1.740234,0.791016 0.392855,0.517856 0.589844,1.373886 0.589844,2.570312 v -1 c 0,-1.196426 -0.196989,-2.052456 -0.589844,-2.570312 C 29.249551,25.462638 29.102819,25.31913 28.935547,25.203125 28.558542,25.068274 28.125457,25 27.634766,25 Z m 8.035156,0 c -0.468664,0 -0.884985,0.06446 -1.25,0.191406 -0.174481,0.117953 -0.329148,0.265447 -0.464844,0.44336 -0.392855,0.526784 -0.589844,1.382815 -0.589844,2.570312 v 1 c 0,-1.187497 0.196989,-2.043528 0.589844,-2.570312 0.401787,-0.526785 0.973773,-0.791016 1.714844,-0.791016 0.776783,0 1.356306,0.26423 1.740234,0.791016 C 37.803011,27.152622 38,28.008652 38,29.205078 v -1 C 38,27.008652 37.803013,26.152622 37.410156,25.634766 37.284708,25.462638 37.137975,25.31913 36.970703,25.203125 36.593699,25.068274 36.160615,25 35.669922,25 Z m 8.035156,0 c -0.468912,0 -0.885242,0.06432 -1.25,0.191406 -0.174481,0.117953 -0.329146,0.265447 -0.464844,0.44336 -0.392866,0.526784 -0.58789,1.382815 -0.58789,2.570312 v 1 c 0,-1.187497 0.195027,-2.043528 0.58789,-2.570312 0.401791,-0.526785 0.973773,-0.791016 1.714844,-0.791016 0.776784,0 1.358256,0.26423 1.742188,0.791016 0.392855,0.517856 0.58789,1.373886 0.58789,2.570312 v -1 c 0,-1.196426 -0.195031,-2.052456 -0.58789,-2.570312 -0.12515,-0.171717 -0.2724,-0.313826 -0.439454,-0.429688 C 44.630266,25.069672 44.196779,25 43.705078,25 Z m -23.945312,0.326172 -2.332032,1.419922 -0.0059,-0.01172 L 17,26.996094 l 0.427734,0.75 2.332032,-1.419922 z m 4.605468,4.392578 v 1 c 0,1.35714 0.259487,2.402624 0.777344,3.134766 0.517856,0.732141 1.34933,1.097656 2.492188,1.097656 1.160711,0 1.999722,-0.362725 2.517578,-1.085938 0.517855,-0.732141 0.77539,-1.780415 0.77539,-3.146484 v -1 c 0,1.366069 -0.257535,2.414343 -0.77539,3.146484 -0.301444,0.420982 -0.713231,0.718286 -1.232422,0.894532 -0.345251,0.230994 -0.77251,0.347656 -1.285156,0.347656 -0.483566,0 -0.895107,-0.113345 -1.234375,-0.337891 -0.529523,-0.176289 -0.949766,-0.480501 -1.257813,-0.916015 -0.51784,-0.732142 -0.777344,-1.777626 -0.777344,-3.134766 z m 8.03711,0 v 1 c 0,1.35714 0.257535,2.402624 0.77539,3.134766 0.517856,0.732141 1.349334,1.097656 2.492188,1.097656 1.160712,0 1.999726,-0.362725 2.517578,-1.085938 0.51786,-0.732141 0.777344,-1.780415 0.777344,-3.146484 v -1 c 0,1.366069 -0.259484,2.414343 -0.777344,3.146484 -0.301444,0.420982 -0.713231,0.718286 -1.232422,0.894532 -0.345249,0.230994 -0.772507,0.347656 -1.285156,0.347656 -0.483566,0 -0.895107,-0.113345 -1.234375,-0.337891 -0.529522,-0.176289 -0.949766,-0.480501 -1.257813,-0.916015 -0.517855,-0.732142 -0.77539,-1.777626 -0.77539,-3.134766 z m 8.035156,0 v 1 c 0,1.35714 0.259503,2.402624 0.777344,3.134766 0.517855,0.732141 1.347377,1.097656 2.490234,1.097656 1.160712,0 1.999723,-0.362725 2.517578,-1.085938 C 46.740512,33.133093 47,32.084819 47,30.71875 v -1 c 0,1.366069 -0.259488,2.414343 -0.777344,3.146484 -0.300315,0.419407 -0.710126,0.716079 -1.226562,0.892578 -0.346452,0.232616 -0.77657,0.34961 -1.291016,0.34961 -0.483566,0 -0.895106,-0.113345 -1.234375,-0.337891 C 41.941741,33.593242 41.52289,33.28903 41.214844,32.853516 40.697003,32.121374 40.4375,31.07589 40.4375,29.71875 Z m -20.677734,4.083984 v 1 h 0.9375 v -1 z M 19.597656,37 c -0.46743,0 -0.882161,0.06513 -1.246094,0.191406 -0.174724,0.118099 -0.330757,0.264997 -0.466796,0.44336 -0.392856,0.526784 -0.589844,1.382811 -0.589844,2.570312 v 1 c 0,-1.187497 0.196989,-2.043526 0.589844,-2.570312 0.401785,-0.526783 0.97182,-0.791016 1.71289,-0.791016 0.776784,0 1.35826,0.264229 1.742188,0.791016 0.392856,0.517855 0.58789,1.373884 0.58789,2.570312 v -1 c 0,-1.196428 -0.195035,-2.052459 -0.58789,-2.570312 C 21.214143,37.462292 21.066412,37.31925 20.898438,37.203125 20.52137,37.06863 20.0877,37 19.597656,37 Z m 16.072266,0 c -0.468664,0 -0.884985,0.06446 -1.25,0.191406 -0.174481,0.117953 -0.329148,0.265447 -0.464844,0.44336 -0.392855,0.526784 -0.589844,1.382811 -0.589844,2.570312 v 1 c 0,-1.187497 0.196989,-2.043526 0.589844,-2.570312 0.401787,-0.526783 0.973773,-0.791016 1.714844,-0.791016 0.776783,0 1.356306,0.264229 1.740234,0.791016 C 37.803011,39.152621 38,40.00865 38,41.205078 v -1 C 38,39.00865 37.803013,38.152619 37.410156,37.634766 37.284708,37.462638 37.137975,37.31913 36.970703,37.203125 36.593699,37.068274 36.160615,37 35.669922,37 Z m 8.035156,0 c -0.468912,0 -0.885242,0.06432 -1.25,0.191406 -0.174481,0.117953 -0.329146,0.265447 -0.464844,0.44336 -0.392866,0.526784 -0.58789,1.382811 -0.58789,2.570312 v 1 c 0,-1.187497 0.195027,-2.043526 0.58789,-2.570312 0.401791,-0.526783 0.973773,-0.791016 1.714844,-0.791016 0.776784,0 1.358256,0.264229 1.742188,0.791016 0.392855,0.517855 0.58789,1.373884 0.58789,2.570312 v -1 c 0,-1.196428 -0.195031,-2.052459 -0.58789,-2.570312 -0.12515,-0.171717 -0.2724,-0.313826 -0.439454,-0.429688 C 44.630266,37.069671 44.196779,37 43.705078,37 Z m -15.910156,0.326172 -2.330078,1.419922 -0.0059,-0.01172 -0.423828,0.261719 0.429688,0.75 2.330078,-1.419922 z M 16.330078,41.71875 v 1 c 0,1.357141 0.259487,2.402622 0.777344,3.134766 0.517856,0.732139 1.347379,1.097656 2.490234,1.097656 1.160712,0 1.999722,-0.362721 2.517578,-1.085938 0.517856,-0.732143 0.777344,-1.780415 0.777344,-3.146484 v -1 c 0,1.366065 -0.259484,2.414341 -0.777344,3.146484 -0.300315,0.419409 -0.710126,0.716079 -1.226562,0.892578 -0.346452,0.232616 -0.77657,0.34961 -1.291016,0.34961 -0.482501,0 -0.892207,-0.112378 -1.230468,-0.335938 -0.530908,-0.176073 -0.950921,-0.481328 -1.259766,-0.917968 -0.517841,-0.732144 -0.777344,-1.777628 -0.777344,-3.134766 z m 16.072266,0 v 1 c 0,1.357141 0.257535,2.402622 0.77539,3.134766 0.517856,0.732139 1.349334,1.097656 2.492188,1.097656 1.160712,0 1.999726,-0.362721 2.517578,-1.085938 0.51786,-0.732143 0.777344,-1.780415 0.777344,-3.146484 v -1 c 0,1.366065 -0.259484,2.414341 -0.777344,3.146484 -0.301444,0.420984 -0.713231,0.718287 -1.232422,0.894532 -0.345249,0.230993 -0.772507,0.347656 -1.285156,0.347656 -0.483566,0 -0.895107,-0.113345 -1.234375,-0.337891 -0.529522,-0.176289 -0.949766,-0.480504 -1.257813,-0.916015 -0.517855,-0.732144 -0.77539,-1.777628 -0.77539,-3.134766 z m 8.035156,0 v 1 c 0,1.357141 0.259503,2.402622 0.777344,3.134766 0.517855,0.732139 1.347377,1.097656 2.490234,1.097656 1.160712,0 1.999723,-0.362721 2.517578,-1.085938 C 46.740512,45.133091 47,44.084819 47,42.71875 v -1 c 0,1.366065 -0.259488,2.414341 -0.777344,3.146484 -0.300315,0.419409 -0.710126,0.716079 -1.226562,0.892578 -0.346452,0.232616 -0.77657,0.34961 -1.291016,0.34961 -0.483566,0 -0.895106,-0.113345 -1.234375,-0.337891 C 41.941741,45.593242 41.52289,45.289027 41.214844,44.853516 40.697003,44.121372 40.4375,43.075888 40.4375,41.71875 Z m -12.642578,4.083984 v 1 h 0.9375 v -1 z M 19.597656,49 c -0.46743,0 -0.882161,0.06513 -1.246094,0.191406 -0.174724,0.118099 -0.330757,0.264996 -0.466796,0.44336 -0.392856,0.526783 -0.589844,1.382815 -0.589844,2.570312 v 1 c 0,-1.187497 0.196989,-2.043529 0.589844,-2.570312 0.401785,-0.526787 0.97182,-0.791016 1.71289,-0.791016 0.776784,0 1.35826,0.264225 1.742188,0.791016 0.392856,0.517852 0.58789,1.373891 0.58789,2.570312 v -1 c 0,-1.196424 -0.195035,-2.052464 -0.58789,-2.570312 C 21.214143,49.462291 21.066412,49.31925 20.898438,49.203125 20.52137,49.06863 20.0877,49 19.597656,49 Z m 8.03711,0 c -0.468664,0 -0.884985,0.06446 -1.25,0.191406 -0.174481,0.117953 -0.329149,0.265447 -0.464844,0.44336 -0.392856,0.526783 -0.589844,1.382815 -0.589844,2.570312 v 1 c 0,-1.187497 0.196985,-2.043529 0.589844,-2.570312 0.401785,-0.526787 0.973773,-0.791016 1.714844,-0.791016 0.776783,0 1.356306,0.264225 1.740234,0.791016 0.392855,0.517852 0.589844,1.373891 0.589844,2.570312 v -1 c 0,-1.196424 -0.196989,-2.052464 -0.589844,-2.570312 C 29.249551,49.462637 29.102819,49.31913 28.935547,49.203125 28.558542,49.068274 28.125457,49 27.634766,49 Z m 16.070312,0 c -0.468912,0 -0.885242,0.06432 -1.25,0.191406 -0.174481,0.117953 -0.329146,0.265447 -0.464844,0.44336 -0.392866,0.526783 -0.58789,1.382815 -0.58789,2.570312 v 1 c 0,-1.187497 0.195027,-2.043529 0.58789,-2.570312 0.401791,-0.526787 0.973773,-0.791016 1.714844,-0.791016 0.776784,0 1.358256,0.264225 1.742188,0.791016 0.392855,0.517852 0.58789,1.373891 0.58789,2.570312 v -1 c 0,-1.196424 -0.195031,-2.052464 -0.58789,-2.570312 -0.12515,-0.171719 -0.2724,-0.313826 -0.439454,-0.429688 C 44.630266,49.069672 44.196779,49 43.705078,49 Z m -7.875,0.326172 -2.330078,1.419922 -0.0059,-0.01172 -0.421875,0.261719 0.427734,0.75 2.330078,-1.419922 z m -19.5,4.392578 v 1 c 0,1.357138 0.259487,2.402622 0.777344,3.134766 0.517856,0.732136 1.347379,1.097656 2.490234,1.097656 1.160712,0 1.999722,-0.362721 2.517578,-1.085938 0.517856,-0.732139 0.777344,-1.780415 0.777344,-3.146484 v -1 c 0,1.366069 -0.259484,2.414345 -0.777344,3.146484 -0.300315,0.419409 -0.710126,0.716079 -1.226562,0.892578 -0.346452,0.232616 -0.77657,0.34961 -1.291016,0.34961 -0.482501,0 -0.892207,-0.112377 -1.230468,-0.335938 -0.530908,-0.176072 -0.950921,-0.481326 -1.259766,-0.917968 -0.517841,-0.732144 -0.777344,-1.777628 -0.777344,-3.134766 z m 8.035156,0 v 1 c 0,1.357138 0.259487,2.402622 0.777344,3.134766 0.517856,0.732136 1.34933,1.097656 2.492188,1.097656 1.160711,0 1.999722,-0.362721 2.517578,-1.085938 0.517855,-0.732139 0.77539,-1.780415 0.77539,-3.146484 v -1 c 0,1.366069 -0.257535,2.414345 -0.77539,3.146484 -0.301444,0.420984 -0.713231,0.718287 -1.232422,0.894532 -0.345251,0.230993 -0.77251,0.347656 -1.285156,0.347656 -0.483566,0 -0.895107,-0.113344 -1.234375,-0.337891 -0.529523,-0.176289 -0.949766,-0.480502 -1.257813,-0.916015 -0.51784,-0.732144 -0.777344,-1.777628 -0.777344,-3.134766 z m 16.072266,0 v 1 c 0,1.357138 0.259503,2.402622 0.777344,3.134766 0.517855,0.732136 1.347377,1.097656 2.490234,1.097656 1.160712,0 1.999723,-0.362721 2.517578,-1.085938 C 46.740512,57.133095 47,56.084819 47,54.71875 v -1 c 0,1.366069 -0.259488,2.414345 -0.777344,3.146484 -0.300315,0.419409 -0.710126,0.716079 -1.226562,0.892578 -0.346452,0.232616 -0.77657,0.34961 -1.291016,0.34961 -0.483566,0 -0.895106,-0.113344 -1.234375,-0.337891 C 41.941741,57.593242 41.52289,57.289029 41.214844,56.853516 40.697003,56.121372 40.4375,55.075888 40.4375,53.71875 Z m -4.607422,4.083984 v 1 h 0.9375 v -1 z"
     sodipodi:nodetypes="sccsccsccsccssccsccsccsccssccsccsccsccsccccccccssscscccsccccssscscccscsccscscscccsccccccccsccsccsccsccssccsccsccsccssccsccsccsccsccccccccssscscccsccccssscscccscsccscscscccsccccccccsccsccsccsccssccsccsccsccssccsccsccsccsccccccccssscscccsccccssscscccsccccscscscccscccccccc"
     transform="scale(0.26458334)" />
</svg>
