<?xml version="1.0" encoding="UTF-8" standalone="no"?>
<!-- Created with Inkscape (http://www.inkscape.org/) -->

<svg
   width="64"
   height="64"
   viewBox="0 0 16.933333 16.933334"
   version="1.1"
   id="svg5"
   inkscape:version="1.1.1 (3bf5ae0d25, 2021-09-20, custom)"
   sodipodi:docname="application-x-executable.svg"
   xmlns:inkscape="http://www.inkscape.org/namespaces/inkscape"
   xmlns:sodipodi="http://sodipodi.sourceforge.net/DTD/sodipodi-0.dtd"
   xmlns:xlink="http://www.w3.org/1999/xlink"
   xmlns="http://www.w3.org/2000/svg"
   xmlns:svg="http://www.w3.org/2000/svg">
  <sodipodi:namedview
     id="namedview7"
     pagecolor="#ffffff"
     bordercolor="#666666"
     borderopacity="1.0"
     inkscape:pageshadow="2"
     inkscape:pageopacity="0.0"
     inkscape:pagecheckerboard="0"
     inkscape:document-units="px"
     showgrid="false"
     units="px"
     height="64px"
     inkscape:zoom="4"
     inkscape:cx="87"
     inkscape:cy="41.25"
     inkscape:window-width="1920"
     inkscape:window-height="1011"
     inkscape:window-x="0"
     inkscape:window-y="0"
     inkscape:window-maximized="1"
     inkscape:current-layer="svg5" />
  <defs
     id="defs2">
    <linearGradient
       inkscape:collect="always"
       id="linearGradient6861">
      <stop
         style="stop-color:#999999;stop-opacity:1;"
         offset="0"
         id="stop6857" />
      <stop
         style="stop-color:#666666;stop-opacity:1"
         offset="1"
         id="stop6859" />
    </linearGradient>
    <linearGradient
       inkscape:collect="always"
       id="linearGradient10453">
      <stop
         style="stop-color:#666666;stop-opacity:1"
         offset="0"
         id="stop10449" />
      <stop
         style="stop-color:#666666;stop-opacity:0"
         offset="1"
         id="stop10451" />
    </linearGradient>
    <linearGradient
       inkscape:collect="always"
       id="linearGradient8423">
      <stop
         style="stop-color:#fcfcfc;stop-opacity:1"
         offset="0"
         id="stop8419" />
      <stop
         style="stop-color:#ffffff;stop-opacity:0;"
         offset="1"
         id="stop8421" />
    </linearGradient>
    <linearGradient
       inkscape:collect="always"
       id="linearGradient6263">
      <stop
         style="stop-color:#000000;stop-opacity:1;"
         offset="0"
         id="stop6259" />
      <stop
         style="stop-color:#000000;stop-opacity:0;"
         offset="1"
         id="stop6261" />
    </linearGradient>
    <linearGradient
       inkscape:collect="always"
       id="linearGradient3378">
      <stop
         style="stop-color:#b0b0b0;stop-opacity:1"
         offset="0"
         id="stop3374" />
      <stop
         style="stop-color:#fcfcfc;stop-opacity:1"
         offset="1"
         id="stop3376" />
    </linearGradient>
    <linearGradient
       inkscape:collect="always"
       xlink:href="#linearGradient3378"
       id="linearGradient3380"
       x1="14.942825"
       y1="1.1138821"
       x2="11.503234"
       y2="4.3115072"
       gradientUnits="userSpaceOnUse"
       gradientTransform="translate(-0.5291663,-0.52916667)" />
    <linearGradient
       inkscape:collect="always"
       xlink:href="#linearGradient6263"
       id="linearGradient6265"
       x1="11.90625"
       y1="2.3812501"
       x2="12.170834"
       y2="7.1437502"
       gradientUnits="userSpaceOnUse"
       gradientTransform="translate(-0.52916663,0.52916673)" />
    <linearGradient
       inkscape:collect="always"
       xlink:href="#linearGradient8423"
       id="linearGradient8425"
       x1="13.692527"
       y1="11.622045"
       x2="1.6077259"
       y2="-0.71580184"
       gradientUnits="userSpaceOnUse" />
    <linearGradient
       inkscape:collect="always"
       xlink:href="#linearGradient10453"
       id="linearGradient10455"
       x1="10"
       y1="72.5"
       x2="58"
       y2="32.5"
       gradientUnits="userSpaceOnUse" />
    <linearGradient
       inkscape:collect="always"
       xlink:href="#linearGradient6861"
       id="linearGradient6863"
       x1="12.435417"
       y1="1.8520622"
       x2="12.43545"
       y2="16.139563"
       gradientUnits="userSpaceOnUse" />
  </defs>
  <path
     id="rect1068"
     style="fill:#e5e5e5;fill-opacity:1;stroke-width:0.529167;stroke-linejoin:round"
     d="m 3.175,0.5291667 7.143751,3e-8 3.968749,3.96874997 1e-6,11.3770833 c 0,0.293158 -0.236009,0.529167 -0.529167,0.529167 H 3.175 c -0.2931584,0 -0.5291667,-0.236009 -0.5291667,-0.529167 V 1.0583334 c 0,-0.29315835 0.2360083,-0.5291667 0.5291667,-0.5291667 z"
     sodipodi:nodetypes="cccsssssc" />
  <path
     id="rect8140"
     style="opacity:1;fill:url(#linearGradient8425);fill-opacity:1;stroke-width:0.518136;stroke-linejoin:round"
     d="m 3.175,0.5291668 h 7.143751 l -1e-6,2.9104166 0.79375,1.0583333 3.175,0 V 15.875 c 0,0.295111 -0.236009,0.529167 -0.529167,0.529167 H 3.175 c -0.293159,0 -0.529167,-0.236009 -0.529167,-0.529167 V 1.0583337 c 0,-0.2931589 0.236008,-0.5291669 0.529167,-0.5291669 z"
     sodipodi:nodetypes="sccccssssss" />
  <path
     id="rect9905"
     style="opacity:0.3;fill:url(#linearGradient10455);fill-opacity:1;stroke-width:2;stroke-linejoin:round"
     d="M 10 59 L 10 60 C 10 61.108 10.892 62 12 62 L 52 62 C 53.108 62 54 61.108 54 60 L 54 59 C 54 60.108 53.108 61 52 61 L 12 61 C 10.892 61 10 60.108 10 59 z "
     transform="scale(0.26458334)" />
  <path
     id="rect5598"
     style="opacity:0.2;fill:url(#linearGradient6265);fill-opacity:1;stroke-width:0.529167;stroke-linejoin:round"
     d="M 10.444901,4.3115072 10.31875,3.4395834 14.2875,4.4979167 v 3.7041668 z"
     sodipodi:nodetypes="ccccc" />
  <path
     id="rect2607"
     style="fill:url(#linearGradient3380);fill-opacity:1;stroke-width:0.529167;stroke-linejoin:round"
     d="m 14.2875,4.4979167 -3.439583,-1e-7 c -0.293158,0 -0.529166,-0.2360083 -0.529166,-0.5291667 V 0.52916673 Z"
     sodipodi:nodetypes="csscc" />
  <path
     id="path863-3"
     style="fill:url(#linearGradient6863);stroke-width:0.433007;stroke-linejoin:round;fill-opacity:1;opacity:0.4"
     d="m 12.435375,10.847895 c -1e-6,-0.129334 -0.104121,-0.233454 -0.233456,-0.233455 h -0.250325 a 3.501819,3.501819 0 0 0 -0.05745,-0.443199 l 0.240751,-0.06475 c 0.109309,-0.02929 0.179438,-0.1303755 0.172816,-0.2389219 -9.7e-4,-0.015506 -0.0035,-0.031346 -0.0078,-0.046964 C 12.266431,9.6956807 12.138947,9.6220738 12.01402,9.6555488 l -0.240296,0.06429 A 3.501819,3.501819 0 0 0 11.604149,9.305818 l 0.213848,-0.1235671 c 0.07,-0.040415 0.111425,-0.1109341 0.11672,-0.1855815 0.0032,-0.044797 -0.0068,-0.09114 -0.03101,-0.1331424 C 11.839037,8.7515199 11.696536,8.7135943 11.584529,8.778261 L 11.372061,8.9009201 A 3.501819,3.501819 0 0 0 11.101218,8.5434425 l 0.171899,-0.1718992 c 0.04573,-0.045726 0.0684,-0.1053927 0.0684,-0.1650587 2e-6,-0.059666 -0.02267,-0.1193331 -0.0684,-0.1650593 -0.09145,-0.091453 -0.238667,-0.091454 -0.330119,10e-8 l -0.171902,0.1718981 a 3.501819,3.501819 0 0 0 -0.357475,-0.270844 l 0.122655,-0.2124803 c 0.02425,-0.042002 0.0341,-0.088275 0.03101,-0.1331419 -0.0052,-0.074778 -0.04627,-0.1456171 -0.116275,-0.1860344 -0.112008,-0.064666 -0.254054,-0.026285 -0.31872,0.085722 L 10.008723,7.7103926 A 3.501819,3.501819 0 0 0 9.5947056,7.5407732 l 0.064291,-0.2402939 c 0.00418,-0.015616 0.0068,-0.031458 0.00776,-0.046965 C 9.6733766,7.144964 9.6032506,7.0438783 9.4939376,7.0145888 9.3690107,6.9811144 9.2415209,7.0547216 9.2080468,7.1796484 L 9.1432994,7.4203982 A 3.501819,3.501819 0 0 0 8.7001004,7.3629466 V 7.1126213 c 2e-7,-0.129334 -0.1041208,-0.2334546 -0.2334545,-0.2334548 -0.129334,-3e-7 -0.2334545,0.1041209 -0.233455,0.2334547 L 8.233189,7.362947 A 3.501819,3.501819 0 0 0 7.78999,7.420399 L 7.7252427,7.1796488 C 7.6917687,7.0547218 7.5642786,6.9811152 7.4393519,7.014589 7.3144242,7.0480634 7.240818,7.1755528 7.2742924,7.3004798 l 0.064288,0.2402961 A 3.501819,3.501819 0 0 0 6.9245619,7.7103963 L 6.8009981,7.4965473 C 6.7363288,7.3845415 6.5942839,7.3461587 6.4822783,7.4108255 6.3702711,7.4754925 6.3323453,7.6179951 6.3970124,7.7300018 L 6.5196718,7.9424799 A 3.501819,3.501819 0 0 0 6.1621945,8.2133242 L 5.9902944,8.0414255 c -0.091455,-0.091453 -0.2386689,-0.091453 -0.3301223,6e-7 -0.091453,0.091454 -0.091453,0.2386664 3.1e-6,0.3301185 l 0.1718991,0.1719 A 3.501819,3.501819 0 0 0 5.5612305,8.9009216 L 5.3487473,8.7782698 C 5.2367395,8.7136042 5.0942382,8.7515287 5.0295716,8.863535 4.9649047,8.9755422 5.0032865,9.1175888 5.1152959,9.1822534 L 5.3291424,9.3058259 A 3.501819,3.501819 0 0 0 5.1595258,9.719841 L 4.9192297,9.6555534 C 4.7943013,9.6220807 4.666813,9.6956857 4.6333396,9.8206126 4.5998638,9.9455397 4.6734694,10.07303 4.7983935,10.106506 l 0.2407518,0.06475 a 3.501819,3.501819 0 0 0 -0.057451,0.4432 l -0.2503229,-7e-6 c -0.129334,3e-6 -0.2334539,0.104121 -0.2334543,0.233456 -4e-7,0.129333 0.1041181,0.233454 0.2334506,0.233456 H 4.981695 a 3.501819,3.501819 0 0 0 0.057451,0.443199 l -0.2407489,0.06475 c -0.1249269,0.03348 -0.1985339,0.160964 -0.1650596,0.285891 0.033474,0.124927 0.1609619,0.198534 0.285888,0.165064 l 0.2402961,-0.0643 a 3.501819,3.501819 0 0 0 0.1696189,0.414017 l -0.2138482,0.123567 c -0.1120062,0.06467 -0.1503882,0.206713 -0.085722,0.31872 0.064674,0.112 0.2071706,0.149931 0.3191764,0.08526 l 0.212481,-0.122654 a 3.501819,3.501819 0 0 0 0.2708421,0.357479 l -0.1718989,0.171898 c -0.091453,0.09145 -0.091454,0.238668 3.3e-6,0.330119 0.091454,0.09145 0.2386654,0.09145 0.3301192,-7e-6 L 6.1621928,13.48247 a 3.501819,3.501819 0 0 0 0.3574789,0.270842 l -0.1226558,0.212481 c -0.064666,0.112006 -0.02674,0.254508 0.085266,0.319176 0.1120068,0.06467 0.2540542,0.02629 0.3187188,-0.08573 l 0.1235665,-0.213848 a 3.501819,3.501819 0 0 0 0.4140187,0.169618 l -0.064293,0.240298 c -0.033474,0.124927 0.040132,0.252418 0.1650549,0.285894 0.1249286,0.03348 0.2524163,-0.04013 0.2858938,-0.165054 l 0.064749,-0.240755 a 3.501819,3.501819 0 0 0 0.4432004,0.05745 l -1.9e-6,0.250326 c 3e-7,0.129334 0.1041179,0.233456 0.2334508,0.233458 0.1293342,-2e-6 0.2334545,-0.104119 0.2334529,-0.233459 l -1.5e-6,-0.24212 a 3.501819,3.501819 0 0 0 0.4454783,-0.05791 l 0.062468,0.232999 c 0.033475,0.124926 0.1609625,0.198534 0.2858887,0.165065 0.10931,-0.02929 0.1794401,-0.130376 0.1728166,-0.238922 -9.706e-4,-0.01546 -0.00356,-0.03134 -0.00775,-0.04698 l -0.062918,-0.233916 a 3.501819,3.501819 0 0 0 0.4153821,-0.171904 l 0.120826,0.209746 c 0.06467,0.112007 0.206715,0.150392 0.31872,0.08573 0.07,-0.04042 0.111101,-0.111256 0.116275,-0.186034 0.0031,-0.04487 -0.0068,-0.09114 -0.031,-0.133142 L 10.415903,13.75695 a 3.501819,3.501819 0 0 0 0.35565,-0.274031 l 0.171443,0.171444 c 0.09146,0.09145 0.238674,0.09146 0.330126,5e-6 0.04572,-0.04572 0.06839,-0.105395 0.06839,-0.165063 4e-6,-0.05967 -0.02267,-0.119336 -0.06839,-0.165062 l -0.17144,-0.171441 a 3.501819,3.501819 0 0 0 0.274038,-0.355654 l 0.208833,0.120375 c 0.112006,0.06467 0.254508,0.02674 0.319177,-0.08527 0.02425,-0.04201 0.03419,-0.08835 0.03101,-0.133137 -0.0053,-0.07465 -0.04672,-0.145162 -0.116729,-0.185576 L 11.60827,12.392702 a 3.501819,3.501819 0 0 0 0.171894,-0.415387 l 0.23391,0.06293 c 0.124928,0.03348 0.252418,-0.04013 0.285894,-0.165054 0.0041,-0.01565 0.0068,-0.03146 0.0078,-0.04696 0.0066,-0.108554 -0.0635,-0.209638 -0.172811,-0.238926 l -0.233,-0.06247 a 3.501819,3.501819 0 0 0 0.05791,-0.445482 h 0.242117 c 0.129344,-2e-6 0.233465,-0.104121 0.233466,-0.233452 z m -1.00039,0.633795 a 3.0349098,3.0349098 0 0 1 -2.9683391,2.401117 3.0349098,3.0349098 0 0 1 -0.9351854,-0.14819 l -0.1468224,-0.546248 0.953881,-1.652421 a 0.70036377,0.70036377 0 0 0 0.1281234,0.01232 0.70036377,0.70036377 0 0 0 0.6602393,-0.466908 l 1.9077642,-6e-6 z m -0.0073,-1.260292 -0.393043,0.393042 H 9.1250333 a 0.70036377,0.70036377 0 0 0 -0.658415,-0.466909 0.70036377,0.70036377 0 0 0 -0.1272151,0.01323 L 7.3846387,8.507421 7.53146,7.9611739 a 3.0349098,3.0349098 0 0 1 0.9351858,-0.148189 3.0349098,3.0349098 0 0 1 2.9610432,2.4084131 z m -2.7275845,0.626497 a 0.23345463,0.23345463 0 0 1 -0.2334543,0.233455 0.23345463,0.23345463 0 0 1 -0.2334587,-0.233454 0.23345463,0.23345463 0 0 1 0.233454,-0.233453 0.23345463,0.23345463 0 0 1 0.233459,0.233452 z m -0.765568,-0.455052 a 0.70036377,0.70036377 0 0 0 -0.168252,0.455055 0.70036377,0.70036377 0 0 0 0.168257,0.455051 L 6.9806561,12.954913 6.4430716,13.098998 A 3.0349098,3.0349098 0 0 1 5.4317364,10.847895 3.0349098,3.0349098 0 0 1 6.4430684,8.5967909 l 0.5375839,0.1440848 z" />
</svg>
