<?xml version="1.0" encoding="UTF-8" standalone="no"?>
<!-- Created with Inkscape (http://www.inkscape.org/) -->

<svg
   width="64"
   height="64"
   viewBox="0 0 16.933333 16.933334"
   version="1.1"
   id="svg5"
   inkscape:version="1.1.1 (3bf5ae0d25, 2021-09-20, custom)"
   sodipodi:docname="application-x-cd-image.svg"
   xmlns:inkscape="http://www.inkscape.org/namespaces/inkscape"
   xmlns:sodipodi="http://sodipodi.sourceforge.net/DTD/sodipodi-0.dtd"
   xmlns:xlink="http://www.w3.org/1999/xlink"
   xmlns="http://www.w3.org/2000/svg"
   xmlns:svg="http://www.w3.org/2000/svg">
  <sodipodi:namedview
     id="namedview7"
     pagecolor="#ffffff"
     bordercolor="#666666"
     borderopacity="1.0"
     inkscape:pageshadow="2"
     inkscape:pageopacity="0.0"
     inkscape:pagecheckerboard="0"
     inkscape:document-units="px"
     showgrid="false"
     units="px"
     height="64px"
     inkscape:zoom="2"
     inkscape:cx="5.5"
     inkscape:cy="43"
     inkscape:window-width="1920"
     inkscape:window-height="1011"
     inkscape:window-x="0"
     inkscape:window-y="0"
     inkscape:window-maximized="1"
     inkscape:current-layer="svg5" />
  <defs
     id="defs2">
    <linearGradient
       inkscape:collect="always"
       id="linearGradient4941">
      <stop
         style="stop-color:#808080;stop-opacity:1"
         offset="0"
         id="stop4937" />
      <stop
         style="stop-color:#4d4d4d;stop-opacity:1"
         offset="1"
         id="stop4939" />
    </linearGradient>
    <linearGradient
       inkscape:collect="always"
       id="linearGradient4545">
      <stop
         style="stop-color:#1a1a1a;stop-opacity:1;"
         offset="0"
         id="stop4541" />
      <stop
         style="stop-color:#1a1a1a;stop-opacity:0;"
         offset="1"
         id="stop4543" />
    </linearGradient>
    <linearGradient
       inkscape:collect="always"
       id="linearGradient4059">
      <stop
         style="stop-color:#f9f9f9;stop-opacity:1;"
         offset="0"
         id="stop4055" />
      <stop
         style="stop-color:#f9f9f9;stop-opacity:0;"
         offset="1"
         id="stop4057" />
    </linearGradient>
    <linearGradient
       inkscape:collect="always"
       id="linearGradient3685">
      <stop
         style="stop-color:#b3b3b3;stop-opacity:1;"
         offset="0"
         id="stop3681" />
      <stop
         style="stop-color:#f2f2f2;stop-opacity:1"
         offset="1"
         id="stop3683" />
    </linearGradient>
    <linearGradient
       inkscape:collect="always"
       id="linearGradient2837">
      <stop
         style="stop-color:#ffffff;stop-opacity:1;"
         offset="0"
         id="stop2833" />
      <stop
         style="stop-color:#ffffff;stop-opacity:0;"
         offset="1"
         id="stop2835" />
    </linearGradient>
    <linearGradient
       inkscape:collect="always"
       id="linearGradient6263">
      <stop
         style="stop-color:#000000;stop-opacity:1;"
         offset="0"
         id="stop6259" />
      <stop
         style="stop-color:#000000;stop-opacity:0;"
         offset="1"
         id="stop6261" />
    </linearGradient>
    <linearGradient
       inkscape:collect="always"
       id="linearGradient3378">
      <stop
         style="stop-color:#b0b0b0;stop-opacity:1"
         offset="0"
         id="stop3374" />
      <stop
         style="stop-color:#fcfcfc;stop-opacity:1"
         offset="1"
         id="stop3376" />
    </linearGradient>
    <linearGradient
       inkscape:collect="always"
       xlink:href="#linearGradient3378"
       id="linearGradient3380"
       x1="14.942825"
       y1="1.1138821"
       x2="11.503234"
       y2="4.3115072"
       gradientUnits="userSpaceOnUse"
       gradientTransform="translate(-0.5291663,-0.52916667)" />
    <linearGradient
       inkscape:collect="always"
       xlink:href="#linearGradient6263"
       id="linearGradient6265"
       x1="11.90625"
       y1="2.3812501"
       x2="12.170834"
       y2="7.1437502"
       gradientUnits="userSpaceOnUse"
       gradientTransform="translate(-0.52916663,0.52916673)" />
    <linearGradient
       inkscape:collect="always"
       xlink:href="#linearGradient2837"
       id="linearGradient10455"
       x1="10"
       y1="72.5"
       x2="58"
       y2="32.5"
       gradientUnits="userSpaceOnUse" />
    <linearGradient
       inkscape:collect="always"
       xlink:href="#linearGradient2837"
       id="linearGradient3261"
       x1="14"
       y1="59.686523"
       x2="48"
       y2="35.686523"
       gradientUnits="userSpaceOnUse"
       gradientTransform="matrix(0.26458334,0,0,0.26458334,0,0.26457074)" />
    <linearGradient
       inkscape:collect="always"
       xlink:href="#linearGradient3685"
       id="linearGradient3687"
       x1="36"
       y1="62"
       x2="14.000001"
       y2="22"
       gradientUnits="userSpaceOnUse" />
    <linearGradient
       inkscape:collect="always"
       xlink:href="#linearGradient4059"
       id="linearGradient4061"
       x1="32"
       y1="38"
       x2="42"
       y2="46"
       gradientUnits="userSpaceOnUse" />
    <linearGradient
       inkscape:collect="always"
       xlink:href="#linearGradient4545"
       id="linearGradient4547"
       x1="34"
       y1="38"
       x2="38"
       y2="34"
       gradientUnits="userSpaceOnUse" />
    <linearGradient
       inkscape:collect="always"
       xlink:href="#linearGradient4941"
       id="linearGradient4943"
       x1="4.7624998"
       y1="2.6458337"
       x2="14.287501"
       y2="16.404167"
       gradientUnits="userSpaceOnUse" />
  </defs>
  <path
     id="rect1068"
     style="fill:url(#linearGradient4943);fill-opacity:1;stroke-width:0.529167;stroke-linejoin:round"
     d="m 3.175,0.5291667 7.143751,3e-8 3.968749,3.96874997 1e-6,11.3770833 c 0,0.293158 -0.236009,0.529167 -0.529167,0.529167 H 3.175 c -0.2931584,0 -0.5291667,-0.236009 -0.5291667,-0.529167 V 1.0583334 c 0,-0.29315835 0.2360083,-0.5291667 0.5291667,-0.5291667 z"
     sodipodi:nodetypes="cccsssssc" />
  <path
     id="rect9905"
     style="opacity:0.3;fill:url(#linearGradient10455);fill-opacity:1.0;stroke-width:2;stroke-linejoin:round"
     d="M 10 59 L 10 60 C 10 61.108 10.892 62 12 62 L 52 62 C 53.108 62 54 61.108 54 60 L 54 59 C 54 60.108 53.108 61 52 61 L 12 61 C 10.892 61 10 60.108 10 59 z "
     transform="scale(0.26458334)" />
  <path
     id="rect5598"
     style="opacity:0.2;fill:url(#linearGradient6265);fill-opacity:1;stroke-width:0.529167;stroke-linejoin:round"
     d="M 10.444901,4.3115072 10.31875,3.4395834 14.2875,4.4979167 v 3.7041668 z"
     sodipodi:nodetypes="ccccc" />
  <path
     id="rect2607"
     style="fill:url(#linearGradient3380);fill-opacity:1;stroke-width:0.529167;stroke-linejoin:round"
     d="m 14.2875,4.4979167 -3.439583,-1e-7 c -0.293158,0 -0.529166,-0.2360083 -0.529166,-0.5291667 V 0.52916673 Z"
     sodipodi:nodetypes="csscc" />
  <path
     id="path863"
     style="opacity:1;fill:url(#linearGradient3687);stroke-width:2.00885;stroke-linejoin:round;fill-opacity:1"
     d="M 32 24 A 16.000001 16.000001 0 0 0 16 40 A 16.000001 16.000001 0 0 0 32 56 A 16.000001 16.000001 0 0 0 48 40 A 16.000001 16.000001 0 0 0 32 24 z M 32 37 A 2.9999999 2.9999999 0 0 1 35 40 A 2.9999999 2.9999999 0 0 1 32 43 A 2.9999999 2.9999999 0 0 1 29 40 A 2.9999999 2.9999999 0 0 1 32 37 z "
     transform="scale(0.26458334)" />
  <path
     id="path863-5"
     style="opacity:0.3;fill:url(#linearGradient3261);fill-opacity:1.0;stroke-width:0.531508;stroke-linejoin:round"
     d="m 12.696383,10.682023 c -0.05359,2.297966 -1.931126,4.133292 -4.2297161,4.134631 -2.2852966,-0.0017 -4.1567509,-1.81686 -4.2281659,-4.101041 -0.00241,0.04407 -0.00413,0.08817 -0.00517,0.132291 3e-7,2.338006 1.895328,4.233334 4.2333335,4.233334 2.3380055,0 4.2333335,-1.895328 4.2333335,-4.233334 -1.22e-4,-0.05531 -0.0013,-0.110616 -0.0036,-0.165881 z"
     sodipodi:nodetypes="ccccscc" />
  <path
     id="path1291"
     style="opacity:1;fill:url(#linearGradient4061);fill-opacity:1;stroke-width:1.61213;stroke-linejoin:round"
     d="M 32 34 A 5.9999999 5.9999999 0 0 0 26 40 A 5.9999999 5.9999999 0 0 0 32 46 A 5.9999999 5.9999999 0 0 0 38 40 A 5.9999999 5.9999999 0 0 0 32 34 z M 32 37 A 2.9999999 2.9999999 0 0 1 35 40 A 2.9999999 2.9999999 0 0 1 32 43 A 2.9999999 2.9999999 0 0 1 29 40 A 2.9999999 2.9999999 0 0 1 32 37 z "
     transform="scale(0.26458334)" />
  <path
     id="path1023"
     style="opacity:0.3;fill:url(#linearGradient4547);fill-opacity:1;stroke-width:1.45214;stroke-linejoin:round"
     d="M 32 36 C 29.79086 36 27.999998 37.79086 28 40 C 28.000003 42.209138 29.790863 44 32 44 C 34.209137 44 35.999997 42.209138 36 40 C 36.000002 37.79086 34.20914 36 32 36 z M 32 37 A 2.9999999 2.9999999 0 0 1 35 40 A 2.9999999 2.9999999 0 0 1 32 43 A 2.9999999 2.9999999 0 0 1 29 40 A 2.9999999 2.9999999 0 0 1 32 37 z "
     transform="scale(0.26458334)" />
</svg>
