<?xml version="1.0" encoding="UTF-8" standalone="no"?>
<!-- Created with Inkscape (http://www.inkscape.org/) -->

<svg
   width="64"
   height="64"
   viewBox="0 0 16.933333 16.933334"
   version="1.1"
   id="svg5"
   inkscape:version="1.1.1 (3bf5ae0d25, 2021-09-20, custom)"
   sodipodi:docname="application-certificate.svg"
   xmlns:inkscape="http://www.inkscape.org/namespaces/inkscape"
   xmlns:sodipodi="http://sodipodi.sourceforge.net/DTD/sodipodi-0.dtd"
   xmlns:xlink="http://www.w3.org/1999/xlink"
   xmlns="http://www.w3.org/2000/svg"
   xmlns:svg="http://www.w3.org/2000/svg">
  <sodipodi:namedview
     id="namedview7"
     pagecolor="#ffffff"
     bordercolor="#666666"
     borderopacity="1.0"
     inkscape:pageshadow="2"
     inkscape:pageopacity="0.0"
     inkscape:pagecheckerboard="0"
     inkscape:document-units="px"
     showgrid="false"
     units="px"
     height="64px"
     inkscape:zoom="12.328125"
     inkscape:cx="24.091255"
     inkscape:cy="50.656527"
     inkscape:window-width="1920"
     inkscape:window-height="1011"
     inkscape:window-x="0"
     inkscape:window-y="0"
     inkscape:window-maximized="1"
     inkscape:current-layer="svg5" />
  <defs
     id="defs2">
    <linearGradient
       inkscape:collect="always"
       id="linearGradient4607">
      <stop
         style="stop-color:#ffffff;stop-opacity:1;"
         offset="0"
         id="stop4603" />
      <stop
         style="stop-color:#ff9d4a;stop-opacity:1"
         offset="1"
         id="stop4605" />
    </linearGradient>
    <linearGradient
       inkscape:collect="always"
       id="linearGradient3518">
      <stop
         style="stop-color:#ffa143;stop-opacity:1"
         offset="0"
         id="stop3514" />
      <stop
         style="stop-color:#ff633b;stop-opacity:1"
         offset="1"
         id="stop3516" />
    </linearGradient>
    <linearGradient
       inkscape:collect="always"
       id="linearGradient10453">
      <stop
         style="stop-color:#666666;stop-opacity:1"
         offset="0"
         id="stop10449" />
      <stop
         style="stop-color:#666666;stop-opacity:0"
         offset="1"
         id="stop10451" />
    </linearGradient>
    <linearGradient
       inkscape:collect="always"
       id="linearGradient6263">
      <stop
         style="stop-color:#000000;stop-opacity:1;"
         offset="0"
         id="stop6259" />
      <stop
         style="stop-color:#000000;stop-opacity:0;"
         offset="1"
         id="stop6261" />
    </linearGradient>
    <linearGradient
       inkscape:collect="always"
       id="linearGradient3378">
      <stop
         style="stop-color:#b0b0b0;stop-opacity:1"
         offset="0"
         id="stop3374" />
      <stop
         style="stop-color:#fcfcfc;stop-opacity:1"
         offset="1"
         id="stop3376" />
    </linearGradient>
    <linearGradient
       inkscape:collect="always"
       xlink:href="#linearGradient3378"
       id="linearGradient3380"
       x1="14.942825"
       y1="1.1138821"
       x2="11.503234"
       y2="4.3115072"
       gradientUnits="userSpaceOnUse"
       gradientTransform="translate(-0.5291663,-0.52916667)" />
    <linearGradient
       inkscape:collect="always"
       xlink:href="#linearGradient6263"
       id="linearGradient6265"
       x1="11.90625"
       y1="2.3812501"
       x2="12.170834"
       y2="7.1437502"
       gradientUnits="userSpaceOnUse"
       gradientTransform="translate(-0.52916663,0.52916673)" />
    <linearGradient
       inkscape:collect="always"
       xlink:href="#linearGradient10453"
       id="linearGradient10455"
       x1="10"
       y1="72.5"
       x2="58"
       y2="32.5"
       gradientUnits="userSpaceOnUse" />
    <linearGradient
       inkscape:collect="always"
       xlink:href="#linearGradient3518"
       id="linearGradient3520"
       x1="2.6458333"
       y1="0.52916712"
       x2="14.287501"
       y2="16.404167"
       gradientUnits="userSpaceOnUse" />
    <linearGradient
       inkscape:collect="always"
       xlink:href="#linearGradient6263"
       id="linearGradient4315"
       x1="20"
       y1="50.5"
       x2="44"
       y2="26.5"
       gradientUnits="userSpaceOnUse" />
    <linearGradient
       inkscape:collect="always"
       xlink:href="#linearGradient4607"
       id="linearGradient4609"
       x1="24"
       y1="30"
       x2="24"
       y2="54"
       gradientUnits="userSpaceOnUse" />
  </defs>
  <path
     id="rect1068"
     style="fill:url(#linearGradient3520);fill-opacity:1;stroke-width:0.529167;stroke-linejoin:round"
     d="m 3.175,0.5291667 7.143751,3e-8 3.968749,3.96874997 1e-6,11.3770833 c 0,0.293158 -0.236009,0.529167 -0.529167,0.529167 H 3.175 c -0.2931584,0 -0.5291667,-0.236009 -0.5291667,-0.529167 V 1.0583334 c 0,-0.29315835 0.2360083,-0.5291667 0.5291667,-0.5291667 z"
     sodipodi:nodetypes="cccsssssc" />
  <path
     id="rect9905"
     style="opacity:0.3;fill:url(#linearGradient10455);fill-opacity:1;stroke-width:2;stroke-linejoin:round"
     d="M 10 59 L 10 60 C 10 61.108 10.892 62 12 62 L 52 62 C 53.108 62 54 61.108 54 60 L 54 59 C 54 60.108 53.108 61 52 61 L 12 61 C 10.892 61 10 60.108 10 59 z "
     transform="scale(0.26458334)" />
  <path
     id="rect5598"
     style="opacity:0.2;fill:url(#linearGradient6265);fill-opacity:1;stroke-width:0.529167;stroke-linejoin:round"
     d="M 10.444901,4.3115072 10.31875,3.4395834 14.2875,4.4979167 v 3.7041668 z"
     sodipodi:nodetypes="ccccc" />
  <path
     id="rect2607"
     style="fill:url(#linearGradient3380);fill-opacity:1;stroke-width:0.529167;stroke-linejoin:round"
     d="m 14.2875,4.4979167 -3.439583,-1e-7 c -0.293158,0 -0.529166,-0.2360083 -0.529166,-0.5291667 V 0.52916673 Z"
     sodipodi:nodetypes="csscc" />
  <path
     id="rect2379"
     style="opacity:1;fill:url(#linearGradient4609);fill-opacity:1;stroke-width:6.36408;stroke-linecap:round;stroke-linejoin:round"
     d="M 32 24 L 30.671875 25.328125 L 28.939453 24.609375 L 28.220703 26.34375 L 26.341797 26.34375 L 26.341797 28.220703 L 24.609375 28.939453 L 25.328125 30.673828 L 24 32 L 25.328125 33.328125 L 24.609375 35.060547 L 26.341797 35.779297 L 26.341797 37.658203 L 28 37.658203 L 28 48 L 32 45 L 36 48 L 36 37.658203 L 37.65625 37.658203 L 37.65625 35.779297 L 39.390625 35.060547 L 38.671875 33.328125 L 40 32 L 38.671875 30.673828 L 39.390625 28.939453 L 37.65625 28.220703 L 37.65625 26.34375 L 35.779297 26.34375 L 35.060547 24.609375 L 33.326172 25.328125 L 32 24 z M 32 28 A 4.0000002 4.0000002 0 0 1 36 32 A 4.0000002 4.0000002 0 0 1 32 36 A 4.0000002 4.0000002 0 0 1 28 32 A 4.0000002 4.0000002 0 0 1 32 28 z "
     transform="scale(0.26458334)" />
  <path
     id="rect2379-6"
     style="opacity:0.3;fill:url(#linearGradient4315);fill-opacity:1;stroke-width:6.36408;stroke-linecap:round;stroke-linejoin:round"
     d="M 32 28 A 4.0000002 4.0000002 0 0 0 28 32 A 4.0000002 4.0000002 0 0 0 28.033203 32.5 A 4.0000002 4.0000002 0 0 1 32 29 A 4.0000002 4.0000002 0 0 1 35.96875 32.498047 A 4.0000002 4.0000002 0 0 0 36 32 A 4.0000002 4.0000002 0 0 0 32 28 z M 24.962891 29.792969 L 24.609375 29.939453 L 25.035156 30.966797 L 25.328125 30.673828 L 24.962891 29.792969 z M 39.037109 29.792969 L 38.671875 30.673828 L 38.964844 30.966797 L 39.390625 29.939453 L 39.037109 29.792969 z M 24.5 32.5 L 24 33 L 25.035156 34.035156 L 25.328125 33.328125 L 24.5 32.5 z M 39.5 32.5 L 38.671875 33.328125 L 38.964844 34.035156 L 40 33 L 39.5 32.5 z M 24.962891 35.207031 L 24.609375 36.060547 L 26.341797 36.779297 L 26.341797 35.779297 L 24.962891 35.207031 z M 39.037109 35.207031 L 37.65625 35.779297 L 37.65625 36.779297 L 39.390625 36.060547 L 39.037109 35.207031 z M 26.341797 37.658203 L 26.341797 38.658203 L 28 38.658203 L 28 37.658203 L 26.341797 37.658203 z M 36 37.658203 L 36 38.658203 L 37.65625 38.658203 L 37.65625 37.658203 L 36 37.658203 z M 32 45 L 28 48 L 28 49 L 32 46 L 36 49 L 36 48 L 32 45 z "
     transform="scale(0.26458334)" />
</svg>
