<?xml version="1.0" encoding="UTF-8" standalone="no"?>
<!-- Created with Inkscape (http://www.inkscape.org/) -->

<svg
   width="64"
   height="64"
   viewBox="0 0 16.933333 16.933334"
   version="1.1"
   id="svg5"
   inkscape:version="1.1.1 (3bf5ae0d25, 2021-09-20, custom)"
   sodipodi:docname="application-x-tarz.svg"
   xmlns:inkscape="http://www.inkscape.org/namespaces/inkscape"
   xmlns:sodipodi="http://sodipodi.sourceforge.net/DTD/sodipodi-0.dtd"
   xmlns:xlink="http://www.w3.org/1999/xlink"
   xmlns="http://www.w3.org/2000/svg"
   xmlns:svg="http://www.w3.org/2000/svg">
  <sodipodi:namedview
     id="namedview7"
     pagecolor="#ffffff"
     bordercolor="#666666"
     borderopacity="1.0"
     inkscape:pageshadow="2"
     inkscape:pageopacity="0.0"
     inkscape:pagecheckerboard="0"
     inkscape:document-units="px"
     showgrid="false"
     units="px"
     height="64px"
     inkscape:zoom="8"
     inkscape:cx="31.5"
     inkscape:cy="37.1875"
     inkscape:window-width="1920"
     inkscape:window-height="1011"
     inkscape:window-x="0"
     inkscape:window-y="0"
     inkscape:window-maximized="1"
     inkscape:current-layer="svg5" />
  <defs
     id="defs2">
    <linearGradient
       inkscape:collect="always"
       id="linearGradient12875">
      <stop
         style="stop-color:#f79260;stop-opacity:1"
         offset="0"
         id="stop12871" />
      <stop
         style="stop-color:#e83e04;stop-opacity:1"
         offset="1"
         id="stop12873" />
    </linearGradient>
    <linearGradient
       inkscape:collect="always"
       id="linearGradient10453">
      <stop
         style="stop-color:#666666;stop-opacity:1"
         offset="0"
         id="stop10449" />
      <stop
         style="stop-color:#666666;stop-opacity:0"
         offset="1"
         id="stop10451" />
    </linearGradient>
    <linearGradient
       inkscape:collect="always"
       id="linearGradient6263">
      <stop
         style="stop-color:#000000;stop-opacity:1;"
         offset="0"
         id="stop6259" />
      <stop
         style="stop-color:#000000;stop-opacity:0;"
         offset="1"
         id="stop6261" />
    </linearGradient>
    <linearGradient
       inkscape:collect="always"
       id="linearGradient3378">
      <stop
         style="stop-color:#b0b0b0;stop-opacity:1"
         offset="0"
         id="stop3374" />
      <stop
         style="stop-color:#fcfcfc;stop-opacity:1"
         offset="1"
         id="stop3376" />
    </linearGradient>
    <linearGradient
       inkscape:collect="always"
       xlink:href="#linearGradient3378"
       id="linearGradient3380"
       x1="13.884492"
       y1="2.1722155"
       x2="10.974068"
       y2="4.8406739"
       gradientUnits="userSpaceOnUse"
       gradientTransform="translate(-0.5291663,-0.52916667)" />
    <linearGradient
       inkscape:collect="always"
       xlink:href="#linearGradient6263"
       id="linearGradient6265"
       x1="11.90625"
       y1="2.3812501"
       x2="12.170834"
       y2="7.1437502"
       gradientUnits="userSpaceOnUse"
       gradientTransform="translate(-0.52916663,0.52916673)" />
    <linearGradient
       inkscape:collect="always"
       xlink:href="#linearGradient10453"
       id="linearGradient10455"
       x1="10"
       y1="72.5"
       x2="58"
       y2="32.5"
       gradientUnits="userSpaceOnUse" />
    <linearGradient
       inkscape:collect="always"
       xlink:href="#linearGradient12875"
       id="linearGradient12877"
       x1="5.2916708"
       y1="2.6458337"
       x2="12.170835"
       y2="15.345834"
       gradientUnits="userSpaceOnUse" />
  </defs>
  <path
     id="rect1068"
     style="fill:url(#linearGradient12877);fill-opacity:1;stroke-width:0.529167;stroke-linejoin:round"
     d="m 3.175,0.5291667 7.143751,3e-8 3.968749,3.96874997 1e-6,11.3770833 c 0,0.293158 -0.236009,0.529167 -0.529167,0.529167 H 3.175 c -0.2931584,0 -0.5291667,-0.236009 -0.5291667,-0.529167 V 1.0583334 c 0,-0.29315835 0.2360083,-0.5291667 0.5291667,-0.5291667 z"
     sodipodi:nodetypes="cccsssssc" />
  <path
     id="rect5598"
     style="opacity:0.3;fill:url(#linearGradient6265);fill-opacity:1;stroke-width:0.529167;stroke-linejoin:round"
     d="M 10.444901,4.3115072 10.31875,3.4395834 14.2875,4.4979167 v 3.7041668 z"
     sodipodi:nodetypes="ccccc" />
  <path
     id="rect2607"
     style="fill:url(#linearGradient3380);fill-opacity:1;stroke-width:0.529167;stroke-linejoin:round"
     d="m 14.2875,4.4979167 -3.439583,-1e-7 c -0.293158,0 -0.529166,-0.2360083 -0.529166,-0.5291667 V 0.52916673 Z"
     sodipodi:nodetypes="csscc" />
  <path
     id="rect11027"
     style="opacity:0.6;fill:#fefefe;fill-opacity:1;stroke-width:0.703438;stroke-linejoin:round"
     d="m 24,2 v 2 h 2 V 2 Z m 0,2 h -2 v 2 h 2 z m 0,2 v 2 h 2 V 6 Z m 0,2 h -2 v 2 h 2 z m 0,2 v 2 h 2 v -2 z m 0,2 h -2 v 2 h 2 z m 0,2 v 2 h 2 v -2 z m 0,2 h -2 v 2 h 2 z m 0,2 v 2 h 2 v -2 z m 0,2 h -2 v 2 h 2 z m 0,2 v 2 h 2 v -2 z m -2,3 v 5 c 0,0.554 0.446,1 1,1 h 2 c 0.554,0 1,-0.446 1,-1 v -5 z m 1,3 h 2 v 2 h -2 z"
     transform="scale(0.26458334)" />
  <path
     id="rect9905"
     style="opacity:0.3;fill:url(#linearGradient10455);fill-opacity:1;stroke-width:2;stroke-linejoin:round"
     d="M 10 59 L 10 60 C 10 61.108 10.892 62 12 62 L 52 62 C 53.108 62 54 61.108 54 60 L 54 59 C 54 60.108 53.108 61 52 61 L 12 61 C 10.892 61 10 60.108 10 59 z "
     transform="scale(0.26458334)" />
  <path
     id="path898"
     style="font-size:2.42598px;line-height:1.25;font-family:'Google Sans';-inkscape-font-specification:'Google Sans';opacity:0.6;fill:#ffffff;stroke-width:0.229227"
     d="m 38.816406,50.724609 v 1.320313 H 38 V 52.75 h 0.816406 v 2.742188 c 0,0.220056 0.03067,0.405774 0.0918,0.558593 0.06113,0.152827 0.153136,0.288165 0.275391,0.404297 0.110042,0.103912 0.243427,0.186919 0.402344,0.248047 0.165031,0.06113 0.341744,0.0918 0.53125,0.0918 0.146696,0 0.267683,-0.0089 0.359374,-0.02734 0.09781,-0.01834 0.191512,-0.04901 0.283204,-0.0918 v -0.761719 c -0.165052,0.103912 -0.336412,0.156251 -0.513672,0.15625 -0.220067,10e-7 -0.387774,-0.0667 -0.503906,-0.201171 -0.09781,-0.122255 -0.146485,-0.31358 -0.146485,-0.570313 V 52.75 h 1.136719 v -0.705078 h -1.136719 v -1.320313 z m 4.4375,1.173829 c -0.362823,0.0093 -0.696275,0.08927 -1,0.238281 -0.317858,0.158929 -0.56857,0.378969 -0.751953,0.660156 l 0.587891,0.439453 c 0.128378,-0.201713 0.30144,-0.356762 0.521484,-0.466797 0.220059,-0.116132 0.461764,-0.173828 0.72461,-0.173828 0.372873,0 0.681271,0.106366 0.925781,0.320313 0.24451,0.207833 0.367187,0.485562 0.367187,0.833984 v 0.285156 c -0.128365,-0.07947 -0.314083,-0.14981 -0.558594,-0.210937 -0.238394,-0.06113 -0.498112,-0.0918 -0.779296,-0.0918 -0.568482,0 -1.039234,0.140691 -1.41211,0.421875 -0.372875,0.275071 -0.560547,0.659169 -0.560547,1.154297 0,0.29953 0.07401,0.568253 0.220703,0.80664 0.146704,0.232288 0.354089,0.416306 0.623047,0.550782 0.268959,0.134475 0.575657,0.201172 0.917969,0.201172 0.336199,0 0.639245,-0.07934 0.908203,-0.238282 0.268964,-0.158931 0.46904,-0.351958 0.603516,-0.578125 h 0.03711 v 0.669922 h 0.742188 v -2.960937 c 0,-0.574594 -0.182068,-1.027336 -0.548828,-1.357422 -0.36065,-0.336197 -0.858419,-0.503906 -1.494141,-0.503906 -0.02445,0 -0.05003,-6.21e-4 -0.07422,0 z m 5.335938,0.0078 c -0.287297,0 -0.56137,0.08665 -0.824219,0.257812 -0.262843,0.165042 -0.441512,0.376077 -0.533203,0.632813 h -0.03516 v -0.751953 h -0.744141 v 4.675781 h 0.779297 v -2.613281 c 0,-0.250621 0.05598,-0.483319 0.166016,-0.697266 0.116129,-0.220046 0.269478,-0.393106 0.458984,-0.521484 0.189498,-0.128353 0.39688,-0.193359 0.623047,-0.19336 0.24451,0 0.464553,0.0487 0.660156,0.146485 v -0.84375 c -0.152814,-0.06113 -0.336835,-0.0918 -0.550781,-0.0918 z m -5.259766,2.458984 c 0.02593,-6.92e-4 0.05333,0 0.08008,0 0.238393,0 0.463788,0.03067 0.677735,0.0918 0.213954,0.06113 0.394319,0.140493 0.541015,0.238281 0,0.268964 -0.0667,0.516021 -0.201172,0.742188 -0.13448,0.226174 -0.314848,0.40654 -0.541015,0.541016 -0.226172,0.134475 -0.471529,0.201172 -0.734375,0.201172 -0.299525,0 -0.546585,-0.07936 -0.742188,-0.238282 -0.195603,-0.158931 -0.292968,-0.366313 -0.292968,-0.623047 -10e-7,-0.281191 0.106366,-0.51024 0.320312,-0.6875 0.206303,-0.166181 0.503609,-0.255238 0.892578,-0.265625 z"
     transform="scale(0.26458334)" />
</svg>
