<?xml version="1.0" encoding="UTF-8" standalone="no"?>
<!-- Created with Inkscape (http://www.inkscape.org/) -->

<svg
   width="64"
   height="64"
   viewBox="0 0 16.933333 16.933334"
   version="1.1"
   id="svg5"
   inkscape:version="1.1.1 (3bf5ae0d25, 2021-09-20, custom)"
   sodipodi:docname="image-x-compressed-xcf.svg"
   xmlns:inkscape="http://www.inkscape.org/namespaces/inkscape"
   xmlns:sodipodi="http://sodipodi.sourceforge.net/DTD/sodipodi-0.dtd"
   xmlns:xlink="http://www.w3.org/1999/xlink"
   xmlns="http://www.w3.org/2000/svg"
   xmlns:svg="http://www.w3.org/2000/svg">
  <sodipodi:namedview
     id="namedview7"
     pagecolor="#ffffff"
     bordercolor="#666666"
     borderopacity="1.0"
     inkscape:pageshadow="2"
     inkscape:pageopacity="0.0"
     inkscape:pagecheckerboard="0"
     inkscape:document-units="px"
     showgrid="false"
     units="px"
     height="64px"
     inkscape:zoom="12.59375"
     inkscape:cx="39.940447"
     inkscape:cy="40.53598"
     inkscape:window-width="1920"
     inkscape:window-height="1019"
     inkscape:window-x="0"
     inkscape:window-y="0"
     inkscape:window-maximized="1"
     inkscape:current-layer="svg5" />
  <defs
     id="defs2">
    <linearGradient
       inkscape:collect="always"
       id="linearGradient2898">
      <stop
         style="stop-color:#ffffff;stop-opacity:1;"
         offset="0"
         id="stop2894" />
      <stop
         style="stop-color:#d1b6a3;stop-opacity:1"
         offset="1"
         id="stop2896" />
    </linearGradient>
    <linearGradient
       inkscape:collect="always"
       id="linearGradient2480">
      <stop
         style="stop-color:#907463;stop-opacity:1;"
         offset="0"
         id="stop2476" />
      <stop
         style="stop-color:#695248;stop-opacity:1"
         offset="1"
         id="stop2478" />
    </linearGradient>
    <linearGradient
       inkscape:collect="always"
       id="linearGradient10453">
      <stop
         style="stop-color:#666666;stop-opacity:1"
         offset="0"
         id="stop10449" />
      <stop
         style="stop-color:#666666;stop-opacity:0"
         offset="1"
         id="stop10451" />
    </linearGradient>
    <linearGradient
       inkscape:collect="always"
       id="linearGradient6263">
      <stop
         style="stop-color:#000000;stop-opacity:1;"
         offset="0"
         id="stop6259" />
      <stop
         style="stop-color:#000000;stop-opacity:0;"
         offset="1"
         id="stop6261" />
    </linearGradient>
    <linearGradient
       inkscape:collect="always"
       id="linearGradient3378">
      <stop
         style="stop-color:#b0b0b0;stop-opacity:1"
         offset="0"
         id="stop3374" />
      <stop
         style="stop-color:#fcfcfc;stop-opacity:1"
         offset="1"
         id="stop3376" />
    </linearGradient>
    <linearGradient
       inkscape:collect="always"
       xlink:href="#linearGradient3378"
       id="linearGradient3380"
       x1="14.942825"
       y1="1.1138821"
       x2="11.503234"
       y2="4.3115072"
       gradientUnits="userSpaceOnUse"
       gradientTransform="translate(-0.5291663,-0.52916667)" />
    <linearGradient
       inkscape:collect="always"
       xlink:href="#linearGradient6263"
       id="linearGradient6265"
       x1="11.90625"
       y1="2.3812501"
       x2="12.170834"
       y2="7.1437502"
       gradientUnits="userSpaceOnUse"
       gradientTransform="translate(-0.52916663,0.52916673)" />
    <linearGradient
       inkscape:collect="always"
       xlink:href="#linearGradient10453"
       id="linearGradient10455"
       x1="10"
       y1="72.5"
       x2="58"
       y2="32.5"
       gradientUnits="userSpaceOnUse" />
    <linearGradient
       inkscape:collect="always"
       xlink:href="#linearGradient6263"
       id="linearGradient910"
       x1="14.001093"
       y1="58.37793"
       x2="52"
       y2="24.37793"
       gradientUnits="userSpaceOnUse" />
    <linearGradient
       inkscape:collect="always"
       xlink:href="#linearGradient2480"
       id="linearGradient2482"
       x1="2.6458333"
       y1="1.5875005"
       x2="12.700002"
       y2="14.816668"
       gradientUnits="userSpaceOnUse" />
    <linearGradient
       inkscape:collect="always"
       xlink:href="#linearGradient2898"
       id="linearGradient2900"
       x1="12.170834"
       y1="6.6175609"
       x2="12.170829"
       y2="14.555061"
       gradientUnits="userSpaceOnUse" />
  </defs>
  <path
     id="rect1068"
     style="fill:url(#linearGradient2482);fill-opacity:1;stroke-width:0.529167;stroke-linejoin:round"
     d="m 3.175,0.5291667 7.143751,3e-8 3.968749,3.96874997 1e-6,11.3770833 c 0,0.293158 -0.236009,0.529167 -0.529167,0.529167 H 3.175 c -0.2931584,0 -0.5291667,-0.236009 -0.5291667,-0.529167 V 1.0583334 c 0,-0.29315835 0.2360083,-0.5291667 0.5291667,-0.5291667 z"
     sodipodi:nodetypes="cccsssssc" />
  <path
     id="rect9905"
     style="opacity:0.3;fill:url(#linearGradient10455);fill-opacity:1;stroke-width:2;stroke-linejoin:round"
     d="M 10 59 L 10 60 C 10 61.108 10.892 62 12 62 L 52 62 C 53.108 62 54 61.108 54 60 L 54 59 C 54 60.108 53.108 61 52 61 L 12 61 C 10.892 61 10 60.108 10 59 z "
     transform="scale(0.26458334)" />
  <path
     id="rect5598"
     style="opacity:0.2;fill:url(#linearGradient6265);fill-opacity:1;stroke-width:0.529167;stroke-linejoin:round"
     d="M 10.444901,4.3115072 10.31875,3.4395834 14.2875,4.4979167 v 3.7041668 z"
     sodipodi:nodetypes="ccccc" />
  <path
     id="rect2607"
     style="fill:url(#linearGradient3380);fill-opacity:1;stroke-width:0.529167;stroke-linejoin:round"
     d="m 14.2875,4.4979167 -3.439583,-1e-7 c -0.293158,0 -0.529166,-0.2360083 -0.529166,-0.5291667 V 0.52916673 Z"
     sodipodi:nodetypes="csscc" />
  <path
     id="path10"
     style="isolation:auto;mix-blend-mode:normal;solid-color:#000000;solid-opacity:1;stroke-width:0.231506;marker:none;fill:url(#linearGradient2900);fill-opacity:1"
     d="m 11.293183,7.4108541 a 0.04329161,0.04329161 0 0 0 -0.03436,0.00227 c -0.02778,0.013659 -0.05257,0.057994 -0.07641,0.130222 -0.05695,0.1701571 -0.420621,1.2283854 -2.2775309,1.513832 A 0.92324584,0.92347727 0 0 1 9.4072288,9.8787583 0.92324584,0.92347727 0 0 1 8.4839177,10.80207 0.92324584,0.92347727 0 0 1 7.6438043,10.259476 0.73271639,0.73294789 0 0 1 7.0279623,10.596788 0.73271639,0.73294789 0 0 1 6.3004366,9.9470333 0.75007933,0.75007933 0 0 1 6.2091006,10.090821 c -0.014122,-0.02223 -0.022925,-0.0472 -0.038429,-0.06873 A 1.3644962,1.3644962 0 0 0 5.8487225,9.7006003 c -0.134968,-0.09376 -0.2752858,-0.155517 -0.4137264,-0.17589 -0.1597392,-0.02315 -0.3143201,0.01127 -0.4367867,0.09947 -0.1226981,0.08844 -0.1944504,0.223715 -0.2224627,0.3825277 -0.024308,0.137515 -0.015786,0.286597 0.030747,0.444021 0.040513,0.136821 0.1054113,0.274798 0.1994027,0.405137 a 1.394129,1.394129 0 0 0 0.3522328,0.344545 c 0.1458488,0.09584 0.3007552,0.151952 0.4521601,0.160517 0.046995,0.0028 0.094849,-0.0089 0.1379088,-0.01537 0.9818169,0.776934 2.9309198,1.502289 4.2227229,0.673266 0.02801,0.0095 0.05586,0.02103 0.0841,0.03075 6.95e-4,0.01319 -0.0035,0.02662 0,0.03843 l 0.06149,-0.02306 c 0.01088,0.0035 0.01918,0.01214 0.03029,0.01537 0.0023,6.94e-4 0.0053,-6.95e-4 0.0077,0 l 0.02306,0.02261 0.582383,0.206638 c -0.02408,0.201873 0.07636,0.431354 0.329624,0.528123 a 9.31418,9.31418 0 0 1 0.881261,0.397439 c -0.217616,-0.737577 -0.297076,-1.32944 -0.865886,-1.277352 -0.105799,0.0097 -0.185575,0.05327 -0.245072,0.114849 l -0.513653,-0.329172 h -0.02306 l -0.0077,-0.0077 c 0.691277,-0.679239 1.095678,-1.9557567 0.850514,-4.1770558 -0.01065,-0.083342 -0.03946,-0.1362812 -0.0728,-0.1478564 z M 6.3700633,8.0863813 6.3393164,9.4636608 c 0,0 0.011979,0.042296 0.021708,0.099474 A 0.73271639,0.73294789 0 0 1 7.0279606,9.131323 0.73271639,0.73294789 0 0 1 7.6519417,9.4812953 0.92324584,0.92347727 0 0 1 7.9562451,9.1227324 C 6.8468688,9.064161 6.3700677,8.0863813 6.3700677,8.0863813 Z m 0.7713852,1.3673318 a 0.51301722,0.50329397 0 0 0 -0.1528307,0.023064 0.25396204,0.24910042 0 0 1 0.1478564,0.22608 0.25396204,0.24910042 0 0 1 -0.2541135,0.24914 A 0.25396204,0.24910042 0 0 1 6.6517589,9.8073061 0.51301722,0.50329397 0 0 0 6.6282479,9.9569711 0.51301722,0.50329397 0 0 0 7.1414501,10.460225 0.51301722,0.50329397 0 0 0 7.6541989,9.9569711 0.51301722,0.50329397 0 0 0 7.1414501,9.4537164 Z m 1.5436742,0.097667 a 0.51301722,0.50329397 0 0 0 -0.1528298,0.02306 0.25396204,0.24910042 0 0 1 0.1478564,0.22608 A 0.25396204,0.24910042 0 0 1 8.4260349,10.04966 0.25396204,0.24910042 0 0 1 8.1958855,9.9049681 0.51301722,0.50329397 0 0 0 8.1723745,10.054633 0.51301722,0.50329397 0 0 0 8.6851242,10.557888 0.51301722,0.50329397 0 0 0 9.1983264,10.054633 0.51301722,0.50329397 0 0 0 8.6851242,9.5513791 Z M 5.3454683,9.8543271 A 0.26669488,0.29794818 0 0 1 5.6122429,10.1523 0.26669488,0.29794818 0 0 1 5.3454683,10.450274 0.26669488,0.29794818 0 0 1 5.0786938,10.1523 0.26669488,0.29794818 0 0 1 5.3454683,9.8543271 Z" />
  <path
     id="path10-3"
     style="isolation:auto;mix-blend-mode:normal;solid-color:#000000;solid-opacity:1;stroke-width:0.874983;marker:none;fill-opacity:1;fill:url(#linearGradient910);opacity:0.3"
     d="M 43.224609 33.732422 C 43.136135 39.029606 41.765586 42.369225 39.744141 44.355469 L 39.773438 44.384766 L 39.859375 44.384766 L 40.345703 44.697266 C 42.149137 42.520497 43.293503 39.043878 43.224609 33.732422 z M 26.5625 34.511719 A 2.7693218 2.7701967 0 0 0 24.041016 36.144531 C 24.018307 36.011102 23.996999 35.915765 23.980469 35.849609 L 23.958984 36.767578 C 23.958984 36.767578 24.004245 36.928456 24.041016 37.144531 A 2.7693218 2.7701967 0 0 1 26.5625 35.511719 A 2.7693218 2.7701967 0 0 1 28.919922 36.833984 A 3.4894331 3.4903078 0 0 1 30.070312 35.480469 C 29.763855 35.464289 29.470596 35.427452 29.189453 35.376953 A 3.4894331 3.4903078 0 0 0 28.919922 35.833984 A 2.7693218 2.7701967 0 0 0 28.34375 35.167969 C 27.823449 35.003573 27.355384 34.786372 26.935547 34.539062 A 2.7693218 2.7701967 0 0 0 26.5625 34.511719 z M 34.6875 35.044922 C 34.357563 35.114517 34.015097 35.17726 33.65625 35.232422 A 3.4894331 3.4903078 0 0 1 35.517578 37.841797 A 3.4894331 3.4903078 0 0 0 35.554688 37.337891 A 3.4894331 3.4903078 0 0 0 34.6875 35.044922 z M 26.970703 36.732422 A 1.9389627 1.9022134 0 0 0 26.414062 36.818359 A 0.95985652 0.94148189 0 0 1 26.822266 37.177734 A 0.95985652 0.94148189 0 0 0 26.970703 36.732422 z M 32.804688 37.101562 A 1.9389627 1.9022134 0 0 0 32.248047 37.1875 A 0.95985652 0.94148189 0 0 1 32.65625 37.546875 A 0.95985652 0.94148189 0 0 0 32.804688 37.101562 z M 20.203125 37.244141 A 1.0079806 1.1261033 0 0 0 19.195312 38.371094 A 1.0079806 1.1261033 0 0 0 19.300781 38.871094 A 1.0079806 1.1261033 0 0 1 20.203125 38.244141 A 1.0079806 1.1261033 0 0 1 21.105469 38.871094 A 1.0079806 1.1261033 0 0 0 21.210938 38.371094 A 1.0079806 1.1261033 0 0 0 20.203125 37.244141 z M 25.126953 38.125 A 1.9389627 1.9022134 0 0 0 25.050781 38.632812 A 1.9389627 1.9022134 0 0 0 25.492188 39.826172 A 2.7693218 2.7701967 0 0 0 26.5625 40.050781 A 2.7693218 2.7701967 0 0 0 28.890625 38.775391 A 3.4894331 3.4903078 0 0 0 28.912109 38.814453 A 1.9389627 1.9022134 0 0 0 28.929688 38.632812 A 1.9389627 1.9022134 0 0 0 28.851562 38.132812 A 1.9389627 1.9022134 0 0 1 26.992188 39.535156 A 1.9389627 1.9022134 0 0 1 25.126953 38.125 z M 30.962891 38.494141 A 1.9389627 1.9022134 0 0 0 30.888672 39.001953 A 1.9389627 1.9022134 0 0 0 32.263672 40.8125 A 3.4894331 3.4903078 0 0 0 34.626953 39.699219 A 1.9389627 1.9022134 0 0 0 34.765625 39.001953 A 1.9389627 1.9022134 0 0 0 34.6875 38.501953 A 1.9389627 1.9022134 0 0 1 32.826172 39.904297 A 1.9389627 1.9022134 0 0 1 30.962891 38.494141 z M 18.037109 38.910156 C 17.96386 39.404952 18.000161 39.93695 18.166016 40.498047 C 18.319136 41.015166 18.564679 41.536677 18.919922 42.029297 A 5.2691489 5.2691489 0 0 0 20.251953 43.332031 C 20.803193 43.694261 21.388699 43.907081 21.960938 43.939453 C 22.138556 43.950036 22.317723 43.905313 22.480469 43.880859 C 26.191273 46.817303 33.558999 49.559096 38.441406 46.425781 C 38.547271 46.461687 38.653032 46.504279 38.759766 46.541016 C 38.762392 46.590868 38.746537 46.642864 38.759766 46.6875 L 38.992188 46.599609 C 39.033309 46.612838 39.063478 46.645995 39.105469 46.658203 C 39.114162 46.660826 39.125695 46.655576 39.134766 46.658203 L 39.222656 46.744141 L 41.423828 47.523438 C 41.332817 48.286422 41.712704 49.15379 42.669922 49.519531 A 35.2032 35.2032 0 0 1 46 51.023438 C 45.881713 50.62252 45.773664 50.233862 45.669922 49.861328 A 35.2032 35.2032 0 0 0 42.669922 48.519531 C 41.712704 48.15379 41.332817 47.286422 41.423828 46.523438 L 39.222656 45.744141 L 39.134766 45.658203 C 39.125695 45.655576 39.114162 45.660826 39.105469 45.658203 C 39.063478 45.645995 39.033309 45.612838 38.992188 45.599609 L 38.759766 45.6875 C 38.746537 45.642864 38.762392 45.590868 38.759766 45.541016 C 38.653032 45.504279 38.547271 45.461687 38.441406 45.425781 C 33.558999 48.559096 26.191273 45.817303 22.480469 42.880859 C 22.31773 42.905313 22.138575 42.950036 21.960938 42.939453 C 21.388697 42.907081 20.803193 42.694261 20.251953 42.332031 A 5.2691489 5.2691489 0 0 1 18.919922 41.029297 C 18.564679 40.536677 18.319136 40.015166 18.166016 39.498047 C 18.106851 39.297888 18.064503 39.102714 18.037109 38.910156 z "
     transform="scale(0.26458334)" />
</svg>
