<?xml version="1.0" encoding="UTF-8" standalone="no"?>
<!-- Created with Inkscape (http://www.inkscape.org/) -->

<svg
   width="64"
   height="64"
   viewBox="0 0 16.933333 16.933334"
   version="1.1"
   id="svg5"
   inkscape:version="1.1.1 (3bf5ae0d25, 2021-09-20, custom)"
   sodipodi:docname="text-x-fortran.svg"
   xmlns:inkscape="http://www.inkscape.org/namespaces/inkscape"
   xmlns:sodipodi="http://sodipodi.sourceforge.net/DTD/sodipodi-0.dtd"
   xmlns:xlink="http://www.w3.org/1999/xlink"
   xmlns="http://www.w3.org/2000/svg"
   xmlns:svg="http://www.w3.org/2000/svg">
  <sodipodi:namedview
     id="namedview7"
     pagecolor="#ffffff"
     bordercolor="#666666"
     borderopacity="1.0"
     inkscape:pageshadow="2"
     inkscape:pageopacity="0.0"
     inkscape:pagecheckerboard="0"
     inkscape:document-units="px"
     showgrid="false"
     units="px"
     height="64px"
     inkscape:zoom="8.8277862"
     inkscape:cx="26.620491"
     inkscape:cy="38.911228"
     inkscape:window-width="1920"
     inkscape:window-height="1019"
     inkscape:window-x="0"
     inkscape:window-y="0"
     inkscape:window-maximized="1"
     inkscape:current-layer="svg5" />
  <defs
     id="defs2">
    <linearGradient
       inkscape:collect="always"
       id="linearGradient10453">
      <stop
         style="stop-color:#666666;stop-opacity:1"
         offset="0"
         id="stop10449" />
      <stop
         style="stop-color:#666666;stop-opacity:0"
         offset="1"
         id="stop10451" />
    </linearGradient>
    <linearGradient
       inkscape:collect="always"
       id="linearGradient8423">
      <stop
         style="stop-color:#fcfcfc;stop-opacity:1"
         offset="0"
         id="stop8419" />
      <stop
         style="stop-color:#ffffff;stop-opacity:0;"
         offset="1"
         id="stop8421" />
    </linearGradient>
    <linearGradient
       inkscape:collect="always"
       id="linearGradient6263">
      <stop
         style="stop-color:#000000;stop-opacity:1;"
         offset="0"
         id="stop6259" />
      <stop
         style="stop-color:#000000;stop-opacity:0;"
         offset="1"
         id="stop6261" />
    </linearGradient>
    <linearGradient
       inkscape:collect="always"
       id="linearGradient3378">
      <stop
         style="stop-color:#b0b0b0;stop-opacity:1"
         offset="0"
         id="stop3374" />
      <stop
         style="stop-color:#fcfcfc;stop-opacity:1"
         offset="1"
         id="stop3376" />
    </linearGradient>
    <linearGradient
       inkscape:collect="always"
       xlink:href="#linearGradient3378"
       id="linearGradient3380"
       x1="14.942825"
       y1="1.1138821"
       x2="11.503234"
       y2="4.3115072"
       gradientUnits="userSpaceOnUse"
       gradientTransform="translate(-0.5291663,-0.52916667)" />
    <linearGradient
       inkscape:collect="always"
       xlink:href="#linearGradient6263"
       id="linearGradient6265"
       x1="11.90625"
       y1="2.3812501"
       x2="12.170834"
       y2="7.1437502"
       gradientUnits="userSpaceOnUse"
       gradientTransform="translate(-0.52916663,0.52916673)" />
    <linearGradient
       inkscape:collect="always"
       xlink:href="#linearGradient8423"
       id="linearGradient8425"
       x1="13.692527"
       y1="11.622045"
       x2="1.6077259"
       y2="-0.71580184"
       gradientUnits="userSpaceOnUse" />
    <linearGradient
       inkscape:collect="always"
       xlink:href="#linearGradient10453"
       id="linearGradient10455"
       x1="10"
       y1="72.5"
       x2="58"
       y2="32.5"
       gradientUnits="userSpaceOnUse" />
  </defs>
  <path
     id="rect1068"
     style="fill:#e5e5e5;fill-opacity:1;stroke-width:0.529167;stroke-linejoin:round"
     d="m 3.175,0.5291667 7.143751,3e-8 3.968749,3.96874997 1e-6,11.3770833 c 0,0.293158 -0.236009,0.529167 -0.529167,0.529167 H 3.175 c -0.2931584,0 -0.5291667,-0.236009 -0.5291667,-0.529167 V 1.0583334 c 0,-0.29315835 0.2360083,-0.5291667 0.5291667,-0.5291667 z"
     sodipodi:nodetypes="cccsssssc" />
  <path
     id="rect8140"
     style="opacity:1;fill:url(#linearGradient8425);fill-opacity:1;stroke-width:0.518136;stroke-linejoin:round"
     d="m 3.175,0.5291668 h 7.143751 l -1e-6,2.9104166 0.79375,1.0583333 3.175,0 V 15.875 c 0,0.295111 -0.236009,0.529167 -0.529167,0.529167 H 3.175 c -0.293159,0 -0.529167,-0.236009 -0.529167,-0.529167 V 1.0583337 c 0,-0.2931589 0.236008,-0.5291669 0.529167,-0.5291669 z"
     sodipodi:nodetypes="sccccssssss" />
  <path
     id="rect9905"
     style="opacity:0.3;fill:url(#linearGradient10455);fill-opacity:1;stroke-width:2;stroke-linejoin:round"
     d="M 10 59 L 10 60 C 10 61.108 10.892 62 12 62 L 52 62 C 53.108 62 54 61.108 54 60 L 54 59 C 54 60.108 53.108 61 52 61 L 12 61 C 10.892 61 10 60.108 10 59 z "
     transform="scale(0.26458334)" />
  <path
     id="rect5598"
     style="opacity:0.2;fill:url(#linearGradient6265);fill-opacity:1;stroke-width:0.529167;stroke-linejoin:round"
     d="M 10.444901,4.3115072 10.31875,3.4395834 14.2875,4.4979167 v 3.7041668 z"
     sodipodi:nodetypes="ccccc" />
  <path
     id="rect2607"
     style="fill:url(#linearGradient3380);fill-opacity:1;stroke-width:0.529167;stroke-linejoin:round"
     d="m 14.2875,4.4979167 -3.439583,-1e-7 c -0.293158,0 -0.529166,-0.2360083 -0.529166,-0.5291667 V 0.52916673 Z"
     sodipodi:nodetypes="csscc" />
  <path
     id="path863"
     style="font-size:1.67233px;line-height:1.25;font-family:Roboto;-inkscape-font-specification:Roboto;text-align:center;text-anchor:middle;stroke-width:0.158015;fill:#808080;fill-opacity:1"
     d="M 23.855469 51 C 23.50158 51 23.187813 51.088693 22.912109 51.265625 C 22.638462 51.440511 22.425587 51.694135 22.275391 52.025391 C 22.125195 52.356646 22.050781 52.737846 22.050781 53.169922 L 22.050781 53.494141 C 22.054898 53.917984 22.131054 54.290255 22.28125 54.613281 C 22.433504 54.934246 22.646276 55.182531 22.919922 55.357422 C 23.193568 55.530247 23.507439 55.617188 23.861328 55.617188 C 24.223447 55.617188 24.540911 55.530247 24.8125 55.357422 C 25.084089 55.184592 25.293266 54.934563 25.441406 54.607422 C 25.589546 54.278223 25.664062 53.893427 25.664062 53.453125 L 25.664062 53.169922 C 25.664062 52.731676 25.589546 52.346777 25.441406 52.017578 C 25.293267 51.686318 25.082345 51.434544 24.806641 51.261719 C 24.532994 51.086827 24.21553 51 23.855469 51 z M 18.714844 51.0625 L 18.714844 55.554688 L 19.306641 55.554688 L 19.306641 53.570312 L 21.193359 53.570312 L 21.193359 53.085938 L 19.306641 53.085938 L 19.306641 51.548828 L 21.498047 51.548828 L 21.498047 51.0625 L 18.714844 51.0625 z M 26.550781 51.0625 L 26.550781 55.554688 L 27.146484 55.554688 L 27.146484 53.738281 L 28.201172 53.738281 L 29.175781 55.554688 L 29.8125 55.554688 L 29.8125 55.517578 L 28.757812 53.611328 C 29.027345 53.508444 29.236523 53.35233 29.386719 53.144531 C 29.538973 52.936725 29.615234 52.693881 29.615234 52.414062 C 29.615234 51.973745 29.478725 51.638628 29.205078 51.408203 C 28.933489 51.177753 28.543253 51.0625 28.037109 51.0625 L 26.550781 51.0625 z M 29.828125 51.0625 L 29.828125 51.548828 L 31.269531 51.548828 L 31.269531 55.554688 L 31.859375 55.554688 L 31.859375 51.548828 L 33.302734 51.548828 L 33.302734 51.0625 L 29.828125 51.0625 z M 33.966797 51.0625 L 33.966797 55.554688 L 34.5625 55.554688 L 34.5625 53.738281 L 35.617188 53.738281 L 36.59375 55.554688 L 37.228516 55.554688 L 37.228516 55.517578 L 36.173828 53.611328 C 36.443358 53.508444 36.652536 53.35233 36.802734 53.144531 C 36.954989 52.936725 37.03125 52.693881 37.03125 52.414062 C 37.03125 51.973745 36.89474 51.638628 36.621094 51.408203 C 36.349505 51.177753 35.959268 51.0625 35.453125 51.0625 L 33.966797 51.0625 z M 39.142578 51.0625 L 37.425781 55.554688 L 38.037109 55.554688 L 38.460938 54.382812 L 40.341797 54.382812 L 40.771484 55.554688 L 41.378906 55.554688 L 39.660156 51.0625 L 39.142578 51.0625 z M 41.984375 51.0625 L 41.984375 55.554688 L 42.580078 55.554688 L 42.580078 52.091797 L 44.841797 55.554688 L 45.4375 55.554688 L 45.4375 51.0625 L 44.847656 51.0625 L 44.847656 54.539062 L 42.580078 51.0625 L 41.984375 51.0625 z M 23.820312 51.509766 C 23.83186 51.509486 23.843767 51.509766 23.855469 51.509766 C 24.24022 51.509766 24.539927 51.651508 24.753906 51.9375 C 24.967885 52.221436 25.074219 52.631174 25.074219 53.164062 L 25.074219 53.496094 C 25.068046 54.016638 24.959865 54.417447 24.75 54.697266 C 24.540136 54.975028 24.244022 55.113281 23.861328 55.113281 C 23.480692 55.113281 23.182938 54.966096 22.964844 54.671875 C 22.748806 54.375595 22.640625 53.969555 22.640625 53.453125 L 22.640625 53.123047 C 22.646798 52.616905 22.756724 52.221436 22.970703 51.9375 C 23.179989 51.660445 23.462347 51.518424 23.820312 51.509766 z M 27.146484 51.548828 L 28.052734 51.548828 C 28.365474 51.550894 28.604933 51.627258 28.769531 51.775391 C 28.936188 51.92353 29.019531 52.1363 29.019531 52.414062 C 29.019531 52.669181 28.932699 52.873126 28.757812 53.025391 C 28.584983 53.177655 28.350862 53.253906 28.056641 53.253906 L 27.146484 53.253906 L 27.146484 51.548828 z M 34.5625 51.548828 L 35.46875 51.548828 C 35.78149 51.550894 36.020948 51.627258 36.185547 51.775391 C 36.352204 51.92353 36.435547 52.1363 36.435547 52.414062 C 36.435547 52.669181 36.348714 52.873126 36.173828 53.025391 C 36.000999 53.177655 35.766878 53.253906 35.472656 53.253906 L 34.5625 53.253906 L 34.5625 51.548828 z M 39.400391 51.792969 L 40.166016 53.894531 L 38.638672 53.894531 L 39.400391 51.792969 z "
     transform="scale(0.26458334)" />
  <path
     d="m 7.7955285,11.105184 q 0,0.309756 0.025813,0.490447 0.034417,0.180691 0.1204607,0.275338 0.094648,0.09465 0.25813,0.129066 0.1634824,0.02581 0.4388212,0.02581 v 0.215108 q -0.1806911,0 -0.4990515,0 -0.3097561,-0.0086 -0.6453252,-0.0086 -0.3441734,0 -0.6625338,0.0086 -0.3097561,0 -0.4818428,0 v -0.215108 q 0.2839431,0 0.4560298,-0.02581 0.1720867,-0.03442 0.2667344,-0.13767 0.086043,-0.09465 0.1118563,-0.275339 0.034417,-0.180691 0.034417,-0.481842 V 6.8632462 q 0,-0.2667344 -0.043022,-0.4216125 Q 7.141599,6.2781514 7.0469513,6.2007123 6.9523036,6.114669 6.7802169,6.088856 6.6167345,6.0544386 6.3500001,6.0458343 V 5.8135172 q 1.0325203,0.025813 2.0908535,0.025813 1.0583333,0 2.0908534,-0.025813 l 0.05163,1.2992547 -0.223713,-0.0086 Q 10.316599,6.8116202 10.256368,6.6137204 10.204742,6.4158207 10.067073,6.3039644 9.938008,6.1835037 9.6970866,6.140482 9.4561652,6.088856 9.0517615,6.088856 h -1.256233 v 2.641531 h 1.256233 q 0.4130081,0 0.5678861,-0.1376694 Q 9.78313,8.4550483 9.808943,7.9646011 h 0.240921 q -0.01721,0.1720867 -0.02581,0.4302168 0,0.2495257 0,0.5334688 0,0.2839431 0,0.5506775 0.0086,0.2667344 0.02581,0.4560298 H 9.834756 Q 9.808943,9.4617555 9.654065,9.2810645 9.5077913,9.0917691 9.0689701,9.0917691 H 7.7955285 Z"
     style="font-weight:normal;font-size:8.81084px;line-height:1.25;font-family:'나눔명조';-inkscape-font-specification:'나눔명조';stroke-width:0.220275;fill:#a1a1a1;fill-opacity:1"
     id="path51347" />
</svg>
