<?xml version="1.0" encoding="UTF-8" standalone="no"?>
<!-- Created with Inkscape (http://www.inkscape.org/) -->

<svg
   width="64"
   height="64"
   viewBox="0 0 16.933333 16.933334"
   version="1.1"
   id="svg5"
   inkscape:version="1.1.1 (3bf5ae0d25, 2021-09-20, custom)"
   sodipodi:docname="text-x-script.svg"
   xmlns:inkscape="http://www.inkscape.org/namespaces/inkscape"
   xmlns:sodipodi="http://sodipodi.sourceforge.net/DTD/sodipodi-0.dtd"
   xmlns:xlink="http://www.w3.org/1999/xlink"
   xmlns="http://www.w3.org/2000/svg"
   xmlns:svg="http://www.w3.org/2000/svg">
  <sodipodi:namedview
     id="namedview7"
     pagecolor="#ffffff"
     bordercolor="#666666"
     borderopacity="1.0"
     inkscape:pageshadow="2"
     inkscape:pageopacity="0.0"
     inkscape:pagecheckerboard="0"
     inkscape:document-units="px"
     showgrid="false"
     units="px"
     height="64px"
     inkscape:zoom="6.296875"
     inkscape:cx="0.9528536"
     inkscape:cy="39.702233"
     inkscape:window-width="1920"
     inkscape:window-height="1011"
     inkscape:window-x="0"
     inkscape:window-y="0"
     inkscape:window-maximized="1"
     inkscape:current-layer="svg5" />
  <defs
     id="defs2">
    <linearGradient
       inkscape:collect="always"
       id="linearGradient10453">
      <stop
         style="stop-color:#666666;stop-opacity:1"
         offset="0"
         id="stop10449" />
      <stop
         style="stop-color:#666666;stop-opacity:0"
         offset="1"
         id="stop10451" />
    </linearGradient>
    <linearGradient
       inkscape:collect="always"
       id="linearGradient6263">
      <stop
         style="stop-color:#000000;stop-opacity:1;"
         offset="0"
         id="stop6259" />
      <stop
         style="stop-color:#000000;stop-opacity:0;"
         offset="1"
         id="stop6261" />
    </linearGradient>
    <linearGradient
       inkscape:collect="always"
       id="linearGradient3378">
      <stop
         style="stop-color:#b0b0b0;stop-opacity:1"
         offset="0"
         id="stop3374" />
      <stop
         style="stop-color:#fcfcfc;stop-opacity:1"
         offset="1"
         id="stop3376" />
    </linearGradient>
    <linearGradient
       inkscape:collect="always"
       xlink:href="#linearGradient3378"
       id="linearGradient3380"
       x1="14.942825"
       y1="1.1138821"
       x2="11.503234"
       y2="4.3115072"
       gradientUnits="userSpaceOnUse"
       gradientTransform="translate(-0.5291663,-0.52916667)" />
    <linearGradient
       inkscape:collect="always"
       xlink:href="#linearGradient6263"
       id="linearGradient6265"
       x1="11.90625"
       y1="2.3812501"
       x2="12.170834"
       y2="7.1437502"
       gradientUnits="userSpaceOnUse"
       gradientTransform="translate(-0.52916663,0.52916673)" />
    <linearGradient
       inkscape:collect="always"
       xlink:href="#linearGradient10453"
       id="linearGradient10455"
       x1="10"
       y1="72.5"
       x2="58"
       y2="32.5"
       gradientUnits="userSpaceOnUse" />
    <linearGradient
       inkscape:collect="always"
       xlink:href="#linearGradient8423"
       id="linearGradient8425"
       x1="13.692527"
       y1="11.622045"
       x2="1.6077259"
       y2="-0.71580184"
       gradientUnits="userSpaceOnUse" />
    <linearGradient
       inkscape:collect="always"
       id="linearGradient8423">
      <stop
         style="stop-color:#fcfcfc;stop-opacity:1"
         offset="0"
         id="stop8419" />
      <stop
         style="stop-color:#ffffff;stop-opacity:0;"
         offset="1"
         id="stop8421" />
    </linearGradient>
  </defs>
  <path
     id="rect1068"
     style="fill:#e5e5e5;fill-opacity:1;stroke-width:0.529167;stroke-linejoin:round"
     d="m 3.175,0.5291667 7.143751,3e-8 3.968749,3.96874997 1e-6,11.3770833 c 0,0.293158 -0.236009,0.529167 -0.529167,0.529167 H 3.175 c -0.2931584,0 -0.5291667,-0.236009 -0.5291667,-0.529167 V 1.0583334 c 0,-0.29315835 0.2360083,-0.5291667 0.5291667,-0.5291667 z"
     sodipodi:nodetypes="cccsssssc" />
  <path
     id="rect5598"
     style="opacity:0.2;fill:url(#linearGradient6265);fill-opacity:1;stroke-width:0.529167;stroke-linejoin:round"
     d="M 10.444901,4.3115072 10.31875,3.4395834 14.2875,4.4979167 v 3.7041668 z"
     sodipodi:nodetypes="ccccc" />
  <path
     id="rect2607"
     style="fill:url(#linearGradient3380);fill-opacity:1;stroke-width:0.529167;stroke-linejoin:round"
     d="m 14.2875,4.4979167 -3.439583,-1e-7 c -0.293158,0 -0.529166,-0.2360083 -0.529166,-0.5291667 V 0.52916673 Z"
     sodipodi:nodetypes="csscc" />
  <g
     id="g1629">
    <path
       id="rect8140"
       style="opacity:1;fill:url(#linearGradient8425);fill-opacity:1;stroke-width:0.518136;stroke-linejoin:round"
       d="m 3.175,0.5291668 h 7.143751 l -1e-6,2.9104166 0.79375,1.0583333 h 3.175 V 15.875 c 0,0.295111 -0.236009,0.529167 -0.529167,0.529167 H 3.175 c -0.293159,0 -0.529167,-0.236009 -0.529167,-0.529167 V 1.0583337 c 0,-0.2931589 0.236008,-0.5291669 0.529167,-0.5291669 z"
       sodipodi:nodetypes="sccccssssss" />
  </g>
  <path
     id="rect9905"
     style="opacity:0.3;fill:url(#linearGradient10455);fill-opacity:1;stroke-width:2;stroke-linejoin:round"
     d="M 10 59 L 10 60 C 10 61.108 10.892 62 12 62 L 52 62 C 53.108 62 54 61.108 54 60 L 54 59 C 54 60.108 53.108 61 52 61 L 12 61 C 10.892 61 10 60.108 10 59 z "
     transform="scale(0.26458334)" />
  <path
     id="rect35393"
     style="opacity:0.6;fill:#999999;fill-opacity:1;stroke-width:0.569291;stroke-linejoin:round"
     d="m 19,48 v 1 h 25.999999 v -1 z m 0,3 v 1 h 13 v -1 z"
     sodipodi:nodetypes="cccccccccc"
     transform="scale(0.26458334)" />
  <rect
     style="opacity:0.6;fill:#d40000;stroke-width:0.156546;stroke-linecap:round;stroke-linejoin:round"
     id="rect1072"
     width="1.8520833"
     height="0.26458335"
     x="5.0270834"
     y="11.90625" />
  <rect
     style="opacity:0.6;fill:#d40000;stroke-width:0.156546;stroke-linecap:round;stroke-linejoin:round"
     id="rect1072-3"
     width="1.8520833"
     height="0.26458335"
     x="5.0270834"
     y="11.1125" />
  <rect
     style="opacity:0.6;fill:#6e00f8;stroke-width:0.177507;stroke-linecap:round;stroke-linejoin:round;fill-opacity:1"
     id="rect1881"
     width="1.8520832"
     height="0.26458359"
     x="5.0270834"
     y="10.31875" />
  <rect
     style="opacity:0.6;fill:#6e00f8;stroke-width:0.156546;stroke-linecap:round;stroke-linejoin:round;fill-opacity:1"
     id="rect1072-3-6"
     width="1.8520833"
     height="0.26458335"
     x="5.0270839"
     y="9.5249996" />
  <rect
     style="opacity:0.6;fill:#6e00f8;stroke-width:0.177507;stroke-linecap:round;stroke-linejoin:round;fill-opacity:1"
     id="rect1881-7"
     width="1.8520832"
     height="0.26458359"
     x="5.0270839"
     y="8.7312498" />
  <rect
     style="opacity:0.6;fill:#2d3375;fill-opacity:1;stroke-width:0.19297;stroke-linecap:round;stroke-linejoin:round"
     id="rect2619"
     width="3.4395833"
     height="0.26458335"
     x="7.4083333"
     y="8.7312498" />
  <rect
     style="opacity:0.6;fill:#2d3375;fill-opacity:1;stroke-width:0.177507;stroke-linecap:round;stroke-linejoin:round"
     id="rect2621"
     width="3.96875"
     height="0.26458335"
     x="7.4083333"
     y="9.5250006" />
  <rect
     style="opacity:0.6;fill:#2d3375;fill-opacity:1;stroke-width:0.147695;stroke-linecap:round;stroke-linejoin:round"
     id="rect2623"
     width="2.3812499"
     height="0.26458335"
     x="7.4083333"
     y="10.31875" />
  <path
     d="m 7.4083334,11.1125 v 0.264583 H 11.906251 V 11.1125 Z m 0,0.79375 v 0.264583 H 11.906251 V 11.90625 Z"
     style="opacity:0.6;fill:#53b62d;fill-opacity:1;stroke-width:0.150625;stroke-linejoin:round"
     id="path4684" />
  <path
     id="rect5600"
     style="opacity:0.6;fill:#2d75b6;fill-opacity:1;stroke-width:0.670893;stroke-linecap:round;stroke-linejoin:round"
     d="M 19 24 L 19 25 L 39 25 L 39 24 L 19 24 z M 19 27 L 19 28 L 45 28 L 45 27 L 19 27 z M 19 30 L 19 31 L 31 31 L 31 30 L 19 30 z "
     transform="scale(0.26458334)" />
</svg>
