<?xml version="1.0" encoding="UTF-8" standalone="no"?>
<!-- Created with Inkscape (http://www.inkscape.org/) -->

<svg
   width="64"
   height="64"
   viewBox="0 0 16.933333 16.933334"
   version="1.1"
   id="svg5"
   inkscape:version="1.1.1 (3bf5ae0d25, 2021-09-20, custom)"
   sodipodi:docname="text-x-kotlin.svg"
   xmlns:inkscape="http://www.inkscape.org/namespaces/inkscape"
   xmlns:sodipodi="http://sodipodi.sourceforge.net/DTD/sodipodi-0.dtd"
   xmlns:xlink="http://www.w3.org/1999/xlink"
   xmlns="http://www.w3.org/2000/svg"
   xmlns:svg="http://www.w3.org/2000/svg">
  <sodipodi:namedview
     id="namedview7"
     pagecolor="#ffffff"
     bordercolor="#666666"
     borderopacity="1.0"
     inkscape:pageshadow="2"
     inkscape:pageopacity="0.0"
     inkscape:pagecheckerboard="0"
     inkscape:document-units="px"
     showgrid="false"
     units="px"
     height="64px"
     inkscape:zoom="4.4138931"
     inkscape:cx="12.234098"
     inkscape:cy="42.932621"
     inkscape:window-width="1920"
     inkscape:window-height="1019"
     inkscape:window-x="0"
     inkscape:window-y="0"
     inkscape:window-maximized="1"
     inkscape:current-layer="svg5" />
  <defs
     id="defs2">
    <linearGradient
       inkscape:collect="always"
       id="linearGradient10453">
      <stop
         style="stop-color:#666666;stop-opacity:1"
         offset="0"
         id="stop10449" />
      <stop
         style="stop-color:#666666;stop-opacity:0"
         offset="1"
         id="stop10451" />
    </linearGradient>
    <linearGradient
       inkscape:collect="always"
       id="linearGradient8423">
      <stop
         style="stop-color:#fcfcfc;stop-opacity:1"
         offset="0"
         id="stop8419" />
      <stop
         style="stop-color:#ffffff;stop-opacity:0;"
         offset="1"
         id="stop8421" />
    </linearGradient>
    <linearGradient
       inkscape:collect="always"
       id="linearGradient6263">
      <stop
         style="stop-color:#000000;stop-opacity:1;"
         offset="0"
         id="stop6259" />
      <stop
         style="stop-color:#000000;stop-opacity:0;"
         offset="1"
         id="stop6261" />
    </linearGradient>
    <linearGradient
       inkscape:collect="always"
       id="linearGradient3378">
      <stop
         style="stop-color:#b0b0b0;stop-opacity:1"
         offset="0"
         id="stop3374" />
      <stop
         style="stop-color:#fcfcfc;stop-opacity:1"
         offset="1"
         id="stop3376" />
    </linearGradient>
    <linearGradient
       inkscape:collect="always"
       xlink:href="#linearGradient3378"
       id="linearGradient3380"
       x1="14.942825"
       y1="1.1138821"
       x2="11.503234"
       y2="4.3115072"
       gradientUnits="userSpaceOnUse"
       gradientTransform="translate(-0.5291663,-0.52916667)" />
    <linearGradient
       inkscape:collect="always"
       xlink:href="#linearGradient6263"
       id="linearGradient6265"
       x1="11.90625"
       y1="2.3812501"
       x2="12.170834"
       y2="7.1437502"
       gradientUnits="userSpaceOnUse"
       gradientTransform="translate(-0.52916663,0.52916673)" />
    <linearGradient
       inkscape:collect="always"
       xlink:href="#linearGradient8423"
       id="linearGradient8425"
       x1="13.692527"
       y1="11.622045"
       x2="1.6077259"
       y2="-0.71580184"
       gradientUnits="userSpaceOnUse" />
    <linearGradient
       inkscape:collect="always"
       xlink:href="#linearGradient10453"
       id="linearGradient10455"
       x1="10"
       y1="72.5"
       x2="58"
       y2="32.5"
       gradientUnits="userSpaceOnUse" />
  </defs>
  <path
     id="rect1068"
     style="fill:#e5e5e5;fill-opacity:1;stroke-width:0.529167;stroke-linejoin:round"
     d="m 3.175,0.5291667 7.143751,3e-8 3.968749,3.96874997 1e-6,11.3770833 c 0,0.293158 -0.236009,0.529167 -0.529167,0.529167 H 3.175 c -0.2931584,0 -0.5291667,-0.236009 -0.5291667,-0.529167 V 1.0583334 c 0,-0.29315835 0.2360083,-0.5291667 0.5291667,-0.5291667 z"
     sodipodi:nodetypes="cccsssssc" />
  <path
     id="rect8140"
     style="opacity:1;fill:url(#linearGradient8425);fill-opacity:1;stroke-width:0.518136;stroke-linejoin:round"
     d="m 3.175,0.5291668 h 7.143751 l -1e-6,2.9104166 0.79375,1.0583333 3.175,0 V 15.875 c 0,0.295111 -0.236009,0.529167 -0.529167,0.529167 H 3.175 c -0.293159,0 -0.529167,-0.236009 -0.529167,-0.529167 V 1.0583337 c 0,-0.2931589 0.236008,-0.5291669 0.529167,-0.5291669 z"
     sodipodi:nodetypes="sccccssssss" />
  <path
     id="rect9905"
     style="opacity:0.3;fill:url(#linearGradient10455);fill-opacity:1;stroke-width:2;stroke-linejoin:round"
     d="M 10 59 L 10 60 C 10 61.108 10.892 62 12 62 L 52 62 C 53.108 62 54 61.108 54 60 L 54 59 C 54 60.108 53.108 61 52 61 L 12 61 C 10.892 61 10 60.108 10 59 z "
     transform="scale(0.26458334)" />
  <path
     id="rect5598"
     style="opacity:0.2;fill:url(#linearGradient6265);fill-opacity:1;stroke-width:0.529167;stroke-linejoin:round"
     d="M 10.444901,4.3115072 10.31875,3.4395834 14.2875,4.4979167 v 3.7041668 z"
     sodipodi:nodetypes="ccccc" />
  <path
     id="rect2607"
     style="fill:url(#linearGradient3380);fill-opacity:1;stroke-width:0.529167;stroke-linejoin:round"
     d="m 14.2875,4.4979167 -3.439583,-1e-7 c -0.293158,0 -0.529166,-0.2360083 -0.529166,-0.5291667 V 0.52916673 Z"
     sodipodi:nodetypes="csscc" />
  <path
     id="path863"
     style="font-size:1.67233px;line-height:1.25;font-family:Roboto;-inkscape-font-specification:Roboto;text-align:center;text-anchor:middle;stroke-width:0.158015;fill:#808080;fill-opacity:1"
     d="M 27.353516 51 C 26.999627 51 26.68586 51.088693 26.410156 51.265625 C 26.136509 51.440511 25.923633 51.694135 25.773438 52.025391 C 25.623242 52.356646 25.548828 52.737846 25.548828 53.169922 L 25.548828 53.494141 C 25.552943 53.917984 25.629101 54.290255 25.779297 54.613281 C 25.931551 54.934246 26.146275 55.182531 26.419922 55.357422 C 26.693568 55.530247 27.005486 55.617188 27.359375 55.617188 C 27.721494 55.617188 28.038958 55.530247 28.310547 55.357422 C 28.582136 55.184592 28.793266 54.934563 28.941406 54.607422 C 29.089546 54.278223 29.162109 53.893427 29.162109 53.453125 L 29.162109 53.169922 C 29.162109 52.731676 29.089546 52.346777 28.941406 52.017578 C 28.793267 51.686318 28.580391 51.434544 28.304688 51.261719 C 28.031041 51.086827 27.713577 51 27.353516 51 z M 21.839844 51.0625 L 21.839844 55.554688 L 22.431641 55.554688 L 22.431641 54.037109 L 22.980469 53.466797 L 24.574219 55.554688 L 25.283203 55.554688 L 23.376953 53.046875 L 25.144531 51.0625 L 24.427734 51.0625 L 22.431641 53.283203 L 22.431641 51.0625 L 21.839844 51.0625 z M 29.597656 51.0625 L 29.597656 51.548828 L 31.039062 51.548828 L 31.039062 55.554688 L 31.628906 55.554688 L 31.628906 51.548828 L 33.072266 51.548828 L 33.072266 51.0625 L 29.597656 51.0625 z M 33.740234 51.0625 L 33.740234 55.554688 L 36.464844 55.554688 L 36.464844 55.070312 L 34.335938 55.070312 L 34.335938 51.0625 L 33.740234 51.0625 z M 37.183594 51.0625 L 37.183594 55.554688 L 37.777344 55.554688 L 37.777344 51.0625 L 37.183594 51.0625 z M 38.859375 51.0625 L 38.859375 55.554688 L 39.455078 55.554688 L 39.455078 52.091797 L 41.716797 55.554688 L 42.3125 55.554688 L 42.3125 51.0625 L 41.724609 51.0625 L 41.724609 54.539062 L 39.455078 51.0625 L 38.859375 51.0625 z M 27.318359 51.509766 C 27.329907 51.509486 27.341814 51.509766 27.353516 51.509766 C 27.738267 51.509766 28.037974 51.651508 28.251953 51.9375 C 28.465932 52.221436 28.572266 52.631174 28.572266 53.164062 L 28.572266 53.496094 C 28.566095 54.016638 28.459865 54.417447 28.25 54.697266 C 28.040136 54.975028 27.742069 55.113281 27.359375 55.113281 C 26.978738 55.113281 26.680984 54.966096 26.462891 54.671875 C 26.246853 54.375595 26.138672 53.969555 26.138672 53.453125 L 26.138672 53.123047 C 26.144845 52.616905 26.254771 52.221436 26.46875 51.9375 C 26.678036 51.660445 26.960394 51.518424 27.318359 51.509766 z "
     transform="scale(0.26458334)" />
  <path
     id="rect855"
     style="fill:#5c9dfb;fill-opacity:1;stroke-width:0.264583"
     d="m 5.556275,5.8208831 -2.49e-5,5.8207839 5.8208089,-5e-5 L 8.4666668,8.7312501 11.377084,5.8208334 Z M 8.5762043,6.0854167 H 10.738353 L 5.820807,11.002963 V 8.8408141 Z m -2.7553709,0 H 8.2020835 L 5.8208334,8.4666668 Z M 8.27958,8.9183106 10.738353,11.377084 H 5.820807 Z"
     sodipodi:nodetypes="ccccccccccccccccccc" />
</svg>
