<?xml version="1.0" encoding="UTF-8" standalone="no"?>
<!-- Created with Inkscape (http://www.inkscape.org/) -->

<svg
   width="64"
   height="64"
   viewBox="0 0 16.933333 16.933334"
   version="1.1"
   id="svg5"
   inkscape:version="1.1.1 (3bf5ae0d25, 2021-09-20, custom)"
   sodipodi:docname="text-x-tex.svg"
   xmlns:inkscape="http://www.inkscape.org/namespaces/inkscape"
   xmlns:sodipodi="http://sodipodi.sourceforge.net/DTD/sodipodi-0.dtd"
   xmlns:xlink="http://www.w3.org/1999/xlink"
   xmlns="http://www.w3.org/2000/svg"
   xmlns:svg="http://www.w3.org/2000/svg">
  <sodipodi:namedview
     id="namedview7"
     pagecolor="#ffffff"
     bordercolor="#666666"
     borderopacity="1.0"
     inkscape:pageshadow="2"
     inkscape:pageopacity="0.0"
     inkscape:pagecheckerboard="0"
     inkscape:document-units="px"
     showgrid="false"
     units="px"
     height="64px"
     inkscape:zoom="8.8277862"
     inkscape:cx="26.620491"
     inkscape:cy="38.911228"
     inkscape:window-width="1920"
     inkscape:window-height="1019"
     inkscape:window-x="0"
     inkscape:window-y="0"
     inkscape:window-maximized="1"
     inkscape:current-layer="svg5" />
  <defs
     id="defs2">
    <linearGradient
       inkscape:collect="always"
       id="linearGradient10453">
      <stop
         style="stop-color:#666666;stop-opacity:1"
         offset="0"
         id="stop10449" />
      <stop
         style="stop-color:#666666;stop-opacity:0"
         offset="1"
         id="stop10451" />
    </linearGradient>
    <linearGradient
       inkscape:collect="always"
       id="linearGradient8423">
      <stop
         style="stop-color:#fcfcfc;stop-opacity:1"
         offset="0"
         id="stop8419" />
      <stop
         style="stop-color:#ffffff;stop-opacity:0;"
         offset="1"
         id="stop8421" />
    </linearGradient>
    <linearGradient
       inkscape:collect="always"
       id="linearGradient6263">
      <stop
         style="stop-color:#000000;stop-opacity:1;"
         offset="0"
         id="stop6259" />
      <stop
         style="stop-color:#000000;stop-opacity:0;"
         offset="1"
         id="stop6261" />
    </linearGradient>
    <linearGradient
       inkscape:collect="always"
       id="linearGradient3378">
      <stop
         style="stop-color:#b0b0b0;stop-opacity:1"
         offset="0"
         id="stop3374" />
      <stop
         style="stop-color:#fcfcfc;stop-opacity:1"
         offset="1"
         id="stop3376" />
    </linearGradient>
    <linearGradient
       inkscape:collect="always"
       xlink:href="#linearGradient3378"
       id="linearGradient3380"
       x1="14.942825"
       y1="1.1138821"
       x2="11.503234"
       y2="4.3115072"
       gradientUnits="userSpaceOnUse"
       gradientTransform="translate(-0.5291663,-0.52916667)" />
    <linearGradient
       inkscape:collect="always"
       xlink:href="#linearGradient6263"
       id="linearGradient6265"
       x1="11.90625"
       y1="2.3812501"
       x2="12.170834"
       y2="7.1437502"
       gradientUnits="userSpaceOnUse"
       gradientTransform="translate(-0.52916663,0.52916673)" />
    <linearGradient
       inkscape:collect="always"
       xlink:href="#linearGradient8423"
       id="linearGradient8425"
       x1="13.692527"
       y1="11.622045"
       x2="1.6077259"
       y2="-0.71580184"
       gradientUnits="userSpaceOnUse" />
    <linearGradient
       inkscape:collect="always"
       xlink:href="#linearGradient10453"
       id="linearGradient10455"
       x1="10"
       y1="72.5"
       x2="58"
       y2="32.5"
       gradientUnits="userSpaceOnUse" />
  </defs>
  <path
     id="rect1068"
     style="fill:#e5e5e5;fill-opacity:1;stroke-width:0.529167;stroke-linejoin:round"
     d="m 3.175,0.5291667 7.143751,3e-8 3.968749,3.96874997 1e-6,11.3770833 c 0,0.293158 -0.236009,0.529167 -0.529167,0.529167 H 3.175 c -0.2931584,0 -0.5291667,-0.236009 -0.5291667,-0.529167 V 1.0583334 c 0,-0.29315835 0.2360083,-0.5291667 0.5291667,-0.5291667 z"
     sodipodi:nodetypes="cccsssssc" />
  <path
     id="rect8140"
     style="opacity:1;fill:url(#linearGradient8425);fill-opacity:1;stroke-width:0.518136;stroke-linejoin:round"
     d="m 3.175,0.5291668 h 7.143751 l -1e-6,2.9104166 0.79375,1.0583333 3.175,0 V 15.875 c 0,0.295111 -0.236009,0.529167 -0.529167,0.529167 H 3.175 c -0.293159,0 -0.529167,-0.236009 -0.529167,-0.529167 V 1.0583337 c 0,-0.2931589 0.236008,-0.5291669 0.529167,-0.5291669 z"
     sodipodi:nodetypes="sccccssssss" />
  <path
     id="rect9905"
     style="opacity:0.3;fill:url(#linearGradient10455);fill-opacity:1;stroke-width:2;stroke-linejoin:round"
     d="M 10 59 L 10 60 C 10 61.108 10.892 62 12 62 L 52 62 C 53.108 62 54 61.108 54 60 L 54 59 C 54 60.108 53.108 61 52 61 L 12 61 C 10.892 61 10 60.108 10 59 z "
     transform="scale(0.26458334)" />
  <path
     id="rect5598"
     style="opacity:0.2;fill:url(#linearGradient6265);fill-opacity:1;stroke-width:0.529167;stroke-linejoin:round"
     d="M 10.444901,4.3115072 10.31875,3.4395834 14.2875,4.4979167 v 3.7041668 z"
     sodipodi:nodetypes="ccccc" />
  <path
     id="rect2607"
     style="fill:url(#linearGradient3380);fill-opacity:1;stroke-width:0.529167;stroke-linejoin:round"
     d="m 14.2875,4.4979167 -3.439583,-1e-7 c -0.293158,0 -0.529166,-0.2360083 -0.529166,-0.5291667 V 0.52916673 Z"
     sodipodi:nodetypes="csscc" />
  <path
     id="path2410"
     style="font-size:1.67233px;line-height:1.25;font-family:Roboto;-inkscape-font-specification:Roboto;text-align:center;text-anchor:middle;fill:#808080;stroke-width:0.158015"
     d="M 26.568359 51.0625 L 26.568359 51.548828 L 28.009766 51.548828 L 28.009766 55.554688 L 28.599609 55.554688 L 28.599609 51.548828 L 30.042969 51.548828 L 30.042969 51.0625 L 26.568359 51.0625 z M 30.710938 51.0625 L 30.710938 55.554688 L 33.564453 55.554688 L 33.564453 55.070312 L 31.302734 55.070312 L 31.302734 53.478516 L 33.25 53.478516 L 33.25 52.994141 L 31.302734 52.994141 L 31.302734 51.548828 L 33.535156 51.548828 L 33.535156 51.0625 L 30.710938 51.0625 z M 33.990234 51.0625 L 35.414062 53.289062 L 33.957031 55.554688 L 34.658203 55.554688 L 35.769531 53.802734 L 36.873047 55.554688 L 37.578125 55.554688 L 36.123047 53.289062 L 37.542969 51.0625 L 36.845703 51.0625 L 35.769531 52.783203 L 34.685547 51.0625 L 33.990234 51.0625 z "
     transform="scale(0.26458334)" />
  <path
     id="path5875"
     style="font-size:5.80312px;line-height:1.25;font-family:'나눔명조';-inkscape-font-specification:'나눔명조';stroke-width:0.479785;fill:#b3b3b3"
     d="M 16.207031 27.255859 L 16 29.841797 L 16.505859 29.841797 C 16.59332 29.466965 16.687153 29.161223 16.787109 28.923828 C 16.899559 28.686434 17.048911 28.498767 17.236328 28.361328 C 17.423745 28.223887 17.661847 28.130054 17.949219 28.080078 C 18.249085 28.017605 18.629503 27.986328 19.091797 27.986328 L 21.378906 27.986328 L 21.378906 38.744141 C 21.378906 39.581271 21.253796 40.132149 21.003906 40.394531 C 20.754018 40.656914 20.272729 40.787109 19.560547 40.787109 L 19.560547 41.255859 C 19.872907 41.243261 20.241205 41.236328 20.666016 41.236328 L 22.015625 41.236328 C 22.465424 41.236328 22.903315 41.243261 23.328125 41.255859 L 24.470703 41.255859 L 24.470703 40.787109 C 24.095871 40.787109 23.790129 40.762881 23.552734 40.712891 C 23.31534 40.650402 23.127673 40.544453 22.990234 40.394531 C 22.852793 40.2446 22.75896 40.037776 22.708984 39.775391 C 22.659009 39.513008 22.634766 39.168952 22.634766 38.744141 L 22.634766 27.986328 L 25.294922 27.986328 C 25.744721 27.986328 26.100898 28.017606 26.363281 28.080078 C 26.625664 28.130056 26.832489 28.230927 26.982422 28.380859 C 27.119861 28.518298 27.206658 28.705965 27.244141 28.943359 C 27.294118 29.180753 27.325396 29.479459 27.337891 29.841797 L 27.84375 29.841797 L 28.013672 27.255859 C 27.18904 27.293337 26.264777 27.31758 25.240234 27.330078 C 24.215692 27.342576 23.166317 27.349609 22.091797 27.349609 C 21.029771 27.349609 19.98548 27.342576 18.960938 27.330078 C 17.936395 27.317586 17.019169 27.293342 16.207031 27.255859 z M 34.345703 27.255859 L 34.345703 27.744141 C 34.895458 27.744141 35.333349 27.874336 35.658203 28.136719 C 35.983059 28.399101 36.356441 28.810798 36.78125 29.373047 L 40.623047 34.396484 L 37.212891 38.820312 C 36.888023 39.232626 36.60144 39.569646 36.351562 39.832031 C 36.101676 40.081908 35.863571 40.274661 35.638672 40.412109 C 35.413773 40.549533 35.18779 40.650402 34.962891 40.712891 C 34.737991 40.762881 34.50184 40.787109 34.251953 40.787109 L 34.251953 41.255859 C 34.851684 41.230663 35.544883 41.22373 36.332031 41.236328 C 37.131673 41.236328 37.831911 41.243261 38.431641 41.255859 L 38.431641 40.787109 C 37.582039 40.787109 37.124988 40.681159 37.0625 40.46875 C 37.000029 40.24385 37.269411 39.738319 37.869141 38.951172 L 40.980469 34.845703 L 44.634766 39.607422 C 45.022074 40.094709 45.159303 40.424693 45.046875 40.599609 C 44.934424 40.762053 44.578246 40.824602 43.978516 40.787109 L 43.978516 41.255859 C 44.540763 41.243261 45.228878 41.236328 46.041016 41.236328 C 46.853153 41.223982 47.594833 41.230914 48.269531 41.255859 L 48.269531 40.787109 C 47.782247 40.737142 47.370551 40.592873 47.033203 40.355469 C 46.695855 40.118077 46.303315 39.701295 45.853516 39.101562 L 41.748047 33.833984 L 45.027344 29.542969 C 45.239751 29.255597 45.439539 28.998337 45.626953 28.773438 C 45.82686 28.548536 46.033684 28.360869 46.246094 28.210938 C 46.446016 28.061006 46.671998 27.949968 46.921875 27.875 C 47.184257 27.787539 47.495086 27.744141 47.857422 27.744141 L 47.857422 27.255859 C 47.582547 27.268357 47.264682 27.280471 46.902344 27.292969 L 45.796875 27.292969 L 44.671875 27.292969 C 44.309534 27.292969 43.996757 27.280855 43.734375 27.255859 L 43.734375 27.744141 C 44.034238 27.744141 44.291497 27.768381 44.503906 27.818359 C 44.716316 27.868337 44.858633 27.950051 44.933594 28.0625 C 45.008554 28.187444 45.008554 28.361038 44.933594 28.585938 C 44.858628 28.798343 44.690117 29.079844 44.427734 29.429688 L 41.410156 33.384766 L 38.074219 29.130859 C 37.661897 28.5936 37.543833 28.230385 37.71875 28.042969 C 37.893673 27.855555 38.319445 27.756638 38.994141 27.744141 L 38.994141 27.255859 C 38.706771 27.268357 38.355678 27.280471 37.943359 27.292969 C 37.543542 27.305466 37.131843 27.3125 36.707031 27.3125 L 35.431641 27.3125 C 35.019324 27.300012 34.658064 27.280855 34.345703 27.255859 z M 25.037109 33.277344 L 25.037109 33.765625 C 25.412444 33.765625 25.717366 33.789799 25.955078 33.839844 C 26.205301 33.877377 26.399487 33.953806 26.537109 34.066406 C 26.687243 34.191518 26.787832 34.371663 26.837891 34.609375 C 26.900447 34.847087 26.931641 35.160983 26.931641 35.548828 L 26.931641 44.837891 C 26.931641 45.626093 26.811931 46.151327 26.574219 46.414062 C 26.336507 46.676795 25.825311 46.808594 25.037109 46.808594 L 25.037109 47.277344 C 26.57598 47.252399 28.182882 47.240234 29.859375 47.240234 C 31.535868 47.240234 33.19307 47.252399 34.832031 47.277344 C 34.882057 47.027129 34.939387 46.777574 35.001953 46.527344 C 35.064519 46.264609 35.13197 46.001014 35.207031 45.738281 C 35.282093 45.488064 35.358532 45.238511 35.433594 44.988281 C 35.52117 44.725554 35.607733 44.46898 35.695312 44.21875 L 35.207031 44.21875 C 35.044382 44.706684 34.883344 45.112209 34.720703 45.4375 C 34.558058 45.750281 34.356853 46.001787 34.119141 46.189453 C 33.881429 46.377124 33.58664 46.508923 33.236328 46.583984 C 32.886016 46.659046 32.449297 46.695312 31.923828 46.695312 L 30.628906 46.695312 C 30.115949 46.695312 29.696383 46.676215 29.371094 46.638672 C 29.058317 46.588631 28.81383 46.495047 28.638672 46.357422 C 28.451006 46.232304 28.326228 46.05216 28.263672 45.814453 C 28.213628 45.564231 28.189453 45.238246 28.189453 44.837891 L 28.189453 40.408203 L 31.003906 40.408203 C 31.304172 40.408203 31.548659 40.434334 31.736328 40.484375 C 31.936507 40.534391 32.092478 40.633055 32.205078 40.783203 C 32.317678 40.920818 32.392152 41.115004 32.429688 41.365234 C 32.479731 41.615457 32.505859 41.941439 32.505859 42.341797 L 32.955078 42.341797 L 32.955078 37.894531 L 32.505859 37.894531 C 32.505859 38.570139 32.393171 39.025965 32.167969 39.263672 C 31.955279 39.501379 31.573928 39.621094 31.023438 39.621094 L 28.189453 39.621094 L 28.189453 33.859375 L 30.910156 33.859375 C 31.473158 33.859375 31.928985 33.890569 32.279297 33.953125 C 32.629609 34.015681 32.905292 34.12837 33.105469 34.291016 C 33.318158 34.466172 33.469062 34.715726 33.556641 35.041016 C 33.65673 35.353794 33.731206 35.76634 33.78125 36.279297 L 34.175781 36.279297 L 34.175781 33.277344 C 32.762021 33.314877 31.26079 33.333984 29.671875 33.333984 C 28.08296 33.333984 26.538447 33.314877 25.037109 33.277344 z "
     transform="scale(0.26458334)" />
</svg>
