<?xml version="1.0" encoding="UTF-8" standalone="no"?>
<!-- Created with Inkscape (http://www.inkscape.org/) -->

<svg
   width="64"
   height="64"
   viewBox="0 0 16.933333 16.933334"
   version="1.1"
   id="svg5"
   inkscape:version="1.1.1 (3bf5ae0d25, 2021-09-20, custom)"
   sodipodi:docname="text-x-scala.svg"
   xmlns:inkscape="http://www.inkscape.org/namespaces/inkscape"
   xmlns:sodipodi="http://sodipodi.sourceforge.net/DTD/sodipodi-0.dtd"
   xmlns:xlink="http://www.w3.org/1999/xlink"
   xmlns="http://www.w3.org/2000/svg"
   xmlns:svg="http://www.w3.org/2000/svg">
  <sodipodi:namedview
     id="namedview7"
     pagecolor="#ffffff"
     bordercolor="#666666"
     borderopacity="1.0"
     inkscape:pageshadow="2"
     inkscape:pageopacity="0.0"
     inkscape:pagecheckerboard="0"
     inkscape:document-units="px"
     showgrid="false"
     units="px"
     height="64px"
     inkscape:zoom="8.8277862"
     inkscape:cx="18.97418"
     inkscape:cy="30.075491"
     inkscape:window-width="1541"
     inkscape:window-height="947"
     inkscape:window-x="23"
     inkscape:window-y="15"
     inkscape:window-maximized="0"
     inkscape:current-layer="svg5" />
  <defs
     id="defs2">
    <linearGradient
       inkscape:collect="always"
       id="linearGradient2496">
      <stop
         style="stop-color:#740909;stop-opacity:1;"
         offset="0"
         id="stop2492" />
      <stop
         style="stop-color:#b34f0e;stop-opacity:1"
         offset="1"
         id="stop2494" />
    </linearGradient>
    <linearGradient
       inkscape:collect="always"
       id="linearGradient10453">
      <stop
         style="stop-color:#666666;stop-opacity:1"
         offset="0"
         id="stop10449" />
      <stop
         style="stop-color:#666666;stop-opacity:0"
         offset="1"
         id="stop10451" />
    </linearGradient>
    <linearGradient
       inkscape:collect="always"
       id="linearGradient8423">
      <stop
         style="stop-color:#fcfcfc;stop-opacity:1"
         offset="0"
         id="stop8419" />
      <stop
         style="stop-color:#ffffff;stop-opacity:0;"
         offset="1"
         id="stop8421" />
    </linearGradient>
    <linearGradient
       inkscape:collect="always"
       id="linearGradient6263">
      <stop
         style="stop-color:#000000;stop-opacity:1;"
         offset="0"
         id="stop6259" />
      <stop
         style="stop-color:#000000;stop-opacity:0;"
         offset="1"
         id="stop6261" />
    </linearGradient>
    <linearGradient
       inkscape:collect="always"
       id="linearGradient3378">
      <stop
         style="stop-color:#b0b0b0;stop-opacity:1"
         offset="0"
         id="stop3374" />
      <stop
         style="stop-color:#fcfcfc;stop-opacity:1"
         offset="1"
         id="stop3376" />
    </linearGradient>
    <linearGradient
       inkscape:collect="always"
       xlink:href="#linearGradient3378"
       id="linearGradient3380"
       x1="14.942825"
       y1="1.1138821"
       x2="11.503234"
       y2="4.3115072"
       gradientUnits="userSpaceOnUse"
       gradientTransform="translate(-0.5291663,-0.52916667)" />
    <linearGradient
       inkscape:collect="always"
       xlink:href="#linearGradient6263"
       id="linearGradient6265"
       x1="11.90625"
       y1="2.3812501"
       x2="12.170834"
       y2="7.1437502"
       gradientUnits="userSpaceOnUse"
       gradientTransform="translate(-0.52916663,0.52916673)" />
    <linearGradient
       inkscape:collect="always"
       xlink:href="#linearGradient8423"
       id="linearGradient8425"
       x1="13.692527"
       y1="11.622045"
       x2="1.6077259"
       y2="-0.71580184"
       gradientUnits="userSpaceOnUse" />
    <linearGradient
       inkscape:collect="always"
       xlink:href="#linearGradient10453"
       id="linearGradient10455"
       x1="10"
       y1="72.5"
       x2="58"
       y2="32.5"
       gradientUnits="userSpaceOnUse" />
    <linearGradient
       inkscape:collect="always"
       xlink:href="#linearGradient6263"
       id="linearGradient1626"
       x1="19"
       y1="40.183594"
       x2="47"
       y2="22.183594"
       gradientUnits="userSpaceOnUse" />
    <linearGradient
       inkscape:collect="always"
       xlink:href="#linearGradient2496"
       id="linearGradient2498"
       x1="37"
       y1="15"
       x2="37"
       y2="47"
       gradientUnits="userSpaceOnUse" />
  </defs>
  <path
     id="rect1068"
     style="fill:#e5e5e5;fill-opacity:1;stroke-width:0.529167;stroke-linejoin:round"
     d="m 3.175,0.5291667 7.143751,3e-8 3.968749,3.96874997 1e-6,11.3770833 c 0,0.293158 -0.236009,0.529167 -0.529167,0.529167 H 3.175 c -0.2931584,0 -0.5291667,-0.236009 -0.5291667,-0.529167 V 1.0583334 c 0,-0.29315835 0.2360083,-0.5291667 0.5291667,-0.5291667 z"
     sodipodi:nodetypes="cccsssssc" />
  <path
     id="rect8140"
     style="opacity:1;fill:url(#linearGradient8425);fill-opacity:1;stroke-width:0.518136;stroke-linejoin:round"
     d="m 3.175,0.5291668 h 7.143751 l -1e-6,2.9104166 0.79375,1.0583333 3.175,0 V 15.875 c 0,0.295111 -0.236009,0.529167 -0.529167,0.529167 H 3.175 c -0.293159,0 -0.529167,-0.236009 -0.529167,-0.529167 V 1.0583337 c 0,-0.2931589 0.236008,-0.5291669 0.529167,-0.5291669 z"
     sodipodi:nodetypes="sccccssssss" />
  <path
     id="rect9905"
     style="opacity:0.3;fill:url(#linearGradient10455);fill-opacity:1;stroke-width:2;stroke-linejoin:round"
     d="M 10 59 L 10 60 C 10 61.108 10.892 62 12 62 L 52 62 C 53.108 62 54 61.108 54 60 L 54 59 C 54 60.108 53.108 61 52 61 L 12 61 C 10.892 61 10 60.108 10 59 z "
     transform="scale(0.26458334)" />
  <path
     id="rect5598"
     style="opacity:0.2;fill:url(#linearGradient6265);fill-opacity:1;stroke-width:0.529167;stroke-linejoin:round"
     d="M 10.444901,4.3115072 10.31875,3.4395834 14.2875,4.4979167 v 3.7041668 z"
     sodipodi:nodetypes="ccccc" />
  <path
     id="rect2607"
     style="fill:url(#linearGradient3380);fill-opacity:1;stroke-width:0.529167;stroke-linejoin:round"
     d="m 14.2875,4.4979167 -3.439583,-1e-7 c -0.293158,0 -0.529166,-0.2360083 -0.529166,-0.5291667 V 0.52916673 Z"
     sodipodi:nodetypes="csscc" />
  <path
     id="path3031"
     style="font-size:1.67233px;line-height:1.25;font-family:Roboto;-inkscape-font-specification:Roboto;text-align:center;text-anchor:middle;stroke-width:0.158015;fill:#808080"
     d="M 24.212891 51 C 23.760242 51 23.391356 51.117118 23.107422 51.349609 C 22.825545 51.580047 22.685547 51.87072 22.685547 52.224609 C 22.685547 52.537355 22.800812 52.801653 23.03125 53.015625 C 23.263747 53.227538 23.632424 53.406643 24.140625 53.552734 C 24.545952 53.670001 24.826158 53.788758 24.980469 53.910156 C 25.134782 54.029496 25.212891 54.199777 25.212891 54.419922 C 25.212891 54.640067 25.129548 54.813835 24.962891 54.941406 C 24.796234 55.068978 24.55688 55.132813 24.244141 55.132812 C 23.90877 55.132813 23.639135 55.054809 23.4375 54.898438 C 23.237923 54.740012 23.138672 54.523542 23.138672 54.251953 L 22.542969 54.251953 C 22.542969 54.513247 22.613787 54.747368 22.757812 54.953125 C 22.903895 55.158875 23.111432 55.322074 23.378906 55.441406 C 23.64638 55.558698 23.935517 55.617187 24.244141 55.617188 C 24.719422 55.617188 25.098879 55.507166 25.382812 55.289062 C 25.666746 55.068913 25.808594 54.77824 25.808594 54.414062 C 25.808594 54.185686 25.757171 53.987077 25.654297 53.818359 C 25.553479 53.649644 25.395514 53.502459 25.183594 53.376953 C 24.973729 53.249381 24.683057 53.132263 24.308594 53.027344 C 23.936187 52.922399 23.671994 52.807146 23.515625 52.681641 C 23.361314 52.554089 23.283203 52.399928 23.283203 52.216797 C 23.283203 51.988423 23.364801 51.809212 23.527344 51.681641 C 23.691943 51.552028 23.920727 51.488281 24.212891 51.488281 C 24.527686 51.488281 24.770529 51.566285 24.943359 51.722656 C 25.11619 51.876967 25.203125 52.089739 25.203125 52.361328 L 25.798828 52.361328 C 25.798828 52.112371 25.731394 51.88174 25.597656 51.671875 C 25.465977 51.46201 25.279894 51.29902 25.037109 51.179688 C 24.796383 51.060355 24.521515 51 24.212891 51 z M 28.220703 51 C 27.860642 51 27.545131 51.0851 27.271484 51.255859 C 26.997837 51.424572 26.784962 51.66752 26.634766 51.984375 C 26.486626 52.301228 26.412109 52.668267 26.412109 53.085938 L 26.412109 53.517578 C 26.412109 54.155401 26.571714 54.666239 26.890625 55.046875 C 27.211594 55.427511 27.637136 55.617188 28.167969 55.617188 C 28.657652 55.617188 29.051482 55.487656 29.345703 55.230469 C 29.641983 54.971223 29.817495 54.604187 29.873047 54.128906 L 29.277344 54.128906 C 29.219734 54.499255 29.102726 54.759958 28.925781 54.910156 C 28.750894 55.058289 28.497167 55.132812 28.167969 55.132812 C 27.801735 55.132813 27.518144 54.98922 27.314453 54.701172 C 27.110762 54.413124 27.007812 54.024736 27.007812 53.537109 L 27.007812 53.101562 C 27.007812 52.585133 27.116099 52.188022 27.330078 51.908203 C 27.546115 51.628382 27.842124 51.488281 28.220703 51.488281 C 28.529327 51.488281 28.770635 51.568037 28.941406 51.728516 C 29.114236 51.888999 29.225907 52.147855 29.277344 52.505859 L 29.873047 52.505859 C 29.825724 52.034693 29.65719 51.665807 29.369141 51.400391 C 29.081091 51.132916 28.698041 51 28.220703 51 z M 31.960938 51.0625 L 30.246094 55.554688 L 30.857422 55.554688 L 31.279297 54.382812 L 33.162109 54.382812 L 33.591797 55.554688 L 34.199219 55.554688 L 32.480469 51.0625 L 31.960938 51.0625 z M 34.804688 51.0625 L 34.804688 55.554688 L 37.529297 55.554688 L 37.529297 55.070312 L 35.400391 55.070312 L 35.400391 51.0625 L 34.804688 51.0625 z M 39.544922 51.0625 L 37.828125 55.554688 L 38.439453 55.554688 L 38.863281 54.382812 L 40.746094 54.382812 L 41.173828 55.554688 L 41.783203 55.554688 L 40.0625 51.0625 L 39.544922 51.0625 z M 32.220703 51.792969 L 32.986328 53.894531 L 31.458984 53.894531 L 32.220703 51.792969 z M 39.804688 51.792969 L 40.570312 53.894531 L 39.041016 53.894531 L 39.804688 51.792969 z "
     transform="scale(0.26458334)" />
  <text
     xml:space="preserve"
     style="font-size:10.5833px;line-height:1.25;font-family:'Noto Serif';-inkscape-font-specification:'Noto Serif';stroke-width:0.264583"
     x="11.210568"
     y="8.940918"
     id="text80811"><tspan
       sodipodi:role="line"
       id="tspan80809"
       style="stroke-width:0.264583" /></text>
  <path
     id="rect1344"
     style="opacity:1;fill:url(#linearGradient2498);fill-opacity:1;stroke-width:9;stroke-linecap:round;stroke-linejoin:round"
     d="m 43,22 c -11.920999,4.371999 -16.851,4.113 -22,4 v 7 c 7.357,-0.629 14.73,-0.779 22,-4 v -6 z m -1,1.367188 v 0.002 4.923828 c -6.514998,2.732 -13.189,3.061375 -20,3.609375 v -4.896485 c 4.615,0.097 9.78,-0.05067 20,-3.638671 z M 43,33 c -11.920999,4.371999 -16.851,4.112999 -22,4 v 7 c 7.357,-0.629 14.73,-0.779 22,-4 v -6 z m -1,1.367188 v 0.002 4.923828 c -6.514998,2.732001 -13.189,3.061373 -20,3.609375 v -4.896485 c 4.615,0.09698 9.78,-0.05068 20,-3.638671 z"
     transform="scale(0.26458334)" />
  <path
     id="rect1344-2"
     style="opacity:0.3;fill:url(#linearGradient1626);fill-opacity:1;stroke-width:9;stroke-linecap:round;stroke-linejoin:round"
     d="M 42 23.367188 C 41.68912 23.47633 41.383683 23.582681 41.082031 23.685547 C 41.073788 23.688358 41.064877 23.690553 41.056641 23.693359 C 31.249731 27.091516 26.5275 27.11982 22 27.021484 L 22 28.005859 C 26.615 28.102861 31.780001 27.95519 42 24.367188 L 42 23.369141 L 42 23.367188 z M 43 29 C 35.730002 32.221 28.357 32.371 21 33 L 21 34 C 28.357 33.371 35.730002 33.221 43 30 L 43 29 z M 42 34.367188 C 41.68912 34.47633 41.383683 34.582681 41.082031 34.685547 C 41.073788 34.688358 41.064877 34.690553 41.056641 34.693359 C 31.249731 38.091517 26.5275 38.119818 22 38.021484 L 22 39.005859 C 26.615 39.102842 31.780001 38.955176 42 35.367188 L 42 34.369141 L 42 34.367188 z M 43 40 C 35.730002 43.220997 28.357 43.371 21 44 L 21 45 C 28.357 44.371 35.730002 44.220997 43 41 L 43 40 z "
     transform="scale(0.26458334)" />
</svg>
