<?xml version="1.0" encoding="UTF-8" standalone="no"?>
<!-- Created with Inkscape (http://www.inkscape.org/) -->

<svg
   width="64"
   height="64"
   viewBox="0 0 16.933333 16.933334"
   version="1.1"
   id="svg5"
   inkscape:version="1.1.1 (3bf5ae0d25, 2021-09-20, custom)"
   sodipodi:docname="text-x-c++hdr.svg"
   xmlns:inkscape="http://www.inkscape.org/namespaces/inkscape"
   xmlns:sodipodi="http://sodipodi.sourceforge.net/DTD/sodipodi-0.dtd"
   xmlns:xlink="http://www.w3.org/1999/xlink"
   xmlns="http://www.w3.org/2000/svg"
   xmlns:svg="http://www.w3.org/2000/svg">
  <sodipodi:namedview
     id="namedview7"
     pagecolor="#ffffff"
     bordercolor="#666666"
     borderopacity="1.0"
     inkscape:pageshadow="2"
     inkscape:pageopacity="0.0"
     inkscape:pagecheckerboard="0"
     inkscape:document-units="px"
     showgrid="false"
     units="px"
     height="64px"
     inkscape:zoom="4.4138931"
     inkscape:cx="18.690983"
     inkscape:cy="53.694096"
     inkscape:window-width="1541"
     inkscape:window-height="947"
     inkscape:window-x="23"
     inkscape:window-y="15"
     inkscape:window-maximized="0"
     inkscape:current-layer="svg5" />
  <defs
     id="defs2">
    <linearGradient
       inkscape:collect="always"
       id="linearGradient17889">
      <stop
         style="stop-color:#5c2d75;stop-opacity:1"
         offset="0"
         id="stop17885" />
      <stop
         style="stop-color:#9a0dff;stop-opacity:1"
         offset="1"
         id="stop17887" />
    </linearGradient>
    <linearGradient
       inkscape:collect="always"
       id="linearGradient10453">
      <stop
         style="stop-color:#666666;stop-opacity:1"
         offset="0"
         id="stop10449" />
      <stop
         style="stop-color:#666666;stop-opacity:0"
         offset="1"
         id="stop10451" />
    </linearGradient>
    <linearGradient
       inkscape:collect="always"
       id="linearGradient8423">
      <stop
         style="stop-color:#fcfcfc;stop-opacity:1"
         offset="0"
         id="stop8419" />
      <stop
         style="stop-color:#ffffff;stop-opacity:0;"
         offset="1"
         id="stop8421" />
    </linearGradient>
    <linearGradient
       inkscape:collect="always"
       id="linearGradient6263">
      <stop
         style="stop-color:#000000;stop-opacity:1;"
         offset="0"
         id="stop6259" />
      <stop
         style="stop-color:#000000;stop-opacity:0;"
         offset="1"
         id="stop6261" />
    </linearGradient>
    <linearGradient
       inkscape:collect="always"
       id="linearGradient3378">
      <stop
         style="stop-color:#b0b0b0;stop-opacity:1"
         offset="0"
         id="stop3374" />
      <stop
         style="stop-color:#fcfcfc;stop-opacity:1"
         offset="1"
         id="stop3376" />
    </linearGradient>
    <linearGradient
       inkscape:collect="always"
       xlink:href="#linearGradient3378"
       id="linearGradient3380"
       x1="14.942825"
       y1="1.1138821"
       x2="11.503234"
       y2="4.3115072"
       gradientUnits="userSpaceOnUse"
       gradientTransform="translate(-0.5291663,-0.52916667)" />
    <linearGradient
       inkscape:collect="always"
       xlink:href="#linearGradient6263"
       id="linearGradient6265"
       x1="11.90625"
       y1="2.3812501"
       x2="12.170834"
       y2="7.1437502"
       gradientUnits="userSpaceOnUse"
       gradientTransform="translate(-0.52916663,0.52916673)" />
    <linearGradient
       inkscape:collect="always"
       xlink:href="#linearGradient8423"
       id="linearGradient8425"
       x1="13.692527"
       y1="11.622045"
       x2="1.6077259"
       y2="-0.71580184"
       gradientUnits="userSpaceOnUse" />
    <linearGradient
       inkscape:collect="always"
       xlink:href="#linearGradient10453"
       id="linearGradient10455"
       x1="10"
       y1="72.5"
       x2="58"
       y2="32.5"
       gradientUnits="userSpaceOnUse" />
    <linearGradient
       inkscape:collect="always"
       xlink:href="#linearGradient17889"
       id="linearGradient17891"
       x1="5.2916665"
       y1="4.7624993"
       x2="5.2916665"
       y2="12.700002"
       gradientUnits="userSpaceOnUse"
       gradientTransform="scale(3.7795275)" />
    <linearGradient
       inkscape:collect="always"
       xlink:href="#linearGradient6263"
       id="linearGradient18964"
       x1="20"
       y1="50.400391"
       x2="45.509766"
       y2="16.400391"
       gradientUnits="userSpaceOnUse" />
  </defs>
  <path
     id="rect1068"
     style="fill:#e5e5e5;fill-opacity:1;stroke-width:0.529167;stroke-linejoin:round"
     d="m 3.175,0.5291667 7.143751,3e-8 3.968749,3.96874997 1e-6,11.3770833 c 0,0.293158 -0.236009,0.529167 -0.529167,0.529167 H 3.175 c -0.2931584,0 -0.5291667,-0.236009 -0.5291667,-0.529167 V 1.0583334 c 0,-0.29315835 0.2360083,-0.5291667 0.5291667,-0.5291667 z"
     sodipodi:nodetypes="cccsssssc" />
  <path
     id="rect8140"
     style="opacity:1;fill:url(#linearGradient8425);fill-opacity:1;stroke-width:0.518136;stroke-linejoin:round"
     d="m 3.175,0.5291668 h 7.143751 l -1e-6,2.9104166 0.79375,1.0583333 3.175,0 V 15.875 c 0,0.295111 -0.236009,0.529167 -0.529167,0.529167 H 3.175 c -0.293159,0 -0.529167,-0.236009 -0.529167,-0.529167 V 1.0583337 c 0,-0.2931589 0.236008,-0.5291669 0.529167,-0.5291669 z"
     sodipodi:nodetypes="sccccssssss" />
  <path
     id="rect9905"
     style="opacity:0.3;fill:url(#linearGradient10455);fill-opacity:1;stroke-width:2;stroke-linejoin:round"
     d="M 10 59 L 10 60 C 10 61.108 10.892 62 12 62 L 52 62 C 53.108 62 54 61.108 54 60 L 54 59 C 54 60.108 53.108 61 52 61 L 12 61 C 10.892 61 10 60.108 10 59 z "
     transform="scale(0.26458334)" />
  <path
     id="rect5598"
     style="opacity:0.2;fill:url(#linearGradient6265);fill-opacity:1;stroke-width:0.529167;stroke-linejoin:round"
     d="M 10.444901,4.3115072 10.31875,3.4395834 14.2875,4.4979167 v 3.7041668 z"
     sodipodi:nodetypes="ccccc" />
  <path
     id="rect2607"
     style="fill:url(#linearGradient3380);fill-opacity:1;stroke-width:0.529167;stroke-linejoin:round"
     d="m 14.2875,4.4979167 -3.439583,-1e-7 c -0.293158,0 -0.529166,-0.2360083 -0.529166,-0.5291667 V 0.52916673 Z"
     sodipodi:nodetypes="csscc" />
  <text
     xml:space="preserve"
     style="font-style:normal;font-weight:normal;font-size:1.67233px;line-height:1.25;font-family:sans-serif;fill:#000000;fill-opacity:1;stroke:none;stroke-width:0.0418081"
     x="8.4880266"
     y="14.699003"
     id="text3901"><tspan
       sodipodi:role="line"
       id="tspan3899"
       style="font-style:normal;font-variant:normal;font-weight:normal;font-stretch:normal;font-family:Roboto;-inkscape-font-specification:Roboto;text-align:center;text-anchor:middle;stroke-width:0.0418081"
       x="8.4880266"
       y="14.699003">C++HDR</tspan></text>
  <text
     xml:space="preserve"
     style="font-size:10.5833px;line-height:1.25;font-family:'Noto Serif';-inkscape-font-specification:'Noto Serif';stroke-width:0.264583"
     x="11.210568"
     y="8.940918"
     id="text80811"><tspan
       sodipodi:role="line"
       id="tspan80809"
       style="stroke-width:0.264583" /></text>
  <path
     id="path17404"
     style="font-weight:bold;font-size:9.09943px;line-height:1.25;font-family:'나눔스퀘어';-inkscape-font-specification:'나눔스퀘어 Bold';fill:url(#linearGradient17891);fill-opacity:1;stroke-width:0.85979"
     d="M 24 20 L 24 46 L 27.335938 46 L 27.335938 34.341797 C 27.335938 33.60811 27.472914 32.954052 27.748047 32.380859 C 28.046107 31.807667 28.413983 31.337546 28.849609 30.970703 C 29.308163 30.580932 29.813017 30.294749 30.363281 30.111328 C 30.936474 29.904979 31.508839 29.800781 32.082031 29.800781 C 33.480621 29.800781 34.512831 30.156429 35.177734 30.867188 C 35.842638 31.577946 36.173828 32.72463 36.173828 34.306641 L 36.173828 46 L 39.509766 46 L 39.509766 33.550781 C 39.509766 32.427324 39.338055 31.440122 38.994141 30.591797 C 38.650224 29.743472 38.180104 29.044406 37.583984 28.494141 C 36.987864 27.943876 36.288797 27.530992 35.486328 27.255859 C 34.683859 26.980727 33.825311 26.84375 32.908203 26.84375 C 31.624252 26.84375 30.512301 27.072696 29.572266 27.53125 C 28.655158 27.966876 27.90913 28.608706 27.335938 29.457031 L 27.335938 20 L 24 20 z M 32.25 20 L 32.25 22.294922 L 30 22.294922 L 30 23.207031 L 32.25 23.207031 L 32.25 25.652344 L 33.228516 25.652344 L 33.228516 23.207031 L 35.476562 23.207031 L 35.476562 22.294922 L 33.228516 22.294922 L 33.228516 20 L 32.25 20 z M 38.773438 20 L 38.773438 22.294922 L 36.523438 22.294922 L 36.523438 23.207031 L 38.773438 23.207031 L 38.773438 25.652344 L 39.75 25.652344 L 39.75 23.207031 L 42 23.207031 L 42 22.294922 L 39.75 22.294922 L 39.75 20 L 38.773438 20 z "
     transform="scale(0.26458334)" />
  <path
     id="path17404-7"
     style="font-weight:bold;font-size:9.09943px;line-height:1.25;font-family:'나눔스퀘어';-inkscape-font-specification:'나눔스퀘어 Bold';fill:url(#linearGradient18964);fill-opacity:1;stroke-width:0.85979;opacity:0.3"
     d="M 30 23.207031 L 30 24.119141 L 32.25 24.119141 L 32.25 23.207031 L 30 23.207031 z M 33.228516 23.207031 L 33.228516 24.119141 L 35.476562 24.119141 L 35.476562 23.207031 L 33.228516 23.207031 z M 36.523438 23.207031 L 36.523438 24.119141 L 38.773438 24.119141 L 38.773438 23.207031 L 36.523438 23.207031 z M 39.75 23.207031 L 39.75 24.119141 L 42 24.119141 L 42 23.207031 L 39.75 23.207031 z M 32.25 25.652344 L 32.25 26.564453 L 33.228516 26.564453 L 33.228516 25.652344 L 32.25 25.652344 z M 38.773438 25.652344 L 38.773438 26.564453 L 39.75 26.564453 L 39.75 25.652344 L 38.773438 25.652344 z M 32.082031 29.800781 C 31.508839 29.800781 30.936474 29.904979 30.363281 30.111328 C 29.813017 30.294749 29.308163 30.580932 28.849609 30.970703 C 28.413983 31.337546 28.046107 31.807667 27.748047 32.380859 C 27.472914 32.954052 27.335938 33.60811 27.335938 34.341797 L 27.335938 35.341797 C 27.335938 34.60811 27.472914 33.954052 27.748047 33.380859 C 28.046107 32.807667 28.413983 32.337546 28.849609 31.970703 C 29.308163 31.580932 29.813017 31.294749 30.363281 31.111328 C 30.936474 30.904979 31.508839 30.800781 32.082031 30.800781 C 33.480621 30.800781 34.512831 31.156428 35.177734 31.867188 C 35.842638 32.577946 36.173828 33.72463 36.173828 35.306641 L 36.173828 34.306641 C 36.173828 32.72463 35.842639 31.577946 35.177734 30.867188 C 34.512832 30.156428 33.480621 29.800781 32.082031 29.800781 z M 24 46 L 24 47 L 27.335938 47 L 27.335938 46 L 24 46 z M 36.173828 46 L 36.173828 47 L 39.509766 47 L 39.509766 46 L 36.173828 46 z "
     transform="scale(0.26458334)" />
</svg>
