<?xml version="1.0" encoding="UTF-8" standalone="no"?>
<!-- Created with Inkscape (http://www.inkscape.org/) -->

<svg
   width="64"
   height="64"
   viewBox="0 0 16.933333 16.933334"
   version="1.1"
   id="svg5"
   inkscape:version="1.1.1 (3bf5ae0d25, 2021-09-20, custom)"
   sodipodi:docname="text-x-javascript.svg"
   xmlns:inkscape="http://www.inkscape.org/namespaces/inkscape"
   xmlns:sodipodi="http://sodipodi.sourceforge.net/DTD/sodipodi-0.dtd"
   xmlns:xlink="http://www.w3.org/1999/xlink"
   xmlns="http://www.w3.org/2000/svg"
   xmlns:svg="http://www.w3.org/2000/svg">
  <sodipodi:namedview
     id="namedview7"
     pagecolor="#ffffff"
     bordercolor="#666666"
     borderopacity="1.0"
     inkscape:pageshadow="2"
     inkscape:pageopacity="0.0"
     inkscape:pagecheckerboard="0"
     inkscape:document-units="px"
     showgrid="false"
     units="px"
     height="64px"
     inkscape:zoom="4.452563"
     inkscape:cx="49.858924"
     inkscape:cy="40.650744"
     inkscape:window-width="1920"
     inkscape:window-height="1011"
     inkscape:window-x="0"
     inkscape:window-y="0"
     inkscape:window-maximized="1"
     inkscape:current-layer="svg5" />
  <defs
     id="defs2">
    <linearGradient
       inkscape:collect="always"
       id="linearGradient4955">
      <stop
         style="stop-color:#ff7f2a;stop-opacity:1;"
         offset="0"
         id="stop4951" />
      <stop
         style="stop-color:#ffc159;stop-opacity:1"
         offset="1"
         id="stop4953" />
    </linearGradient>
    <linearGradient
       inkscape:collect="always"
       id="linearGradient10453">
      <stop
         style="stop-color:#666666;stop-opacity:1"
         offset="0"
         id="stop10449" />
      <stop
         style="stop-color:#666666;stop-opacity:0"
         offset="1"
         id="stop10451" />
    </linearGradient>
    <linearGradient
       inkscape:collect="always"
       id="linearGradient8423">
      <stop
         style="stop-color:#fcfcfc;stop-opacity:1"
         offset="0"
         id="stop8419" />
      <stop
         style="stop-color:#ffffff;stop-opacity:0;"
         offset="1"
         id="stop8421" />
    </linearGradient>
    <linearGradient
       inkscape:collect="always"
       id="linearGradient6263">
      <stop
         style="stop-color:#000000;stop-opacity:1;"
         offset="0"
         id="stop6259" />
      <stop
         style="stop-color:#000000;stop-opacity:0;"
         offset="1"
         id="stop6261" />
    </linearGradient>
    <linearGradient
       inkscape:collect="always"
       id="linearGradient3378">
      <stop
         style="stop-color:#b0b0b0;stop-opacity:1"
         offset="0"
         id="stop3374" />
      <stop
         style="stop-color:#fcfcfc;stop-opacity:1"
         offset="1"
         id="stop3376" />
    </linearGradient>
    <linearGradient
       inkscape:collect="always"
       xlink:href="#linearGradient3378"
       id="linearGradient3380"
       x1="14.942825"
       y1="1.1138821"
       x2="11.503234"
       y2="4.3115072"
       gradientUnits="userSpaceOnUse"
       gradientTransform="translate(-0.5291663,-0.52916667)" />
    <linearGradient
       inkscape:collect="always"
       xlink:href="#linearGradient6263"
       id="linearGradient6265"
       x1="11.90625"
       y1="2.3812501"
       x2="12.170834"
       y2="7.1437502"
       gradientUnits="userSpaceOnUse"
       gradientTransform="translate(-0.52916663,0.52916673)" />
    <linearGradient
       inkscape:collect="always"
       xlink:href="#linearGradient8423"
       id="linearGradient8425"
       x1="13.692527"
       y1="11.622045"
       x2="1.6077259"
       y2="-0.71580184"
       gradientUnits="userSpaceOnUse" />
    <linearGradient
       inkscape:collect="always"
       xlink:href="#linearGradient10453"
       id="linearGradient10455"
       x1="10"
       y1="72.5"
       x2="58"
       y2="32.5"
       gradientUnits="userSpaceOnUse" />
    <linearGradient
       inkscape:collect="always"
       xlink:href="#linearGradient6263"
       id="linearGradient7694"
       x1="14"
       y1="47.896484"
       x2="52"
       y2="21.896484"
       gradientUnits="userSpaceOnUse" />
    <linearGradient
       inkscape:collect="always"
       xlink:href="#linearGradient4955"
       id="linearGradient8052"
       x1="26"
       y1="22.177734"
       x2="26"
       y2="44.177734"
       gradientUnits="userSpaceOnUse" />
  </defs>
  <path
     id="rect1068"
     style="fill:#e5e5e5;fill-opacity:1;stroke-width:0.529167;stroke-linejoin:round"
     d="m 3.175,0.5291667 7.143751,3e-8 3.968749,3.96874997 1e-6,11.3770833 c 0,0.293158 -0.236009,0.529167 -0.529167,0.529167 H 3.175 c -0.2931584,0 -0.5291667,-0.236009 -0.5291667,-0.529167 V 1.0583334 c 0,-0.29315835 0.2360083,-0.5291667 0.5291667,-0.5291667 z"
     sodipodi:nodetypes="cccsssssc" />
  <path
     id="rect8140"
     style="opacity:1;fill:url(#linearGradient8425);fill-opacity:1;stroke-width:0.518136;stroke-linejoin:round"
     d="m 3.175,0.5291668 h 7.143751 l -1e-6,2.9104166 0.79375,1.0583333 3.175,0 V 15.875 c 0,0.295111 -0.236009,0.529167 -0.529167,0.529167 H 3.175 c -0.293159,0 -0.529167,-0.236009 -0.529167,-0.529167 V 1.0583337 c 0,-0.2931589 0.236008,-0.5291669 0.529167,-0.5291669 z"
     sodipodi:nodetypes="sccccssssss" />
  <path
     id="rect9905"
     style="opacity:0.3;fill:url(#linearGradient10455);fill-opacity:1;stroke-width:2;stroke-linejoin:round"
     d="M 10 59 L 10 60 C 10 61.108 10.892 62 12 62 L 52 62 C 53.108 62 54 61.108 54 60 L 54 59 C 54 60.108 53.108 61 52 61 L 12 61 C 10.892 61 10 60.108 10 59 z "
     transform="scale(0.26458334)" />
  <path
     id="rect5598"
     style="opacity:0.2;fill:url(#linearGradient6265);fill-opacity:1;stroke-width:0.529167;stroke-linejoin:round"
     d="M 10.444901,4.3115072 10.31875,3.4395834 14.2875,4.4979167 v 3.7041668 z"
     sodipodi:nodetypes="ccccc" />
  <path
     id="rect2607"
     style="fill:url(#linearGradient3380);fill-opacity:1;stroke-width:0.529167;stroke-linejoin:round"
     d="m 14.2875,4.4979167 -3.439583,-1e-7 c -0.293158,0 -0.529166,-0.2360083 -0.529166,-0.5291667 V 0.52916673 Z"
     sodipodi:nodetypes="csscc" />
  <path
     id="path6116"
     style="font-size:1.67233px;line-height:1.25;font-family:Roboto;-inkscape-font-specification:Roboto;stroke-width:0.158015;fill:#808080"
     d="M 31.007812 51 C 30.555164 51 30.188231 51.117118 29.904297 51.349609 C 29.62242 51.580047 29.480469 51.87072 29.480469 52.224609 C 29.480469 52.537355 29.595732 52.801653 29.826172 53.015625 C 30.058669 53.227538 30.429299 53.406643 30.9375 53.552734 C 31.342825 53.670001 31.623031 53.788758 31.777344 53.910156 C 31.931657 54.029496 32.007812 54.199777 32.007812 54.419922 C 32.007812 54.640067 31.92447 54.813835 31.757812 54.941406 C 31.591155 55.068978 31.351801 55.132813 31.039062 55.132812 C 30.703692 55.132813 30.43601 55.054809 30.234375 54.898438 C 30.034798 54.740012 29.933594 54.523542 29.933594 54.251953 L 29.337891 54.251953 C 29.337891 54.513247 29.410662 54.747368 29.554688 54.953125 C 29.70077 55.158875 29.908307 55.322074 30.175781 55.441406 C 30.443255 55.558698 30.730438 55.617187 31.039062 55.617188 C 31.514343 55.617188 31.8938 55.507166 32.177734 55.289062 C 32.461668 55.068913 32.603516 54.77824 32.603516 54.414062 C 32.603516 54.185686 32.552092 53.987077 32.449219 53.818359 C 32.348401 53.649644 32.192389 53.502459 31.980469 53.376953 C 31.770604 53.249381 31.477979 53.132263 31.103516 53.027344 C 30.731109 52.922399 30.466916 52.807146 30.310547 52.681641 C 30.156236 52.554089 30.080078 52.399928 30.080078 52.216797 C 30.080078 51.988423 30.159723 51.809212 30.322266 51.681641 C 30.486865 51.552028 30.715648 51.488281 31.007812 51.488281 C 31.322608 51.488281 31.567404 51.566285 31.740234 51.722656 C 31.913065 51.876967 31.998047 52.089739 31.998047 52.361328 L 32.59375 52.361328 C 32.59375 52.112371 32.528269 51.88174 32.394531 51.671875 C 32.262852 51.46201 32.074815 51.29902 31.832031 51.179688 C 31.591305 51.060355 31.316436 51 31.007812 51 z M 35.017578 51 C 34.657517 51 34.340053 51.0851 34.066406 51.255859 C 33.792759 51.424572 33.581837 51.66752 33.431641 51.984375 C 33.283501 52.301228 33.208984 52.668267 33.208984 53.085938 L 33.208984 53.517578 C 33.208984 54.155401 33.368589 54.666239 33.6875 55.046875 C 34.008469 55.427511 34.434011 55.617188 34.964844 55.617188 C 35.454527 55.617188 35.846404 55.487656 36.140625 55.230469 C 36.436905 54.971223 36.612417 54.604187 36.667969 54.128906 L 36.072266 54.128906 C 36.014656 54.499255 35.897648 54.759958 35.720703 54.910156 C 35.545816 55.058289 35.294043 55.132812 34.964844 55.132812 C 34.59861 55.132813 34.313066 54.98922 34.109375 54.701172 C 33.905684 54.413124 33.804688 54.024736 33.804688 53.537109 L 33.804688 53.101562 C 33.804688 52.585133 33.911021 52.188022 34.125 51.908203 C 34.341037 51.628382 34.638999 51.488281 35.017578 51.488281 C 35.326202 51.488281 35.565556 51.568037 35.736328 51.728516 C 35.909158 51.888999 36.020829 52.147855 36.072266 52.505859 L 36.667969 52.505859 C 36.620647 52.034693 36.454065 51.665807 36.166016 51.400391 C 35.877967 51.132916 35.494916 51 35.017578 51 z M 16.240234 51.0625 L 16.240234 54.251953 C 16.238176 54.529721 16.16202 54.746085 16.009766 54.900391 C 15.859567 55.054696 15.660856 55.132812 15.416016 55.132812 C 15.148541 55.132813 14.944701 55.060041 14.802734 54.916016 C 14.662824 54.77199 14.591797 54.57164 14.591797 54.314453 L 14 54.314453 C 14 54.72595 14.124089 55.047006 14.373047 55.275391 C 14.622004 55.503775 14.96954 55.617188 15.416016 55.617188 C 15.846032 55.617188 16.190079 55.494725 16.447266 55.251953 C 16.70651 55.009169 16.835938 54.674158 16.835938 54.244141 L 16.835938 51.0625 L 16.240234 51.0625 z M 19.126953 51.0625 L 17.410156 55.554688 L 18.021484 55.554688 L 18.443359 54.382812 L 20.326172 54.382812 L 20.755859 55.554688 L 21.363281 55.554688 L 19.644531 51.0625 L 19.126953 51.0625 z M 21.265625 51.0625 L 22.927734 55.554688 L 23.453125 55.554688 L 25.119141 51.0625 L 24.470703 51.0625 L 23.1875 54.767578 L 21.910156 51.0625 L 21.265625 51.0625 z M 26.771484 51.0625 L 25.054688 55.554688 L 25.666016 55.554688 L 26.087891 54.382812 L 27.970703 54.382812 L 28.400391 55.554688 L 29.007812 55.554688 L 27.289062 51.0625 L 26.771484 51.0625 z M 37.474609 51.0625 L 37.474609 55.554688 L 38.070312 55.554688 L 38.070312 53.738281 L 39.125 53.738281 L 40.099609 55.554688 L 40.736328 55.554688 L 40.736328 55.517578 L 39.679688 53.611328 C 39.949218 53.508444 40.160348 53.35233 40.310547 53.144531 C 40.462811 52.936725 40.539062 52.693881 40.539062 52.414062 C 40.539062 51.973745 40.402554 51.638628 40.128906 51.408203 C 39.857317 51.177753 39.467079 51.0625 38.960938 51.0625 L 37.474609 51.0625 z M 41.412109 51.0625 L 41.412109 55.554688 L 42.003906 55.554688 L 42.003906 51.0625 L 41.412109 51.0625 z M 43.087891 51.0625 L 43.087891 55.554688 L 43.679688 55.554688 L 43.679688 53.796875 L 44.738281 53.796875 C 45.246482 53.796875 45.636614 53.677917 45.908203 53.443359 C 46.181848 53.206748 46.318359 52.871735 46.318359 52.435547 C 46.318359 52.021986 46.178256 51.688511 45.898438 51.4375 C 45.620678 51.186489 45.235882 51.0625 44.744141 51.0625 L 43.087891 51.0625 z M 46.705078 51.0625 L 46.705078 51.548828 L 48.146484 51.548828 L 48.146484 55.554688 L 48.736328 55.554688 L 48.736328 51.548828 L 50.179688 51.548828 L 50.179688 51.0625 L 46.705078 51.0625 z M 38.070312 51.548828 L 38.976562 51.548828 C 39.289291 51.550894 39.528748 51.627258 39.693359 51.775391 C 39.860011 51.92353 39.943359 52.1363 39.943359 52.414062 C 39.943359 52.669181 39.854579 52.873126 39.679688 53.025391 C 39.506857 53.177655 39.27469 53.253906 38.980469 53.253906 L 38.070312 53.253906 L 38.070312 51.548828 z M 43.679688 51.548828 L 44.779297 51.548828 C 45.073515 51.555001 45.303938 51.638349 45.472656 51.798828 C 45.641374 51.959312 45.726562 52.173932 45.726562 52.441406 C 45.726562 52.723281 45.641374 52.939645 45.472656 53.089844 C 45.303941 53.237976 45.060994 53.3125 44.744141 53.3125 L 43.679688 53.3125 L 43.679688 51.548828 z M 19.384766 51.792969 L 20.150391 53.894531 L 18.623047 53.894531 L 19.384766 51.792969 z M 27.029297 51.792969 L 27.794922 53.894531 L 26.267578 53.894531 L 27.029297 51.792969 z "
     transform="scale(0.26458334)" />
  <path
     id="path7436"
     style="font-weight:bold;font-size:7.24886px;line-height:1.25;font-family:'나눔스퀘어';-inkscape-font-specification:'나눔스퀘어 Bold';stroke-width:0.68493;fill-opacity:1;fill:url(#linearGradient8052)"
     d="M 39.123047 24 C 37.990626 24 36.995167 24.154341 36.136719 24.464844 C 35.296536 24.757081 34.593554 25.151381 34.027344 25.644531 C 33.461134 26.137682 33.041551 26.702527 32.767578 27.341797 C 32.493605 27.962801 32.355469 28.61131 32.355469 29.287109 L 32.355469 29.78125 C 32.355469 30.676228 32.520842 31.433683 32.849609 32.054688 C 33.196641 32.657427 33.661619 33.169752 34.246094 33.589844 C 34.830569 33.99167 35.524472 34.329543 36.328125 34.603516 C 37.131778 34.859223 38.000133 35.086196 38.931641 35.287109 C 39.735294 35.451493 40.411041 35.644103 40.958984 35.863281 C 41.50693 36.064195 41.953748 36.29312 42.300781 36.548828 C 42.647812 36.804536 42.894894 37.095061 43.041016 37.423828 C 43.187132 37.752595 43.259766 38.137815 43.259766 38.576172 L 43.259766 39.013672 C 43.259766 39.79906 42.903736 40.474805 42.191406 41.041016 C 41.497341 41.607227 40.447408 41.890625 39.041016 41.890625 C 38.620926 41.890625 38.155949 41.836144 37.644531 41.726562 C 37.151381 41.616976 36.657213 41.469761 36.164062 41.287109 C 35.670912 41.086195 35.187777 40.859223 34.712891 40.603516 C 34.238005 40.347808 33.816469 40.082567 33.451172 39.808594 L 32.082031 42.027344 C 32.903949 42.684878 33.899409 43.233518 35.068359 43.671875 C 36.255574 44.128495 37.552589 44.355469 38.958984 44.355469 C 39.96355 44.355469 40.89546 44.23743 41.753906 44 C 42.630621 43.780823 43.378996 43.44295 44 42.986328 C 44.621004 42.511443 45.104138 41.935565 45.451172 41.259766 C 45.816468 40.583966 46 39.790195 46 38.876953 L 46 38.382812 C 46 37.707013 45.891062 37.087694 45.671875 36.521484 C 45.470963 35.955274 45.12401 35.442949 44.630859 34.986328 C 44.137707 34.529707 43.480119 34.128282 42.658203 33.78125 C 41.85455 33.415953 40.840933 33.096238 39.617188 32.822266 C 38.886595 32.657883 38.238087 32.492509 37.671875 32.328125 C 37.105665 32.145476 36.629655 31.936661 36.246094 31.699219 C 35.862531 31.461776 35.570053 31.187456 35.369141 30.876953 C 35.168226 30.548186 35.068359 30.15584 35.068359 29.699219 L 35.068359 29.259766 C 35.068359 28.474377 35.433469 27.807711 36.164062 27.259766 C 36.912921 26.71182 37.908381 26.4375 39.150391 26.4375 C 40.063633 26.4375 40.895673 26.548401 41.644531 26.767578 C 42.393389 26.986756 43.132686 27.342787 43.863281 27.835938 L 45.150391 25.726562 C 44.310207 25.160352 43.396457 24.729737 42.410156 24.4375 C 41.423856 24.145262 40.328527 24 39.123047 24 z M 25.589844 24.300781 L 25.589844 38.054688 C 25.589844 39.424552 25.351839 40.401854 24.876953 40.986328 C 24.420332 41.552539 23.681034 41.835938 22.658203 41.835938 C 22.018934 41.835938 21.443056 41.745152 20.931641 41.5625 C 20.420225 41.379853 19.871584 41.060138 19.287109 40.603516 L 18 42.740234 C 18.63927 43.306445 19.378567 43.716946 20.21875 43.972656 C 21.077198 44.228364 21.863843 44.355469 22.576172 44.355469 C 23.39809 44.355469 24.155545 44.264683 24.849609 44.082031 C 25.543673 43.899384 26.146787 43.588748 26.658203 43.150391 C 27.169619 42.693771 27.571044 42.099736 27.863281 41.369141 C 28.155519 40.638548 28.300781 39.726751 28.300781 38.630859 L 28.300781 24.300781 L 25.589844 24.300781 z "
     transform="scale(0.26458334)" />
  <path
     id="path7436-3"
     style="font-weight:bold;font-size:7.24886px;line-height:1.25;font-family:'나눔스퀘어';-inkscape-font-specification:'나눔스퀘어 Bold';opacity:0.3;stroke-width:0.68493;fill-opacity:1;fill:url(#linearGradient7694)"
     d="m 39.150391,26.4375 c -1.242014,0 -2.237472,0.27432 -2.986329,0.822266 -0.730601,0.547945 -1.095703,1.214611 -1.095703,2 v 0.439453 c 0,0.100397 0.006,0.196826 0.01563,0.291015 0.07513,-0.669514 0.434545,-1.246323 1.080078,-1.730468 0.748857,-0.547946 1.744315,-0.822266 2.986329,-0.822266 0.913239,0 1.74528,0.110903 2.49414,0.330078 0.748857,0.219179 1.488156,0.575208 2.21875,1.06836 l 1.28711,-2.109376 c -0.144547,-0.09741 -0.29251,-0.187972 -0.441407,-0.277343 l -0.845703,1.386719 C 43.132687,27.342786 42.393388,26.986757 41.644531,26.767578 40.895671,26.548403 40.06363,26.4375 39.150391,26.4375 Z m -6.789063,3.597656 c -0.0043,0.08362 -0.0059,0.167479 -0.0059,0.251953 v 0.494141 c 0,0.894978 0.165374,1.652432 0.49414,2.273438 0.347033,0.602739 0.81201,1.115064 1.396485,1.535156 0.584475,0.401826 1.278379,0.7397 2.082031,1.013672 0.803652,0.255722 1.672009,0.482677 2.603516,0.683593 0.803652,0.164372 1.479403,0.356979 2.027343,0.576172 0.547949,0.20092 0.994765,0.429839 1.341797,0.685547 0.347036,0.255723 0.594114,0.546234 0.740235,0.875 0.109587,0.246586 0.177798,0.525302 0.205078,0.833984 0.0079,-0.08029 0.01367,-0.161419 0.01367,-0.24414 v -0.4375 c 0,-0.438357 -0.07263,-0.823563 -0.21875,-1.152344 -0.146121,-0.328766 -0.393199,-0.619277 -0.740235,-0.875 C 41.953706,36.29312 41.50689,36.064201 40.958941,35.863281 40.411001,35.644088 39.73525,35.451481 38.931598,35.287109 38.000091,35.086193 37.131734,34.859238 36.328082,34.603516 35.52443,34.329544 34.830524,33.99167 34.246051,33.589844 33.661573,33.169752 33.196603,32.657427 32.849566,32.054688 32.552395,31.493394 32.39001,30.820185 32.361285,30.035156 Z m -4.060547,8.595703 c 0,1.095893 -0.145263,2.007688 -0.4375,2.738282 -0.292237,0.730594 -0.693662,1.32463 -1.205078,1.78125 -0.511416,0.438357 -1.11453,0.748976 -1.808594,0.93164 -0.694064,0.182665 -1.451519,0.273438 -2.273437,0.273438 -0.712329,0 -1.498974,-0.12709 -2.357422,-0.382813 -0.66808,-0.203331 -1.271564,-0.506714 -1.8125,-0.90625 L 18,43.740234 c 0.63927,0.566211 1.378567,0.976711 2.21875,1.232422 0.858448,0.255723 1.645093,0.382813 2.357422,0.382813 0.821918,0 1.579373,-0.09077 2.273437,-0.273438 0.694064,-0.182664 1.297178,-0.493283 1.808594,-0.93164 0.511416,-0.45662 0.912841,-1.050656 1.205078,-1.78125 0.292237,-0.730594 0.4375,-1.642389 0.4375,-2.738282 z m 17.69336,0.501953 c -0.0316,0.805728 -0.212455,1.515493 -0.542969,2.126954 C 45.104139,41.935564 44.621007,42.511442 44,42.986328 43.378997,43.442948 42.630624,43.780825 41.753906,44 c -0.858444,0.23743 -1.790357,0.355469 -2.794922,0.355469 -1.406394,0 -2.703411,-0.226974 -3.890625,-0.683594 -0.976206,-0.366079 -1.830266,-0.80903 -2.564453,-1.328125 l -0.421875,0.683594 c 0.821918,0.657532 1.817378,1.206174 2.986328,1.644531 1.187214,0.45662 2.48423,0.683594 3.890625,0.683594 1.004565,0 1.936478,-0.118039 2.794922,-0.355469 C 42.630624,44.780825 43.378997,44.442948 44,43.986328 44.621007,43.511442 45.104139,42.935564 45.451172,42.259766 45.816463,41.583967 46,40.790193 46,39.876953 v -0.494141 c 0,-0.08447 -0.0025,-0.167283 -0.0059,-0.25 z"
     transform="scale(0.26458334)" />
</svg>
