<?xml version="1.0" encoding="UTF-8" standalone="no"?>
<!-- Created with Inkscape (http://www.inkscape.org/) -->

<svg
   width="64"
   height="64"
   viewBox="0 0 16.933333 16.933334"
   version="1.1"
   id="svg5"
   inkscape:version="1.1.1 (3bf5ae0d25, 2021-09-20, custom)"
   sodipodi:docname="text-x-cpp.svg"
   xmlns:inkscape="http://www.inkscape.org/namespaces/inkscape"
   xmlns:sodipodi="http://sodipodi.sourceforge.net/DTD/sodipodi-0.dtd"
   xmlns:xlink="http://www.w3.org/1999/xlink"
   xmlns="http://www.w3.org/2000/svg"
   xmlns:svg="http://www.w3.org/2000/svg">
  <sodipodi:namedview
     id="namedview7"
     pagecolor="#ffffff"
     bordercolor="#666666"
     borderopacity="1.0"
     inkscape:pageshadow="2"
     inkscape:pageopacity="0.0"
     inkscape:pagecheckerboard="0"
     inkscape:document-units="px"
     showgrid="false"
     units="px"
     height="64px"
     inkscape:zoom="10.015625"
     inkscape:cx="12.929797"
     inkscape:cy="45.478939"
     inkscape:window-width="1541"
     inkscape:window-height="947"
     inkscape:window-x="23"
     inkscape:window-y="15"
     inkscape:window-maximized="0"
     inkscape:current-layer="svg5" />
  <defs
     id="defs2">
    <linearGradient
       inkscape:collect="always"
       id="linearGradient8556">
      <stop
         style="stop-color:#1cc4b4;stop-opacity:1;"
         offset="0"
         id="stop8552" />
      <stop
         style="stop-color:#0c877d;stop-opacity:0.99607843"
         offset="1"
         id="stop8554" />
    </linearGradient>
    <linearGradient
       inkscape:collect="always"
       id="linearGradient10453">
      <stop
         style="stop-color:#666666;stop-opacity:1"
         offset="0"
         id="stop10449" />
      <stop
         style="stop-color:#666666;stop-opacity:0"
         offset="1"
         id="stop10451" />
    </linearGradient>
    <linearGradient
       inkscape:collect="always"
       id="linearGradient8423">
      <stop
         style="stop-color:#fcfcfc;stop-opacity:1"
         offset="0"
         id="stop8419" />
      <stop
         style="stop-color:#ffffff;stop-opacity:0;"
         offset="1"
         id="stop8421" />
    </linearGradient>
    <linearGradient
       inkscape:collect="always"
       id="linearGradient6263">
      <stop
         style="stop-color:#000000;stop-opacity:1;"
         offset="0"
         id="stop6259" />
      <stop
         style="stop-color:#000000;stop-opacity:0;"
         offset="1"
         id="stop6261" />
    </linearGradient>
    <linearGradient
       inkscape:collect="always"
       id="linearGradient3378">
      <stop
         style="stop-color:#b0b0b0;stop-opacity:1"
         offset="0"
         id="stop3374" />
      <stop
         style="stop-color:#fcfcfc;stop-opacity:1"
         offset="1"
         id="stop3376" />
    </linearGradient>
    <linearGradient
       inkscape:collect="always"
       xlink:href="#linearGradient3378"
       id="linearGradient3380"
       x1="14.942825"
       y1="1.1138821"
       x2="11.503234"
       y2="4.3115072"
       gradientUnits="userSpaceOnUse"
       gradientTransform="translate(-0.5291663,-0.52916667)" />
    <linearGradient
       inkscape:collect="always"
       xlink:href="#linearGradient6263"
       id="linearGradient6265"
       x1="11.90625"
       y1="2.3812501"
       x2="12.170834"
       y2="7.1437502"
       gradientUnits="userSpaceOnUse"
       gradientTransform="translate(-0.52916663,0.52916673)" />
    <linearGradient
       inkscape:collect="always"
       xlink:href="#linearGradient8423"
       id="linearGradient8425"
       x1="13.692527"
       y1="11.622045"
       x2="1.6077259"
       y2="-0.71580184"
       gradientUnits="userSpaceOnUse" />
    <linearGradient
       inkscape:collect="always"
       xlink:href="#linearGradient10453"
       id="linearGradient10455"
       x1="10"
       y1="72.5"
       x2="58"
       y2="32.5"
       gradientUnits="userSpaceOnUse" />
    <linearGradient
       inkscape:collect="always"
       xlink:href="#linearGradient8556"
       id="linearGradient8558"
       x1="36"
       y1="43.992188"
       x2="36"
       y2="25.992188"
       gradientUnits="userSpaceOnUse" />
    <linearGradient
       inkscape:collect="always"
       xlink:href="#linearGradient6263"
       id="linearGradient8852"
       x1="14"
       y1="45.234375"
       x2="52"
       y2="19.234375"
       gradientUnits="userSpaceOnUse" />
  </defs>
  <path
     id="rect1068"
     style="fill:#e5e5e5;fill-opacity:1;stroke-width:0.529167;stroke-linejoin:round"
     d="m 3.175,0.5291667 7.143751,3e-8 3.968749,3.96874997 1e-6,11.3770833 c 0,0.293158 -0.236009,0.529167 -0.529167,0.529167 H 3.175 c -0.2931584,0 -0.5291667,-0.236009 -0.5291667,-0.529167 V 1.0583334 c 0,-0.29315835 0.2360083,-0.5291667 0.5291667,-0.5291667 z"
     sodipodi:nodetypes="cccsssssc" />
  <path
     id="rect8140"
     style="opacity:1;fill:url(#linearGradient8425);fill-opacity:1;stroke-width:0.518136;stroke-linejoin:round"
     d="m 3.175,0.5291668 h 7.143751 l -1e-6,2.9104166 0.79375,1.0583333 3.175,0 V 15.875 c 0,0.295111 -0.236009,0.529167 -0.529167,0.529167 H 3.175 c -0.293159,0 -0.529167,-0.236009 -0.529167,-0.529167 V 1.0583337 c 0,-0.2931589 0.236008,-0.5291669 0.529167,-0.5291669 z"
     sodipodi:nodetypes="sccccssssss" />
  <path
     id="rect9905"
     style="opacity:0.3;fill:url(#linearGradient10455);fill-opacity:1;stroke-width:2;stroke-linejoin:round"
     d="M 10 59 L 10 60 C 10 61.108 10.892 62 12 62 L 52 62 C 53.108 62 54 61.108 54 60 L 54 59 C 54 60.108 53.108 61 52 61 L 12 61 C 10.892 61 10 60.108 10 59 z "
     transform="scale(0.26458334)" />
  <path
     id="rect5598"
     style="opacity:0.2;fill:url(#linearGradient6265);fill-opacity:1;stroke-width:0.529167;stroke-linejoin:round"
     d="M 10.444901,4.3115072 10.31875,3.4395834 14.2875,4.4979167 v 3.7041668 z"
     sodipodi:nodetypes="ccccc" />
  <path
     id="rect2607"
     style="fill:url(#linearGradient3380);fill-opacity:1;stroke-width:0.529167;stroke-linejoin:round"
     d="m 14.2875,4.4979167 -3.439583,-1e-7 c -0.293158,0 -0.529166,-0.2360083 -0.529166,-0.5291667 V 0.52916673 Z"
     sodipodi:nodetypes="csscc" />
  <path
     id="path5732"
     style="font-size:1.67233px;line-height:1.25;font-family:Roboto;-inkscape-font-specification:Roboto;text-align:center;text-anchor:middle;stroke-width:0.158015;fill:#808080"
     d="M 28.617188 51 C 28.257126 51 27.939662 51.0851 27.666016 51.255859 C 27.392368 51.424572 27.179493 51.66752 27.029297 51.984375 C 26.881157 52.301228 26.808594 52.668267 26.808594 53.085938 L 26.808594 53.517578 C 26.808594 54.155401 26.968198 54.666239 27.287109 55.046875 C 27.608078 55.427511 28.03362 55.617188 28.564453 55.617188 C 29.054136 55.617188 29.446013 55.487656 29.740234 55.230469 C 30.036514 54.971223 30.212027 54.604187 30.267578 54.128906 L 29.671875 54.128906 C 29.614265 54.499255 29.497257 54.759958 29.320312 54.910156 C 29.145426 55.058289 28.893652 55.132812 28.564453 55.132812 C 28.198219 55.132813 27.912676 54.98922 27.708984 54.701172 C 27.505293 54.413124 27.404297 54.024736 27.404297 53.537109 L 27.404297 53.101562 C 27.404297 52.585133 27.51063 52.188022 27.724609 51.908203 C 27.940646 51.628382 28.238609 51.488281 28.617188 51.488281 C 28.925812 51.488281 29.165166 51.568037 29.335938 51.728516 C 29.508768 51.888999 29.620438 52.147855 29.671875 52.505859 L 30.267578 52.505859 C 30.220256 52.034693 30.051721 51.665807 29.763672 51.400391 C 29.475623 51.132916 29.094526 51 28.617188 51 z M 32.048828 51.833984 L 32.048828 53.144531 L 30.794922 53.144531 L 30.794922 53.685547 L 32.048828 53.685547 L 32.048828 55.105469 L 32.623047 55.105469 L 32.623047 53.685547 L 33.875 53.685547 L 33.875 53.144531 L 32.623047 53.144531 L 32.623047 51.833984 L 32.048828 51.833984 z M 35.630859 51.833984 L 35.630859 53.144531 L 34.378906 53.144531 L 34.378906 53.685547 L 35.630859 53.685547 L 35.630859 55.105469 L 36.205078 55.105469 L 36.205078 53.685547 L 37.458984 53.685547 L 37.458984 53.144531 L 36.205078 53.144531 L 36.205078 51.833984 L 35.630859 51.833984 z "
     transform="scale(0.26458334)" />
  <path
     id="path7478"
     style="font-weight:bold;font-size:4.26747px;line-height:1.25;font-family:'나눔스퀘어';-inkscape-font-specification:'나눔스퀘어 Bold';stroke-width:0.403226;fill:url(#linearGradient8558);fill-opacity:1"
     d="M 22.662109 28 C 21.973938 28 21.34333 28.107213 20.773438 28.322266 C 20.203545 28.537319 19.71037 28.860908 19.291016 29.291016 C 18.882414 29.721123 18.563697 30.252311 18.337891 30.886719 C 18.112084 31.521127 18 32.26382 18 33.113281 L 18 34.871094 C 18 35.731308 18.112085 36.478873 18.337891 37.113281 C 18.563697 37.74769 18.882414 38.278877 19.291016 38.708984 C 19.699617 39.13909 20.18792 39.457808 20.757812 39.662109 C 21.327705 39.877164 21.963185 39.984375 22.662109 39.984375 C 23.447055 39.984375 24.182922 39.877164 24.871094 39.662109 C 25.559265 39.447057 26.192793 39.059138 26.773438 38.5 L 25.902344 37.273438 C 25.418473 37.746553 24.89703 38.070143 24.337891 38.242188 C 23.778751 38.414232 23.221249 38.5 22.662109 38.5 C 22.221249 38.5 21.811891 38.423963 21.435547 38.273438 C 21.069956 38.122899 20.746367 37.891904 20.466797 37.580078 C 20.197981 37.26825 19.988429 36.870589 19.837891 36.386719 C 19.687355 35.902848 19.613281 35.328776 19.613281 34.662109 L 19.613281 33.322266 C 19.613281 32.6556 19.687355 32.081527 19.837891 31.597656 C 19.988428 31.113786 20.19798 30.714171 20.466797 30.402344 C 20.746367 30.090517 21.069956 29.859523 21.435547 29.708984 C 21.811891 29.558446 22.221249 29.484375 22.662109 29.484375 C 23.188991 29.484375 23.688991 29.553575 24.162109 29.693359 C 24.64598 29.833144 25.150853 30.11872 25.677734 30.548828 L 26.5 29.242188 C 25.951613 28.812082 25.375588 28.50019 24.773438 28.306641 C 24.171287 28.10234 23.46856 28 22.662109 28 z M 31.533203 30.177734 L 31.533203 33.580078 L 28.193359 33.580078 L 28.193359 34.935547 L 31.533203 34.935547 L 31.533203 38.564453 L 32.984375 38.564453 L 32.984375 34.935547 L 36.322266 34.935547 L 36.322266 33.580078 L 32.984375 33.580078 L 32.984375 30.177734 L 31.533203 30.177734 z M 41.208984 30.177734 L 41.208984 33.580078 L 37.871094 33.580078 L 37.871094 34.935547 L 41.208984 34.935547 L 41.208984 38.564453 L 42.662109 38.564453 L 42.662109 34.935547 L 46 34.935547 L 46 33.580078 L 42.662109 33.580078 L 42.662109 30.177734 L 41.208984 30.177734 z "
     transform="scale(0.26458334)" />
  <path
     id="path7478-3"
     style="font-weight:bold;font-size:4.26747px;line-height:1.25;font-family:'나눔스퀘어';-inkscape-font-specification:'나눔스퀘어 Bold';opacity:0.3;stroke-width:0.403226;fill-opacity:1;fill:url(#linearGradient8852)"
     d="M 22.662109 29.484375 C 22.221246 29.484375 21.811874 29.558446 21.435547 29.708984 C 21.069957 29.859523 20.746369 30.090518 20.466797 30.402344 C 20.197967 30.714171 19.988429 31.113786 19.837891 31.597656 C 19.687352 32.081527 19.613281 32.655602 19.613281 33.322266 L 19.613281 34.322266 C 19.613281 33.6556 19.687352 33.081527 19.837891 32.597656 C 19.988429 32.113786 20.197981 31.714171 20.466797 31.402344 C 20.746369 31.090518 21.069956 30.859523 21.435547 30.708984 C 21.81189 30.558446 22.221249 30.484375 22.662109 30.484375 C 23.188991 30.484375 23.688991 30.553574 24.162109 30.693359 C 24.64598 30.833145 25.150853 31.11872 25.677734 31.548828 L 26.5 30.242188 C 26.357134 30.130136 26.212997 30.02569 26.066406 29.929688 L 25.677734 30.548828 C 25.150853 30.11872 24.64598 29.833145 24.162109 29.693359 C 23.688992 29.553574 23.188991 29.484375 22.662109 29.484375 z M 18 34.871094 L 18 35.871094 C 18 36.731308 18.112087 37.478873 18.337891 38.113281 C 18.563695 38.74769 18.882414 39.278878 19.291016 39.708984 C 19.699617 40.139091 20.187921 40.457811 20.757812 40.662109 C 21.327706 40.877164 21.963185 40.984375 22.662109 40.984375 C 23.447055 40.984375 24.182922 40.877164 24.871094 40.662109 C 25.559265 40.447054 26.192792 40.059136 26.773438 39.5 L 26.333984 38.880859 C 25.876722 39.238518 25.389659 39.500057 24.871094 39.662109 C 24.182921 39.877164 23.447053 39.984375 22.662109 39.984375 C 21.963184 39.984375 21.327709 39.877164 20.757812 39.662109 C 20.187924 39.457811 19.699617 39.139091 19.291016 38.708984 C 18.882411 38.278878 18.56368 37.74769 18.337891 37.113281 C 18.112102 36.478872 18 35.731307 18 34.871094 z M 28.193359 34.935547 L 28.193359 35.935547 L 31.533203 35.935547 L 31.533203 34.935547 L 28.193359 34.935547 z M 32.984375 34.935547 L 32.984375 35.935547 L 36.322266 35.935547 L 36.322266 34.935547 L 32.984375 34.935547 z M 37.871094 34.935547 L 37.871094 35.935547 L 41.208984 35.935547 L 41.208984 34.935547 L 37.871094 34.935547 z M 42.662109 34.935547 L 42.662109 35.935547 L 46 35.935547 L 46 34.935547 L 42.662109 34.935547 z M 31.533203 38.564453 L 31.533203 39.564453 L 32.984375 39.564453 L 32.984375 38.564453 L 31.533203 38.564453 z M 41.208984 38.564453 L 41.208984 39.564453 L 42.662109 39.564453 L 42.662109 38.564453 L 41.208984 38.564453 z "
     transform="scale(0.26458334)" />
</svg>
