<?xml version="1.0" encoding="UTF-8" standalone="no"?>
<!-- Created with Inkscape (http://www.inkscape.org/) -->

<svg
   width="64"
   height="64"
   viewBox="0 0 16.933333 16.933334"
   version="1.1"
   id="svg5"
   inkscape:version="1.1.1 (3bf5ae0d25, 2021-09-20, custom)"
   sodipodi:docname="text-x-rust.svg"
   xmlns:inkscape="http://www.inkscape.org/namespaces/inkscape"
   xmlns:sodipodi="http://sodipodi.sourceforge.net/DTD/sodipodi-0.dtd"
   xmlns:xlink="http://www.w3.org/1999/xlink"
   xmlns="http://www.w3.org/2000/svg"
   xmlns:svg="http://www.w3.org/2000/svg">
  <sodipodi:namedview
     id="namedview7"
     pagecolor="#ffffff"
     bordercolor="#666666"
     borderopacity="1.0"
     inkscape:pageshadow="2"
     inkscape:pageopacity="0.0"
     inkscape:pagecheckerboard="0"
     inkscape:document-units="px"
     showgrid="false"
     units="px"
     height="64px"
     inkscape:zoom="10.015625"
     inkscape:cx="32"
     inkscape:cy="47.825273"
     inkscape:window-width="1541"
     inkscape:window-height="947"
     inkscape:window-x="23"
     inkscape:window-y="15"
     inkscape:window-maximized="0"
     inkscape:current-layer="svg5" />
  <defs
     id="defs2">
    <linearGradient
       inkscape:collect="always"
       id="linearGradient916">
      <stop
         style="stop-color:#4d4d4d;stop-opacity:1"
         offset="0"
         id="stop912" />
      <stop
         style="stop-color:#a9823b;stop-opacity:1"
         offset="1"
         id="stop914" />
    </linearGradient>
    <linearGradient
       inkscape:collect="always"
       id="linearGradient10453">
      <stop
         style="stop-color:#666666;stop-opacity:1"
         offset="0"
         id="stop10449" />
      <stop
         style="stop-color:#666666;stop-opacity:0"
         offset="1"
         id="stop10451" />
    </linearGradient>
    <linearGradient
       inkscape:collect="always"
       id="linearGradient8423">
      <stop
         style="stop-color:#fcfcfc;stop-opacity:1"
         offset="0"
         id="stop8419" />
      <stop
         style="stop-color:#ffffff;stop-opacity:0;"
         offset="1"
         id="stop8421" />
    </linearGradient>
    <linearGradient
       inkscape:collect="always"
       id="linearGradient6263">
      <stop
         style="stop-color:#000000;stop-opacity:1;"
         offset="0"
         id="stop6259" />
      <stop
         style="stop-color:#000000;stop-opacity:0;"
         offset="1"
         id="stop6261" />
    </linearGradient>
    <linearGradient
       inkscape:collect="always"
       id="linearGradient3378">
      <stop
         style="stop-color:#b0b0b0;stop-opacity:1"
         offset="0"
         id="stop3374" />
      <stop
         style="stop-color:#fcfcfc;stop-opacity:1"
         offset="1"
         id="stop3376" />
    </linearGradient>
    <linearGradient
       inkscape:collect="always"
       xlink:href="#linearGradient3378"
       id="linearGradient3380"
       x1="14.942825"
       y1="1.1138821"
       x2="11.503234"
       y2="4.3115072"
       gradientUnits="userSpaceOnUse"
       gradientTransform="translate(-0.5291663,-0.52916667)" />
    <linearGradient
       inkscape:collect="always"
       xlink:href="#linearGradient6263"
       id="linearGradient6265"
       x1="11.90625"
       y1="2.3812501"
       x2="12.170834"
       y2="7.1437502"
       gradientUnits="userSpaceOnUse"
       gradientTransform="translate(-0.52916663,0.52916673)" />
    <linearGradient
       inkscape:collect="always"
       xlink:href="#linearGradient8423"
       id="linearGradient8425"
       x1="13.692527"
       y1="11.622045"
       x2="1.6077259"
       y2="-0.71580184"
       gradientUnits="userSpaceOnUse" />
    <linearGradient
       inkscape:collect="always"
       xlink:href="#linearGradient10453"
       id="linearGradient10455"
       x1="10"
       y1="72.5"
       x2="58"
       y2="32.5"
       gradientUnits="userSpaceOnUse" />
    <linearGradient
       inkscape:collect="always"
       xlink:href="#linearGradient916"
       id="linearGradient918"
       x1="4.7624998"
       y1="6.3516946"
       x2="12.699952"
       y2="12.172528"
       gradientUnits="userSpaceOnUse" />
  </defs>
  <path
     id="rect1068"
     style="fill:#e5e5e5;fill-opacity:1;stroke-width:0.529167;stroke-linejoin:round"
     d="m 3.175,0.5291667 7.143751,3e-8 3.968749,3.96874997 1e-6,11.3770833 c 0,0.293158 -0.236009,0.529167 -0.529167,0.529167 H 3.175 c -0.2931584,0 -0.5291667,-0.236009 -0.5291667,-0.529167 V 1.0583334 c 0,-0.29315835 0.2360083,-0.5291667 0.5291667,-0.5291667 z"
     sodipodi:nodetypes="cccsssssc" />
  <path
     id="rect8140"
     style="opacity:1;fill:url(#linearGradient8425);fill-opacity:1;stroke-width:0.518136;stroke-linejoin:round"
     d="m 3.175,0.5291668 h 7.143751 l -1e-6,2.9104166 0.79375,1.0583333 3.175,0 V 15.875 c 0,0.295111 -0.236009,0.529167 -0.529167,0.529167 H 3.175 c -0.293159,0 -0.529167,-0.236009 -0.529167,-0.529167 V 1.0583337 c 0,-0.2931589 0.236008,-0.5291669 0.529167,-0.5291669 z"
     sodipodi:nodetypes="sccccssssss" />
  <path
     id="rect9905"
     style="opacity:0.3;fill:url(#linearGradient10455);fill-opacity:1;stroke-width:2;stroke-linejoin:round"
     d="M 10 59 L 10 60 C 10 61.108 10.892 62 12 62 L 52 62 C 53.108 62 54 61.108 54 60 L 54 59 C 54 60.108 53.108 61 52 61 L 12 61 C 10.892 61 10 60.108 10 59 z "
     transform="scale(0.26458334)" />
  <path
     id="rect5598"
     style="opacity:0.2;fill:url(#linearGradient6265);fill-opacity:1;stroke-width:0.529167;stroke-linejoin:round"
     d="M 10.444901,4.3115072 10.31875,3.4395834 14.2875,4.4979167 v 3.7041668 z"
     sodipodi:nodetypes="ccccc" />
  <path
     id="rect2607"
     style="fill:url(#linearGradient3380);fill-opacity:1;stroke-width:0.529167;stroke-linejoin:round"
     d="m 14.2875,4.4979167 -3.439583,-1e-7 c -0.293158,0 -0.529166,-0.2360083 -0.529166,-0.5291667 V 0.52916673 Z"
     sodipodi:nodetypes="csscc" />
  <path
     id="path4396"
     style="font-size:1.67233px;line-height:1.25;font-family:Roboto;-inkscape-font-specification:Roboto;text-align:center;text-anchor:middle;stroke-width:0.158015;fill:#808080;fill-opacity:1"
     d="M 34.232422 51 C 33.779774 51 33.410887 51.117118 33.126953 51.349609 C 32.845077 51.580047 32.705078 51.87072 32.705078 52.224609 C 32.705078 52.537355 32.820341 52.801653 33.050781 53.015625 C 33.283278 53.227538 33.651955 53.406643 34.160156 53.552734 C 34.565481 53.670001 34.845687 53.788758 35 53.910156 C 35.154313 54.029496 35.232422 54.199777 35.232422 54.419922 C 35.232422 54.640067 35.149079 54.813835 34.982422 54.941406 C 34.815765 55.068978 34.574458 55.132813 34.261719 55.132812 C 33.926348 55.132813 33.658667 55.054809 33.457031 54.898438 C 33.257455 54.740012 33.158203 54.523542 33.158203 54.251953 L 32.5625 54.251953 C 32.5625 54.513247 32.633319 54.747368 32.777344 54.953125 C 32.923426 55.158875 33.130964 55.322074 33.398438 55.441406 C 33.665912 55.558698 33.953095 55.617187 34.261719 55.617188 C 34.737 55.617188 35.11841 55.507166 35.402344 55.289062 C 35.686278 55.068913 35.828125 54.77824 35.828125 54.414062 C 35.828125 54.185686 35.776702 53.987077 35.673828 53.818359 C 35.57301 53.649644 35.415046 53.502459 35.203125 53.376953 C 34.993261 53.249381 34.702589 53.132263 34.328125 53.027344 C 33.955719 52.922399 33.691525 52.807146 33.535156 52.681641 C 33.380846 52.554089 33.302734 52.399928 33.302734 52.216797 C 33.302734 51.988423 33.384333 51.809212 33.546875 51.681641 C 33.711474 51.552028 33.940258 51.488281 34.232422 51.488281 C 34.547217 51.488281 34.79006 51.566285 34.962891 51.722656 C 35.135721 51.876967 35.222656 52.089739 35.222656 52.361328 L 35.818359 52.361328 C 35.818359 52.112371 35.750925 51.88174 35.617188 51.671875 C 35.485508 51.46201 35.299425 51.29902 35.056641 51.179688 C 34.815914 51.060355 34.541046 51 34.232422 51 z M 24.84375 51.0625 L 24.84375 55.554688 L 25.439453 55.554688 L 25.439453 53.738281 L 26.494141 53.738281 L 27.470703 55.554688 L 28.105469 55.554688 L 28.105469 55.517578 L 27.050781 53.611328 C 27.320314 53.508444 27.529492 53.35233 27.679688 53.144531 C 27.831942 52.936725 27.908203 52.693881 27.908203 52.414062 C 27.908203 51.973745 27.771693 51.638628 27.498047 51.408203 C 27.226458 51.177753 26.838174 51.0625 26.332031 51.0625 L 24.84375 51.0625 z M 28.648438 51.0625 L 28.648438 54.123047 C 28.652552 54.58804 28.801586 54.95342 29.09375 55.21875 C 29.385914 55.484169 29.777791 55.617188 30.269531 55.617188 L 30.425781 55.611328 C 30.87843 55.578408 31.236641 55.425781 31.5 55.15625 C 31.765417 54.886719 31.900286 54.541031 31.902344 54.117188 L 31.902344 51.0625 L 31.306641 51.0625 L 31.306641 54.107422 C 31.306641 54.432509 31.21611 54.684283 31.037109 54.863281 C 30.860165 55.04228 30.604903 55.132812 30.269531 55.132812 C 29.938274 55.132813 29.682907 55.04228 29.503906 54.863281 C 29.324905 54.682222 29.234375 54.430551 29.234375 54.105469 L 29.234375 51.0625 L 28.648438 51.0625 z M 36.216797 51.0625 L 36.216797 51.548828 L 37.658203 51.548828 L 37.658203 55.554688 L 38.246094 55.554688 L 38.246094 51.548828 L 39.691406 51.548828 L 39.691406 51.0625 L 36.216797 51.0625 z M 25.439453 51.548828 L 26.345703 51.548828 C 26.658443 51.550894 26.897902 51.627258 27.0625 51.775391 C 27.229157 51.92353 27.3125 52.1363 27.3125 52.414062 C 27.3125 52.669181 27.225668 52.873126 27.050781 53.025391 C 26.877952 53.177655 26.643831 53.253906 26.349609 53.253906 L 25.439453 53.253906 L 25.439453 51.548828 z "
     transform="scale(0.26458334)" />
  <path
     id="path2"
     style="stroke-width:0.0608361;fill:url(#linearGradient918);fill-opacity:1"
     d="m 8.4645987,5.8208439 a 0.09126319,0.09126319 0 0 0 -0.0745,0.042425 L 8.2235081,6.1322972 c -0.024486,0.00206 -0.049159,0.00457 -0.073465,0.00725 L 7.9327505,5.9067263 a 0.09126319,0.09126319 0 0 0 -0.1521058,0.03104 L 7.6699288,6.2336974 c -0.024777,0.00715 -0.048967,0.014957 -0.073465,0.022764 l -0.2576453,-0.18625 a 0.09126319,0.09126319 0 0 0 -0.1448614,0.05898 l -0.049667,0.3145561 c -0.021943,0.011413 -0.043574,0.024254 -0.065187,0.036216 L 6.7873104,6.3485535 A 0.09126319,0.09126319 0 0 0 6.6579709,6.4344345 L 6.6714269,6.75313 c -0.019162,0.015358 -0.038154,0.030731 -0.05691,0.046562 L 6.3061635,6.7241582 A 0.09126319,0.09126319 0 0 0 6.192344,6.8328037 L 6.267878,7.1463259 C 6.25238,7.1646869 6.237385,7.1834529 6.222349,7.2021999 L 5.9036546,7.1887449 a 0.09126319,0.09126319 0 0 0 -0.086917,0.1293394 l 0.1334803,0.2897229 c -0.012575,0.022654 -0.025281,0.04527 -0.037249,0.068291 l -0.3145562,0.048634 a 0.09126319,0.09126319 0 0 0 -0.05898,0.1448614 l 0.1862512,0.2576463 c -0.00791,0.024809 -0.015518,0.049401 -0.022764,0.0745 L 5.4069888,8.3114209 A 0.09126319,0.09126319 0 0 0 5.3749098,8.4604211 L 5.6087581,8.679783 c -0.0027,0.024644 -0.00515,0.049677 -0.00725,0.0745 l -0.269027,0.1676258 a 0.09126319,0.09126319 0 0 0 0,0.1521038 l 0.2690285,0.1676257 c 0.00206,0.02448 0.00457,0.049159 0.00725,0.073465 l -0.2338499,0.216257 a 0.09126319,0.09126319 0 0 0 0.032079,0.153139 l 0.296966,0.111749 c 0.00667,0.02298 0.013476,0.04555 0.020694,0.06829 l -0.185216,0.2617847 a 0.09126319,0.09126319 0 0 0 0.05898,0.144862 l 0.3155909,0.04863 c 0.011273,0.02165 0.023379,0.04282 0.035183,0.06415 l -0.1324451,0.289722 a 0.09126319,0.09126319 0 0 0 0.086917,0.129342 l 0.3186953,-0.01035 c 0.015057,0.01876 0.030023,0.03749 0.045529,0.05587 l -0.075535,0.310417 a 0.09126319,0.09126319 0 0 0 0.1138195,0.108646 l 0.3093824,-0.07243 c 0.018381,0.01552 0.037101,0.03047 0.055874,0.04553 l -0.013456,0.320765 a 0.09126319,0.09126319 0 0 0 0.1293395,0.08588 l 0.2928268,-0.13141 c 0.021186,0.01171 0.042647,0.02295 0.064152,0.03414 l 0.049667,0.316626 a 0.09126319,0.09126319 0 0 0 0.1448614,0.05795 l 0.2576462,-0.186251 c 0.02418,0.0077 0.047977,0.01568 0.072432,0.02276 l 0.1117491,0.296966 a 0.09126319,0.09126319 0 0 0 0.1521058,0.03104 l 0.2172977,-0.233821 c 0.023962,0.0026 0.048294,0.0052 0.07243,0.0072 l 0.1676257,0.270063 a 0.09126319,0.09126319 0 0 0 0.153139,0 l 0.1676257,-0.270063 c 0.024136,-0.0021 0.048464,-0.0046 0.07243,-0.0072 l 0.2172921,0.233848 a 0.09126319,0.09126319 0 0 0 0.1521038,-0.03104 l 0.11175,-0.296966 c 0.02445,-0.0071 0.04825,-0.01506 0.07243,-0.02276 l 0.258681,0.186252 a 0.09126319,0.09126319 0 0 0 0.143826,-0.05795 l 0.04967,-0.316626 c 0.02124,-0.01105 0.04219,-0.02258 0.06312,-0.03414 l 0.2907575,0.13141 a 0.09126319,0.09126319 0 0 0 0.128307,-0.08588 l -0.0093,-0.31973 c 0.01894,-0.0152 0.03733,-0.03091 0.05587,-0.04656 l 0.309383,0.07243 a 0.09126319,0.09126319 0 0 0 0.109681,-0.108646 l -0.07243,-0.310419 c 0.01566,-0.01854 0.03137,-0.03693 0.04656,-0.05588 l 0.31973,0.01035 a 0.09126319,0.09126319 0 0 0 0.08588,-0.129341 l -0.131418,-0.290764 c 0.01157,-0.02093 0.02309,-0.04188 0.03414,-0.06312 l 0.315591,-0.04863 A 0.09126319,0.09126319 0 0 0 11.3939,10.126333 L 11.207653,9.8676523 c 0.0077,-0.02418 0.01568,-0.04798 0.02276,-0.07243 l 0.296966,-0.110716 a 0.09126319,0.09126319 0 0 0 0.03104,-0.153139 L 11.324576,9.3151114 c 0.0027,-0.024306 0.0052,-0.048983 0.0072,-0.073465 l 0.269029,-0.1676257 a 0.09126319,0.09126319 0 0 0 0,-0.1521038 L 11.331818,8.7542911 c -0.0021,-0.024825 -0.0045,-0.049858 -0.0072,-0.0745 l 0.233806,-0.219362 A 0.09126319,0.09126319 0 0 0 11.527384,8.3114289 L 11.230418,8.2007136 c -0.0071,-0.024454 -0.01506,-0.048242 -0.02276,-0.072432 l 0.186251,-0.258681 a 0.09126319,0.09126319 0 0 0 -0.05898,-0.1448605 l -0.314556,-0.048634 c -0.01197,-0.023025 -0.02468,-0.045635 -0.03725,-0.068291 l 0.13348,-0.2897228 a 0.09126319,0.09126319 0 0 0 -0.08588,-0.1293395 l -0.320765,0.013456 c -0.01506,-0.018762 -0.03001,-0.037493 -0.04553,-0.055874 l 0.07243,-0.3135216 a 0.09126319,0.09126319 0 0 0 -0.10968,-0.1086455 l -0.309383,0.075535 c -0.01854,-0.015658 -0.03693,-0.031374 -0.05587,-0.046562 l 0.0093,-0.3186955 a 0.09126319,0.09126319 0 0 0 -0.12831,-0.085892 L 9.8531925,6.4799635 c -0.02147,-0.011883 -0.04235,-0.024873 -0.06415,-0.036216 l -0.04967,-0.3145563 a 0.09126319,0.09126319 0 0 0 -0.143827,-0.05898 l -0.261785,0.1852161 c -0.02274,-0.00721 -0.04531,-0.014036 -0.06829,-0.020694 L 9.1526899,5.9377688 A 0.09126319,0.09126319 0 0 0 9.0005841,5.9067289 L 8.7843268,6.139542 c -0.024306,-0.0027 -0.048983,-0.00519 -0.073465,-0.00725 L 8.5432376,5.8632713 a 0.09126319,0.09126319 0 0 0 -0.078639,-0.042425 z m -0.00206,0.5566821 a 0.18859161,0.18919999 0 0 1 0.1831457,0.1893548 0.18920005,0.18920005 0 0 1 -0.3776747,0 0.18919999,0.18919999 0 0 1 0.194529,-0.1893548 z m -0.427345,0.3114517 0.2907574,0.3052438 c 0.065702,0.068745 0.1744156,0.071495 0.24316,0.00519 L 8.8950474,6.6889957 a 2.3281938,2.3281938 0 0 1 1.5945106,1.1350926 l -0.223501,0.503911 c -0.03832,0.086996 0.0016,0.188704 0.08795,0.2276396 l 0.429411,0.1903901 a 2.3281938,2.3281938 0 0 1 0.0052,0.4045767 h -0.239015 c -0.02372,0 -0.03414,0.015178 -0.03414,0.038286 v 0.1096808 c 0,0.2579448 -0.145412,0.3150508 -0.273167,0.3290428 -0.121672,0.01399 -0.2561355,-0.05202 -0.2731685,-0.126237 C 9.8973375,9.0980357 9.7779745,9.0130365 9.5893835,8.8639885 9.8236025,8.7155481 10.067426,8.496029 10.067426,8.2027996 10.067426,7.8858439 9.8499995,7.6861189 9.7021685,7.5881735 9.4940925,7.4512925 9.2644335,7.4236523 9.2023805,7.4236523 H 6.732493 A 2.3281938,2.3281938 0 0 1 8.0352113,6.6889979 Z M 6.2068331,8.0889598 a 0.18919999,0.18919999 0 0 1 0.1831457,0.1893548 0.18920005,0.18920005 0 0 1 -0.3776743,0 0.18919999,0.18919999 0 0 1 0.1945286,-0.1893548 z m 4.5103639,0.00829 a 0.18919999,0.18919999 0 0 1 0.184181,0.1893548 0.18935463,0.18935463 0 0 1 -0.378709,0 0.18919999,0.18919999 0 0 1 0.194528,-0.1893548 z m -4.1544187,0.03103 H 6.8928555 V 9.6151793 H 6.2275278 A 2.3281938,2.3281938 0 0 1 6.1519926,8.7263506 L 6.5596743,8.5452737 c 0.086996,-0.038933 0.1258514,-0.1406425 0.086916,-0.227639 z m 1.3761834,0.015518 h 0.7853558 c 0.040761,0 0.286619,0.047447 0.286619,0.2317782 0,0.1526985 -0.1883977,0.2069448 -0.3435288,0.2069448 h -0.728446 z m 0,1.0688702 h 0.6022097 c 0.054753,0 0.2933518,0.015378 0.3693969,0.3207643 0.023723,0.09369 0.076893,0.398722 0.1127843,0.4966677 0.035891,0.109505 0.1811529,0.329042 0.3362859,0.329042 h 0.9819535 a 2.3281938,2.3281938 0 0 1 -0.215223,0.249375 l -0.3994035,-0.08588 c -0.09308,-0.02007 -0.185835,0.03936 -0.20591,0.132445 l -0.09416,0.44286 a 2.3281938,2.3281938 0 0 1 -1.941143,-0.0093 l -0.095198,-0.442877 c -0.020073,-0.09308 -0.111795,-0.152521 -0.2048756,-0.132446 l -0.3911258,0.08381 A 2.3281938,2.3281938 0 0 1 6.5927824,10.359145 h 1.9028582 c 0.021293,0 0.035183,-0.0038 0.035183,-0.0238 V 9.6627763 c 0,-0.01946 -0.013876,-0.0238 -0.035183,-0.0238 H 7.9389585 Z m -0.8774463,1.540705 a 0.18919999,0.18919999 0 0 1 0.1831457,0.189355 0.18919999,0.18919999 0 0 1 -0.3776741,0 0.18919999,0.18919999 0 0 1 0.1945284,-0.189355 z m 2.8009991,0.0083 a 0.18919999,0.18919999 0 0 1 0.1841815,0.189355 0.18935475,0.18935475 0 0 1 -0.3787095,0 0.18919999,0.18919999 0 0 1 0.194528,-0.189355 z" />
</svg>
