<?xml version="1.0" encoding="UTF-8" standalone="no"?>
<!-- Created with Inkscape (http://www.inkscape.org/) -->

<svg
   width="64"
   height="64"
   viewBox="0 0 16.933333 16.933334"
   version="1.1"
   id="svg5"
   inkscape:version="1.1.1 (3bf5ae0d25, 2021-09-20, custom)"
   sodipodi:docname="text-x-pascal.svg"
   xmlns:inkscape="http://www.inkscape.org/namespaces/inkscape"
   xmlns:sodipodi="http://sodipodi.sourceforge.net/DTD/sodipodi-0.dtd"
   xmlns:xlink="http://www.w3.org/1999/xlink"
   xmlns="http://www.w3.org/2000/svg"
   xmlns:svg="http://www.w3.org/2000/svg">
  <sodipodi:namedview
     id="namedview7"
     pagecolor="#ffffff"
     bordercolor="#666666"
     borderopacity="1.0"
     inkscape:pageshadow="2"
     inkscape:pageopacity="0.0"
     inkscape:pagecheckerboard="0"
     inkscape:document-units="px"
     showgrid="false"
     units="px"
     height="64px"
     inkscape:zoom="8.8277862"
     inkscape:cx="24.808032"
     inkscape:cy="42.026392"
     inkscape:window-width="1920"
     inkscape:window-height="1011"
     inkscape:window-x="0"
     inkscape:window-y="0"
     inkscape:window-maximized="1"
     inkscape:current-layer="svg5" />
  <defs
     id="defs2">
    <linearGradient
       inkscape:collect="always"
       id="linearGradient21367">
      <stop
         style="stop-color:#ff3c7c;stop-opacity:1;"
         offset="0"
         id="stop21363" />
      <stop
         style="stop-color:#ff69cb;stop-opacity:0.99835753"
         offset="1"
         id="stop21365" />
    </linearGradient>
    <linearGradient
       inkscape:collect="always"
       id="linearGradient10453">
      <stop
         style="stop-color:#666666;stop-opacity:1"
         offset="0"
         id="stop10449" />
      <stop
         style="stop-color:#666666;stop-opacity:0"
         offset="1"
         id="stop10451" />
    </linearGradient>
    <linearGradient
       inkscape:collect="always"
       id="linearGradient8423">
      <stop
         style="stop-color:#fcfcfc;stop-opacity:1"
         offset="0"
         id="stop8419" />
      <stop
         style="stop-color:#ffffff;stop-opacity:0;"
         offset="1"
         id="stop8421" />
    </linearGradient>
    <linearGradient
       inkscape:collect="always"
       id="linearGradient6263">
      <stop
         style="stop-color:#000000;stop-opacity:1;"
         offset="0"
         id="stop6259" />
      <stop
         style="stop-color:#000000;stop-opacity:0;"
         offset="1"
         id="stop6261" />
    </linearGradient>
    <linearGradient
       inkscape:collect="always"
       id="linearGradient3378">
      <stop
         style="stop-color:#b0b0b0;stop-opacity:1"
         offset="0"
         id="stop3374" />
      <stop
         style="stop-color:#fcfcfc;stop-opacity:1"
         offset="1"
         id="stop3376" />
    </linearGradient>
    <linearGradient
       inkscape:collect="always"
       xlink:href="#linearGradient3378"
       id="linearGradient3380"
       x1="14.942825"
       y1="1.1138821"
       x2="11.503234"
       y2="4.3115072"
       gradientUnits="userSpaceOnUse"
       gradientTransform="translate(-0.5291663,-0.52916667)" />
    <linearGradient
       inkscape:collect="always"
       xlink:href="#linearGradient6263"
       id="linearGradient6265"
       x1="11.90625"
       y1="2.3812501"
       x2="12.170834"
       y2="7.1437502"
       gradientUnits="userSpaceOnUse"
       gradientTransform="translate(-0.52916663,0.52916673)" />
    <linearGradient
       inkscape:collect="always"
       xlink:href="#linearGradient8423"
       id="linearGradient8425"
       x1="13.692527"
       y1="11.622045"
       x2="1.6077259"
       y2="-0.71580184"
       gradientUnits="userSpaceOnUse" />
    <linearGradient
       inkscape:collect="always"
       xlink:href="#linearGradient10453"
       id="linearGradient10455"
       x1="10"
       y1="72.5"
       x2="58"
       y2="32.5"
       gradientUnits="userSpaceOnUse" />
    <linearGradient
       inkscape:collect="always"
       xlink:href="#linearGradient6263"
       id="linearGradient20995"
       x1="18"
       y1="45.891602"
       x2="47.912109"
       y2="17.891602"
       gradientUnits="userSpaceOnUse" />
    <linearGradient
       inkscape:collect="always"
       xlink:href="#linearGradient21367"
       id="linearGradient21369"
       x1="46"
       y1="20.177734"
       x2="45.912109"
       y2="46.177734"
       gradientUnits="userSpaceOnUse" />
  </defs>
  <path
     id="rect1068"
     style="fill:#e5e5e5;fill-opacity:1;stroke-width:0.529167;stroke-linejoin:round"
     d="m 3.175,0.5291667 7.143751,3e-8 3.968749,3.96874997 1e-6,11.3770833 c 0,0.293158 -0.236009,0.529167 -0.529167,0.529167 H 3.175 c -0.2931584,0 -0.5291667,-0.236009 -0.5291667,-0.529167 V 1.0583334 c 0,-0.29315835 0.2360083,-0.5291667 0.5291667,-0.5291667 z"
     sodipodi:nodetypes="cccsssssc" />
  <path
     id="rect8140"
     style="opacity:1;fill:url(#linearGradient8425);fill-opacity:1;stroke-width:0.518136;stroke-linejoin:round"
     d="m 3.175,0.5291668 h 7.143751 l -1e-6,2.9104166 0.79375,1.0583333 3.175,0 V 15.875 c 0,0.295111 -0.236009,0.529167 -0.529167,0.529167 H 3.175 c -0.293159,0 -0.529167,-0.236009 -0.529167,-0.529167 V 1.0583337 c 0,-0.2931589 0.236008,-0.5291669 0.529167,-0.5291669 z"
     sodipodi:nodetypes="sccccssssss" />
  <path
     id="rect9905"
     style="opacity:0.3;fill:url(#linearGradient10455);fill-opacity:1;stroke-width:2;stroke-linejoin:round"
     d="M 10 59 L 10 60 C 10 61.108 10.892 62 12 62 L 52 62 C 53.108 62 54 61.108 54 60 L 54 59 C 54 60.108 53.108 61 52 61 L 12 61 C 10.892 61 10 60.108 10 59 z "
     transform="scale(0.26458334)" />
  <path
     id="rect5598"
     style="opacity:0.2;fill:url(#linearGradient6265);fill-opacity:1;stroke-width:0.529167;stroke-linejoin:round"
     d="M 10.444901,4.3115072 10.31875,3.4395834 14.2875,4.4979167 v 3.7041668 z"
     sodipodi:nodetypes="ccccc" />
  <path
     id="rect2607"
     style="fill:url(#linearGradient3380);fill-opacity:1;stroke-width:0.529167;stroke-linejoin:round"
     d="m 14.2875,4.4979167 -3.439583,-1e-7 c -0.293158,0 -0.529166,-0.2360083 -0.529166,-0.5291667 V 0.52916673 Z"
     sodipodi:nodetypes="csscc" />
  <path
     id="path22076"
     style="font-size:1.67233px;line-height:1.25;font-family:Roboto;-inkscape-font-specification:Roboto;text-align:center;text-anchor:middle;stroke-width:0.158015;fill:#808080"
     d="M 30.146484 51 C 29.693836 51 29.32495 51.117118 29.041016 51.349609 C 28.759139 51.580047 28.617187 51.87072 28.617188 52.224609 C 28.617188 52.537355 28.73245 52.801653 28.962891 53.015625 C 29.195387 53.227538 29.566018 53.406643 30.074219 53.552734 C 30.479544 53.670001 30.759749 53.788758 30.914062 53.910156 C 31.068373 54.029496 31.146484 54.199777 31.146484 54.419922 C 31.146484 54.640067 31.063141 54.813835 30.896484 54.941406 C 30.729828 55.068978 30.48852 55.132813 30.175781 55.132812 C 29.840411 55.132813 29.572729 55.054809 29.371094 54.898438 C 29.171517 54.740012 29.072266 54.523542 29.072266 54.251953 L 28.476562 54.251953 C 28.476563 54.513247 28.547381 54.747368 28.691406 54.953125 C 28.837488 55.158875 29.045026 55.322074 29.3125 55.441406 C 29.579974 55.558698 29.867157 55.617187 30.175781 55.617188 C 30.651062 55.617188 31.030519 55.507166 31.314453 55.289062 C 31.598387 55.068913 31.742188 54.77824 31.742188 54.414062 C 31.742187 54.185686 31.690764 53.987077 31.587891 53.818359 C 31.487072 53.649644 31.329108 53.502459 31.117188 53.376953 C 30.907323 53.249381 30.616651 53.132263 30.242188 53.027344 C 29.869781 52.922399 29.603635 52.807146 29.447266 52.681641 C 29.292955 52.554089 29.216797 52.399928 29.216797 52.216797 C 29.216797 51.988423 29.298395 51.809212 29.460938 51.681641 C 29.625537 51.552028 29.85432 51.488281 30.146484 51.488281 C 30.46128 51.488281 30.704123 51.566285 30.876953 51.722656 C 31.049783 51.876967 31.136719 52.089739 31.136719 52.361328 L 31.732422 52.361328 C 31.732422 52.112371 31.664987 51.88174 31.53125 51.671875 C 31.399571 51.46201 31.211534 51.29902 30.96875 51.179688 C 30.728023 51.060355 30.455108 51 30.146484 51 z M 34.154297 51 C 33.794236 51 33.478725 51.0851 33.205078 51.255859 C 32.931431 51.424572 32.718555 51.66752 32.568359 51.984375 C 32.42022 52.301228 32.345703 52.668267 32.345703 53.085938 L 32.345703 53.517578 C 32.345703 54.155401 32.505308 54.666239 32.824219 55.046875 C 33.145188 55.427511 33.57073 55.617188 34.101562 55.617188 C 34.591246 55.617188 34.983122 55.487656 35.277344 55.230469 C 35.573624 54.971223 35.751089 54.604187 35.806641 54.128906 L 35.210938 54.128906 C 35.153327 54.499255 35.034367 54.759958 34.857422 54.910156 C 34.682535 55.058289 34.430761 55.132812 34.101562 55.132812 C 33.735329 55.132812 33.451738 54.98922 33.248047 54.701172 C 33.044356 54.413124 32.941406 54.024736 32.941406 53.537109 L 32.941406 53.101562 C 32.941406 52.585133 33.049693 52.188022 33.263672 51.908203 C 33.479709 51.628382 33.775718 51.488281 34.154297 51.488281 C 34.462921 51.488281 34.702275 51.568037 34.873047 51.728516 C 35.045877 51.888999 35.159501 52.147855 35.210938 52.505859 L 35.806641 52.505859 C 35.759318 52.034693 35.590783 51.665807 35.302734 51.400391 C 35.014685 51.132916 34.631635 51 34.154297 51 z M 21.066406 51.0625 L 21.066406 55.554688 L 21.658203 55.554688 L 21.658203 53.796875 L 22.716797 53.796875 C 23.224998 53.796875 23.61513 53.677917 23.886719 53.443359 C 24.160365 53.206748 24.296875 52.871735 24.296875 52.435547 C 24.296875 52.021986 24.156772 51.688511 23.876953 51.4375 C 23.599192 51.186489 23.214397 51.0625 22.722656 51.0625 L 21.066406 51.0625 z M 25.908203 51.0625 L 24.191406 55.554688 L 24.802734 55.554688 L 25.226562 54.382812 L 27.109375 54.382812 L 27.537109 55.554688 L 28.146484 55.554688 L 26.425781 51.0625 L 25.908203 51.0625 z M 37.894531 51.0625 L 36.179688 55.554688 L 36.791016 55.554688 L 37.212891 54.382812 L 39.095703 54.382812 L 39.525391 55.554688 L 40.132812 55.554688 L 38.414062 51.0625 L 37.894531 51.0625 z M 40.738281 51.0625 L 40.738281 55.554688 L 43.462891 55.554688 L 43.462891 55.070312 L 41.333984 55.070312 L 41.333984 51.0625 L 40.738281 51.0625 z M 21.658203 51.548828 L 22.757812 51.548828 C 23.052035 51.555001 23.282459 51.638349 23.451172 51.798828 C 23.619887 51.959312 23.705078 52.173932 23.705078 52.441406 C 23.705078 52.723281 23.619887 52.939645 23.451172 53.089844 C 23.282458 53.237976 23.03951 53.3125 22.722656 53.3125 L 21.658203 53.3125 L 21.658203 51.548828 z M 26.167969 51.792969 L 26.933594 53.894531 L 25.404297 53.894531 L 26.167969 51.792969 z M 38.154297 51.792969 L 38.919922 53.894531 L 37.392578 53.894531 L 38.154297 51.792969 z "
     transform="scale(0.26458334)" />
  <text
     xml:space="preserve"
     style="font-size:10.5833px;line-height:1.25;font-family:'Noto Serif';-inkscape-font-specification:'Noto Serif';stroke-width:0.264583"
     x="11.210568"
     y="8.940918"
     id="text80811"><tspan
       sodipodi:role="line"
       id="tspan80809"
       style="stroke-width:0.264583" /></text>
  <path
     id="path20566"
     style="font-weight:bold;font-size:7.46962px;line-height:1.25;font-family:'나눔스퀘어';-inkscape-font-specification:'나눔스퀘어 Bold';stroke-width:0.705793;fill:url(#linearGradient21369);fill-opacity:1"
     d="M 29.880859 24 L 29.880859 44.355469 L 32.675781 44.355469 L 32.675781 36.421875 L 37.164062 36.421875 C 38.274508 36.421875 39.244138 36.261365 40.072266 35.941406 C 40.919215 35.621448 41.624822 35.18839 42.189453 34.642578 C 42.754087 34.096766 43.178622 33.467154 43.460938 32.751953 C 43.762075 32.017931 43.912109 31.236331 43.912109 30.408203 L 43.912109 29.816406 C 43.912109 28.988278 43.770597 28.215202 43.488281 27.5 C 43.224785 26.784798 42.810725 26.174185 42.246094 25.666016 C 41.700282 25.139025 41.005152 24.733488 40.158203 24.451172 C 39.311254 24.150034 38.312149 24 37.164062 24 L 29.880859 24 z M 32.675781 26.427734 L 36.996094 26.427734 C 38.313571 26.427734 39.319245 26.710758 40.015625 27.275391 C 40.730825 27.821202 41.089844 28.676842 41.089844 29.84375 L 41.089844 30.351562 C 41.089844 32.779483 39.621636 33.994141 36.685547 33.994141 L 32.675781 33.994141 L 32.675781 26.427734 z M 20 33.457031 L 20 36.705078 L 23.21875 36.705078 L 23.21875 33.457031 L 20 33.457031 z "
     transform="scale(0.26458334)" />
  <path
     id="path20566-3"
     style="font-weight:bold;font-size:7.46962px;line-height:1.25;font-family:'나눔스퀘어';-inkscape-font-specification:'나눔스퀘어 Bold';opacity:0.3;fill:url(#linearGradient20995);fill-opacity:1;stroke-width:0.705793"
     d="M 32.675781 26.427734 L 32.675781 27.427734 L 36.996094 27.427734 C 38.313572 27.427734 39.319243 27.710756 40.015625 28.275391 C 40.68069 28.782941 41.037192 29.558981 41.083984 30.603516 C 41.087621 30.521074 41.089844 30.43701 41.089844 30.351562 L 41.089844 29.84375 C 41.089844 28.676842 40.730825 27.821202 40.015625 27.275391 C 39.319247 26.710756 38.313568 26.427734 36.996094 26.427734 L 32.675781 26.427734 z M 43.908203 30.583984 C 43.888357 31.346994 43.740649 32.070192 43.460938 32.751953 C 43.178622 33.467154 42.754088 34.096766 42.189453 34.642578 C 41.624822 35.18839 40.919212 35.621447 40.072266 35.941406 C 39.244137 36.261366 38.274509 36.421875 37.164062 36.421875 L 32.675781 36.421875 L 32.675781 37.421875 L 37.164062 37.421875 C 38.274505 37.421875 39.244137 37.261358 40.072266 36.941406 C 40.919216 36.621431 41.624822 36.188391 42.189453 35.642578 C 42.754088 35.096769 43.178622 34.467154 43.460938 33.751953 C 43.76209 33.017931 43.912109 32.236331 43.912109 31.408203 L 43.912109 30.816406 C 43.912109 30.738445 43.910711 30.660968 43.908203 30.583984 z M 20 36.705078 L 20 37.705078 L 23.21875 37.705078 L 23.21875 36.705078 L 20 36.705078 z M 29.880859 44.355469 L 29.880859 45.355469 L 32.675781 45.355469 L 32.675781 44.355469 L 29.880859 44.355469 z "
     transform="scale(0.26458334)" />
</svg>
