<?xml version="1.0" encoding="UTF-8" standalone="no"?>
<!-- Created with Inkscape (http://www.inkscape.org/) -->

<svg
   width="64"
   height="64"
   viewBox="0 0 16.933333 16.933334"
   version="1.1"
   id="svg5"
   inkscape:version="1.1.1 (3bf5ae0d25, 2021-09-20, custom)"
   sodipodi:docname="text-x-copying.svg"
   xmlns:inkscape="http://www.inkscape.org/namespaces/inkscape"
   xmlns:sodipodi="http://sodipodi.sourceforge.net/DTD/sodipodi-0.dtd"
   xmlns:xlink="http://www.w3.org/1999/xlink"
   xmlns="http://www.w3.org/2000/svg"
   xmlns:svg="http://www.w3.org/2000/svg">
  <sodipodi:namedview
     id="namedview7"
     pagecolor="#ffffff"
     bordercolor="#666666"
     borderopacity="1.0"
     inkscape:pageshadow="2"
     inkscape:pageopacity="0.0"
     inkscape:pagecheckerboard="0"
     inkscape:document-units="px"
     showgrid="false"
     units="px"
     height="64px"
     inkscape:zoom="8.8277862"
     inkscape:cx="28.716146"
     inkscape:cy="37.155408"
     inkscape:window-width="1541"
     inkscape:window-height="947"
     inkscape:window-x="23"
     inkscape:window-y="15"
     inkscape:window-maximized="0"
     inkscape:current-layer="svg5" />
  <defs
     id="defs2">
    <linearGradient
       inkscape:collect="always"
       id="linearGradient10453">
      <stop
         style="stop-color:#666666;stop-opacity:1"
         offset="0"
         id="stop10449" />
      <stop
         style="stop-color:#666666;stop-opacity:0"
         offset="1"
         id="stop10451" />
    </linearGradient>
    <linearGradient
       inkscape:collect="always"
       id="linearGradient8423">
      <stop
         style="stop-color:#fcfcfc;stop-opacity:1"
         offset="0"
         id="stop8419" />
      <stop
         style="stop-color:#ffffff;stop-opacity:0;"
         offset="1"
         id="stop8421" />
    </linearGradient>
    <linearGradient
       inkscape:collect="always"
       id="linearGradient6263">
      <stop
         style="stop-color:#000000;stop-opacity:1;"
         offset="0"
         id="stop6259" />
      <stop
         style="stop-color:#000000;stop-opacity:0;"
         offset="1"
         id="stop6261" />
    </linearGradient>
    <linearGradient
       inkscape:collect="always"
       id="linearGradient3378">
      <stop
         style="stop-color:#b0b0b0;stop-opacity:1"
         offset="0"
         id="stop3374" />
      <stop
         style="stop-color:#fcfcfc;stop-opacity:1"
         offset="1"
         id="stop3376" />
    </linearGradient>
    <linearGradient
       inkscape:collect="always"
       xlink:href="#linearGradient3378"
       id="linearGradient3380"
       x1="14.942825"
       y1="1.1138821"
       x2="11.503234"
       y2="4.3115072"
       gradientUnits="userSpaceOnUse"
       gradientTransform="translate(-0.5291663,-0.52916667)" />
    <linearGradient
       inkscape:collect="always"
       xlink:href="#linearGradient6263"
       id="linearGradient6265"
       x1="11.90625"
       y1="2.3812501"
       x2="12.170834"
       y2="7.1437502"
       gradientUnits="userSpaceOnUse"
       gradientTransform="translate(-0.52916663,0.52916673)" />
    <linearGradient
       inkscape:collect="always"
       xlink:href="#linearGradient8423"
       id="linearGradient8425"
       x1="13.692527"
       y1="11.622045"
       x2="1.6077259"
       y2="-0.71580184"
       gradientUnits="userSpaceOnUse" />
    <linearGradient
       inkscape:collect="always"
       xlink:href="#linearGradient10453"
       id="linearGradient10455"
       x1="10"
       y1="72.5"
       x2="58"
       y2="32.5"
       gradientUnits="userSpaceOnUse" />
  </defs>
  <path
     id="rect1068"
     style="fill:#e5e5e5;fill-opacity:1;stroke-width:0.529167;stroke-linejoin:round"
     d="m 3.175,0.5291667 7.143751,3e-8 3.968749,3.96874997 1e-6,11.3770833 c 0,0.293158 -0.236009,0.529167 -0.529167,0.529167 H 3.175 c -0.2931584,0 -0.5291667,-0.236009 -0.5291667,-0.529167 V 1.0583334 c 0,-0.29315835 0.2360083,-0.5291667 0.5291667,-0.5291667 z"
     sodipodi:nodetypes="cccsssssc" />
  <path
     id="rect8140"
     style="opacity:1;fill:url(#linearGradient8425);fill-opacity:1;stroke-width:0.518136;stroke-linejoin:round"
     d="m 3.175,0.5291668 h 7.143751 l -1e-6,2.9104166 0.79375,1.0583333 3.175,0 V 15.875 c 0,0.295111 -0.236009,0.529167 -0.529167,0.529167 H 3.175 c -0.293159,0 -0.529167,-0.236009 -0.529167,-0.529167 V 1.0583337 c 0,-0.2931589 0.236008,-0.5291669 0.529167,-0.5291669 z"
     sodipodi:nodetypes="sccccssssss" />
  <path
     id="rect9905"
     style="opacity:0.3;fill:url(#linearGradient10455);fill-opacity:1;stroke-width:2;stroke-linejoin:round"
     d="M 10 59 L 10 60 C 10 61.108 10.892 62 12 62 L 52 62 C 53.108 62 54 61.108 54 60 L 54 59 C 54 60.108 53.108 61 52 61 L 12 61 C 10.892 61 10 60.108 10 59 z "
     transform="scale(0.26458334)" />
  <path
     id="rect5598"
     style="opacity:0.2;fill:url(#linearGradient6265);fill-opacity:1;stroke-width:0.529167;stroke-linejoin:round"
     d="M 10.444901,4.3115072 10.31875,3.4395834 14.2875,4.4979167 v 3.7041668 z"
     sodipodi:nodetypes="ccccc" />
  <path
     id="rect2607"
     style="fill:url(#linearGradient3380);fill-opacity:1;stroke-width:0.529167;stroke-linejoin:round"
     d="m 14.2875,4.4979167 -3.439583,-1e-7 c -0.293158,0 -0.529166,-0.2360083 -0.529166,-0.5291667 V 0.52916673 Z"
     sodipodi:nodetypes="csscc" />
  <path
     id="path883"
     style="font-size:1.67233px;line-height:1.25;font-family:Roboto;-inkscape-font-specification:Roboto;text-align:center;text-anchor:middle;stroke-width:0.158015;fill:#808080;fill-opacity:1"
     d="M 20.869141 51 C 20.509079 51 20.193568 51.0851 19.919922 51.255859 C 19.646274 51.424572 19.433399 51.66752 19.283203 51.984375 C 19.135063 52.301228 19.060547 52.668267 19.060547 53.085938 L 19.060547 53.517578 C 19.060547 54.155401 19.220151 54.666239 19.539062 55.046875 C 19.860031 55.427511 20.287526 55.617188 20.818359 55.617188 C 21.308043 55.617188 21.699919 55.487656 21.994141 55.230469 C 22.29042 54.971223 22.465933 54.604187 22.521484 54.128906 L 21.925781 54.128906 C 21.868171 54.499255 21.751164 54.759958 21.574219 54.910156 C 21.399332 55.058289 21.147558 55.132812 20.818359 55.132812 C 20.452125 55.132813 20.166582 54.98922 19.962891 54.701172 C 19.759199 54.413124 19.65625 54.024736 19.65625 53.537109 L 19.65625 53.101562 C 19.65625 52.585133 19.764536 52.188022 19.978516 51.908203 C 20.194552 51.628382 20.490562 51.488281 20.869141 51.488281 C 21.177765 51.488281 21.419072 51.568037 21.589844 51.728516 C 21.762674 51.888999 21.874344 52.147855 21.925781 52.505859 L 22.521484 52.505859 C 22.474162 52.034693 22.305627 51.665807 22.017578 51.400391 C 21.729529 51.132916 21.346479 51 20.869141 51 z M 24.978516 51 C 24.624627 51 24.308907 51.088693 24.033203 51.265625 C 23.759556 51.440511 23.548633 51.694135 23.398438 52.025391 C 23.248242 52.356646 23.171875 52.737846 23.171875 53.169922 L 23.171875 53.494141 C 23.17599 53.917984 23.254101 54.290255 23.404297 54.613281 C 23.556551 54.934246 23.769322 55.182531 24.042969 55.357422 C 24.316615 55.530247 24.630486 55.617188 24.984375 55.617188 C 25.346494 55.617188 25.662005 55.530247 25.933594 55.357422 C 26.205183 55.184592 26.416313 54.934563 26.564453 54.607422 C 26.712593 54.278223 26.787109 53.893427 26.787109 53.453125 L 26.787109 53.169922 C 26.787109 52.731676 26.712593 52.346777 26.564453 52.017578 C 26.416314 51.686318 26.203438 51.434544 25.927734 51.261719 C 25.654088 51.086827 25.338577 51 24.978516 51 z M 43.291016 51 C 42.744632 51.011274 42.316719 51.197827 42.009766 51.558594 C 41.694969 51.931001 41.539062 52.455897 41.539062 53.132812 L 41.539062 53.525391 C 41.543195 53.943061 41.621085 54.3101 41.775391 54.626953 C 41.93176 54.943811 42.153567 55.188503 42.4375 55.361328 C 42.721436 55.532112 43.045876 55.617188 43.412109 55.617188 C 43.774228 55.617188 44.091692 55.564017 44.363281 55.457031 C 44.636917 55.347994 44.849689 55.182948 45.001953 54.964844 L 45.001953 53.318359 L 43.371094 53.318359 L 43.371094 53.798828 L 44.412109 53.798828 L 44.412109 54.808594 C 44.303057 54.92586 44.164699 55.009208 43.998047 55.058594 C 43.83139 55.10798 43.636274 55.132812 43.414062 55.132812 C 43.021092 55.132812 42.710919 54.983777 42.480469 54.6875 C 42.250044 54.389164 42.134766 53.988463 42.134766 53.484375 L 42.134766 53.117188 C 42.136832 52.588411 42.239668 52.185963 42.443359 51.908203 C 42.649107 51.628382 42.950559 51.488281 43.347656 51.488281 C 43.944315 51.488281 44.297085 51.784291 44.408203 52.378906 L 45.001953 52.378906 C 44.93817 51.938599 44.762552 51.599993 44.476562 51.361328 C 44.190571 51.120597 43.81286 51 43.34375 51 C 43.325876 51 43.308641 50.999636 43.291016 51 z M 27.675781 51.0625 L 27.675781 55.554688 L 28.267578 55.554688 L 28.267578 53.796875 L 29.326172 53.796875 C 29.834373 53.796875 30.224505 53.677917 30.496094 53.443359 C 30.76974 53.206748 30.90625 52.871735 30.90625 52.435547 C 30.90625 52.021986 30.766147 51.688511 30.486328 51.4375 C 30.208567 51.186489 29.823772 51.0625 29.332031 51.0625 L 27.675781 51.0625 z M 31.1875 51.0625 L 32.736328 53.878906 L 32.736328 55.554688 L 33.330078 55.554688 L 33.330078 53.878906 L 34.878906 51.0625 L 34.205078 51.0625 L 33.033203 53.318359 L 31.867188 51.0625 L 31.1875 51.0625 z M 35.501953 51.0625 L 35.501953 55.554688 L 36.09375 55.554688 L 36.09375 51.0625 L 35.501953 51.0625 z M 37.177734 51.0625 L 37.177734 55.554688 L 37.773438 55.554688 L 37.773438 52.091797 L 40.035156 55.554688 L 40.630859 55.554688 L 40.630859 51.0625 L 40.041016 51.0625 L 40.041016 54.539062 L 37.773438 51.0625 L 37.177734 51.0625 z M 24.943359 51.509766 C 24.954907 51.509486 24.966814 51.509766 24.978516 51.509766 C 25.363267 51.509766 25.661021 51.651508 25.875 51.9375 C 26.088979 52.221436 26.197266 52.631174 26.197266 53.164062 L 26.197266 53.496094 C 26.191092 54.016638 26.082911 54.417447 25.873047 54.697266 C 25.663183 54.975028 25.367069 55.113281 24.984375 55.113281 C 24.603739 55.113281 24.304031 54.966096 24.085938 54.671875 C 23.869902 54.375595 23.761719 53.969555 23.761719 53.453125 L 23.761719 53.123047 C 23.767892 52.616905 23.877818 52.221436 24.091797 51.9375 C 24.301082 51.660445 24.585394 51.518424 24.943359 51.509766 z M 28.267578 51.548828 L 29.367188 51.548828 C 29.661408 51.555001 29.891831 51.638349 30.060547 51.798828 C 30.229262 51.959312 30.314453 52.173932 30.314453 52.441406 C 30.314453 52.723281 30.229262 52.939645 30.060547 53.089844 C 29.891833 53.237976 29.648885 53.3125 29.332031 53.3125 L 28.267578 53.3125 L 28.267578 51.548828 z "
     transform="scale(0.26458334)" />
  <path
     d="m 8.46667,11.641674 q -0.784548,0 -1.45521,-0.392274 -0.670662,-0.392274 -1.0629361,-1.062936 -0.392274,-0.6706622 -0.392274,-1.4552102 0,-0.7845481 0.392274,-1.4552101 0.3922741,-0.670662 1.0629361,-1.062936 0.670662,-0.392274 1.45521,-0.392274 0.784548,0 1.45521,0.392274 0.670662,0.392274 1.062936,1.062936 0.392274,0.670662 0.392274,1.4552101 0,0.784548 -0.392274,1.4552102 -0.392274,0.670662 -1.062936,1.062936 -0.670662,0.392274 -1.45521,0.392274 z m 0,-0.582084 q 0.6327,0 1.164168,-0.31635 0.544122,-0.31635 0.860472,-0.8478182 0.31635,-0.544122 0.31635,-1.164168 0,-0.6327001 -0.31635,-1.1641681 -0.31635,-0.544122 -0.860472,-0.847818 -0.531468,-0.31635 -1.164168,-0.31635 -0.620046,0 -1.164168,0.31635 -0.531468,0.303696 -0.847818,0.847818 -0.31635,0.531468 -0.31635,1.1641681 0,0.620046 0.31635,1.164168 0.31635,0.5314682 0.847818,0.8478182 0.544122,0.31635 1.164168,0.31635 z m 0.050616,-0.82251 q -0.6327,0 -1.062936,-0.4428902 -0.430236,-0.44289 -0.430236,-1.062936 0,-0.6327001 0.430236,-1.0629361 0.430236,-0.44289 1.062936,-0.44289 0.354312,0 0.607392,0.12654 0.25308,0.12654 0.493506,0.366966 L 9.22591,8.0732457 Q 9.086716,7.9087437 8.922214,7.8328197 8.770366,7.7568957 8.517286,7.7568957 q -0.37962,0 -0.658008,0.291042 -0.278388,0.278388 -0.278388,0.6833161 0,0.404928 0.278388,0.69597 0.278388,0.278388 0.658008,0.278388 0.468198,0 0.771894,-0.404928 l 0.417582,0.329004 Q 9.251218,10.23708 8.517286,10.23708 Z"
     style="font-size:12.654px;line-height:1.25;font-family:'Google Sans';-inkscape-font-specification:'Google Sans';stroke-width:0.31635;fill:#b3b3b3"
     id="path36053" />
</svg>
