<?xml version="1.0" encoding="UTF-8" standalone="no"?>
<!-- Created with Inkscape (http://www.inkscape.org/) -->

<svg
   width="64"
   height="64"
   viewBox="0 0 16.933333 16.933334"
   version="1.1"
   id="svg5"
   inkscape:version="1.1.1 (3bf5ae0d25, 2021-09-20, custom)"
   sodipodi:docname="text-x-rpm-spec.svg"
   xmlns:inkscape="http://www.inkscape.org/namespaces/inkscape"
   xmlns:sodipodi="http://sodipodi.sourceforge.net/DTD/sodipodi-0.dtd"
   xmlns:xlink="http://www.w3.org/1999/xlink"
   xmlns="http://www.w3.org/2000/svg"
   xmlns:svg="http://www.w3.org/2000/svg">
  <sodipodi:namedview
     id="namedview7"
     pagecolor="#ffffff"
     bordercolor="#666666"
     borderopacity="1.0"
     inkscape:pageshadow="2"
     inkscape:pageopacity="0.0"
     inkscape:pagecheckerboard="0"
     inkscape:document-units="px"
     showgrid="false"
     units="px"
     height="64px"
     inkscape:zoom="12.484375"
     inkscape:cx="25.111389"
     inkscape:cy="33.481852"
     inkscape:window-width="1541"
     inkscape:window-height="947"
     inkscape:window-x="23"
     inkscape:window-y="15"
     inkscape:window-maximized="0"
     inkscape:current-layer="svg5" />
  <defs
     id="defs2">
    <linearGradient
       inkscape:collect="always"
       id="linearGradient13678">
      <stop
         style="stop-color:#e64359;stop-opacity:1;"
         offset="0"
         id="stop13674" />
      <stop
         style="stop-color:#e17b89;stop-opacity:1"
         offset="1"
         id="stop13676" />
    </linearGradient>
    <linearGradient
       inkscape:collect="always"
       id="linearGradient10453">
      <stop
         style="stop-color:#666666;stop-opacity:1"
         offset="0"
         id="stop10449" />
      <stop
         style="stop-color:#666666;stop-opacity:0"
         offset="1"
         id="stop10451" />
    </linearGradient>
    <linearGradient
       inkscape:collect="always"
       id="linearGradient8423">
      <stop
         style="stop-color:#fcfcfc;stop-opacity:1"
         offset="0"
         id="stop8419" />
      <stop
         style="stop-color:#ffffff;stop-opacity:0;"
         offset="1"
         id="stop8421" />
    </linearGradient>
    <linearGradient
       inkscape:collect="always"
       id="linearGradient6263">
      <stop
         style="stop-color:#000000;stop-opacity:1;"
         offset="0"
         id="stop6259" />
      <stop
         style="stop-color:#000000;stop-opacity:0;"
         offset="1"
         id="stop6261" />
    </linearGradient>
    <linearGradient
       inkscape:collect="always"
       id="linearGradient3378">
      <stop
         style="stop-color:#b0b0b0;stop-opacity:1"
         offset="0"
         id="stop3374" />
      <stop
         style="stop-color:#fcfcfc;stop-opacity:1"
         offset="1"
         id="stop3376" />
    </linearGradient>
    <linearGradient
       inkscape:collect="always"
       xlink:href="#linearGradient3378"
       id="linearGradient3380"
       x1="14.942825"
       y1="1.1138821"
       x2="11.503234"
       y2="4.3115072"
       gradientUnits="userSpaceOnUse"
       gradientTransform="translate(-0.5291663,-0.52916667)" />
    <linearGradient
       inkscape:collect="always"
       xlink:href="#linearGradient6263"
       id="linearGradient6265"
       x1="11.90625"
       y1="2.3812501"
       x2="12.170834"
       y2="7.1437502"
       gradientUnits="userSpaceOnUse"
       gradientTransform="translate(-0.52916663,0.52916673)" />
    <linearGradient
       inkscape:collect="always"
       xlink:href="#linearGradient8423"
       id="linearGradient8425"
       x1="13.692527"
       y1="11.622045"
       x2="1.6077259"
       y2="-0.71580184"
       gradientUnits="userSpaceOnUse" />
    <linearGradient
       inkscape:collect="always"
       xlink:href="#linearGradient10453"
       id="linearGradient10455"
       x1="10"
       y1="72.5"
       x2="58"
       y2="32.5"
       gradientUnits="userSpaceOnUse" />
    <linearGradient
       inkscape:collect="always"
       xlink:href="#linearGradient6263"
       id="linearGradient11894"
       x1="10"
       y1="44.799809"
       x2="54"
       y2="16.799809"
       gradientUnits="userSpaceOnUse" />
    <linearGradient
       inkscape:collect="always"
       xlink:href="#linearGradient13678"
       id="linearGradient13680"
       x1="14"
       y1="25.625977"
       x2="14.000001"
       y2="39.625977"
       gradientUnits="userSpaceOnUse" />
  </defs>
  <path
     id="rect1068"
     style="fill:#e5e5e5;fill-opacity:1;stroke-width:0.529167;stroke-linejoin:round"
     d="m 3.175,0.5291667 7.143751,3e-8 3.968749,3.96874997 1e-6,11.3770833 c 0,0.293158 -0.236009,0.529167 -0.529167,0.529167 H 3.175 c -0.2931584,0 -0.5291667,-0.236009 -0.5291667,-0.529167 V 1.0583334 c 0,-0.29315835 0.2360083,-0.5291667 0.5291667,-0.5291667 z"
     sodipodi:nodetypes="cccsssssc" />
  <path
     id="rect8140"
     style="opacity:1;fill:url(#linearGradient8425);fill-opacity:1;stroke-width:0.518136;stroke-linejoin:round"
     d="m 3.175,0.5291668 h 7.143751 l -1e-6,2.9104166 0.79375,1.0583333 3.175,0 V 15.875 c 0,0.295111 -0.236009,0.529167 -0.529167,0.529167 H 3.175 c -0.293159,0 -0.529167,-0.236009 -0.529167,-0.529167 V 1.0583337 c 0,-0.2931589 0.236008,-0.5291669 0.529167,-0.5291669 z"
     sodipodi:nodetypes="sccccssssss" />
  <path
     id="rect9905"
     style="opacity:0.3;fill:url(#linearGradient10455);fill-opacity:1;stroke-width:2;stroke-linejoin:round"
     d="M 10 59 L 10 60 C 10 61.108 10.892 62 12 62 L 52 62 C 53.108 62 54 61.108 54 60 L 54 59 C 54 60.108 53.108 61 52 61 L 12 61 C 10.892 61 10 60.108 10 59 z "
     transform="scale(0.26458334)" />
  <path
     id="rect5598"
     style="opacity:0.2;fill:url(#linearGradient6265);fill-opacity:1;stroke-width:0.529167;stroke-linejoin:round"
     d="M 10.444901,4.3115072 10.31875,3.4395834 14.2875,4.4979167 v 3.7041668 z"
     sodipodi:nodetypes="ccccc" />
  <path
     id="rect2607"
     style="fill:url(#linearGradient3380);fill-opacity:1;stroke-width:0.529167;stroke-linejoin:round"
     d="m 14.2875,4.4979167 -3.439583,-1e-7 c -0.293158,0 -0.529166,-0.2360083 -0.529166,-0.5291667 V 0.52916673 Z"
     sodipodi:nodetypes="csscc" />
  <path
     id="path13923"
     style="font-size:1.67233px;line-height:1.25;font-family:Roboto;-inkscape-font-specification:Roboto;text-align:center;text-anchor:middle;stroke-width:0.158015;fill:#808080"
     d="M 26.275391 51 C 25.822742 51 25.453856 51.117118 25.169922 51.349609 C 24.888045 51.580047 24.748047 51.87072 24.748047 52.224609 C 24.748047 52.537355 24.86331 52.801653 25.09375 53.015625 C 25.326247 53.227538 25.696878 53.406643 26.205078 53.552734 C 26.610403 53.670001 26.890609 53.788758 27.044922 53.910156 C 27.199235 54.029496 27.275391 54.199777 27.275391 54.419922 C 27.275391 54.640067 27.192048 54.813835 27.025391 54.941406 C 26.858734 55.068978 26.61938 55.132813 26.306641 55.132812 C 25.97127 55.132813 25.701635 55.054809 25.5 54.898438 C 25.300423 54.740012 25.201172 54.523542 25.201172 54.251953 L 24.605469 54.251953 C 24.605469 54.513247 24.67824 54.747368 24.822266 54.953125 C 24.968348 55.158875 25.173932 55.322074 25.441406 55.441406 C 25.70888 55.558698 25.998017 55.617187 26.306641 55.617188 C 26.781922 55.617188 27.161379 55.507166 27.445312 55.289062 C 27.729246 55.068913 27.871094 54.77824 27.871094 54.414062 C 27.871094 54.185686 27.819671 53.987077 27.716797 53.818359 C 27.615979 53.649644 27.459968 53.502459 27.248047 53.376953 C 27.038183 53.249381 26.745557 53.132263 26.371094 53.027344 C 25.998687 52.922399 25.734494 52.807146 25.578125 52.681641 C 25.423812 52.554089 25.345703 52.399928 25.345703 52.216797 C 25.345703 51.988423 25.427301 51.809212 25.589844 51.681641 C 25.754443 51.552028 25.983227 51.488281 26.275391 51.488281 C 26.590186 51.488281 26.834982 51.566285 27.007812 51.722656 C 27.180643 51.876967 27.265625 52.089739 27.265625 52.361328 L 27.861328 52.361328 C 27.861328 52.112371 27.795847 51.88174 27.662109 51.671875 C 27.53043 51.46201 27.342394 51.29902 27.099609 51.179688 C 26.858883 51.060355 26.584014 51 26.275391 51 z M 37.865234 51 C 37.505173 51 37.187709 51.0851 36.914062 51.255859 C 36.640415 51.424572 36.42754 51.66752 36.277344 51.984375 C 36.129204 52.301228 36.056641 52.668267 36.056641 53.085938 L 36.056641 53.517578 C 36.056641 54.155401 36.214292 54.666239 36.533203 55.046875 C 36.854172 55.427511 37.281668 55.617188 37.8125 55.617188 C 38.302183 55.617188 38.69406 55.487656 38.988281 55.230469 C 39.284553 54.971223 39.460066 54.604187 39.515625 54.128906 L 38.919922 54.128906 C 38.862297 54.499255 38.745292 54.759958 38.568359 54.910156 C 38.393473 55.058289 38.141699 55.132812 37.8125 55.132812 C 37.446266 55.132813 37.160723 54.98922 36.957031 54.701172 C 36.75334 54.413124 36.652344 54.024736 36.652344 53.537109 L 36.652344 53.101562 C 36.652344 52.585133 36.758677 52.188022 36.972656 51.908203 C 37.188693 51.628382 37.486655 51.488281 37.865234 51.488281 C 38.173845 51.488281 38.4132 51.568037 38.583984 51.728516 C 38.756835 51.888999 38.868495 52.147855 38.919922 52.505859 L 39.515625 52.505859 C 39.468303 52.034693 39.299767 51.665807 39.011719 51.400391 C 38.723671 51.132916 38.342574 51 37.865234 51 z M 28.630859 51.0625 L 28.630859 55.554688 L 29.222656 55.554688 L 29.222656 53.796875 L 30.28125 53.796875 C 30.789451 53.796875 31.179583 53.677917 31.451172 53.443359 C 31.724818 53.206748 31.861328 52.871735 31.861328 52.435547 C 31.861328 52.021986 31.721225 51.688511 31.441406 51.4375 C 31.163645 51.186489 30.77885 51.0625 30.287109 51.0625 L 28.630859 51.0625 z M 32.617188 51.0625 L 32.617188 55.554688 L 35.472656 55.554688 L 35.472656 55.070312 L 33.210938 55.070312 L 33.210938 53.478516 L 35.158203 53.478516 L 35.158203 52.994141 L 33.210938 52.994141 L 33.210938 51.548828 L 35.441406 51.548828 L 35.441406 51.0625 L 32.617188 51.0625 z M 29.222656 51.548828 L 30.322266 51.548828 C 30.616486 51.555001 30.846909 51.638349 31.015625 51.798828 C 31.184341 51.959312 31.269531 52.173932 31.269531 52.441406 C 31.269531 52.723281 31.184341 52.939645 31.015625 53.089844 C 30.84691 53.237976 30.603963 53.3125 30.287109 53.3125 L 29.222656 53.3125 L 29.222656 51.548828 z "
     transform="scale(0.26458334)" />
  <path
     id="path11700"
     style="font-weight:bold;font-size:4.00715px;line-height:1.25;font-family:'나눔스퀘어';-inkscape-font-specification:'나눔스퀘어 Bold';stroke-width:0.378629;fill:url(#linearGradient13680);fill-opacity:1"
     d="M 17.892578 28 C 17.266579 28 16.716735 28.086167 16.242188 28.257812 C 15.777737 28.419361 15.389171 28.635591 15.076172 28.908203 C 14.763171 29.180815 14.530357 29.49427 14.378906 29.847656 C 14.227456 30.190946 14.152344 30.550248 14.152344 30.923828 L 14.152344 31.195312 C 14.152344 31.690054 14.242087 32.109835 14.423828 32.453125 C 14.615667 32.786318 14.874169 33.068556 15.197266 33.300781 C 15.520362 33.52291 15.903399 33.709877 16.347656 33.861328 C 16.791914 34.002683 17.272175 34.12917 17.787109 34.240234 C 18.231367 34.331105 18.603347 34.437433 18.90625 34.558594 C 19.209153 34.669658 19.456599 34.794192 19.648438 34.935547 C 19.840276 35.076901 19.977819 35.240132 20.058594 35.421875 C 20.139367 35.603616 20.179687 35.814317 20.179688 36.056641 L 20.179688 36.298828 C 20.179688 36.732988 19.981664 37.106922 19.587891 37.419922 C 19.204214 37.732921 18.625106 37.890625 17.847656 37.890625 C 17.615431 37.890625 17.356928 37.859401 17.074219 37.798828 C 16.801606 37.738247 16.528472 37.657607 16.255859 37.556641 C 15.983247 37.445576 15.715641 37.319089 15.453125 37.177734 C 15.190609 37.036379 14.959748 36.889732 14.757812 36.738281 L 14 37.964844 C 14.454354 38.328331 15.004198 38.632682 15.650391 38.875 C 16.30668 39.12742 17.023331 39.251953 17.800781 39.251953 C 18.356103 39.251953 18.871156 39.187891 19.345703 39.056641 C 19.830348 38.935479 20.244601 38.748513 20.587891 38.496094 C 20.93118 38.233578 21.198786 37.914596 21.390625 37.541016 C 21.59256 37.167436 21.693359 36.729447 21.693359 36.224609 L 21.693359 35.951172 C 21.693359 35.577592 21.63288 35.234874 21.511719 34.921875 C 21.400655 34.608875 21.208159 34.324684 20.935547 34.072266 C 20.662935 33.819847 20.300057 33.598089 19.845703 33.40625 C 19.401446 33.204314 18.840545 33.028404 18.164062 32.876953 C 17.760192 32.786081 17.402843 32.694386 17.089844 32.603516 C 16.776844 32.502549 16.514766 32.387117 16.302734 32.255859 C 16.090703 32.124603 15.929425 31.972427 15.818359 31.800781 C 15.707294 31.619039 15.650391 31.402809 15.650391 31.150391 L 15.650391 30.908203 C 15.650391 30.474042 15.851989 30.105637 16.255859 29.802734 C 16.669826 29.499832 17.221624 29.347656 17.908203 29.347656 C 18.413041 29.347656 18.871189 29.408136 19.285156 29.529297 C 19.699123 29.650458 20.107849 29.848481 20.511719 30.121094 L 21.224609 28.955078 C 20.760159 28.642078 20.254209 28.403735 19.708984 28.242188 C 19.163759 28.08064 18.558964 28 17.892578 28 z M 46.138672 28 C 45.492478 28 44.900363 28.100799 44.365234 28.302734 C 43.830106 28.504669 43.36643 28.807067 42.972656 29.210938 C 42.588981 29.614808 42.290156 30.115229 42.078125 30.710938 C 41.866094 31.306646 41.761719 32.003137 41.761719 32.800781 L 41.761719 34.451172 C 41.761719 35.258912 41.866091 35.960932 42.078125 36.556641 C 42.290156 37.152349 42.588981 37.65277 42.972656 38.056641 C 43.356334 38.460501 43.816434 38.75737 44.351562 38.949219 C 44.886691 39.151146 45.482382 39.251953 46.138672 39.251953 C 46.875735 39.251953 47.5667 39.151146 48.212891 38.949219 C 48.859084 38.747284 49.454775 38.384407 50 37.859375 L 49.181641 36.708984 C 48.727286 37.153243 48.237922 37.45564 47.712891 37.617188 C 47.187861 37.778737 46.663704 37.859375 46.138672 37.859375 C 45.724705 37.859375 45.339716 37.787839 44.986328 37.646484 C 44.643039 37.50513 44.340641 37.2889 44.078125 36.996094 C 43.825708 36.703288 43.629636 36.329354 43.488281 35.875 C 43.346927 35.420646 43.275391 34.881858 43.275391 34.255859 L 43.275391 32.998047 C 43.275391 32.372048 43.346927 31.831307 43.488281 31.376953 C 43.629636 30.922599 43.825708 30.548665 44.078125 30.255859 C 44.340641 29.963053 44.643039 29.746823 44.986328 29.605469 C 45.339716 29.464114 45.724705 29.392578 46.138672 29.392578 C 46.633412 29.392578 47.102617 29.458586 47.546875 29.589844 C 48.00123 29.721102 48.475963 29.988708 48.970703 30.392578 L 49.742188 29.166016 C 49.227252 28.762146 48.686511 28.468852 48.121094 28.287109 C 47.555674 28.095271 46.895928 28 46.138672 28 z M 23.693359 28.166016 L 23.693359 39.085938 L 25.191406 39.085938 L 25.191406 34.830078 L 27.599609 34.830078 C 28.195318 34.830078 28.715899 34.743911 29.160156 34.572266 C 29.61451 34.400621 29.993972 34.169759 30.296875 33.876953 C 30.599778 33.584147 30.827064 33.245006 30.978516 32.861328 C 31.140063 32.467555 31.220703 32.049726 31.220703 31.605469 L 31.220703 31.287109 C 31.220703 30.842852 31.143638 30.428599 30.992188 30.044922 C 30.850833 29.661245 30.629075 29.333159 30.326172 29.060547 C 30.033366 28.777837 29.659432 28.559654 29.205078 28.408203 C 28.750724 28.246656 28.215512 28.166016 27.599609 28.166016 L 23.693359 28.166016 z M 33.037109 28.166016 L 33.037109 39.085938 L 39.943359 39.085938 L 39.943359 37.798828 L 34.537109 37.798828 L 34.537109 34.132812 L 39.519531 34.132812 L 39.519531 32.845703 L 34.537109 32.845703 L 34.537109 29.453125 L 39.837891 29.453125 L 39.837891 28.166016 L 33.037109 28.166016 z M 25.191406 29.46875 L 27.509766 29.46875 C 28.216539 29.46875 28.757279 29.620926 29.130859 29.923828 C 29.514536 30.216634 29.705078 30.674782 29.705078 31.300781 L 29.705078 31.574219 C 29.705078 32.8767 28.918844 33.527344 27.34375 33.527344 L 25.191406 33.527344 L 25.191406 29.46875 z "
     transform="scale(0.26458334)" />
  <path
     id="path11700-3"
     style="font-weight:bold;font-size:4.00715px;line-height:1.25;font-family:'나눔스퀘어';-inkscape-font-specification:'나눔스퀘어 Bold';opacity:0.3;stroke-width:0.378629;fill-opacity:1;fill:url(#linearGradient11894)"
     d="m 17.908203,29.347656 c -0.686578,0 -1.238377,0.152176 -1.652344,0.455078 -0.403871,0.302903 -0.605468,0.671308 -0.605468,1.105469 v 0.242188 c 0,0.142339 0.01899,0.272948 0.05469,0.392578 0.08381,-0.279009 0.265836,-0.526526 0.550781,-0.740235 0.413967,-0.302902 0.965765,-0.455078 1.652344,-0.455078 0.504838,0 0.962986,0.06048 1.376953,0.181641 0.413967,0.12116 0.822693,0.319184 1.226563,0.591797 l 0.71289,-1.166016 c -0.145011,-0.09773 -0.294231,-0.186426 -0.447265,-0.269531 l -0.265625,0.435547 c -0.403869,-0.272613 -0.812595,-0.470637 -1.226563,-0.591797 -0.413968,-0.12116 -0.872114,-0.181641 -1.376953,-0.181641 z m 28.230469,0.04492 c -0.413964,0 -0.798958,0.07154 -1.152344,0.212891 -0.343287,0.141354 -0.645677,0.357583 -0.908203,0.65039 -0.252408,0.292806 -0.448489,0.66674 -0.589844,1.121094 -0.141354,0.454354 -0.21289,0.995095 -0.21289,1.621094 v 1 c 0,-0.625999 0.07154,-1.16674 0.21289,-1.621094 0.141355,-0.454354 0.337436,-0.828288 0.589844,-1.121094 0.262526,-0.292807 0.564916,-0.509036 0.908203,-0.65039 0.353386,-0.141355 0.73838,-0.212891 1.152344,-0.212891 0.49474,0 0.963946,0.06601 1.408203,0.197266 0.454356,0.131259 0.929088,0.398864 1.423828,0.802734 l 0.771485,-1.226562 C 49.599575,30.054164 49.45514,29.95229 49.308594,29.857422 l -0.337891,0.535156 c -0.49474,-0.40387 -0.969472,-0.671475 -1.423828,-0.802734 -0.444257,-0.131256 -0.913463,-0.197266 -1.408203,-0.197266 z m -11.601563,0.06055 v 1 h 5.300782 v -1 z m -9.345703,0.01563 v 1 h 2.31836 c 0.706773,0 1.247514,0.152175 1.621093,0.455078 0.306844,0.234168 0.487714,0.576481 0.548829,1.023438 0.01591,-0.117826 0.02539,-0.242032 0.02539,-0.373047 v -0.273438 c 0,-0.625999 -0.19054,-1.084149 -0.574219,-1.376953 C 28.75728,29.620925 28.216537,29.46875 27.509766,29.46875 Z m -11.017578,2.117188 c -0.01404,0.111364 -0.02148,0.223814 -0.02148,0.33789 v 0.271484 c 0,0.494743 0.08974,0.914523 0.271484,1.257813 0.191838,0.333192 0.450341,0.615431 0.773438,0.847656 0.323096,0.222131 0.706133,0.409096 1.15039,0.560547 0.444258,0.141354 0.924519,0.267844 1.439453,0.378906 0.444258,0.09087 0.816238,0.197199 1.119141,0.31836 0.302903,0.111065 0.550349,0.235595 0.742188,0.376953 0.191837,0.141354 0.329382,0.304585 0.410156,0.486328 0.03108,0.06993 0.05511,0.145949 0.07422,0.224609 0.03051,-0.111294 0.04688,-0.227052 0.04688,-0.347656 v -0.242187 c 0,-0.242324 -0.04033,-0.453024 -0.121094,-0.634766 -0.08077,-0.181743 -0.218308,-0.344974 -0.410156,-0.486328 -0.191842,-0.141358 -0.439297,-0.265888 -0.742188,-0.376953 -0.302903,-0.121161 -0.674884,-0.227488 -1.119141,-0.31836 -0.514934,-0.111062 -0.995196,-0.237552 -1.439453,-0.378906 -0.444258,-0.151451 -0.827294,-0.338416 -1.15039,-0.560547 -0.323097,-0.232225 -0.5816,-0.514464 -0.773438,-0.847656 -0.131815,-0.248984 -0.214115,-0.538313 -0.25,-0.867187 z m 17.03125,0.353515 c -0.03062,0.321271 -0.10614,0.628325 -0.226562,0.921875 -0.151454,0.383678 -0.37875,0.722818 -0.681641,1.015625 -0.302903,0.292806 -0.682363,0.523669 -1.136719,0.695313 -0.444257,0.171643 -0.96484,0.257812 -1.560547,0.257812 h -2.408203 v 1 h 2.408203 c 0.595709,0 1.11629,-0.08617 1.560547,-0.257812 0.454354,-0.171645 0.833816,-0.402507 1.136719,-0.695313 0.302903,-0.292806 0.530189,-0.631947 0.681641,-1.015625 0.161546,-0.393773 0.242187,-0.811602 0.242187,-1.255859 v -0.31836 c 0,-0.1179 -0.0048,-0.233992 -0.01563,-0.347656 z m 3.332031,2.193359 v 1 h 4.982422 v -1 z m 7.22461,0.31836 v 1 c 0,0.80774 0.104375,1.50976 0.316406,2.105469 0.212031,0.595706 0.510856,1.096127 0.894531,1.5 0.383679,0.403857 0.843778,0.700729 1.378906,0.892578 0.535129,0.20194 1.130821,0.302734 1.78711,0.302734 0.737064,0 1.428029,-0.100794 2.074219,-0.302734 C 48.859084,39.747279 49.454777,39.384404 50,38.859375 l -0.441406,-0.619141 c -0.421076,0.323711 -0.869875,0.560285 -1.345703,0.708985 -0.64619,0.20194 -1.337155,0.302734 -2.074219,0.302734 -0.656289,0 -1.251981,-0.100794 -1.78711,-0.302734 -0.535128,-0.191849 -0.995227,-0.488721 -1.378906,-0.892578 -0.383675,-0.403874 -0.6825,-0.904294 -0.894531,-1.5 -0.212031,-0.595709 -0.316406,-1.297729 -0.316406,-2.105469 z M 21.673828,36.59375 c -0.03809,0.352103 -0.132305,0.66812 -0.283203,0.947266 -0.191837,0.37358 -0.45944,0.692552 -0.802734,0.955078 -0.343291,0.252438 -0.757543,0.439375 -1.242188,0.560547 -0.474546,0.131263 -0.9896,0.195312 -1.544922,0.195312 -0.777449,0 -1.494101,-0.124518 -2.15039,-0.376953 -0.45561,-0.17085 -0.86254,-0.372005 -1.222657,-0.603516 L 14,38.964844 c 0.454354,0.363477 1.004198,0.667839 1.650391,0.910156 0.656289,0.252435 1.37294,0.376953 2.15039,0.376953 0.555322,0 1.070375,-0.06405 1.544922,-0.195312 0.484645,-0.121172 0.898898,-0.308109 1.242188,-0.560547 0.34329,-0.262526 0.610895,-0.581499 0.802734,-0.955078 0.201936,-0.373569 0.302734,-0.811568 0.302734,-1.316407 v -0.273437 c 0,-0.122472 -0.0065,-0.241544 -0.01953,-0.357422 z m 2.019531,2.492188 v 1 h 1.498047 v -1 z m 9.34375,0 v 1 h 6.90625 v -1 z"
     transform="scale(0.26458334)" />
</svg>
