<?xml version="1.0" encoding="UTF-8" standalone="no"?>
<!-- Created with Inkscape (http://www.inkscape.org/) -->

<svg
   width="64"
   height="64"
   viewBox="0 0 16.933333 16.933334"
   version="1.1"
   id="svg5"
   inkscape:version="1.1.1 (3bf5ae0d25, 2021-09-20, custom)"
   sodipodi:docname="text-x-readme.svg"
   xmlns:inkscape="http://www.inkscape.org/namespaces/inkscape"
   xmlns:sodipodi="http://sodipodi.sourceforge.net/DTD/sodipodi-0.dtd"
   xmlns:xlink="http://www.w3.org/1999/xlink"
   xmlns="http://www.w3.org/2000/svg"
   xmlns:svg="http://www.w3.org/2000/svg">
  <sodipodi:namedview
     id="namedview7"
     pagecolor="#ffffff"
     bordercolor="#666666"
     borderopacity="1.0"
     inkscape:pageshadow="2"
     inkscape:pageopacity="0.0"
     inkscape:pagecheckerboard="0"
     inkscape:document-units="px"
     showgrid="false"
     units="px"
     height="64px"
     inkscape:zoom="2.2069466"
     inkscape:cx="-50.069178"
     inkscape:cy="45.538031"
     inkscape:window-width="1541"
     inkscape:window-height="947"
     inkscape:window-x="23"
     inkscape:window-y="15"
     inkscape:window-maximized="0"
     inkscape:current-layer="svg5" />
  <defs
     id="defs2">
    <linearGradient
       inkscape:collect="always"
       id="linearGradient10453">
      <stop
         style="stop-color:#666666;stop-opacity:1"
         offset="0"
         id="stop10449" />
      <stop
         style="stop-color:#666666;stop-opacity:0"
         offset="1"
         id="stop10451" />
    </linearGradient>
    <linearGradient
       inkscape:collect="always"
       id="linearGradient8423">
      <stop
         style="stop-color:#fcfcfc;stop-opacity:1"
         offset="0"
         id="stop8419" />
      <stop
         style="stop-color:#ffffff;stop-opacity:0;"
         offset="1"
         id="stop8421" />
    </linearGradient>
    <linearGradient
       inkscape:collect="always"
       id="linearGradient6263">
      <stop
         style="stop-color:#000000;stop-opacity:1;"
         offset="0"
         id="stop6259" />
      <stop
         style="stop-color:#000000;stop-opacity:0;"
         offset="1"
         id="stop6261" />
    </linearGradient>
    <linearGradient
       inkscape:collect="always"
       id="linearGradient3378">
      <stop
         style="stop-color:#b0b0b0;stop-opacity:1"
         offset="0"
         id="stop3374" />
      <stop
         style="stop-color:#fcfcfc;stop-opacity:1"
         offset="1"
         id="stop3376" />
    </linearGradient>
    <linearGradient
       inkscape:collect="always"
       xlink:href="#linearGradient3378"
       id="linearGradient3380"
       x1="14.942825"
       y1="1.1138821"
       x2="11.503234"
       y2="4.3115072"
       gradientUnits="userSpaceOnUse"
       gradientTransform="translate(-0.5291663,-0.52916667)" />
    <linearGradient
       inkscape:collect="always"
       xlink:href="#linearGradient6263"
       id="linearGradient6265"
       x1="11.90625"
       y1="2.3812501"
       x2="12.170834"
       y2="7.1437502"
       gradientUnits="userSpaceOnUse"
       gradientTransform="translate(-0.52916663,0.52916673)" />
    <linearGradient
       inkscape:collect="always"
       xlink:href="#linearGradient8423"
       id="linearGradient8425"
       x1="13.692527"
       y1="11.622045"
       x2="1.6077259"
       y2="-0.71580184"
       gradientUnits="userSpaceOnUse" />
    <linearGradient
       inkscape:collect="always"
       xlink:href="#linearGradient10453"
       id="linearGradient10455"
       x1="10"
       y1="72.5"
       x2="58"
       y2="32.5"
       gradientUnits="userSpaceOnUse" />
  </defs>
  <path
     id="rect1068"
     style="fill:#e5e5e5;fill-opacity:1;stroke-width:0.529167;stroke-linejoin:round"
     d="m 3.175,0.5291667 7.143751,3e-8 3.968749,3.96874997 1e-6,11.3770833 c 0,0.293158 -0.236009,0.529167 -0.529167,0.529167 H 3.175 c -0.2931584,0 -0.5291667,-0.236009 -0.5291667,-0.529167 V 1.0583334 c 0,-0.29315835 0.2360083,-0.5291667 0.5291667,-0.5291667 z"
     sodipodi:nodetypes="cccsssssc" />
  <path
     id="rect8140"
     style="opacity:1;fill:url(#linearGradient8425);fill-opacity:1;stroke-width:0.518136;stroke-linejoin:round"
     d="m 3.175,0.5291668 h 7.143751 l -1e-6,2.9104166 0.79375,1.0583333 3.175,0 V 15.875 c 0,0.295111 -0.236009,0.529167 -0.529167,0.529167 H 3.175 c -0.293159,0 -0.529167,-0.236009 -0.529167,-0.529167 V 1.0583337 c 0,-0.2931589 0.236008,-0.5291669 0.529167,-0.5291669 z"
     sodipodi:nodetypes="sccccssssss" />
  <path
     id="rect9905"
     style="opacity:0.3;fill:url(#linearGradient10455);fill-opacity:1;stroke-width:2;stroke-linejoin:round"
     d="M 10 59 L 10 60 C 10 61.108 10.892 62 12 62 L 52 62 C 53.108 62 54 61.108 54 60 L 54 59 C 54 60.108 53.108 61 52 61 L 12 61 C 10.892 61 10 60.108 10 59 z "
     transform="scale(0.26458334)" />
  <path
     id="rect5598"
     style="opacity:0.2;fill:url(#linearGradient6265);fill-opacity:1;stroke-width:0.529167;stroke-linejoin:round"
     d="M 10.444901,4.3115072 10.31875,3.4395834 14.2875,4.4979167 v 3.7041668 z"
     sodipodi:nodetypes="ccccc" />
  <path
     id="rect2607"
     style="fill:url(#linearGradient3380);fill-opacity:1;stroke-width:0.529167;stroke-linejoin:round"
     d="m 14.2875,4.4979167 -3.439583,-1e-7 c -0.293158,0 -0.529166,-0.2360083 -0.529166,-0.5291667 V 0.52916673 Z"
     sodipodi:nodetypes="csscc" />
  <path
     id="path864"
     style="font-size:1.67233px;line-height:1.25;font-family:Roboto;-inkscape-font-specification:Roboto;text-align:center;text-anchor:middle;stroke-width:0.158015;fill:#808080;fill-opacity:1"
     d="M 20.167969 51.0625 L 20.167969 55.554688 L 20.763672 55.554688 L 20.763672 53.738281 L 21.818359 53.738281 L 22.794922 55.554688 L 23.429688 55.554688 L 23.429688 55.517578 L 22.375 53.611328 C 22.644532 53.508444 22.85371 53.35233 23.003906 53.144531 C 23.156161 52.936725 23.232422 52.693881 23.232422 52.414062 C 23.232422 51.973745 23.095912 51.638628 22.822266 51.408203 C 22.550677 51.177753 22.162393 51.0625 21.65625 51.0625 L 20.167969 51.0625 z M 24.0625 51.0625 L 24.0625 55.554688 L 26.917969 55.554688 L 26.917969 55.070312 L 24.654297 55.070312 L 24.654297 53.478516 L 26.603516 53.478516 L 26.603516 52.994141 L 24.654297 52.994141 L 24.654297 51.548828 L 26.886719 51.548828 L 26.886719 51.0625 L 24.0625 51.0625 z M 28.935547 51.0625 L 27.220703 55.554688 L 27.830078 55.554688 L 28.253906 54.382812 L 30.136719 54.382812 L 30.564453 55.554688 L 31.173828 55.554688 L 29.455078 51.0625 L 28.935547 51.0625 z M 31.777344 51.0625 L 31.777344 55.554688 L 33.021484 55.554688 C 33.424753 55.550555 33.777627 55.463728 34.080078 55.292969 C 34.384587 55.122197 34.618708 54.877505 34.78125 54.558594 C 34.945848 54.239682 35.027344 53.867203 35.027344 53.443359 L 35.027344 53.158203 C 35.025285 52.744647 34.941942 52.377505 34.777344 52.058594 C 34.614802 51.73968 34.384378 51.493138 34.083984 51.320312 C 33.783591 51.147487 33.437799 51.0625 33.046875 51.0625 L 31.777344 51.0625 z M 35.923828 51.0625 L 35.923828 55.554688 L 36.515625 55.554688 L 36.515625 53.804688 L 36.457031 51.925781 L 37.929688 55.554688 L 38.382812 55.554688 L 39.857422 51.916016 L 39.802734 53.804688 L 39.802734 55.554688 L 40.394531 55.554688 L 40.394531 51.0625 L 39.626953 51.0625 L 38.158203 54.728516 L 36.689453 51.0625 L 35.923828 51.0625 z M 41.441406 51.0625 L 41.441406 55.554688 L 44.296875 55.554688 L 44.296875 55.070312 L 42.033203 55.070312 L 42.033203 53.478516 L 43.980469 53.478516 L 43.980469 52.994141 L 42.033203 52.994141 L 42.033203 51.548828 L 44.265625 51.548828 L 44.265625 51.0625 L 41.441406 51.0625 z M 20.763672 51.548828 L 21.669922 51.548828 C 21.982662 51.550894 22.22212 51.627258 22.386719 51.775391 C 22.553376 51.92353 22.636719 52.1363 22.636719 52.414062 C 22.636719 52.669181 22.549886 52.873126 22.375 53.025391 C 22.202171 53.177655 21.968049 53.253906 21.673828 53.253906 L 20.763672 53.253906 L 20.763672 51.548828 z M 32.371094 51.548828 L 33.0625 51.548828 C 33.502803 51.552943 33.841409 51.696536 34.080078 51.980469 C 34.320804 52.262346 34.441406 52.659663 34.441406 53.169922 L 34.441406 53.431641 C 34.441406 53.956302 34.313723 54.360598 34.058594 54.644531 C 33.805522 54.928464 33.450904 55.070313 32.994141 55.070312 L 32.371094 55.070312 L 32.371094 51.548828 z M 29.195312 51.792969 L 29.960938 53.894531 L 28.433594 53.894531 L 29.195312 51.792969 z "
     transform="scale(0.26458334)" />
</svg>
