<?xml version="1.0" encoding="UTF-8" standalone="no"?>
<!-- Created with Inkscape (http://www.inkscape.org/) -->

<svg
   width="64"
   height="64"
   viewBox="0 0 16.933333 16.933334"
   version="1.1"
   id="svg5"
   inkscape:version="1.1.1 (3bf5ae0d25, 2021-09-20, custom)"
   sodipodi:docname="text-x-authors.svg"
   xmlns:inkscape="http://www.inkscape.org/namespaces/inkscape"
   xmlns:sodipodi="http://sodipodi.sourceforge.net/DTD/sodipodi-0.dtd"
   xmlns:xlink="http://www.w3.org/1999/xlink"
   xmlns="http://www.w3.org/2000/svg"
   xmlns:svg="http://www.w3.org/2000/svg">
  <sodipodi:namedview
     id="namedview7"
     pagecolor="#ffffff"
     bordercolor="#666666"
     borderopacity="1.0"
     inkscape:pageshadow="2"
     inkscape:pageopacity="0.0"
     inkscape:pagecheckerboard="0"
     inkscape:document-units="px"
     showgrid="false"
     units="px"
     height="64px"
     inkscape:zoom="10.015625"
     inkscape:cx="32"
     inkscape:cy="32"
     inkscape:window-width="1541"
     inkscape:window-height="947"
     inkscape:window-x="23"
     inkscape:window-y="15"
     inkscape:window-maximized="0"
     inkscape:current-layer="svg5" />
  <defs
     id="defs2">
    <linearGradient
       inkscape:collect="always"
       id="linearGradient10453">
      <stop
         style="stop-color:#666666;stop-opacity:1"
         offset="0"
         id="stop10449" />
      <stop
         style="stop-color:#666666;stop-opacity:0"
         offset="1"
         id="stop10451" />
    </linearGradient>
    <linearGradient
       inkscape:collect="always"
       id="linearGradient8423">
      <stop
         style="stop-color:#fcfcfc;stop-opacity:1"
         offset="0"
         id="stop8419" />
      <stop
         style="stop-color:#ffffff;stop-opacity:0;"
         offset="1"
         id="stop8421" />
    </linearGradient>
    <linearGradient
       inkscape:collect="always"
       id="linearGradient6263">
      <stop
         style="stop-color:#000000;stop-opacity:1;"
         offset="0"
         id="stop6259" />
      <stop
         style="stop-color:#000000;stop-opacity:0;"
         offset="1"
         id="stop6261" />
    </linearGradient>
    <linearGradient
       inkscape:collect="always"
       id="linearGradient3378">
      <stop
         style="stop-color:#b0b0b0;stop-opacity:1"
         offset="0"
         id="stop3374" />
      <stop
         style="stop-color:#fcfcfc;stop-opacity:1"
         offset="1"
         id="stop3376" />
    </linearGradient>
    <linearGradient
       inkscape:collect="always"
       xlink:href="#linearGradient3378"
       id="linearGradient3380"
       x1="14.942825"
       y1="1.1138821"
       x2="11.503234"
       y2="4.3115072"
       gradientUnits="userSpaceOnUse"
       gradientTransform="translate(-0.5291663,-0.52916667)" />
    <linearGradient
       inkscape:collect="always"
       xlink:href="#linearGradient6263"
       id="linearGradient6265"
       x1="11.90625"
       y1="2.3812501"
       x2="12.170834"
       y2="7.1437502"
       gradientUnits="userSpaceOnUse"
       gradientTransform="translate(-0.52916663,0.52916673)" />
    <linearGradient
       inkscape:collect="always"
       xlink:href="#linearGradient8423"
       id="linearGradient8425"
       x1="13.692527"
       y1="11.622045"
       x2="1.6077259"
       y2="-0.71580184"
       gradientUnits="userSpaceOnUse" />
    <linearGradient
       inkscape:collect="always"
       xlink:href="#linearGradient10453"
       id="linearGradient10455"
       x1="10"
       y1="72.5"
       x2="58"
       y2="32.5"
       gradientUnits="userSpaceOnUse" />
  </defs>
  <path
     id="rect1068"
     style="fill:#e5e5e5;fill-opacity:1;stroke-width:0.529167;stroke-linejoin:round"
     d="m 3.175,0.5291667 7.143751,3e-8 3.968749,3.96874997 1e-6,11.3770833 c 0,0.293158 -0.236009,0.529167 -0.529167,0.529167 H 3.175 c -0.2931584,0 -0.5291667,-0.236009 -0.5291667,-0.529167 V 1.0583334 c 0,-0.29315835 0.2360083,-0.5291667 0.5291667,-0.5291667 z"
     sodipodi:nodetypes="cccsssssc" />
  <path
     id="rect8140"
     style="opacity:1;fill:url(#linearGradient8425);fill-opacity:1;stroke-width:0.518136;stroke-linejoin:round"
     d="m 3.175,0.5291668 h 7.143751 l -1e-6,2.9104166 0.79375,1.0583333 3.175,0 V 15.875 c 0,0.295111 -0.236009,0.529167 -0.529167,0.529167 H 3.175 c -0.293159,0 -0.529167,-0.236009 -0.529167,-0.529167 V 1.0583337 c 0,-0.2931589 0.236008,-0.5291669 0.529167,-0.5291669 z"
     sodipodi:nodetypes="sccccssssss" />
  <path
     id="path2"
     style="fill:#cccccc;fill-opacity:1;stroke:none;stroke-width:0.456775"
     d="m 8.2906221,5.8208334 c -0.6823755,0 -1.2350666,0.4884529 -1.2350666,1.0907172 0.00534,0.2231268 0.025188,0.4880081 0.1643312,1.0907171 0.082241,0.233794 0.8167094,0.8575601 0.8233776,0.9353434 0.160036,0.077783 0.411783,0.077783 0.5767088,0 0,-0.077783 0.6584553,-0.7015494 0.7406952,-0.9353434 0.1569243,-0.6267106 0.1563293,-0.856923 0.1643313,-1.0907171 0,-0.6022643 -0.5524465,-1.0907172 -1.2343775,-1.0907172 z M 7.721148,9.2524927 c -0.024784,-3.704e-4 -0.079691,0.00299 -0.1236789,0.037552 -0.2977324,0.289793 -1.5720766,0.507869 -1.6174722,0.9408547 l -0.1591635,1.212676 c 0,0.401484 1.1063481,0.727259 2.4697887,0.727259 1.3634405,0 2.4690999,-0.325317 2.4690999,-0.727259 L 10.600559,10.230899 C 10.598426,9.9032413 9.5288536,9.6882183 9.0268391,9.3231173 8.9636455,9.266264 8.8883465,9.2883218 8.8883465,9.2883218 c -0.054927,0.020489 -0.1452567,0.04701 -0.2625167,0.060289 -0.1563595,0.035999 -0.3944233,0.028698 -0.5767089,0 0,0 -0.1329778,-0.033476 -0.3148816,-0.095429 0,0 -0.00483,-5.645e-4 -0.013092,-6.867e-4 z" />
  <path
     id="rect9905"
     style="opacity:0.3;fill:url(#linearGradient10455);fill-opacity:1;stroke-width:2;stroke-linejoin:round"
     d="M 10 59 L 10 60 C 10 61.108 10.892 62 12 62 L 52 62 C 53.108 62 54 61.108 54 60 L 54 59 C 54 60.108 53.108 61 52 61 L 12 61 C 10.892 61 10 60.108 10 59 z "
     transform="scale(0.26458334)" />
  <path
     id="rect5598"
     style="opacity:0.2;fill:url(#linearGradient6265);fill-opacity:1;stroke-width:0.529167;stroke-linejoin:round"
     d="M 10.444901,4.3115072 10.31875,3.4395834 14.2875,4.4979167 v 3.7041668 z"
     sodipodi:nodetypes="ccccc" />
  <path
     id="rect2607"
     style="fill:url(#linearGradient3380);fill-opacity:1;stroke-width:0.529167;stroke-linejoin:round"
     d="m 14.2875,4.4979167 -3.439583,-1e-7 c -0.293158,0 -0.529166,-0.2360083 -0.529166,-0.5291667 V 0.52916673 Z"
     sodipodi:nodetypes="csscc" />
  <path
     id="path864"
     style="font-size:1.67233px;line-height:1.25;font-family:Roboto;-inkscape-font-specification:Roboto;text-align:center;text-anchor:middle;stroke-width:0.158015;fill:#808080"
     d="M 36.480469 51 C 36.12658 51 35.81086 51.088693 35.535156 51.265625 C 35.261509 51.440511 35.050587 51.694135 34.900391 52.025391 C 34.750195 52.356646 34.673828 52.737846 34.673828 53.169922 L 34.673828 53.494141 C 34.677943 53.917984 34.756052 54.290255 34.90625 54.613281 C 35.058504 54.934246 35.271276 55.182531 35.544922 55.357422 C 35.818568 55.530247 36.132439 55.617188 36.486328 55.617188 C 36.848447 55.617188 37.165911 55.530247 37.4375 55.357422 C 37.709096 55.184592 37.918274 54.934563 38.066406 54.607422 C 38.214539 54.278223 38.289062 53.893427 38.289062 53.453125 L 38.289062 53.169922 C 38.289062 52.731676 38.214539 52.346777 38.066406 52.017578 C 37.918266 51.686318 37.707344 51.434544 37.431641 51.261719 C 37.157994 51.086827 36.84053 51 36.480469 51 z M 44.464844 51 C 44.012195 51 43.643308 51.117118 43.359375 51.349609 C 43.077498 51.580047 42.9375 51.87072 42.9375 52.224609 C 42.9375 52.537355 43.052753 52.801653 43.283203 53.015625 C 43.5157 53.227538 43.884378 53.406643 44.392578 53.552734 C 44.79791 53.670001 45.078116 53.788758 45.232422 53.910156 C 45.386727 54.029496 45.464844 54.199777 45.464844 54.419922 C 45.464844 54.640067 45.381496 54.813835 45.214844 54.941406 C 45.048187 55.068978 44.808832 55.132813 44.496094 55.132812 C 44.160714 55.132813 43.891078 55.054809 43.689453 54.898438 C 43.489869 54.740012 43.390625 54.523542 43.390625 54.251953 L 42.794922 54.251953 C 42.794922 54.513247 42.86574 54.747368 43.009766 54.953125 C 43.155847 55.158875 43.363385 55.322074 43.630859 55.441406 C 43.898334 55.558698 44.18747 55.617187 44.496094 55.617188 C 44.971374 55.617188 45.350832 55.507166 45.634766 55.289062 C 45.918699 55.068913 46.060547 54.77824 46.060547 54.414062 C 46.060547 54.185686 46.009129 53.987077 45.90625 53.818359 C 45.805442 53.649644 45.647478 53.502459 45.435547 53.376953 C 45.225682 53.249381 44.93501 53.132263 44.560547 53.027344 C 44.188142 52.922399 43.92395 52.807146 43.767578 52.681641 C 43.613273 52.554089 43.535156 52.399928 43.535156 52.216797 C 43.535156 51.988423 43.616752 51.809212 43.779297 51.681641 C 43.943895 51.552028 44.172679 51.488281 44.464844 51.488281 C 44.779643 51.488281 45.022487 51.566285 45.195312 51.722656 C 45.368138 51.876967 45.455078 52.089739 45.455078 52.361328 L 46.050781 52.361328 C 46.050781 52.112371 45.983354 51.88174 45.849609 51.671875 C 45.717941 51.46201 45.531859 51.29902 45.289062 51.179688 C 45.048337 51.060355 44.773467 51 44.464844 51 z M 19.666016 51.0625 L 17.951172 55.554688 L 18.560547 55.554688 L 18.984375 54.382812 L 20.867188 54.382812 L 21.294922 55.554688 L 21.904297 55.554688 L 20.185547 51.0625 L 19.666016 51.0625 z M 22.367188 51.0625 L 22.367188 54.123047 C 22.371302 54.58804 22.518383 54.95342 22.810547 55.21875 C 23.102711 55.484169 23.494587 55.617188 23.986328 55.617188 L 24.144531 55.611328 C 24.59718 55.578408 24.955391 55.425781 25.21875 55.15625 C 25.484167 54.886719 25.617083 54.541031 25.619141 54.117188 L 25.619141 51.0625 L 25.023438 51.0625 L 25.023438 54.107422 C 25.023438 54.432509 24.93486 54.684283 24.755859 54.863281 C 24.578915 55.04228 24.321699 55.132812 23.986328 55.132812 C 23.655071 55.132813 23.401657 55.04228 23.222656 54.863281 C 23.043655 54.682222 22.953125 54.430551 22.953125 54.105469 L 22.953125 51.0625 L 22.367188 51.0625 z M 26.183594 51.0625 L 26.183594 51.548828 L 27.625 51.548828 L 27.625 55.554688 L 28.214844 55.554688 L 28.214844 51.548828 L 29.660156 51.548828 L 29.660156 51.0625 L 26.183594 51.0625 z M 30.326172 51.0625 L 30.326172 55.554688 L 30.917969 55.554688 L 30.917969 53.478516 L 33.183594 53.478516 L 33.183594 55.554688 L 33.779297 55.554688 L 33.779297 51.0625 L 33.183594 51.0625 L 33.183594 52.994141 L 30.917969 52.994141 L 30.917969 51.0625 L 30.326172 51.0625 z M 39.173828 51.0625 L 39.173828 55.554688 L 39.769531 55.554688 L 39.769531 53.738281 L 40.826172 53.738281 L 41.800781 55.554688 L 42.4375 55.554688 L 42.4375 55.517578 L 41.380859 53.611328 C 41.65039 53.508444 41.859567 53.35233 42.009766 53.144531 C 42.16203 52.936725 42.238281 52.693881 42.238281 52.414062 C 42.238281 51.973745 42.10177 51.638628 41.828125 51.408203 C 41.556536 51.177753 41.168254 51.0625 40.662109 51.0625 L 39.173828 51.0625 z M 36.445312 51.509766 C 36.45686 51.509486 36.468767 51.509766 36.480469 51.509766 C 36.86522 51.509766 37.164927 51.651508 37.378906 51.9375 C 37.592885 52.221436 37.699219 52.631174 37.699219 53.164062 L 37.699219 53.496094 C 37.693046 54.016638 37.584865 54.417447 37.375 54.697266 C 37.165136 54.975028 36.869022 55.113281 36.486328 55.113281 C 36.105692 55.113281 35.805984 54.966096 35.587891 54.671875 C 35.371853 54.375595 35.263672 53.969555 35.263672 53.453125 L 35.263672 53.123047 C 35.269845 52.616905 35.379771 52.221436 35.59375 51.9375 C 35.803036 51.660445 36.087347 51.518424 36.445312 51.509766 z M 39.769531 51.548828 L 40.677734 51.548828 C 40.990463 51.550894 41.227967 51.627258 41.392578 51.775391 C 41.55923 51.92353 41.642578 52.1363 41.642578 52.414062 C 41.642578 52.669181 41.555751 52.873126 41.380859 53.025391 C 41.208032 53.177655 40.973909 53.253906 40.679688 53.253906 L 39.769531 53.253906 L 39.769531 51.548828 z M 19.925781 51.792969 L 20.691406 53.894531 L 19.164062 53.894531 L 19.925781 51.792969 z "
     transform="scale(0.26458334)" />
  <text
     xml:space="preserve"
     style="font-size:10.5833px;line-height:1.25;font-family:'Noto Serif';-inkscape-font-specification:'Noto Serif';stroke-width:0.264583"
     x="11.210568"
     y="8.940918"
     id="text80811"><tspan
       sodipodi:role="line"
       id="tspan80809"
       style="stroke-width:0.264583" /></text>
</svg>
