<?xml version="1.0" encoding="UTF-8" standalone="no"?>
<!-- Created with Inkscape (http://www.inkscape.org/) -->

<svg
   width="64"
   height="64"
   viewBox="0 0 16.933333 16.933334"
   version="1.1"
   id="svg5"
   inkscape:version="1.1.1 (3bf5ae0d25, 2021-09-20, custom)"
   sodipodi:docname="text-x-sass.svg"
   xmlns:inkscape="http://www.inkscape.org/namespaces/inkscape"
   xmlns:sodipodi="http://sodipodi.sourceforge.net/DTD/sodipodi-0.dtd"
   xmlns:xlink="http://www.w3.org/1999/xlink"
   xmlns="http://www.w3.org/2000/svg"
   xmlns:svg="http://www.w3.org/2000/svg">
  <sodipodi:namedview
     id="namedview7"
     pagecolor="#ffffff"
     bordercolor="#666666"
     borderopacity="1.0"
     inkscape:pageshadow="2"
     inkscape:pageopacity="0.0"
     inkscape:pagecheckerboard="0"
     inkscape:document-units="px"
     showgrid="false"
     units="px"
     height="64px"
     inkscape:zoom="7.0821164"
     inkscape:cx="2.4004124"
     inkscape:cy="25.910334"
     inkscape:window-width="1920"
     inkscape:window-height="1019"
     inkscape:window-x="0"
     inkscape:window-y="0"
     inkscape:window-maximized="1"
     inkscape:current-layer="svg5" />
  <defs
     id="defs2">
    <linearGradient
       inkscape:collect="always"
       id="linearGradient962">
      <stop
         style="stop-color:#cf649a;stop-opacity:1;"
         offset="0"
         id="stop958" />
      <stop
         style="stop-color:#d77cd6;stop-opacity:1"
         offset="1"
         id="stop960" />
    </linearGradient>
    <linearGradient
       inkscape:collect="always"
       id="linearGradient10453">
      <stop
         style="stop-color:#666666;stop-opacity:1"
         offset="0"
         id="stop10449" />
      <stop
         style="stop-color:#666666;stop-opacity:0"
         offset="1"
         id="stop10451" />
    </linearGradient>
    <linearGradient
       inkscape:collect="always"
       id="linearGradient8423">
      <stop
         style="stop-color:#fcfcfc;stop-opacity:1"
         offset="0"
         id="stop8419" />
      <stop
         style="stop-color:#ffffff;stop-opacity:0;"
         offset="1"
         id="stop8421" />
    </linearGradient>
    <linearGradient
       inkscape:collect="always"
       id="linearGradient6263">
      <stop
         style="stop-color:#000000;stop-opacity:1;"
         offset="0"
         id="stop6259" />
      <stop
         style="stop-color:#000000;stop-opacity:0;"
         offset="1"
         id="stop6261" />
    </linearGradient>
    <linearGradient
       inkscape:collect="always"
       id="linearGradient3378">
      <stop
         style="stop-color:#b0b0b0;stop-opacity:1"
         offset="0"
         id="stop3374" />
      <stop
         style="stop-color:#fcfcfc;stop-opacity:1"
         offset="1"
         id="stop3376" />
    </linearGradient>
    <linearGradient
       inkscape:collect="always"
       xlink:href="#linearGradient3378"
       id="linearGradient3380"
       x1="14.942825"
       y1="1.1138821"
       x2="11.503234"
       y2="4.3115072"
       gradientUnits="userSpaceOnUse"
       gradientTransform="translate(-0.5291663,-0.52916667)" />
    <linearGradient
       inkscape:collect="always"
       xlink:href="#linearGradient6263"
       id="linearGradient6265"
       x1="11.90625"
       y1="2.3812501"
       x2="12.170834"
       y2="7.1437502"
       gradientUnits="userSpaceOnUse"
       gradientTransform="translate(-0.52916663,0.52916673)" />
    <linearGradient
       inkscape:collect="always"
       xlink:href="#linearGradient8423"
       id="linearGradient8425"
       x1="13.692527"
       y1="11.622045"
       x2="1.6077259"
       y2="-0.71580184"
       gradientUnits="userSpaceOnUse" />
    <linearGradient
       inkscape:collect="always"
       xlink:href="#linearGradient10453"
       id="linearGradient10455"
       x1="10"
       y1="72.5"
       x2="58"
       y2="32.5"
       gradientUnits="userSpaceOnUse" />
    <linearGradient
       inkscape:collect="always"
       xlink:href="#linearGradient962"
       id="linearGradient964"
       x1="4.2333331"
       y1="8.2010918"
       x2="4.233336"
       y2="11.905259"
       gradientUnits="userSpaceOnUse" />
    <linearGradient
       inkscape:collect="always"
       xlink:href="#linearGradient6263"
       id="linearGradient1374"
       gradientUnits="userSpaceOnUse"
       x1="4.2333331"
       y1="11.905258"
       x2="12.170836"
       y2="6.0844259"
       gradientTransform="matrix(3.7795275,0,0,3.7795275,0,1.0000001)" />
  </defs>
  <path
     id="rect1068"
     style="fill:#e5e5e5;fill-opacity:1;stroke-width:0.529167;stroke-linejoin:round"
     d="m 3.175,0.5291667 7.143751,3e-8 3.968749,3.96874997 1e-6,11.3770833 c 0,0.293158 -0.236009,0.529167 -0.529167,0.529167 H 3.175 c -0.2931584,0 -0.5291667,-0.236009 -0.5291667,-0.529167 V 1.0583334 c 0,-0.29315835 0.2360083,-0.5291667 0.5291667,-0.5291667 z"
     sodipodi:nodetypes="cccsssssc" />
  <path
     id="rect8140"
     style="opacity:1;fill:url(#linearGradient8425);fill-opacity:1;stroke-width:0.518136;stroke-linejoin:round"
     d="m 3.175,0.5291668 h 7.143751 l -1e-6,2.9104166 0.79375,1.0583333 3.175,0 V 15.875 c 0,0.295111 -0.236009,0.529167 -0.529167,0.529167 H 3.175 c -0.293159,0 -0.529167,-0.236009 -0.529167,-0.529167 V 1.0583337 c 0,-0.2931589 0.236008,-0.5291669 0.529167,-0.5291669 z"
     sodipodi:nodetypes="sccccssssss" />
  <path
     id="rect9905"
     style="opacity:0.3;fill:url(#linearGradient10455);fill-opacity:1;stroke-width:2;stroke-linejoin:round"
     d="M 10 59 L 10 60 C 10 61.108 10.892 62 12 62 L 52 62 C 53.108 62 54 61.108 54 60 L 54 59 C 54 60.108 53.108 61 52 61 L 12 61 C 10.892 61 10 60.108 10 59 z "
     transform="scale(0.26458334)" />
  <path
     id="rect5598"
     style="opacity:0.2;fill:url(#linearGradient6265);fill-opacity:1;stroke-width:0.529167;stroke-linejoin:round"
     d="M 10.444901,4.3115072 10.31875,3.4395834 14.2875,4.4979167 v 3.7041668 z"
     sodipodi:nodetypes="ccccc" />
  <path
     id="rect2607"
     style="fill:url(#linearGradient3380);fill-opacity:1;stroke-width:0.529167;stroke-linejoin:round"
     d="m 14.2875,4.4979167 -3.439583,-1e-7 c -0.293158,0 -0.529166,-0.2360083 -0.529166,-0.5291667 V 0.52916673 Z"
     sodipodi:nodetypes="csscc" />
  <path
     id="path864"
     style="font-size:1.67233px;line-height:1.25;font-family:Roboto;-inkscape-font-specification:Roboto;text-align:center;text-anchor:middle;stroke-width:0.158015;fill:#808080;fill-opacity:1"
     d="M 26.310547 51 C 25.857899 51 25.490965 51.117118 25.207031 51.349609 C 24.925155 51.580047 24.783203 51.87072 24.783203 52.224609 C 24.783203 52.537355 24.898466 52.801653 25.128906 53.015625 C 25.361403 53.227538 25.732034 53.406643 26.240234 53.552734 C 26.645559 53.670001 26.925765 53.788758 27.080078 53.910156 C 27.234391 54.029496 27.310547 54.199777 27.310547 54.419922 C 27.310547 54.640067 27.227204 54.813835 27.060547 54.941406 C 26.89389 55.068978 26.654536 55.132813 26.341797 55.132812 C 26.006427 55.132813 25.738745 55.054809 25.537109 54.898438 C 25.337533 54.740012 25.236328 54.523542 25.236328 54.251953 L 24.640625 54.251953 C 24.640625 54.513247 24.713397 54.747368 24.857422 54.953125 C 25.003504 55.158875 25.211041 55.322074 25.478516 55.441406 C 25.74599 55.558698 26.033173 55.617187 26.341797 55.617188 C 26.817078 55.617188 27.196535 55.507166 27.480469 55.289062 C 27.764403 55.068913 27.90625 54.77824 27.90625 54.414062 C 27.90625 54.185686 27.854827 53.987077 27.751953 53.818359 C 27.651135 53.649644 27.495124 53.502459 27.283203 53.376953 C 27.073339 53.249381 26.780713 53.132263 26.40625 53.027344 C 26.033843 52.922399 25.76965 52.807146 25.613281 52.681641 C 25.458971 52.554089 25.382812 52.399928 25.382812 52.216797 C 25.382813 51.988423 25.462458 51.809212 25.625 51.681641 C 25.789599 51.552028 26.018383 51.488281 26.310547 51.488281 C 26.625342 51.488281 26.870139 51.566285 27.042969 51.722656 C 27.215799 51.876967 27.300781 52.089739 27.300781 52.361328 L 27.896484 52.361328 C 27.896484 52.112371 27.831003 51.88174 27.697266 51.671875 C 27.565586 51.46201 27.37755 51.29902 27.134766 51.179688 C 26.894039 51.060355 26.619171 51 26.310547 51 z M 34.183594 51 C 33.730945 51 33.364012 51.117118 33.080078 51.349609 C 32.798202 51.580047 32.65625 51.87072 32.65625 52.224609 C 32.65625 52.537355 32.771513 52.801653 33.001953 53.015625 C 33.23445 53.227538 33.60508 53.406643 34.113281 53.552734 C 34.518606 53.670001 34.798812 53.788758 34.953125 53.910156 C 35.107438 54.029496 35.183594 54.199777 35.183594 54.419922 C 35.183594 54.640067 35.100251 54.813835 34.933594 54.941406 C 34.766937 55.068978 34.527583 55.132813 34.214844 55.132812 C 33.879473 55.132813 33.611792 55.054809 33.410156 54.898438 C 33.21058 54.740012 33.109375 54.523542 33.109375 54.251953 L 32.513672 54.251953 C 32.513672 54.513247 32.586444 54.747368 32.730469 54.953125 C 32.876551 55.158875 33.084089 55.322074 33.351562 55.441406 C 33.619037 55.558698 33.90622 55.617187 34.214844 55.617188 C 34.690125 55.617188 35.069582 55.507166 35.353516 55.289062 C 35.63745 55.068913 35.779297 54.77824 35.779297 54.414062 C 35.779297 54.185686 35.727874 53.987077 35.625 53.818359 C 35.524182 53.649644 35.368171 53.502459 35.15625 53.376953 C 34.946386 53.249381 34.653761 53.132263 34.279297 53.027344 C 33.90689 52.922399 33.642697 52.807146 33.486328 52.681641 C 33.332015 52.554089 33.255859 52.399928 33.255859 52.216797 C 33.255859 51.988423 33.335505 51.809212 33.498047 51.681641 C 33.662646 51.552028 33.89143 51.488281 34.183594 51.488281 C 34.498389 51.488281 34.743185 51.566285 34.916016 51.722656 C 35.088846 51.876967 35.173828 52.089739 35.173828 52.361328 L 35.769531 52.361328 C 35.769531 52.112371 35.70405 51.88174 35.570312 51.671875 C 35.438633 51.46201 35.250597 51.29902 35.007812 51.179688 C 34.767086 51.060355 34.492218 51 34.183594 51 z M 37.933594 51 C 37.480944 51 37.112059 51.117118 36.828125 51.349609 C 36.546248 51.580047 36.40625 51.87072 36.40625 52.224609 C 36.40625 52.537355 36.521513 52.801653 36.751953 53.015625 C 36.98445 53.227538 37.35508 53.406643 37.863281 53.552734 C 38.268613 53.670001 38.548819 53.788758 38.703125 53.910156 C 38.857431 54.029496 38.933594 54.199777 38.933594 54.419922 C 38.933594 54.640067 38.850246 54.813835 38.683594 54.941406 C 38.516937 55.068978 38.277585 55.132813 37.964844 55.132812 C 37.629474 55.132813 37.359838 55.054809 37.158203 54.898438 C 36.958626 54.740012 36.859375 54.523542 36.859375 54.251953 L 36.263672 54.251953 C 36.263672 54.513247 36.336444 54.747368 36.480469 54.953125 C 36.626551 55.158875 36.832135 55.322074 37.099609 55.441406 C 37.367084 55.558698 37.656221 55.617187 37.964844 55.617188 C 38.440127 55.617188 38.819582 55.507166 39.103516 55.289062 C 39.387449 55.068913 39.529297 54.77824 39.529297 54.414062 C 39.529297 54.185686 39.477879 53.987077 39.375 53.818359 C 39.274192 53.649644 39.118181 53.502459 38.90625 53.376953 C 38.696385 53.249381 38.403762 53.132263 38.029297 53.027344 C 37.656891 52.922399 37.392697 52.807146 37.236328 52.681641 C 37.082015 52.554089 37.003906 52.399928 37.003906 52.216797 C 37.003906 51.988423 37.085505 51.809212 37.248047 51.681641 C 37.412646 51.552028 37.641428 51.488281 37.933594 51.488281 C 38.248393 51.488281 38.49319 51.566285 38.666016 51.722656 C 38.838841 51.876967 38.923828 52.089739 38.923828 52.361328 L 39.519531 52.361328 C 39.519531 52.112371 39.454057 51.88174 39.320312 51.671875 C 39.188619 51.46201 39.000584 51.29902 38.757812 51.179688 C 38.517087 51.060355 38.242217 51 37.933594 51 z M 29.947266 51.0625 L 28.230469 55.554688 L 28.841797 55.554688 L 29.263672 54.382812 L 31.146484 54.382812 L 31.576172 55.554688 L 32.183594 55.554688 L 30.464844 51.0625 L 29.947266 51.0625 z M 30.205078 51.792969 L 30.970703 53.894531 L 29.443359 53.894531 L 30.205078 51.792969 z "
     transform="scale(0.26458334)" />
  <path
     id="path2"
     style="fill:url(#linearGradient964);stroke-width:0.012404;fill-opacity:1"
     d="M 8.1329616,6.3503057 C 7.8744917,6.3545692 7.5955167,6.403617 7.3214657,6.5009105 6.7992569,6.6869706 6.2337835,6.9776705 5.8269321,7.3584736 5.3431757,7.8099791 5.2657915,8.2037939 5.2980423,8.3675279 c 0.1128725,0.5842285 0.9177728,0.9657932 1.2402772,1.2473642 -0.016115,0.0087 -0.030649,0.01736 -0.044297,0.02481 -0.1612547,0.07939 -0.7755127,0.3998669 -0.9293222,0.7397369 -0.1736561,0.384524 0.027275,0.661773 0.1612359,0.698984 0.4142945,0.115359 0.838935,-0.09209 1.0684102,-0.433211 0.2282334,-0.341111 0.2011149,-0.7838352 0.095679,-0.9860199 l -0.00444,-0.0071 0.126685,-0.07442 c 0.08186,-0.04838 0.1622884,-0.09355 0.2329949,-0.132001 -0.039689,0.10792 -0.067494,0.235634 -0.08239,0.4216937 -0.017363,0.2183112 0.07174,0.5014172 0.1895852,0.6130532 0.052099,0.04838 0.1139234,0.04961 0.1523761,0.04961 0.1364465,0 0.1984377,-0.112855 0.2666599,-0.248055 0.084346,-0.164974 0.1585786,-0.3561372 0.1585786,-0.3561372 0,0 -0.093056,0.5173732 0.1612358,0.5173742 0.093039,0 0.186392,-0.120475 0.2285652,-0.182499 v 0.0018 c 0,0 0.00209,-0.0039 0.0071,-0.01239 0.00994,-0.01492 0.015052,-0.02392 0.015052,-0.02392 v -0.0027 c 0.037207,-0.06449 0.1204603,-0.211886 0.2445063,-0.4562452 0.1600014,-0.3150607 0.3136128,-0.7096144 0.3136128,-0.7096144 0,0 0.015275,0.09727 0.061128,0.2560277 0.027298,0.09427 0.086995,0.197196 0.1328875,0.297667 -0.037203,0.05212 -0.060225,0.08152 -0.060225,0.08152 l 0.00177,9.07e-4 c -0.029778,0.03969 -0.063602,0.08186 -0.098336,0.1240277 -0.1265204,0.151327 -0.2778188,0.3242382 -0.2976665,0.3738552 -0.023572,0.0583 -0.018434,0.101699 0.027465,0.136431 0.033502,0.02481 0.092662,0.02976 0.1559197,0.02481 0.1141085,-0.0074 0.1941869,-0.03579 0.2338808,-0.05316 0.062025,-0.02232 0.1319977,-0.05581 0.2002165,-0.105424 C 9.3812217,10.102523 9.456872,9.9719548 9.44943,9.7982998 9.44562,9.7028001 9.415239,9.6085461 9.376785,9.5192381 9.387928,9.5031281 9.399269,9.4869981 9.41045,9.4696281 9.606444,9.1830874 9.7577275,8.8680934 9.7577275,8.8680934 c 0,0 0.014383,0.09638 0.060242,0.255143 0.023577,0.08062 0.071226,0.1692007 0.1133966,0.2560287 -0.1835781,0.150092 -0.2996115,0.323524 -0.339304,0.4376407 -0.073184,0.2108672 -0.015772,0.3063452 0.092134,0.3286732 0.048379,0.0099 0.1180138,-0.01215 0.170096,-0.03455 0.0645,-0.02109 0.142453,-0.05741 0.2143899,-0.11074 0.124033,-0.09178 0.24274,-0.2191572 0.236539,-0.3915729 -0.0038,-0.07939 -0.02463,-0.157687 -0.05316,-0.232109 0.156281,-0.06449 0.358947,-0.101887 0.615709,-0.07087 0.551978,0.06449 0.660715,0.409809 0.639629,0.5536957 -0.02109,0.1438862 -0.136076,0.2232482 -0.174525,0.2480552 -0.03845,0.02358 -0.05069,0.03224 -0.04695,0.04961 0.005,0.02604 0.02232,0.02443 0.05581,0.01949 0.0459,-0.0074 0.289519,-0.118164 0.299441,-0.3836012 0.0149,-0.3411077 -0.308063,-0.7124514 -0.882369,-0.7087294 v -9.07e-4 c -0.22203,0.0012 -0.414591,0.0544 -0.575843,0.1337717 -0.05954,-0.1178457 -0.118532,-0.2207607 -0.128458,-0.2976667 -0.01114,-0.0893 -0.02518,-0.143153 -0.01152,-0.2498268 0.01371,-0.1066665 0.0753,-0.2586838 0.0753,-0.271089 -0.0012,-0.011143 -0.01317,-0.065205 -0.1408599,-0.066443 -0.127755,-0.00122 -0.2383082,0.024975 -0.2507134,0.058469 -0.012343,0.033502 -0.03704,0.1101895 -0.053155,0.1895855 -0.022321,0.1165923 -0.2553069,0.5297543 -0.388029,0.746823 -0.043409,-0.08434 -0.081152,-0.1592777 -0.088592,-0.2188197 -0.011143,-0.0893 -0.024294,-0.144038 -0.010629,-0.250713 0.013715,-0.106669 0.075303,-0.2577979 0.075303,-0.2702031 -0.00122,-0.011143 -0.014058,-0.065205 -0.1417454,-0.066445 -0.1277547,-0.00122 -0.2374239,0.024085 -0.2498272,0.057585 -0.012343,0.033498 -0.026747,0.1135611 -0.054041,0.1904711 -0.026041,0.0769 -0.3357524,0.7662967 -0.4163789,0.9461547 -0.04094,0.09179 -0.076724,0.1647737 -0.1027647,0.2143897 -0.013029,0.02481 -0.013252,0.0259 -0.010629,0.02126 -0.015052,0.02848 -0.028348,0.05316 -0.028348,0.05316 v 0.0018 c -0.01736,0.03101 -0.035602,0.06024 -0.044297,0.06024 -0.00619,0 -0.019228,-0.08256 0.00177,-0.1966732 0.045893,-0.2393967 0.1580592,-0.6126947 0.1568077,-0.6263397 0,-0.0062 0.021265,-0.07192 -0.071759,-0.1054227 -0.090553,-0.03348 -0.1227882,0.02215 -0.1302285,0.02215 -0.00737,0 -0.014178,0.01949 -0.014178,0.01949 0,0 0.1004966,-0.419922 -0.1922428,-0.419922 -0.1835784,0 -0.4363879,0.19949 -0.5616683,0.381828 -0.0794,0.04341 -0.2483919,0.1350117 -0.4270095,0.2329947 -0.068217,0.03722 -0.1385568,0.07654 -0.2055321,0.112511 L 6.75536,9.4722901 C 6.4006364,9.0939334 5.7447087,8.8255934 5.7719983,8.3170297 5.7819408,8.1322101 5.846826,7.6450355 7.0326514,7.0546043 8.0038857,6.5708488 8.780897,6.7035778 8.9161006,6.9987923 9.1083633,7.4205274 8.5012397,8.2041522 7.4915535,8.3170297 7.1070287,8.3604379 6.9045516,8.2116124 6.8536968,8.1557935 6.8003604,8.0974884 6.7929311,8.0950218 6.773079,8.1061824 c -0.032245,0.017363 -0.012343,0.069093 0,0.1001074 0.029778,0.07814 0.1541299,0.2175732 0.3649955,0.2870354 0.1848187,0.060773 0.6360307,0.093925 1.1818071,-0.1169406 C 8.9313987,8.1394676 9.4088585,7.4818453 9.2686936,6.9323485 9.1706276,6.5477474 8.7015947,6.3409249 8.1329616,6.3503057 Z m -0.182498,2.6550787 c 0.021753,-0.0016 0.038424,0.0043 0.046954,0.01861 0.032245,0.05954 -0.1224351,0.4914937 -0.1621222,0.5882457 C 7.7720364,9.7672868 7.637745,10.165228 7.557119,10.142901 7.487652,10.124301 7.4459043,9.8231148 7.543833,9.5254181 7.593446,9.3753261 7.6988595,9.1962214 7.7608812,9.1267584 c 0.06908,-0.07675 0.1417283,-0.117798 0.1895855,-0.121371 z m 2.0712624,0.4916807 c 0.01234,0.03722 0.01986,0.07283 0.01861,0.10631 -0.0012,0.2232717 -0.1601689,0.3063447 -0.2569142,0.3410767 -0.019862,-0.01492 -0.017363,-0.06075 0.049611,-0.204646 0.026041,-0.05705 0.085741,-0.1521977 0.1886992,-0.2427397 z M 6.6898104,9.7406908 c 0.083113,0.3026582 0.00454,0.5682042 -0.1878132,0.7778312 -0.1823384,0.199704 -0.4392248,0.275348 -0.54838,0.210848 -0.1178458,-0.06821 -0.072119,-0.361964 0.1523778,-0.574072 0.1364464,-0.129006 0.3139557,-0.2484012 0.4305534,-0.3215862 0.026041,-0.01611 0.065382,-0.03969 0.1125108,-0.06822 0.00739,-0.005 0.012395,-0.0071 0.012395,-0.0071 0.00874,-0.005 0.018424,-0.0115 0.028348,-0.01772 z m 2.493843,0.03632 v 0.01505 c 0,0.178618 -0.1711534,0.2971302 -0.2480554,0.3455052 -0.027298,0.01371 -0.052627,0.02429 -0.063786,0.01684 -0.00874,-0.005 0.01152,-0.02392 0.01152,-0.02392 0,0 0.1376619,-0.1479392 0.1922429,-0.2161622 0.031016,-0.03969 0.068392,-0.08521 0.1080809,-0.137316 z" />
  <path
     id="path2-7"
     style="opacity:0.3;fill:url(#linearGradient1374);fill-opacity:1;stroke-width:0.0468813"
     d="M 31.083984 25.451172 C 29.860119 25.461017 28.300769 25.805062 26.580078 26.662109 C 22.098218 28.89366 21.852031 30.735063 21.814453 31.433594 C 21.803502 31.637683 21.824369 31.832376 21.867188 32.017578 C 22.03891 31.141096 22.806877 29.540814 26.580078 27.662109 C 30.250885 25.833742 33.188213 26.335401 33.699219 27.451172 C 33.724957 27.507629 33.745448 27.567237 33.763672 27.626953 C 33.870521 27.198379 33.854868 26.792593 33.699219 26.451172 C 33.427747 25.858418 32.471032 25.440014 31.083984 25.451172 z M 35.083984 27.466797 C 34.824864 29.199302 33.298862 30.940092 31.445312 31.658203 C 30.846203 31.889674 30.27876 32.040805 29.755859 32.136719 C 29.304594 32.274541 28.823402 32.376696 28.314453 32.433594 C 26.861131 32.597656 26.096504 32.035188 25.904297 31.824219 C 25.702712 31.603853 25.674641 31.594535 25.599609 31.636719 C 25.477739 31.702343 25.552959 31.898405 25.599609 32.015625 C 25.712156 32.310957 26.181543 32.839028 26.978516 33.101562 C 27.677043 33.331256 29.382536 33.455175 31.445312 32.658203 C 33.658624 31.800711 35.404994 29.485362 35.083984 27.466797 z M 20.066406 31.810547 C 19.98934 32.153893 19.985346 32.431613 20.023438 32.625 C 20.376354 34.451698 22.517629 35.753983 23.9375 36.751953 C 24.19595 36.60945 24.412581 36.498749 24.544922 36.433594 C 24.596505 36.405436 24.65003 36.372726 24.710938 36.339844 C 23.526436 35.305683 20.621045 33.914586 20.066406 31.810547 z M 38.003906 32.529297 C 37.984494 32.611374 37.966639 32.69283 37.957031 32.767578 C 37.911477 33.123322 37.948314 33.327498 37.986328 33.601562 C 38.066376 33.222597 38.242187 32.782936 38.242188 32.742188 C 38.238829 32.710999 38.213 32.591444 38.003906 32.529297 z M 34.765625 33.242188 C 34.746538 33.323034 34.730196 33.402735 34.720703 33.476562 C 34.674911 33.834034 34.708469 34.041648 34.746094 34.318359 C 34.825374 33.938303 35.003906 33.496103 35.003906 33.455078 C 35.000502 33.423983 34.973951 33.304495 34.765625 33.242188 z M 36.878906 33.517578 C 36.878906 33.517578 36.307171 34.708027 35.566406 35.791016 C 35.524147 35.856666 35.481568 35.917627 35.439453 35.978516 C 35.532674 36.195017 35.614396 36.418293 35.664062 36.646484 C 36.357022 35.604732 36.878906 34.517578 36.878906 34.517578 C 36.878906 34.517578 36.934097 34.882373 37.107422 35.482422 C 37.132576 35.568435 37.165984 35.656112 37.203125 35.746094 C 37.306494 35.645703 37.416753 35.546024 37.535156 35.449219 C 37.375771 35.12105 37.196532 34.787127 37.107422 34.482422 C 36.934097 33.882373 36.878906 33.517578 36.878906 33.517578 z M 30.099609 34.105469 C 29.974219 34.105469 29.839264 34.131365 29.701172 34.175781 C 29.582812 34.251925 29.455737 34.356699 29.332031 34.494141 C 29.097619 34.756678 28.699232 35.434676 28.511719 36.001953 C 28.287348 36.684025 28.258763 37.369413 28.328125 37.820312 C 28.361512 37.557135 28.420318 37.279804 28.511719 37.001953 C 28.699232 36.434676 29.097619 35.756678 29.332031 35.494141 C 29.593121 35.204062 29.867951 35.048661 30.048828 35.035156 C 30.052934 35.034854 30.056538 35.035316 30.060547 35.035156 C 30.186679 34.612911 30.278329 34.225477 30.230469 34.113281 C 30.189039 34.107898 30.146163 34.105469 30.099609 34.105469 z M 33.638672 34.234375 C 33.638672 34.234375 33.057855 35.725236 32.453125 36.916016 C 31.98429 37.839579 31.669922 38.396883 31.529297 38.640625 L 31.529297 38.650391 C 31.529297 38.650391 31.510225 38.683844 31.472656 38.740234 C 31.453721 38.772323 31.445312 38.787109 31.445312 38.787109 L 31.445312 38.78125 C 31.285918 39.015671 30.933675 39.470703 30.582031 39.470703 C 30.179592 39.470702 30.007646 39.127093 29.943359 38.728516 C 29.883994 39.226561 29.811212 40.4707 30.582031 40.470703 C 30.933675 40.470703 31.285918 40.015671 31.445312 39.78125 L 31.445312 39.787109 C 31.445312 39.787109 31.453721 39.772323 31.472656 39.740234 C 31.510225 39.683844 31.529297 39.650391 31.529297 39.650391 L 31.529297 39.640625 C 31.669922 39.396883 31.98429 38.839577 32.453125 37.916016 C 33.057855 36.725236 33.638672 35.234375 33.638672 35.234375 C 33.638672 35.234375 33.695838 35.601143 33.869141 36.201172 C 33.918222 36.370667 33.994374 36.548735 34.080078 36.728516 C 34.103222 36.698466 34.128332 36.668073 34.150391 36.638672 L 34.144531 36.634766 C 34.144531 36.634766 34.230484 36.523161 34.371094 36.326172 C 34.197642 35.946439 33.972314 35.557468 33.869141 35.201172 C 33.695838 34.601143 33.638672 34.234375 33.638672 34.234375 z M 30.832031 34.664062 C 30.830138 34.672684 30.826172 34.693359 30.826172 34.693359 C 30.826172 34.693359 30.830895 34.681253 30.833984 34.673828 C 30.833102 34.670608 30.83294 34.667272 30.832031 34.664062 z M 40.664062 35.330078 C 39.977352 35.33379 39.365761 35.470156 38.832031 35.683594 C 38.895105 35.889849 38.938961 36.102107 38.949219 36.316406 C 38.949809 36.332825 38.94922 36.349032 38.949219 36.365234 C 39.509875 36.16959 40.209528 36.06742 41.074219 36.171875 C 42.516709 36.340407 43.158376 37.014819 43.390625 37.595703 C 43.437554 37.49717 43.474147 37.386752 43.492188 37.263672 C 43.530158 37.004571 43.455485 36.573623 43.142578 36.166016 C 42.573403 35.666787 41.735001 35.327044 40.664062 35.333984 L 40.664062 35.330078 z M 31.472656 35.582031 C 31.335436 36.085032 31.153055 36.76728 31.050781 37.300781 C 30.971419 37.73208 31.019573 38.044922 31.042969 38.044922 C 31.060072 38.044922 31.088047 38.013971 31.119141 37.96875 C 31.315723 37.087044 31.646762 35.97921 31.642578 35.933594 C 31.642578 35.912767 31.705377 35.714834 31.472656 35.582031 z M 37.876953 35.894531 C 37.713465 36.038304 37.581117 36.184317 37.472656 36.322266 C 37.493663 36.364735 37.514599 36.406891 37.535156 36.449219 C 37.412231 36.549721 37.298121 36.653509 37.191406 36.757812 C 37.182148 36.776337 37.171751 36.795656 37.164062 36.8125 C 36.910932 37.356359 36.901494 37.529547 36.976562 37.585938 C 37.123854 37.533059 37.30925 37.449317 37.478516 37.314453 C 37.55714 37.215115 37.647221 37.111664 37.753906 37.007812 C 37.868104 36.826479 37.94566 36.595646 37.947266 36.296875 C 37.95199 36.170336 37.923592 36.035205 37.876953 35.894531 z M 27.314453 35.910156 C 27.00365 36.079351 26.761339 36.211328 26.363281 36.429688 C 26.268094 36.481623 26.172503 36.532875 26.076172 36.585938 C 26.16907 36.787182 26.24222 37.039659 26.287109 37.326172 L 26.503906 37.199219 C 26.71684 37.073373 26.921547 36.957685 27.119141 36.847656 C 27.166708 36.476705 27.232377 36.175417 27.314453 35.910156 z M 25.285156 36.814453 C 25.247648 36.837962 25.210767 36.863915 25.177734 36.882812 C 25.177734 36.882813 25.15879 36.889305 25.130859 36.908203 C 24.952735 37.016033 24.803501 37.105127 24.705078 37.166016 C 24.67126 37.187242 24.628152 37.21506 24.591797 37.238281 C 24.633313 37.272288 24.672846 37.306587 24.710938 37.339844 C 24.65003 37.372726 24.596505 37.405436 24.544922 37.433594 C 24.354464 37.527361 23.995673 37.710867 23.576172 37.957031 C 23.574333 37.958483 23.572151 37.959484 23.570312 37.960938 C 23.399503 38.095965 23.231602 38.237705 23.078125 38.382812 C 22.325088 39.094293 22.103804 40.047613 22.375 40.433594 C 22.500502 40.083816 22.733324 39.708586 23.078125 39.382812 C 23.593828 38.895231 24.264394 38.44262 24.705078 38.166016 C 24.803501 38.105127 24.952735 38.016033 25.130859 37.908203 C 25.15879 37.889305 25.177734 37.882812 25.177734 37.882812 C 25.210767 37.863915 25.247648 37.837962 25.285156 37.814453 C 25.320595 37.943505 25.345091 38.071886 25.365234 38.197266 C 25.439655 37.765764 25.419193 37.302554 25.285156 36.814453 z M 38.869141 36.816406 C 38.722543 37.222609 38.394367 37.545525 38.054688 37.796875 C 37.962132 37.86549 37.86836 37.926488 37.773438 37.980469 C 37.566706 38.33058 37.219423 38.498749 36.976562 38.585938 C 36.93257 38.552891 36.920705 38.476873 36.966797 38.3125 C 36.836933 38.347848 36.706279 38.367132 36.601562 38.345703 C 36.451149 38.314579 36.327449 38.245205 36.244141 38.130859 C 35.982444 38.908056 36.198598 39.262321 36.601562 39.345703 C 36.784412 39.38312 37.047295 39.299505 37.244141 39.214844 C 37.48792 39.135134 37.7828 38.998437 38.054688 38.796875 C 38.523474 38.44999 38.972656 37.968055 38.949219 37.316406 C 38.94114 37.147624 38.911675 36.980703 38.869141 36.816406 z M 34.708984 36.953125 C 34.558979 37.150061 34.418007 37.320694 34.300781 37.470703 C 34.242884 37.543072 34.161187 37.639423 34.072266 37.740234 C 33.979691 37.860086 33.881677 37.983132 33.779297 38.107422 C 33.703097 38.198562 33.623488 38.291698 33.544922 38.384766 C 33.591984 38.398778 33.678283 38.361262 33.771484 38.314453 C 34.062138 38.131618 34.708984 37.684857 34.708984 37.009766 L 34.708984 36.953125 z M 43.931641 37.408203 C 43.842896 37.69799 43.676468 37.920816 43.5 38.085938 C 43.502463 38.150684 43.49985 38.211382 43.492188 38.263672 C 43.412477 38.807493 42.97735 39.107413 42.832031 39.201172 C 42.686708 39.290293 42.642115 39.323021 42.65625 39.388672 C 42.675148 39.487091 42.740611 39.481561 42.867188 39.462891 C 43.040668 39.434922 43.960546 39.016898 43.998047 38.013672 C 44.006819 37.812844 43.983604 37.608786 43.931641 37.408203 z M 29.972656 37.515625 C 29.972656 37.515625 29.691835 38.237804 29.373047 38.861328 C 29.115199 39.37232 28.880938 39.798828 28.365234 39.798828 C 28.219901 39.798828 27.985972 39.794182 27.789062 39.611328 C 27.463209 39.302644 27.196099 38.646905 27.101562 37.994141 C 27.09095 38.090087 27.0807 38.189566 27.072266 38.294922 C 27.006642 39.120034 27.343663 40.189397 27.789062 40.611328 C 27.985972 40.794182 28.219901 40.798828 28.365234 40.798828 C 28.880938 40.798828 29.115199 40.37232 29.373047 39.861328 C 29.619664 39.378966 29.839068 38.845506 29.927734 38.625 C 29.867087 38.096321 29.972656 37.515625 29.972656 37.515625 z M 35.652344 37.601562 C 35.545545 37.983909 35.310576 38.290813 34.988281 38.529297 C 34.753974 38.699703 34.514613 38.818539 34.296875 38.902344 C 34.111154 39.092674 33.904163 39.230992 33.771484 39.314453 C 33.668311 39.36627 33.573426 39.407064 33.53125 39.378906 C 33.498217 39.360009 33.574219 39.289063 33.574219 39.289062 C 33.574219 39.289062 33.683623 39.170483 33.775391 39.070312 C 33.651514 39.096561 33.508609 39.118468 33.347656 39.128906 C 33.199008 39.140538 33.056543 39.137672 32.939453 39.111328 C 32.791259 39.296978 32.683918 39.445483 32.654297 39.519531 C 32.565206 39.739878 32.584336 39.903886 32.757812 40.035156 C 32.884434 40.128926 33.108572 40.147615 33.347656 40.128906 C 33.778932 40.100938 34.080445 39.993385 34.230469 39.927734 C 34.464894 39.843375 34.730446 39.716814 34.988281 39.529297 C 35.457073 39.182412 35.742971 38.689537 35.714844 38.033203 C 35.70907 37.888482 35.6859 37.743868 35.652344 37.601562 z M 26.308594 38.462891 C 26.241168 39.055889 26.050206 39.680608 25.679688 40.234375 C 24.81238 41.523651 23.206462 42.307096 21.640625 41.871094 C 21.349665 41.790272 20.975403 41.409026 20.833984 40.824219 C 20.588319 41.962421 21.206511 42.750508 21.640625 42.871094 C 23.206462 43.307096 24.81238 42.523651 25.679688 41.234375 C 26.269976 40.352148 26.40776 39.290414 26.308594 38.462891 z "
     transform="scale(0.26458334)" />
</svg>
