<?xml version="1.0" encoding="UTF-8" standalone="no"?>
<!-- Created with Inkscape (http://www.inkscape.org/) -->

<svg
   width="64"
   height="64"
   viewBox="0 0 16.933333 16.933334"
   version="1.1"
   id="svg5"
   inkscape:version="1.1.1 (3bf5ae0d25, 2021-09-20, custom)"
   sodipodi:docname="text-x-go.svg"
   xmlns:inkscape="http://www.inkscape.org/namespaces/inkscape"
   xmlns:sodipodi="http://sodipodi.sourceforge.net/DTD/sodipodi-0.dtd"
   xmlns:xlink="http://www.w3.org/1999/xlink"
   xmlns="http://www.w3.org/2000/svg"
   xmlns:svg="http://www.w3.org/2000/svg">
  <sodipodi:namedview
     id="namedview7"
     pagecolor="#ffffff"
     bordercolor="#666666"
     borderopacity="1.0"
     inkscape:pageshadow="2"
     inkscape:pageopacity="0.0"
     inkscape:pagecheckerboard="0"
     inkscape:document-units="px"
     showgrid="false"
     units="px"
     height="64px"
     inkscape:zoom="10.015625"
     inkscape:cx="32"
     inkscape:cy="31.850234"
     inkscape:window-width="1541"
     inkscape:window-height="947"
     inkscape:window-x="23"
     inkscape:window-y="15"
     inkscape:window-maximized="0"
     inkscape:current-layer="svg5" />
  <defs
     id="defs2">
    <linearGradient
       inkscape:collect="always"
       id="linearGradient1618">
      <stop
         style="stop-color:#00acd7;stop-opacity:1;"
         offset="0"
         id="stop1614" />
      <stop
         style="stop-color:#25e1ff;stop-opacity:1"
         offset="1"
         id="stop1616" />
    </linearGradient>
    <linearGradient
       inkscape:collect="always"
       id="linearGradient1372">
      <stop
         style="stop-color:#000000;stop-opacity:1;"
         offset="0"
         id="stop1368" />
      <stop
         style="stop-color:#000000;stop-opacity:0;"
         offset="1"
         id="stop1370" />
    </linearGradient>
    <linearGradient
       inkscape:collect="always"
       id="linearGradient10453">
      <stop
         style="stop-color:#666666;stop-opacity:1"
         offset="0"
         id="stop10449" />
      <stop
         style="stop-color:#666666;stop-opacity:0"
         offset="1"
         id="stop10451" />
    </linearGradient>
    <linearGradient
       inkscape:collect="always"
       id="linearGradient8423">
      <stop
         style="stop-color:#fcfcfc;stop-opacity:1"
         offset="0"
         id="stop8419" />
      <stop
         style="stop-color:#ffffff;stop-opacity:0;"
         offset="1"
         id="stop8421" />
    </linearGradient>
    <linearGradient
       inkscape:collect="always"
       id="linearGradient6263">
      <stop
         style="stop-color:#000000;stop-opacity:1;"
         offset="0"
         id="stop6259" />
      <stop
         style="stop-color:#000000;stop-opacity:0;"
         offset="1"
         id="stop6261" />
    </linearGradient>
    <linearGradient
       inkscape:collect="always"
       id="linearGradient3378">
      <stop
         style="stop-color:#b0b0b0;stop-opacity:1"
         offset="0"
         id="stop3374" />
      <stop
         style="stop-color:#fcfcfc;stop-opacity:1"
         offset="1"
         id="stop3376" />
    </linearGradient>
    <linearGradient
       inkscape:collect="always"
       xlink:href="#linearGradient3378"
       id="linearGradient3380"
       x1="14.942825"
       y1="1.1138821"
       x2="11.503234"
       y2="4.3115072"
       gradientUnits="userSpaceOnUse"
       gradientTransform="translate(-0.5291663,-0.52916667)" />
    <linearGradient
       inkscape:collect="always"
       xlink:href="#linearGradient6263"
       id="linearGradient6265"
       x1="11.90625"
       y1="2.3812501"
       x2="12.170834"
       y2="7.1437502"
       gradientUnits="userSpaceOnUse"
       gradientTransform="translate(-0.52916663,0.52916673)" />
    <linearGradient
       inkscape:collect="always"
       xlink:href="#linearGradient8423"
       id="linearGradient8425"
       x1="13.692527"
       y1="11.622045"
       x2="1.6077259"
       y2="-0.71580184"
       gradientUnits="userSpaceOnUse" />
    <linearGradient
       inkscape:collect="always"
       xlink:href="#linearGradient10453"
       id="linearGradient10455"
       x1="10"
       y1="72.5"
       x2="58"
       y2="32.5"
       gradientUnits="userSpaceOnUse" />
    <linearGradient
       inkscape:collect="always"
       xlink:href="#linearGradient1372"
       id="linearGradient1374"
       x1="42.000557"
       y1="45.037685"
       x2="49.99955"
       y2="27.037685"
       gradientUnits="userSpaceOnUse" />
    <linearGradient
       inkscape:collect="always"
       xlink:href="#linearGradient1618"
       id="linearGradient1620"
       x1="12.699998"
       y1="8.2632437"
       x2="12.17083"
       y2="10.909078"
       gradientUnits="userSpaceOnUse" />
  </defs>
  <path
     id="rect1068"
     style="fill:#e5e5e5;fill-opacity:1;stroke-width:0.529167;stroke-linejoin:round"
     d="m 3.175,0.5291667 7.143751,3e-8 3.968749,3.96874997 1e-6,11.3770833 c 0,0.293158 -0.236009,0.529167 -0.529167,0.529167 H 3.175 c -0.2931584,0 -0.5291667,-0.236009 -0.5291667,-0.529167 V 1.0583334 c 0,-0.29315835 0.2360083,-0.5291667 0.5291667,-0.5291667 z"
     sodipodi:nodetypes="cccsssssc" />
  <path
     id="rect8140"
     style="opacity:1;fill:url(#linearGradient8425);fill-opacity:1;stroke-width:0.518136;stroke-linejoin:round"
     d="m 3.175,0.5291668 h 7.143751 l -1e-6,2.9104166 0.79375,1.0583333 3.175,0 V 15.875 c 0,0.295111 -0.236009,0.529167 -0.529167,0.529167 H 3.175 c -0.293159,0 -0.529167,-0.236009 -0.529167,-0.529167 V 1.0583337 c 0,-0.2931589 0.236008,-0.5291669 0.529167,-0.5291669 z"
     sodipodi:nodetypes="sccccssssss" />
  <path
     id="rect9905"
     style="opacity:0.3;fill:url(#linearGradient10455);fill-opacity:1;stroke-width:2;stroke-linejoin:round"
     d="M 10 59 L 10 60 C 10 61.108 10.892 62 12 62 L 52 62 C 53.108 62 54 61.108 54 60 L 54 59 C 54 60.108 53.108 61 52 61 L 12 61 C 10.892 61 10 60.108 10 59 z "
     transform="scale(0.26458334)" />
  <path
     id="rect5598"
     style="opacity:0.2;fill:url(#linearGradient6265);fill-opacity:1;stroke-width:0.529167;stroke-linejoin:round"
     d="M 10.444901,4.3115072 10.31875,3.4395834 14.2875,4.4979167 v 3.7041668 z"
     sodipodi:nodetypes="ccccc" />
  <path
     id="rect2607"
     style="fill:url(#linearGradient3380);fill-opacity:1;stroke-width:0.529167;stroke-linejoin:round"
     d="m 14.2875,4.4979167 -3.439583,-1e-7 c -0.293158,0 -0.529166,-0.2360083 -0.529166,-0.5291667 V 0.52916673 Z"
     sodipodi:nodetypes="csscc" />
  <path
     id="path862"
     style="font-size:1.67233px;line-height:1.25;font-family:Roboto;-inkscape-font-specification:Roboto;text-align:center;text-anchor:middle;stroke-width:0.158015;fill:#808080"
     d="M 29.884766 51 C 29.338381 51.011274 28.910468 51.197827 28.603516 51.558594 C 28.288719 51.931001 28.132812 52.455897 28.132812 53.132812 L 28.132812 53.525391 C 28.13693 53.943061 28.21483 54.3101 28.369141 54.626953 C 28.52551 54.943811 28.745363 55.188503 29.029297 55.361328 C 29.313231 55.532112 29.639626 55.617188 30.005859 55.617188 C 30.367978 55.617188 30.683489 55.564017 30.955078 55.457031 C 31.228725 55.347994 31.441496 55.182948 31.59375 54.964844 L 31.59375 53.318359 L 29.964844 53.318359 L 29.964844 53.798828 L 31.005859 53.798828 L 31.005859 54.808594 C 30.896812 54.92586 30.758454 55.009208 30.591797 55.058594 C 30.425139 55.10798 30.230021 55.132812 30.007812 55.132812 C 29.614833 55.132812 29.302706 54.983777 29.072266 54.6875 C 28.841825 54.389164 28.726562 53.988463 28.726562 53.484375 L 28.726562 53.117188 C 28.728621 52.588411 28.833418 52.185963 29.037109 51.908203 C 29.242859 51.628382 29.542357 51.488281 29.939453 51.488281 C 30.536125 51.488281 30.890848 51.784291 31.001953 52.378906 L 31.59375 52.378906 C 31.529968 51.938599 31.356304 51.599993 31.070312 51.361328 C 30.784321 51.120597 30.406608 51 29.9375 51 C 29.919626 51 29.902391 50.999636 29.884766 51 z M 34.230469 51 C 33.87658 51 33.56086 51.088693 33.285156 51.265625 C 33.011509 51.440511 32.800587 51.694135 32.650391 52.025391 C 32.500195 52.356646 32.425781 52.737846 32.425781 53.169922 L 32.425781 53.494141 C 32.429896 53.917984 32.506053 54.290255 32.65625 54.613281 C 32.808504 54.934251 33.021276 55.182536 33.294922 55.357422 C 33.568568 55.530247 33.88244 55.617188 34.236328 55.617188 C 34.598447 55.617188 34.915911 55.530247 35.1875 55.357422 C 35.459089 55.184592 35.668266 54.934563 35.816406 54.607422 C 35.964546 54.278223 36.039062 53.893427 36.039062 53.453125 L 36.039062 53.169922 C 36.039062 52.731676 35.964546 52.346777 35.816406 52.017578 C 35.668267 51.686318 35.457345 51.434544 35.181641 51.261719 C 34.907994 51.086827 34.59053 51 34.230469 51 z M 34.195312 51.509766 C 34.20686 51.509486 34.218767 51.509766 34.230469 51.509766 C 34.61522 51.509766 34.914927 51.651508 35.128906 51.9375 C 35.342885 52.221436 35.449219 52.631174 35.449219 53.164062 L 35.449219 53.496094 C 35.443046 54.016638 35.334865 54.417447 35.125 54.697266 C 34.915136 54.975028 34.619022 55.113281 34.236328 55.113281 C 33.855692 55.113281 33.555984 54.966096 33.337891 54.671875 C 33.121853 54.375595 33.013672 53.969555 33.013672 53.453125 L 33.013672 53.123047 C 33.019845 52.616905 33.129771 52.221436 33.34375 51.9375 C 33.553035 51.660445 33.837347 51.518424 34.195312 51.509766 z "
     transform="scale(0.26458334)" />
  <path
     id="path4"
     style="fill:url(#linearGradient1620);fill-opacity:1;stroke-width:0.0360704"
     class="st0"
     d="m 8.3079176,7.4086664 c -0.08268,0.0018 -0.167422,0.01154 -0.252185,0.02687 -0.414809,0.075747 -0.753669,0.2877706 -1.00977,0.6232256 -0.238065,0.3102053 -0.352818,0.6641454 -0.305928,1.0573119 0.03968,0.3318481 0.190943,0.5990005 0.45786,0.8009943 0.288563,0.2164228 0.617005,0.2846058 0.970496,0.2377148 0.429237,-0.05771 0.767631,-0.2702208 1.027338,-0.6128898 0.05904,-0.077819 0.109681,-0.159518 0.151922,-0.2449496 0.06078,0.2197059 0.183082,0.4087053 0.360706,0.5622463 0.252493,0.2164231 0.5513034,0.3100831 0.8795444,0.3172971 0.09378,-0.01082 0.192003,-0.014 0.289392,-0.03204 0.335454,-0.06853 0.627007,-0.220321 0.865072,-0.4619927 0.335464,-0.3390618 0.47578,-0.7357282 0.414459,-1.222679 C 12.109934,8.1134994 11.933278,7.8504606 11.648322,7.6556805 11.334508,7.4428652 10.9889,7.4067835 10.620982,7.4717103 10.191745,7.5474592 9.8745266,7.7269548 9.6112116,8.0732309 9.4983896,8.2209007 9.4132286,8.3772967 9.3610946,8.5424585 h -1.160666 c -0.0541,0 -0.0791,0.036238 -0.08992,0.057879 -0.0505,0.093783 -0.137082,0.2809264 -0.183962,0.3927459 -0.02524,0.061319 -0.0076,0.1085213 0.06822,0.1085213 h 0.696607 c -0.03606,0.050499 -0.06572,0.093651 -0.09818,0.1333276 -0.162322,0.1839602 -0.367613,0.2701766 -0.612892,0.2377146 -0.284955,-0.039676 -0.483197,-0.2767841 -0.486798,-0.5653473 -0.0036,-0.2921701 0.122662,-0.5275611 0.367943,-0.6862712 0.2056,-0.1334616 0.425951,-0.165562 0.653198,-0.053745 0.07574,0.036068 0.115401,0.076141 0.169502,0.1374597 0.04688,0.054111 0.05028,0.050595 0.104381,0.036174 0.223637,-0.057713 0.378412,-0.1014532 0.605655,-0.1591659 0.0433,-0.01082 0.05782,-0.028516 0.03618,-0.060979 C 9.3401626,7.9115702 9.2029326,7.7385215 9.0117586,7.612274 8.7926316,7.4634838 8.5559566,7.4032555 8.3079176,7.4086664 Z M 10.82769,8.1032059 c 0.293276,-0.00962 0.550911,0.1846722 0.607722,0.4971331 0.0072,0.036068 0.0078,0.071965 0.0114,0.1188574 -0.018,0.3102059 -0.172902,0.5414837 -0.45786,0.6893723 C 10.79779,9.5059577 10.599256,9.51684 10.400867,9.4302747 10.14116,9.3148513 10.004174,9.0294869 10.069101,8.7481378 c 0.07936,-0.3390617 0.29604,-0.5516114 0.631494,-0.6273593 0.04282,-0.00992 0.08522,-0.0162 0.127121,-0.01756 z m -5.4064527,0.01034 c -0.01322,0.00153 -0.027792,0.0081 -0.034104,0.01756 l -0.076483,0.097153 c -0.00722,0.01082 -0.00306,0.0186 0.01138,0.0186 l 1.3053613,0.00312 c 0.0108,0 0.02894,-0.01088 0.03618,-0.021706 l 0.06202,-0.093019 c 0.0072,-0.01082 0.003,-0.021706 -0.0114,-0.021706 h -1.28778 c -0.0018,0 -0.00328,-2.184e-4 -0.00518,0 z M 4.8765612,8.4453072 c -0.01322,0.00153 -0.02779,0.0081 -0.034106,0.01756 l -0.076483,0.097153 c -0.00722,0.01082 -0.00306,0.0186 0.01136,0.0186 l 1.7063754,-0.00412 c 0.0144,0 0.02844,-0.00624 0.03204,-0.02067 l 0.02894,-0.086825 c 0.0036,-0.01082 -0.0032,-0.021706 -0.0176,-0.021706 H 4.8816899 c -0.0018,0 -0.00328,-2.186e-4 -0.00516,0 z m 0.8444034,0.3317671 c -0.01252,0.00222 -0.02469,0.01224 -0.03101,0.021706 l -0.05064,0.089917 c -0.0072,0.01082 -0.0031,0.021706 0.01136,0.021706 l 0.78549,0.00412 c 0.0108,0 0.02584,-0.01142 0.02584,-0.02584 l 0.0072,-0.086817 c 0,-0.01444 -0.0072,-0.024802 -0.0217,-0.024802 h -0.721372 c -0.0018,0 -0.0034,-3.174e-4 -0.0052,0 z" />
  <path
     id="path4-3"
     style="fill:url(#linearGradient1374);fill-opacity:1;stroke-width:0.136329;opacity:0.3"
     class="st0"
     d="M 31.072266 30.613281 C 30.605167 30.62596 30.149993 30.78853 29.712891 31.072266 C 28.785844 31.672118 28.308659 32.561751 28.322266 33.666016 C 28.324019 33.806487 28.337992 33.943332 28.363281 34.076172 C 28.498649 33.242095 28.956743 32.561537 29.712891 32.072266 C 30.489961 31.567846 31.322754 31.446506 32.181641 31.869141 C 32.422328 31.983764 32.567135 32.112358 32.728516 32.287109 L 34.119141 32.287109 C 34.555587 32.170663 34.987289 32.05553 35.505859 31.923828 C 35.508633 31.923135 35.510961 31.922583 35.513672 31.921875 C 35.549133 31.83359 35.586511 31.745107 35.626953 31.658203 C 35.522955 31.421933 35.402477 31.196742 35.265625 30.986328 C 34.537045 31.174111 33.977578 31.32907 33.216797 31.525391 C 33.012321 31.579891 32.99945 31.593182 32.822266 31.388672 C 32.617789 31.156911 32.467902 31.005468 32.181641 30.869141 C 31.805878 30.684238 31.435565 30.60342 31.072266 30.613281 z M 41.027344 30.625 C 40.992987 30.624639 40.958467 30.625819 40.923828 30.626953 C 40.765462 30.632093 40.605199 30.655942 40.443359 30.693359 C 39.175498 30.979651 38.356584 31.782959 38.056641 33.064453 C 37.97629 33.412637 37.978002 33.761487 38.050781 34.089844 C 38.052645 34.081345 38.05468 34.07295 38.056641 34.064453 C 38.356584 32.782959 39.175498 31.979651 40.443359 31.693359 C 40.605199 31.655942 40.765462 31.632093 40.923828 31.626953 C 42.006885 31.591501 42.959671 32.292035 43.203125 33.425781 C 43.232495 33.274419 43.254218 33.118008 43.263672 32.955078 C 43.250066 32.77783 43.247916 32.642187 43.220703 32.505859 C 43.012694 31.361809 42.092403 30.636198 41.027344 30.625 z M 20.490234 31.666016 C 20.440269 31.671685 20.385185 31.696668 20.361328 31.732422 L 20.212891 31.919922 L 24.669922 31.919922 C 24.724347 31.919922 24.749934 31.961059 24.736328 32.001953 L 24.675781 32.181641 L 25.048828 32.181641 C 25.089647 32.181641 25.158183 32.140542 25.185547 32.099609 L 25.419922 31.748047 C 25.447134 31.707152 25.431378 31.666016 25.376953 31.666016 L 20.509766 31.666016 C 20.502962 31.666016 20.497415 31.665192 20.490234 31.666016 z M 18.431641 32.919922 C 18.381675 32.925591 18.326606 32.950574 18.302734 32.986328 L 18.013672 33.353516 C 17.986384 33.39441 18.00214 33.423828 18.056641 33.423828 L 21.416016 33.416016 L 21.505859 33.255859 C 21.529746 33.220067 21.575727 33.182143 21.623047 33.173828 C 21.62985 33.17263 21.635775 33.173828 21.642578 33.173828 L 24.369141 33.173828 C 24.423944 33.173828 24.451172 33.213002 24.451172 33.267578 L 24.439453 33.408203 L 24.505859 33.408203 C 24.560285 33.408203 24.613347 33.384768 24.626953 33.330078 L 24.736328 33.001953 C 24.749934 32.961059 24.724347 32.919922 24.669922 32.919922 L 18.451172 32.919922 C 18.444369 32.919922 18.438746 32.919098 18.431641 32.919922 z M 45.978516 33.28125 C 45.869982 34.544349 45.3347 35.631635 44.380859 36.595703 C 43.481086 37.509108 42.379186 38.082786 41.111328 38.341797 C 40.743244 38.40998 40.372022 38.421996 40.017578 38.462891 C 38.776982 38.435625 37.647664 38.081653 36.693359 37.263672 C 36.022025 36.68336 35.559798 35.969057 35.330078 35.138672 C 35.170427 35.461561 34.979003 35.77033 34.755859 36.064453 C 33.77429 37.359579 32.49536 38.162743 30.873047 38.380859 C 29.537022 38.558085 28.295712 38.300403 27.205078 37.482422 C 26.196258 36.718985 25.624581 35.709307 25.474609 34.455078 C 25.468677 34.405339 25.463553 34.356047 25.458984 34.306641 C 25.423087 34.678537 25.427746 35.062133 25.474609 35.455078 C 25.624581 36.709307 26.196258 37.718985 27.205078 38.482422 C 28.29571 39.300402 29.537018 39.558085 30.873047 39.380859 C 32.49536 39.162743 33.77429 38.359579 34.755859 37.064453 C 34.979003 36.77033 35.170427 36.461561 35.330078 36.138672 C 35.559798 36.969057 36.022025 37.68336 36.693359 38.263672 C 37.647664 39.081652 38.776982 39.435625 40.017578 39.462891 C 40.372022 39.421996 40.743244 39.40998 41.111328 39.341797 C 42.379186 39.082786 43.481086 38.509108 44.380859 37.595703 C 45.577272 36.386462 46.116199 34.981995 45.978516 33.28125 z M 21.623047 34.173828 C 21.575727 34.182143 21.529746 34.220067 21.505859 34.255859 L 21.314453 34.595703 C 21.287241 34.636598 21.30277 34.677734 21.357422 34.677734 L 24.326172 34.693359 C 24.366991 34.693359 24.423828 34.650204 24.423828 34.595703 L 24.451172 34.267578 C 24.451172 34.213002 24.423944 34.173828 24.369141 34.173828 L 21.642578 34.173828 C 21.635775 34.173828 21.62985 34.17263 21.623047 34.173828 z M 30.21875 34.400391 C 30.120872 34.614245 30.028162 34.82523 29.958984 34.990234 C 29.863589 35.221995 29.930233 35.400391 30.216797 35.400391 L 31.921875 35.400391 C 32.119864 35.265047 32.305969 35.099846 32.478516 34.904297 C 32.601199 34.754337 32.71332 34.591257 32.849609 34.400391 L 30.21875 34.400391 z "
     transform="scale(0.26458334)" />
</svg>
