<?xml version="1.0" encoding="UTF-8" standalone="no"?>
<!-- Created with Inkscape (http://www.inkscape.org/) -->

<svg
   width="64"
   height="64"
   viewBox="0 0 16.933333 16.933334"
   version="1.1"
   id="svg5"
   inkscape:version="1.1.1 (3bf5ae0d25, 2021-09-20, custom)"
   sodipodi:docname="text-x-csharp.svg"
   xmlns:inkscape="http://www.inkscape.org/namespaces/inkscape"
   xmlns:sodipodi="http://sodipodi.sourceforge.net/DTD/sodipodi-0.dtd"
   xmlns:xlink="http://www.w3.org/1999/xlink"
   xmlns="http://www.w3.org/2000/svg"
   xmlns:svg="http://www.w3.org/2000/svg">
  <sodipodi:namedview
     id="namedview7"
     pagecolor="#ffffff"
     bordercolor="#666666"
     borderopacity="1.0"
     inkscape:pageshadow="2"
     inkscape:pageopacity="0.0"
     inkscape:pagecheckerboard="0"
     inkscape:document-units="px"
     showgrid="false"
     units="px"
     height="64px"
     inkscape:zoom="3.1210937"
     inkscape:cx="38.768461"
     inkscape:cy="80.580726"
     inkscape:window-width="1920"
     inkscape:window-height="1019"
     inkscape:window-x="0"
     inkscape:window-y="0"
     inkscape:window-maximized="1"
     inkscape:current-layer="svg5" />
  <defs
     id="defs2">
    <linearGradient
       inkscape:collect="always"
       id="linearGradient1564">
      <stop
         style="stop-color:#000000;stop-opacity:1;"
         offset="0"
         id="stop1560" />
      <stop
         style="stop-color:#000000;stop-opacity:0;"
         offset="1"
         id="stop1562" />
    </linearGradient>
    <linearGradient
       inkscape:collect="always"
       id="linearGradient1334">
      <stop
         style="stop-color:#730ce6;stop-opacity:1"
         offset="0"
         id="stop1330" />
      <stop
         style="stop-color:#a465e9;stop-opacity:1"
         offset="1"
         id="stop1332" />
    </linearGradient>
    <linearGradient
       inkscape:collect="always"
       id="linearGradient10453">
      <stop
         style="stop-color:#666666;stop-opacity:1"
         offset="0"
         id="stop10449" />
      <stop
         style="stop-color:#666666;stop-opacity:0"
         offset="1"
         id="stop10451" />
    </linearGradient>
    <linearGradient
       inkscape:collect="always"
       id="linearGradient8423">
      <stop
         style="stop-color:#fcfcfc;stop-opacity:1"
         offset="0"
         id="stop8419" />
      <stop
         style="stop-color:#ffffff;stop-opacity:0;"
         offset="1"
         id="stop8421" />
    </linearGradient>
    <linearGradient
       inkscape:collect="always"
       id="linearGradient6263">
      <stop
         style="stop-color:#000000;stop-opacity:1;"
         offset="0"
         id="stop6259" />
      <stop
         style="stop-color:#000000;stop-opacity:0;"
         offset="1"
         id="stop6261" />
    </linearGradient>
    <linearGradient
       inkscape:collect="always"
       id="linearGradient3378">
      <stop
         style="stop-color:#b0b0b0;stop-opacity:1"
         offset="0"
         id="stop3374" />
      <stop
         style="stop-color:#fcfcfc;stop-opacity:1"
         offset="1"
         id="stop3376" />
    </linearGradient>
    <linearGradient
       inkscape:collect="always"
       xlink:href="#linearGradient3378"
       id="linearGradient3380"
       x1="14.942825"
       y1="1.1138821"
       x2="11.503234"
       y2="4.3115072"
       gradientUnits="userSpaceOnUse"
       gradientTransform="translate(-0.5291663,-0.52916667)" />
    <linearGradient
       inkscape:collect="always"
       xlink:href="#linearGradient6263"
       id="linearGradient6265"
       x1="11.90625"
       y1="2.3812501"
       x2="12.170834"
       y2="7.1437502"
       gradientUnits="userSpaceOnUse"
       gradientTransform="translate(-0.52916663,0.52916673)" />
    <linearGradient
       inkscape:collect="always"
       xlink:href="#linearGradient8423"
       id="linearGradient8425"
       x1="13.692527"
       y1="11.622045"
       x2="1.6077259"
       y2="-0.71580184"
       gradientUnits="userSpaceOnUse" />
    <linearGradient
       inkscape:collect="always"
       xlink:href="#linearGradient10453"
       id="linearGradient10455"
       x1="10"
       y1="72.5"
       x2="58"
       y2="32.5"
       gradientUnits="userSpaceOnUse" />
    <linearGradient
       inkscape:collect="always"
       xlink:href="#linearGradient1334"
       id="linearGradient1336"
       x1="18"
       y1="27.982422"
       x2="18"
       y2="45.982422"
       gradientUnits="userSpaceOnUse" />
    <linearGradient
       inkscape:collect="always"
       xlink:href="#linearGradient1564"
       id="linearGradient1566"
       x1="24"
       y1="49.115234"
       x2="50"
       y2="23.115234"
       gradientUnits="userSpaceOnUse" />
  </defs>
  <path
     id="rect1068"
     style="fill:#e5e5e5;fill-opacity:1;stroke-width:0.529167;stroke-linejoin:round"
     d="m 3.175,0.5291667 7.143751,3e-8 3.968749,3.96874997 1e-6,11.3770833 c 0,0.293158 -0.236009,0.529167 -0.529167,0.529167 H 3.175 c -0.2931584,0 -0.5291667,-0.236009 -0.5291667,-0.529167 V 1.0583334 c 0,-0.29315835 0.2360083,-0.5291667 0.5291667,-0.5291667 z"
     sodipodi:nodetypes="cccsssssc" />
  <path
     id="rect8140"
     style="opacity:1;fill:url(#linearGradient8425);fill-opacity:1;stroke-width:0.518136;stroke-linejoin:round"
     d="m 3.175,0.5291668 h 7.143751 l -1e-6,2.9104166 0.79375,1.0583333 3.175,0 V 15.875 c 0,0.295111 -0.236009,0.529167 -0.529167,0.529167 H 3.175 c -0.293159,0 -0.529167,-0.236009 -0.529167,-0.529167 V 1.0583337 c 0,-0.2931589 0.236008,-0.5291669 0.529167,-0.5291669 z"
     sodipodi:nodetypes="sccccssssss" />
  <path
     id="rect9905"
     style="opacity:0.3;fill:url(#linearGradient10455);fill-opacity:1;stroke-width:2;stroke-linejoin:round"
     d="M 10 59 L 10 60 C 10 61.108 10.892 62 12 62 L 52 62 C 53.108 62 54 61.108 54 60 L 54 59 C 54 60.108 53.108 61 52 61 L 12 61 C 10.892 61 10 60.108 10 59 z "
     transform="scale(0.26458334)" />
  <path
     id="rect5598"
     style="opacity:0.2;fill:url(#linearGradient6265);fill-opacity:1;stroke-width:0.529167;stroke-linejoin:round"
     d="M 10.444901,4.3115072 10.31875,3.4395834 14.2875,4.4979167 v 3.7041668 z"
     sodipodi:nodetypes="ccccc" />
  <path
     id="rect2607"
     style="fill:url(#linearGradient3380);fill-opacity:1;stroke-width:0.529167;stroke-linejoin:round"
     d="m 14.2875,4.4979167 -3.439583,-1e-7 c -0.293158,0 -0.529166,-0.2360083 -0.529166,-0.5291667 V 0.52916673 Z"
     sodipodi:nodetypes="csscc" />
  <path
     id="path7784"
     style="font-size:1.67233px;line-height:1.25;font-family:Roboto;-inkscape-font-specification:Roboto;text-align:center;text-anchor:middle;stroke-width:0.158015;fill:#808080;fill-opacity:1"
     d="M 22.042969 51 C 21.682908 51 21.365443 51.0851 21.091797 51.255859 C 20.818149 51.424572 20.607227 51.66752 20.457031 51.984375 C 20.308891 52.301228 20.234375 52.668267 20.234375 53.085938 L 20.234375 53.517578 C 20.234375 54.155401 20.393979 54.666239 20.712891 55.046875 C 21.033859 55.427511 21.459401 55.617188 21.990234 55.617188 C 22.479918 55.617188 22.871794 55.487656 23.166016 55.230469 C 23.462295 54.971223 23.637808 54.604187 23.693359 54.128906 L 23.097656 54.128906 C 23.040046 54.499255 22.923039 54.759958 22.746094 54.910156 C 22.571207 55.058289 22.319433 55.132812 21.990234 55.132812 C 21.624 55.132812 21.338457 54.98922 21.134766 54.701172 C 20.931074 54.413124 20.830078 54.024736 20.830078 53.537109 L 20.830078 53.101562 C 20.830078 52.585133 20.936411 52.188022 21.150391 51.908203 C 21.366427 51.628382 21.66439 51.488281 22.042969 51.488281 C 22.351593 51.488281 22.590947 51.568037 22.761719 51.728516 C 22.934549 51.888999 23.046219 52.147855 23.097656 52.505859 L 23.693359 52.505859 C 23.646037 52.034693 23.479455 51.665807 23.191406 51.400391 C 22.903357 51.132916 22.520307 51 22.042969 51 z M 25.896484 51 C 25.443836 51 25.076903 51.117118 24.792969 51.349609 C 24.511092 51.580047 24.369141 51.87072 24.369141 52.224609 C 24.369141 52.537355 24.484403 52.801653 24.714844 53.015625 C 24.94734 53.227538 25.317971 53.406643 25.826172 53.552734 C 26.231497 53.670001 26.511703 53.788758 26.666016 53.910156 C 26.820326 54.029496 26.896484 54.199777 26.896484 54.419922 C 26.896484 54.640067 26.813141 54.813835 26.646484 54.941406 C 26.479827 55.068978 26.240473 55.132813 25.927734 55.132812 C 25.592364 55.132813 25.324682 55.054809 25.123047 54.898438 C 24.92347 54.740012 24.824219 54.523542 24.824219 54.251953 L 24.228516 54.251953 C 24.228516 54.513247 24.299334 54.747368 24.443359 54.953125 C 24.589441 55.158875 24.796979 55.322074 25.064453 55.441406 C 25.331927 55.558698 25.619111 55.617187 25.927734 55.617188 C 26.403015 55.617188 26.782472 55.507166 27.066406 55.289062 C 27.35034 55.068913 27.492188 54.77824 27.492188 54.414062 C 27.492187 54.185686 27.440764 53.987077 27.337891 53.818359 C 27.237072 53.649644 27.081061 53.502459 26.869141 53.376953 C 26.659277 53.249381 26.366651 53.132263 25.992188 53.027344 C 25.619781 52.922399 25.355588 52.807146 25.199219 52.681641 C 25.044906 52.554089 24.96875 52.399928 24.96875 52.216797 C 24.96875 51.988423 25.050348 51.809212 25.212891 51.681641 C 25.37749 51.552028 25.60432 51.488281 25.896484 51.488281 C 26.21128 51.488281 26.456076 51.566285 26.628906 51.722656 C 26.801736 51.876967 26.888672 52.089739 26.888672 52.361328 L 27.484375 52.361328 C 27.484375 52.112371 27.41694 51.88174 27.283203 51.671875 C 27.151524 51.46201 26.963487 51.29902 26.720703 51.179688 C 26.479976 51.060355 26.205108 51 25.896484 51 z M 28.251953 51.0625 L 28.251953 55.554688 L 28.845703 55.554688 L 28.845703 53.478516 L 31.109375 53.478516 L 31.109375 55.554688 L 31.705078 55.554688 L 31.705078 51.0625 L 31.109375 51.0625 L 31.109375 52.994141 L 28.845703 52.994141 L 28.845703 51.0625 L 28.251953 51.0625 z M 34.09375 51.0625 L 32.378906 55.554688 L 32.990234 55.554688 L 33.412109 54.382812 L 35.294922 54.382812 L 35.724609 55.554688 L 36.332031 55.554688 L 34.613281 51.0625 L 34.09375 51.0625 z M 36.933594 51.0625 L 36.933594 55.554688 L 37.529297 55.554688 L 37.529297 53.738281 L 38.585938 53.738281 L 39.560547 55.554688 L 40.195312 55.554688 L 40.195312 55.517578 L 39.140625 53.611328 C 39.410156 53.508444 39.619333 53.35233 39.769531 53.144531 C 39.921796 52.936725 39.998047 52.693881 39.998047 52.414062 C 39.998047 51.973745 39.861536 51.638628 39.587891 51.408203 C 39.316301 51.177753 38.928019 51.0625 38.421875 51.0625 L 36.933594 51.0625 z M 40.828125 51.0625 L 40.828125 55.554688 L 41.421875 55.554688 L 41.421875 53.796875 L 42.480469 53.796875 C 42.988672 53.796875 43.378801 53.677917 43.650391 53.443359 C 43.924036 53.206748 44.060547 52.871735 44.060547 52.435547 C 44.060547 52.021986 43.920444 51.688511 43.640625 51.4375 C 43.362862 51.186489 42.978067 51.0625 42.486328 51.0625 L 40.828125 51.0625 z M 37.529297 51.548828 L 38.4375 51.548828 C 38.750228 51.550894 38.987733 51.627258 39.152344 51.775391 C 39.318996 51.92353 39.402344 52.1363 39.402344 52.414062 C 39.402344 52.669181 39.315516 52.873126 39.140625 53.025391 C 38.967797 53.177655 38.733674 53.253906 38.439453 53.253906 L 37.529297 53.253906 L 37.529297 51.548828 z M 41.421875 51.548828 L 42.519531 51.548828 C 42.81375 51.555001 43.046126 51.638349 43.214844 51.798828 C 43.383562 51.959312 43.466797 52.173932 43.466797 52.441406 C 43.466797 52.723281 43.383562 52.939645 43.214844 53.089844 C 43.046128 53.237976 42.803181 53.3125 42.486328 53.3125 L 41.421875 53.3125 L 41.421875 51.548828 z M 34.353516 51.792969 L 35.119141 53.894531 L 33.591797 53.894531 L 34.353516 51.792969 z "
     transform="scale(0.26458334)" />
  <path
     id="path23696"
     style="font-weight:bold;font-size:6.39753px;line-height:1.25;font-family:'나눔스퀘어';-inkscape-font-specification:'나눔스퀘어 Bold';stroke-width:0.604494;fill:url(#linearGradient1336);fill-opacity:1"
     d="M 24.988281 25 C 23.956617 25 23.01255 25.16198 22.158203 25.484375 C 21.303856 25.80677 20.562264 26.288803 19.933594 26.933594 C 19.321043 27.578384 18.846327 28.377059 18.507812 29.328125 C 18.169298 30.279191 18 31.390601 18 32.664062 L 18 35.300781 C 18 36.590362 18.169298 37.711044 18.507812 38.662109 C 18.846327 39.613175 19.321043 40.409895 19.933594 41.054688 C 20.546145 41.699477 21.280418 42.176147 22.134766 42.482422 C 22.989113 42.804818 23.940497 42.964844 24.988281 42.964844 C 26.165024 42.964844 27.269117 42.804818 28.300781 42.482422 C 29.332446 42.160026 30.28383 41.578461 31.154297 40.740234 L 29.847656 38.902344 C 29.122267 39.611615 28.340181 40.095601 27.501953 40.353516 C 26.663725 40.611433 25.826509 40.740234 24.988281 40.740234 C 24.327371 40.740234 23.714582 40.628032 23.150391 40.402344 C 22.602319 40.176668 22.118333 39.830753 21.699219 39.363281 C 21.296224 38.895807 20.981535 38.299608 20.755859 37.574219 C 20.530184 36.848829 20.417969 35.985753 20.417969 34.986328 L 20.417969 32.978516 C 20.417969 31.97909 20.530183 31.117967 20.755859 30.392578 C 20.981536 29.667189 21.296225 29.070989 21.699219 28.603516 C 22.118333 28.136043 22.602319 27.788178 23.150391 27.5625 C 23.714582 27.336824 24.327371 27.224609 24.988281 27.224609 C 25.77815 27.224609 26.527059 27.329506 27.236328 27.539062 C 27.961717 27.748619 28.719897 28.175522 29.509766 28.820312 L 30.742188 26.861328 C 29.92008 26.216538 29.058957 25.74914 28.15625 25.458984 C 27.253543 25.152709 26.197263 25 24.988281 25 z M 37.246094 25.265625 L 36.59375 30.005859 L 33.837891 30.005859 L 33.837891 32.109375 L 36.279297 32.109375 L 35.771484 35.736328 L 33.087891 35.736328 L 33.087891 37.839844 L 35.482422 37.839844 L 34.804688 42.699219 L 36.763672 42.699219 L 37.416016 37.839844 L 40.583984 37.839844 L 39.90625 42.699219 L 41.841797 42.699219 L 42.517578 37.839844 L 45.25 37.839844 L 45.25 35.736328 L 42.808594 35.736328 L 43.316406 32.109375 L 46 32.109375 L 46 30.005859 L 43.605469 30.005859 L 44.283203 25.265625 L 42.324219 25.265625 L 41.671875 30.005859 L 38.529297 30.005859 L 39.181641 25.265625 L 37.246094 25.265625 z M 38.214844 32.109375 L 41.380859 32.109375 L 40.873047 35.736328 L 37.707031 35.736328 L 38.214844 32.109375 z "
     transform="scale(0.26458334)" />
  <path
     id="path23696-3"
     style="font-weight:bold;font-size:6.39753px;line-height:1.25;font-family:'나눔스퀘어';-inkscape-font-specification:'나눔스퀘어 Bold';fill:url(#linearGradient1566);fill-opacity:1;stroke-width:0.604494;opacity:0.3"
     d="M 39.044922 26.265625 L 38.529297 30.005859 L 38.666016 30.005859 L 39.181641 26.265625 L 39.044922 26.265625 z M 44.140625 26.265625 L 43.605469 30.005859 L 43.748047 30.005859 L 44.283203 26.265625 L 44.140625 26.265625 z M 24.988281 27.224609 C 24.327374 27.224609 23.714583 27.336824 23.150391 27.5625 C 22.602321 27.788178 22.118334 28.136042 21.699219 28.603516 C 21.296227 29.070988 20.981535 29.667189 20.755859 30.392578 C 20.530184 31.117967 20.417969 31.979089 20.417969 32.978516 L 20.417969 33.978516 C 20.417969 32.979089 20.530184 32.117967 20.755859 31.392578 C 20.981535 30.667189 21.296227 30.070988 21.699219 29.603516 C 22.118334 29.136042 22.602321 28.788178 23.150391 28.5625 C 23.714583 28.336824 24.327374 28.224609 24.988281 28.224609 C 25.778153 28.224609 26.527058 28.329507 27.236328 28.539062 C 27.961718 28.748618 28.719897 29.175522 29.509766 29.820312 L 30.742188 27.861328 C 30.600341 27.750076 30.456682 27.645613 30.3125 27.544922 L 29.509766 28.820312 C 28.719897 28.175522 27.961718 27.748618 27.236328 27.539062 C 26.527058 27.329507 25.778153 27.224609 24.988281 27.224609 z M 33.837891 32.109375 L 33.837891 33.109375 L 36.138672 33.109375 L 36.279297 32.109375 L 33.837891 32.109375 z M 38.214844 32.109375 L 37.707031 35.736328 L 37.847656 35.736328 L 38.214844 33.109375 L 41.240234 33.109375 L 41.380859 32.109375 L 38.214844 32.109375 z M 43.316406 32.109375 L 42.808594 35.736328 L 42.949219 35.736328 L 43.316406 33.109375 L 46 33.109375 L 46 32.109375 L 43.316406 32.109375 z M 18 35.300781 L 18 36.300781 C 18 37.590362 18.169288 38.711044 18.507812 39.662109 C 18.846345 40.613175 19.321046 41.409893 19.933594 42.054688 C 20.546146 42.699475 21.280419 43.176148 22.134766 43.482422 C 22.989113 43.804816 23.940498 43.964844 24.988281 43.964844 C 26.165026 43.964844 27.269118 43.804819 28.300781 43.482422 C 29.332445 43.160028 30.28383 42.578462 31.154297 41.740234 L 30.720703 41.130859 C 29.970455 41.761749 29.163746 42.212747 28.300781 42.482422 C 27.269118 42.804819 26.165026 42.964844 24.988281 42.964844 C 23.940498 42.964844 22.989113 42.804816 22.134766 42.482422 C 21.280419 42.176148 20.546146 41.699475 19.933594 41.054688 C 19.321046 40.409893 18.846345 39.613175 18.507812 38.662109 C 18.169288 37.711043 18 36.590364 18 35.300781 z M 33.087891 37.839844 L 33.087891 38.839844 L 35.34375 38.839844 L 35.482422 37.839844 L 33.087891 37.839844 z M 37.416016 37.839844 L 36.763672 42.699219 L 34.943359 42.699219 L 34.804688 43.699219 L 36.763672 43.699219 L 37.416016 38.839844 L 40.445312 38.839844 L 40.583984 37.839844 L 37.416016 37.839844 z M 42.517578 37.839844 L 41.841797 42.699219 L 40.044922 42.699219 L 39.90625 43.699219 L 41.841797 43.699219 L 42.517578 38.839844 L 45.25 38.839844 L 45.25 37.839844 L 42.517578 37.839844 z "
     transform="scale(0.26458334)" />
</svg>
