<?xml version="1.0" encoding="UTF-8" standalone="no"?>
<!-- Created with Inkscape (http://www.inkscape.org/) -->

<svg
   width="64"
   height="64"
   viewBox="0 0 16.933333 16.933334"
   version="1.1"
   id="svg5"
   inkscape:version="1.1.1 (3bf5ae0d25, 2021-09-20, custom)"
   sodipodi:docname="text-x-tcl.svg"
   xmlns:inkscape="http://www.inkscape.org/namespaces/inkscape"
   xmlns:sodipodi="http://sodipodi.sourceforge.net/DTD/sodipodi-0.dtd"
   xmlns:xlink="http://www.w3.org/1999/xlink"
   xmlns="http://www.w3.org/2000/svg"
   xmlns:svg="http://www.w3.org/2000/svg">
  <sodipodi:namedview
     id="namedview7"
     pagecolor="#ffffff"
     bordercolor="#666666"
     borderopacity="1.0"
     inkscape:pageshadow="2"
     inkscape:pageopacity="0.0"
     inkscape:pagecheckerboard="0"
     inkscape:document-units="px"
     showgrid="false"
     units="px"
     height="64px"
     inkscape:zoom="4.4138931"
     inkscape:cx="12.573934"
     inkscape:cy="53.467539"
     inkscape:window-width="1541"
     inkscape:window-height="947"
     inkscape:window-x="86"
     inkscape:window-y="19"
     inkscape:window-maximized="0"
     inkscape:current-layer="svg5" />
  <defs
     id="defs2">
    <linearGradient
       inkscape:collect="always"
       id="linearGradient80842">
      <stop
         style="stop-color:#666666;stop-opacity:1"
         offset="0"
         id="stop80838" />
      <stop
         style="stop-color:#909090;stop-opacity:1"
         offset="1"
         id="stop80840" />
    </linearGradient>
    <linearGradient
       inkscape:collect="always"
       id="linearGradient10453">
      <stop
         style="stop-color:#666666;stop-opacity:1"
         offset="0"
         id="stop10449" />
      <stop
         style="stop-color:#666666;stop-opacity:0"
         offset="1"
         id="stop10451" />
    </linearGradient>
    <linearGradient
       inkscape:collect="always"
       id="linearGradient8423">
      <stop
         style="stop-color:#fcfcfc;stop-opacity:1"
         offset="0"
         id="stop8419" />
      <stop
         style="stop-color:#ffffff;stop-opacity:0;"
         offset="1"
         id="stop8421" />
    </linearGradient>
    <linearGradient
       inkscape:collect="always"
       id="linearGradient6263">
      <stop
         style="stop-color:#000000;stop-opacity:1;"
         offset="0"
         id="stop6259" />
      <stop
         style="stop-color:#000000;stop-opacity:0;"
         offset="1"
         id="stop6261" />
    </linearGradient>
    <linearGradient
       inkscape:collect="always"
       id="linearGradient3378">
      <stop
         style="stop-color:#b0b0b0;stop-opacity:1"
         offset="0"
         id="stop3374" />
      <stop
         style="stop-color:#fcfcfc;stop-opacity:1"
         offset="1"
         id="stop3376" />
    </linearGradient>
    <linearGradient
       inkscape:collect="always"
       xlink:href="#linearGradient3378"
       id="linearGradient3380"
       x1="14.942825"
       y1="1.1138821"
       x2="11.503234"
       y2="4.3115072"
       gradientUnits="userSpaceOnUse"
       gradientTransform="translate(-0.5291663,-0.52916667)" />
    <linearGradient
       inkscape:collect="always"
       xlink:href="#linearGradient6263"
       id="linearGradient6265"
       x1="11.90625"
       y1="2.3812501"
       x2="12.170834"
       y2="7.1437502"
       gradientUnits="userSpaceOnUse"
       gradientTransform="translate(-0.52916663,0.52916673)" />
    <linearGradient
       inkscape:collect="always"
       xlink:href="#linearGradient8423"
       id="linearGradient8425"
       x1="13.692527"
       y1="11.622045"
       x2="1.6077259"
       y2="-0.71580184"
       gradientUnits="userSpaceOnUse" />
    <linearGradient
       inkscape:collect="always"
       xlink:href="#linearGradient10453"
       id="linearGradient10455"
       x1="10"
       y1="72.5"
       x2="58"
       y2="32.5"
       gradientUnits="userSpaceOnUse" />
    <linearGradient
       inkscape:collect="always"
       xlink:href="#linearGradient6263"
       id="linearGradient80452"
       x1="19"
       y1="40.65625"
       x2="41"
       y2="18.65625"
       gradientUnits="userSpaceOnUse" />
    <linearGradient
       inkscape:collect="always"
       xlink:href="#linearGradient80842"
       id="linearGradient80844"
       x1="39"
       y1="35.205078"
       x2="39"
       y2="23.205078"
       gradientUnits="userSpaceOnUse" />
  </defs>
  <path
     id="rect1068"
     style="fill:#e5e5e5;fill-opacity:1;stroke-width:0.529167;stroke-linejoin:round"
     d="m 3.175,0.5291667 7.143751,3e-8 3.968749,3.96874997 1e-6,11.3770833 c 0,0.293158 -0.236009,0.529167 -0.529167,0.529167 H 3.175 c -0.2931584,0 -0.5291667,-0.236009 -0.5291667,-0.529167 V 1.0583334 c 0,-0.29315835 0.2360083,-0.5291667 0.5291667,-0.5291667 z"
     sodipodi:nodetypes="cccsssssc" />
  <path
     id="rect8140"
     style="opacity:1;fill:url(#linearGradient8425);fill-opacity:1;stroke-width:0.518136;stroke-linejoin:round"
     d="m 3.175,0.5291668 h 7.143751 l -1e-6,2.9104166 0.79375,1.0583333 3.175,0 V 15.875 c 0,0.295111 -0.236009,0.529167 -0.529167,0.529167 H 3.175 c -0.293159,0 -0.529167,-0.236009 -0.529167,-0.529167 V 1.0583337 c 0,-0.2931589 0.236008,-0.5291669 0.529167,-0.5291669 z"
     sodipodi:nodetypes="sccccssssss" />
  <path
     id="rect9905"
     style="opacity:0.3;fill:url(#linearGradient10455);fill-opacity:1;stroke-width:2;stroke-linejoin:round"
     d="M 10 59 L 10 60 C 10 61.108 10.892 62 12 62 L 52 62 C 53.108 62 54 61.108 54 60 L 54 59 C 54 60.108 53.108 61 52 61 L 12 61 C 10.892 61 10 60.108 10 59 z "
     transform="scale(0.26458334)" />
  <path
     id="rect5598"
     style="opacity:0.2;fill:url(#linearGradient6265);fill-opacity:1;stroke-width:0.529167;stroke-linejoin:round"
     d="M 10.444901,4.3115072 10.31875,3.4395834 14.2875,4.4979167 v 3.7041668 z"
     sodipodi:nodetypes="ccccc" />
  <path
     id="rect2607"
     style="fill:url(#linearGradient3380);fill-opacity:1;stroke-width:0.529167;stroke-linejoin:round"
     d="m 14.2875,4.4979167 -3.439583,-1e-7 c -0.293158,0 -0.529166,-0.2360083 -0.529166,-0.5291667 V 0.52916673 Z"
     sodipodi:nodetypes="csscc" />
  <path
     id="path81359"
     style="font-size:1.67233px;line-height:1.25;font-family:Roboto;-inkscape-font-specification:Roboto;text-align:center;text-anchor:middle;stroke-width:0.158015;fill:#808080"
     d="M 32.384766 51 C 32.024704 51 31.70724 51.0851 31.433594 51.255859 C 31.159946 51.424572 30.949024 51.66752 30.798828 51.984375 C 30.650688 52.301228 30.576172 52.668267 30.576172 53.085938 L 30.576172 53.517578 C 30.576172 54.155401 30.735776 54.666239 31.054688 55.046875 C 31.375656 55.427511 31.801198 55.617188 32.332031 55.617188 C 32.821714 55.617188 33.213591 55.487656 33.507812 55.230469 C 33.804092 54.971223 33.979605 54.604187 34.035156 54.128906 L 33.439453 54.128906 C 33.381843 54.499255 33.264836 54.759958 33.087891 54.910156 C 32.913004 55.058289 32.66123 55.132812 32.332031 55.132812 C 31.965797 55.132813 31.680254 54.98922 31.476562 54.701172 C 31.272871 54.413124 31.171875 54.024736 31.171875 53.537109 L 31.171875 53.101562 C 31.171875 52.585133 31.278208 52.188022 31.492188 51.908203 C 31.708224 51.628382 32.006187 51.488281 32.384766 51.488281 C 32.69339 51.488281 32.932744 51.568037 33.103516 51.728516 C 33.276346 51.888999 33.388016 52.147855 33.439453 52.505859 L 34.035156 52.505859 C 33.987834 52.034693 33.821252 51.665807 33.533203 51.400391 C 33.245154 51.132916 32.862104 51 32.384766 51 z M 26.587891 51.0625 L 26.587891 51.548828 L 28.029297 51.548828 L 28.029297 55.554688 L 28.619141 55.554688 L 28.619141 51.548828 L 30.064453 51.548828 L 30.064453 51.0625 L 26.587891 51.0625 z M 34.84375 51.0625 L 34.84375 55.554688 L 37.570312 55.554688 L 37.570312 55.070312 L 35.439453 55.070312 L 35.439453 51.0625 L 34.84375 51.0625 z "
     transform="scale(0.26458334)" />
  <path
     id="path80274"
     style="font-weight:bold;font-size:5.08325px;line-height:1.25;font-family:'나눔스퀘어';-inkscape-font-specification:'나눔스퀘어 Bold';stroke-width:0.480306;fill:url(#linearGradient80844);fill-opacity:1"
     d="M 19 22 L 19 23.902344 L 25.955078 27.494141 L 25.955078 27.609375 L 19 31.203125 L 19 33.123047 L 28.068359 28.320312 L 28.068359 26.802734 L 19 22 z M 29.394531 35.160156 L 29.394531 36.410156 L 39 36.410156 L 39 35.160156 L 29.394531 35.160156 z "
     transform="scale(0.26458334)" />
  <path
     id="path80274-3"
     style="font-weight:bold;font-size:5.08325px;line-height:1.25;font-family:'나눔스퀘어';-inkscape-font-specification:'나눔스퀘어 Bold';opacity:0.3;stroke-width:0.480306;fill-opacity:1;fill:url(#linearGradient80452)"
     d="M 19 23.902344 L 19 24.902344 L 25.099609 28.052734 L 25.955078 27.609375 L 25.955078 27.494141 L 19 23.902344 z M 28.068359 28.320312 L 19 33.123047 L 19 34.123047 L 28.068359 29.320312 L 28.068359 28.320312 z M 29.394531 36.410156 L 29.394531 37.410156 L 39 37.410156 L 39 36.410156 L 29.394531 36.410156 z "
     transform="scale(0.26458334)" />
</svg>
