<?xml version="1.0" encoding="UTF-8" standalone="no"?>
<!-- Created with Inkscape (http://www.inkscape.org/) -->

<svg
   width="64"
   height="64"
   viewBox="0 0 16.933333 16.933334"
   version="1.1"
   id="svg5"
   inkscape:version="1.1.1 (3bf5ae0d25, 2021-09-20, custom)"
   sodipodi:docname="text-x-objchdr.svg"
   xmlns:inkscape="http://www.inkscape.org/namespaces/inkscape"
   xmlns:sodipodi="http://sodipodi.sourceforge.net/DTD/sodipodi-0.dtd"
   xmlns:xlink="http://www.w3.org/1999/xlink"
   xmlns="http://www.w3.org/2000/svg"
   xmlns:svg="http://www.w3.org/2000/svg">
  <sodipodi:namedview
     id="namedview7"
     pagecolor="#ffffff"
     bordercolor="#666666"
     borderopacity="1.0"
     inkscape:pageshadow="2"
     inkscape:pageopacity="0.0"
     inkscape:pagecheckerboard="0"
     inkscape:document-units="px"
     showgrid="false"
     units="px"
     height="64px"
     inkscape:zoom="12.484375"
     inkscape:cx="29.997497"
     inkscape:cy="29.236546"
     inkscape:window-width="1541"
     inkscape:window-height="947"
     inkscape:window-x="23"
     inkscape:window-y="15"
     inkscape:window-maximized="0"
     inkscape:current-layer="svg5" />
  <defs
     id="defs2">
    <linearGradient
       inkscape:collect="always"
       id="linearGradient17889">
      <stop
         style="stop-color:#cd1900;stop-opacity:1;"
         offset="0"
         id="stop17885" />
      <stop
         style="stop-color:#ff2a0d;stop-opacity:1"
         offset="1"
         id="stop17887" />
    </linearGradient>
    <linearGradient
       inkscape:collect="always"
       id="linearGradient10453">
      <stop
         style="stop-color:#666666;stop-opacity:1"
         offset="0"
         id="stop10449" />
      <stop
         style="stop-color:#666666;stop-opacity:0"
         offset="1"
         id="stop10451" />
    </linearGradient>
    <linearGradient
       inkscape:collect="always"
       id="linearGradient8423">
      <stop
         style="stop-color:#fcfcfc;stop-opacity:1"
         offset="0"
         id="stop8419" />
      <stop
         style="stop-color:#ffffff;stop-opacity:0;"
         offset="1"
         id="stop8421" />
    </linearGradient>
    <linearGradient
       inkscape:collect="always"
       id="linearGradient6263">
      <stop
         style="stop-color:#000000;stop-opacity:1;"
         offset="0"
         id="stop6259" />
      <stop
         style="stop-color:#000000;stop-opacity:0;"
         offset="1"
         id="stop6261" />
    </linearGradient>
    <linearGradient
       inkscape:collect="always"
       id="linearGradient3378">
      <stop
         style="stop-color:#b0b0b0;stop-opacity:1"
         offset="0"
         id="stop3374" />
      <stop
         style="stop-color:#fcfcfc;stop-opacity:1"
         offset="1"
         id="stop3376" />
    </linearGradient>
    <linearGradient
       inkscape:collect="always"
       xlink:href="#linearGradient3378"
       id="linearGradient3380"
       x1="14.942825"
       y1="1.1138821"
       x2="11.503234"
       y2="4.3115072"
       gradientUnits="userSpaceOnUse"
       gradientTransform="translate(-0.5291663,-0.52916667)" />
    <linearGradient
       inkscape:collect="always"
       xlink:href="#linearGradient6263"
       id="linearGradient6265"
       x1="11.90625"
       y1="2.3812501"
       x2="12.170834"
       y2="7.1437502"
       gradientUnits="userSpaceOnUse"
       gradientTransform="translate(-0.52916663,0.52916673)" />
    <linearGradient
       inkscape:collect="always"
       xlink:href="#linearGradient8423"
       id="linearGradient8425"
       x1="13.692527"
       y1="11.622045"
       x2="1.6077259"
       y2="-0.71580184"
       gradientUnits="userSpaceOnUse" />
    <linearGradient
       inkscape:collect="always"
       xlink:href="#linearGradient10453"
       id="linearGradient10455"
       x1="10"
       y1="72.5"
       x2="58"
       y2="32.5"
       gradientUnits="userSpaceOnUse" />
    <linearGradient
       inkscape:collect="always"
       xlink:href="#linearGradient17889"
       id="linearGradient17891"
       x1="5.2916665"
       y1="4.7624993"
       x2="5.2916665"
       y2="12.700002"
       gradientUnits="userSpaceOnUse" />
    <linearGradient
       inkscape:collect="always"
       xlink:href="#linearGradient6263"
       id="linearGradient18964"
       x1="20"
       y1="50.400391"
       x2="43.509766"
       y2="24.400391"
       gradientUnits="userSpaceOnUse" />
  </defs>
  <path
     id="rect1068"
     style="fill:#e5e5e5;fill-opacity:1;stroke-width:0.529167;stroke-linejoin:round"
     d="m 3.175,0.5291667 7.143751,3e-8 3.968749,3.96874997 1e-6,11.3770833 c 0,0.293158 -0.236009,0.529167 -0.529167,0.529167 H 3.175 c -0.2931584,0 -0.5291667,-0.236009 -0.5291667,-0.529167 V 1.0583334 c 0,-0.29315835 0.2360083,-0.5291667 0.5291667,-0.5291667 z"
     sodipodi:nodetypes="cccsssssc" />
  <path
     id="rect8140"
     style="opacity:1;fill:url(#linearGradient8425);fill-opacity:1;stroke-width:0.518136;stroke-linejoin:round"
     d="m 3.175,0.5291668 h 7.143751 l -1e-6,2.9104166 0.79375,1.0583333 3.175,0 V 15.875 c 0,0.295111 -0.236009,0.529167 -0.529167,0.529167 H 3.175 c -0.293159,0 -0.529167,-0.236009 -0.529167,-0.529167 V 1.0583337 c 0,-0.2931589 0.236008,-0.5291669 0.529167,-0.5291669 z"
     sodipodi:nodetypes="sccccssssss" />
  <path
     id="rect9905"
     style="opacity:0.3;fill:url(#linearGradient10455);fill-opacity:1;stroke-width:2;stroke-linejoin:round"
     d="M 10 59 L 10 60 C 10 61.108 10.892 62 12 62 L 52 62 C 53.108 62 54 61.108 54 60 L 54 59 C 54 60.108 53.108 61 52 61 L 12 61 C 10.892 61 10 60.108 10 59 z "
     transform="scale(0.26458334)" />
  <path
     id="rect5598"
     style="opacity:0.2;fill:url(#linearGradient6265);fill-opacity:1;stroke-width:0.529167;stroke-linejoin:round"
     d="M 10.444901,4.3115072 10.31875,3.4395834 14.2875,4.4979167 v 3.7041668 z"
     sodipodi:nodetypes="ccccc" />
  <path
     id="rect2607"
     style="fill:url(#linearGradient3380);fill-opacity:1;stroke-width:0.529167;stroke-linejoin:round"
     d="m 14.2875,4.4979167 -3.439583,-1e-7 c -0.293158,0 -0.529166,-0.2360083 -0.529166,-0.5291667 V 0.52916673 Z"
     sodipodi:nodetypes="csscc" />
  <path
     id="path871"
     style="font-size:1.67233px;line-height:1.25;font-family:Roboto;-inkscape-font-specification:Roboto;text-align:center;text-anchor:middle;stroke-width:0.158015;fill:#808080"
     d="M 25.927734 51 C 25.567673 51 25.252162 51.0851 24.978516 51.255859 C 24.704868 51.424572 24.491993 51.66752 24.341797 51.984375 C 24.193657 52.301228 24.119141 52.668267 24.119141 53.085938 L 24.119141 53.517578 C 24.119141 54.155401 24.278745 54.666239 24.597656 55.046875 C 24.918625 55.427511 25.344167 55.617188 25.875 55.617188 C 26.364683 55.617188 26.75656 55.487656 27.050781 55.230469 C 27.347061 54.971223 27.524527 54.604187 27.580078 54.128906 L 26.984375 54.128906 C 26.926765 54.499255 26.809757 54.759958 26.632812 54.910156 C 26.457926 55.058289 26.204199 55.132812 25.875 55.132812 C 25.508766 55.132813 25.225176 54.98922 25.021484 54.701172 C 24.817793 54.413124 24.714844 54.024736 24.714844 53.537109 L 24.714844 53.101562 C 24.714844 52.585133 24.82313 52.188022 25.037109 51.908203 C 25.253146 51.628382 25.549156 51.488281 25.927734 51.488281 C 26.236358 51.488281 26.475713 51.568037 26.646484 51.728516 C 26.819315 51.888999 26.932938 52.147855 26.984375 52.505859 L 27.580078 52.505859 C 27.532756 52.034693 27.364221 51.665807 27.076172 51.400391 C 26.788123 51.132916 26.405073 51 25.927734 51 z M 28.388672 51.0625 L 28.388672 55.554688 L 28.980469 55.554688 L 28.980469 53.478516 L 31.246094 53.478516 L 31.246094 55.554688 L 31.841797 55.554688 L 31.841797 51.0625 L 31.246094 51.0625 L 31.246094 52.994141 L 28.980469 52.994141 L 28.980469 51.0625 L 28.388672 51.0625 z M 32.894531 51.0625 L 32.894531 55.554688 L 34.138672 55.554688 C 34.54194 55.550555 34.894814 55.463728 35.197266 55.292969 C 35.501774 55.122197 35.733942 54.877505 35.896484 54.558594 C 36.061083 54.239682 36.144531 53.867203 36.144531 53.443359 L 36.144531 53.158203 C 36.142473 52.744647 36.05913 52.377505 35.894531 52.058594 C 35.731989 51.73968 35.499613 51.493138 35.199219 51.320312 C 34.898825 51.147487 34.553033 51.0625 34.162109 51.0625 L 32.894531 51.0625 z M 37.035156 51.0625 L 37.035156 55.554688 L 37.630859 55.554688 L 37.630859 53.738281 L 38.6875 53.738281 L 39.662109 55.554688 L 40.296875 55.554688 L 40.296875 55.517578 L 39.242188 53.611328 C 39.511718 53.508444 39.720895 53.35233 39.871094 53.144531 C 40.023358 52.936725 40.099609 52.693881 40.099609 52.414062 C 40.099609 51.973745 39.963101 51.638628 39.689453 51.408203 C 39.417866 51.177753 39.029582 51.0625 38.523438 51.0625 L 37.035156 51.0625 z M 33.486328 51.548828 L 34.177734 51.548828 C 34.618037 51.552943 34.958596 51.696536 35.197266 51.980469 C 35.437991 52.262346 35.556641 52.659663 35.556641 53.169922 L 35.556641 53.431641 C 35.556641 53.956302 35.428957 54.360598 35.173828 54.644531 C 34.920757 54.928464 34.566138 55.070313 34.109375 55.070312 L 33.486328 55.070312 L 33.486328 51.548828 z M 37.630859 51.548828 L 38.539062 51.548828 C 38.851813 51.550894 39.08932 51.627258 39.253906 51.775391 C 39.420558 51.92353 39.503906 52.1363 39.503906 52.414062 C 39.503906 52.669181 39.417079 52.873126 39.242188 53.025391 C 39.06936 53.177655 38.835239 53.253906 38.541016 53.253906 L 37.630859 53.253906 L 37.630859 51.548828 z "
     transform="scale(0.26458334)" />
  <text
     xml:space="preserve"
     style="font-size:10.5833px;line-height:1.25;font-family:'Noto Serif';-inkscape-font-specification:'Noto Serif';stroke-width:0.264583"
     x="11.210568"
     y="8.940918"
     id="text80811"><tspan
       sodipodi:role="line"
       id="tspan80809"
       style="stroke-width:0.264583" /></text>
  <path
     d="M 10.453843,12.170835 H 9.5711983 V 9.0770288 q 0,-0.6278606 -0.2638835,-0.909943 -0.2638835,-0.2820823 -0.8189487,-0.2820823 -0.2274858,0 -0.4549715,0.081895 Q 7.8150083,8.0396938 7.6330197,8.1943841 7.4601305,8.339975 7.3418379,8.5674607 7.2326447,8.7949465 7.2326447,9.0861283 V 12.170835 H 6.35 V 5.2916659 H 7.2326447 V 7.7940092 Q 7.4601305,7.4573303 7.8241077,7.2844411 8.1971843,7.1024525 8.7067524,7.1024525 q 0.3639772,0 0.6824573,0.1091932 0.31848,0.1091931 0.5550652,0.3275794 0.2365851,0.2183864 0.3730771,0.5550653 0.136491,0.3366789 0.136491,0.782551 z"
     id="path17404"
     style="font-weight:bold;font-size:9.09943px;line-height:1.25;font-family:'나눔스퀘어';-inkscape-font-specification:'나눔스퀘어 Bold';stroke-width:0.227486;fill:url(#linearGradient17891);fill-opacity:1" />
  <path
     id="path17404-7"
     style="font-weight:bold;font-size:9.09943px;line-height:1.25;font-family:'나눔스퀘어';-inkscape-font-specification:'나눔스퀘어 Bold';fill:url(#linearGradient18964);fill-opacity:1;stroke-width:0.85979;opacity:0.3"
     d="M 32.082031 29.800781 C 31.508839 29.800781 30.936474 29.904979 30.363281 30.111328 C 29.813017 30.294749 29.308163 30.580932 28.849609 30.970703 C 28.413983 31.337546 28.046107 31.807667 27.748047 32.380859 C 27.472914 32.954052 27.335938 33.60811 27.335938 34.341797 L 27.335938 35.341797 C 27.335938 34.60811 27.472914 33.954052 27.748047 33.380859 C 28.046107 32.807667 28.413983 32.337546 28.849609 31.970703 C 29.308163 31.580932 29.813017 31.294749 30.363281 31.111328 C 30.936474 30.904979 31.508839 30.800781 32.082031 30.800781 C 33.480621 30.800781 34.512831 31.156429 35.177734 31.867188 C 35.842638 32.577946 36.173828 33.72463 36.173828 35.306641 L 36.173828 34.306641 C 36.173828 32.72463 35.842639 31.577946 35.177734 30.867188 C 34.512832 30.156429 33.480621 29.800781 32.082031 29.800781 z M 24 46 L 24 47 L 27.335938 47 L 27.335938 46 L 24 46 z M 36.173828 46 L 36.173828 47 L 39.509766 47 L 39.509766 46 L 36.173828 46 z "
     transform="scale(0.26458334)" />
</svg>
