<?xml version="1.0" encoding="UTF-8" standalone="no"?>
<!-- Created with Inkscape (http://www.inkscape.org/) -->

<svg
   width="64"
   height="64"
   viewBox="0 0 16.933333 16.933334"
   version="1.1"
   id="svg5"
   inkscape:version="1.1.1 (3bf5ae0d25, 2021-09-20, custom)"
   sodipodi:docname="text-x-ruby.svg"
   xmlns:inkscape="http://www.inkscape.org/namespaces/inkscape"
   xmlns:sodipodi="http://sodipodi.sourceforge.net/DTD/sodipodi-0.dtd"
   xmlns:xlink="http://www.w3.org/1999/xlink"
   xmlns="http://www.w3.org/2000/svg"
   xmlns:svg="http://www.w3.org/2000/svg">
  <sodipodi:namedview
     id="namedview7"
     pagecolor="#ffffff"
     bordercolor="#666666"
     borderopacity="1.0"
     inkscape:pageshadow="2"
     inkscape:pageopacity="0.0"
     inkscape:pagecheckerboard="0"
     inkscape:document-units="px"
     showgrid="false"
     units="px"
     height="64px"
     inkscape:zoom="8"
     inkscape:cx="2.5"
     inkscape:cy="64.5"
     inkscape:window-width="1920"
     inkscape:window-height="1011"
     inkscape:window-x="0"
     inkscape:window-y="0"
     inkscape:window-maximized="1"
     inkscape:current-layer="svg5"
     showguides="true" />
  <defs
     id="defs2">
    <linearGradient
       inkscape:collect="always"
       id="linearGradient79353">
      <stop
         style="stop-color:#f66464;stop-opacity:1;"
         offset="0"
         id="stop79349" />
      <stop
         style="stop-color:#f98d8d;stop-opacity:1"
         offset="1"
         id="stop79351" />
    </linearGradient>
    <linearGradient
       inkscape:collect="always"
       id="linearGradient10453">
      <stop
         style="stop-color:#666666;stop-opacity:1"
         offset="0"
         id="stop10449" />
      <stop
         style="stop-color:#666666;stop-opacity:0"
         offset="1"
         id="stop10451" />
    </linearGradient>
    <linearGradient
       inkscape:collect="always"
       id="linearGradient8423">
      <stop
         style="stop-color:#fcfcfc;stop-opacity:1"
         offset="0"
         id="stop8419" />
      <stop
         style="stop-color:#ffffff;stop-opacity:0;"
         offset="1"
         id="stop8421" />
    </linearGradient>
    <linearGradient
       inkscape:collect="always"
       id="linearGradient6263">
      <stop
         style="stop-color:#000000;stop-opacity:1;"
         offset="0"
         id="stop6259" />
      <stop
         style="stop-color:#000000;stop-opacity:0;"
         offset="1"
         id="stop6261" />
    </linearGradient>
    <linearGradient
       inkscape:collect="always"
       id="linearGradient3378">
      <stop
         style="stop-color:#b0b0b0;stop-opacity:1"
         offset="0"
         id="stop3374" />
      <stop
         style="stop-color:#fcfcfc;stop-opacity:1"
         offset="1"
         id="stop3376" />
    </linearGradient>
    <linearGradient
       inkscape:collect="always"
       xlink:href="#linearGradient3378"
       id="linearGradient3380"
       x1="14.942825"
       y1="1.1138821"
       x2="11.503234"
       y2="4.3115072"
       gradientUnits="userSpaceOnUse"
       gradientTransform="translate(-0.5291663,-0.52916667)" />
    <linearGradient
       inkscape:collect="always"
       xlink:href="#linearGradient6263"
       id="linearGradient6265"
       x1="11.90625"
       y1="2.3812501"
       x2="12.170834"
       y2="7.1437502"
       gradientUnits="userSpaceOnUse"
       gradientTransform="translate(-0.52916663,0.52916673)" />
    <linearGradient
       inkscape:collect="always"
       xlink:href="#linearGradient8423"
       id="linearGradient8425"
       x1="13.692527"
       y1="11.622045"
       x2="1.6077259"
       y2="-0.71580184"
       gradientUnits="userSpaceOnUse" />
    <linearGradient
       inkscape:collect="always"
       xlink:href="#linearGradient10453"
       id="linearGradient10455"
       x1="10"
       y1="72.5"
       x2="58"
       y2="32.5"
       gradientUnits="userSpaceOnUse" />
    <linearGradient
       inkscape:collect="always"
       xlink:href="#linearGradient79353"
       id="linearGradient79355"
       x1="18"
       y1="46"
       x2="46"
       y2="22"
       gradientUnits="userSpaceOnUse" />
    <linearGradient
       inkscape:collect="always"
       xlink:href="#linearGradient6263"
       id="linearGradient79999"
       x1="18"
       y1="49"
       x2="48"
       y2="21"
       gradientUnits="userSpaceOnUse" />
  </defs>
  <path
     id="rect1068"
     style="fill:#e5e5e5;fill-opacity:1;stroke-width:0.529167;stroke-linejoin:round"
     d="m 3.175,0.5291667 7.143751,3e-8 3.968749,3.96874997 1e-6,11.3770833 c 0,0.293158 -0.236009,0.529167 -0.529167,0.529167 H 3.175 c -0.2931584,0 -0.5291667,-0.236009 -0.5291667,-0.529167 V 1.0583334 c 0,-0.29315835 0.2360083,-0.5291667 0.5291667,-0.5291667 z"
     sodipodi:nodetypes="cccsssssc" />
  <path
     id="rect8140"
     style="opacity:1;fill:url(#linearGradient8425);fill-opacity:1;stroke-width:0.518136;stroke-linejoin:round"
     d="m 3.175,0.5291668 h 7.143751 l -1e-6,2.9104166 0.79375,1.0583333 3.175,0 V 15.875 c 0,0.295111 -0.236009,0.529167 -0.529167,0.529167 H 3.175 c -0.293159,0 -0.529167,-0.236009 -0.529167,-0.529167 V 1.0583337 c 0,-0.2931589 0.236008,-0.5291669 0.529167,-0.5291669 z"
     sodipodi:nodetypes="sccccssssss" />
  <path
     id="rect9905"
     style="opacity:0.3;fill:url(#linearGradient10455);fill-opacity:1;stroke-width:2;stroke-linejoin:round"
     d="M 10 59 L 10 60 C 10 61.108 10.892 62 12 62 L 52 62 C 53.108 62 54 61.108 54 60 L 54 59 C 54 60.108 53.108 61 52 61 L 12 61 C 10.892 61 10 60.108 10 59 z "
     transform="scale(0.26458334)" />
  <path
     id="rect5598"
     style="opacity:0.2;fill:url(#linearGradient6265);fill-opacity:1;stroke-width:0.529167;stroke-linejoin:round"
     d="M 10.444901,4.3115072 10.31875,3.4395834 14.2875,4.4979167 v 3.7041668 z"
     sodipodi:nodetypes="ccccc" />
  <path
     id="rect2607"
     style="fill:url(#linearGradient3380);fill-opacity:1;stroke-width:0.529167;stroke-linejoin:round"
     d="m 14.2875,4.4979167 -3.439583,-1e-7 c -0.293158,0 -0.529166,-0.2360083 -0.529166,-0.5291667 V 0.52916673 Z"
     sodipodi:nodetypes="csscc" />
  <path
     id="path869"
     style="font-size:1.71779px;line-height:1.25;font-family:Roboto;-inkscape-font-specification:Roboto;text-align:center;text-anchor:middle;stroke-width:0.162311;fill:#808080;fill-opacity:1"
     d="M 24.550781 51.0625 L 24.550781 55.679688 L 25.162109 55.679688 L 25.162109 53.8125 L 26.246094 53.8125 L 27.248047 55.679688 L 27.900391 55.679688 L 27.900391 55.640625 L 26.816406 53.681641 C 27.093264 53.575983 27.30861 53.416593 27.462891 53.203125 C 27.619285 52.989667 27.697266 52.738597 27.697266 52.451172 C 27.697266 51.998896 27.558429 51.654668 27.277344 51.417969 C 26.998372 51.18127 26.598027 51.0625 26.078125 51.0625 L 24.550781 51.0625 z M 31.800781 51.0625 L 31.1875 51.064453 L 31.1875 54.193359 C 31.1875 54.527286 31.095978 54.784889 30.912109 54.96875 C 30.730355 55.152611 30.467535 55.244141 30.123047 55.244141 C 29.782785 55.244141 29.521757 55.152611 29.337891 54.96875 C 29.154024 54.78277 29.060547 54.523374 29.060547 54.189453 L 29.060547 51.064453 L 28.458984 51.064453 L 28.458984 54.208984 C 28.463211 54.686618 28.61591 55.061354 28.916016 55.333984 C 29.216122 55.606617 29.617939 55.742188 30.123047 55.742188 L 30.285156 55.736328 C 30.750109 55.702514 31.118154 55.546389 31.388672 55.269531 C 31.661304 54.992673 31.798668 54.636538 31.800781 54.201172 L 31.800781 51.0625 z M 32.761719 51.0625 L 32.761719 55.679688 L 34.361328 55.679688 C 34.851642 55.679688 35.231595 55.560918 35.5 55.324219 C 35.768405 55.087515 35.902344 54.761885 35.902344 54.347656 C 35.902344 54.077145 35.829421 53.844835 35.683594 53.650391 C 35.53988 53.453845 35.343133 53.319745 35.09375 53.25 C 35.305093 53.159112 35.473125 53.032025 35.595703 52.867188 C 35.718281 52.700218 35.779297 52.508528 35.779297 52.292969 C 35.779297 51.887194 35.652048 51.582118 35.398438 51.375 C 35.14694 51.167882 34.770412 51.0625 34.269531 51.0625 L 32.761719 51.0625 z M 36.140625 51.0625 L 37.732422 53.957031 L 37.732422 55.679688 L 38.339844 55.679688 L 38.339844 53.957031 L 39.931641 51.0625 L 39.240234 51.0625 L 38.035156 53.380859 L 36.837891 51.0625 L 36.140625 51.0625 z M 25.162109 51.564453 L 26.09375 51.564453 C 26.414991 51.56657 26.661005 51.642758 26.830078 51.794922 C 27.001266 51.947088 27.085938 52.16586 27.085938 52.451172 C 27.085938 52.713234 26.996047 52.923681 26.816406 53.080078 C 26.638879 53.236475 26.399876 53.314453 26.097656 53.314453 L 25.162109 53.314453 L 25.162109 51.564453 z M 33.369141 51.564453 L 34.269531 51.564453 C 34.571752 51.564453 34.797374 51.622048 34.945312 51.738281 C 35.093253 51.852408 35.167969 52.037407 35.167969 52.291016 C 35.167969 52.519271 35.086401 52.698891 34.925781 52.832031 C 34.767274 52.965171 34.555354 53.03125 34.289062 53.03125 L 33.369141 53.03125 L 33.369141 51.564453 z M 33.369141 53.519531 L 34.384766 53.519531 C 34.989205 53.519531 35.291016 53.797686 35.291016 54.353516 C 35.291016 54.611363 35.207817 54.81496 35.042969 54.962891 C 34.880235 55.108705 34.658199 55.181641 34.375 55.181641 L 33.369141 55.181641 L 33.369141 53.519531 z "
     transform="scale(0.26458334)" />
  <path
     id="rect74153-4"
     style="opacity:1;stroke-width:2;stroke-linejoin:round;fill:url(#linearGradient79355);fill-opacity:1"
     d="M 21 23 L 18 29 L 26 29 L 21 23 z M 22 23 L 26.5 28 L 31 23 L 22 23 z M 32 23 L 27 29 L 37 29 L 32 23 z M 33 23 L 37.5 28 L 42 23 L 33 23 z M 43 23 L 38 29 L 46 29 L 43 23 z M 18 30 L 31 44 L 26 30 L 18 30 z M 27 30 L 32 45 L 37 30 L 27 30 z M 38 30 L 33 44 L 46 30 L 38 30 z "
     transform="scale(0.26458334)" />
  <path
     id="rect74153-4-7-7"
     style="opacity:0.3;stroke-width:2;stroke-linejoin:round;fill:url(#linearGradient79999);fill-opacity:1"
     d="M 22 24 L 26.5 29 L 31 24 L 30.099609 24 L 26.5 28 L 22.900391 24 L 22 24 z M 33 24 L 37.5 29 L 42 24 L 41.099609 24 L 37.5 28 L 33.900391 24 L 33 24 z M 18.5 29 L 18 30 L 26 30 L 25.166016 29 L 18.5 29 z M 27.833984 29 L 27 30 L 37 30 L 36.166016 29 L 27.833984 29 z M 38.833984 29 L 38 30 L 46 30 L 45.5 29 L 38.833984 29 z M 18 31 L 31 45 L 30.419922 43.375 L 18.927734 31 L 18 31 z M 27 31 L 32 46 L 37 31 L 36.666016 31 L 32 45 L 27.333984 31 L 27 31 z M 45.072266 31 L 33.580078 43.375 L 33 45 L 46 31 L 45.072266 31 z "
     transform="scale(0.26458334)" />
</svg>
