<?xml version="1.0" encoding="UTF-8" standalone="no"?>
<!-- Created with Inkscape (http://www.inkscape.org/) -->

<svg
   width="64"
   height="64"
   viewBox="0 0 16.933333 16.933334"
   version="1.1"
   id="svg5"
   inkscape:version="1.1.1 (3bf5ae0d25, 2021-09-20, custom)"
   sodipodi:docname="text-x-lua.svg"
   xmlns:inkscape="http://www.inkscape.org/namespaces/inkscape"
   xmlns:sodipodi="http://sodipodi.sourceforge.net/DTD/sodipodi-0.dtd"
   xmlns:xlink="http://www.w3.org/1999/xlink"
   xmlns="http://www.w3.org/2000/svg"
   xmlns:svg="http://www.w3.org/2000/svg">
  <sodipodi:namedview
     id="namedview7"
     pagecolor="#ffffff"
     bordercolor="#666666"
     borderopacity="1.0"
     inkscape:pageshadow="2"
     inkscape:pageopacity="0.0"
     inkscape:pagecheckerboard="0"
     inkscape:document-units="px"
     showgrid="false"
     units="px"
     height="64px"
     inkscape:zoom="6.2421875"
     inkscape:cx="-2.8836045"
     inkscape:cy="21.386733"
     inkscape:window-width="1920"
     inkscape:window-height="1019"
     inkscape:window-x="0"
     inkscape:window-y="0"
     inkscape:window-maximized="1"
     inkscape:current-layer="svg5" />
  <defs
     id="defs2">
    <linearGradient
       inkscape:collect="always"
       id="linearGradient1701">
      <stop
         style="stop-color:#1a7fd4;stop-opacity:1;"
         offset="0"
         id="stop1697" />
      <stop
         style="stop-color:#32bbe6;stop-opacity:1"
         offset="1"
         id="stop1699" />
    </linearGradient>
    <linearGradient
       inkscape:collect="always"
       id="linearGradient864">
      <stop
         style="stop-color:#999999;stop-opacity:1"
         offset="0"
         id="stop860" />
      <stop
         style="stop-color:#666666;stop-opacity:1"
         offset="1"
         id="stop862" />
    </linearGradient>
    <linearGradient
       inkscape:collect="always"
       id="linearGradient10453">
      <stop
         style="stop-color:#666666;stop-opacity:1"
         offset="0"
         id="stop10449" />
      <stop
         style="stop-color:#666666;stop-opacity:0"
         offset="1"
         id="stop10451" />
    </linearGradient>
    <linearGradient
       inkscape:collect="always"
       id="linearGradient8423">
      <stop
         style="stop-color:#fcfcfc;stop-opacity:1"
         offset="0"
         id="stop8419" />
      <stop
         style="stop-color:#ffffff;stop-opacity:0;"
         offset="1"
         id="stop8421" />
    </linearGradient>
    <linearGradient
       inkscape:collect="always"
       id="linearGradient6263">
      <stop
         style="stop-color:#000000;stop-opacity:1;"
         offset="0"
         id="stop6259" />
      <stop
         style="stop-color:#000000;stop-opacity:0;"
         offset="1"
         id="stop6261" />
    </linearGradient>
    <linearGradient
       inkscape:collect="always"
       id="linearGradient3378">
      <stop
         style="stop-color:#b0b0b0;stop-opacity:1"
         offset="0"
         id="stop3374" />
      <stop
         style="stop-color:#fcfcfc;stop-opacity:1"
         offset="1"
         id="stop3376" />
    </linearGradient>
    <linearGradient
       inkscape:collect="always"
       xlink:href="#linearGradient3378"
       id="linearGradient3380"
       x1="14.942825"
       y1="1.1138821"
       x2="11.503234"
       y2="4.3115072"
       gradientUnits="userSpaceOnUse"
       gradientTransform="translate(-0.5291663,-0.52916667)" />
    <linearGradient
       inkscape:collect="always"
       xlink:href="#linearGradient6263"
       id="linearGradient6265"
       x1="11.90625"
       y1="2.3812501"
       x2="12.170834"
       y2="7.1437502"
       gradientUnits="userSpaceOnUse"
       gradientTransform="translate(-0.52916663,0.52916673)" />
    <linearGradient
       inkscape:collect="always"
       xlink:href="#linearGradient8423"
       id="linearGradient8425"
       x1="13.692527"
       y1="11.622045"
       x2="1.6077259"
       y2="-0.71580184"
       gradientUnits="userSpaceOnUse" />
    <linearGradient
       inkscape:collect="always"
       xlink:href="#linearGradient10453"
       id="linearGradient10455"
       x1="10"
       y1="72.5"
       x2="58"
       y2="32.5"
       gradientUnits="userSpaceOnUse" />
    <linearGradient
       inkscape:collect="always"
       xlink:href="#linearGradient864"
       id="linearGradient866"
       x1="5.2916665"
       y1="12.43844"
       x2="5.2916684"
       y2="6.0884404"
       gradientUnits="userSpaceOnUse" />
    <linearGradient
       inkscape:collect="always"
       xlink:href="#linearGradient1701"
       id="linearGradient1703"
       x1="22.574219"
       y1="32.154297"
       x2="41.164062"
       y2="16.154297"
       gradientUnits="userSpaceOnUse" />
  </defs>
  <path
     id="rect1068"
     style="fill:#e5e5e5;fill-opacity:1;stroke-width:0.529167;stroke-linejoin:round"
     d="m 3.175,0.5291667 7.143751,3e-8 3.968749,3.96874997 1e-6,11.3770833 c 0,0.293158 -0.236009,0.529167 -0.529167,0.529167 H 3.175 c -0.2931584,0 -0.5291667,-0.236009 -0.5291667,-0.529167 V 1.0583334 c 0,-0.29315835 0.2360083,-0.5291667 0.5291667,-0.5291667 z"
     sodipodi:nodetypes="cccsssssc" />
  <path
     id="rect8140"
     style="opacity:1;fill:url(#linearGradient8425);fill-opacity:1;stroke-width:0.518136;stroke-linejoin:round"
     d="m 3.175,0.5291668 h 7.143751 l -1e-6,2.9104166 0.79375,1.0583333 3.175,0 V 15.875 c 0,0.295111 -0.236009,0.529167 -0.529167,0.529167 H 3.175 c -0.293159,0 -0.529167,-0.236009 -0.529167,-0.529167 V 1.0583337 c 0,-0.2931589 0.236008,-0.5291669 0.529167,-0.5291669 z"
     sodipodi:nodetypes="sccccssssss" />
  <path
     id="rect9905"
     style="opacity:0.3;fill:url(#linearGradient10455);fill-opacity:1;stroke-width:2;stroke-linejoin:round"
     d="M 10 59 L 10 60 C 10 61.108 10.892 62 12 62 L 52 62 C 53.108 62 54 61.108 54 60 L 54 59 C 54 60.108 53.108 61 52 61 L 12 61 C 10.892 61 10 60.108 10 59 z "
     transform="scale(0.26458334)" />
  <path
     id="rect5598"
     style="opacity:0.2;fill:url(#linearGradient6265);fill-opacity:1;stroke-width:0.529167;stroke-linejoin:round"
     d="M 10.444901,4.3115072 10.31875,3.4395834 14.2875,4.4979167 v 3.7041668 z"
     sodipodi:nodetypes="ccccc" />
  <path
     id="rect2607"
     style="fill:url(#linearGradient3380);fill-opacity:1;stroke-width:0.529167;stroke-linejoin:round"
     d="m 14.2875,4.4979167 -3.439583,-1e-7 c -0.293158,0 -0.529166,-0.2360083 -0.529166,-0.5291667 V 0.52916673 Z"
     sodipodi:nodetypes="csscc" />
  <path
     id="path2061"
     style="font-size:1.67233px;line-height:1.25;font-family:Roboto;-inkscape-font-specification:Roboto;text-align:center;text-anchor:middle;stroke-width:0.158015;fill:#808080"
     d="M 26.908203 51.0625 L 26.908203 55.554688 L 29.632812 55.554688 L 29.632812 55.070312 L 27.503906 55.070312 L 27.503906 51.0625 L 26.908203 51.0625 z M 30.052734 51.0625 L 30.052734 54.123047 C 30.056849 54.58804 30.205883 54.95342 30.498047 55.21875 C 30.790211 55.484169 31.182087 55.617188 31.673828 55.617188 L 31.830078 55.611328 C 32.282727 55.578408 32.640938 55.425781 32.904297 55.15625 C 33.169713 54.886719 33.304583 54.541031 33.306641 54.117188 L 33.306641 51.0625 L 32.710938 51.0625 L 32.710938 54.107422 C 32.710938 54.432509 32.620407 54.684283 32.441406 54.863281 C 32.264462 55.04228 32.009199 55.132812 31.673828 55.132812 C 31.342571 55.132813 31.087204 55.04228 30.908203 54.863281 C 30.729202 54.682222 30.638672 54.430551 30.638672 54.105469 L 30.638672 51.0625 L 30.052734 51.0625 z M 35.453125 51.0625 L 33.738281 55.554688 L 34.349609 55.554688 L 34.771484 54.382812 L 36.654297 54.382812 L 37.083984 55.554688 L 37.691406 55.554688 L 35.972656 51.0625 L 35.453125 51.0625 z M 35.712891 51.792969 L 36.478516 53.894531 L 34.951172 53.894531 L 35.712891 51.792969 z "
     transform="scale(0.26458334)" />
  <path
     style="color:#000000;fill:url(#linearGradient866);stroke-width:0.00688003;stroke-dasharray:0.426823;-inkscape-stroke:none;fill-opacity:1"
     d="m 8.5095882,5.5562504 -0.0014,0.1134936 c 0.139679,0.0017 0.279249,0.01292 0.417371,0.033661 l 0.01684,-0.1122307 c -0.143278,-0.021515 -0.287997,-0.033167 -0.432843,-0.034924 z m -0.433536,0.024295 c -0.14374,0.017924 -0.286249,0.045654 -0.426225,0.082937 l 0.02921,0.1096774 c 0.134986,-0.035952 0.272435,-0.062694 0.411055,-0.07998 z m 1.290396,0.1043562 -0.03202,0.1088845 c 0.133984,0.039412 0.265265,0.088084 0.39258,0.1455154 l 0.04667,-0.1034558 c -0.132066,-0.059572 -0.268232,-0.110058 -0.40723,-0.1509441 z m -2.127637,0.1186942 c -0.133607,0.05599 -0.263379,0.1211444 -0.388077,0.1949254 l 0.0578,0.097664 c 0.12019,-0.071118 0.245326,-0.1339245 0.374152,-0.187911 z m 2.9175658,0.2372939 -0.06021,0.096213 c 0.01414,0.00886 0.02826,0.017855 0.04231,0.026984 l 0.0618,-0.095191 c -0.01452,-0.00943 -0.02916,-0.018778 -0.0439,-0.028006 z m -3.6633638,0.203848 c -0.113419,0.090146 -0.220606,0.1880838 -0.3206474,0.2928448 l 0.082077,0.078382 C 6.3509172,6.5149377 6.4542862,6.4204916 6.5636272,6.3335871 Z M 5.8944101,6.8711026 c -0.085008,0.1172947 -0.1620085,0.2404155 -0.230172,0.36827 l 0.1001501,0.053388 C 5.8300905,7.1695223 5.9043387,7.050803 5.9863096,6.9376991 Z m 5.4067399,0.4205018 -0.101118,0.05152 c 0.06342,0.1244593 0.118329,0.253263 0.164181,0.3852013 l 0.107205,-0.03725 C 11.423863,7.5542334 11.36692,7.4206746 11.30115,7.2916044 Z M 5.4866875,7.6356867 C 5.4366813,7.7716555 5.3960168,7.9110571 5.3651044,8.0526005 l 0.1108733,0.024215 c 0.0298,-0.136451 0.069005,-0.2708697 0.1172159,-0.4019584 z m 6.0989365,0.4743326 -0.111276,0.022306 c 0.02746,0.1369586 0.04552,0.2758108 0.05404,0.4152342 l 0.11328,-0.00693 c -0.0088,-0.1445918 -0.02758,-0.288577 -0.05605,-0.4306174 z m -6.2840794,0.372113 c -0.011406,0.1444156 -0.012927,0.2895855 -0.0046,0.4341946 l 0.1133055,-0.00653 c -0.00804,-0.1394662 -0.00657,-0.2794791 0.00443,-0.4187281 z m 6.2237984,0.4841555 c -0.01055,0.1392812 -0.03066,0.2778596 -0.06011,0.4144009 l 0.11094,0.02392 c 0.03055,-0.1416085 0.0514,-0.285293 0.06234,-0.4297469 z m -6.0625744,0.358971 -0.1113705,0.021863 c 0.027898,0.1421485 0.065518,0.2823935 0.1125934,0.4194135 l 0.1073392,-0.03687 C 5.5259501,9.5975753 5.4896699,9.4623275 5.4627686,9.3252588 Z m 5.8864484,0.4577775 c -0.04777,0.131257 -0.104538,0.2592417 -0.169772,0.3827557 l 0.100352,0.05301 c 0.06765,-0.128097 0.12653,-0.2608247 0.176073,-0.3969597 z m -5.6150767,0.3323787 -0.1012924,0.0512 c 0.065354,0.129307 0.1396262,0.254092 0.2220691,0.373215 L 5.948241,10.47524 C 5.8687525,10.360383 5.7971388,10.240066 5.7341403,10.115419 Z m 5.2249157,0.406432 c -0.08146,0.113475 -0.170686,0.221389 -0.266857,0.32269 l 0.0823,0.07814 c 0.09974,-0.105064 0.192272,-0.216953 0.276749,-0.334636 z m -4.7496556,0.280791 -0.083733,0.0766 c 0.097788,0.106878 0.2028825,0.207056 0.3143315,0.299605 l 0.07251,-0.0873 C 6.4050502,11.00231 6.3036932,10.905695 6.2094004,10.802638 Z m 4.1744346,0.325177 c -0.109081,0.08725 -0.22416,0.16703 -0.344123,0.238584 l 0.05814,0.09748 c 0.124415,-0.07421 0.243733,-0.156938 0.356861,-0.247426 z m -3.5316758,0.208645 -0.05994,0.09638 c 0.123012,0.07651 0.25124,0.144591 0.383534,0.203619 l 0.04626,-0.103644 c -0.127559,-0.05692 -0.25124,-0.122578 -0.369854,-0.19635 z m 2.814122,0.219368 c -0.128595,0.05453 -0.26094,0.100244 -0.395777,0.136714 l 0.02963,0.109556 c 0.139841,-0.03783 0.277077,-0.08523 0.41045,-0.14178 z m -2.05111,0.121099 -0.0317,0.108979 c 0.139104,0.04046 0.280971,0.07138 0.42429,0.09248 l 0.01654,-0.112284 c -0.138194,-0.02035 -0.275001,-0.05016 -0.40912,-0.08917 z m 1.244587,0.09707 c -0.138551,0.01775 -0.278317,0.02599 -0.417989,0.02466 l -0.0011,0.113494 c 0.144863,0.0014 0.289803,-0.0072 0.433496,-0.02558 z"
     id="path10" />
  <path
     id="path1180"
     style="fill:url(#linearGradient1703);fill-opacity:1;stroke-width:0.833911"
     d="M 41.019531 21.859375 A 2.1447938 2.1447938 0 0 0 38.875 24.003906 A 2.1447938 2.1447938 0 0 0 41.019531 26.148438 A 2.1447938 2.1447938 0 0 0 43.164062 24.003906 A 2.1447938 2.1447938 0 0 0 41.019531 21.859375 z M 32.011719 23.574219 A 9.4370918 9.4370918 0 0 0 22.574219 33.011719 A 9.4370918 9.4370918 0 0 0 32.011719 42.449219 A 9.4370918 9.4370918 0 0 0 41.449219 33.011719 A 9.4370918 9.4370918 0 0 0 32.011719 23.574219 z "
     transform="scale(0.26458334)" />
  <circle
     style="fill:#ffffff;fill-opacity:1;stroke-width:0.0501454"
     id="path1180-3-6"
     cx="9.4912567"
     cy="7.7127976"
     r="0.56747669" />
</svg>
