<?xml version="1.0" encoding="UTF-8" standalone="no"?>
<!-- Created with Inkscape (http://www.inkscape.org/) -->

<svg
   width="64"
   height="64"
   viewBox="0 0 16.933333 16.933334"
   version="1.1"
   id="svg5"
   inkscape:version="1.1.1 (3bf5ae0d25, 2021-09-20, custom)"
   sodipodi:docname="text-x-po.svg"
   xmlns:inkscape="http://www.inkscape.org/namespaces/inkscape"
   xmlns:sodipodi="http://sodipodi.sourceforge.net/DTD/sodipodi-0.dtd"
   xmlns:xlink="http://www.w3.org/1999/xlink"
   xmlns="http://www.w3.org/2000/svg"
   xmlns:svg="http://www.w3.org/2000/svg">
  <sodipodi:namedview
     id="namedview7"
     pagecolor="#ffffff"
     bordercolor="#666666"
     borderopacity="1.0"
     inkscape:pageshadow="2"
     inkscape:pageopacity="0.0"
     inkscape:pagecheckerboard="0"
     inkscape:document-units="px"
     showgrid="false"
     units="px"
     height="64px"
     inkscape:zoom="10.015625"
     inkscape:cx="32"
     inkscape:cy="32"
     inkscape:window-width="1541"
     inkscape:window-height="947"
     inkscape:window-x="23"
     inkscape:window-y="15"
     inkscape:window-maximized="0"
     inkscape:current-layer="svg5" />
  <defs
     id="defs2">
    <linearGradient
       inkscape:collect="always"
       id="linearGradient10453">
      <stop
         style="stop-color:#666666;stop-opacity:1"
         offset="0"
         id="stop10449" />
      <stop
         style="stop-color:#666666;stop-opacity:0"
         offset="1"
         id="stop10451" />
    </linearGradient>
    <linearGradient
       inkscape:collect="always"
       id="linearGradient8423">
      <stop
         style="stop-color:#fcfcfc;stop-opacity:1"
         offset="0"
         id="stop8419" />
      <stop
         style="stop-color:#ffffff;stop-opacity:0;"
         offset="1"
         id="stop8421" />
    </linearGradient>
    <linearGradient
       inkscape:collect="always"
       id="linearGradient6263">
      <stop
         style="stop-color:#000000;stop-opacity:1;"
         offset="0"
         id="stop6259" />
      <stop
         style="stop-color:#000000;stop-opacity:0;"
         offset="1"
         id="stop6261" />
    </linearGradient>
    <linearGradient
       inkscape:collect="always"
       id="linearGradient3378">
      <stop
         style="stop-color:#b0b0b0;stop-opacity:1"
         offset="0"
         id="stop3374" />
      <stop
         style="stop-color:#fcfcfc;stop-opacity:1"
         offset="1"
         id="stop3376" />
    </linearGradient>
    <linearGradient
       inkscape:collect="always"
       xlink:href="#linearGradient3378"
       id="linearGradient3380"
       x1="14.942825"
       y1="1.1138821"
       x2="11.503234"
       y2="4.3115072"
       gradientUnits="userSpaceOnUse"
       gradientTransform="translate(-0.5291663,-0.52916667)" />
    <linearGradient
       inkscape:collect="always"
       xlink:href="#linearGradient6263"
       id="linearGradient6265"
       x1="11.90625"
       y1="2.3812501"
       x2="12.170834"
       y2="7.1437502"
       gradientUnits="userSpaceOnUse"
       gradientTransform="translate(-0.52916663,0.52916673)" />
    <linearGradient
       inkscape:collect="always"
       xlink:href="#linearGradient8423"
       id="linearGradient8425"
       x1="13.692527"
       y1="11.622045"
       x2="1.6077259"
       y2="-0.71580184"
       gradientUnits="userSpaceOnUse" />
    <linearGradient
       inkscape:collect="always"
       xlink:href="#linearGradient10453"
       id="linearGradient10455"
       x1="10"
       y1="72.5"
       x2="58"
       y2="32.5"
       gradientUnits="userSpaceOnUse" />
  </defs>
  <path
     id="rect1068"
     style="fill:#e5e5e5;fill-opacity:1;stroke-width:0.529167;stroke-linejoin:round"
     d="m 3.175,0.5291667 7.143751,3e-8 3.968749,3.96874997 1e-6,11.3770833 c 0,0.293158 -0.236009,0.529167 -0.529167,0.529167 H 3.175 c -0.2931584,0 -0.5291667,-0.236009 -0.5291667,-0.529167 V 1.0583334 c 0,-0.29315835 0.2360083,-0.5291667 0.5291667,-0.5291667 z"
     sodipodi:nodetypes="cccsssssc" />
  <path
     id="rect8140"
     style="opacity:1;fill:url(#linearGradient8425);fill-opacity:1;stroke-width:0.518136;stroke-linejoin:round"
     d="m 3.175,0.5291668 h 7.143751 l -1e-6,2.9104166 0.79375,1.0583333 3.175,0 V 15.875 c 0,0.295111 -0.236009,0.529167 -0.529167,0.529167 H 3.175 c -0.293159,0 -0.529167,-0.236009 -0.529167,-0.529167 V 1.0583337 c 0,-0.2931589 0.236008,-0.5291669 0.529167,-0.5291669 z"
     sodipodi:nodetypes="sccccssssss" />
  <path
     id="rect9905"
     style="opacity:0.3;fill:url(#linearGradient10455);fill-opacity:1;stroke-width:2;stroke-linejoin:round"
     d="M 10 59 L 10 60 C 10 61.108 10.892 62 12 62 L 52 62 C 53.108 62 54 61.108 54 60 L 54 59 C 54 60.108 53.108 61 52 61 L 12 61 C 10.892 61 10 60.108 10 59 z "
     transform="scale(0.26458334)" />
  <path
     id="rect5598"
     style="opacity:0.2;fill:url(#linearGradient6265);fill-opacity:1;stroke-width:0.529167;stroke-linejoin:round"
     d="M 10.444901,4.3115072 10.31875,3.4395834 14.2875,4.4979167 v 3.7041668 z"
     sodipodi:nodetypes="ccccc" />
  <path
     id="rect2607"
     style="fill:url(#linearGradient3380);fill-opacity:1;stroke-width:0.529167;stroke-linejoin:round"
     d="m 14.2875,4.4979167 -3.439583,-1e-7 c -0.293158,0 -0.529166,-0.2360083 -0.529166,-0.5291667 V 0.52916673 Z"
     sodipodi:nodetypes="csscc" />
  <path
     id="path1400"
     style="font-size:1.67233px;line-height:1.25;font-family:Roboto;-inkscape-font-specification:Roboto;text-align:center;text-anchor:middle;stroke-width:0.158015;fill:#808080"
     d="M 34.072266 51 C 33.718377 51 33.402657 51.088693 33.126953 51.265625 C 32.853306 51.440511 32.64043 51.694135 32.490234 52.025391 C 32.340038 52.356646 32.265625 52.737846 32.265625 53.169922 L 32.265625 53.494141 C 32.269742 53.917984 32.347851 54.290255 32.498047 54.613281 C 32.650301 54.934246 32.863072 55.182531 33.136719 55.357422 C 33.410365 55.530247 33.724236 55.617188 34.078125 55.617188 C 34.440244 55.617188 34.755755 55.530247 35.027344 55.357422 C 35.298932 55.184592 35.510063 54.934563 35.658203 54.607422 C 35.806343 54.278223 35.880859 53.893427 35.880859 53.453125 L 35.880859 53.169922 C 35.880859 52.731676 35.806343 52.346777 35.658203 52.017578 C 35.510064 51.686318 35.297189 51.434544 35.021484 51.261719 C 34.747838 51.086827 34.432327 51 34.072266 51 z M 28.435547 51.0625 L 28.435547 55.554688 L 29.029297 55.554688 L 29.029297 53.796875 L 30.087891 53.796875 C 30.596091 53.796875 30.98427 53.677917 31.255859 53.443359 C 31.529506 53.206748 31.667969 52.871735 31.667969 52.435547 C 31.667969 52.021986 31.527866 51.688511 31.248047 51.4375 C 30.970285 51.186489 30.585491 51.0625 30.09375 51.0625 L 28.435547 51.0625 z M 34.037109 51.509766 C 34.048657 51.509486 34.060564 51.509766 34.072266 51.509766 C 34.457017 51.509766 34.754771 51.651508 34.96875 51.9375 C 35.182729 52.221436 35.291016 52.631174 35.291016 53.164062 L 35.291016 53.496094 C 35.284842 54.016638 35.176661 54.417447 34.966797 54.697266 C 34.756933 54.975028 34.460819 55.113281 34.078125 55.113281 C 33.697489 55.113281 33.397781 54.966096 33.179688 54.671875 C 32.96365 54.375595 32.855469 53.969555 32.855469 53.453125 L 32.855469 53.123047 C 32.861642 52.616905 32.971568 52.221436 33.185547 51.9375 C 33.394833 51.660445 33.679144 51.518424 34.037109 51.509766 z M 29.029297 51.548828 L 30.126953 51.548828 C 30.421173 51.555001 30.65355 51.638349 30.822266 51.798828 C 30.990981 51.959312 31.074219 52.173932 31.074219 52.441406 C 31.074219 52.723281 30.990981 52.939645 30.822266 53.089844 C 30.653551 53.237976 30.410604 53.3125 30.09375 53.3125 L 29.029297 53.3125 L 29.029297 51.548828 z "
     transform="scale(0.26458334)" />
</svg>
