<?xml version="1.0" encoding="UTF-8" standalone="no"?>
<!-- Created with Inkscape (http://www.inkscape.org/) -->

<svg
   width="64"
   height="64"
   viewBox="0 0 16.933333 16.933334"
   version="1.1"
   id="svg5"
   inkscape:version="1.1.1 (3bf5ae0d25, 2021-09-20, custom)"
   sodipodi:docname="text-x-javascript.svg"
   xmlns:inkscape="http://www.inkscape.org/namespaces/inkscape"
   xmlns:sodipodi="http://sodipodi.sourceforge.net/DTD/sodipodi-0.dtd"
   xmlns:xlink="http://www.w3.org/1999/xlink"
   xmlns="http://www.w3.org/2000/svg"
   xmlns:svg="http://www.w3.org/2000/svg">
  <sodipodi:namedview
     id="namedview7"
     pagecolor="#ffffff"
     bordercolor="#666666"
     borderopacity="1.0"
     inkscape:pageshadow="2"
     inkscape:pageopacity="0.0"
     inkscape:pagecheckerboard="0"
     inkscape:document-units="px"
     showgrid="false"
     units="px"
     height="64px"
     inkscape:zoom="6.2421875"
     inkscape:cx="12.015019"
     inkscape:cy="29.396746"
     inkscape:window-width="1920"
     inkscape:window-height="1019"
     inkscape:window-x="0"
     inkscape:window-y="0"
     inkscape:window-maximized="1"
     inkscape:current-layer="svg5" />
  <defs
     id="defs2">
    <linearGradient
       inkscape:collect="always"
       id="linearGradient4955">
      <stop
         style="stop-color:#ff7f2a;stop-opacity:1;"
         offset="0"
         id="stop4951" />
      <stop
         style="stop-color:#ffc159;stop-opacity:1"
         offset="1"
         id="stop4953" />
    </linearGradient>
    <linearGradient
       inkscape:collect="always"
       id="linearGradient10453">
      <stop
         style="stop-color:#666666;stop-opacity:1"
         offset="0"
         id="stop10449" />
      <stop
         style="stop-color:#666666;stop-opacity:0"
         offset="1"
         id="stop10451" />
    </linearGradient>
    <linearGradient
       inkscape:collect="always"
       id="linearGradient8423">
      <stop
         style="stop-color:#fcfcfc;stop-opacity:1"
         offset="0"
         id="stop8419" />
      <stop
         style="stop-color:#ffffff;stop-opacity:0;"
         offset="1"
         id="stop8421" />
    </linearGradient>
    <linearGradient
       inkscape:collect="always"
       id="linearGradient6263">
      <stop
         style="stop-color:#000000;stop-opacity:1;"
         offset="0"
         id="stop6259" />
      <stop
         style="stop-color:#000000;stop-opacity:0;"
         offset="1"
         id="stop6261" />
    </linearGradient>
    <linearGradient
       inkscape:collect="always"
       id="linearGradient3378">
      <stop
         style="stop-color:#b0b0b0;stop-opacity:1"
         offset="0"
         id="stop3374" />
      <stop
         style="stop-color:#fcfcfc;stop-opacity:1"
         offset="1"
         id="stop3376" />
    </linearGradient>
    <linearGradient
       inkscape:collect="always"
       xlink:href="#linearGradient3378"
       id="linearGradient3380"
       x1="14.942825"
       y1="1.1138821"
       x2="11.503234"
       y2="4.3115072"
       gradientUnits="userSpaceOnUse"
       gradientTransform="translate(-0.5291663,-0.52916667)" />
    <linearGradient
       inkscape:collect="always"
       xlink:href="#linearGradient6263"
       id="linearGradient6265"
       x1="11.90625"
       y1="2.3812501"
       x2="12.170834"
       y2="7.1437502"
       gradientUnits="userSpaceOnUse"
       gradientTransform="translate(-0.52916663,0.52916673)" />
    <linearGradient
       inkscape:collect="always"
       xlink:href="#linearGradient8423"
       id="linearGradient8425"
       x1="13.692527"
       y1="11.622045"
       x2="1.6077259"
       y2="-0.71580184"
       gradientUnits="userSpaceOnUse" />
    <linearGradient
       inkscape:collect="always"
       xlink:href="#linearGradient10453"
       id="linearGradient10455"
       x1="10"
       y1="72.5"
       x2="58"
       y2="32.5"
       gradientUnits="userSpaceOnUse" />
    <linearGradient
       inkscape:collect="always"
       xlink:href="#linearGradient4955"
       id="linearGradient4957"
       x1="44"
       y1="48"
       x2="43.539062"
       y2="18"
       gradientUnits="userSpaceOnUse" />
    <linearGradient
       inkscape:collect="always"
       xlink:href="#linearGradient6263"
       id="linearGradient5330"
       x1="15.049839"
       y1="14.766334"
       x2="23.923717"
       y2="8.9455004"
       gradientUnits="userSpaceOnUse"
       gradientTransform="matrix(3.7795275,0,0,3.7795275,-40.881282,-6.8097618)" />
  </defs>
  <path
     id="rect1068"
     style="fill:#e5e5e5;fill-opacity:1;stroke-width:0.529167;stroke-linejoin:round"
     d="m 3.175,0.5291667 7.143751,3e-8 3.968749,3.96874997 1e-6,11.3770833 c 0,0.293158 -0.236009,0.529167 -0.529167,0.529167 H 3.175 c -0.2931584,0 -0.5291667,-0.236009 -0.5291667,-0.529167 V 1.0583334 c 0,-0.29315835 0.2360083,-0.5291667 0.5291667,-0.5291667 z"
     sodipodi:nodetypes="cccsssssc" />
  <path
     id="rect8140"
     style="opacity:1;fill:url(#linearGradient8425);fill-opacity:1;stroke-width:0.518136;stroke-linejoin:round"
     d="m 3.175,0.5291668 h 7.143751 l -1e-6,2.9104166 0.79375,1.0583333 3.175,0 V 15.875 c 0,0.295111 -0.236009,0.529167 -0.529167,0.529167 H 3.175 c -0.293159,0 -0.529167,-0.236009 -0.529167,-0.529167 V 1.0583337 c 0,-0.2931589 0.236008,-0.5291669 0.529167,-0.5291669 z"
     sodipodi:nodetypes="sccccssssss" />
  <path
     id="rect9905"
     style="opacity:0.3;fill:url(#linearGradient10455);fill-opacity:1;stroke-width:2;stroke-linejoin:round"
     d="M 10 59 L 10 60 C 10 61.108 10.892 62 12 62 L 52 62 C 53.108 62 54 61.108 54 60 L 54 59 C 54 60.108 53.108 61 52 61 L 12 61 C 10.892 61 10 60.108 10 59 z "
     transform="scale(0.26458334)" />
  <path
     id="rect5598"
     style="opacity:0.2;fill:url(#linearGradient6265);fill-opacity:1;stroke-width:0.529167;stroke-linejoin:round"
     d="M 10.444901,4.3115072 10.31875,3.4395834 14.2875,4.4979167 v 3.7041668 z"
     sodipodi:nodetypes="ccccc" />
  <path
     id="rect2607"
     style="fill:url(#linearGradient3380);fill-opacity:1;stroke-width:0.529167;stroke-linejoin:round"
     d="m 14.2875,4.4979167 -3.439583,-1e-7 c -0.293158,0 -0.529166,-0.2360083 -0.529166,-0.5291667 V 0.52916673 Z"
     sodipodi:nodetypes="csscc" />
  <path
     id="path6116"
     style="font-size:1.67233px;line-height:1.25;font-family:Roboto;-inkscape-font-specification:Roboto;stroke-width:0.158015;fill:#808080"
     d="M 31.007812 51 C 30.555164 51 30.188231 51.117118 29.904297 51.349609 C 29.62242 51.580047 29.480469 51.87072 29.480469 52.224609 C 29.480469 52.537355 29.595732 52.801653 29.826172 53.015625 C 30.058669 53.227538 30.429299 53.406643 30.9375 53.552734 C 31.342825 53.670001 31.623031 53.788758 31.777344 53.910156 C 31.931657 54.029496 32.007812 54.199777 32.007812 54.419922 C 32.007812 54.640067 31.92447 54.813835 31.757812 54.941406 C 31.591155 55.068978 31.351801 55.132813 31.039062 55.132812 C 30.703692 55.132813 30.43601 55.054809 30.234375 54.898438 C 30.034798 54.740012 29.933594 54.523542 29.933594 54.251953 L 29.337891 54.251953 C 29.337891 54.513247 29.410662 54.747368 29.554688 54.953125 C 29.70077 55.158875 29.908307 55.322074 30.175781 55.441406 C 30.443255 55.558698 30.730438 55.617187 31.039062 55.617188 C 31.514343 55.617188 31.8938 55.507166 32.177734 55.289062 C 32.461668 55.068913 32.603516 54.77824 32.603516 54.414062 C 32.603516 54.185686 32.552092 53.987077 32.449219 53.818359 C 32.348401 53.649644 32.192389 53.502459 31.980469 53.376953 C 31.770604 53.249381 31.477979 53.132263 31.103516 53.027344 C 30.731109 52.922399 30.466916 52.807146 30.310547 52.681641 C 30.156236 52.554089 30.080078 52.399928 30.080078 52.216797 C 30.080078 51.988423 30.159723 51.809212 30.322266 51.681641 C 30.486865 51.552028 30.715648 51.488281 31.007812 51.488281 C 31.322608 51.488281 31.567404 51.566285 31.740234 51.722656 C 31.913065 51.876967 31.998047 52.089739 31.998047 52.361328 L 32.59375 52.361328 C 32.59375 52.112371 32.528269 51.88174 32.394531 51.671875 C 32.262852 51.46201 32.074815 51.29902 31.832031 51.179688 C 31.591305 51.060355 31.316436 51 31.007812 51 z M 35.017578 51 C 34.657517 51 34.340053 51.0851 34.066406 51.255859 C 33.792759 51.424572 33.581837 51.66752 33.431641 51.984375 C 33.283501 52.301228 33.208984 52.668267 33.208984 53.085938 L 33.208984 53.517578 C 33.208984 54.155401 33.368589 54.666239 33.6875 55.046875 C 34.008469 55.427511 34.434011 55.617188 34.964844 55.617188 C 35.454527 55.617188 35.846404 55.487656 36.140625 55.230469 C 36.436905 54.971223 36.612417 54.604187 36.667969 54.128906 L 36.072266 54.128906 C 36.014656 54.499255 35.897648 54.759958 35.720703 54.910156 C 35.545816 55.058289 35.294043 55.132812 34.964844 55.132812 C 34.59861 55.132813 34.313066 54.98922 34.109375 54.701172 C 33.905684 54.413124 33.804688 54.024736 33.804688 53.537109 L 33.804688 53.101562 C 33.804688 52.585133 33.911021 52.188022 34.125 51.908203 C 34.341037 51.628382 34.638999 51.488281 35.017578 51.488281 C 35.326202 51.488281 35.565556 51.568037 35.736328 51.728516 C 35.909158 51.888999 36.020829 52.147855 36.072266 52.505859 L 36.667969 52.505859 C 36.620647 52.034693 36.454065 51.665807 36.166016 51.400391 C 35.877967 51.132916 35.494916 51 35.017578 51 z M 16.240234 51.0625 L 16.240234 54.251953 C 16.238176 54.529721 16.16202 54.746085 16.009766 54.900391 C 15.859567 55.054696 15.660856 55.132812 15.416016 55.132812 C 15.148541 55.132813 14.944701 55.060041 14.802734 54.916016 C 14.662824 54.77199 14.591797 54.57164 14.591797 54.314453 L 14 54.314453 C 14 54.72595 14.124089 55.047006 14.373047 55.275391 C 14.622004 55.503775 14.96954 55.617188 15.416016 55.617188 C 15.846032 55.617188 16.190079 55.494725 16.447266 55.251953 C 16.70651 55.009169 16.835938 54.674158 16.835938 54.244141 L 16.835938 51.0625 L 16.240234 51.0625 z M 19.126953 51.0625 L 17.410156 55.554688 L 18.021484 55.554688 L 18.443359 54.382812 L 20.326172 54.382812 L 20.755859 55.554688 L 21.363281 55.554688 L 19.644531 51.0625 L 19.126953 51.0625 z M 21.265625 51.0625 L 22.927734 55.554688 L 23.453125 55.554688 L 25.119141 51.0625 L 24.470703 51.0625 L 23.1875 54.767578 L 21.910156 51.0625 L 21.265625 51.0625 z M 26.771484 51.0625 L 25.054688 55.554688 L 25.666016 55.554688 L 26.087891 54.382812 L 27.970703 54.382812 L 28.400391 55.554688 L 29.007812 55.554688 L 27.289062 51.0625 L 26.771484 51.0625 z M 37.474609 51.0625 L 37.474609 55.554688 L 38.070312 55.554688 L 38.070312 53.738281 L 39.125 53.738281 L 40.099609 55.554688 L 40.736328 55.554688 L 40.736328 55.517578 L 39.679688 53.611328 C 39.949218 53.508444 40.160348 53.35233 40.310547 53.144531 C 40.462811 52.936725 40.539062 52.693881 40.539062 52.414062 C 40.539062 51.973745 40.402554 51.638628 40.128906 51.408203 C 39.857317 51.177753 39.467079 51.0625 38.960938 51.0625 L 37.474609 51.0625 z M 41.412109 51.0625 L 41.412109 55.554688 L 42.003906 55.554688 L 42.003906 51.0625 L 41.412109 51.0625 z M 43.087891 51.0625 L 43.087891 55.554688 L 43.679688 55.554688 L 43.679688 53.796875 L 44.738281 53.796875 C 45.246482 53.796875 45.636614 53.677917 45.908203 53.443359 C 46.181848 53.206748 46.318359 52.871735 46.318359 52.435547 C 46.318359 52.021986 46.178256 51.688511 45.898438 51.4375 C 45.620678 51.186489 45.235882 51.0625 44.744141 51.0625 L 43.087891 51.0625 z M 46.705078 51.0625 L 46.705078 51.548828 L 48.146484 51.548828 L 48.146484 55.554688 L 48.736328 55.554688 L 48.736328 51.548828 L 50.179688 51.548828 L 50.179688 51.0625 L 46.705078 51.0625 z M 38.070312 51.548828 L 38.976562 51.548828 C 39.289291 51.550894 39.528748 51.627258 39.693359 51.775391 C 39.860011 51.92353 39.943359 52.1363 39.943359 52.414062 C 39.943359 52.669181 39.854579 52.873126 39.679688 53.025391 C 39.506857 53.177655 39.27469 53.253906 38.980469 53.253906 L 38.070312 53.253906 L 38.070312 51.548828 z M 43.679688 51.548828 L 44.779297 51.548828 C 45.073515 51.555001 45.303938 51.638349 45.472656 51.798828 C 45.641374 51.959312 45.726562 52.173932 45.726562 52.441406 C 45.726562 52.723281 45.641374 52.939645 45.472656 53.089844 C 45.303941 53.237976 45.060994 53.3125 44.744141 53.3125 L 43.679688 53.3125 L 43.679688 51.548828 z M 19.384766 51.792969 L 20.150391 53.894531 L 18.623047 53.894531 L 19.384766 51.792969 z M 27.029297 51.792969 L 27.794922 53.894531 L 26.267578 53.894531 L 27.029297 51.792969 z "
     transform="scale(0.26458334)" />
  <path
     id="path4790"
     style="font-size:6.78419px;line-height:1.25;font-family:'나눔스퀘어';-inkscape-font-specification:'나눔스퀘어';stroke-width:0.641027;fill:url(#linearGradient4957);fill-opacity:1"
     d="M 28.410156 20 C 27.093917 20 26.14565 20.2816 25.564453 20.845703 C 25.00035 21.392712 24.71875 22.299496 24.71875 23.564453 L 24.71875 28.71875 C 24.71875 29.453793 24.495226 29.992104 24.050781 30.333984 C 23.623431 30.658771 22.940171 30.828609 22 30.845703 L 22 32.513672 C 22.940171 32.530766 23.623431 32.708901 24.050781 33.050781 C 24.495226 33.392662 24.71875 33.939269 24.71875 34.691406 L 24.71875 40.589844 C 24.71875 41.837708 25.00035 42.71765 25.564453 43.230469 C 26.14565 43.74329 27.093917 44 28.410156 44 L 30.794922 44 L 30.794922 42.435547 L 28.640625 42.435547 C 28.281651 42.435547 27.96491 42.418958 27.691406 42.384766 C 27.417902 42.350573 27.188034 42.26565 27 42.128906 C 26.811965 42.009249 26.667017 41.820864 26.564453 41.564453 C 26.478983 41.325136 26.435547 40.983507 26.435547 40.539062 L 26.435547 34.845703 C 26.435547 34.520917 26.410658 34.19588 26.359375 33.871094 C 26.325188 33.529213 26.230019 33.214426 26.076172 32.923828 C 25.93942 32.633229 25.734442 32.384815 25.460938 32.179688 C 25.204527 31.957465 24.862897 31.79397 24.435547 31.691406 C 24.879991 31.588843 25.229918 31.427302 25.486328 31.205078 C 25.759834 30.965762 25.966765 30.700755 26.103516 30.410156 C 26.240269 30.119558 26.325188 29.811115 26.359375 29.486328 C 26.410658 29.161542 26.435547 28.846755 26.435547 28.539062 L 26.435547 23.615234 C 26.435547 22.74344 26.615635 22.188536 26.974609 21.949219 C 27.350678 21.692808 27.905582 21.564453 28.640625 21.564453 L 30.794922 21.564453 L 30.794922 20 L 28.410156 20 z M 32.744141 20 L 32.744141 21.564453 L 34.896484 21.564453 C 35.631527 21.564453 36.180088 21.692808 36.539062 21.949219 C 36.915131 22.188535 37.103516 22.743439 37.103516 23.615234 L 37.103516 28.539062 C 37.103516 28.846755 37.120109 29.161542 37.154297 29.486328 C 37.205579 29.811115 37.298795 30.119558 37.435547 30.410156 C 37.572299 30.700755 37.768981 30.965762 38.025391 31.205078 C 38.298895 31.4273 38.659071 31.588842 39.103516 31.691406 C 38.659071 31.793971 38.307192 31.957465 38.050781 32.179688 C 37.794372 32.384816 37.589393 32.63323 37.435547 32.923828 C 37.298795 33.214426 37.20558 33.529213 37.154297 33.871094 C 37.12011 34.19588 37.103516 34.520917 37.103516 34.845703 L 37.103516 40.539062 C 37.103516 40.983505 37.051783 41.325133 36.949219 41.564453 C 36.863749 41.820861 36.727097 42.009246 36.539062 42.128906 C 36.351028 42.26565 36.119208 42.350573 35.845703 42.384766 C 35.572199 42.418958 35.255459 42.435547 34.896484 42.435547 L 32.744141 42.435547 L 32.744141 44 L 35.128906 44 C 36.445146 44 37.385115 43.74329 37.949219 43.230469 C 38.530414 42.71765 38.820312 41.837708 38.820312 40.589844 L 38.820312 34.691406 C 38.820312 33.939269 39.033586 33.392662 39.460938 33.050781 C 39.905382 32.70889 40.598892 32.530755 41.539062 32.513672 L 41.539062 30.845703 C 40.598892 30.828609 39.905382 30.658771 39.460938 30.333984 C 39.033586 29.992104 38.820312 29.453793 38.820312 28.71875 L 38.820312 23.564453 C 38.820312 22.299496 38.530414 21.392712 37.949219 20.845703 C 37.385115 20.2816 36.445146 20 35.128906 20 L 32.744141 20 z "
     transform="scale(0.26458334)" />
  <path
     id="path4790-7"
     style="font-size:6.78419px;line-height:1.25;font-family:'나눔스퀘어';-inkscape-font-specification:'나눔스퀘어';opacity:0.3;fill:url(#linearGradient5330);fill-opacity:1;stroke-width:0.641027"
     d="M 28.640625 21.564453 C 27.905582 21.564453 27.350676 21.692808 26.974609 21.949219 C 26.615634 22.188536 26.435547 22.74344 26.435547 23.615234 L 26.435547 24.615234 C 26.435547 23.74344 26.615641 23.188536 26.974609 22.949219 C 27.350672 22.692808 27.905582 22.564453 28.640625 22.564453 L 30.794922 22.564453 L 30.794922 21.564453 L 28.640625 21.564453 z M 32.744141 21.564453 L 32.744141 22.564453 L 34.896484 22.564453 C 35.631527 22.564453 36.180091 22.692809 36.539062 22.949219 C 36.915125 23.188535 37.103516 23.743439 37.103516 24.615234 L 37.103516 23.615234 C 37.103516 22.743439 36.915125 22.188535 36.539062 21.949219 C 36.180087 21.692809 35.631527 21.564453 34.896484 21.564453 L 32.744141 21.564453 z M 26.435547 28.539062 C 26.435547 28.846758 26.410656 29.161553 26.359375 29.486328 C 26.325189 29.811114 26.24027 30.119548 26.103516 30.410156 C 25.966765 30.700753 25.759834 30.965758 25.486328 31.205078 C 25.229918 31.427292 24.879991 31.58883 24.435547 31.691406 C 24.862897 31.793971 25.204527 31.957451 25.460938 32.179688 C 25.470744 32.187042 25.480604 32.193706 25.490234 32.201172 C 25.761654 31.962811 25.967461 31.699276 26.103516 31.410156 C 26.240259 31.119548 26.32517 30.811115 26.359375 30.486328 C 26.410663 30.161542 26.435547 29.846756 26.435547 29.539062 L 26.435547 28.539062 z M 37.103516 28.539062 L 37.103516 29.539062 C 37.103516 29.846758 37.12013 30.161542 37.154297 30.486328 C 37.205585 30.811114 37.298804 31.11956 37.435547 31.410156 C 37.57193 31.699999 37.768013 31.964304 38.023438 32.203125 C 38.032755 32.195441 38.041324 32.187253 38.050781 32.179688 C 38.307192 31.957485 38.65907 31.793983 39.103516 31.691406 C 38.65907 31.588841 38.298915 31.427314 38.025391 31.205078 C 37.768978 30.965762 37.57229 30.700764 37.435547 30.410156 C 37.298804 30.119556 37.205585 29.811103 37.154297 29.486328 C 37.12013 29.161542 37.103516 28.846754 37.103516 28.539062 z M 22 32.513672 L 22 33.513672 C 22.940173 33.53068 23.62343 33.708885 24.050781 34.050781 C 24.495227 34.392677 24.71875 34.939269 24.71875 35.691406 L 24.71875 34.691406 C 24.71875 33.939269 24.495226 33.392677 24.050781 33.050781 C 23.623431 32.708885 22.940171 32.53068 22 32.513672 z M 41.539062 32.513672 C 40.598894 32.530755 39.905383 32.708885 39.460938 33.050781 C 39.03359 33.392662 38.820312 33.939269 38.820312 34.691406 L 38.820312 35.691406 C 38.820312 34.939269 39.03359 34.392662 39.460938 34.050781 C 39.90538 33.708885 40.59889 33.530755 41.539062 33.513672 L 41.539062 32.513672 z M 24.71875 40.589844 L 24.71875 41.589844 C 24.71875 42.837708 25.000362 43.717647 25.564453 44.230469 C 26.14565 44.74329 27.093917 45 28.410156 45 L 30.794922 45 L 30.794922 44 L 28.410156 44 C 27.093917 44 26.14565 43.74329 25.564453 43.230469 C 25.000351 42.717647 24.71875 41.837708 24.71875 40.589844 z M 38.820312 40.589844 C 38.820312 41.837708 38.530412 42.717647 37.949219 43.230469 C 37.385114 43.743294 36.445146 44 35.128906 44 L 32.744141 44 L 32.744141 45 L 35.128906 45 C 36.445146 45 37.385119 44.743294 37.949219 44.230469 C 38.530416 43.717647 38.820312 42.837708 38.820312 41.589844 L 38.820312 40.589844 z "
     transform="scale(0.26458334)" />
</svg>
