<?xml version="1.0" encoding="UTF-8" standalone="no"?>
<!-- Created with Inkscape (http://www.inkscape.org/) -->

<svg
   width="64"
   height="64"
   viewBox="0 0 16.933333 16.933334"
   version="1.1"
   id="svg5"
   inkscape:version="1.1.1 (3bf5ae0d25, 2021-09-20, custom)"
   sodipodi:docname="text-less.svg"
   xmlns:inkscape="http://www.inkscape.org/namespaces/inkscape"
   xmlns:sodipodi="http://sodipodi.sourceforge.net/DTD/sodipodi-0.dtd"
   xmlns:xlink="http://www.w3.org/1999/xlink"
   xmlns="http://www.w3.org/2000/svg"
   xmlns:svg="http://www.w3.org/2000/svg">
  <sodipodi:namedview
     id="namedview7"
     pagecolor="#ffffff"
     bordercolor="#666666"
     borderopacity="1.0"
     inkscape:pageshadow="2"
     inkscape:pageopacity="0.0"
     inkscape:pagecheckerboard="0"
     inkscape:document-units="px"
     showgrid="false"
     units="px"
     height="64px"
     inkscape:zoom="12.484375"
     inkscape:cx="23.429287"
     inkscape:cy="40.490613"
     inkscape:window-width="1541"
     inkscape:window-height="947"
     inkscape:window-x="23"
     inkscape:window-y="15"
     inkscape:window-maximized="0"
     inkscape:current-layer="svg5" />
  <defs
     id="defs2">
    <linearGradient
       inkscape:collect="always"
       id="linearGradient4640">
      <stop
         style="stop-color:#0048a9;stop-opacity:1;"
         offset="0"
         id="stop4636" />
      <stop
         style="stop-color:#00a2ea;stop-opacity:1"
         offset="1"
         id="stop4638" />
    </linearGradient>
    <linearGradient
       inkscape:collect="always"
       id="linearGradient10453">
      <stop
         style="stop-color:#666666;stop-opacity:1"
         offset="0"
         id="stop10449" />
      <stop
         style="stop-color:#666666;stop-opacity:0"
         offset="1"
         id="stop10451" />
    </linearGradient>
    <linearGradient
       inkscape:collect="always"
       id="linearGradient8423">
      <stop
         style="stop-color:#fcfcfc;stop-opacity:1"
         offset="0"
         id="stop8419" />
      <stop
         style="stop-color:#ffffff;stop-opacity:0;"
         offset="1"
         id="stop8421" />
    </linearGradient>
    <linearGradient
       inkscape:collect="always"
       id="linearGradient6263">
      <stop
         style="stop-color:#000000;stop-opacity:1;"
         offset="0"
         id="stop6259" />
      <stop
         style="stop-color:#000000;stop-opacity:0;"
         offset="1"
         id="stop6261" />
    </linearGradient>
    <linearGradient
       inkscape:collect="always"
       id="linearGradient3378">
      <stop
         style="stop-color:#b0b0b0;stop-opacity:1"
         offset="0"
         id="stop3374" />
      <stop
         style="stop-color:#fcfcfc;stop-opacity:1"
         offset="1"
         id="stop3376" />
    </linearGradient>
    <linearGradient
       inkscape:collect="always"
       xlink:href="#linearGradient3378"
       id="linearGradient3380"
       x1="14.942825"
       y1="1.1138821"
       x2="11.503234"
       y2="4.3115072"
       gradientUnits="userSpaceOnUse"
       gradientTransform="translate(-0.5291663,-0.52916667)" />
    <linearGradient
       inkscape:collect="always"
       xlink:href="#linearGradient6263"
       id="linearGradient6265"
       x1="11.90625"
       y1="2.3812501"
       x2="12.170834"
       y2="7.1437502"
       gradientUnits="userSpaceOnUse"
       gradientTransform="translate(-0.52916663,0.52916673)" />
    <linearGradient
       inkscape:collect="always"
       xlink:href="#linearGradient8423"
       id="linearGradient8425"
       x1="13.692527"
       y1="11.622045"
       x2="1.6077259"
       y2="-0.71580184"
       gradientUnits="userSpaceOnUse" />
    <linearGradient
       inkscape:collect="always"
       xlink:href="#linearGradient10453"
       id="linearGradient10455"
       x1="10"
       y1="72.5"
       x2="58"
       y2="32.5"
       gradientUnits="userSpaceOnUse" />
    <linearGradient
       inkscape:collect="always"
       xlink:href="#linearGradient6263"
       id="linearGradient4044"
       x1="10"
       y1="42.49707"
       x2="52"
       y2="26.49707"
       gradientUnits="userSpaceOnUse" />
    <linearGradient
       inkscape:collect="always"
       xlink:href="#linearGradient4640"
       id="linearGradient4642"
       x1="44.947266"
       y1="21"
       x2="44.947266"
       y2="43.816406"
       gradientUnits="userSpaceOnUse" />
  </defs>
  <path
     id="rect1068"
     style="fill:#e5e5e5;fill-opacity:1;stroke-width:0.529167;stroke-linejoin:round"
     d="m 3.175,0.5291667 7.143751,3e-8 3.968749,3.96874997 1e-6,11.3770833 c 0,0.293158 -0.236009,0.529167 -0.529167,0.529167 H 3.175 c -0.2931584,0 -0.5291667,-0.236009 -0.5291667,-0.529167 V 1.0583334 c 0,-0.29315835 0.2360083,-0.5291667 0.5291667,-0.5291667 z"
     sodipodi:nodetypes="cccsssssc" />
  <path
     id="rect8140"
     style="opacity:1;fill:url(#linearGradient8425);fill-opacity:1;stroke-width:0.518136;stroke-linejoin:round"
     d="m 3.175,0.5291668 h 7.143751 l -1e-6,2.9104166 0.79375,1.0583333 3.175,0 V 15.875 c 0,0.295111 -0.236009,0.529167 -0.529167,0.529167 H 3.175 c -0.293159,0 -0.529167,-0.236009 -0.529167,-0.529167 V 1.0583337 c 0,-0.2931589 0.236008,-0.5291669 0.529167,-0.5291669 z"
     sodipodi:nodetypes="sccccssssss" />
  <path
     id="rect9905"
     style="opacity:0.3;fill:url(#linearGradient10455);fill-opacity:1;stroke-width:2;stroke-linejoin:round"
     d="M 10 59 L 10 60 C 10 61.108 10.892 62 12 62 L 52 62 C 53.108 62 54 61.108 54 60 L 54 59 C 54 60.108 53.108 61 52 61 L 12 61 C 10.892 61 10 60.108 10 59 z "
     transform="scale(0.26458334)" />
  <path
     id="rect5598"
     style="opacity:0.2;fill:url(#linearGradient6265);fill-opacity:1;stroke-width:0.529167;stroke-linejoin:round"
     d="M 10.444901,4.3115072 10.31875,3.4395834 14.2875,4.4979167 v 3.7041668 z"
     sodipodi:nodetypes="ccccc" />
  <path
     id="rect2607"
     style="fill:url(#linearGradient3380);fill-opacity:1;stroke-width:0.529167;stroke-linejoin:round"
     d="m 14.2875,4.4979167 -3.439583,-1e-7 c -0.293158,0 -0.529166,-0.2360083 -0.529166,-0.5291667 V 0.52916673 Z"
     sodipodi:nodetypes="csscc" />
  <path
     id="path5285"
     style="font-size:1.67233px;line-height:1.25;font-family:Roboto;-inkscape-font-specification:Roboto;text-align:center;text-anchor:middle;stroke-width:0.158015;fill:#808080"
     d="M 33.744141 51 C 33.291492 51 32.922606 51.117118 32.638672 51.349609 C 32.356795 51.580047 32.216797 51.87072 32.216797 52.224609 C 32.216797 52.537355 32.33206 52.801653 32.5625 53.015625 C 32.794997 53.227538 33.165627 53.406643 33.673828 53.552734 C 34.079155 53.670001 34.357408 53.788758 34.511719 53.910156 C 34.666032 54.029496 34.744141 54.199777 34.744141 54.419922 C 34.744141 54.640067 34.660798 54.813835 34.494141 54.941406 C 34.327484 55.068978 34.088129 55.132813 33.775391 55.132812 C 33.44002 55.132813 33.170385 55.054809 32.96875 54.898438 C 32.769173 54.740012 32.669922 54.523542 32.669922 54.251953 L 32.074219 54.251953 C 32.074219 54.513247 32.14699 54.747368 32.291016 54.953125 C 32.437098 55.158875 32.642682 55.322074 32.910156 55.441406 C 33.17763 55.558698 33.466767 55.617187 33.775391 55.617188 C 34.250672 55.617188 34.630129 55.507166 34.914062 55.289062 C 35.197996 55.068913 35.339844 54.77824 35.339844 54.414062 C 35.339844 54.185686 35.288421 53.987077 35.185547 53.818359 C 35.084729 53.649644 34.928718 53.502459 34.716797 53.376953 C 34.506933 53.249381 34.214307 53.132263 33.839844 53.027344 C 33.467437 52.922399 33.203244 52.807146 33.046875 52.681641 C 32.892562 52.554089 32.814453 52.399928 32.814453 52.216797 C 32.814453 51.988423 32.896051 51.809212 33.058594 51.681641 C 33.223193 51.552028 33.451977 51.488281 33.744141 51.488281 C 34.058936 51.488281 34.303732 51.566285 34.476562 51.722656 C 34.649393 51.876967 34.734375 52.089739 34.734375 52.361328 L 35.330078 52.361328 C 35.330078 52.112371 35.264597 51.88174 35.130859 51.671875 C 34.99918 51.46201 34.811144 51.29902 34.568359 51.179688 C 34.327633 51.060355 34.052764 51 33.744141 51 z M 37.494141 51 C 37.041492 51 36.672606 51.117118 36.388672 51.349609 C 36.106795 51.580047 35.966797 51.87072 35.966797 52.224609 C 35.966797 52.537355 36.08206 52.801653 36.3125 53.015625 C 36.544997 53.227538 36.915628 53.406643 37.423828 53.552734 C 37.829159 53.670001 38.107413 53.788758 38.261719 53.910156 C 38.416024 54.029496 38.494141 54.199777 38.494141 54.419922 C 38.494141 54.640067 38.410793 54.813835 38.244141 54.941406 C 38.077484 55.068978 37.838129 55.132813 37.525391 55.132812 C 37.19002 55.132813 36.920385 55.054809 36.71875 54.898438 C 36.519173 54.740012 36.419922 54.523542 36.419922 54.251953 L 35.824219 54.251953 C 35.824219 54.513247 35.89699 54.747368 36.041016 54.953125 C 36.187098 55.158875 36.392682 55.322074 36.660156 55.441406 C 36.92763 55.558698 37.216767 55.617187 37.525391 55.617188 C 38.000673 55.617188 38.380129 55.507166 38.664062 55.289062 C 38.947996 55.068913 39.089844 54.77824 39.089844 54.414062 C 39.089844 54.185686 39.038426 53.987077 38.935547 53.818359 C 38.834739 53.649644 38.678728 53.502459 38.466797 53.376953 C 38.256932 53.249381 37.964309 53.132263 37.589844 53.027344 C 37.217437 52.922399 36.953244 52.807146 36.796875 52.681641 C 36.642562 52.554089 36.564453 52.399928 36.564453 52.216797 C 36.564453 51.988423 36.646051 51.809212 36.808594 51.681641 C 36.973193 51.552028 37.201977 51.488281 37.494141 51.488281 C 37.808939 51.488281 38.051784 51.566285 38.224609 51.722656 C 38.397435 51.876967 38.484375 52.089739 38.484375 52.361328 L 39.080078 52.361328 C 39.080078 52.112371 39.012651 51.88174 38.878906 51.671875 C 38.747238 51.46201 38.561156 51.29902 38.318359 51.179688 C 38.077634 51.060355 37.802763 51 37.494141 51 z M 25.355469 51.0625 L 25.355469 55.554688 L 28.080078 55.554688 L 28.080078 55.070312 L 25.951172 55.070312 L 25.951172 51.0625 L 25.355469 51.0625 z M 28.757812 51.0625 L 28.757812 55.554688 L 31.611328 55.554688 L 31.611328 55.070312 L 29.349609 55.070312 L 29.349609 53.478516 L 31.296875 53.478516 L 31.296875 52.994141 L 29.349609 52.994141 L 29.349609 51.548828 L 31.580078 51.548828 L 31.580078 51.0625 L 28.757812 51.0625 z "
     transform="scale(0.26458334)" />
  <text
     xml:space="preserve"
     style="font-size:10.5833px;line-height:1.25;font-family:'Noto Serif';-inkscape-font-specification:'Noto Serif';stroke-width:0.264583"
     x="11.210568"
     y="8.940918"
     id="text80811"><tspan
       sodipodi:role="line"
       id="tspan80809"
       style="stroke-width:0.264583" /></text>
  <path
     id="path3826"
     style="font-weight:bold;font-size:3.62305px;line-height:1.25;font-family:'나눔스퀘어';-inkscape-font-specification:'나눔스퀘어 Bold';stroke-width:0.342339;fill:url(#linearGradient4642);fill-opacity:1"
     d="M 17.587891 27 C 16.884962 27 16.351486 27.163545 15.986328 27.492188 C 15.630299 27.8117 15.451172 28.310786 15.451172 28.986328 L 15.451172 31.560547 C 15.451172 31.953091 15.333055 32.23021 15.095703 32.394531 C 14.86748 32.55886 14.502092 32.647129 14 32.65625 L 14 33.818359 C 14.502093 33.827488 14.86748 33.9203 15.095703 34.09375 C 15.333055 34.258071 15.451172 34.539733 15.451172 34.941406 L 15.451172 37.927734 C 15.451172 38.594148 15.630299 39.07311 15.986328 39.365234 C 16.351486 39.66649 16.884962 39.816406 17.587891 39.816406 L 19.052734 39.816406 L 19.052734 38.638672 L 17.806641 38.638672 C 17.614934 38.638672 17.455931 38.625045 17.328125 38.597656 C 17.200322 38.570267 17.093881 38.520286 17.011719 38.447266 C 16.938686 38.374245 16.884172 38.265207 16.847656 38.119141 C 16.811141 37.982205 16.792969 37.795946 16.792969 37.558594 L 16.792969 34.927734 C 16.792969 34.754285 16.774797 34.581653 16.738281 34.408203 C 16.710895 34.225625 16.656381 34.057536 16.574219 33.902344 C 16.492059 33.747153 16.373942 33.613455 16.21875 33.503906 C 16.072686 33.385229 15.884473 33.298914 15.65625 33.244141 C 15.893602 33.189368 16.086358 33.103052 16.232422 32.984375 C 16.387612 32.85657 16.505729 32.713786 16.587891 32.558594 C 16.670053 32.403402 16.724567 32.239856 16.751953 32.066406 C 16.77934 31.892956 16.792969 31.724868 16.792969 31.560547 L 16.792969 29.355469 C 16.792969 28.889893 16.861112 28.579021 16.998047 28.423828 C 17.14411 28.259507 17.414096 28.177734 17.806641 28.177734 L 19.052734 28.177734 L 19.052734 27 L 17.587891 27 z M 44.947266 27 L 44.947266 28.177734 L 46.193359 28.177734 C 46.585894 28.177734 46.851336 28.259507 46.988281 28.423828 C 47.134347 28.57902 47.207031 28.889892 47.207031 29.355469 L 47.207031 31.560547 C 47.207031 31.724868 47.220658 31.892956 47.248047 32.066406 C 47.275436 32.239856 47.329942 32.403401 47.412109 32.558594 C 47.494276 32.713785 47.60784 32.856569 47.753906 32.984375 C 47.909099 33.103052 48.106396 33.189368 48.34375 33.244141 C 48.106398 33.298914 47.913644 33.385229 47.767578 33.503906 C 47.621512 33.613453 47.507948 33.747151 47.425781 33.902344 C 47.343614 34.057536 47.284557 34.225624 47.248047 34.408203 C 47.220658 34.581653 47.207031 34.754284 47.207031 34.927734 L 47.207031 37.558594 C 47.207031 37.795936 47.188854 37.982196 47.152344 38.119141 C 47.115834 38.265182 47.056776 38.37422 46.974609 38.447266 C 46.901564 38.520286 46.799673 38.570267 46.671875 38.597656 C 46.544061 38.625045 46.385057 38.638672 46.193359 38.638672 L 44.947266 38.638672 L 44.947266 39.816406 L 46.412109 39.816406 C 47.115039 39.816406 47.643971 39.66649 48 39.365234 C 48.365158 39.07311 48.548828 38.594148 48.548828 37.927734 L 48.548828 34.941406 C 48.548828 34.539733 48.662392 34.258071 48.890625 34.09375 C 49.127977 33.920292 49.497907 33.827481 50 33.818359 L 50 32.65625 C 49.49791 32.647121 49.127979 32.558853 48.890625 32.394531 C 48.662392 32.23021 48.548828 31.953092 48.548828 31.560547 L 48.548828 28.986328 C 48.548828 28.310786 48.365158 27.8117 48 27.492188 C 47.643971 27.163545 47.115039 27 46.412109 27 L 44.947266 27 z M 20.667969 27.492188 L 20.667969 37.845703 L 21.996094 37.845703 L 21.996094 27.492188 L 20.667969 27.492188 z M 26.880859 30.21875 C 26.448661 30.227308 26.047698 30.300565 25.679688 30.4375 C 25.287143 30.583563 24.946423 30.801624 24.654297 31.09375 C 24.3713 31.376747 24.146743 31.733049 23.982422 32.162109 C 23.827229 32.59117 23.75 33.088302 23.75 33.654297 L 23.75 34.503906 C 23.75 35.106417 23.831773 35.626264 23.996094 36.064453 C 24.169544 36.502642 24.403186 36.863487 24.695312 37.146484 C 24.996568 37.420353 25.34183 37.622196 25.734375 37.75 C 26.136049 37.886935 26.56958 37.955078 27.035156 37.955078 C 27.719827 37.955078 28.2916 37.873305 28.748047 37.708984 C 29.204494 37.553792 29.597139 37.361036 29.925781 37.132812 L 29.363281 36.132812 C 29.043768 36.342777 28.707591 36.508276 28.351562 36.626953 C 28.004663 36.74563 27.58476 36.804688 27.091797 36.804688 C 26.489287 36.804688 25.999287 36.621017 25.625 36.255859 C 25.250713 35.881573 25.064453 35.339011 25.064453 34.626953 L 25.064453 34.572266 L 30.103516 34.572266 L 30.103516 33.572266 C 30.103516 32.504179 29.819901 31.678002 29.253906 31.09375 C 28.687912 30.509498 27.925336 30.21875 26.966797 30.21875 C 26.937698 30.21875 26.909673 30.218179 26.880859 30.21875 z M 34.134766 30.21875 C 33.68866 30.225704 33.298621 30.285225 32.964844 30.396484 C 32.617943 30.506032 32.331739 30.655949 32.103516 30.847656 C 31.875293 31.030236 31.705251 31.245707 31.595703 31.492188 C 31.486155 31.738669 31.431641 31.98853 31.431641 32.244141 L 31.431641 32.408203 C 31.431641 32.736845 31.486156 33.02046 31.595703 33.257812 C 31.714379 33.495165 31.884421 33.70155 32.103516 33.875 C 32.32261 34.039321 32.590643 34.180152 32.910156 34.298828 C 33.229669 34.417505 33.595057 34.517449 34.005859 34.599609 C 34.361888 34.672641 34.650046 34.745328 34.869141 34.818359 C 35.088235 34.882262 35.260867 34.954949 35.388672 35.037109 C 35.516477 35.11927 35.602792 35.216624 35.648438 35.326172 C 35.694082 35.435719 35.716797 35.567464 35.716797 35.722656 L 35.716797 35.832031 C 35.716797 36.133286 35.580509 36.371472 35.306641 36.544922 C 35.032772 36.718372 34.649213 36.804688 34.15625 36.804688 C 33.699803 36.804688 33.2799 36.732001 32.896484 36.585938 C 32.513069 36.430745 32.152224 36.237989 31.814453 36.009766 L 31.199219 37.050781 C 31.555248 37.32465 31.988779 37.544664 32.5 37.708984 C 33.011221 37.873306 33.58104 37.955078 34.210938 37.955078 C 34.649127 37.955078 35.041772 37.900564 35.388672 37.791016 C 35.744702 37.681468 36.046488 37.534141 36.292969 37.351562 C 36.53945 37.159855 36.72571 36.937251 36.853516 36.681641 C 36.99045 36.42603 37.060547 36.151501 37.060547 35.859375 L 37.060547 35.681641 C 37.060547 35.33474 37.00408 35.037496 36.894531 34.791016 C 36.784983 34.544534 36.621438 34.335559 36.402344 34.162109 C 36.183249 33.979531 35.904177 33.827662 35.566406 33.708984 C 35.228635 33.590307 34.831447 33.490362 34.375 33.408203 C 33.790747 33.298657 33.375387 33.175997 33.128906 33.039062 C 32.882426 32.892999 32.759766 32.672986 32.759766 32.380859 L 32.759766 32.257812 C 32.759766 31.993073 32.877883 31.779556 33.115234 31.615234 C 33.361716 31.441784 33.763447 31.355469 34.320312 31.355469 C 34.703728 31.355469 35.064573 31.409984 35.402344 31.519531 C 35.749244 31.629079 36.046487 31.774452 36.292969 31.957031 L 36.880859 30.957031 C 36.506573 30.692293 36.095756 30.506033 35.648438 30.396484 C 35.210248 30.277807 34.73583 30.21875 34.224609 30.21875 C 34.19437 30.21875 34.164506 30.218286 34.134766 30.21875 z M 40.955078 30.21875 C 40.508974 30.225704 40.118933 30.285225 39.785156 30.396484 C 39.438266 30.506032 39.150108 30.655949 38.921875 30.847656 C 38.69366 31.030236 38.525572 31.245707 38.416016 31.492188 C 38.30646 31.738669 38.251953 31.98853 38.251953 32.244141 L 38.251953 32.408203 C 38.251953 32.736846 38.30646 33.020461 38.416016 33.257812 C 38.5347 33.495165 38.702788 33.70155 38.921875 33.875 C 39.140969 34.03932 39.410958 34.180151 39.730469 34.298828 C 40.049982 34.417505 40.41537 34.51745 40.826172 34.599609 C 41.182211 34.672642 41.468413 34.745329 41.6875 34.818359 C 41.906602 34.882264 42.081186 34.95495 42.208984 35.037109 C 42.336783 35.119269 42.423093 35.216624 42.46875 35.326172 C 42.514407 35.435719 42.537109 35.567464 42.537109 35.722656 L 42.537109 35.832031 C 42.537109 36.133286 42.400823 36.371472 42.126953 36.544922 C 41.853086 36.718372 41.469526 36.804688 40.976562 36.804688 C 40.520117 36.804688 40.100215 36.732001 39.716797 36.585938 C 39.333381 36.430745 38.972537 36.237989 38.634766 36.009766 L 38.017578 37.050781 C 38.373607 37.324649 38.807138 37.544663 39.318359 37.708984 C 39.829581 37.873306 40.401354 37.955078 41.03125 37.955078 C 41.469441 37.955078 41.862084 37.900564 42.208984 37.791016 C 42.565018 37.681468 42.864853 37.534141 43.111328 37.351562 C 43.357816 37.159855 43.54603 36.937251 43.673828 36.681641 C 43.810773 36.42603 43.878906 36.151501 43.878906 35.859375 L 43.878906 35.681641 C 43.878906 35.33474 43.8244 35.037496 43.714844 34.791016 C 43.605288 34.544534 43.441743 34.335559 43.222656 34.162109 C 43.003562 33.979531 42.72449 33.827662 42.386719 33.708984 C 42.048947 33.590307 41.651758 33.490362 41.195312 33.408203 C 40.611053 33.298657 40.195694 33.175997 39.949219 33.039062 C 39.702743 32.892999 39.580078 32.672986 39.580078 32.380859 L 39.580078 32.257812 C 39.580078 31.993073 39.698193 31.779556 39.935547 31.615234 C 40.18203 31.441784 40.583759 31.355469 41.140625 31.355469 C 41.52404 31.355469 41.884885 31.409984 42.222656 31.519531 C 42.569554 31.629079 42.864845 31.774452 43.111328 31.957031 L 43.701172 30.957031 C 43.326885 30.692293 42.91607 30.506033 42.46875 30.396484 C 42.030562 30.277807 41.556143 30.21875 41.044922 30.21875 C 41.014682 30.21875 40.984818 30.218286 40.955078 30.21875 z M 26.966797 31.355469 C 27.54192 31.355469 27.995578 31.528101 28.324219 31.875 C 28.652861 32.212771 28.816406 32.669017 28.816406 33.244141 L 28.816406 33.490234 L 25.064453 33.490234 L 25.064453 33.298828 C 25.064453 33.01583 25.109881 32.75493 25.201172 32.517578 C 25.30159 32.271097 25.433335 32.066665 25.597656 31.902344 C 25.771107 31.728895 25.972949 31.59715 26.201172 31.505859 C 26.438524 31.405442 26.692929 31.355469 26.966797 31.355469 z "
     transform="scale(0.26458334)" />
  <path
     id="path3826-3"
     style="font-weight:bold;font-size:3.62305px;line-height:1.25;font-family:'나눔스퀘어';-inkscape-font-specification:'나눔스퀘어 Bold';stroke-width:0.342339;opacity:0.3;fill-opacity:1;fill:url(#linearGradient4044)"
     d="M 17.806641 28.177734 C 17.414099 28.177734 17.144126 28.259506 16.998047 28.423828 C 16.861115 28.579021 16.792969 28.889893 16.792969 29.355469 L 16.792969 30.355469 C 16.792969 29.889893 16.861115 29.579021 16.998047 29.423828 C 17.144126 29.259506 17.414099 29.177734 17.806641 29.177734 L 19.052734 29.177734 L 19.052734 28.177734 L 17.806641 28.177734 z M 44.947266 28.177734 L 44.947266 29.177734 L 46.193359 29.177734 C 46.585897 29.177734 46.851334 29.259506 46.988281 29.423828 C 47.13436 29.579019 47.207031 29.889892 47.207031 30.355469 L 47.207031 29.355469 C 47.207031 28.889892 47.13436 28.579019 46.988281 28.423828 C 46.851334 28.259506 46.585897 28.177734 46.193359 28.177734 L 44.947266 28.177734 z M 26.966797 31.355469 C 26.692932 31.355469 26.438526 31.405441 26.201172 31.505859 C 25.972964 31.597151 25.771099 31.728894 25.597656 31.902344 C 25.433345 32.066665 25.301594 32.271096 25.201172 32.517578 C 25.109896 32.75493 25.064453 33.015828 25.064453 33.298828 L 25.064453 33.490234 L 25.212891 33.490234 C 25.31179 33.256184 25.439585 33.060424 25.597656 32.902344 C 25.771099 32.728894 25.972964 32.597151 26.201172 32.505859 C 26.438526 32.405441 26.692932 32.355469 26.966797 32.355469 C 27.54192 32.355469 27.995577 32.528102 28.324219 32.875 C 28.493084 33.048563 28.617319 33.254054 28.699219 33.490234 L 28.816406 33.490234 L 28.816406 33.244141 C 28.816406 32.669016 28.652849 32.212773 28.324219 31.875 C 27.995577 31.528102 27.54192 31.355469 26.966797 31.355469 z M 34.320312 31.355469 C 33.763448 31.355469 33.361735 31.441784 33.115234 31.615234 C 32.87788 31.779557 32.759766 31.993072 32.759766 32.257812 L 32.759766 32.380859 C 32.759766 32.555881 32.804266 32.705269 32.892578 32.828125 C 32.948839 32.749421 33.023124 32.679003 33.115234 32.615234 C 33.361735 32.441784 33.763448 32.355469 34.320312 32.355469 C 34.70373 32.355469 35.064571 32.409989 35.402344 32.519531 C 35.749229 32.629081 36.046487 32.774453 36.292969 32.957031 L 36.880859 31.957031 C 36.741234 31.858273 36.597056 31.770368 36.447266 31.693359 L 36.292969 31.957031 C 36.046487 31.774453 35.749229 31.629081 35.402344 31.519531 C 35.064571 31.409989 34.70373 31.355469 34.320312 31.355469 z M 41.140625 31.355469 C 40.583761 31.355469 40.18201 31.441784 39.935547 31.615234 C 39.698193 31.779557 39.580078 31.993072 39.580078 32.257812 L 39.580078 32.380859 C 39.580078 32.555881 39.624579 32.705269 39.712891 32.828125 C 39.769151 32.749421 39.843437 32.679003 39.935547 32.615234 C 40.18201 32.441784 40.583761 32.355469 41.140625 32.355469 C 41.524043 32.355469 41.884884 32.409989 42.222656 32.519531 C 42.569541 32.629081 42.864842 32.774453 43.111328 32.957031 L 43.701172 31.957031 C 43.561547 31.858273 43.41737 31.770368 43.267578 31.693359 L 43.111328 31.957031 C 42.864842 31.774453 42.569541 31.629081 42.222656 31.519531 C 41.884884 31.409989 41.524043 31.355469 41.140625 31.355469 z M 16.792969 31.560547 C 16.792969 31.724869 16.779166 31.892956 16.751953 32.066406 C 16.724552 32.239856 16.670058 32.403403 16.587891 32.558594 C 16.505724 32.713787 16.387609 32.85657 16.232422 32.984375 C 16.086358 33.103052 15.893604 33.189371 15.65625 33.244141 C 15.884488 33.298914 16.072671 33.385229 16.21875 33.503906 C 16.316773 33.573103 16.398074 33.652439 16.466797 33.740234 C 16.512344 33.681241 16.554378 33.62189 16.587891 33.558594 C 16.670058 33.403403 16.724552 33.239856 16.751953 33.066406 C 16.779166 32.892956 16.792969 32.724869 16.792969 32.560547 L 16.792969 31.560547 z M 47.207031 31.560547 L 47.207031 32.560547 C 47.207031 32.724869 47.220645 32.892957 47.248047 33.066406 C 47.275259 33.239856 47.329942 33.4034 47.412109 33.558594 C 47.445733 33.622099 47.485083 33.683014 47.529297 33.742188 C 47.596246 33.653485 47.674519 33.573692 47.767578 33.503906 C 47.913642 33.385233 48.106396 33.29891 48.34375 33.244141 C 48.106384 33.189368 47.909094 33.103052 47.753906 32.984375 C 47.607865 32.856568 47.494276 32.713785 47.412109 32.558594 C 47.329942 32.4034 47.275259 32.239856 47.248047 32.066406 C 47.220645 31.892957 47.207031 31.724869 47.207031 31.560547 z M 31.472656 32.867188 C 31.44561 32.991795 31.431641 33.116978 31.431641 33.244141 L 31.431641 33.408203 C 31.431641 33.736844 31.486135 34.02046 31.595703 34.257812 C 31.71438 34.495167 31.88442 34.70155 32.103516 34.875 C 32.322615 35.039323 32.590643 35.180151 32.910156 35.298828 C 33.229678 35.417505 33.595059 35.517446 34.005859 35.599609 C 34.361891 35.672641 34.650045 35.745328 34.869141 35.818359 C 35.08824 35.88226 35.260867 35.954946 35.388672 36.037109 C 35.48454 36.098729 35.557901 36.168646 35.607422 36.246094 C 35.679889 36.124634 35.716797 35.987179 35.716797 35.832031 L 35.716797 35.722656 C 35.716797 35.567458 35.694094 35.43574 35.648438 35.326172 C 35.602781 35.216641 35.516495 35.119276 35.388672 35.037109 C 35.260867 34.954946 35.08824 34.88226 34.869141 34.818359 C 34.650045 34.745328 34.361891 34.672641 34.005859 34.599609 C 33.595059 34.517446 33.229678 34.417505 32.910156 34.298828 C 32.590643 34.180151 32.322615 34.039323 32.103516 33.875 C 31.88442 33.70155 31.71438 33.495167 31.595703 33.257812 C 31.540919 33.139136 31.499978 33.008841 31.472656 32.867188 z M 38.292969 32.867188 C 38.265922 32.991795 38.251953 33.116978 38.251953 33.244141 L 38.251953 33.408203 C 38.251953 33.736844 38.306447 34.020462 38.416016 34.257812 C 38.534693 34.495167 38.702806 34.70155 38.921875 34.875 C 39.140974 35.039319 39.410959 35.180151 39.730469 35.298828 C 40.04999 35.417505 40.415371 35.51745 40.826172 35.599609 C 41.182203 35.672641 41.468412 35.745328 41.6875 35.818359 C 41.906599 35.88226 42.081187 35.95495 42.208984 36.037109 C 42.304824 36.098729 42.378204 36.168646 42.427734 36.246094 C 42.500201 36.124634 42.537109 35.987179 42.537109 35.832031 L 42.537109 35.722656 C 42.537109 35.567458 42.514407 35.43574 42.46875 35.326172 C 42.423093 35.216641 42.33677 35.119276 42.208984 35.037109 C 42.081187 34.95495 41.906599 34.88226 41.6875 34.818359 C 41.468412 34.745328 41.182203 34.672641 40.826172 34.599609 C 40.415371 34.51745 40.04999 34.417505 39.730469 34.298828 C 39.410959 34.180151 39.140974 34.039319 38.921875 33.875 C 38.702806 33.70155 38.534693 33.495167 38.416016 33.257812 C 38.361231 33.139137 38.32029 33.008841 38.292969 32.867188 z M 14 33.818359 L 14 34.818359 C 14.502093 34.827468 14.86748 34.9203 15.095703 35.09375 C 15.333054 35.258073 15.451172 35.539733 15.451172 35.941406 L 15.451172 34.941406 C 15.451172 34.539732 15.333054 34.258073 15.095703 34.09375 C 14.86748 33.9203 14.502093 33.827468 14 33.818359 z M 50 33.818359 C 49.497909 33.827483 49.127979 33.920289 48.890625 34.09375 C 48.662417 34.258071 48.548828 34.539733 48.548828 34.941406 L 48.548828 35.941406 C 48.548828 35.539733 48.662417 35.258071 48.890625 35.09375 C 49.127979 34.920289 49.497909 34.827483 50 34.818359 L 50 33.818359 z M 25.064453 34.572266 L 25.064453 34.626953 C 25.064453 34.984799 25.112724 35.299879 25.207031 35.572266 L 30.103516 35.572266 L 30.103516 34.572266 L 25.064453 34.572266 z M 23.751953 34.582031 C 23.751664 34.606242 23.75 34.629828 23.75 34.654297 L 23.75 35.503906 C 23.75 36.106417 23.83176 36.626266 23.996094 37.064453 C 24.169536 37.502644 24.403189 37.863485 24.695312 38.146484 C 24.996579 38.420349 25.341829 38.622195 25.734375 38.75 C 26.136048 38.886932 26.569579 38.955078 27.035156 38.955078 C 27.719829 38.955078 28.291601 38.873318 28.748047 38.708984 C 29.204497 38.553797 29.59714 38.361043 29.925781 38.132812 L 29.505859 37.386719 C 29.276508 37.507607 29.024126 37.615121 28.748047 37.708984 C 28.291601 37.873318 27.719829 37.955078 27.035156 37.955078 C 26.569579 37.955078 26.136048 37.886932 25.734375 37.75 C 25.341829 37.622195 24.996579 37.420349 24.695312 37.146484 C 24.403189 36.863485 24.169536 36.502644 23.996094 36.064453 C 23.838968 35.645487 23.758812 35.151179 23.751953 34.582031 z M 37.023438 36.21875 C 36.989593 36.379153 36.932789 36.533663 36.853516 36.681641 C 36.725707 36.93725 36.53947 37.159865 36.292969 37.351562 C 36.046491 37.534121 35.744703 37.681447 35.388672 37.791016 C 35.041772 37.900584 34.649125 37.955078 34.210938 37.955078 C 33.581038 37.955078 33.011223 37.873318 32.5 37.708984 C 32.177337 37.605271 31.885811 37.479654 31.625 37.332031 L 31.199219 38.050781 C 31.55525 38.324646 31.988777 38.544662 32.5 38.708984 C 33.011223 38.873318 33.581038 38.955078 34.210938 38.955078 C 34.649125 38.955078 35.041772 38.900584 35.388672 38.791016 C 35.744703 38.681447 36.046491 38.534121 36.292969 38.351562 C 36.53947 38.159865 36.725707 37.93725 36.853516 37.681641 C 36.990448 37.426031 37.060547 37.151502 37.060547 36.859375 L 37.060547 36.681641 C 37.060547 36.515725 37.048901 36.361834 37.023438 36.21875 z M 43.841797 36.220703 C 43.808456 36.380389 43.752772 36.534278 43.673828 36.681641 C 43.546031 36.93725 43.357829 37.159865 43.111328 37.351562 C 42.86485 37.534121 42.565016 37.681447 42.208984 37.791016 C 41.862084 37.900584 41.469441 37.955078 41.03125 37.955078 C 40.401354 37.955078 39.829582 37.873318 39.318359 37.708984 C 38.995699 37.605271 38.704171 37.479654 38.443359 37.332031 L 38.017578 38.050781 C 38.37361 38.324646 38.80714 38.544662 39.318359 38.708984 C 39.829582 38.873318 40.401354 38.955078 41.03125 38.955078 C 41.469441 38.955078 41.862084 38.900584 42.208984 38.791016 C 42.565016 38.681447 42.86485 38.534121 43.111328 38.351562 C 43.357829 38.159865 43.546031 37.93725 43.673828 37.681641 C 43.81076 37.426031 43.878906 37.151502 43.878906 36.859375 L 43.878906 36.681641 C 43.878906 36.516455 43.866576 36.363258 43.841797 36.220703 z M 20.667969 37.845703 L 20.667969 38.845703 L 21.996094 38.845703 L 21.996094 37.845703 L 20.667969 37.845703 z M 15.451172 37.927734 L 15.451172 38.927734 C 15.451172 39.594148 15.6303 40.073111 15.986328 40.365234 C 16.351468 40.666501 16.884963 40.816406 17.587891 40.816406 L 19.052734 40.816406 L 19.052734 39.816406 L 17.587891 39.816406 C 16.884963 39.816406 16.351468 39.666501 15.986328 39.365234 C 15.6303 39.073111 15.451172 38.594148 15.451172 37.927734 z M 48.548828 37.927734 C 48.548828 38.594148 48.36514 39.073115 48 39.365234 C 47.643969 39.666474 47.115041 39.816406 46.412109 39.816406 L 44.947266 39.816406 L 44.947266 40.816406 L 46.412109 40.816406 C 47.115041 40.816406 47.643969 40.666474 48 40.365234 C 48.36514 40.073115 48.548828 39.594148 48.548828 38.927734 L 48.548828 37.927734 z "
     transform="scale(0.26458334)" />
</svg>
