<?xml version="1.0" encoding="UTF-8" standalone="no"?>
<!-- Created with Inkscape (http://www.inkscape.org/) -->

<svg
   width="64"
   height="64"
   viewBox="0 0 16.933333 16.933334"
   version="1.1"
   id="svg5"
   inkscape:version="1.1.1 (3bf5ae0d25, 2021-09-20, custom)"
   sodipodi:docname="text-x-css.svg"
   xmlns:inkscape="http://www.inkscape.org/namespaces/inkscape"
   xmlns:sodipodi="http://sodipodi.sourceforge.net/DTD/sodipodi-0.dtd"
   xmlns:xlink="http://www.w3.org/1999/xlink"
   xmlns="http://www.w3.org/2000/svg"
   xmlns:svg="http://www.w3.org/2000/svg">
  <sodipodi:namedview
     id="namedview7"
     pagecolor="#ffffff"
     bordercolor="#666666"
     borderopacity="1.0"
     inkscape:pageshadow="2"
     inkscape:pageopacity="0.0"
     inkscape:pagecheckerboard="0"
     inkscape:document-units="px"
     showgrid="false"
     units="px"
     height="64px"
     inkscape:zoom="12.484375"
     inkscape:cx="26.392991"
     inkscape:cy="35.244055"
     inkscape:window-width="1541"
     inkscape:window-height="947"
     inkscape:window-x="101"
     inkscape:window-y="23"
     inkscape:window-maximized="0"
     inkscape:current-layer="svg5" />
  <defs
     id="defs2">
    <linearGradient
       inkscape:collect="always"
       id="linearGradient1167">
      <stop
         style="stop-color:#5884f4;stop-opacity:1;"
         offset="0"
         id="stop1163" />
      <stop
         style="stop-color:#58b5f4;stop-opacity:1"
         offset="1"
         id="stop1165" />
    </linearGradient>
    <linearGradient
       inkscape:collect="always"
       id="linearGradient10453">
      <stop
         style="stop-color:#666666;stop-opacity:1"
         offset="0"
         id="stop10449" />
      <stop
         style="stop-color:#666666;stop-opacity:0"
         offset="1"
         id="stop10451" />
    </linearGradient>
    <linearGradient
       inkscape:collect="always"
       id="linearGradient8423">
      <stop
         style="stop-color:#fcfcfc;stop-opacity:1"
         offset="0"
         id="stop8419" />
      <stop
         style="stop-color:#ffffff;stop-opacity:0;"
         offset="1"
         id="stop8421" />
    </linearGradient>
    <linearGradient
       inkscape:collect="always"
       id="linearGradient6263">
      <stop
         style="stop-color:#000000;stop-opacity:1;"
         offset="0"
         id="stop6259" />
      <stop
         style="stop-color:#000000;stop-opacity:0;"
         offset="1"
         id="stop6261" />
    </linearGradient>
    <linearGradient
       inkscape:collect="always"
       id="linearGradient3378">
      <stop
         style="stop-color:#b0b0b0;stop-opacity:1"
         offset="0"
         id="stop3374" />
      <stop
         style="stop-color:#fcfcfc;stop-opacity:1"
         offset="1"
         id="stop3376" />
    </linearGradient>
    <linearGradient
       inkscape:collect="always"
       xlink:href="#linearGradient3378"
       id="linearGradient3380"
       x1="14.942825"
       y1="1.1138821"
       x2="11.503234"
       y2="4.3115072"
       gradientUnits="userSpaceOnUse"
       gradientTransform="translate(-0.5291663,-0.52916667)" />
    <linearGradient
       inkscape:collect="always"
       xlink:href="#linearGradient6263"
       id="linearGradient6265"
       x1="11.90625"
       y1="2.3812501"
       x2="12.170834"
       y2="7.1437502"
       gradientUnits="userSpaceOnUse"
       gradientTransform="translate(-0.52916663,0.52916673)" />
    <linearGradient
       inkscape:collect="always"
       xlink:href="#linearGradient8423"
       id="linearGradient8425"
       x1="13.692527"
       y1="11.622045"
       x2="1.6077259"
       y2="-0.71580184"
       gradientUnits="userSpaceOnUse" />
    <linearGradient
       inkscape:collect="always"
       xlink:href="#linearGradient10453"
       id="linearGradient10455"
       x1="10"
       y1="72.5"
       x2="58"
       y2="32.5"
       gradientUnits="userSpaceOnUse" />
    <linearGradient
       inkscape:collect="always"
       xlink:href="#linearGradient6263"
       id="linearGradient939"
       x1="18"
       y1="49.504883"
       x2="48"
       y2="19.504883"
       gradientUnits="userSpaceOnUse" />
    <linearGradient
       inkscape:collect="always"
       xlink:href="#linearGradient1167"
       id="linearGradient1169"
       x1="11.641666"
       y1="5.9543085"
       x2="11.641713"
       y2="13.362642"
       gradientUnits="userSpaceOnUse" />
  </defs>
  <path
     id="rect1068"
     style="fill:#e5e5e5;fill-opacity:1;stroke-width:0.529167;stroke-linejoin:round"
     d="m 3.175,0.5291667 7.143751,3e-8 3.968749,3.96874997 1e-6,11.3770833 c 0,0.293158 -0.236009,0.529167 -0.529167,0.529167 H 3.175 c -0.2931584,0 -0.5291667,-0.236009 -0.5291667,-0.529167 V 1.0583334 c 0,-0.29315835 0.2360083,-0.5291667 0.5291667,-0.5291667 z"
     sodipodi:nodetypes="cccsssssc" />
  <path
     id="rect8140"
     style="opacity:1;fill:url(#linearGradient8425);fill-opacity:1;stroke-width:0.518136;stroke-linejoin:round"
     d="m 3.175,0.5291668 h 7.143751 l -1e-6,2.9104166 0.79375,1.0583333 3.175,0 V 15.875 c 0,0.295111 -0.236009,0.529167 -0.529167,0.529167 H 3.175 c -0.293159,0 -0.529167,-0.236009 -0.529167,-0.529167 V 1.0583337 c 0,-0.2931589 0.236008,-0.5291669 0.529167,-0.5291669 z"
     sodipodi:nodetypes="sccccssssss" />
  <path
     id="rect9905"
     style="opacity:0.3;fill:url(#linearGradient10455);fill-opacity:1;stroke-width:2;stroke-linejoin:round"
     d="M 10 59 L 10 60 C 10 61.108 10.892 62 12 62 L 52 62 C 53.108 62 54 61.108 54 60 L 54 59 C 54 60.108 53.108 61 52 61 L 12 61 C 10.892 61 10 60.108 10 59 z "
     transform="scale(0.26458334)" />
  <path
     id="rect5598"
     style="opacity:0.2;fill:url(#linearGradient6265);fill-opacity:1;stroke-width:0.529167;stroke-linejoin:round"
     d="M 10.444901,4.3115072 10.31875,3.4395834 14.2875,4.4979167 v 3.7041668 z"
     sodipodi:nodetypes="ccccc" />
  <path
     id="rect2607"
     style="fill:url(#linearGradient3380);fill-opacity:1;stroke-width:0.529167;stroke-linejoin:round"
     d="m 14.2875,4.4979167 -3.439583,-1e-7 c -0.293158,0 -0.529166,-0.2360083 -0.529166,-0.5291667 V 0.52916673 Z"
     sodipodi:nodetypes="csscc" />
  <path
     id="path1446"
     style="font-size:1.67233px;line-height:1.25;font-family:Roboto;-inkscape-font-specification:Roboto;text-align:center;text-anchor:middle;fill:#808080;stroke-width:0.158015"
     d="M 28.449219 51 C 28.089158 51 27.773647 51.0851 27.5 51.255859 C 27.226352 51.424572 27.013477 51.66752 26.863281 51.984375 C 26.715141 52.301228 26.640625 52.668267 26.640625 53.085938 L 26.640625 53.517578 C 26.640625 54.155401 26.800229 54.666239 27.119141 55.046875 C 27.440109 55.427511 27.865651 55.617188 28.396484 55.617188 C 28.886168 55.617188 29.278044 55.487656 29.572266 55.230469 C 29.868545 54.971223 30.046011 54.604187 30.101562 54.128906 L 29.505859 54.128906 C 29.448249 54.499255 29.331242 54.759958 29.154297 54.910156 C 28.97941 55.058289 28.725683 55.132812 28.396484 55.132812 C 28.03025 55.132813 27.74666 54.98922 27.542969 54.701172 C 27.339277 54.413124 27.236328 54.024736 27.236328 53.537109 L 27.236328 53.101562 C 27.236328 52.585133 27.344615 52.188022 27.558594 51.908203 C 27.774631 51.628382 28.07064 51.488281 28.449219 51.488281 C 28.757843 51.488281 28.997197 51.568037 29.167969 51.728516 C 29.340799 51.888999 29.454423 52.147855 29.505859 52.505859 L 30.101562 52.505859 C 30.05424 52.034693 29.885705 51.665807 29.597656 51.400391 C 29.309607 51.132916 28.926557 51 28.449219 51 z M 32.304688 51 C 31.852039 51 31.483153 51.117118 31.199219 51.349609 C 30.917342 51.580047 30.777344 51.87072 30.777344 52.224609 C 30.777344 52.537355 30.892607 52.801653 31.123047 53.015625 C 31.355544 53.227538 31.726174 53.406643 32.234375 53.552734 C 32.6397 53.670001 32.917953 53.788758 33.072266 53.910156 C 33.226579 54.029496 33.304687 54.199777 33.304688 54.419922 C 33.304688 54.640067 33.221345 54.813835 33.054688 54.941406 C 32.88803 55.068978 32.648676 55.132813 32.335938 55.132812 C 32.000567 55.132813 31.730932 55.054809 31.529297 54.898438 C 31.32972 54.740012 31.230469 54.523542 31.230469 54.251953 L 30.634766 54.251953 C 30.634766 54.513247 30.707537 54.747368 30.851562 54.953125 C 30.997644 55.158875 31.203229 55.322074 31.470703 55.441406 C 31.738177 55.558698 32.027314 55.617187 32.335938 55.617188 C 32.811218 55.617188 33.190675 55.507166 33.474609 55.289062 C 33.758543 55.068913 33.900391 54.77824 33.900391 54.414062 C 33.900391 54.185686 33.848967 53.987077 33.746094 53.818359 C 33.645278 53.649644 33.489267 53.502459 33.277344 53.376953 C 33.06748 53.249381 32.774854 53.132263 32.400391 53.027344 C 32.027984 52.922399 31.763791 52.807146 31.607422 52.681641 C 31.453109 52.554089 31.375 52.399928 31.375 52.216797 C 31.375 51.988423 31.456598 51.809212 31.619141 51.681641 C 31.78374 51.552028 32.012523 51.488281 32.304688 51.488281 C 32.619483 51.488281 32.862326 51.566285 33.035156 51.722656 C 33.207986 51.876967 33.294922 52.089739 33.294922 52.361328 L 33.890625 52.361328 C 33.890625 52.112371 33.82319 51.88174 33.689453 51.671875 C 33.557774 51.46201 33.37169 51.29902 33.128906 51.179688 C 32.88818 51.060355 32.613311 51 32.304688 51 z M 36.054688 51 C 35.602039 51 35.233153 51.117118 34.949219 51.349609 C 34.667342 51.580047 34.527344 51.87072 34.527344 52.224609 C 34.527344 52.537355 34.642609 52.801653 34.873047 53.015625 C 35.105544 53.227538 35.474221 53.406643 35.982422 53.552734 C 36.387747 53.670001 36.667953 53.788758 36.822266 53.910156 C 36.976579 54.029496 37.054688 54.199777 37.054688 54.419922 C 37.054688 54.640067 36.971345 54.813835 36.804688 54.941406 C 36.638031 55.068978 36.398677 55.132813 36.085938 55.132812 C 35.750567 55.132813 35.480932 55.054809 35.279297 54.898438 C 35.07972 54.740012 34.980469 54.523542 34.980469 54.251953 L 34.384766 54.251953 C 34.384766 54.513247 34.457537 54.747368 34.601562 54.953125 C 34.747645 55.158875 34.953229 55.322074 35.220703 55.441406 C 35.488177 55.558698 35.777314 55.617187 36.085938 55.617188 C 36.561218 55.617188 36.940675 55.507166 37.224609 55.289062 C 37.508543 55.068913 37.650391 54.77824 37.650391 54.414062 C 37.650391 54.185686 37.598967 53.987077 37.496094 53.818359 C 37.395276 53.649644 37.239264 53.502459 37.027344 53.376953 C 36.817479 53.249381 36.524854 53.132263 36.150391 53.027344 C 35.777984 52.922399 35.513791 52.807146 35.357422 52.681641 C 35.203109 52.554089 35.125 52.399928 35.125 52.216797 C 35.125 51.988423 35.206598 51.809212 35.369141 51.681641 C 35.53374 51.552028 35.762524 51.488281 36.054688 51.488281 C 36.369483 51.488281 36.612326 51.566285 36.785156 51.722656 C 36.957986 51.876967 37.044922 52.089739 37.044922 52.361328 L 37.640625 52.361328 C 37.640625 52.112371 37.57319 51.88174 37.439453 51.671875 C 37.307774 51.46201 37.12169 51.29902 36.878906 51.179688 C 36.63818 51.060355 36.363311 51 36.054688 51 z "
     transform="scale(0.26458334)" />
  <path
     id="rect873"
     style="fill:url(#linearGradient1169);stroke-width:0.177508;stroke-linecap:round;stroke-linejoin:round;fill-opacity:1"
     d="m 5.8208334,5.8208334 5.2917136,1.904e-4 -0.328196,5.9705182 -2.3167456,0.646242 -2.205644,-0.646242 v -1.559331 h 1.323327 v 0.602132 l 0.882237,0.308346 0.882237,-0.322236 0.194754,-1.47073 H 7.5852784 V 8.0263972 h 2.090941 l 0.114692,-0.8822374 -3.970078,-4e-7 z"
     sodipodi:nodetypes="ccccccccccccccccc" />
  <path
     id="rect873-3"
     style="opacity:0.3;fill:url(#linearGradient939);stroke-width:0.670896;stroke-linecap:round;stroke-linejoin:round;fill-opacity:1"
     d="M 41.945312 23 L 40.759766 44.566406 L 32.003906 47.009766 L 23.667969 44.566406 L 23.667969 45.566406 L 32.003906 48.009766 L 40.759766 45.566406 L 42 23 L 41.945312 23 z M 22 27.001953 L 22 28.001953 L 36.875 28.001953 L 37.005859 27.001953 L 22 27.001953 z M 28.667969 35.337891 L 28.667969 36.337891 L 35.941406 36.337891 L 36.074219 35.337891 L 28.667969 35.337891 z "
     transform="scale(0.26458334)" />
</svg>
