<?xml version="1.0" encoding="UTF-8" standalone="no"?>
<!-- Created with Inkscape (http://www.inkscape.org/) -->

<svg
   width="64"
   height="64"
   viewBox="0 0 16.933333 16.933334"
   version="1.1"
   id="svg5"
   inkscape:version="1.1.1 (3bf5ae0d25, 2021-09-20, custom)"
   sodipodi:docname="text-x-gettext-translation.svg"
   xmlns:inkscape="http://www.inkscape.org/namespaces/inkscape"
   xmlns:sodipodi="http://sodipodi.sourceforge.net/DTD/sodipodi-0.dtd"
   xmlns:xlink="http://www.w3.org/1999/xlink"
   xmlns="http://www.w3.org/2000/svg"
   xmlns:svg="http://www.w3.org/2000/svg">
  <sodipodi:namedview
     id="namedview7"
     pagecolor="#ffffff"
     bordercolor="#666666"
     borderopacity="1.0"
     inkscape:pageshadow="2"
     inkscape:pageopacity="0.0"
     inkscape:pagecheckerboard="0"
     inkscape:document-units="px"
     showgrid="false"
     units="px"
     height="64px"
     inkscape:zoom="6.2421875"
     inkscape:cx="22.267835"
     inkscape:cy="35.244055"
     inkscape:window-width="1920"
     inkscape:window-height="1011"
     inkscape:window-x="0"
     inkscape:window-y="0"
     inkscape:window-maximized="1"
     inkscape:current-layer="svg5" />
  <defs
     id="defs2">
    <linearGradient
       inkscape:collect="always"
       id="linearGradient29737">
      <stop
         style="stop-color:#b5b5b5;stop-opacity:1"
         offset="0"
         id="stop29733" />
      <stop
         style="stop-color:#5e5e5e;stop-opacity:1"
         offset="1"
         id="stop29735" />
    </linearGradient>
    <linearGradient
       inkscape:collect="always"
       id="linearGradient29229">
      <stop
         style="stop-color:#ffffff;stop-opacity:1;"
         offset="0"
         id="stop29225" />
      <stop
         style="stop-color:#82cbff;stop-opacity:1"
         offset="1"
         id="stop29227" />
    </linearGradient>
    <linearGradient
       inkscape:collect="always"
       id="linearGradient2083">
      <stop
         style="stop-color:#cccccc;stop-opacity:1;"
         offset="0"
         id="stop2079" />
      <stop
         style="stop-color:#ececec;stop-opacity:1"
         offset="1"
         id="stop2081" />
    </linearGradient>
    <linearGradient
       inkscape:collect="always"
       id="linearGradient1534">
      <stop
         style="stop-color:#0ab0ff;stop-opacity:1;"
         offset="0"
         id="stop1530" />
      <stop
         style="stop-color:#0a89ff;stop-opacity:0.99963051"
         offset="1"
         id="stop1532" />
    </linearGradient>
    <linearGradient
       inkscape:collect="always"
       id="linearGradient10453">
      <stop
         style="stop-color:#666666;stop-opacity:1"
         offset="0"
         id="stop10449" />
      <stop
         style="stop-color:#666666;stop-opacity:0"
         offset="1"
         id="stop10451" />
    </linearGradient>
    <linearGradient
       inkscape:collect="always"
       id="linearGradient8423">
      <stop
         style="stop-color:#fcfcfc;stop-opacity:1"
         offset="0"
         id="stop8419" />
      <stop
         style="stop-color:#ffffff;stop-opacity:0;"
         offset="1"
         id="stop8421" />
    </linearGradient>
    <linearGradient
       inkscape:collect="always"
       id="linearGradient6263">
      <stop
         style="stop-color:#000000;stop-opacity:1;"
         offset="0"
         id="stop6259" />
      <stop
         style="stop-color:#000000;stop-opacity:0;"
         offset="1"
         id="stop6261" />
    </linearGradient>
    <linearGradient
       inkscape:collect="always"
       id="linearGradient3378">
      <stop
         style="stop-color:#b0b0b0;stop-opacity:1"
         offset="0"
         id="stop3374" />
      <stop
         style="stop-color:#fcfcfc;stop-opacity:1"
         offset="1"
         id="stop3376" />
    </linearGradient>
    <linearGradient
       inkscape:collect="always"
       xlink:href="#linearGradient3378"
       id="linearGradient3380"
       x1="14.942825"
       y1="1.1138821"
       x2="11.503234"
       y2="4.3115072"
       gradientUnits="userSpaceOnUse"
       gradientTransform="translate(-0.5291663,-0.52916667)" />
    <linearGradient
       inkscape:collect="always"
       xlink:href="#linearGradient6263"
       id="linearGradient6265"
       x1="11.90625"
       y1="2.3812501"
       x2="12.170834"
       y2="7.1437502"
       gradientUnits="userSpaceOnUse"
       gradientTransform="translate(-0.52916663,0.52916673)" />
    <linearGradient
       inkscape:collect="always"
       xlink:href="#linearGradient8423"
       id="linearGradient8425"
       x1="13.692527"
       y1="11.622045"
       x2="1.6077259"
       y2="-0.71580184"
       gradientUnits="userSpaceOnUse" />
    <linearGradient
       inkscape:collect="always"
       xlink:href="#linearGradient10453"
       id="linearGradient10455"
       x1="10"
       y1="72.5"
       x2="58"
       y2="32.5"
       gradientUnits="userSpaceOnUse" />
    <linearGradient
       inkscape:collect="always"
       xlink:href="#linearGradient1534"
       id="linearGradient1536"
       x1="10.583333"
       y1="7.9375"
       x2="6.8791676"
       y2="11.641666"
       gradientUnits="userSpaceOnUse"
       gradientTransform="translate(0.26458357)" />
    <linearGradient
       inkscape:collect="always"
       xlink:href="#linearGradient2083"
       id="linearGradient2085"
       x1="5.8208332"
       y1="12.7"
       x2="9.5249996"
       y2="8.4666662"
       gradientUnits="userSpaceOnUse"
       gradientTransform="translate(0.26458357)" />
    <linearGradient
       inkscape:collect="always"
       xlink:href="#linearGradient6263"
       id="linearGradient3324"
       x1="16"
       y1="54.5"
       x2="46"
       y2="26.5"
       gradientUnits="userSpaceOnUse"
       gradientTransform="matrix(0.26458334,0,0,0.26458334,0.26458357,0)" />
    <linearGradient
       inkscape:collect="always"
       xlink:href="#linearGradient29229"
       id="linearGradient29231"
       x1="8.2020845"
       y1="7.937501"
       x2="8.2511778"
       y2="10.583334"
       gradientUnits="userSpaceOnUse" />
    <linearGradient
       inkscape:collect="always"
       xlink:href="#linearGradient29737"
       id="linearGradient29739"
       x1="5.8208394"
       y1="9.604847"
       x2="5.8208385"
       y2="14.367347"
       gradientUnits="userSpaceOnUse" />
  </defs>
  <path
     id="rect1068"
     style="fill:#e5e5e5;fill-opacity:1;stroke-width:0.529167;stroke-linejoin:round"
     d="m 3.175,0.5291667 7.143751,3e-8 3.968749,3.96874997 1e-6,11.3770833 c 0,0.293158 -0.236009,0.529167 -0.529167,0.529167 H 3.175 c -0.2931584,0 -0.5291667,-0.236009 -0.5291667,-0.529167 V 1.0583334 c 0,-0.29315835 0.2360083,-0.5291667 0.5291667,-0.5291667 z"
     sodipodi:nodetypes="cccsssssc" />
  <path
     id="rect8140"
     style="opacity:1;fill:url(#linearGradient8425);fill-opacity:1;stroke-width:0.518136;stroke-linejoin:round"
     d="m 3.175,0.5291668 h 7.143751 l -1e-6,2.9104166 0.79375,1.0583333 3.175,0 V 15.875 c 0,0.295111 -0.236009,0.529167 -0.529167,0.529167 H 3.175 c -0.293159,0 -0.529167,-0.236009 -0.529167,-0.529167 V 1.0583337 c 0,-0.2931589 0.236008,-0.5291669 0.529167,-0.5291669 z"
     sodipodi:nodetypes="sccccssssss" />
  <path
     id="rect9905"
     style="opacity:0.3;fill:url(#linearGradient10455);fill-opacity:1;stroke-width:2;stroke-linejoin:round"
     d="M 10 59 L 10 60 C 10 61.108 10.892 62 12 62 L 52 62 C 53.108 62 54 61.108 54 60 L 54 59 C 54 60.108 53.108 61 52 61 L 12 61 C 10.892 61 10 60.108 10 59 z "
     transform="scale(0.26458334)" />
  <path
     id="rect5598"
     style="opacity:0.2;fill:url(#linearGradient6265);fill-opacity:1;stroke-width:0.529167;stroke-linejoin:round"
     d="M 10.444901,4.3115072 10.31875,3.4395834 14.2875,4.4979167 v 3.7041668 z"
     sodipodi:nodetypes="ccccc" />
  <path
     id="rect2607"
     style="fill:url(#linearGradient3380);fill-opacity:1;stroke-width:0.529167;stroke-linejoin:round"
     d="m 14.2875,4.4979167 -3.439583,-1e-7 c -0.293158,0 -0.529166,-0.2360083 -0.529166,-0.5291667 V 0.52916673 Z"
     sodipodi:nodetypes="csscc" />
  <rect
     style="fill:url(#linearGradient2085);fill-opacity:1;stroke-width:0.177507;stroke-linecap:round;stroke-linejoin:round"
     id="rect967"
     width="4.2333336"
     height="4.2333336"
     x="5.0270834"
     y="9.5249996"
     ry="0.5291667" />
  <path
     id="rect3134"
     style="opacity:0.3;fill:url(#linearGradient3324);fill-opacity:1;stroke-width:0.177507;stroke-linecap:round;stroke-linejoin:round"
     d="m 7.6729171,10.583334 v 0.264583 c 0,0.293158 0.2360083,0.529167 0.5291667,0.529167 h 3.1750002 c 0.293158,0 0.529167,-0.236009 0.529167,-0.529167 v -0.264583 c 0,0.293158 -0.236009,0.529166 -0.529167,0.529166 H 8.2020838 c -0.2931584,0 -0.5291667,-0.236008 -0.5291667,-0.529166 z m -2.6458334,2.645833 v 0.264583 c 0,0.293158 0.2360083,0.529167 0.5291667,0.529167 h 3.1750001 c 0.293158,0 0.5291666,-0.236009 0.5291666,-0.529167 v -0.264583 c 0,0.293158 -0.2360086,0.529167 -0.5291666,0.529167 H 5.5562504 c -0.2931584,0 -0.5291667,-0.236009 -0.5291667,-0.529167 z" />
  <path
     d="m 7.4960839,11.49209 c -0.1396042,0.372278 -0.3423627,0.641515 -0.5617408,0.850921 -0.036563,-0.192787 -0.05983,-0.395545 -0.05983,-0.608275 l 0.00332,-0.136281 C 7.0307365,11.541949 7.2235233,11.49209 7.4395774,11.49209 Z M 7.8750097,11.12646 7.6124208,11.05998 c -0.00332,0.05651 -0.019944,0.142928 -0.036563,0.192787 l -0.00997,0.03324 -0.1229846,-0.0033 c -0.1695195,0 -0.372278,0.02992 -0.5584169,0.0831 0.00997,-0.139604 0.019943,-0.279208 0.033239,-0.40884 0.4088409,-0.01994 0.8509209,-0.06648 1.1999315,-0.126309 l -0.00332,-0.245969 C 7.775298,10.664459 7.3697809,10.707673 6.9476444,10.727617 L 6.9875314,10.475 c 0.00997,-0.04654 0.023267,-0.106366 0.039887,-0.149576 L 6.74821,10.318824 c 0.00332,0.03989 -0.00332,0.09972 -0.00665,0.159548 l -0.026591,0.255941 -0.2260259,0.0033 c -0.1429281,0 -0.4321083,-0.02327 -0.5484452,-0.04321 l 0.00665,0.249293 c 0.1362803,0.01 0.3955452,0.02327 0.5384734,0.02327 l 0.2027585,-0.0033 c -0.013296,0.156224 -0.029915,0.32242 -0.036563,0.488615 -0.4586996,0.21273 -0.8309775,0.648163 -0.8309775,1.076947 0,0.282532 0.1728433,0.418813 0.3922214,0.418813 0.182815,0 0.3822496,-0.07313 0.5650647,-0.182815 l 0.053183,0.186139 0.2393215,-0.07313 c -0.026591,-0.0831 -0.053182,-0.172844 -0.079774,-0.269237 0.2825323,-0.239322 0.5517691,-0.608276 0.7412319,-1.080271 0.3091237,0.08975 0.4786431,0.315772 0.4786431,0.568389 0,0.432108 -0.372278,0.741232 -0.9739057,0.804386 l 0.1429282,0.222702 c 0.7711471,-0.122985 1.0869185,-0.53515 1.0869185,-1.013793 0,-0.36563 -0.2459693,-0.671429 -0.6614581,-0.781119 l 0.00332,-0.01329 c 0.01662,-0.05318 0.046535,-0.142928 0.066478,-0.189463 z M 6.641839,11.701496 v 0.05983 c 0,0.249293 0.033239,0.51853 0.079774,0.754527 -0.1695194,0.119661 -0.3290671,0.176168 -0.4586996,0.176168 -0.1263086,0 -0.1894629,-0.0698 -0.1894629,-0.206083 0,-0.27256 0.2459694,-0.601628 0.5683886,-0.784443 z"
     style="font-size:3.32391px;line-height:1.25;font-family:'Noto Sans CJK JP';-inkscape-font-specification:'Noto Sans CJK JP';stroke-width:0.083098;fill:url(#linearGradient29739);fill-opacity:1"
     id="path28964" />
  <path
     id="rect863"
     style="fill:url(#linearGradient1536);stroke-width:0.177507;stroke-linecap:round;stroke-linejoin:round"
     d="m 8.2020836,6.8791666 h 3.1750004 c 0.293159,0 0.529167,0.2360084 0.529167,0.5291667 v 3.1749997 c 0,0.293159 -0.236008,0.529167 -0.529167,0.529167 H 8.2020836 c -0.2931584,0 -0.5291667,-0.236008 -0.5291667,-0.529167 V 7.4083333 c 0,-0.2931583 0.2360083,-0.5291667 0.5291667,-0.5291667 z" />
  <path
     d="M 8.7312505,10.318753 H 9.0669433 L 9.3232249,9.5102028 h 0.9673731 l 0.252672,0.8085502 h 0.353741 L 9.9982202,7.6729164 H 9.6264314 Z M 9.4062457,9.246702 9.5361913,8.8388172 C 9.630041,8.5392204 9.7166714,8.254062 9.7996922,7.9436364 h 0.014438 c 0.08663,0.306816 0.1696512,0.595584 0.2671108,0.8951808 l 0.126336,0.4078848 z"
     style="font-size:3.6096px;line-height:1.25;font-family:'Noto Sans CJK JP';-inkscape-font-specification:'Noto Sans CJK JP';stroke-width:0.0902399;fill:url(#linearGradient29231);fill-opacity:1"
     id="path29086" />
</svg>
