<?xml version="1.0" encoding="UTF-8" standalone="no"?>
<!-- Created with Inkscape (http://www.inkscape.org/) -->

<svg
   width="64"
   height="64"
   viewBox="0 0 16.933333 16.933334"
   version="1.1"
   id="svg5"
   inkscape:version="1.1.1 (3bf5ae0d25, 2021-09-20, custom)"
   sodipodi:docname="text-x-python.svg"
   xmlns:inkscape="http://www.inkscape.org/namespaces/inkscape"
   xmlns:sodipodi="http://sodipodi.sourceforge.net/DTD/sodipodi-0.dtd"
   xmlns:xlink="http://www.w3.org/1999/xlink"
   xmlns="http://www.w3.org/2000/svg"
   xmlns:svg="http://www.w3.org/2000/svg">
  <sodipodi:namedview
     id="namedview7"
     pagecolor="#ffffff"
     bordercolor="#666666"
     borderopacity="1.0"
     inkscape:pageshadow="2"
     inkscape:pageopacity="0.0"
     inkscape:pagecheckerboard="0"
     inkscape:document-units="px"
     showgrid="false"
     units="px"
     height="64px"
     inkscape:zoom="12.484375"
     inkscape:cx="25.43179"
     inkscape:cy="36.966208"
     inkscape:window-width="1541"
     inkscape:window-height="947"
     inkscape:window-x="23"
     inkscape:window-y="15"
     inkscape:window-maximized="0"
     inkscape:current-layer="svg5" />
  <defs
     id="defs2">
    <linearGradient
       inkscape:collect="always"
       id="linearGradient1364">
      <stop
         style="stop-color:#306998;stop-opacity:1;"
         offset="0"
         id="stop1360" />
      <stop
         style="stop-color:#397bb3;stop-opacity:1"
         offset="1"
         id="stop1362" />
    </linearGradient>
    <linearGradient
       inkscape:collect="always"
       id="linearGradient1134">
      <stop
         style="stop-color:#ffd43b;stop-opacity:1;"
         offset="0"
         id="stop1130" />
      <stop
         style="stop-color:#ffd602;stop-opacity:1"
         offset="1"
         id="stop1132" />
    </linearGradient>
    <linearGradient
       inkscape:collect="always"
       id="linearGradient10453">
      <stop
         style="stop-color:#666666;stop-opacity:1"
         offset="0"
         id="stop10449" />
      <stop
         style="stop-color:#666666;stop-opacity:0"
         offset="1"
         id="stop10451" />
    </linearGradient>
    <linearGradient
       inkscape:collect="always"
       id="linearGradient8423">
      <stop
         style="stop-color:#fcfcfc;stop-opacity:1"
         offset="0"
         id="stop8419" />
      <stop
         style="stop-color:#ffffff;stop-opacity:0;"
         offset="1"
         id="stop8421" />
    </linearGradient>
    <linearGradient
       inkscape:collect="always"
       id="linearGradient6263">
      <stop
         style="stop-color:#000000;stop-opacity:1;"
         offset="0"
         id="stop6259" />
      <stop
         style="stop-color:#000000;stop-opacity:0;"
         offset="1"
         id="stop6261" />
    </linearGradient>
    <linearGradient
       inkscape:collect="always"
       id="linearGradient3378">
      <stop
         style="stop-color:#b0b0b0;stop-opacity:1"
         offset="0"
         id="stop3374" />
      <stop
         style="stop-color:#fcfcfc;stop-opacity:1"
         offset="1"
         id="stop3376" />
    </linearGradient>
    <linearGradient
       inkscape:collect="always"
       xlink:href="#linearGradient3378"
       id="linearGradient3380"
       x1="14.942825"
       y1="1.1138821"
       x2="11.503234"
       y2="4.3115072"
       gradientUnits="userSpaceOnUse"
       gradientTransform="translate(-0.5291663,-0.52916667)" />
    <linearGradient
       inkscape:collect="always"
       xlink:href="#linearGradient6263"
       id="linearGradient6265"
       x1="11.90625"
       y1="2.3812501"
       x2="12.170834"
       y2="7.1437502"
       gradientUnits="userSpaceOnUse"
       gradientTransform="translate(-0.52916663,0.52916673)" />
    <linearGradient
       inkscape:collect="always"
       xlink:href="#linearGradient8423"
       id="linearGradient8425"
       x1="13.692527"
       y1="11.622045"
       x2="1.6077259"
       y2="-0.71580184"
       gradientUnits="userSpaceOnUse" />
    <linearGradient
       inkscape:collect="always"
       xlink:href="#linearGradient10453"
       id="linearGradient10455"
       x1="10"
       y1="72.5"
       x2="58"
       y2="32.5"
       gradientUnits="userSpaceOnUse" />
    <linearGradient
       inkscape:collect="always"
       xlink:href="#linearGradient1134"
       id="linearGradient1136"
       x1="6.7936436"
       y1="9.4822398"
       x2="11.641667"
       y2="9.4822398"
       gradientUnits="userSpaceOnUse" />
    <linearGradient
       inkscape:collect="always"
       xlink:href="#linearGradient1364"
       id="linearGradient1366"
       x1="10.054167"
       y1="8.5094299"
       x2="5.1375847"
       y2="8.5094299"
       gradientUnits="userSpaceOnUse" />
  </defs>
  <path
     id="rect1068"
     style="fill:#e5e5e5;fill-opacity:1;stroke-width:0.529167;stroke-linejoin:round"
     d="m 3.175,0.5291667 7.143751,3e-8 3.968749,3.96874997 1e-6,11.3770833 c 0,0.293158 -0.236009,0.529167 -0.529167,0.529167 H 3.175 c -0.2931584,0 -0.5291667,-0.236009 -0.5291667,-0.529167 V 1.0583334 c 0,-0.29315835 0.2360083,-0.5291667 0.5291667,-0.5291667 z"
     sodipodi:nodetypes="cccsssssc" />
  <path
     id="rect8140"
     style="opacity:1;fill:url(#linearGradient8425);fill-opacity:1;stroke-width:0.518136;stroke-linejoin:round"
     d="m 3.175,0.5291668 h 7.143751 l -1e-6,2.9104166 0.79375,1.0583333 3.175,0 V 15.875 c 0,0.295111 -0.236009,0.529167 -0.529167,0.529167 H 3.175 c -0.293159,0 -0.529167,-0.236009 -0.529167,-0.529167 V 1.0583337 c 0,-0.2931589 0.236008,-0.5291669 0.529167,-0.5291669 z"
     sodipodi:nodetypes="sccccssssss" />
  <path
     id="rect9905"
     style="opacity:0.3;fill:url(#linearGradient10455);fill-opacity:1;stroke-width:2;stroke-linejoin:round"
     d="M 10 59 L 10 60 C 10 61.108 10.892 62 12 62 L 52 62 C 53.108 62 54 61.108 54 60 L 54 59 C 54 60.108 53.108 61 52 61 L 12 61 C 10.892 61 10 60.108 10 59 z "
     transform="scale(0.26458334)" />
  <path
     id="rect5598"
     style="opacity:0.2;fill:url(#linearGradient6265);fill-opacity:1;stroke-width:0.529167;stroke-linejoin:round"
     d="M 10.444901,4.3115072 10.31875,3.4395834 14.2875,4.4979167 v 3.7041668 z"
     sodipodi:nodetypes="ccccc" />
  <path
     id="rect2607"
     style="fill:url(#linearGradient3380);fill-opacity:1;stroke-width:0.529167;stroke-linejoin:round"
     d="m 14.2875,4.4979167 -3.439583,-1e-7 c -0.293158,0 -0.529166,-0.2360083 -0.529166,-0.5291667 V 0.52916673 Z"
     sodipodi:nodetypes="csscc" />
  <path
     id="path1945"
     style="font-size:1.67233px;line-height:1.25;font-family:Roboto;-inkscape-font-specification:Roboto;text-align:center;text-anchor:middle;stroke-width:0.158015;fill:#808080"
     d="M 37.880859 51 C 37.526971 51 37.213204 51.088693 36.9375 51.265625 C 36.663852 51.440511 36.450977 51.694135 36.300781 52.025391 C 36.150585 52.356646 36.076172 52.737846 36.076172 53.169922 L 36.076172 53.494141 C 36.080289 53.917984 36.156445 54.290255 36.306641 54.613281 C 36.458895 54.934246 36.671666 55.182531 36.945312 55.357422 C 37.218959 55.530247 37.532831 55.617188 37.886719 55.617188 C 38.248838 55.617188 38.566301 55.530247 38.837891 55.357422 C 39.109487 55.184592 39.318665 54.934563 39.466797 54.607422 C 39.614929 54.278223 39.689453 53.893427 39.689453 53.453125 L 39.689453 53.169922 C 39.689453 52.731676 39.614929 52.346777 39.466797 52.017578 C 39.318657 51.686318 39.107735 51.434544 38.832031 51.261719 C 38.558383 51.086827 38.24092 51 37.880859 51 z M 20.119141 51.0625 L 20.119141 55.554688 L 20.712891 55.554688 L 20.712891 53.796875 L 21.771484 53.796875 C 22.279685 53.796875 22.669817 53.677917 22.941406 53.443359 C 23.215053 53.206748 23.351562 52.871735 23.351562 52.435547 C 23.351563 52.021986 23.211459 51.688511 22.931641 51.4375 C 22.653879 51.186489 22.269084 51.0625 21.777344 51.0625 L 20.119141 51.0625 z M 23.632812 51.0625 L 25.181641 53.878906 L 25.181641 55.554688 L 25.773438 55.554688 L 25.773438 53.878906 L 27.324219 51.0625 L 26.650391 51.0625 L 25.478516 53.318359 L 24.310547 51.0625 L 23.632812 51.0625 z M 27.585938 51.0625 L 27.585938 51.548828 L 29.027344 51.548828 L 29.027344 55.554688 L 29.617188 55.554688 L 29.617188 51.548828 L 31.060547 51.548828 L 31.060547 51.0625 L 27.585938 51.0625 z M 31.726562 51.0625 L 31.726562 55.554688 L 32.320312 55.554688 L 32.320312 53.478516 L 34.585938 53.478516 L 34.585938 55.554688 L 35.181641 55.554688 L 35.181641 51.0625 L 34.585938 51.0625 L 34.585938 52.994141 L 32.320312 52.994141 L 32.320312 51.0625 L 31.726562 51.0625 z M 40.578125 51.0625 L 40.578125 55.554688 L 41.173828 55.554688 L 41.173828 52.091797 L 43.4375 55.554688 L 44.03125 55.554688 L 44.03125 51.0625 L 43.443359 51.0625 L 43.443359 54.539062 L 41.173828 51.0625 L 40.578125 51.0625 z M 37.845703 51.509766 C 37.85725 51.509486 37.869157 51.509766 37.880859 51.509766 C 38.265618 51.509766 38.565325 51.651508 38.779297 51.9375 C 38.993269 52.221436 39.099609 52.631174 39.099609 53.164062 L 39.099609 53.496094 C 39.093436 54.016638 38.985255 54.417447 38.775391 54.697266 C 38.565526 54.975028 38.269414 55.113281 37.886719 55.113281 C 37.506083 55.113281 37.208328 54.966096 36.990234 54.671875 C 36.774197 54.375595 36.666016 53.969555 36.666016 53.453125 L 36.666016 53.123047 C 36.672189 52.616905 36.782115 52.221436 36.996094 51.9375 C 37.205379 51.660445 37.487738 51.518424 37.845703 51.509766 z M 20.712891 51.548828 L 21.810547 51.548828 C 22.104767 51.555001 22.337144 51.638349 22.505859 51.798828 C 22.674575 51.959312 22.757812 52.173932 22.757812 52.441406 C 22.757812 52.723281 22.674575 52.939645 22.505859 53.089844 C 22.337145 53.237976 22.094198 53.3125 21.777344 53.3125 L 20.712891 53.3125 L 20.712891 51.548828 z "
     transform="scale(0.26458334)" />
  <path
     id="path2"
     style="stroke:none;stroke-width:0.119562;marker:none;fill:url(#linearGradient1366);fill-opacity:1"
     d="m 8.2577144,5.5562501 c -0.8110693,0 -1.4640708,0.4661781 -1.4640708,1.0461702 v 0.4558083 h -0.456279 c -0.5788424,0 -1.0456979,0.6531091 -1.0456979,1.4636036 v 0.4183702 c 0,0.8104946 0.4667486,1.4640746 1.046166,1.4640746 h 0.216206 V 9.3283951 c 0,-0.8369363 0.8369795,-0.8369823 0.8369795,-0.8369823 h 1.6727892 c 0.4627292,0 0.8362775,-0.3729712 0.8362775,-0.8362751 V 6.0272739 C 9.6388763,5.7432444 9.1889852,5.5562501 8.6756193,5.5562501 Z"
     sodipodi:nodetypes="sscsssscscsscss" />
  <path
     id="path4"
     style="stroke:none;stroke-width:0.119562;marker:none;fill:url(#linearGradient1136);fill-opacity:1"
     d="m 10.13969,7.0582286 v 0.8365108 c 0,0.4633039 -0.3735483,0.8362809 -0.8362774,0.8362809 H 7.6306232 c 0,0 -0.8369796,4.03e-5 -0.8369796,0.8369763 v 1.2920894 c 0,0.579418 0.6530015,1.046165 1.4640708,1.046165 l 0.4179049,-4.53e-4 c 0.8110691,0 1.4640707,-0.465706 1.4640707,-1.045699 v -0.455808 h 0.456513 c 0.578843,0 1.045464,-0.6530004 1.045464,-1.4640695 V 8.5218322 c 0,-0.8104945 -0.466748,-1.4636036 -1.046166,-1.4636036 z" />
  <circle
     style="fill:#ffffff;stroke:none;stroke-width:0.0326185"
     id="path1578"
     cx="7.8679538"
     cy="6.5092168"
     r="0.31382263" />
  <circle
     style="fill:#ffffff;stroke:none;stroke-width:0.0384748"
     id="path1877"
     cx="9.0843086"
     cy="11.155042"
     r="0.31382263" />
</svg>
