<?xml version="1.0" encoding="UTF-8" standalone="no"?>
<!-- Created with Inkscape (http://www.inkscape.org/) -->

<svg
   width="64"
   height="64"
   viewBox="0 0 16.933333 16.933334"
   version="1.1"
   id="svg5"
   inkscape:version="1.1.1 (3bf5ae0d25, 2021-09-20, custom)"
   sodipodi:docname="text-x-apport.svg"
   xmlns:inkscape="http://www.inkscape.org/namespaces/inkscape"
   xmlns:sodipodi="http://sodipodi.sourceforge.net/DTD/sodipodi-0.dtd"
   xmlns:xlink="http://www.w3.org/1999/xlink"
   xmlns="http://www.w3.org/2000/svg"
   xmlns:svg="http://www.w3.org/2000/svg">
  <sodipodi:namedview
     id="namedview7"
     pagecolor="#ffffff"
     bordercolor="#666666"
     borderopacity="1.0"
     inkscape:pageshadow="2"
     inkscape:pageopacity="0.0"
     inkscape:pagecheckerboard="0"
     inkscape:document-units="px"
     showgrid="false"
     units="px"
     height="64px"
     inkscape:zoom="8.8277862"
     inkscape:cx="26.620491"
     inkscape:cy="38.967867"
     inkscape:window-width="1920"
     inkscape:window-height="1011"
     inkscape:window-x="0"
     inkscape:window-y="0"
     inkscape:window-maximized="1"
     inkscape:current-layer="svg5" />
  <defs
     id="defs2">
    <linearGradient
       inkscape:collect="always"
       id="linearGradient10453">
      <stop
         style="stop-color:#666666;stop-opacity:1"
         offset="0"
         id="stop10449" />
      <stop
         style="stop-color:#666666;stop-opacity:0"
         offset="1"
         id="stop10451" />
    </linearGradient>
    <linearGradient
       inkscape:collect="always"
       id="linearGradient8423">
      <stop
         style="stop-color:#fcfcfc;stop-opacity:1"
         offset="0"
         id="stop8419" />
      <stop
         style="stop-color:#ffffff;stop-opacity:0;"
         offset="1"
         id="stop8421" />
    </linearGradient>
    <linearGradient
       inkscape:collect="always"
       id="linearGradient6263">
      <stop
         style="stop-color:#000000;stop-opacity:1;"
         offset="0"
         id="stop6259" />
      <stop
         style="stop-color:#000000;stop-opacity:0;"
         offset="1"
         id="stop6261" />
    </linearGradient>
    <linearGradient
       inkscape:collect="always"
       id="linearGradient3378">
      <stop
         style="stop-color:#b0b0b0;stop-opacity:1"
         offset="0"
         id="stop3374" />
      <stop
         style="stop-color:#fcfcfc;stop-opacity:1"
         offset="1"
         id="stop3376" />
    </linearGradient>
    <linearGradient
       inkscape:collect="always"
       xlink:href="#linearGradient3378"
       id="linearGradient3380"
       x1="14.942825"
       y1="1.1138821"
       x2="11.503234"
       y2="4.3115072"
       gradientUnits="userSpaceOnUse"
       gradientTransform="translate(-0.5291663,-0.52916667)" />
    <linearGradient
       inkscape:collect="always"
       xlink:href="#linearGradient6263"
       id="linearGradient6265"
       x1="11.90625"
       y1="2.3812501"
       x2="12.170834"
       y2="7.1437502"
       gradientUnits="userSpaceOnUse"
       gradientTransform="translate(-0.52916663,0.52916673)" />
    <linearGradient
       inkscape:collect="always"
       xlink:href="#linearGradient8423"
       id="linearGradient8425"
       x1="13.692527"
       y1="11.622045"
       x2="1.6077259"
       y2="-0.71580184"
       gradientUnits="userSpaceOnUse" />
    <linearGradient
       inkscape:collect="always"
       xlink:href="#linearGradient10453"
       id="linearGradient10455"
       x1="10"
       y1="72.5"
       x2="58"
       y2="32.5"
       gradientUnits="userSpaceOnUse" />
    <linearGradient
       inkscape:collect="always"
       xlink:href="#linearGradient2515"
       id="linearGradient22952"
       x1="18"
       y1="5.9999943"
       x2="17.869802"
       y2="35.999992"
       gradientUnits="userSpaceOnUse"
       gradientTransform="matrix(0.26458334,0,0,0.26458334,4.0031461,4.4979164)" />
    <linearGradient
       inkscape:collect="always"
       id="linearGradient2515">
      <stop
         style="stop-color:#ff5355;stop-opacity:1;"
         offset="0"
         id="stop2511" />
      <stop
         style="stop-color:#ff9349;stop-opacity:1"
         offset="1"
         id="stop2513" />
    </linearGradient>
    <linearGradient
       inkscape:collect="always"
       xlink:href="#linearGradient6263"
       id="linearGradient23622"
       x1="12"
       y1="30.202148"
       x2="19.869141"
       y2="10.202148"
       gradientUnits="userSpaceOnUse"
       gradientTransform="matrix(0.26458334,0,0,0.26458334,4.0031461,4.4979164)" />
  </defs>
  <path
     id="rect1068"
     style="fill:#e5e5e5;fill-opacity:1;stroke-width:0.529167;stroke-linejoin:round"
     d="m 3.175,0.5291667 7.143751,3e-8 3.968749,3.96874997 1e-6,11.3770833 c 0,0.293158 -0.236009,0.529167 -0.529167,0.529167 H 3.175 c -0.2931584,0 -0.5291667,-0.236009 -0.5291667,-0.529167 V 1.0583334 c 0,-0.29315835 0.2360083,-0.5291667 0.5291667,-0.5291667 z"
     sodipodi:nodetypes="cccsssssc" />
  <path
     id="rect8140"
     style="opacity:1;fill:url(#linearGradient8425);fill-opacity:1;stroke-width:0.518136;stroke-linejoin:round"
     d="m 3.175,0.5291668 h 7.143751 l -1e-6,2.9104166 0.79375,1.0583333 3.175,0 V 15.875 c 0,0.295111 -0.236009,0.529167 -0.529167,0.529167 H 3.175 c -0.293159,0 -0.529167,-0.236009 -0.529167,-0.529167 V 1.0583337 c 0,-0.2931589 0.236008,-0.5291669 0.529167,-0.5291669 z"
     sodipodi:nodetypes="sccccssssss" />
  <path
     id="rect9905"
     style="opacity:0.3;fill:url(#linearGradient10455);fill-opacity:1;stroke-width:2;stroke-linejoin:round"
     d="M 10 59 L 10 60 C 10 61.108 10.892 62 12 62 L 52 62 C 53.108 62 54 61.108 54 60 L 54 59 C 54 60.108 53.108 61 52 61 L 12 61 C 10.892 61 10 60.108 10 59 z "
     transform="scale(0.26458334)" />
  <path
     id="rect5598"
     style="opacity:0.2;fill:url(#linearGradient6265);fill-opacity:1;stroke-width:0.529167;stroke-linejoin:round"
     d="M 10.444901,4.3115072 10.31875,3.4395834 14.2875,4.4979167 v 3.7041668 z"
     sodipodi:nodetypes="ccccc" />
  <path
     id="rect2607"
     style="fill:url(#linearGradient3380);fill-opacity:1;stroke-width:0.529167;stroke-linejoin:round"
     d="m 14.2875,4.4979167 -3.439583,-1e-7 c -0.293158,0 -0.529166,-0.2360083 -0.529166,-0.5291667 V 0.52916673 Z"
     sodipodi:nodetypes="csscc" />
  <path
     id="path869"
     style="font-size:1.67233px;line-height:1.25;font-family:Roboto;-inkscape-font-specification:Roboto;text-align:center;text-anchor:middle;fill:#808080;stroke-width:0.158015"
     d="M 34.417969 51 C 34.06408 51 33.750313 51.088693 33.474609 51.265625 C 33.200962 51.440511 32.988087 51.694135 32.837891 52.025391 C 32.687695 52.356646 32.613281 52.737846 32.613281 53.169922 L 32.613281 53.494141 C 32.617396 53.917984 32.693552 54.290255 32.84375 54.613281 C 32.996004 54.934246 33.210728 55.182531 33.484375 55.357422 C 33.758022 55.530247 34.069939 55.617188 34.423828 55.617188 C 34.785947 55.617188 35.103411 55.530247 35.375 55.357422 C 35.646589 55.184592 35.855766 54.934563 36.003906 54.607422 C 36.152046 54.278223 36.226562 53.893427 36.226562 53.453125 L 36.226562 53.169922 C 36.226562 52.731676 36.152046 52.346777 36.003906 52.017578 C 35.855767 51.686318 35.644845 51.434544 35.369141 51.261719 C 35.095494 51.086827 34.77803 51 34.417969 51 z M 21.953125 51.0625 L 20.236328 55.554688 L 20.847656 55.554688 L 21.271484 54.382812 L 23.154297 54.382812 L 23.582031 55.554688 L 24.191406 55.554688 L 22.472656 51.0625 L 21.953125 51.0625 z M 24.794922 51.0625 L 24.794922 55.554688 L 25.388672 55.554688 L 25.388672 53.796875 L 26.447266 53.796875 C 26.955466 53.796875 27.345598 53.677917 27.617188 53.443359 C 27.890834 53.206748 28.027344 52.871735 28.027344 52.435547 C 28.027344 52.021986 27.887241 51.688511 27.607422 51.4375 C 27.32966 51.186489 26.944866 51.0625 26.453125 51.0625 L 24.794922 51.0625 z M 28.783203 51.0625 L 28.783203 55.554688 L 29.375 55.554688 L 29.375 53.796875 L 30.433594 53.796875 C 30.941795 53.796875 31.331927 53.677917 31.603516 53.443359 C 31.877162 53.206748 32.013672 52.871735 32.013672 52.435547 C 32.013672 52.021986 31.873569 51.688511 31.59375 51.4375 C 31.315988 51.186489 30.931194 51.0625 30.439453 51.0625 L 28.783203 51.0625 z M 37.113281 51.0625 L 37.113281 55.554688 L 37.708984 55.554688 L 37.708984 53.738281 L 38.763672 53.738281 L 39.738281 55.554688 L 40.375 55.554688 L 40.375 55.517578 L 39.320312 53.611328 C 39.589843 53.508444 39.79902 53.35233 39.949219 53.144531 C 40.101483 52.936725 40.177734 52.693881 40.177734 52.414062 C 40.177734 51.973745 40.041226 51.638628 39.767578 51.408203 C 39.495991 51.177753 39.105754 51.0625 38.599609 51.0625 L 37.113281 51.0625 z M 40.390625 51.0625 L 40.390625 51.548828 L 41.832031 51.548828 L 41.832031 55.554688 L 42.421875 55.554688 L 42.421875 51.548828 L 43.865234 51.548828 L 43.865234 51.0625 L 40.390625 51.0625 z M 34.382812 51.509766 C 34.39436 51.509486 34.406267 51.509766 34.417969 51.509766 C 34.80272 51.509766 35.102427 51.651508 35.316406 51.9375 C 35.530385 52.221436 35.636719 52.631174 35.636719 53.164062 L 35.636719 53.496094 C 35.630548 54.016638 35.524318 54.417447 35.314453 54.697266 C 35.104589 54.975028 34.806522 55.113281 34.423828 55.113281 C 34.043191 55.113281 33.745438 54.966096 33.527344 54.671875 C 33.311306 54.375595 33.203125 53.969555 33.203125 53.453125 L 33.203125 53.123047 C 33.209298 52.616905 33.319224 52.221436 33.533203 51.9375 C 33.742489 51.660445 34.024847 51.518424 34.382812 51.509766 z M 25.388672 51.548828 L 26.486328 51.548828 C 26.780548 51.555001 27.012925 51.638349 27.181641 51.798828 C 27.350356 51.959312 27.433594 52.173932 27.433594 52.441406 C 27.433594 52.723281 27.350356 52.939645 27.181641 53.089844 C 27.012926 53.237976 26.769979 53.3125 26.453125 53.3125 L 25.388672 53.3125 L 25.388672 51.548828 z M 29.375 51.548828 L 30.474609 51.548828 C 30.76883 51.555001 30.999253 51.638349 31.167969 51.798828 C 31.336684 51.959312 31.421875 52.173932 31.421875 52.441406 C 31.421875 52.723281 31.336684 52.939645 31.167969 53.089844 C 30.999254 53.237976 30.756307 53.3125 30.439453 53.3125 L 29.375 53.3125 L 29.375 51.548828 z M 37.708984 51.548828 L 38.615234 51.548828 C 38.927985 51.550894 39.167445 51.627258 39.332031 51.775391 C 39.498683 51.92353 39.582031 52.1363 39.582031 52.414062 C 39.582031 52.669181 39.495204 52.873126 39.320312 53.025391 C 39.147485 53.177655 38.913364 53.253906 38.619141 53.253906 L 37.708984 53.253906 L 37.708984 51.548828 z M 22.212891 51.792969 L 22.978516 53.894531 L 21.449219 53.894531 L 22.212891 51.792969 z "
     transform="scale(0.26458334)" />
  <path
     d="m 7.8846787,7.7799214 v -1.959088 h 0.6772156 v 1.959088 L 8.4812733,9.8921896 H 7.9572375 Z m 0.3386079,3.8617426 q -0.2176767,0 -0.3708564,-0.145117 -0.1451176,-0.15318 -0.1451176,-0.370857 0,-0.209614 0.1451176,-0.354732 0.1531797,-0.153179 0.3708564,-0.153179 0.2096143,0 0.3547319,0.153179 0.1531798,0.145118 0.1531798,0.354732 0,0.217677 -0.1531798,0.370857 -0.1451176,0.145117 -0.3547319,0.145117 z"
     style="font-size:30.4709px;line-height:1.25;font-family:'Google Sans';-inkscape-font-specification:'Google Sans';fill:url(#linearGradient22952);fill-opacity:1;stroke-width:0.201552"
     id="path13331" />
  <path
     id="path22787"
     style="font-size:30.4709px;line-height:1.25;font-family:'Google Sans';-inkscape-font-specification:'Google Sans';opacity:0.3;fill:url(#linearGradient23622);fill-opacity:1;stroke-width:0.201552"
     d="m 7.8845631,7.7798864 v 0.264584 l 0.072864,2.1125326 H 8.4814262 L 8.5620412,8.0444704 V 7.7798864 L 8.4814262,9.8924196 H 7.9574267 Z M 7.7233326,11.260812 c -0.010291,0.041 -0.01602,0.08413 -0.01602,0.129708 0,0.145117 0.048465,0.2684 0.1452107,0.37052 0.1021199,0.09674 0.2254025,0.145211 0.3705201,0.145211 0.1397429,0 0.258272,-0.04847 0.3550172,-0.145211 0.1021196,-0.10212 0.1529622,-0.225403 0.1529622,-0.37052 0,-0.04557 -0.00568,-0.08871 -0.016536,-0.129708 -0.022466,0.08824 -0.067677,0.166896 -0.1364257,0.235644 -0.096745,0.09675 -0.2152743,0.145211 -0.3550172,0.145211 -0.1451176,0 -0.2684002,-0.04847 -0.3705201,-0.145211 -0.065124,-0.06874 -0.1079053,-0.147418 -0.1291912,-0.235644 z" />
</svg>
