<?xml version="1.0" encoding="UTF-8" standalone="no"?>
<!-- Created with Inkscape (http://www.inkscape.org/) -->

<svg
   width="64"
   height="64"
   viewBox="0 0 16.933333 16.933334"
   version="1.1"
   id="svg5"
   inkscape:version="1.1.1 (3bf5ae0d25, 2021-09-20, custom)"
   sodipodi:docname="text-x-patch.svg"
   xmlns:inkscape="http://www.inkscape.org/namespaces/inkscape"
   xmlns:sodipodi="http://sodipodi.sourceforge.net/DTD/sodipodi-0.dtd"
   xmlns:xlink="http://www.w3.org/1999/xlink"
   xmlns="http://www.w3.org/2000/svg"
   xmlns:svg="http://www.w3.org/2000/svg">
  <sodipodi:namedview
     id="namedview7"
     pagecolor="#ffffff"
     bordercolor="#666666"
     borderopacity="1.0"
     inkscape:pageshadow="2"
     inkscape:pageopacity="0.0"
     inkscape:pagecheckerboard="0"
     inkscape:document-units="px"
     showgrid="false"
     units="px"
     height="64px"
     inkscape:zoom="8.8277862"
     inkscape:cx="28.716146"
     inkscape:cy="36.98549"
     inkscape:window-width="1541"
     inkscape:window-height="947"
     inkscape:window-x="23"
     inkscape:window-y="15"
     inkscape:window-maximized="0"
     inkscape:current-layer="svg5" />
  <defs
     id="defs2">
    <linearGradient
       inkscape:collect="always"
       id="linearGradient10453">
      <stop
         style="stop-color:#666666;stop-opacity:1"
         offset="0"
         id="stop10449" />
      <stop
         style="stop-color:#666666;stop-opacity:0"
         offset="1"
         id="stop10451" />
    </linearGradient>
    <linearGradient
       inkscape:collect="always"
       id="linearGradient8423">
      <stop
         style="stop-color:#fcfcfc;stop-opacity:1"
         offset="0"
         id="stop8419" />
      <stop
         style="stop-color:#ffffff;stop-opacity:0;"
         offset="1"
         id="stop8421" />
    </linearGradient>
    <linearGradient
       inkscape:collect="always"
       id="linearGradient6263">
      <stop
         style="stop-color:#000000;stop-opacity:1;"
         offset="0"
         id="stop6259" />
      <stop
         style="stop-color:#000000;stop-opacity:0;"
         offset="1"
         id="stop6261" />
    </linearGradient>
    <linearGradient
       inkscape:collect="always"
       id="linearGradient3378">
      <stop
         style="stop-color:#b0b0b0;stop-opacity:1"
         offset="0"
         id="stop3374" />
      <stop
         style="stop-color:#fcfcfc;stop-opacity:1"
         offset="1"
         id="stop3376" />
    </linearGradient>
    <linearGradient
       inkscape:collect="always"
       xlink:href="#linearGradient3378"
       id="linearGradient3380"
       x1="14.942825"
       y1="1.1138821"
       x2="11.503234"
       y2="4.3115072"
       gradientUnits="userSpaceOnUse"
       gradientTransform="translate(-0.5291663,-0.52916667)" />
    <linearGradient
       inkscape:collect="always"
       xlink:href="#linearGradient6263"
       id="linearGradient6265"
       x1="11.90625"
       y1="2.3812501"
       x2="12.170834"
       y2="7.1437502"
       gradientUnits="userSpaceOnUse"
       gradientTransform="translate(-0.52916663,0.52916673)" />
    <linearGradient
       inkscape:collect="always"
       xlink:href="#linearGradient8423"
       id="linearGradient8425"
       x1="13.692527"
       y1="11.622045"
       x2="1.6077259"
       y2="-0.71580184"
       gradientUnits="userSpaceOnUse" />
    <linearGradient
       inkscape:collect="always"
       xlink:href="#linearGradient10453"
       id="linearGradient10455"
       x1="10"
       y1="72.5"
       x2="58"
       y2="32.5"
       gradientUnits="userSpaceOnUse" />
  </defs>
  <path
     id="rect1068"
     style="fill:#e5e5e5;fill-opacity:1;stroke-width:0.529167;stroke-linejoin:round"
     d="m 3.175,0.5291667 7.143751,3e-8 3.968749,3.96874997 1e-6,11.3770833 c 0,0.293158 -0.236009,0.529167 -0.529167,0.529167 H 3.175 c -0.2931584,0 -0.5291667,-0.236009 -0.5291667,-0.529167 V 1.0583334 c 0,-0.29315835 0.2360083,-0.5291667 0.5291667,-0.5291667 z"
     sodipodi:nodetypes="cccsssssc" />
  <path
     id="rect8140"
     style="opacity:1;fill:url(#linearGradient8425);fill-opacity:1;stroke-width:0.518136;stroke-linejoin:round"
     d="m 3.175,0.5291668 h 7.143751 l -1e-6,2.9104166 0.79375,1.0583333 3.175,0 V 15.875 c 0,0.295111 -0.236009,0.529167 -0.529167,0.529167 H 3.175 c -0.293159,0 -0.529167,-0.236009 -0.529167,-0.529167 V 1.0583337 c 0,-0.2931589 0.236008,-0.5291669 0.529167,-0.5291669 z"
     sodipodi:nodetypes="sccccssssss" />
  <path
     id="rect9905"
     style="opacity:0.3;fill:url(#linearGradient10455);fill-opacity:1;stroke-width:2;stroke-linejoin:round"
     d="M 10 59 L 10 60 C 10 61.108 10.892 62 12 62 L 52 62 C 53.108 62 54 61.108 54 60 L 54 59 C 54 60.108 53.108 61 52 61 L 12 61 C 10.892 61 10 60.108 10 59 z "
     transform="scale(0.26458334)" />
  <path
     id="rect5598"
     style="opacity:0.2;fill:url(#linearGradient6265);fill-opacity:1;stroke-width:0.529167;stroke-linejoin:round"
     d="M 10.444901,4.3115072 10.31875,3.4395834 14.2875,4.4979167 v 3.7041668 z"
     sodipodi:nodetypes="ccccc" />
  <path
     id="rect2607"
     style="fill:url(#linearGradient3380);fill-opacity:1;stroke-width:0.529167;stroke-linejoin:round"
     d="m 14.2875,4.4979167 -3.439583,-1e-7 c -0.293158,0 -0.529166,-0.2360083 -0.529166,-0.5291667 V 0.52916673 Z"
     sodipodi:nodetypes="csscc" />
  <path
     id="path4294"
     style="font-size:1.67233px;line-height:1.25;font-family:Roboto;-inkscape-font-specification:Roboto;text-align:center;text-anchor:middle;stroke-width:0.158015;fill:#808080"
     d="M 35.476562 51 C 35.116501 51 34.799037 51.0851 34.525391 51.255859 C 34.251743 51.424572 34.038868 51.66752 33.888672 51.984375 C 33.740532 52.301228 33.667969 52.668267 33.667969 53.085938 L 33.667969 53.517578 C 33.667969 54.155401 33.82562 54.666239 34.144531 55.046875 C 34.4655 55.427511 34.892995 55.617188 35.423828 55.617188 C 35.913512 55.617188 36.305388 55.487656 36.599609 55.230469 C 36.895889 54.971223 37.071402 54.604187 37.126953 54.128906 L 36.53125 54.128906 C 36.47364 54.499255 36.356632 54.759958 36.179688 54.910156 C 36.004801 55.058289 35.753027 55.132812 35.423828 55.132812 C 35.057594 55.132813 34.772051 54.98922 34.568359 54.701172 C 34.364668 54.413124 34.263672 54.024736 34.263672 53.537109 L 34.263672 53.101562 C 34.263672 52.585133 34.370005 52.188022 34.583984 51.908203 C 34.800021 51.628382 35.097984 51.488281 35.476562 51.488281 C 35.785187 51.488281 36.024541 51.568037 36.195312 51.728516 C 36.368143 51.888999 36.479813 52.147855 36.53125 52.505859 L 37.126953 52.505859 C 37.079631 52.034693 36.911096 51.665807 36.623047 51.400391 C 36.334998 51.132916 35.953901 51 35.476562 51 z M 22.763672 51.0625 L 22.763672 55.554688 L 23.355469 55.554688 L 23.355469 53.796875 L 24.414062 53.796875 C 24.922263 53.796875 25.312395 53.677917 25.583984 53.443359 C 25.857631 53.206748 25.994141 52.871735 25.994141 52.435547 C 25.994141 52.021986 25.854038 51.688511 25.574219 51.4375 C 25.296457 51.186489 24.911663 51.0625 24.419922 51.0625 L 22.763672 51.0625 z M 27.605469 51.0625 L 25.890625 55.554688 L 26.5 55.554688 L 26.923828 54.382812 L 28.806641 54.382812 L 29.234375 55.554688 L 29.84375 55.554688 L 28.125 51.0625 L 27.605469 51.0625 z M 29.679688 51.0625 L 29.679688 51.548828 L 31.121094 51.548828 L 31.121094 55.554688 L 31.710938 55.554688 L 31.710938 51.548828 L 33.154297 51.548828 L 33.154297 51.0625 L 29.679688 51.0625 z M 37.935547 51.0625 L 37.935547 55.554688 L 38.527344 55.554688 L 38.527344 53.478516 L 40.792969 53.478516 L 40.792969 55.554688 L 41.388672 55.554688 L 41.388672 51.0625 L 40.792969 51.0625 L 40.792969 52.994141 L 38.527344 52.994141 L 38.527344 51.0625 L 37.935547 51.0625 z M 23.355469 51.548828 L 24.455078 51.548828 C 24.749298 51.555001 24.979722 51.638349 25.148438 51.798828 C 25.317151 51.959312 25.402344 52.173932 25.402344 52.441406 C 25.402344 52.723281 25.317151 52.939645 25.148438 53.089844 C 24.979723 53.237976 24.736776 53.3125 24.419922 53.3125 L 23.355469 53.3125 L 23.355469 51.548828 z M 27.865234 51.792969 L 28.630859 53.894531 L 27.103516 53.894531 L 27.865234 51.792969 z "
     transform="scale(0.26458334)" />
  <text
     xml:space="preserve"
     style="font-size:10.5833px;line-height:1.25;font-family:'Noto Serif';-inkscape-font-specification:'Noto Serif';stroke-width:0.264583"
     x="11.210568"
     y="8.940918"
     id="text80811"><tspan
       sodipodi:role="line"
       id="tspan80809"
       style="stroke-width:0.264583" /></text>
  <rect
     style="opacity:0.5;fill:#808080;fill-opacity:1;stroke-width:2.38125;stroke-linecap:round;stroke-linejoin:round"
     id="rect4450"
     width="0.5291667"
     height="0.5291667"
     x="5.2916665"
     y="6.3499999" />
  <rect
     style="opacity:0.5;fill:#808080;fill-opacity:1;stroke-width:2.17377;stroke-linecap:round;stroke-linejoin:round"
     id="rect4452"
     width="5.2916665"
     height="0.5291667"
     x="6.3499994"
     y="6.3499999" />
  <rect
     style="fill:#808080;fill-opacity:1;stroke-width:2.38125;stroke-linecap:round;stroke-linejoin:round;opacity:0.5"
     id="rect4450-3"
     width="0.5291667"
     height="0.5291667"
     x="5.2916665"
     y="11.112497" />
  <rect
     style="fill:#808080;fill-opacity:1;stroke-width:2.17377;stroke-linecap:round;stroke-linejoin:round;opacity:0.5"
     id="rect4452-6"
     width="5.2916665"
     height="0.5291667"
     x="6.3499994"
     y="11.112497" />
  <rect
     style="opacity:0.5;fill:#f30000;fill-opacity:1;stroke-width:2.38125;stroke-linecap:round;stroke-linejoin:round"
     id="rect4763"
     width="0.5291667"
     height="0.5291667"
     x="5.8208332"
     y="7.9375" />
  <rect
     style="opacity:0.5;fill:#f30000;fill-opacity:1;stroke-width:2.38125;stroke-linecap:round;stroke-linejoin:round"
     id="rect4765"
     width="5.291667"
     height="0.5291667"
     x="6.8791661"
     y="7.9375" />
  <rect
     style="opacity:0.5;fill:#49a642;fill-opacity:1;stroke-width:2.38125;stroke-linecap:round;stroke-linejoin:round"
     id="rect4869"
     width="0.5291667"
     height="0.52916718"
     x="5.8208332"
     y="9.5249987" />
  <rect
     style="opacity:0.5;fill:#49a642;fill-opacity:1;stroke-width:2.38125;stroke-linecap:round;stroke-linejoin:round"
     id="rect4871"
     width="5.2916675"
     height="0.52916718"
     x="6.8791661"
     y="9.5249987" />
</svg>
