<?xml version="1.0" encoding="UTF-8" standalone="no"?>
<!-- Created with Inkscape (http://www.inkscape.org/) -->

<svg
   width="64"
   height="64"
   viewBox="0 0 16.933333 16.933334"
   version="1.1"
   id="svg5"
   inkscape:version="1.1.1 (3bf5ae0d25, 2021-09-20, custom)"
   sodipodi:docname="text-x-typescript.svg"
   xmlns:inkscape="http://www.inkscape.org/namespaces/inkscape"
   xmlns:sodipodi="http://sodipodi.sourceforge.net/DTD/sodipodi-0.dtd"
   xmlns:xlink="http://www.w3.org/1999/xlink"
   xmlns="http://www.w3.org/2000/svg"
   xmlns:svg="http://www.w3.org/2000/svg">
  <sodipodi:namedview
     id="namedview7"
     pagecolor="#ffffff"
     bordercolor="#666666"
     borderopacity="1.0"
     inkscape:pageshadow="2"
     inkscape:pageopacity="0.0"
     inkscape:pagecheckerboard="0"
     inkscape:document-units="px"
     showgrid="false"
     units="px"
     height="64px"
     inkscape:zoom="6.2421875"
     inkscape:cx="9.612015"
     inkscape:cy="34.443054"
     inkscape:window-width="1920"
     inkscape:window-height="1011"
     inkscape:window-x="0"
     inkscape:window-y="0"
     inkscape:window-maximized="1"
     inkscape:current-layer="svg5" />
  <defs
     id="defs2">
    <linearGradient
       inkscape:collect="always"
       id="linearGradient11562">
      <stop
         style="stop-color:#2876ce;stop-opacity:1;"
         offset="0"
         id="stop11558" />
      <stop
         style="stop-color:#25ace7;stop-opacity:1"
         offset="1"
         id="stop11560" />
    </linearGradient>
    <linearGradient
       inkscape:collect="always"
       id="linearGradient10453">
      <stop
         style="stop-color:#666666;stop-opacity:1"
         offset="0"
         id="stop10449" />
      <stop
         style="stop-color:#666666;stop-opacity:0"
         offset="1"
         id="stop10451" />
    </linearGradient>
    <linearGradient
       inkscape:collect="always"
       id="linearGradient8423">
      <stop
         style="stop-color:#fcfcfc;stop-opacity:1"
         offset="0"
         id="stop8419" />
      <stop
         style="stop-color:#ffffff;stop-opacity:0;"
         offset="1"
         id="stop8421" />
    </linearGradient>
    <linearGradient
       inkscape:collect="always"
       id="linearGradient6263">
      <stop
         style="stop-color:#000000;stop-opacity:1;"
         offset="0"
         id="stop6259" />
      <stop
         style="stop-color:#000000;stop-opacity:0;"
         offset="1"
         id="stop6261" />
    </linearGradient>
    <linearGradient
       inkscape:collect="always"
       id="linearGradient3378">
      <stop
         style="stop-color:#b0b0b0;stop-opacity:1"
         offset="0"
         id="stop3374" />
      <stop
         style="stop-color:#fcfcfc;stop-opacity:1"
         offset="1"
         id="stop3376" />
    </linearGradient>
    <linearGradient
       inkscape:collect="always"
       xlink:href="#linearGradient3378"
       id="linearGradient3380"
       x1="14.942825"
       y1="1.1138821"
       x2="11.503234"
       y2="4.3115072"
       gradientUnits="userSpaceOnUse"
       gradientTransform="translate(-0.5291663,-0.52916667)" />
    <linearGradient
       inkscape:collect="always"
       xlink:href="#linearGradient6263"
       id="linearGradient6265"
       x1="11.90625"
       y1="2.3812501"
       x2="12.170834"
       y2="7.1437502"
       gradientUnits="userSpaceOnUse"
       gradientTransform="translate(-0.52916663,0.52916673)" />
    <linearGradient
       inkscape:collect="always"
       xlink:href="#linearGradient8423"
       id="linearGradient8425"
       x1="13.692527"
       y1="11.622045"
       x2="1.6077259"
       y2="-0.71580184"
       gradientUnits="userSpaceOnUse" />
    <linearGradient
       inkscape:collect="always"
       xlink:href="#linearGradient10453"
       id="linearGradient10455"
       x1="10"
       y1="72.5"
       x2="58"
       y2="32.5"
       gradientUnits="userSpaceOnUse" />
    <linearGradient
       inkscape:collect="always"
       xlink:href="#linearGradient6263"
       id="linearGradient10652"
       x1="18"
       y1="46.890625"
       x2="50"
       y2="22.890625"
       gradientUnits="userSpaceOnUse" />
    <linearGradient
       inkscape:collect="always"
       xlink:href="#linearGradient11562"
       id="linearGradient11564"
       x1="16"
       y1="23.279297"
       x2="16"
       y2="43.279297"
       gradientUnits="userSpaceOnUse" />
  </defs>
  <path
     id="rect1068"
     style="fill:#e5e5e5;fill-opacity:1;stroke-width:0.529167;stroke-linejoin:round"
     d="m 3.175,0.5291667 7.143751,3e-8 3.968749,3.96874997 1e-6,11.3770833 c 0,0.293158 -0.236009,0.529167 -0.529167,0.529167 H 3.175 c -0.2931584,0 -0.5291667,-0.236009 -0.5291667,-0.529167 V 1.0583334 c 0,-0.29315835 0.2360083,-0.5291667 0.5291667,-0.5291667 z"
     sodipodi:nodetypes="cccsssssc" />
  <path
     id="rect8140"
     style="opacity:1;fill:url(#linearGradient8425);fill-opacity:1;stroke-width:0.518136;stroke-linejoin:round"
     d="m 3.175,0.5291668 h 7.143751 l -1e-6,2.9104166 0.79375,1.0583333 3.175,0 V 15.875 c 0,0.295111 -0.236009,0.529167 -0.529167,0.529167 H 3.175 c -0.293159,0 -0.529167,-0.236009 -0.529167,-0.529167 V 1.0583337 c 0,-0.2931589 0.236008,-0.5291669 0.529167,-0.5291669 z"
     sodipodi:nodetypes="sccccssssss" />
  <path
     id="rect9905"
     style="opacity:0.3;fill:url(#linearGradient10455);fill-opacity:1;stroke-width:2;stroke-linejoin:round"
     d="M 10 59 L 10 60 C 10 61.108 10.892 62 12 62 L 52 62 C 53.108 62 54 61.108 54 60 L 54 59 C 54 60.108 53.108 61 52 61 L 12 61 C 10.892 61 10 60.108 10 59 z "
     transform="scale(0.26458334)" />
  <path
     id="rect5598"
     style="opacity:0.2;fill:url(#linearGradient6265);fill-opacity:1;stroke-width:0.529167;stroke-linejoin:round"
     d="M 10.444901,4.3115072 10.31875,3.4395834 14.2875,4.4979167 v 3.7041668 z"
     sodipodi:nodetypes="ccccc" />
  <path
     id="rect2607"
     style="fill:url(#linearGradient3380);fill-opacity:1;stroke-width:0.529167;stroke-linejoin:round"
     d="m 14.2875,4.4979167 -3.439583,-1e-7 c -0.293158,0 -0.529166,-0.2360083 -0.529166,-0.5291667 V 0.52916673 Z"
     sodipodi:nodetypes="csscc" />
  <path
     id="path862"
     style="font-size:1.67233px;line-height:1.25;font-family:Roboto;-inkscape-font-specification:Roboto;text-align:center;text-anchor:middle;stroke-width:0.158015;fill:#808080;fill-opacity:1"
     d="M 30.978516 51 C 30.525867 51 30.158934 51.117118 29.875 51.349609 C 29.593124 51.580047 29.451172 51.87072 29.451172 52.224609 C 29.451172 52.537355 29.566435 52.801653 29.796875 53.015625 C 30.029372 53.227538 30.400002 53.406643 30.908203 53.552734 C 31.313528 53.670001 31.593734 53.788758 31.748047 53.910156 C 31.90236 54.029496 31.978516 54.199777 31.978516 54.419922 C 31.978516 54.640067 31.895173 54.813835 31.728516 54.941406 C 31.561859 55.068978 31.322504 55.132813 31.009766 55.132812 C 30.674395 55.132813 30.406713 55.054809 30.205078 54.898438 C 30.005501 54.740012 29.904297 54.523542 29.904297 54.251953 L 29.308594 54.251953 C 29.308594 54.513247 29.381365 54.747368 29.525391 54.953125 C 29.671473 55.158875 29.87901 55.322074 30.146484 55.441406 C 30.413959 55.558698 30.701142 55.617187 31.009766 55.617188 C 31.485047 55.617188 31.864504 55.507166 32.148438 55.289062 C 32.432371 55.068913 32.574219 54.77824 32.574219 54.414062 C 32.574219 54.185686 32.522796 53.987077 32.419922 53.818359 C 32.319106 53.649644 32.163095 53.502459 31.951172 53.376953 C 31.741308 53.249381 31.448682 53.132263 31.074219 53.027344 C 30.701812 52.922399 30.437619 52.807146 30.28125 52.681641 C 30.126937 52.554089 30.050781 52.399928 30.050781 52.216797 C 30.050781 51.988423 30.130426 51.809212 30.292969 51.681641 C 30.457568 51.552028 30.686352 51.488281 30.978516 51.488281 C 31.293311 51.488281 31.538107 51.566285 31.710938 51.722656 C 31.883768 51.876967 31.96875 52.089739 31.96875 52.361328 L 32.564453 52.361328 C 32.564453 52.112371 32.498972 51.88174 32.365234 51.671875 C 32.233555 51.46201 32.045519 51.29902 31.802734 51.179688 C 31.562008 51.060355 31.287139 51 30.978516 51 z M 34.988281 51 C 34.62822 51 34.310756 51.0851 34.037109 51.255859 C 33.763462 51.424572 33.55254 51.66752 33.402344 51.984375 C 33.254204 52.301228 33.179688 52.668267 33.179688 53.085938 L 33.179688 53.517578 C 33.179687 54.155401 33.339292 54.666239 33.658203 55.046875 C 33.979172 55.427511 34.404714 55.617188 34.935547 55.617188 C 35.42523 55.617188 35.817107 55.487656 36.111328 55.230469 C 36.407608 54.971223 36.58312 54.604187 36.638672 54.128906 L 36.042969 54.128906 C 35.985359 54.499255 35.868351 54.759958 35.691406 54.910156 C 35.516519 55.058289 35.264745 55.132812 34.935547 55.132812 C 34.569313 55.132813 34.283769 54.98922 34.080078 54.701172 C 33.876387 54.413124 33.775391 54.024736 33.775391 53.537109 L 33.775391 53.101562 C 33.775391 52.585133 33.881724 52.188022 34.095703 51.908203 C 34.31174 51.628382 34.609703 51.488281 34.988281 51.488281 C 35.296905 51.488281 35.53626 51.568037 35.707031 51.728516 C 35.879861 51.888999 35.991532 52.147855 36.042969 52.505859 L 36.638672 52.505859 C 36.591349 52.034693 36.424768 51.665807 36.136719 51.400391 C 35.84867 51.132916 35.465619 51 34.988281 51 z M 14.017578 51.0625 L 14.017578 51.548828 L 15.458984 51.548828 L 15.458984 55.554688 L 16.046875 55.554688 L 16.046875 51.548828 L 17.492188 51.548828 L 17.492188 51.0625 L 14.017578 51.0625 z M 17.732422 51.0625 L 19.28125 53.878906 L 19.28125 55.554688 L 19.875 55.554688 L 19.875 53.878906 L 21.423828 51.0625 L 20.751953 51.0625 L 19.578125 53.318359 L 18.412109 51.0625 L 17.732422 51.0625 z M 22.003906 51.0625 L 22.003906 55.554688 L 22.597656 55.554688 L 22.597656 53.796875 L 23.65625 53.796875 C 24.164451 53.796875 24.55263 53.677917 24.824219 53.443359 C 25.097865 53.206748 25.236328 52.871735 25.236328 52.435547 C 25.236328 52.021986 25.096225 51.688511 24.816406 51.4375 C 24.538645 51.186489 24.15385 51.0625 23.662109 51.0625 L 22.003906 51.0625 z M 25.992188 51.0625 L 25.992188 55.554688 L 28.845703 55.554688 L 28.845703 55.070312 L 26.583984 55.070312 L 26.583984 53.478516 L 28.53125 53.478516 L 28.53125 52.994141 L 26.583984 52.994141 L 26.583984 51.548828 L 28.816406 51.548828 L 28.816406 51.0625 L 25.992188 51.0625 z M 37.445312 51.0625 L 37.445312 55.554688 L 38.041016 55.554688 L 38.041016 53.738281 L 39.095703 53.738281 L 40.070312 55.554688 L 40.707031 55.554688 L 40.707031 55.517578 L 39.650391 53.611328 C 39.919921 53.508444 40.131052 53.35233 40.28125 53.144531 C 40.433515 52.936725 40.509766 52.693881 40.509766 52.414062 C 40.509766 51.973745 40.373257 51.638628 40.099609 51.408203 C 39.828023 51.177753 39.437785 51.0625 38.931641 51.0625 L 37.445312 51.0625 z M 41.382812 51.0625 L 41.382812 55.554688 L 41.974609 55.554688 L 41.974609 51.0625 L 41.382812 51.0625 z M 43.058594 51.0625 L 43.058594 55.554688 L 43.650391 55.554688 L 43.650391 53.796875 L 44.708984 53.796875 C 45.217185 53.796875 45.607317 53.677917 45.878906 53.443359 C 46.152554 53.206748 46.289062 52.871735 46.289062 52.435547 C 46.289062 52.021986 46.148962 51.688511 45.869141 51.4375 C 45.591381 51.186489 45.206585 51.0625 44.714844 51.0625 L 43.058594 51.0625 z M 46.675781 51.0625 L 46.675781 51.548828 L 48.117188 51.548828 L 48.117188 55.554688 L 48.707031 55.554688 L 48.707031 51.548828 L 50.150391 51.548828 L 50.150391 51.0625 L 46.675781 51.0625 z M 22.597656 51.548828 L 23.695312 51.548828 C 23.989535 51.555001 24.221912 51.638349 24.390625 51.798828 C 24.559341 51.959312 24.642578 52.173932 24.642578 52.441406 C 24.642578 52.723281 24.559341 52.939645 24.390625 53.089844 C 24.221911 53.237976 23.978963 53.3125 23.662109 53.3125 L 22.597656 53.3125 L 22.597656 51.548828 z M 38.041016 51.548828 L 38.947266 51.548828 C 39.260016 51.550894 39.499477 51.627258 39.664062 51.775391 C 39.830714 51.92353 39.914062 52.1363 39.914062 52.414062 C 39.914062 52.669181 39.825282 52.873126 39.650391 53.025391 C 39.477563 53.177655 39.245395 53.253906 38.951172 53.253906 L 38.041016 53.253906 L 38.041016 51.548828 z M 43.650391 51.548828 L 44.75 51.548828 C 45.044219 51.555001 45.274641 51.638349 45.443359 51.798828 C 45.612077 51.959312 45.697266 52.173932 45.697266 52.441406 C 45.697266 52.723281 45.612077 52.939645 45.443359 53.089844 C 45.274646 53.237976 45.031699 53.3125 44.714844 53.3125 L 43.650391 53.3125 L 43.650391 51.548828 z "
     transform="scale(0.26458334)" />
  <path
     id="path10474"
     style="font-weight:bold;font-size:6.60869px;line-height:1.25;font-family:'나눔스퀘어';-inkscape-font-specification:'나눔스퀘어 Bold';stroke-width:0.624446;fill:url(#linearGradient11564);fill-opacity:1"
     d="M 39.730469 24 C 38.698056 24 37.790448 24.140747 37.007812 24.423828 C 36.241829 24.690257 35.600191 25.048448 35.083984 25.498047 C 34.567778 25.947646 34.185325 26.464062 33.935547 27.046875 C 33.68577 27.613037 33.560547 28.204195 33.560547 28.820312 L 33.560547 29.269531 C 33.560547 30.08547 33.710033 30.777588 34.009766 31.34375 C 34.32615 31.89326 34.752298 32.359196 35.285156 32.742188 C 35.818014 33.108528 36.450914 33.416238 37.183594 33.666016 C 37.916275 33.899141 38.707398 34.107846 39.556641 34.291016 C 40.28932 34.440882 40.904742 34.614631 41.404297 34.814453 C 41.903852 34.997623 42.312522 35.206328 42.628906 35.439453 C 42.94529 35.672579 43.169521 35.938549 43.302734 36.238281 C 43.43595 36.538014 43.501953 36.889419 43.501953 37.289062 L 43.501953 37.6875 C 43.501953 38.403527 43.176765 39.020902 42.527344 39.537109 C 41.894575 40.053315 40.93844 40.310547 39.65625 40.310547 C 39.273258 40.310547 38.847112 40.260062 38.380859 40.160156 C 37.931262 40.060253 37.482802 39.928245 37.033203 39.761719 C 36.583604 39.578545 36.141932 39.36984 35.708984 39.136719 C 35.276037 38.903592 34.893583 38.661886 34.560547 38.412109 L 33.310547 40.435547 C 34.059879 41.03501 34.967487 41.533949 36.033203 41.933594 C 37.115571 42.349889 38.297888 42.558594 39.580078 42.558594 C 40.495926 42.558594 41.346269 42.450841 42.128906 42.234375 C 42.928193 42.034554 43.609621 41.724889 44.175781 41.308594 C 44.741944 40.875646 45.183616 40.352447 45.5 39.736328 C 45.833037 39.120212 46 38.395091 46 37.5625 L 46 37.113281 C 46 36.497164 45.900983 35.930269 45.701172 35.414062 C 45.518001 34.897856 45.201553 34.43192 44.751953 34.015625 C 44.302356 33.599329 43.702457 33.234353 42.953125 32.917969 C 42.220443 32.584932 41.295359 32.292745 40.179688 32.042969 C 39.513616 31.893102 38.922458 31.743616 38.40625 31.59375 C 37.890045 31.427232 37.45711 31.236005 37.107422 31.019531 C 36.757735 30.803058 36.491765 30.552612 36.308594 30.269531 C 36.125423 29.969799 36.033203 29.611608 36.033203 29.195312 L 36.033203 28.794922 C 36.033203 28.078894 36.36713 27.472211 37.033203 26.972656 C 37.715926 26.473102 38.623536 26.222656 39.755859 26.222656 C 40.588451 26.222656 41.346573 26.323616 42.029297 26.523438 C 42.712021 26.723259 43.384708 27.046495 44.050781 27.496094 L 45.226562 25.574219 C 44.460581 25.058013 43.627716 24.66682 42.728516 24.400391 C 41.829318 24.133962 40.829487 24 39.730469 24 z M 18 24.275391 L 18 26.398438 L 23.494141 26.398438 L 23.494141 42.283203 L 25.96875 42.283203 L 25.96875 26.398438 L 31.462891 26.398438 L 31.462891 24.275391 L 18 24.275391 z "
     transform="scale(0.26458334)" />
  <path
     id="path10474-3"
     style="font-weight:bold;font-size:6.60869px;line-height:1.25;font-family:'나눔스퀘어';-inkscape-font-specification:'나눔스퀘어 Bold';opacity:0.3;stroke-width:0.624446;fill-opacity:1;fill:url(#linearGradient10652)"
     d="M 39.755859 26.222656 C 38.623539 26.222656 37.715926 26.473102 37.033203 26.972656 C 36.367126 27.472211 36.033203 28.078894 36.033203 28.794922 L 36.033203 29.195312 C 36.033203 29.303674 36.04026 29.407332 36.052734 29.507812 C 36.131453 28.915316 36.458086 28.403992 37.033203 27.972656 C 37.715926 27.473102 38.623539 27.222656 39.755859 27.222656 C 40.588451 27.222656 41.346574 27.323614 42.029297 27.523438 C 42.712023 27.723257 43.384708 28.046495 44.050781 28.496094 L 45.226562 26.574219 C 45.082199 26.47693 44.934268 26.385285 44.785156 26.296875 L 44.050781 27.496094 C 43.384711 27.046495 42.712023 26.723257 42.029297 26.523438 C 41.346578 26.323614 40.588451 26.222656 39.755859 26.222656 z M 18 26.398438 L 18 27.398438 L 23.494141 27.398438 L 23.494141 26.398438 L 18 26.398438 z M 25.96875 26.398438 L 25.96875 27.398438 L 31.462891 27.398438 L 31.462891 26.398438 L 25.96875 26.398438 z M 33.568359 29.570312 C 33.563743 29.653057 33.560547 29.736647 33.560547 29.820312 L 33.560547 30.269531 C 33.560547 31.08547 33.710026 31.777588 34.009766 32.34375 C 34.32615 32.89326 34.7523 33.359196 35.285156 33.742188 C 35.818013 34.108526 36.450913 34.416238 37.183594 34.666016 C 37.916275 34.899141 38.707396 35.107846 39.556641 35.291016 C 40.289317 35.440881 40.904742 35.61463 41.404297 35.814453 C 41.903852 35.997624 42.312522 36.206328 42.628906 36.439453 C 42.94529 36.672578 43.169525 36.938549 43.302734 37.238281 C 43.397739 37.45202 43.459253 37.691985 43.486328 37.957031 C 43.496945 37.868766 43.501953 37.778992 43.501953 37.6875 L 43.501953 37.289062 C 43.501953 36.889419 43.435963 36.538013 43.302734 36.238281 C 43.169525 35.938549 42.94529 35.672578 42.628906 35.439453 C 42.312522 35.206328 41.903852 34.997624 41.404297 34.814453 C 40.904742 34.61463 40.289317 34.440881 39.556641 34.291016 C 38.707396 34.107846 37.916275 33.899141 37.183594 33.666016 C 36.450913 33.416238 35.818013 33.108526 35.285156 32.742188 C 34.7523 32.359196 34.32615 31.89326 34.009766 31.34375 C 33.747494 30.848358 33.601069 30.257144 33.568359 29.570312 z M 45.992188 37.839844 C 45.958713 38.556725 45.795395 39.189877 45.5 39.736328 C 45.18362 40.352448 44.741943 40.875645 44.175781 41.308594 C 43.609623 41.724886 42.928193 42.034551 42.128906 42.234375 C 41.346268 42.450829 40.495926 42.558594 39.580078 42.558594 C 38.297889 42.558594 37.115569 42.34989 36.033203 41.933594 C 35.159971 41.606132 34.39521 41.21147 33.734375 40.75 L 33.310547 41.435547 C 34.05988 42.03501 34.967486 42.53395 36.033203 42.933594 C 37.115569 43.34989 38.297889 43.558594 39.580078 43.558594 C 40.495926 43.558594 41.346268 43.450829 42.128906 43.234375 C 42.928193 43.034551 43.609623 42.724886 44.175781 42.308594 C 44.741943 41.875645 45.18362 41.352448 45.5 40.736328 C 45.833052 40.120212 46 39.395088 46 38.5625 L 46 38.113281 C 46 38.020845 45.996651 37.930059 45.992188 37.839844 z M 23.494141 42.283203 L 23.494141 43.283203 L 25.96875 43.283203 L 25.96875 42.283203 L 23.494141 42.283203 z "
     transform="scale(0.26458334)" />
</svg>
