<?xml version="1.0" encoding="UTF-8" standalone="no"?>
<!-- Created with Inkscape (http://www.inkscape.org/) -->

<svg
   width="64"
   height="64"
   viewBox="0 0 16.933333 16.933334"
   version="1.1"
   id="svg5"
   inkscape:version="1.1.1 (3bf5ae0d25, 2021-09-20, custom)"
   sodipodi:docname="text-x-haskell.svg"
   xmlns:inkscape="http://www.inkscape.org/namespaces/inkscape"
   xmlns:sodipodi="http://sodipodi.sourceforge.net/DTD/sodipodi-0.dtd"
   xmlns:xlink="http://www.w3.org/1999/xlink"
   xmlns="http://www.w3.org/2000/svg"
   xmlns:svg="http://www.w3.org/2000/svg">
  <sodipodi:namedview
     id="namedview7"
     pagecolor="#ffffff"
     bordercolor="#666666"
     borderopacity="1.0"
     inkscape:pageshadow="2"
     inkscape:pageopacity="0.0"
     inkscape:pagecheckerboard="0"
     inkscape:document-units="px"
     showgrid="false"
     units="px"
     height="64px"
     inkscape:zoom="12.484375"
     inkscape:cx="27.914894"
     inkscape:cy="35.724656"
     inkscape:window-width="1541"
     inkscape:window-height="947"
     inkscape:window-x="23"
     inkscape:window-y="15"
     inkscape:window-maximized="0"
     inkscape:current-layer="svg5" />
  <defs
     id="defs2">
    <linearGradient
       inkscape:collect="always"
       id="linearGradient3221">
      <stop
         style="stop-color:#7839b7;stop-opacity:1;"
         offset="0"
         id="stop3217" />
      <stop
         style="stop-color:#542880;stop-opacity:0.99607843"
         offset="1"
         id="stop3219" />
    </linearGradient>
    <linearGradient
       inkscape:collect="always"
       id="linearGradient3021">
      <stop
         style="stop-color:#8c59b9;stop-opacity:1;"
         offset="0"
         id="stop3017" />
      <stop
         style="stop-color:#6e4097;stop-opacity:0.99927169"
         offset="1"
         id="stop3019" />
    </linearGradient>
    <linearGradient
       inkscape:collect="always"
       id="linearGradient2727">
      <stop
         style="stop-color:#8f76e4;stop-opacity:1;"
         offset="0"
         id="stop2723" />
      <stop
         style="stop-color:#5d39d8;stop-opacity:1"
         offset="1"
         id="stop2725" />
    </linearGradient>
    <linearGradient
       inkscape:collect="always"
       id="linearGradient10453">
      <stop
         style="stop-color:#666666;stop-opacity:1"
         offset="0"
         id="stop10449" />
      <stop
         style="stop-color:#666666;stop-opacity:0"
         offset="1"
         id="stop10451" />
    </linearGradient>
    <linearGradient
       inkscape:collect="always"
       id="linearGradient8423">
      <stop
         style="stop-color:#fcfcfc;stop-opacity:1"
         offset="0"
         id="stop8419" />
      <stop
         style="stop-color:#ffffff;stop-opacity:0;"
         offset="1"
         id="stop8421" />
    </linearGradient>
    <linearGradient
       inkscape:collect="always"
       id="linearGradient6263">
      <stop
         style="stop-color:#000000;stop-opacity:1;"
         offset="0"
         id="stop6259" />
      <stop
         style="stop-color:#000000;stop-opacity:0;"
         offset="1"
         id="stop6261" />
    </linearGradient>
    <linearGradient
       inkscape:collect="always"
       id="linearGradient3378">
      <stop
         style="stop-color:#b0b0b0;stop-opacity:1"
         offset="0"
         id="stop3374" />
      <stop
         style="stop-color:#fcfcfc;stop-opacity:1"
         offset="1"
         id="stop3376" />
    </linearGradient>
    <linearGradient
       inkscape:collect="always"
       xlink:href="#linearGradient3378"
       id="linearGradient3380"
       x1="14.942825"
       y1="1.1138821"
       x2="11.503234"
       y2="4.3115072"
       gradientUnits="userSpaceOnUse"
       gradientTransform="translate(-0.5291663,-0.52916667)" />
    <linearGradient
       inkscape:collect="always"
       xlink:href="#linearGradient6263"
       id="linearGradient6265"
       x1="11.90625"
       y1="2.3812501"
       x2="12.170834"
       y2="7.1437502"
       gradientUnits="userSpaceOnUse"
       gradientTransform="translate(-0.52916663,0.52916673)" />
    <linearGradient
       inkscape:collect="always"
       xlink:href="#linearGradient8423"
       id="linearGradient8425"
       x1="13.692527"
       y1="11.622045"
       x2="1.6077259"
       y2="-0.71580184"
       gradientUnits="userSpaceOnUse" />
    <linearGradient
       inkscape:collect="always"
       xlink:href="#linearGradient10453"
       id="linearGradient10455"
       x1="10"
       y1="72.5"
       x2="58"
       y2="32.5"
       gradientUnits="userSpaceOnUse" />
    <linearGradient
       inkscape:collect="always"
       xlink:href="#linearGradient2727"
       id="linearGradient2729"
       x1="46.484375"
       y1="31"
       x2="46.583984"
       y2="45"
       gradientUnits="userSpaceOnUse" />
    <linearGradient
       inkscape:collect="always"
       xlink:href="#linearGradient3021"
       id="linearGradient3023"
       x1="8.8196115"
       y1="8.2020607"
       x2="8.8636656"
       y2="11.906227"
       gradientUnits="userSpaceOnUse" />
    <linearGradient
       inkscape:collect="always"
       xlink:href="#linearGradient3221"
       id="linearGradient3223"
       x1="4.2333336"
       y1="8.4666672"
       x2="4.2333336"
       y2="12.170787"
       gradientUnits="userSpaceOnUse" />
  </defs>
  <path
     id="rect1068"
     style="fill:#e5e5e5;fill-opacity:1;stroke-width:0.529167;stroke-linejoin:round"
     d="m 3.175,0.5291667 7.143751,3e-8 3.968749,3.96874997 1e-6,11.3770833 c 0,0.293158 -0.236009,0.529167 -0.529167,0.529167 H 3.175 c -0.2931584,0 -0.5291667,-0.236009 -0.5291667,-0.529167 V 1.0583334 c 0,-0.29315835 0.2360083,-0.5291667 0.5291667,-0.5291667 z"
     sodipodi:nodetypes="cccsssssc" />
  <path
     id="rect8140"
     style="opacity:1;fill:url(#linearGradient8425);fill-opacity:1;stroke-width:0.518136;stroke-linejoin:round"
     d="m 3.175,0.5291668 h 7.143751 l -1e-6,2.9104166 0.79375,1.0583333 3.175,0 V 15.875 c 0,0.295111 -0.236009,0.529167 -0.529167,0.529167 H 3.175 c -0.293159,0 -0.529167,-0.236009 -0.529167,-0.529167 V 1.0583337 c 0,-0.2931589 0.236008,-0.5291669 0.529167,-0.5291669 z"
     sodipodi:nodetypes="sccccssssss" />
  <path
     id="rect9905"
     style="opacity:0.3;fill:url(#linearGradient10455);fill-opacity:1;stroke-width:2;stroke-linejoin:round"
     d="M 10 59 L 10 60 C 10 61.108 10.892 62 12 62 L 52 62 C 53.108 62 54 61.108 54 60 L 54 59 C 54 60.108 53.108 61 52 61 L 12 61 C 10.892 61 10 60.108 10 59 z "
     transform="scale(0.26458334)" />
  <path
     id="rect5598"
     style="opacity:0.2;fill:url(#linearGradient6265);fill-opacity:1;stroke-width:0.529167;stroke-linejoin:round"
     d="M 10.444901,4.3115072 10.31875,3.4395834 14.2875,4.4979167 v 3.7041668 z"
     sodipodi:nodetypes="ccccc" />
  <path
     id="rect2607"
     style="fill:url(#linearGradient3380);fill-opacity:1;stroke-width:0.529167;stroke-linejoin:round"
     d="m 14.2875,4.4979167 -3.439583,-1e-7 c -0.293158,0 -0.529166,-0.2360083 -0.529166,-0.5291667 V 0.52916673 Z"
     sodipodi:nodetypes="csscc" />
  <path
     id="path3704"
     style="font-size:1.67233px;line-height:1.25;font-family:Roboto;-inkscape-font-specification:Roboto;text-align:center;text-anchor:middle;stroke-width:0.158015;fill:#808080;fill-opacity:1"
     d="M 29.287109 51 C 28.834461 51 28.465575 51.117118 28.181641 51.349609 C 27.899764 51.580047 27.757812 51.87072 27.757812 52.224609 C 27.757812 52.537355 27.873075 52.801653 28.103516 53.015625 C 28.336012 53.227538 28.706643 53.406643 29.214844 53.552734 C 29.620171 53.670001 29.900377 53.788758 30.054688 53.910156 C 30.209001 54.029496 30.285156 54.199777 30.285156 54.419922 C 30.285156 54.640067 30.201813 54.813835 30.035156 54.941406 C 29.868499 55.068978 29.629145 55.132813 29.316406 55.132812 C 28.981036 55.132813 28.713354 55.054809 28.511719 54.898438 C 28.312142 54.740012 28.212891 54.523542 28.212891 54.251953 L 27.617188 54.251953 C 27.617187 54.513247 27.688006 54.747368 27.832031 54.953125 C 27.978113 55.158875 28.185651 55.322074 28.453125 55.441406 C 28.720599 55.558698 29.007782 55.617187 29.316406 55.617188 C 29.791687 55.617188 30.171144 55.507166 30.455078 55.289062 C 30.739012 55.068913 30.880859 54.77824 30.880859 54.414062 C 30.880859 54.185686 30.829436 53.987077 30.726562 53.818359 C 30.625744 53.649644 30.469733 53.502459 30.257812 53.376953 C 30.047948 53.249381 29.755323 53.132263 29.380859 53.027344 C 29.008453 52.922399 28.74426 52.807146 28.587891 52.681641 C 28.433578 52.554089 28.357422 52.399928 28.357422 52.216797 C 28.357422 51.988423 28.43902 51.809212 28.601562 51.681641 C 28.766162 51.552028 28.994945 51.488281 29.287109 51.488281 C 29.601905 51.488281 29.844748 51.566285 30.017578 51.722656 C 30.190408 51.876967 30.277344 52.089739 30.277344 52.361328 L 30.873047 52.361328 C 30.873047 52.112371 30.805612 51.88174 30.671875 51.671875 C 30.540196 51.46201 30.352159 51.29902 30.109375 51.179688 C 29.868648 51.060355 29.595733 51 29.287109 51 z M 19.207031 51.0625 L 19.207031 55.554688 L 19.798828 55.554688 L 19.798828 53.478516 L 22.064453 53.478516 L 22.064453 55.554688 L 22.660156 55.554688 L 22.660156 51.0625 L 22.064453 51.0625 L 22.064453 52.994141 L 19.798828 52.994141 L 19.798828 51.0625 L 19.207031 51.0625 z M 25.048828 51.0625 L 23.332031 55.554688 L 23.943359 55.554688 L 24.367188 54.382812 L 26.25 54.382812 L 26.677734 55.554688 L 27.287109 55.554688 L 25.566406 51.0625 L 25.048828 51.0625 z M 31.640625 51.0625 L 31.640625 55.554688 L 32.234375 55.554688 L 32.234375 54.037109 L 32.783203 53.466797 L 34.375 55.554688 L 35.085938 55.554688 L 33.177734 53.046875 L 34.947266 51.0625 L 34.230469 51.0625 L 32.234375 53.283203 L 32.234375 51.0625 L 31.640625 51.0625 z M 35.603516 51.0625 L 35.603516 55.554688 L 38.458984 55.554688 L 38.458984 55.070312 L 36.195312 55.070312 L 36.195312 53.478516 L 38.144531 53.478516 L 38.144531 52.994141 L 36.195312 52.994141 L 36.195312 51.548828 L 38.427734 51.548828 L 38.427734 51.0625 L 35.603516 51.0625 z M 39.195312 51.0625 L 39.195312 55.554688 L 41.921875 55.554688 L 41.921875 55.070312 L 39.791016 55.070312 L 39.791016 51.0625 L 39.195312 51.0625 z M 42.597656 51.0625 L 42.597656 55.554688 L 45.322266 55.554688 L 45.322266 55.070312 L 43.193359 55.070312 L 43.193359 51.0625 L 42.597656 51.0625 z M 25.308594 51.792969 L 26.074219 53.894531 L 24.544922 53.894531 L 25.308594 51.792969 z "
     transform="scale(0.26458334)" />
  <text
     xml:space="preserve"
     style="font-size:10.5833px;line-height:1.25;font-family:'Noto Serif';-inkscape-font-specification:'Noto Serif';stroke-width:0.264583"
     x="11.210568"
     y="8.940918"
     id="text80811"><tspan
       sodipodi:role="line"
       id="tspan80809"
       style="stroke-width:0.264583" /></text>
  <path
     id="rect889"
     style="fill:url(#linearGradient3223);stroke-width:0.177508;stroke-linecap:round;stroke-linejoin:round;fill-opacity:1"
     d="m 4.2333334,5.8208334 1.4551965,1e-7 1.940262,2.9103935 -1.940262,2.910393 H 4.2333335 L 6.1735959,8.731227 Z"
     sodipodi:nodetypes="ccccccc" />
  <path
     id="rect1203"
     style="fill:url(#linearGradient3023);stroke-width:0.177508;stroke-linecap:round;stroke-linejoin:round;fill-opacity:1"
     d="m 6.1737779,5.8208334 1.455196,1e-7 3.8805251,5.8207865 H 10.054302 L 8.8416379,9.822624 7.6289739,11.64162 h -1.455196 l 1.940262,-2.910393 z"
     sodipodi:nodetypes="ccccccccc" />
  <path
     id="rect1570"
     style="fill:url(#linearGradient2729);fill-opacity:1;stroke-width:0.670896;stroke-linecap:round;stroke-linejoin:round"
     d="M 34.484375 28 L 37.150391 32 L 46.583984 32 L 46.583984 28 L 34.484375 28 z M 38.484375 34 L 41.150391 38 L 46.583984 38 L 46.583984 34 L 38.484375 34 z "
     transform="scale(0.26458334)" />
</svg>
