<?xml version="1.0" encoding="UTF-8" standalone="no"?>
<!-- Created with Inkscape (http://www.inkscape.org/) -->

<svg
   width="64"
   height="64"
   viewBox="0 0 16.933333 16.933334"
   version="1.1"
   id="svg5"
   inkscape:version="1.1.1 (3bf5ae0d25, 2021-09-20, custom)"
   sodipodi:docname="text-x-sass.svg"
   xmlns:inkscape="http://www.inkscape.org/namespaces/inkscape"
   xmlns:sodipodi="http://sodipodi.sourceforge.net/DTD/sodipodi-0.dtd"
   xmlns:xlink="http://www.w3.org/1999/xlink"
   xmlns="http://www.w3.org/2000/svg"
   xmlns:svg="http://www.w3.org/2000/svg">
  <sodipodi:namedview
     id="namedview7"
     pagecolor="#ffffff"
     bordercolor="#666666"
     borderopacity="1.0"
     inkscape:pageshadow="2"
     inkscape:pageopacity="0.0"
     inkscape:pagecheckerboard="0"
     inkscape:document-units="px"
     showgrid="false"
     units="px"
     height="64px"
     inkscape:zoom="10.015625"
     inkscape:cx="32"
     inkscape:cy="32"
     inkscape:window-width="1541"
     inkscape:window-height="947"
     inkscape:window-x="23"
     inkscape:window-y="15"
     inkscape:window-maximized="0"
     inkscape:current-layer="svg5" />
  <defs
     id="defs2">
    <linearGradient
       inkscape:collect="always"
       id="linearGradient10453">
      <stop
         style="stop-color:#666666;stop-opacity:1"
         offset="0"
         id="stop10449" />
      <stop
         style="stop-color:#666666;stop-opacity:0"
         offset="1"
         id="stop10451" />
    </linearGradient>
    <linearGradient
       inkscape:collect="always"
       id="linearGradient8423">
      <stop
         style="stop-color:#fcfcfc;stop-opacity:1"
         offset="0"
         id="stop8419" />
      <stop
         style="stop-color:#ffffff;stop-opacity:0;"
         offset="1"
         id="stop8421" />
    </linearGradient>
    <linearGradient
       inkscape:collect="always"
       id="linearGradient6263">
      <stop
         style="stop-color:#000000;stop-opacity:1;"
         offset="0"
         id="stop6259" />
      <stop
         style="stop-color:#000000;stop-opacity:0;"
         offset="1"
         id="stop6261" />
    </linearGradient>
    <linearGradient
       inkscape:collect="always"
       id="linearGradient3378">
      <stop
         style="stop-color:#b0b0b0;stop-opacity:1"
         offset="0"
         id="stop3374" />
      <stop
         style="stop-color:#fcfcfc;stop-opacity:1"
         offset="1"
         id="stop3376" />
    </linearGradient>
    <linearGradient
       inkscape:collect="always"
       xlink:href="#linearGradient3378"
       id="linearGradient3380"
       x1="14.942825"
       y1="1.1138821"
       x2="11.503234"
       y2="4.3115072"
       gradientUnits="userSpaceOnUse"
       gradientTransform="translate(-0.5291663,-0.52916667)" />
    <linearGradient
       inkscape:collect="always"
       xlink:href="#linearGradient6263"
       id="linearGradient6265"
       x1="11.90625"
       y1="2.3812501"
       x2="12.170834"
       y2="7.1437502"
       gradientUnits="userSpaceOnUse"
       gradientTransform="translate(-0.52916663,0.52916673)" />
    <linearGradient
       inkscape:collect="always"
       xlink:href="#linearGradient8423"
       id="linearGradient8425"
       x1="13.692527"
       y1="11.622045"
       x2="1.6077259"
       y2="-0.71580184"
       gradientUnits="userSpaceOnUse" />
    <linearGradient
       inkscape:collect="always"
       xlink:href="#linearGradient10453"
       id="linearGradient10455"
       x1="10"
       y1="72.5"
       x2="58"
       y2="32.5"
       gradientUnits="userSpaceOnUse" />
  </defs>
  <path
     id="rect1068"
     style="fill:#e5e5e5;fill-opacity:1;stroke-width:0.529167;stroke-linejoin:round"
     d="m 3.175,0.5291667 7.143751,3e-8 3.968749,3.96874997 1e-6,11.3770833 c 0,0.293158 -0.236009,0.529167 -0.529167,0.529167 H 3.175 c -0.2931584,0 -0.5291667,-0.236009 -0.5291667,-0.529167 V 1.0583334 c 0,-0.29315835 0.2360083,-0.5291667 0.5291667,-0.5291667 z"
     sodipodi:nodetypes="cccsssssc" />
  <path
     id="rect8140"
     style="opacity:1;fill:url(#linearGradient8425);fill-opacity:1;stroke-width:0.518136;stroke-linejoin:round"
     d="m 3.175,0.5291668 h 7.143751 l -1e-6,2.9104166 0.79375,1.0583333 3.175,0 V 15.875 c 0,0.295111 -0.236009,0.529167 -0.529167,0.529167 H 3.175 c -0.293159,0 -0.529167,-0.236009 -0.529167,-0.529167 V 1.0583337 c 0,-0.2931589 0.236008,-0.5291669 0.529167,-0.5291669 z"
     sodipodi:nodetypes="sccccssssss" />
  <path
     id="rect9905"
     style="opacity:0.3;fill:url(#linearGradient10455);fill-opacity:1;stroke-width:2;stroke-linejoin:round"
     d="M 10 59 L 10 60 C 10 61.108 10.892 62 12 62 L 52 62 C 53.108 62 54 61.108 54 60 L 54 59 C 54 60.108 53.108 61 52 61 L 12 61 C 10.892 61 10 60.108 10 59 z "
     transform="scale(0.26458334)" />
  <path
     id="rect5598"
     style="opacity:0.2;fill:url(#linearGradient6265);fill-opacity:1;stroke-width:0.529167;stroke-linejoin:round"
     d="M 10.444901,4.3115072 10.31875,3.4395834 14.2875,4.4979167 v 3.7041668 z"
     sodipodi:nodetypes="ccccc" />
  <path
     id="rect2607"
     style="fill:url(#linearGradient3380);fill-opacity:1;stroke-width:0.529167;stroke-linejoin:round"
     d="m 14.2875,4.4979167 -3.439583,-1e-7 c -0.293158,0 -0.529166,-0.2360083 -0.529166,-0.5291667 V 0.52916673 Z"
     sodipodi:nodetypes="csscc" />
  <path
     id="path864"
     style="font-size:1.67233px;line-height:1.25;font-family:Roboto;-inkscape-font-specification:Roboto;text-align:center;text-anchor:middle;stroke-width:0.158015;fill:#808080;fill-opacity:1"
     d="M 26.310547 51 C 25.857899 51 25.490965 51.117118 25.207031 51.349609 C 24.925155 51.580047 24.783203 51.87072 24.783203 52.224609 C 24.783203 52.537355 24.898466 52.801653 25.128906 53.015625 C 25.361403 53.227538 25.732034 53.406643 26.240234 53.552734 C 26.645559 53.670001 26.925765 53.788758 27.080078 53.910156 C 27.234391 54.029496 27.310547 54.199777 27.310547 54.419922 C 27.310547 54.640067 27.227204 54.813835 27.060547 54.941406 C 26.89389 55.068978 26.654536 55.132813 26.341797 55.132812 C 26.006427 55.132813 25.738745 55.054809 25.537109 54.898438 C 25.337533 54.740012 25.236328 54.523542 25.236328 54.251953 L 24.640625 54.251953 C 24.640625 54.513247 24.713397 54.747368 24.857422 54.953125 C 25.003504 55.158875 25.211041 55.322074 25.478516 55.441406 C 25.74599 55.558698 26.033173 55.617187 26.341797 55.617188 C 26.817078 55.617188 27.196535 55.507166 27.480469 55.289062 C 27.764403 55.068913 27.90625 54.77824 27.90625 54.414062 C 27.90625 54.185686 27.854827 53.987077 27.751953 53.818359 C 27.651135 53.649644 27.495124 53.502459 27.283203 53.376953 C 27.073339 53.249381 26.780713 53.132263 26.40625 53.027344 C 26.033843 52.922399 25.76965 52.807146 25.613281 52.681641 C 25.458971 52.554089 25.382812 52.399928 25.382812 52.216797 C 25.382813 51.988423 25.462458 51.809212 25.625 51.681641 C 25.789599 51.552028 26.018383 51.488281 26.310547 51.488281 C 26.625342 51.488281 26.870139 51.566285 27.042969 51.722656 C 27.215799 51.876967 27.300781 52.089739 27.300781 52.361328 L 27.896484 52.361328 C 27.896484 52.112371 27.831003 51.88174 27.697266 51.671875 C 27.565586 51.46201 27.37755 51.29902 27.134766 51.179688 C 26.894039 51.060355 26.619171 51 26.310547 51 z M 34.183594 51 C 33.730945 51 33.364012 51.117118 33.080078 51.349609 C 32.798202 51.580047 32.65625 51.87072 32.65625 52.224609 C 32.65625 52.537355 32.771513 52.801653 33.001953 53.015625 C 33.23445 53.227538 33.60508 53.406643 34.113281 53.552734 C 34.518606 53.670001 34.798812 53.788758 34.953125 53.910156 C 35.107438 54.029496 35.183594 54.199777 35.183594 54.419922 C 35.183594 54.640067 35.100251 54.813835 34.933594 54.941406 C 34.766937 55.068978 34.527583 55.132813 34.214844 55.132812 C 33.879473 55.132813 33.611792 55.054809 33.410156 54.898438 C 33.21058 54.740012 33.109375 54.523542 33.109375 54.251953 L 32.513672 54.251953 C 32.513672 54.513247 32.586444 54.747368 32.730469 54.953125 C 32.876551 55.158875 33.084089 55.322074 33.351562 55.441406 C 33.619037 55.558698 33.90622 55.617187 34.214844 55.617188 C 34.690125 55.617188 35.069582 55.507166 35.353516 55.289062 C 35.63745 55.068913 35.779297 54.77824 35.779297 54.414062 C 35.779297 54.185686 35.727874 53.987077 35.625 53.818359 C 35.524182 53.649644 35.368171 53.502459 35.15625 53.376953 C 34.946386 53.249381 34.653761 53.132263 34.279297 53.027344 C 33.90689 52.922399 33.642697 52.807146 33.486328 52.681641 C 33.332015 52.554089 33.255859 52.399928 33.255859 52.216797 C 33.255859 51.988423 33.335505 51.809212 33.498047 51.681641 C 33.662646 51.552028 33.89143 51.488281 34.183594 51.488281 C 34.498389 51.488281 34.743185 51.566285 34.916016 51.722656 C 35.088846 51.876967 35.173828 52.089739 35.173828 52.361328 L 35.769531 52.361328 C 35.769531 52.112371 35.70405 51.88174 35.570312 51.671875 C 35.438633 51.46201 35.250597 51.29902 35.007812 51.179688 C 34.767086 51.060355 34.492218 51 34.183594 51 z M 37.933594 51 C 37.480944 51 37.112059 51.117118 36.828125 51.349609 C 36.546248 51.580047 36.40625 51.87072 36.40625 52.224609 C 36.40625 52.537355 36.521513 52.801653 36.751953 53.015625 C 36.98445 53.227538 37.35508 53.406643 37.863281 53.552734 C 38.268613 53.670001 38.548819 53.788758 38.703125 53.910156 C 38.857431 54.029496 38.933594 54.199777 38.933594 54.419922 C 38.933594 54.640067 38.850246 54.813835 38.683594 54.941406 C 38.516937 55.068978 38.277585 55.132813 37.964844 55.132812 C 37.629474 55.132813 37.359838 55.054809 37.158203 54.898438 C 36.958626 54.740012 36.859375 54.523542 36.859375 54.251953 L 36.263672 54.251953 C 36.263672 54.513247 36.336444 54.747368 36.480469 54.953125 C 36.626551 55.158875 36.832135 55.322074 37.099609 55.441406 C 37.367084 55.558698 37.656221 55.617187 37.964844 55.617188 C 38.440127 55.617188 38.819582 55.507166 39.103516 55.289062 C 39.387449 55.068913 39.529297 54.77824 39.529297 54.414062 C 39.529297 54.185686 39.477879 53.987077 39.375 53.818359 C 39.274192 53.649644 39.118181 53.502459 38.90625 53.376953 C 38.696385 53.249381 38.403762 53.132263 38.029297 53.027344 C 37.656891 52.922399 37.392697 52.807146 37.236328 52.681641 C 37.082015 52.554089 37.003906 52.399928 37.003906 52.216797 C 37.003906 51.988423 37.085505 51.809212 37.248047 51.681641 C 37.412646 51.552028 37.641428 51.488281 37.933594 51.488281 C 38.248393 51.488281 38.49319 51.566285 38.666016 51.722656 C 38.838841 51.876967 38.923828 52.089739 38.923828 52.361328 L 39.519531 52.361328 C 39.519531 52.112371 39.454057 51.88174 39.320312 51.671875 C 39.188619 51.46201 39.000584 51.29902 38.757812 51.179688 C 38.517087 51.060355 38.242217 51 37.933594 51 z M 29.947266 51.0625 L 28.230469 55.554688 L 28.841797 55.554688 L 29.263672 54.382812 L 31.146484 54.382812 L 31.576172 55.554688 L 32.183594 55.554688 L 30.464844 51.0625 L 29.947266 51.0625 z M 30.205078 51.792969 L 30.970703 53.894531 L 29.443359 53.894531 L 30.205078 51.792969 z "
     transform="scale(0.26458334)" />
</svg>
