<?xml version="1.0" encoding="UTF-8" standalone="no"?>
<!-- Created with Inkscape (http://www.inkscape.org/) -->

<svg
   width="64"
   height="64"
   viewBox="0 0 16.933333 16.933334"
   version="1.1"
   id="svg5"
   inkscape:version="1.1.1 (3bf5ae0d25, 2021-09-20, custom)"
   sodipodi:docname="text-x-rust.svg"
   xmlns:inkscape="http://www.inkscape.org/namespaces/inkscape"
   xmlns:sodipodi="http://sodipodi.sourceforge.net/DTD/sodipodi-0.dtd"
   xmlns:xlink="http://www.w3.org/1999/xlink"
   xmlns="http://www.w3.org/2000/svg"
   xmlns:svg="http://www.w3.org/2000/svg">
  <sodipodi:namedview
     id="namedview7"
     pagecolor="#ffffff"
     bordercolor="#666666"
     borderopacity="1.0"
     inkscape:pageshadow="2"
     inkscape:pageopacity="0.0"
     inkscape:pagecheckerboard="0"
     inkscape:document-units="px"
     showgrid="false"
     units="px"
     height="64px"
     inkscape:zoom="8.8277862"
     inkscape:cx="5.9471309"
     inkscape:cy="38.911228"
     inkscape:window-width="1541"
     inkscape:window-height="947"
     inkscape:window-x="23"
     inkscape:window-y="15"
     inkscape:window-maximized="0"
     inkscape:current-layer="svg5" />
  <defs
     id="defs2">
    <linearGradient
       inkscape:collect="always"
       id="linearGradient10453">
      <stop
         style="stop-color:#666666;stop-opacity:1"
         offset="0"
         id="stop10449" />
      <stop
         style="stop-color:#666666;stop-opacity:0"
         offset="1"
         id="stop10451" />
    </linearGradient>
    <linearGradient
       inkscape:collect="always"
       id="linearGradient8423">
      <stop
         style="stop-color:#fcfcfc;stop-opacity:1"
         offset="0"
         id="stop8419" />
      <stop
         style="stop-color:#ffffff;stop-opacity:0;"
         offset="1"
         id="stop8421" />
    </linearGradient>
    <linearGradient
       inkscape:collect="always"
       id="linearGradient6263">
      <stop
         style="stop-color:#000000;stop-opacity:1;"
         offset="0"
         id="stop6259" />
      <stop
         style="stop-color:#000000;stop-opacity:0;"
         offset="1"
         id="stop6261" />
    </linearGradient>
    <linearGradient
       inkscape:collect="always"
       id="linearGradient3378">
      <stop
         style="stop-color:#b0b0b0;stop-opacity:1"
         offset="0"
         id="stop3374" />
      <stop
         style="stop-color:#fcfcfc;stop-opacity:1"
         offset="1"
         id="stop3376" />
    </linearGradient>
    <linearGradient
       inkscape:collect="always"
       xlink:href="#linearGradient3378"
       id="linearGradient3380"
       x1="14.942825"
       y1="1.1138821"
       x2="11.503234"
       y2="4.3115072"
       gradientUnits="userSpaceOnUse"
       gradientTransform="translate(-0.5291663,-0.52916667)" />
    <linearGradient
       inkscape:collect="always"
       xlink:href="#linearGradient6263"
       id="linearGradient6265"
       x1="11.90625"
       y1="2.3812501"
       x2="12.170834"
       y2="7.1437502"
       gradientUnits="userSpaceOnUse"
       gradientTransform="translate(-0.52916663,0.52916673)" />
    <linearGradient
       inkscape:collect="always"
       xlink:href="#linearGradient8423"
       id="linearGradient8425"
       x1="13.692527"
       y1="11.622045"
       x2="1.6077259"
       y2="-0.71580184"
       gradientUnits="userSpaceOnUse" />
    <linearGradient
       inkscape:collect="always"
       xlink:href="#linearGradient10453"
       id="linearGradient10455"
       x1="10"
       y1="72.5"
       x2="58"
       y2="32.5"
       gradientUnits="userSpaceOnUse" />
  </defs>
  <path
     id="rect1068"
     style="fill:#e5e5e5;fill-opacity:1;stroke-width:0.529167;stroke-linejoin:round"
     d="m 3.175,0.5291667 7.143751,3e-8 3.968749,3.96874997 1e-6,11.3770833 c 0,0.293158 -0.236009,0.529167 -0.529167,0.529167 H 3.175 c -0.2931584,0 -0.5291667,-0.236009 -0.5291667,-0.529167 V 1.0583334 c 0,-0.29315835 0.2360083,-0.5291667 0.5291667,-0.5291667 z"
     sodipodi:nodetypes="cccsssssc" />
  <path
     id="rect8140"
     style="opacity:1;fill:url(#linearGradient8425);fill-opacity:1;stroke-width:0.518136;stroke-linejoin:round"
     d="m 3.175,0.5291668 h 7.143751 l -1e-6,2.9104166 0.79375,1.0583333 3.175,0 V 15.875 c 0,0.295111 -0.236009,0.529167 -0.529167,0.529167 H 3.175 c -0.293159,0 -0.529167,-0.236009 -0.529167,-0.529167 V 1.0583337 c 0,-0.2931589 0.236008,-0.5291669 0.529167,-0.5291669 z"
     sodipodi:nodetypes="sccccssssss" />
  <path
     id="rect9905"
     style="opacity:0.3;fill:url(#linearGradient10455);fill-opacity:1;stroke-width:2;stroke-linejoin:round"
     d="M 10 59 L 10 60 C 10 61.108 10.892 62 12 62 L 52 62 C 53.108 62 54 61.108 54 60 L 54 59 C 54 60.108 53.108 61 52 61 L 12 61 C 10.892 61 10 60.108 10 59 z "
     transform="scale(0.26458334)" />
  <path
     id="rect5598"
     style="opacity:0.2;fill:url(#linearGradient6265);fill-opacity:1;stroke-width:0.529167;stroke-linejoin:round"
     d="M 10.444901,4.3115072 10.31875,3.4395834 14.2875,4.4979167 v 3.7041668 z"
     sodipodi:nodetypes="ccccc" />
  <path
     id="rect2607"
     style="fill:url(#linearGradient3380);fill-opacity:1;stroke-width:0.529167;stroke-linejoin:round"
     d="m 14.2875,4.4979167 -3.439583,-1e-7 c -0.293158,0 -0.529166,-0.2360083 -0.529166,-0.5291667 V 0.52916673 Z"
     sodipodi:nodetypes="csscc" />
  <path
     id="path4396"
     style="font-size:1.67233px;line-height:1.25;font-family:Roboto;-inkscape-font-specification:Roboto;text-align:center;text-anchor:middle;stroke-width:0.158015;fill:#808080;fill-opacity:1"
     d="M 34.232422 51 C 33.779774 51 33.410887 51.117118 33.126953 51.349609 C 32.845077 51.580047 32.705078 51.87072 32.705078 52.224609 C 32.705078 52.537355 32.820341 52.801653 33.050781 53.015625 C 33.283278 53.227538 33.651955 53.406643 34.160156 53.552734 C 34.565481 53.670001 34.845687 53.788758 35 53.910156 C 35.154313 54.029496 35.232422 54.199777 35.232422 54.419922 C 35.232422 54.640067 35.149079 54.813835 34.982422 54.941406 C 34.815765 55.068978 34.574458 55.132813 34.261719 55.132812 C 33.926348 55.132813 33.658667 55.054809 33.457031 54.898438 C 33.257455 54.740012 33.158203 54.523542 33.158203 54.251953 L 32.5625 54.251953 C 32.5625 54.513247 32.633319 54.747368 32.777344 54.953125 C 32.923426 55.158875 33.130964 55.322074 33.398438 55.441406 C 33.665912 55.558698 33.953095 55.617187 34.261719 55.617188 C 34.737 55.617188 35.11841 55.507166 35.402344 55.289062 C 35.686278 55.068913 35.828125 54.77824 35.828125 54.414062 C 35.828125 54.185686 35.776702 53.987077 35.673828 53.818359 C 35.57301 53.649644 35.415046 53.502459 35.203125 53.376953 C 34.993261 53.249381 34.702589 53.132263 34.328125 53.027344 C 33.955719 52.922399 33.691525 52.807146 33.535156 52.681641 C 33.380846 52.554089 33.302734 52.399928 33.302734 52.216797 C 33.302734 51.988423 33.384333 51.809212 33.546875 51.681641 C 33.711474 51.552028 33.940258 51.488281 34.232422 51.488281 C 34.547217 51.488281 34.79006 51.566285 34.962891 51.722656 C 35.135721 51.876967 35.222656 52.089739 35.222656 52.361328 L 35.818359 52.361328 C 35.818359 52.112371 35.750925 51.88174 35.617188 51.671875 C 35.485508 51.46201 35.299425 51.29902 35.056641 51.179688 C 34.815914 51.060355 34.541046 51 34.232422 51 z M 24.84375 51.0625 L 24.84375 55.554688 L 25.439453 55.554688 L 25.439453 53.738281 L 26.494141 53.738281 L 27.470703 55.554688 L 28.105469 55.554688 L 28.105469 55.517578 L 27.050781 53.611328 C 27.320314 53.508444 27.529492 53.35233 27.679688 53.144531 C 27.831942 52.936725 27.908203 52.693881 27.908203 52.414062 C 27.908203 51.973745 27.771693 51.638628 27.498047 51.408203 C 27.226458 51.177753 26.838174 51.0625 26.332031 51.0625 L 24.84375 51.0625 z M 28.648438 51.0625 L 28.648438 54.123047 C 28.652552 54.58804 28.801586 54.95342 29.09375 55.21875 C 29.385914 55.484169 29.777791 55.617188 30.269531 55.617188 L 30.425781 55.611328 C 30.87843 55.578408 31.236641 55.425781 31.5 55.15625 C 31.765417 54.886719 31.900286 54.541031 31.902344 54.117188 L 31.902344 51.0625 L 31.306641 51.0625 L 31.306641 54.107422 C 31.306641 54.432509 31.21611 54.684283 31.037109 54.863281 C 30.860165 55.04228 30.604903 55.132812 30.269531 55.132812 C 29.938274 55.132813 29.682907 55.04228 29.503906 54.863281 C 29.324905 54.682222 29.234375 54.430551 29.234375 54.105469 L 29.234375 51.0625 L 28.648438 51.0625 z M 36.216797 51.0625 L 36.216797 51.548828 L 37.658203 51.548828 L 37.658203 55.554688 L 38.246094 55.554688 L 38.246094 51.548828 L 39.691406 51.548828 L 39.691406 51.0625 L 36.216797 51.0625 z M 25.439453 51.548828 L 26.345703 51.548828 C 26.658443 51.550894 26.897902 51.627258 27.0625 51.775391 C 27.229157 51.92353 27.3125 52.1363 27.3125 52.414062 C 27.3125 52.669181 27.225668 52.873126 27.050781 53.025391 C 26.877952 53.177655 26.643831 53.253906 26.349609 53.253906 L 25.439453 53.253906 L 25.439453 51.548828 z "
     transform="scale(0.26458334)" />
</svg>
