<?xml version="1.0" encoding="UTF-8" standalone="no"?>
<!-- Created with Inkscape (http://www.inkscape.org/) -->

<svg
   width="64"
   height="64"
   viewBox="0 0 16.933333 16.933334"
   version="1.1"
   id="svg5"
   inkscape:version="1.1.2 (0a00cf5339, 2022-02-04, custom)"
   sodipodi:docname="text-vnd.trolltech.linguist.svg"
   xmlns:inkscape="http://www.inkscape.org/namespaces/inkscape"
   xmlns:sodipodi="http://sodipodi.sourceforge.net/DTD/sodipodi-0.dtd"
   xmlns:xlink="http://www.w3.org/1999/xlink"
   xmlns="http://www.w3.org/2000/svg"
   xmlns:svg="http://www.w3.org/2000/svg">
  <sodipodi:namedview
     id="namedview7"
     pagecolor="#ffffff"
     bordercolor="#666666"
     borderopacity="1.0"
     inkscape:pageshadow="2"
     inkscape:pageopacity="0.0"
     inkscape:pagecheckerboard="0"
     inkscape:document-units="px"
     showgrid="false"
     units="px"
     height="64px"
     inkscape:zoom="8.8277862"
     inkscape:cx="28.772786"
     inkscape:cy="36.928851"
     inkscape:window-width="1541"
     inkscape:window-height="947"
     inkscape:window-x="23"
     inkscape:window-y="32"
     inkscape:window-maximized="0"
     inkscape:current-layer="svg5" />
  <defs
     id="defs2">
    <linearGradient
       inkscape:collect="always"
       id="linearGradient11659">
      <stop
         style="stop-color:#19458f;stop-opacity:1"
         offset="0"
         id="stop11655" />
      <stop
         style="stop-color:#206eb5;stop-opacity:1"
         offset="1"
         id="stop11657" />
    </linearGradient>
    <linearGradient
       inkscape:collect="always"
       id="linearGradient10453">
      <stop
         style="stop-color:#666666;stop-opacity:1"
         offset="0"
         id="stop10449" />
      <stop
         style="stop-color:#666666;stop-opacity:0"
         offset="1"
         id="stop10451" />
    </linearGradient>
    <linearGradient
       inkscape:collect="always"
       id="linearGradient8423">
      <stop
         style="stop-color:#fcfcfc;stop-opacity:1"
         offset="0"
         id="stop8419" />
      <stop
         style="stop-color:#ffffff;stop-opacity:0;"
         offset="1"
         id="stop8421" />
    </linearGradient>
    <linearGradient
       inkscape:collect="always"
       id="linearGradient6263">
      <stop
         style="stop-color:#000000;stop-opacity:1;"
         offset="0"
         id="stop6259" />
      <stop
         style="stop-color:#000000;stop-opacity:0;"
         offset="1"
         id="stop6261" />
    </linearGradient>
    <linearGradient
       inkscape:collect="always"
       id="linearGradient3378">
      <stop
         style="stop-color:#b0b0b0;stop-opacity:1"
         offset="0"
         id="stop3374" />
      <stop
         style="stop-color:#fcfcfc;stop-opacity:1"
         offset="1"
         id="stop3376" />
    </linearGradient>
    <linearGradient
       inkscape:collect="always"
       xlink:href="#linearGradient3378"
       id="linearGradient3380"
       x1="14.942825"
       y1="1.1138821"
       x2="11.503234"
       y2="4.3115072"
       gradientUnits="userSpaceOnUse"
       gradientTransform="translate(-0.5291663,-0.52916667)" />
    <linearGradient
       inkscape:collect="always"
       xlink:href="#linearGradient6263"
       id="linearGradient6265"
       x1="11.90625"
       y1="2.3812501"
       x2="12.170834"
       y2="7.1437502"
       gradientUnits="userSpaceOnUse"
       gradientTransform="translate(-0.52916663,0.52916673)" />
    <linearGradient
       inkscape:collect="always"
       xlink:href="#linearGradient8423"
       id="linearGradient8425"
       x1="13.692527"
       y1="11.622045"
       x2="1.6077259"
       y2="-0.71580184"
       gradientUnits="userSpaceOnUse" />
    <linearGradient
       inkscape:collect="always"
       xlink:href="#linearGradient10453"
       id="linearGradient10455"
       x1="10"
       y1="72.5"
       x2="58"
       y2="32.5"
       gradientUnits="userSpaceOnUse" />
    <linearGradient
       inkscape:collect="always"
       xlink:href="#linearGradient11659"
       id="linearGradient11661"
       x1="4.7624998"
       y1="5.630147"
       x2="4.7625003"
       y2="11.980147"
       gradientUnits="userSpaceOnUse" />
  </defs>
  <path
     id="rect1068"
     style="fill:#e5e5e5;fill-opacity:1;stroke-width:0.529167;stroke-linejoin:round"
     d="m 3.175,0.5291667 7.143751,3e-8 3.968749,3.96874997 1e-6,11.3770833 c 0,0.293158 -0.236009,0.529167 -0.529167,0.529167 H 3.175 c -0.2931584,0 -0.5291667,-0.236009 -0.5291667,-0.529167 V 1.0583334 c 0,-0.29315835 0.2360083,-0.5291667 0.5291667,-0.5291667 z"
     sodipodi:nodetypes="cccsssssc" />
  <path
     id="rect8140"
     style="opacity:1;fill:url(#linearGradient8425);fill-opacity:1;stroke-width:0.518136;stroke-linejoin:round"
     d="m 3.175,0.5291668 h 7.143751 l -1e-6,2.9104166 0.79375,1.0583333 3.175,0 V 15.875 c 0,0.295111 -0.236009,0.529167 -0.529167,0.529167 H 3.175 c -0.293159,0 -0.529167,-0.236009 -0.529167,-0.529167 V 1.0583337 c 0,-0.2931589 0.236008,-0.5291669 0.529167,-0.5291669 z"
     sodipodi:nodetypes="sccccssssss" />
  <path
     d="m 10.51202,6.6145834 c -0.273159,0 -0.5132971,0.037239 -0.7203691,0.1121378 C 9.5889841,6.7972139 9.4192173,6.8919853 9.2826376,7.0109417 9.1460581,7.1298981 9.0448674,7.2665331 8.9787803,7.4207358 8.9126935,7.5705328 8.8795615,7.7269433 8.8795615,7.8899576 v 0.118856 c 0,0.2158838 0.039551,0.3990066 0.1188559,0.5488038 0.08371,0.1453912 0.1964616,0.2686701 0.3374469,0.3700034 0.1409854,0.096927 0.3084402,0.1783423 0.5022956,0.2444295 0.1938551,0.061681 0.4031731,0.1169008 0.6278681,0.1653645 0.193855,0.039652 0.356686,0.085623 0.488859,0.1384928 0.132174,0.048464 0.240302,0.1036835 0.324012,0.1653645 0.08371,0.061681 0.143037,0.1320525 0.178283,0.2113566 0.03525,0.079304 0.05271,0.1722803 0.05271,0.2780193 v 0.10542 c 0,0.189448 -0.08604,0.352796 -0.257865,0.489375 -0.16742,0.13658 -0.420398,0.204639 -0.759644,0.204639 -0.101333,0 -0.214084,-0.01336 -0.337447,-0.03979 C 10.03598,10.863862 9.9173249,10.828932 9.7983689,10.784872 9.679412,10.736407 9.562553,10.681187 9.4480022,10.619507 9.3334516,10.557825 9.2322606,10.493874 9.1441449,10.427787 l -0.3307292,0.535368 c 0.1982608,0.158608 0.4383987,0.290619 0.7203694,0.396358 0.2863768,0.110145 0.5991979,0.165365 0.9384449,0.165365 0.242318,0 0.467304,-0.02851 0.674377,-0.08578 0.211478,-0.05287 0.391772,-0.134802 0.541569,-0.244946 0.149797,-0.114551 0.266656,-0.252981 0.350366,-0.415996 0.08812,-0.163014 0.132292,-0.354869 0.132292,-0.575158 v -0.118859 c 0,-0.1630143 -0.0262,-0.3130051 -0.07906,-0.449585 C 12.043305,9.4979746 11.959578,9.3746957 11.840621,9.2645509 11.721666,9.154406 11.562942,9.0578394 11.364682,8.9741295 11.170826,8.8860134 10.926064,8.8087056 10.630876,8.7426191 10.454645,8.7029668 10.298234,8.6634152 10.161654,8.6237631 10.025075,8.5797052 9.9105279,8.5291097 9.8180059,8.4718343 9.7254842,8.4145592 9.655113,8.3482953 9.606649,8.2733969 9.558185,8.1940928 9.5337851,8.0993214 9.5337851,7.9891764 V 7.88324 c 0,-0.1894491 0.088352,-0.3499674 0.2645838,-0.4821414 0.180637,-0.1321736 0.4207751,-0.1984375 0.7203691,-0.1984375 0.22029,0 0.420877,0.026712 0.601514,0.079582 0.180637,0.052869 0.358619,0.1383922 0.534851,0.2573486 L 11.966195,7.0310955 C 11.763529,6.894516 11.543167,6.7910129 11.305254,6.7205202 11.067341,6.6500275 10.802802,6.6145834 10.51202,6.6145834 Z M 4.7625001,6.6874474 V 7.2491701 H 6.2161583 V 11.452014 H 6.8708986 V 7.2491701 H 8.3245567 V 6.6874473 Z"
     style="font-weight:bold;font-size:6.60869px;line-height:1.25;font-family:'나눔스퀘어';-inkscape-font-specification:'나눔스퀘어 Bold';opacity:0.2;fill:#000000;fill-opacity:1;stroke-width:0.0437139"
     id="path859" />
  <path
     id="path10474"
     style="font-weight:bold;font-size:6.60869px;line-height:1.25;font-family:'나눔스퀘어';-inkscape-font-specification:'나눔스퀘어 Bold';fill:url(#linearGradient11661);fill-opacity:1;stroke-width:0.165218"
     d="m 10.51202,6.3500001 c -0.273159,0 -0.5132971,0.037239 -0.7203691,0.1121378 C 9.588984,6.5326306 9.4192173,6.6274019 9.2826375,6.7463583 9.146058,6.8653147 9.0448673,7.0019498 8.9787802,7.1561524 8.9126934,7.3059494 8.8795615,7.4623601 8.8795615,7.6253743 v 0.1188559 c 0,0.2158838 0.039551,0.3990067 0.1188559,0.5488038 0.08371,0.1453911 0.1964615,0.26867 0.3374469,0.3700033 0.1409853,0.096927 0.3084401,0.1783425 0.5022956,0.2444296 0.1938551,0.061681 0.4031731,0.1169008 0.6278681,0.1653646 0.193855,0.039652 0.356686,0.085623 0.488859,0.1384927 0.132174,0.048464 0.240302,0.1036836 0.324012,0.1653646 0.08371,0.061681 0.143037,0.1320525 0.178283,0.2113566 0.03525,0.079304 0.05271,0.1722803 0.05271,0.2780196 v 0.10542 c 0,0.189448 -0.08604,0.352796 -0.257865,0.489375 -0.16742,0.13658 -0.420398,0.204639 -0.759644,0.204639 -0.101333,0 -0.214084,-0.01336 -0.337447,-0.03979 C 10.03598,10.599279 9.9173249,10.564349 9.7983689,10.520289 9.679412,10.471824 9.562553,10.416604 9.4480021,10.354924 9.3334516,10.293242 9.2322606,10.229291 9.1441448,10.163204 l -0.3307291,0.535368 c 0.1982607,0.158608 0.4383987,0.290619 0.7203694,0.396358 0.2863768,0.110145 0.5991979,0.165365 0.9384449,0.165365 0.242318,0 0.467304,-0.02851 0.674377,-0.08578 0.211478,-0.05287 0.391772,-0.134802 0.541569,-0.244946 0.149797,-0.114551 0.266656,-0.252981 0.350366,-0.415996 0.08812,-0.163014 0.132292,-0.354869 0.132292,-0.575158 V 9.8195558 c 0,-0.1630143 -0.0262,-0.3130052 -0.07906,-0.4495851 C 12.043305,9.2333912 11.959578,9.1101124 11.840621,8.9999677 11.721666,8.8898227 11.562942,8.793256 11.364682,8.7095462 11.170826,8.62143 10.926064,8.5441223 10.630876,8.4780357 10.454645,8.4383833 10.298234,8.3988318 10.161654,8.3591798 10.025075,8.3151219 9.9105279,8.2645264 9.8180059,8.207251 9.7254842,8.1499759 9.6551129,8.083712 9.6066489,8.0088136 9.5581849,7.9295094 9.5337851,7.834738 9.5337851,7.7245931 V 7.6186565 c 0,-0.1894491 0.088352,-0.3499673 0.2645838,-0.4821412 0.180637,-0.1321737 0.4207751,-0.1984375 0.7203691,-0.1984375 0.22029,0 0.420877,0.026712 0.601514,0.079582 0.180637,0.052869 0.358619,0.1383922 0.534851,0.2573486 L 11.966195,6.7665122 C 11.763529,6.6299328 11.543167,6.5264295 11.305254,6.4559368 11.067341,6.3854442 10.802802,6.3500001 10.51202,6.3500001 Z M 4.7625,6.4228639 V 6.9845868 H 6.2161582 V 11.187431 H 6.8708985 V 6.9845868 H 8.3245567 V 6.4228639 Z"
     sodipodi:nodetypes="scscsscccccscsscsccscccscccsscscccscsscssccssccccccccc" />
  <path
     id="rect9905"
     style="opacity:0.3;fill:url(#linearGradient10455);fill-opacity:1;stroke-width:2;stroke-linejoin:round"
     d="M 10 59 L 10 60 C 10 61.108 10.892 62 12 62 L 52 62 C 53.108 62 54 61.108 54 60 L 54 59 C 54 60.108 53.108 61 52 61 L 12 61 C 10.892 61 10 60.108 10 59 z "
     transform="scale(0.26458334)" />
  <path
     id="rect5598"
     style="opacity:0.2;fill:url(#linearGradient6265);fill-opacity:1;stroke-width:0.529167;stroke-linejoin:round"
     d="M 10.444901,4.3115072 10.31875,3.4395834 14.2875,4.4979167 v 3.7041668 z"
     sodipodi:nodetypes="ccccc" />
  <path
     id="rect2607"
     style="fill:url(#linearGradient3380);fill-opacity:1;stroke-width:0.529167;stroke-linejoin:round"
     d="m 14.2875,4.4979167 -3.439583,-1e-7 c -0.293158,0 -0.529166,-0.2360083 -0.529166,-0.5291667 V 0.52916673 Z"
     sodipodi:nodetypes="csscc" />
  <path
     d="M 10.110726,14.798972 H 9.9409409 V 13.511437 H 10.110726 Z M 9.6606189,13.511437 v 0.875453 c -5.82e-4,0.121444 -0.03891,0.22078 -0.114958,0.298008 -0.07546,0.07723 -0.178039,0.120559 -0.307736,0.129991 l -0.0451,0.0017 c -0.140898,0 -0.253203,-0.03803 -0.336917,-0.114075 -0.08371,-0.07603 -0.12616,-0.180654 -0.127339,-0.313888 v -0.877222 h 0.168017 v 0.871917 c 0,0.09314 0.02564,0.165657 0.07693,0.217536 0.05129,0.05129 0.12439,0.07693 0.219305,0.07693 0.09609,0 0.169491,-0.02564 0.22019,-0.07693 0.05129,-0.05129 0.07693,-0.123506 0.07693,-0.216653 v -0.8728 z m 2.7245181,0.139719 h -0.413851 v 1.147816 h -0.1689 v -1.147816 h -0.412967 v -0.139719 h 0.995718 z M 5.9191597,14.798972 H 5.7493748 v -1.287535 h 0.1697849 z m 4.8813173,-0.573908 c -0.145614,-0.04186 -0.251729,-0.09315 -0.318346,-0.153868 -0.06603,-0.06131 -0.09904,-0.136769 -0.09904,-0.22638 0,-0.101399 0.04038,-0.185112 0.121148,-0.25114 0.08136,-0.06662 0.186882,-0.09992 0.316578,-0.09992 0.08843,0 0.167132,0.0171 0.236108,0.05129 0.06956,0.03419 0.123208,0.08136 0.160942,0.141487 0.03832,0.06013 0.05748,0.125865 0.05748,0.197199 h -0.17067 c 0,-0.07782 -0.02476,-0.138835 -0.07428,-0.183049 -0.04952,-0.04481 -0.11938,-0.06721 -0.209579,-0.06721 -0.08371,0 -0.149151,0.01857 -0.196314,0.05571 -0.04657,0.03655 -0.06986,0.08755 -0.06986,0.152983 0,0.05247 0.02211,0.09698 0.06632,0.133529 0.04481,0.03596 0.12056,0.06898 0.227264,0.09905 0.107295,0.03006 0.191008,0.06337 0.25114,0.09992 0.06072,0.03596 0.105529,0.07811 0.134413,0.126455 0.02948,0.04834 0.04422,0.105232 0.04422,0.170669 0,0.104347 -0.04068,0.18806 -0.122033,0.25114 -0.08136,0.06249 -0.190124,0.09374 -0.326306,0.09374 -0.08843,0 -0.170964,-0.0168 -0.247603,-0.05041 -0.07664,-0.03419 -0.135887,-0.08076 -0.177744,-0.139718 -0.04127,-0.05895 -0.0619,-0.125868 -0.0619,-0.200736 h 0.170669 c 0,0.07782 0.02859,0.139424 0.08578,0.184818 0.05777,0.04481 0.134706,0.06721 0.230802,0.06721 0.08961,0 0.158289,-0.01828 0.206041,-0.05483 0.04775,-0.03655 0.07163,-0.08637 0.07163,-0.149446 0,-0.06308 -0.02211,-0.111714 -0.06632,-0.145909 -0.04421,-0.03478 -0.12439,-0.06898 -0.24053,-0.102576 z m -5.8673079,0.435074 h 0.6101646 v 0.138834 H 4.7624998 v -1.287535 h 0.1706693 z m 3.5380708,-0.03007 c -0.04362,0.06249 -0.104642,0.109361 -0.1830494,0.140603 -0.077818,0.03066 -0.168606,0.04598 -0.2723634,0.04598 -0.1049367,0 -0.1980824,-0.02447 -0.2794379,-0.0734 -0.081355,-0.04952 -0.1444349,-0.119674 -0.1892395,-0.210463 -0.044215,-0.09079 -0.066912,-0.196018 -0.068091,-0.315693 v -0.112306 c 0,-0.193956 0.045099,-0.344286 0.1352973,-0.450991 0.090788,-0.106705 0.2181265,-0.160058 0.3820163,-0.160058 0.1344131,0 0.2425919,0.03449 0.3245366,0.103465 0.08194,0.06838 0.132055,0.165657 0.150331,0.291818 h -0.169785 c -0.031835,-0.170371 -0.1332344,-0.255558 -0.3041981,-0.255558 -0.1137796,0 -0.2001457,0.04009 -0.2590988,0.120265 -0.058364,0.07959 -0.08784,0.195134 -0.08843,0.346644 v 0.10523 c 0,0.144435 0.033014,0.259394 0.099042,0.344876 0.066028,0.08489 0.1553419,0.127338 0.267942,0.127338 0.063669,0 0.1193797,-0.0071 0.167132,-0.02123 0.047752,-0.01415 0.087251,-0.03803 0.1184959,-0.07163 v -0.28915 H 8.0043312 v -0.137949 h 0.4669087 z m -1.252164,0.1689 H 7.0484067 l -0.6481895,-0.99218 v 0.99218 H 6.229548 v -1.287531 h 0.1706692 l 0.649958,0.996602 v -0.996602 h 0.1689007 z"
     style="font-family:Roboto;-inkscape-font-specification:Roboto;text-align:center;text-anchor:middle;stroke-width:0.264583;fill:#808080;fill-opacity:1"
     id="path11426" />
</svg>
